<?xml version="1.0" encoding="utf-8" ?>
<svg baseProfile="full" height="300mm" version="1.1" viewBox="0,0,200,300" width="200mm" xmlns="http://www.w3.org/2000/svg" xmlns:ev="http://www.w3.org/2001/xml-events" xmlns:xlink="http://www.w3.org/1999/xlink"><defs /><rect fill="#222222" height="300" width="200" x="0" y="0" /><text fill="#FFFFFF" style="font-size:12px; font-family:Arial; font-weight:bold;" x="10" y="20">Over 4K Runs</text><text fill="#FFFFFF" style="font-size:4px; font-family:Arial" x="10" y="280">ATHLETE</text><text fill="#FFFFFF" style="font-size:9px; font-family:Arial" x="10" y="290">ChiZhang9797</text><text fill="#FFFFFF" style="font-size:4px; font-family:Arial" x="120" y="280">STATISTICS</text><text fill="#FFFFFF" style="font-size:3px; font-family:Arial" x="120" y="285">Number: 3</text><text fill="#FFFFFF" style="font-size:3px; font-family:Arial" x="120" y="290">Weekly: 1.5</text><text fill="#FFFFFF" style="font-size:3px; font-family:Arial" x="141" y="285">Total: 14.1 km</text><text fill="#FFFFFF" style="font-size:3px; font-family:Arial" x="141" y="290">Avg: 4.7 km</text><text fill="#FFFFFF" style="font-size:3px; font-family:Arial" x="167" y="285">Min: 4.5 km</text><text fill="#FFFFFF" style="font-size:3px; font-family:Arial" x="167" y="290">Max: 5.0 km</text><polyline fill="none" points="84.2910786177381,34.5 83.90635997324716,35.36232952825958 83.7314878620673,36.08093553126673 83.55661575094564,36.464191346021835 83.31179479527054,36.56000522148679 81.84286906168563,36.79953977308469 81.49312483938411,37.03907412910485 81.38820157264126,37.42232869158033 81.42317599483067,38.33255627003382 81.35322715039365,38.66790256035165 81.14338061708258,38.859528839820996 80.8985596614657,38.90743539002142 80.44389217247954,38.90743539002142 79.81435257231351,38.811622281587915 79.2197873943951,38.859528839820996 78.24050357192755,38.38046290635248 78.03065703850007,38.42836953501683 77.12132206058595,38.811622281587915 76.52675688266754,39.09906151294126 76.38685919373529,39.05115499391104 74.9878823045874,38.2367429737933 74.67311250453349,38.14092964620795 74.07854732649866,38.28464962585713 73.69382868200773,38.14092964620795 71.98008199280594,37.1827946487756 71.42049123707693,37.03907412910485 71.17567028151825,37.23070147287217 70.68602837022627,38.33255627003382 70.30130972573534,38.90743539002142 69.3570003255154,41.25484676641645 68.02797228074633,43.79386240596068 65.29996734688757,51.50658641298651 64.81032543559559,52.36886593041709 64.53053005773108,52.560483256645966 63.90099045756506,52.75210045764106 63.621195079700556,53.231142912467476 62.71186010178644,56.15328493993729 62.04734607943101,57.44668277032906 61.90744839044055,57.97362099165912 61.52272974594962,58.7879781985248 61.382832057075575,59.314914009853965 60.998113412526436,60.17717056750553 60.75329245690955,61.03942458998063 59.98385516781127,62.62021704640938 59.80898305674782,63.5782689335465 59.66908536775736,65.68597206813865 59.28436672320822,66.88352391860099 58.20015963411424,69.37441610294627 57.25585023389431,71.91318828912335 56.13666872255271,75.26624994707527 55.297282588959206,77.23016825807281 54.10815223318059,80.48736963339616 52.49932881054701,84.31932493732893 52.18455901055131,85.2294069644704 51.9047636326286,86.2352838141378 51.55501941032708,87.28905586115434 49.98117041005753,91.0730242759746 49.70137503219303,91.93518746548216 48.72209120972548,94.37796940567205 47.917679498496,96.53334833966801 47.21819105389295,98.54502105375286 46.203932809177786,100.89195511495927 45.9591118535609,101.17933350536623 45.434495520137716,101.41881528226077 45.18967456452083,101.56250425460166 44.97982803109335,101.9456745031348 44.140441897616256,104.14889371834579 43.860646519751754,104.72364383525564 42.846388275094796,107.31000542387483 41.41243696369929,111.28529451036593 40.782897363533266,112.57844922580989 40.573050830105785,112.77002721730969 40.15335776336724,112.81792169559048 33.19344773964258,111.76424136612331 31.934368539310526,111.8600306432927 31.304828939260915,111.95581988932099 30.325545116735157,112.19529286739998 29.696005516627338,112.43476565013407 27.52759133838117,113.63212663054583 27.00297500489978,114.0152811119915 25.708921382320113,115.5 27.00297500489978,114.0152811119915 27.842361138376873,113.34476044093026 29.276312449888792,112.57844922580989 30.885135872405954,112.0037145006354 31.654573161446024,111.81213600860792 33.298371006327216,111.71634671566426 34.83724558446556,111.8600306432927 39.90853680780856,112.62634373546462 40.642999674601015,112.57844922580989 40.81787178578088,112.53055470835534 40.92279505240731,112.38687110916362 42.88136269734241,107.07052845702856 43.44095345301321,105.15470568381716 43.930595364188775,104.00520601312746 45.01480245334096,101.70619315645308 45.294597831205465,101.41881528226077 45.9591118535609,101.03564434533473 46.2389072314254,100.74826581421075 46.93839567602845,99.023988713976 48.09255160961766,95.95858217266505 48.58219352085143,94.47376436152263 50.61071001016535,89.2528936638846 51.694917099317536,86.2352838141378 52.70917534397449,83.88823246516404 53.26876609964529,82.30755464558024 53.72343358868966,81.3495639419998 54.63276856672019,78.90667348401621 54.842615099973045,78.14027228407213 55.36723143351264,76.70326463627862 56.52138736710185,73.97293070654268 56.83615716715576,72.96701179849333 58.72477596759563,68.36848142137751 59.56416210113093,65.97338495819713 59.704059790004976,65.44646111113252 59.704059790004976,64.96743861050345 59.56416210113093,63.7698789355054 59.634110945567954,63.14714597174316 59.87893190106843,62.47650899356813 60.718318034661934,60.84781280416064 60.998113412526436,60.03346131721628 61.242934368143324,58.883784780075075 61.767550701566506,57.590393288148334 62.0123716572416,56.680225485382834 63.09657874633558,54.18922547419788 63.58622065745294,52.89581327632186 63.831041613128036,52.512578936788486 64.74037659115857,52.081439706264064 64.95022312458605,51.79401320053148 65.19504408014473,50.979636570904404 66.2792511692387,48.39277815670357 66.94376519165235,46.57238262984902 67.32848383614328,45.75799149845261 68.65751188085414,42.45249839228927 71.0707470147754,36.99116727351793 71.17567028151825,36.79953977308469 71.45546565926634,36.655819065636024 72.22490294830641,37.086980976804625 72.7495192817878,37.47023547673598 73.09926350408932,37.566049023356754" stroke="#4dd2ff" stroke-linecap="round" stroke-linejoin="round" stroke-width="0.5"><title>2022-08-14 5.0km</title></polyline><polyline fill="none" points="168.90668594738236,34.5 168.42855222843355,34.65113921396551 167.03093058848754,34.65113921396551 166.5160173526965,34.85265805060044 166.40567880216986,34.95341741951415 166.14822218427435,35.759491185395746 165.8172065326944,36.21290675291675 165.44941136427224,36.46480400225846 164.64026199374348,36.56556284439284 163.94145117374137,36.76708042973769 163.64721503894543,37.018977226514835 163.536876488477,37.27087381738238 163.3529789042659,38.32883725207648 163.24264035368105,38.4799745893979 162.91162470215932,38.58073277302901 162.2128138821572,38.53035368525889 161.2933259611018,38.63111185247544 160.55773562425748,38.27845812324085 160.22671997273574,38.22807898622705 158.46130316425115,38.88300712654018 158.05672847898677,38.78224904151284 156.62232732214034,37.87542479604599 155.6660598841845,37.87542479604599 153.5696274242946,36.51518342734198 153.20183225587243,36.41442456879304 152.98115515476093,36.51518342734198 152.87081660423428,36.71670104583609 152.53980095265433,37.62352869895403 151.43641544732964,39.78982840891695 149.5238805715926,43.82011295630946 148.8618492684327,45.83523547713412 147.75846376322443,48.7067623170733 147.13321197690675,50.26845867111115 146.28728308953578,52.58579997642664 146.06660598842427,52.837683851481415 145.4781337189488,52.98881407792214 145.33101565157995,53.08956752100494 145.03677951684222,53.4925809642009 144.66898434847826,54.550488746812334 143.78627594420686,56.81742177455453 143.4184807757265,57.52268642888521 143.1610241579474,58.32870120188454 142.86678802315146,59.084338138083695 142.64611092209816,59.94072442763718 141.72662300104275,62.006116871052654 140.88069411373,64.12187039709534 140.80713507998735,64.57524426435702 140.73357604630291,66.69098016488715 139.519851990568,70.26754832195002 138.93137972103432,71.67801450088155 137.79121469892561,74.80116665526293 136.90850629477063,76.61459532796289 136.06257740739966,78.42801333771786 135.58444368833443,80.03993150620954 135.2902075536549,80.69477085553808 134.84885335160652,82.35704911351786 134.29716059897328,83.66671658243285 133.78224736312404,85.17786444339436 132.82597992522642,87.69642775825923 132.38462572317803,88.60310551675502 131.4283582852222,91.07127035598387 130.58242939785123,92.93497357476735 129.8100595441647,95.40310374836554 129.25836679153144,96.71271582003101 128.78023307258263,98.22379976219963 127.93430418526987,100.28893584414618 126.79413916310295,103.51253526087385 126.61024157889187,103.86511440310278 126.46312351158122,104.01621962644276 125.54363559052581,104.46953485213453 125.28617897257209,104.82211290035048 124.91838380420813,105.8294765316823 124.21957298420602,107.39088365834323 123.74143926525721,108.85154768562643 123.0426284451969,110.56404152940377 122.45415617572144,112.17579175584251 121.09331405255944,115.5 121.31399115361273,114.59340130444616 122.38059714209521,111.97432343810215 123.44720313046128,108.65007719647838 125.10228138824459,104.67100807192037 125.58041510736803,104.16732477565529 126.24244641046971,103.81474597891793 126.57346206204966,103.56290373453521 126.97803674731404,102.35405809880467 127.7871861178428,100.6415186713275 128.55955597158754,98.57638495013816 129.25836679153144,96.25938919367036 130.36175229673972,93.28756480879383 131.09734263370046,91.57497503911145 132.16394862206653,88.50236367518664 133.63512929575518,85.17786444339436 134.99597141891718,81.09774822570034 136.43037257582182,77.72279648986296 136.46715209260583,77.37018746134709 136.834947261028,76.26198503229534 137.9751122831367,73.54183491447475 138.49002551886952,72.63511287694564 138.56358455261216,72.13137725970591 138.85782068734989,71.37577229129965 139.15205682214582,70.26754832195002 139.74052909162128,69.05857217713492 140.54967846209183,66.99322696571471 140.6967965295189,66.23760940815555 140.62323749583447,64.5248694230686 140.77035556314513,63.66849586358876 140.917473630514,63.366245804179925 141.3588278326788,62.711369659227785 141.8001820347272,61.80461577817914 142.64611092209816,59.084338138083695 143.1978036747896,57.52268642888521 143.639157876838,56.81742177455453 144.00695304526016,55.75952176877763 144.70576386532048,53.39182765284204 144.92644096631557,53.03919080350897 145.11033855052665,52.837683851481415 145.80914937058697,52.535423176625045 145.99304695479805,52.38429272794747 146.1401650221087,52.13240848245914 146.91253487585345,50.318835841229884 147.9055818305933,47.49770164361689 149.19286491995445,44.525407336477656 149.7445576727041,42.963681897497736 150.84794317791238,40.34399565766216 152.76047805370763,36.666321653465275 152.98115515476093,36.46480400225846 153.27539128944045,36.51518342734198 153.8270840421319,36.666321653465275 154.45233582844958,37.11973588747787 155.55572133371606,37.57314945492544 155.77639843476936,37.62352869895403 156.65910683898255,37.422011673101224 158.42452364740893,38.22807898622705 160.1531609389931,37.72428716244758 161.25654644425958,38.127320687199244 162.02891629788792,38.127320687199244 162.94840421900153,38.4295954851259 163.46331745479256,38.4295954851259" stroke="#4dd2ff" stroke-linecap="round" stroke-linejoin="round" stroke-width="0.5"><title>2022-07-26 4.5km</title></polyline><polyline fill="none" points="77.41071516176453,186.26536615681835 76.30091936298413,186.16729053171002 75.62072193797212,186.3144039574836 75.51332234445726,186.46151731122518 75.54912220902042,186.90285693955957 75.51332234445726,187.14804534151335 75.40592275105882,187.3932335434074 75.26272329321364,187.58938396064332 75.04792410630034,187.6874591211381 74.1171276299865,187.73649668932194 73.65172939177137,187.9816844103043 73.32953061145963,188.37398434741772 73.1505312891677,188.66820896381978 72.97153196670115,189.74703008926008 72.82833250885596,189.94317896821303 72.68513305095257,189.9922161680006 72.00493562588235,189.9922161680006 70.82354009820847,189.79606732109096 70.42974158894503,189.6489556018205 70.00014321517665,189.35473194686347 69.67794443498133,189.3056946430297 69.17674633237766,189.59991834594985 68.56814863631735,189.79606732109096 68.13855026254896,190.0412533596391 67.88795121118892,190.0412533596391 67.2793535151286,189.6489556018205 66.2411574452999,189.1095453473681 66.02635825850302,189.06050800348748 65.4177605623263,189.2566573311051 65.05976191762602,189.1585826833034 63.69936706754379,188.12879694675212 63.16236910043517,187.8345718017954 62.73277072672499,187.8345718017954 62.55377140431665,187.9816844103043 61.945173708198126,189.69799284951296 61.08597696077777,191.12006955011748 59.43918319494696,194.74878646168509 57.613390106649604,199.9466018282983 56.503594307927415,202.74161627385183 55.966596340818796,203.6732819720637 55.823396882857196,203.77135187733802 55.32219878019532,203.8694217505108 55.07159972889349,204.11459629348246 54.74940094863996,205.58563934569247 54.21240298153134,206.81150304875337 53.9618039301713,207.54701886759722 53.353206234110985,208.72384042889462 52.95940772484755,209.94969131593825 51.56321301031858,213.23494700703304 51.205214365560096,214.16658013671986 51.09781477210345,214.90207793354057 50.91881544975331,217.3537242411694 50.81141585629666,217.745985792164 49.30782154831104,221.22728459630162 48.019026427180506,224.9046690617688 46.766031170554925,227.79751318320632 46.12163360998966,229.75874757851125 45.334036591521,231.67093877732987 44.33164038619725,234.367597972363 43.90204201248707,235.74043334831367 43.47244363871869,236.67199663529755 43.18604472297011,237.50549817850697 42.362647840054706,239.31958177295746 41.82564987294609,240.8394812096667 41.32445177034242,242.06520095682936 40.75165393867064,243.58508649287978 40.50105488736881,244.61468200036325 40.32205556490226,245.15399252364296 39.892457191308495,246.13455462927232 39.31965935963672,247.70344733665115 38.46046261227457,249.86066142222262 37.06426789762918,253.19450724756462 36.74206911731744,253.63574877378414 35.990271963353734,254.07698965162854 35.775472776498646,254.3711498764169 35.05947548703989,256.1361051731219 34.450877790979575,258.0481283692061 31.586888632853515,265.2058506788162 31.55108876840677,265.5 31.65848836186342,265.401950258296 31.909087413165253,264.4214510801248 32.9830833474407,261.23480663637747 33.734880501404405,259.273777859431 33.949679688259494,258.489362762135 34.450877790979575,257.50884100832627 34.73727670678636,256.57734237611294 35.238474809448235,255.2536288217816 35.56067358958535,254.32212319233804 35.990271963353734,253.83185591062647 36.777868981822394,253.39061467265128 36.95686830423074,253.24353411589982 37.20746735553257,252.7042381245119 38.60366207011975,249.27233184527722 39.283859495131765,247.2621970915352 40.536854751815554,244.02634214278078 41.3960514991777,241.57491365846363 42.040449059801176,240.00598892298876 42.50584729789989,239.07443598186364 43.22184458747506,236.8190853111446 44.68963903101394,233.1418467957701 45.44143618497765,230.8864515539608 46.05003388103796,229.31747095671017 47.231429408770055,226.62076639576117 48.377025071997195,223.28662544698454 48.94982290355256,222.06082902339404 50.274417889188044,218.6776049216569 50.81141585629666,217.010494963557 50.847215720801614,216.42210100300144 50.739816127344966,215.78467291095876 50.739816127344966,215.04917727675638 50.77561599184992,214.26464661376667 51.70641246822197,212.30331098590977 52.06441111298045,211.22457092785044 53.424805963004474,207.98832749362919 54.06920352362795,206.12501999171218 54.463002032833174,205.24239661174943 54.82100067753345,204.26170092320535 55.10739959334023,203.9674915918149 55.859196747420356,203.62424700745032 56.038196069712285,203.37907206392265 56.78999322367599,201.2705592836137 57.25539146189112,200.14274404203752 57.792389429116156,199.01492456288543 58.8663853633916,196.4650562062161 59.4749830593355,194.6997500389989 60.477379264717456,192.3950291396468 60.906977638427634,191.56140232863254 61.801974250294734,189.40376924263546 62.410571946413256,188.2268719310232 62.625371133268345,187.93264688219642 62.91177004907513,187.78553424947313 64.41536435706075,188.66820896381978 65.38196069787955,188.96243329159915 65.95475852955133,188.8153211637691 66.16955771640642,188.8153211637691 66.31275717430981,188.8643585476675 66.84975514136022,189.2566573311051 67.67315202433383,189.59991834594985 67.95955094008241,189.59991834594985 68.53234877169598,189.2566573311051 69.71374429942807,189.0114706516324 70.71614050475182,189.55088108207565 71.3605380653753,189.40376924263546 72.00493562588235,189.5018438103143 72.86413237336092,189.35473194686347 73.18633115361445,189.1585826833034 73.25793088250794,188.96243329159915 73.32953061145963,188.66820896381978 73.32953061145963,187.93264688219642 73.47273006942123,187.63842154480517 73.93812830751995,187.3932335434074 74.79732505499851,187.34419591908227 75.40592275105882,187.19708299799822 75.69232166692382,187.0499700048822 76.22931963403244,186.4124795346288 77.0169166525011,185.7749877103779 78.09091258671833,185.57883610739373 78.19831218023319,185.33364642347442 78.12671245122328,184.89230448770104 78.16251231572824,184.79422841381165 78.44891123153502,184.5" stroke="#4dd2ff" stroke-linecap="round" stroke-linejoin="round" stroke-width="0.5"><title>2022-07-25 4.6km</title></polyline></svg>