<?xml version="1.0" encoding="utf-8" ?>
<svg baseProfile="full" height="300mm" version="1.1" viewBox="0,0,200,300" width="200mm" xmlns="http://www.w3.org/2000/svg" xmlns:ev="http://www.w3.org/2001/xml-events" xmlns:xlink="http://www.w3.org/1999/xlink"><defs /><rect fill="#222222" height="300" width="200" x="0" y="0" /><text fill="#FFFFFF" style="font-size:12px; font-family:Arial; font-weight:bold;" x="10" y="20">Over 10km Runs</text><text fill="#FFFFFF" style="font-size:4px; font-family:Arial" x="10" y="280">ATHLETE</text><text fill="#FFFFFF" style="font-size:9px; font-family:Arial" x="10" y="290">ChiZhang9797</text><text fill="#FFFFFF" style="font-size:4px; font-family:Arial" x="120" y="280">STATISTICS</text><text fill="#FFFFFF" style="font-size:3px; font-family:Arial" x="120" y="285">Number: 4</text><text fill="#FFFFFF" style="font-size:3px; font-family:Arial" x="120" y="290">Weekly: 1.0</text><text fill="#FFFFFF" style="font-size:3px; font-family:Arial" x="141" y="285">Total: 40.9 km</text><text fill="#FFFFFF" style="font-size:3px; font-family:Arial" x="141" y="290">Avg: 10.2 km</text><text fill="#FFFFFF" style="font-size:3px; font-family:Arial" x="167" y="285">Min: 10.1 km</text><text fill="#FFFFFF" style="font-size:3px; font-family:Arial" x="167" y="290">Max: 10.4 km</text><polyline fill="none" points="25.9643660915317,84.42040990841633 27.36196549134911,84.28168303475832 28.05063765947125,84.08746522122237 28.39497374347411,83.92099263286218 28.658289572398644,83.69902892774553 28.820330082526198,83.39382835953438 28.881095273856772,83.06088165956317 28.86084021005081,82.2840034875262 28.71905476367101,80.36953853542218 28.678544636175502,80.14757018815726 28.577269317320315,79.9256015507708 28.23293323328835,79.37067868775921 27.868342085537734,78.45505199911713 27.118904726201436,76.90124995664519 26.794823705917224,75.84687618765747 26.65303825956653,75.62490192832774 26.430232558166608,75.4306742134213 26.146661665436113,75.26419313804945 25.944111027754843,75.20869941001001 25.53900975245051,75.18095253921638 23.310952738218475,75.29193999532436 22.33870967742405,75.4306742134213 22.136159039771883,75.40292737883283 22.0348837209458,75.34743369619537 21.79182295576902,75.12545878395031 21.75131282824441,74.9867243165063 22.115903975995025,74.26530325839121 22.703300825232873,73.29415468625666 23.229932483111043,72.26750587046263 23.878094523621257,70.88013274391415 24.97186796698952,69.10427860064374 25.255438859690912,68.5770683263836 25.620030007499736,67.82787196284335 26.06564141038689,66.69019708958513 26.247936984262196,66.32946931855986 26.936609152297024,65.24728140725347 27.13915978994919,65.05304182127293 27.240435108804377,65.02529329087702 27.625281320302747,65.16403589762922 28.05063765947125,65.4137723041058 29.671042760659475,66.71794534787477 30.825581395358313,67.55039098934503 30.94711177793215,67.68913153270842 31.331957989517832,68.18859655054985 31.595273818442365,68.43832850840408 31.85858964745421,68.60481627634726 32.445986496604746,68.7990517992148 32.77006751688896,69.0210349819099 33.21567891977611,69.35400921176188 34.00562640657881,70.10319884153432 36.29444861217053,71.74030541774118 37.63128282074467,72.79470468638465 39.5352588147216,73.98783280455973 42.087396849208744,75.40292737883283 42.93810952740023,75.7913826500153 44.23443360842066,76.45730390454992 47.373968492116546,77.81688502362522 47.98162040510215,78.12209561554482 49.05513878472266,78.53829099299037 49.541260315076215,78.81575401130249 50.169167291838676,79.00997785435175 53.73405851464486,80.34179250789748 54.4632408102043,80.67474453926843 55.88109527382767,81.36839250766207 56.974868717225036,81.75683413243678 57.6432858214248,82.0897833892086 59.466241560381604,82.61695171077736 60.782820705207996,83.338337288209 62.26144036007463,84.00422894742223 63.45648912229808,84.5868820072501 64.55026256563724,85.03080680624407 65.1781695423706,85.39149485096277 67.0011252812983,85.77992727314995 68.54051012755372,86.25159401977726 69.16841710425797,86.50129941412888 70.99137284321478,87.41688271873863 71.98387096772785,87.80531050807622 74.29294823709643,88.77637609459634 74.5360090022441,88.77637609459634 74.6777944485948,88.66539745144837 75.001875468879,88.36020580888726 76.07539384847041,87.63884156434506 77.06789197301259,86.77874942170456 77.43248312079231,86.58453446402564 78.30345086276066,86.30708413916 78.80982745686197,86.08512355288258 80.63278319581877,85.11404257691174 81.4632408102334,84.64237267059798 81.6050262565841,84.50364597827138 81.70630157541018,84.36491917259991 81.72655663915793,84.19844685617136 81.70630157541018,82.8389168302092 81.746811702993,82.3117491977755 81.80757689423626,81.9233088423789 81.96961740439292,81.56261343116057 82.25318829709431,81.31290077444282 82.59752438109717,81.20191725366749 83.1444111027813,81.11867956542119 85.59527381844237,81.11867956542119 87.13465866469778,81.0076959177095 87.33720930234995,80.89671219741285 87.43848462117603,80.75798244505131 87.68154538638191,80.36953853542218 87.92460615150048,80.09207805599726 88.20817704426008,79.62039420046494 88.37021755438764,79.45391723280773 88.65378844711813,79.28744010187802 89.03863465867471,79.14870903469273 89.42348087023129,78.76026144385105 89.64628657166031,78.37181296439667 89.78807201801101,78.20533477255958 90.63878469614428,77.76139212989074 91.26669167290675,77.12322254751052 93.02888222059119,76.15209032033454 93.81882970742299,75.76363587437663 94.02138034507516,75.76363587437663 94.56826706675929,76.01335669166292 94.93285821459722,76.0965968825185 95.37846961739706,76.06885015674925 95.43923480869853,76.04110342649801 95.5,75.84687618765747 95.41897974495078,75.4306742134213 95.33795948990155,75.29193999532436 95.19617404352175,75.12545878395031 94.48724681171007,74.82024280587211 94.26444111031014,74.82024280587211 94.12265566395945,74.87573666089156 93.98087021757965,75.069965010538 93.73780945237377,75.56940831815882 93.57576894227532,75.76363587437663 91.30720180043136,77.01223628841399 90.84133533385466,77.51167388330214 90.6792948237271,77.65040628785209 89.95011252810946,77.92787075696106 89.72730682670954,78.06660282140365 89.58552138035884,78.26082752137154 89.42348087023129,78.6215299461328 89.34246061512385,78.70476885831158 88.95761440362548,79.00997785435175 88.59302325578756,79.12096280770493 88.34996249066899,79.28744010187802 87.41822955739917,80.59150659258012 87.23593398349476,80.75798244505131 87.07389347339631,80.84122031013248 85.10915228808881,80.97994999440562 83.16466616655816,80.92445813426457 82.59752438109717,81.03544183642953 82.19242310579284,81.22966314072255 82.03038259563618,81.3406466433371 81.88859714928549,81.53486759848602 81.7873218304594,81.75683413243678 81.70630157541018,82.0620376427687 81.64553638410871,82.47822336372337 81.62528132033185,82.97764488251414 81.64553638410871,84.22619225352537 81.62528132033185,84.3094284185936 81.56451612905948,84.42040990841633 80.53150787696359,85.03080680624407 78.7490622655896,85.97414315101923 78.28319579892559,86.14061372666038 77.69579894977505,86.27933908170962 77.33120780196623,86.41806432350131 76.88559639907908,86.75100444130658 76.11590397605323,87.47237245732686 75.36646661665873,87.94403450323443 74.57651912979782,88.58216342152446 74.37396849214565,88.58216342152446 71.072393098264,87.33364807686303 70.6065266316291,87.1116888323595 69.5735183795914,86.52904443531588 68.29744936234783,85.91865292278817 65.66429107281147,85.03080680624407 63.598274568648776,84.44815526957973 60.6410352588282,83.14411839573586 59.54726181545993,82.56146038557927 57.74456114030909,82.00654613621009 57.0356339084974,81.67359671616578 55.75956489125383,81.17417136210133 54.80757689426537,80.73023648095841 52.37696924232296,79.73137875495013 50.959114778699586,79.09321657617693 50.49324831206468,78.78800772983232 49.622280570154544,78.39955931385339 47.941110277577536,77.81688502362522 44.76106526629883,76.54054387773795 42.208927231811685,75.37518053976237 40.71005251313909,74.40403831534786 39.65678919729544,73.87684449611697 38.01612903227215,72.90569370212324 34.876594148547156,70.65815199169447 34.2486871718138,70.15869423824188 33.23593398349476,69.159774323678 32.58777194301365,68.74355595828092 32.04088522132952,68.54932037190883 31.635783945966978,68.27184057731938 30.987621905485867,67.49489474012807 29.833083270845236,66.63470055929793 28.05063765947125,65.16403589762922 27.68604651163332,64.9697962164355 26.713803450868,64.58131618742482 25.84283570892876,64.30382990825456 24.850337584415684,63.74885598936817 24.384471117780777,63.47136834963749 23.857839459902607,62.91639170977578 23.55401350336615,62.66665163000289 23.432483120821416,62.47240909180255 23.3919729932677,62.33366428560112 23.493248312093783,61.861931096427725 23.493248312093783,61.362447467588936 23.55401350336615,61.057206748839235 23.7160540134646,60.918460786168 23.999624906253302,60.83521315410326 24.060390097554773,60.77971471013734 23.817329332319787,60.7519654812786 23.55401350336615,60.890711579981144 23.412228057015454,61.11270510213217 23.35146286568488,61.417945721157594 23.35146286568488,61.91742918670934 23.250187546917005,62.25041734750266 23.310952738218475,62.44466013969213 23.857839459902607,62.97188945540984 24.100900225021178,63.332624359667534 24.36421605400392,63.55461468920112 25.417479369876673,64.19283526955405 26.450487621914363,64.55356757987465 26.774568642198574,64.72005915686896 26.875843961024657,64.80330488424806 26.91635408854927,64.91429912383319 26.936609152297024,64.99754475597001 26.89609902477241,65.08079034714319 26.16691672921297,66.4682108596171 25.518754688702757,67.60588722025568 25.235183795943158,68.29958857719612 24.566766691656085,69.29851355211576 23.857839459902607,70.6026567582885 23.594523630919866,71.12986074328364 23.148912228061818,72.23975851904834 22.358964741171803,73.73810900836543 21.832333083293634,74.62601417055703 21.629782445612364,74.95897740942019 21.46774193548481,75.069965010538 20.758814703673124,75.069965010538 20.819579894974595,75.54166150628589 20.79932483122684,75.7913826500153 20.718304576177616,76.06885015674925 20.51575393852545,76.56829052636749 20.049887471890543,77.45618088968331 19.01687921982375,79.50940957345301 17.355963990994496,82.228512053538 16.383720930229174,84.22619225352537 15.836834208545042,85.14178782468662 15.127906976733357,86.39031928419718 14.56076519130147,87.63884156434506 14.5,87.83305531620863 14.520255063747754,87.97177928873862 14.682295573875308,88.11050314789463 15.79632408102043,88.72088678207365 16.01912978242035,88.77637609459634 16.262190547655337,88.74863144055416 16.464741185307503,88.80412074401102 17.295198799693026,89.22028994183347 17.416729182295967,89.22028994183347 17.740810202551074,89.08156698915991 18.307951988012064,88.942843923287 18.53075768944109,89.02607777646335 18.834583645919338,89.22028994183347 18.935858964716317,89.2480345187214 20.130907726939768,89.22028994183347 20.252438109571813,89.13705618388485 20.41447861964116,88.97058854553325 20.536009002273204,88.66539745144837 20.576519129797816,88.38795052634669" stroke="#4dd2ff" stroke-linecap="round" stroke-linejoin="round" stroke-width="0.5"><title>2022-10-01 10.2km</title></polyline><polyline fill="none" points="140.00793933862587,97.23041851515882 140.98295118651004,97.1769956927019 142.074964456202,97.1769956927019 142.581970617146,97.0701499953866 143.12797725200653,97.0701499953866 143.4789815172553,96.96330422835308 143.79098530858755,96.72290099698876 143.96648744118284,96.50920893911098 144.08348886296153,96.26880504007568 144.12248933681985,96.08182398529607 144.14198957383633,95.8681310894026 143.90798673030804,92.50243113431497 143.77148507160018,92.31544577177556 143.537482228101,92.20859689710778 143.45948128029704,92.07503570565314 143.36198009550571,91.67435147652577 142.4064684844925,89.88461659614404 142.05546421924373,88.89624714471574 141.91896256056498,88.68254485599755 141.78246090185712,88.57569360689376 141.3924561626627,88.38870375292026 141.0024514234974,88.36199089921138 139.11092843848746,88.468842287999 137.97991469490808,88.62911924024229 137.9019137470459,88.57569360689376 137.66791090354673,88.22842656496505 137.60941019267193,88.1215750190895 137.5704097187263,87.82773290765181 137.58990995571367,87.58731624182838 137.92141398400418,86.99962957015669 138.194417301449,86.59893290093169 138.42842014494818,86.01124267603154 138.74042393625132,85.53040364786284 139.01342725369614,84.78242901500198 139.32543104502838,84.08787807711633 139.73493602118106,83.58031975629274 140.1054405233881,82.88576371090312 140.6124466843321,81.76378232680145 140.7879488169856,81.25621678988682 141.37295592570445,80.40136600733967 141.76296066484065,79.78693924614345 142.34796777364681,78.71836546489794 142.38696824756335,78.47793540146085 142.36746801060508,78.39779196842574 142.28946706274292,78.31764849601313 141.58745853227447,77.97035966180556 140.70994786906522,77.56964085926302 141.04145189741394,77.83678683673497 141.7434604279115,78.05050330441736 142.30896729973028,78.31764849601313 142.5234699062421,78.26421949263022 142.62097109109163,78.15736143347749 142.9719753563113,77.46278234598867 144.39549265432288,75.16530741473252 144.6684959717386,74.47071561342455 145.40950497618178,73.05480780082871 146.30651587626198,71.47859411135141 147.12552582850913,70.14280789968325 147.5935315155657,69.20775105642679 149.3290526048222,66.05523428064771 149.52405497446307,65.62776969763217 149.5045547374757,65.44075359102862 149.03654905047733,65.200303996593 148.7245452591451,64.93313736582058 148.39304123085458,64.7194037467707 147.51553056773264,64.23850208202202 147.24252725028782,64.02476755456883 147.22302701330045,63.81103274763154 147.55453104159096,63.11639269499574 147.5350308046618,63.0095247325371 147.4180293829122,63.06295872242481 146.969523932843,63.543863845974556 146.8525225110643,63.59729766121018 146.81352203714778,63.57058075579698 146.95002369591384,63.169826650002506 147.0280246437178,62.368315490472014 147.34002843507915,61.673669306299416 147.476530093787,61.45993142486259 147.74953341120272,61.16604138155526 147.80803412207752,61.032454823565786 147.80803412207752,60.604977104245336 147.88603506988147,59.93704092944972 147.88603506988147,59.4294076111546 147.69103270029882,58.3607007345563 147.5935315155657,57.505730201955885 147.49603033071617,57.131679187587 147.28152772420435,56.65075519682432 147.1450260654965,56.19654790630739 147.0280246437178,55.84921206768195 146.79402180021862,55.475157262117136 146.56001895671943,54.88735512376297 146.05301279577543,54.00564795236278 145.79950971531798,53.47127765470941 145.2340028435574,51.62768671603408 145.0000000000291,51.0933086432924 144.78549739348819,50.345176406015526 144.53199431303074,49.677198300356395 144.39549265432288,49.08937530881667 144.2199905216694,47.699967106222175 144.20049028474023,47.138856599034625 144.27849123254418,46.524304785518325 144.6099952608347,45.348634007314104 144.70749644568423,44.84095537479152 145.0000000000291,44.413435303169535 145.25350308048655,43.82559337862767 145.4485054500692,43.61183215449273 145.79950971531798,43.42479085405648 146.36501658713678,43.37135044315073 146.54051871979027,43.291189794123056 147.476530093787,42.62318285602669 148.78304597001988,41.79485046050104 149.8945594766701,41.260440235360875 150.81107061370858,40.913072651819675 152.44909051826107,40.5657043299143 156.095634829544,40.16489381021529 157.71415449713822,40.32521813608764 158.9036689515924,40.2717767116701 159.70317866688129,40.13817307398131 161.69220283665345,40.1114523333672 162.5112127889588,40.031290085215005 162.99871871288633,39.89768625101715 163.33022274117684,39.89768625101715 163.5252251107886,39.68391988900839 165.45574856971507,36.29034143764875 165.72875188710168,35.755913211381994 166.1187566262961,34.820659609904396 166.13825686322525,34.74049476646178 166.04075567846303,34.60688660661981 165.4362483327277,34.580164961502305 164.85124122400885,34.5 164.6562388544262,34.553443312091986 164.18823316742782,34.820659609904396 163.9737305608287,34.87410281706252 163.81772866519168,34.84738121564442 163.33022274117684,34.687051515618805 163.1937210824981,34.687051515618805 163.0182189499028,34.793937999827904 162.19920899759745,35.40853392716963 161.24369738661335,35.9162418628257 160.11268364300486,36.63771884748712 159.5861772451317,36.82476791617228 158.72816681893892,37.03853801821242 157.24614881005255,37.25230784062296 155.95913317083614,37.22558662814845 154.53561587282456,37.46607738341845 153.65810520967352,37.49279855657369 152.27358838560758,37.57296204988961 151.37657748549827,37.57296204988961 150.61606824412593,37.653125503929914 150.22606350496062,37.733288918592734 149.5630554483796,38.05394218406582 149.1730507091852,38.080663261105656 148.6075438373664,38.02722110268951 148.00303649163106,38.13410540220502 147.32052819806268,38.40131584505434 146.89152298500994,38.481478892761515 146.5210184827738,38.64180487008707 145.78000947835972,39.176223658651 144.18099004775286,40.031290085215005 143.537482228101,40.512262984062545 143.08897677809,40.99323446744529 142.65997156494996,41.581086580161355 142.2504665888555,42.24909777798166 141.80196113878628,42.756784462035284 141.47045711049577,43.21102910564514 141.08045237127226,44.119514605248696 140.6124466843321,45.90975066101237 140.57344621035736,46.283827359831776 140.5539459734282,46.95181933513959 140.53444573649904,47.325893648783676 140.5539459734282,47.67324760192423 140.4954452625534,48.234356274377205 140.51494549951167,48.60842765237612 140.9439507126226,49.971109003177844 141.09995260825963,50.69252394208161 141.25595450395485,51.120027588447556 141.7434604279115,51.97503152635181 142.36746801060508,52.69643761977204 142.5234699062421,52.99034289307019 142.99147559324047,53.63158892747015 143.5959829389758,54.540016502840444 143.88848649337888,55.10110160050681 144.25899099561502,55.982802862199605 144.53199431303074,57.21183304840815 144.6099952608347,58.22711188365065 144.4929938390851,58.5744426689198 144.47349360212684,58.681313531211345 144.5514945499599,59.18894917315629 144.5514945499599,59.482842771481955 144.4929938390851,59.80345336702885 144.31749170646071,60.31108552363003 144.31749170646071,60.76528137996502 144.27849123254418,60.87215080988244 144.00548791512847,61.40649691085855 143.9859876781702,61.7805381421349 143.84948601946235,62.154578517438495 143.55698246508837,62.66220337199047 142.99147559324047,63.35684535499604 142.65997156494996,63.864466475570225 141.7434604279115,64.665970298287 141.48995734745404,64.79955388668168 141.08045237127226,65.0934373967466 140.31994312992902,65.46747019076429 140.1054405233881,65.54761996380694 139.34493128198665,65.65448626679427 138.6429227514891,65.62776969763217 137.86291327315848,65.7613524999033 137.4534082970058,65.70791939206538 136.75139976650826,65.57433654606575 135.97139028814854,65.60105312406085 135.67888673371635,65.52090337718255 135.38638317937148,65.33388714824105 135.19138080978882,65.25373727038095 133.82636422268115,65.49418678611983 132.12984360725386,65.46747019076429 131.9348412376712,65.49418678611983 131.79833957896335,65.54761996380694 131.7203386311594,65.70791939206538 131.70083839423023,65.81478559024981 131.8178398158925,67.65821651050646 131.83734005287988,68.37955338518077 131.79833957896335,68.56656612933148 130.99882986367447,69.44819475556142 130.49182370273047,70.30310282150458 129.73131446132902,71.29158469887625 129.32180948520545,72.11976761546975 129.2438085374015,72.54721522104228 129.28280901128892,72.89451557748544 129.61431303963764,73.58911407664709 129.88731635699514,73.98984263732564 130.33582180706435,74.444000485164 131.38883460286888,74.7912968115561 131.8178398158925,74.9783022201882 132.07134289637906,75.16530741473252 132.1103433703247,75.29888242280867 132.1103433703247,75.43245732168725 132.03234242252074,75.6728918646113 131.75933910507592,75.96675582569151 131.38883460286888,76.20718958273937 130.82332773102098,76.39419337146683 130.6478255984257,76.55448216300283 130.49182370273047,76.90177400542598 130.21882038531476,77.35592376295244 130.10181896356517,77.67649930267362 130.04331825269037,78.05050330441736 130.04331825269037,78.71836546489794 129.98481754178647,78.98550956505642 129.9068165939825,79.09236708289245 129.6923139874416,79.25265322868654 129.38031019608025,79.4663678452489 128.7368023764284,79.59993933868827 128.5027995329292,79.73351072297373 128.2882969264174,79.92051047761925 128.15179526768043,80.05408159998478 127.33278531546239,81.09593260867405 127.00128128717188,81.46992878698802 126.74777820665622,81.87063802844204 126.70877773273969,82.08434922240849 126.650277021894,82.80562243888562 126.94278057626798,84.14130517703597 127.07928223497584,84.67557521654817 127.11828270886326,84.915996164651 127.11828270886326,85.3166969591257 127.1572831828089,85.53040364786284 127.4302865001955,86.67907231335994 127.5472879219742,86.83935102036048 127.70328981761122,86.89277722102997 127.93729266113951,86.89277722102997 128.38579811120871,86.78592480215593 128.65880142862443,86.78592480215593 129.8483158830786,86.99962957015669 130.37482228098088,87.1866210130247 131.0378303375619,87.34689922240796 131.58383697245154,87.40032525730203 132.14934384424123,87.34689922240796 132.48084787253174,87.40032525730203 132.69535047910176,87.61402922219713 132.85135237473878,87.88115878539975 132.87085261166794,88.33527804112236 132.92935332260095,88.60240642575081 133.2413571139041,88.86953437395277 133.4558597204741,88.89624714471574 134.29436990967952,88.7893960352958 134.72337512279046,88.70925765740685 135.23038128370536,88.70925765740685 136.06889147293987,88.60240642575081 136.57589763385477,88.68254485599755 136.6733988186752,88.86953437395277 136.6148981077713,89.05652367793664 136.34189479038469,89.45721432338178 135.58138554898323,90.76613025454571 135.05487915108097,91.54078984857188 134.6453741749283,92.5825676528475 134.04086682925117,93.5174907992623 132.89035284868442,95.46745615682448 132.30534573990735,96.7496124846366 131.73983886808855,97.71122313162778 131.50583602458937,98.29887129821873 130.95982938972884,99.42073920530675 130.23832062227302,100.7028645297687 129.49731161785894,102.4123493219522 129.28280901128892,103.13353285763878 128.69780190254096,104.20194706301845 128.40529834813788,104.86970239580842 127.76179052848602,106.5524337386887 127.5472879219742,107.22017947169661 127.39128602624987,107.56740617501782 127.21578389368369,108.10159966345236 126.82577915451839,109.0898530157283 126.68927749581053,109.30352863077132 126.591776310961,109.41036633370095 126.12377062396263,109.51720396667952 126.06526991308783,109.57062275700446 125.96776872832561,109.73087902330735 125.42176209346508,111.54710573000193 125.03175735429977,112.37508473925118 124.91475593252108,112.7490093690867 124.66125285209273,113.12293314379349 124.5637516672723,113.28318592833239 124.19324716509436,114.5117853917036 123.90074361069128,115.2062070916727 123.86174313677475,115.5 123.97874455849524,114.93912217149045 124.29074834985659,114.29811658296967 124.6222523781471,113.33660348836565 125.03175735429977,112.50862934807083 126.10427038703347,109.83771644688386 126.20177157179569,109.65075090974278 126.29927275661612,109.57062275700446 126.5332756001153,109.49049456497596 126.70877773273969,109.330238063063 127.68378958068206,106.87295203086978" stroke="#4dd2ff" stroke-linecap="round" stroke-linejoin="round" stroke-width="0.5"><title>2022-09-23 10.4km</title></polyline><polyline fill="none" points="24.90586630286998,226.16137474893185 26.581855388853,226.0604617070494 27.060709413373843,225.9343203119788 27.244884038198506,225.83340712169593 27.3922237380757,225.656808880085 27.50272851291811,225.50543879787438 27.557980900426628,225.22792659522383 27.521145975450054,225.02609922540432 27.318553888151655,224.57198667878401 27.28171896317508,224.3701584515802 27.33697135062539,223.133954803503 27.208049113251036,222.4275482751109 26.89495225105202,221.82205439274549 26.508185538841644,220.7372052486753 25.826739427022403,219.4505138242239 25.587312414776534,218.69363150691788 25.47680763984681,218.39087754109642 25.347885402472457,218.23950033554866 25.237380627571838,218.13858211606566 25.034788540244335,218.0376638306043 24.832196452945936,217.98720466316445 21.35129604366375,218.2899594205519 20.725102319265716,218.1890412340581 20.688267394260038,218.08812298164412 20.780354706716025,217.98720466316445 21.001364256459055,217.81059744722734 21.959072305617156,216.32204288578941 22.143246930412715,215.8679047388723 22.456343792640837,215.33807521239214 22.824693042319268,214.35410126806528 24.224420190992532,211.65444824167935 24.4638472032384,211.02368138570455 25.20054570256616,209.9892181629839 25.826739427022403,208.87905479880283 26.029331514320802,208.67720605673094 26.15825375172426,208.651974945431 26.747612551174825,208.90428587298084 26.968622100976063,209.05567223163962 27.521145975450054,209.56029235497408 28.257844474777812,210.16583432581683 29.528649386105826,211.04891210939968 30.11800818555639,211.75537069958227 30.48635743520572,211.95721541727835 30.90995907233446,212.05813767720247 31.16780354702496,212.2095209433901 31.683492496609688,212.66366985124478 32.32810368351056,213.26919965044362 33.359481582505396,214.02610855973035 34.46452933154069,214.75778364491998 35.403819918166846,215.53991524640878 38.05593451569439,217.15462601928448 39.43724420192302,217.9115158810746 40.8922237380757,218.6431725538423 42.78922237380175,219.4757431709586 44.81514324693126,220.25785087322583 45.45975443383213,220.56060117823654 46.93315143248765,221.06518370076083 48.24079126873403,221.77159646210202 50.10095497954171,222.50323484340333 51.961118690349394,223.43669946916634 52.95566166439676,223.7899008289387 53.54502046384732,224.0674156161549 54.429058663052274,224.3701584515802 55.607776261953404,224.67290069347655 56.65757162348018,225.2783833963913 58.480900409282185,226.0604617070494 59.01500682128244,226.33797241348657 59.622783083235845,226.6154826211714 62.21964529331308,227.37232610709907 63.71145975444233,227.9525702674582 66.4740791268996,229.26441859234183 68.05798090045573,229.84465564257698 69.91814461120521,230.75284838752123 70.30491132332827,230.85375836280582 70.72851296045701,230.92944080095913 71.64938608460943,231.25739760440774 72.40450204641093,231.78717250778573 72.8465211459843,232.01421833863424 74.43042291954043,232.49353621837508 75.11186903138878,232.79626253372408 75.92223738064058,233.04853400986758 76.67735334241297,233.37648631261254 77.45088676674641,233.62875684082974 78.26125511599821,234.18375055219803 78.77694406552473,234.41079285912565 80.06616643929738,234.8648764716927 82.44201909960248,235.9496263632609 83.51023192363209,236.35325228469446 85.03888130973792,237.03436863489333 86.0886766712647,237.4127653089963 86.62278308320674,237.71548198070377 87.32264665761613,237.99297174181265 88.07776261938852,238.42181857360993 88.90654843114316,238.69930706554442 89.47748976812,238.85066421459487 90.06684856754146,239.17860419522913 91.26398362894543,239.68312588239496 91.83492496592226,239.98583810351556 93.17939972717431,240.51558306268998 93.69508867670083,240.7930677922268 95.33424283767818,241.39848728961078 95.5,241.37326152456808 95.48158253749716,241.27235842333175 95.42633015007596,241.17145525617525 94.06343792635016,240.7930677922268 91.7612551159691,239.93538610791438 90.63778990451829,239.45609132712707 90.23260572989238,239.20383031870006 89.14597544338903,238.85066421459487 87.06480218283832,237.99297174181265 86.60436562076211,237.84161375217082 86.16234652115963,237.46321812886163 85.62824010913027,237.18572741576645 84.08117326057982,236.63074449371197 82.90245566167869,236.05053294253594 81.15279672582983,235.36941225286864 80.01091405184707,234.7891959622939 78.15075034106849,234.1080697090365 77.43246930424357,233.7044379189174 76.82469304229016,233.45216751440603 75.29604365624255,232.94762546884886 74.15416098228889,232.46830899866472 72.73601637111278,232.01421833863424 71.55729877215344,231.48444421414752 71.0784447476326,231.3078524354205 70.59959072308266,231.05557811546896 69.89972714867326,230.72762088343734 69.56821282402962,230.50057316086895 69.08935879945057,230.2230699354841 68.16848567529814,229.869883290914 67.43178717599949,229.69328966572357 66.43724420189392,229.23919084500812 66.01364256476518,229.06259649850836 64.63233287859475,228.40667287193355 63.80354706684011,228.0534820726898 60.856753069587285,227.06958915789437 59.733287858136464,226.7163953003037 59.25443383358652,226.6154826211714 58.77557980900747,226.31274418809335 57.909959072305355,225.8838637250883 56.43656207367894,225.2783833963913 55.27626193728065,224.67290069347655 53.91336971352575,224.24401567562018 53.34242837651982,223.94127259289962 52.32946793999872,223.58807157937554 50.96657571627293,223.0330397830112 50.41405184176983,222.78075194331177 49.86152796726674,222.4780059914483 48.03819918143563,221.67068055113486 47.33833560711355,221.39316145615885 47.062073669862,221.24178719407064 46.748976807662984,221.1661000073509 45.86493860845803,220.7624343851494 45.31241473395494,220.6110595046921 44.04160982265603,220.030787754833 42.12619372442714,219.32436702902487 39.89768076397013,218.1890412340581 39.160982264671475,217.86105667236552 37.13506139157107,216.5743412791635 35.64324693044182,215.7669849692902 32.862210095481714,213.72334544137993 32.1439290586859,213.11781742326275 31.867667121405248,212.81505252368515 31.499317871726817,212.48705654578225 30.90995907233446,212.13382932879904 30.339017735328525,211.95721541727835 30.191678035451332,211.85629309137585 30.044338335603243,211.67967886234692 29.823328785802005,211.2002963651321 29.565484311053297,210.92275844956748 29.381309686228633,210.79660468660586 28.73669849932776,210.51906604541 28.47885402457905,210.3424502866692 26.673942701221677,208.85382372044842 26.34242837651982,208.70243716395635 26.04774897682364,208.60151271038922 25.863574351969874,208.651974945431 25.771487039572094,208.75289936589252 25.126875852642115,210.1406034577376 24.48226466579945,211.12460425580502 24.132332878594752,211.83106249955017 23.690313778992277,212.53751751083473 23.377216916764155,213.21873892462463 22.80627557981643,214.177489896334 22.62210095502087,214.60640287731076 22.401091405161424,215.26238513170392 22.12482946793898,215.7669849692902 21.922237380611477,216.32204288578941 21.590723055938724,216.87709880704642 21.369713506137487,217.17985574116756 21.167121418839088,217.60876038165588 20.94611186903785,217.9367454792664 20.817189631634392,218.06289340819058 20.54092769441195,218.08812298164412 20.448840381985065,218.13858211606566 20.319918144639814,218.6179430711345 19.30695770806051,220.4092260999023 18.791268758533988,221.54453556980297 18.404502046381822,222.20048834747286 17.962482946779346,222.83120954417973 17.759890859451843,223.23486975798733 17.39154160983162,223.84035810003115 16.618008185527287,225.42975370117347 16.37858117322321,225.83340712169593 16.2680763983808,226.11091823624156 15.991814461100148,226.5145698760607 15.62346521145082,227.34709805069724 15.070941336947726,228.28053339353937 14.831514324672753,228.86077414097963 14.536834925005678,229.36532954024733 14.518417462473735,229.4914681325463 14.5,229.6680619885301 14.573669849924045,229.74374500784324 15.03410641202936,229.89511093522015 15.291950886748964,230.04647671421117 15.826057298778323,230.2230699354841 16.13915416097734,230.19784234477265 16.30491132332827,230.2230699354841 16.562755798076978,230.374435392936 17.060027285129763,230.601483300954 17.17053206000128,230.601483300954 18.03615279670339,230.29875268274918 18.23874488400179,230.32398025698785 18.533424283756176,230.52580070206022 18.71759890858084,230.601483300954 19.380627557984553,230.62671082571615 19.71214188268641,230.57625577213184" stroke="#4dd2ff" stroke-linecap="round" stroke-linejoin="round" stroke-width="0.5"><title>2022-09-16 10.1km</title></polyline><polyline fill="none" points="153.55867065262282,230.75310542451916 153.55867065262282,230.8577788929906 153.46697060990846,230.9833869423528 153.375270567165,231.02525626475835 152.70280358733726,230.94151760618843 152.6263868851238,230.8577788929906 152.6263868851238,230.79497482211445 152.77922028963803,230.31347592305247 152.8709203322942,230.10412801128405 153.0848870986083,229.74823577632924 153.25300384359434,229.55982183990272 153.45168726946576,229.39234255281917 154.00188752569375,229.01551335631666 154.58265446283622,228.5758778931704 155.07172135723522,228.34559204857214 155.46908820897806,228.2409165278077 155.74418833706295,228.2409165278077 156.29438859332004,228.15717604962265 157.24195570129086,228.1362409215726 158.34235621374683,228.0315652297577 158.57160632056184,227.947824614821 158.73972306548967,227.82221358971583 158.8925564700039,227.61286160761665 158.9384064913611,227.48725025413296 158.95368983180379,227.25696245296422 158.86198978911852,226.12645269854693 158.8772731295321,225.4565162853978 158.84670644864673,225.0168686105826 158.51047295873286,224.49347655464226 158.31178953289054,223.99101816937764 158.08253942610463,223.5304295853639 157.56290585076204,222.5883114154858 157.45592246763408,222.27427048607206 157.33365574400523,221.85554804949788 157.180822339491,221.6252501261115 156.95157223273418,221.43682424457802 156.6611887641775,221.3530793193204 155.42323818762088,221.39495178875222 154.1088709087926,221.5415053241013 154.06302088749362,221.49963290250162 153.8490541211795,221.2065255685011 153.75735407846514,220.87154493713751 153.80320409985143,220.68311794711917 153.94075416389387,220.47375429987733 154.1088709087926,220.09689887268178 154.26170431333594,219.8665977881392 154.68963784599327,218.9244526770708 155.1481380595069,217.85667984247993 155.8817384011345,216.6423391371718 156.4013719765062,215.53267291108205 157.44063912716229,213.79487441542733 157.50177248899126,213.64831201869674 157.51705582940485,213.54362448980828 157.48648914851947,213.43893687525997 157.3947891058051,213.37612426556734 156.8904388709343,213.14581109980645 156.44722199783428,212.99924796054984 155.48437154942076,212.43393142418063 155.3926715067064,212.35018061405572 155.23983810225036,212.11986560388323 154.91888795272098,211.84767460348667 154.75077120776405,211.57548302486248 154.67435450552148,211.49173165347747 153.89490414250758,211.03109813258925 153.43640392899397,210.67515291384188 153.13073711993638,210.4867109270781 152.5652535232948,209.94232140832173 151.89278654343798,209.48168231636373 151.78580316028092,209.33511498520966 151.556553053495,208.7907205728552 151.44956967036705,208.644152451212 151.29673626585281,208.53946083308256 150.77710269051022,208.35101570482948 150.45615254103905,208.16257029934786 149.95180230616825,207.78567865692457 148.95838517684024,207.17846201176872 148.74441841049702,206.9271991098576 148.69856838916894,206.78062885613326 148.68328504869714,206.67593571513862 148.74441841049702,206.44561050370248 148.85140179368318,206.31997839565884 149.40160204994027,206.02683633104607 149.99765232749633,205.85932627866714 150.5937026051106,205.85932627866714 151.8469365220517,205.7755711704085 152.53468684240943,205.83838750674477 153.77263741890783,205.88026504722802 155.83588837977732,205.67087720795826 157.3642224248906,205.33585595338081 158.1436727879045,205.02177273142297 158.44933959690388,204.8123834889484 158.95368983180379,204.41454298543977 159.59559013077524,204.0585793823484 160.4514571960026,203.17913565182243 160.9099574095453,202.48813991380302 161.07807415450225,202.19498908070818 161.10864083538763,202.06935280405014 161.13920751630212,201.75526157324202 161.2156242185447,201.46210906303895 161.2309075590165,200.8967416130763 161.29204092084547,200.58264750712988 161.36845762305893,200.43606999416807 161.7046911130019,200.01727617570577 161.76582447480178,199.84975826495065 161.87280785795883,198.99122553414782 161.85752451751614,198.5096070926811 161.7046911130019,197.81858616593672 161.56714104893035,196.897219131577 161.39902430397342,196.43653312928654 161.32260760173085,196.08054735627957 161.1850575376884,195.80832227414066 160.9558074308734,195.45233475535497 160.35975715331733,194.32154430961964 160.06937368473154,193.50485611275508 159.6414401521033,192.05993347027106 159.30520666218945,191.1385250134772 159.07595655546174,190.23805125406216 159.01482319360366,189.2328637661485 159.06067321496084,188.5208511894234 159.21350661947508,187.89260151131748 159.32049000263214,187.55753375639324 159.36634002398932,187.30623236490646 159.74842353528948,186.4476155573284 159.88597359933192,186.25913792673236 160.13050704653142,186.1125440222968 160.39032383420272,186.07066001876956 160.55844057915965,186.1334860188872 160.31390713193105,186.32196383438713 160.1763570678886,186.32196383438713 159.51917342850356,185.6518192303556 158.61745634188992,184.81413354457618 158.3882062351331,184.60471126712218 158.1589561283472,184.5 158.02140606430476,184.5 157.86857265979052,184.60471126712218 157.22667236084817,185.4214562128982 156.95157223273418,185.6518192303556 156.73760546642006,186.00783398786734 156.60005540234852,186.32196383438713 156.43193865739158,186.95022121638613 156.3860886360344,187.26434875177802 156.26382191246375,187.66224252398388 156.04985514612054,188.33237660955638 156.04985514612054,188.9396825962176 156.0957051674486,190.0495792009242 156.1262718483922,190.2171099284824 156.30967193379183,190.80346574948635 156.56948872146313,191.76675877117668 156.75288880686276,192.227461568531 157.01270559450495,192.73004454854527 157.22667236084817,193.08603963303176 158.03668940474745,194.17495963208785 158.29650619238964,194.59377255148866 158.57160632056184,194.9707030080972 158.80085642728955,195.4313942822264 159.1829399385606,196.4574734380294 159.25935664083227,196.83439841066138 159.35105668354663,197.73482580028212 159.24407330038957,198.1117470143945 159.24407330038957,199.05404519734293 159.1676565981179,199.8288185106867 159.12180657678982,199.95445698482945 158.8772731295321,200.28949231345905 158.75500640593236,200.75016445949586 158.54103963961825,201.21083494884806 157.6546058934473,202.27874653006438 157.28780572267715,202.59283647736447 156.9362888922915,202.84410788070818 156.52363870010595,203.09537879123673 155.8970217416063,203.36758838810056 155.637204953935,203.4304059052156 154.94945463363547,203.51416254682408 154.50623776053544,203.49322339154605 153.94075416389387,203.57697999205266 153.65037069530808,203.57697999205266 153.13073711993638,203.47228423280467 152.47355348058045,203.45134507072362 152.27487005473813,203.3885275638895 151.95391990523785,203.22101406162983 151.8010865007236,203.20007485846872 151.40371964903898,203.32571002618351 151.12861952089588,203.36758838810056 150.15048573201057,203.40946673622966 149.38631870943937,203.3885275638895 149.24876864539692,203.40946673622966 149.17235194315435,203.47228423280467 149.15706860271166,203.6188582718023 149.20291862403974,203.95388401674427 149.26405198586872,205.58712197648856 149.21820196451154,205.85932627866714 149.12650192179717,206.0058975865104 148.85140179368318,206.2571622953983 148.5763016655692,206.5921811407461 147.49118449355592,208.05787828767643 147.2772177272127,208.56039916351438 147.18551768449834,209.04197981981997 147.21608436544193,209.14667102729436 147.2619343867991,209.2513621492617 147.7815679621126,210.15170226620103 147.96496804751223,210.4029588439662 148.0566680902266,210.46577291144058 148.66800170825445,210.67515291384188 149.3404686881113,210.9473464053881 149.46273541174014,211.07297397561342 149.49330209262553,211.19860142270772 149.47801875218283,211.26141510003072 149.38631870943937,211.4289180890628 149.21820196451154,211.59642085912492 148.86668513412587,211.805799013644 148.46931828241213,211.97330129092006 148.3317682183697,212.11986560388323 148.10251811158378,212.5595575367479 147.88855134526966,213.06206075502269 147.84270132391248,213.35518672217586 147.85798466432607,213.7739369404153 147.812134642998,213.9414366445053 147.7510012811981,214.04612384831853 147.61345121718477,214.1926857899889 147.46061781264143,214.2764353956154 147.24665104632732,214.3601849465922 146.84928419461357,214.44393444272282 146.62003408785677,214.59049592934025 146.05455049112788,215.17674019900733 145.779450363043,215.63735881474713 145.39736685171374,216.01422735946107 145.32095014950028,216.22359829416382 145.2903834685858,216.95639387127449 145.42793353265733,217.94042705307947 145.56548359672888,218.40103573284432 145.58076693717157,218.58946607904363 145.55020025622798,218.9244526770708 145.7488836820994,219.55255018755997 145.84058372481377,219.992216612809 145.96285044844262,220.15970818750793 146.22266723611392,220.2434538926973 146.5589007260278,220.15970818750793 146.97155091818422,220.15970818750793 147.5217511744413,220.26439031046903 148.2859181969834,220.49469067997416 148.68328504869714,220.53656342995237 149.5391521139536,220.53656342995237 149.70726885893964,220.5574997998483 149.89066894433927,220.68311794711917 150.02821900841082,220.85060861860984 150.0587856892962,221.018099071116 150.0893523702107,221.41588801838225 150.11991905112518,221.5415053241013 150.22690243428224,221.68805869174685 150.36445249835378,221.77180339797633 150.51728590283892,221.79273956600082 150.8535193927819,221.77180339797633 152.0761866288667,221.5415053241013 152.77922028963803,221.49963290250162 152.886203672766,221.49963290250162 152.96262037500856,221.5624415297134 153.00847039636574,221.66712250661658 152.97790371545125,221.8136757305765 152.22902003338095,223.1535831486981 151.617686415324,224.36786214305903 150.70068598826765,225.9589689236309 149.61556881625438,227.98969492915057 149.21820196451154,228.80616332389764 148.86668513412587,229.66449628323608 148.37761823972687,230.46001925784367 148.20950149471173,230.83684420611098 148.13308479249827,231.10899486850394 148.0719514306693,231.27647191192227 147.73571794075542,231.82077079114242 147.0021175991278,233.34898220872856 146.17681721478584,235.37959109927033 145.93228376755724,236.0704094685061 145.73360034168581,236.53095297895925 145.56548359672888,237.05429586812534 145.2903834685858,237.78697232214472 145.2292501067859,237.87070650725218 145.12226672362885,237.91257357931318 144.93886663822923,237.89164004501072 144.84716659551486,237.91257357931318 144.7554665528296,238.0381747134088 144.5109331055719,238.7499121478977 144.2358329774579,239.4407123480196 144.0065828707302,240.25710778341454 143.63978269987274,241.07349801775126 143.5175159763021,241.45029175638774 143.30354920995887,241.86895016657218 143.05901576275937,242.45506964297238 143.0131657414022,242.70626288370113 143.02844908184488,243.08305182151526 143.0131657414022,243.33424383118836 143.04373242228758,243.56450274096278 143.0131657414022,243.7319635063468 142.05031529295957,246.09732344248914 140.79708137601847,249.57202081236028 140.29273114111857,250.78604949223518 139.91064762984752,251.89541047130479 139.65083084214712,252.54427753647906 139.02421388367657,253.98851824256417 138.168346818391,256.4164804321481 137.80154664759175,257.2536981086305 137.1596463486785,258.9490471532263 137.06794630596414,259.116487817344 136.99152960366337,259.2002080673992 136.6705794542213,259.3048583030468 136.56359607106424,259.4304384730567 135.8911290912365,261.02110997620184 135.3867788563366,262.42339611272473 135.26451213273685,262.883844931006 134.74487855739426,264.1396060282641 134.6226118337654,264.2651814613273 134.3627950461232,264.2651814613273 133.3540945763234,264.0977475232212 131.44367701996816,263.82566690741805 130.49610991199734,263.93031336646527 130.22100978388335,263.99310120088194 129.71665954901255,264.2023937601916 128.90664250505506,264.66283618769376 128.585692355613,264.95584414398036 128.40229227024247,265.18606421117147 128.17304216342745,265.4162838648117 128.12719214207027,265.5 128.20360884437105,265.45814193928527 128.73852576012723,264.83026938756666 129.01362588827033,264.6000486813209 129.68609286812716,264.2023937601916 130.22100978388335,263.9721719261797 130.93932678506826,263.84659620603634 131.3519769772538,263.82566690741805 132.6204942346958,263.9721719261797 134.45449508883758,264.2651814613273 134.6226118337654,264.2442522310448 134.76016189786606,264.16053527563054 134.94356198323658,263.7838082998569" stroke="#4dd2ff" stroke-linecap="round" stroke-linejoin="round" stroke-width="0.5"><title>2022-09-11 10.3km</title></polyline></svg>