<?xml version="1.0" encoding="utf-8" ?>
<svg baseProfile="full" height="300mm" version="1.1" viewBox="0,0,200,300" width="200mm" xmlns="http://www.w3.org/2000/svg" xmlns:ev="http://www.w3.org/2001/xml-events" xmlns:xlink="http://www.w3.org/1999/xlink"><defs /><rect fill="#222222" height="300" width="200" x="0" y="0" /><text fill="#FFFFFF" style="font-size:12px; font-family:Arial; font-weight:bold;" x="10" y="20">Over 4km Runs</text><text fill="#FFFFFF" style="font-size:4px; font-family:Arial" x="10" y="280">ATHLETE</text><text fill="#FFFFFF" style="font-size:9px; font-family:Arial" x="10" y="290">ChiZhang9797</text><text fill="#FFFFFF" style="font-size:4px; font-family:Arial" x="120" y="280">STATISTICS</text><text fill="#FFFFFF" style="font-size:3px; font-family:Arial" x="120" y="285">Number: 5</text><text fill="#FFFFFF" style="font-size:3px; font-family:Arial" x="120" y="290">Weekly: 1.7</text><text fill="#FFFFFF" style="font-size:3px; font-family:Arial" x="141" y="285">Total: 23.7 km</text><text fill="#FFFFFF" style="font-size:3px; font-family:Arial" x="141" y="290">Avg: 4.7 km</text><text fill="#FFFFFF" style="font-size:3px; font-family:Arial" x="167" y="285">Min: 4.3 km</text><text fill="#FFFFFF" style="font-size:3px; font-family:Arial" x="167" y="290">Max: 5.3 km</text><polyline fill="none" points="20.862650602444774,76.86617284112435 20.959036144602578,77.05100980293355 20.920481927751098,77.20944131619763 20.88192771084141,77.28865701466566 20.477108433755348,77.47349349330761 19.898795180750312,77.6583297605539 19.66746987955412,77.79035553637368 19.513253012060886,77.97519144126272 19.416867469932185,78.37126766842266 19.359036144596757,78.50329286186025 19.22409638555837,78.6617229514959 18.877108433749527,78.74093793808424 18.665060240979074,78.68812795137637 18.31807228917023,78.52969788755581 18.028915662667714,78.47688783177 17.75903614462004,78.34486261683924 17.142168674705317,78.55610290894401 16.853012048231903,78.68812795137637 16.75662650601589,78.71453294689127 16.428915662661893,78.50329286186025 15.792771084350534,78.29205250064842 15.310843373503303,78.31845756091934 15.021686746971682,78.13362204856821 14.501204819302075,77.94878632487962 14.0,77.52630387694808 14.019277108454844,77.31506223879114 14.115662650612649,77.20944131619763 14.655421686766203,76.1004174615664 14.944578313239617,75.67793018184602 15.233734939800343,75.12341395104886 15.484337349393172,74.54249014490051 16.640963855432346,72.35080425825436 17.20000000001164,71.40018427070754 17.778313253016677,70.37033964082366 18.298795180715388,69.26126885399572 19.609638554189587,66.67340741871158 19.87951807229547,66.33011656407325 20.284337349410634,65.64353266719263 20.766265060257865,65.16820364516752 21.0168674698798,64.82490959310962 21.20963855422451,64.40239283564733 21.80722891568439,63.39891110925237 22.25060240968014,62.553869032955845 22.63614457831136,61.391928962795646 22.84819277114002,60.995811120272265 23.484337349393172,60.04512433648051 23.889156626537442,59.332105578359915 24.486746987968218,58.064508907016716 25.739759036136093,55.95182569157623 26.028915662667714,55.5292857340246 26.163855421706103,55.50287694994768 27.031325301184552,55.89900825735822 28.785542168683605,57.404298369263415 29.691566265100846,58.03810053732013 30.15421686746413,58.6454919490061 30.404819277115166,58.88316622778075 30.59759036145988,59.04161555280734 31.07951807230711,59.20006472244859 31.465060240938328,59.41133004023868 32.00481927715009,59.83385984727647 32.71807228913531,60.49406045911019 33.23855421686312,60.83736371136911 34.60722891570185,61.84086134392419 36.110843373520765,62.87076032938785 37.11325301206671,63.42531860298186 37.903614457842195,63.90065275137022 38.17349397594808,64.11191192406113 39.118072289129486,64.61365135248343 39.61927710843156,64.9569458533224 40.64096385543235,65.53790411642694 41.20000000001164,65.72275403497042 42.66506024094997,66.51496557646897 44.612048192793736,67.2807663751446 45.40240963854012,67.57124159087834 46.096385542157805,67.9409365648753 47.36867469880963,68.33703738427721 47.773493975924794,68.49547744021402 48.775903614470735,69.05001641267154 50.95421686748159,69.9742438049434 51.30120481929043,70.05346304982959 52.45783132532961,70.4759650331107 53.09397590361186,70.84565336238302 53.961445783119416,71.13612217073387 54.8867469879624,71.53221515894984 55.46506024096743,71.84908885053301 55.98554216869525,72.060337633171 56.98795180724119,72.35080425825436 57.893975903629325,72.87892405745515 59.108433734974824,73.40704213088611 59.53253012051573,73.64469470089534 60.95903614460258,74.19921600518865 61.672289156646,74.41046171593189 62.462650602450594,74.80654667931958 65.58554216867196,75.80995757537312 66.29879518071539,76.12682287985808 67.0506024096685,76.54930898612656 67.99518072290812,76.89257813426957 68.93975903614773,77.36787267422187 70.38554216866032,77.84316581641906 71.02168674697168,78.16002713474154 72.06265060242731,78.58250792608305 72.56385542170028,78.6617229514959 73.14216867470532,78.95217771251919 73.72048192771035,79.08420243141882 74.8192771084432,79.90275328110147 75.26265060243895,80.08758677021251 76.43855421687476,80.40444368828321 78.80963855420123,81.35501071532781 79.33012048195815,81.43422438195557 79.56144578315434,81.51343800968607 80.06265060239821,81.77748315515055 80.64096385543235,82.19995449059934 81.77831325304578,82.62242472173239 82.41445783135714,82.78085077366268 83.84096385541488,83.54657450254308 85.44096385544981,84.20667825355486 86.0,84.49712305003777" stroke="#4dd2ff" stroke-linecap="round" stroke-linejoin="round" stroke-width="0.5"><title>2022-08-17 4.3km</title></polyline><polyline fill="none" points="174.1887515844428,41.31201398627309 174.02106526505668,41.46514272989589 173.04289506806526,41.50342490011826 172.59573154948885,41.61827137344517 172.4280452299863,41.88624625877128 172.26035891054198,42.61360511704697 172.06472487113206,42.690169075955055 171.11450239410624,42.84329691893072 170.7232343152864,42.99642466181831 170.49965255596908,43.264397971041035 170.38786167633953,43.494089135027025 170.24812307680259,44.298006435798015 170.10838447726564,44.489414910407504 169.9965935976361,44.52769658662146 168.9345802408643,44.45113322802354 167.84461916430155,44.22144300217042 167.11797844659304,44.41285153941135 166.53107632842148,44.68082322871487 166.33544228901155,44.68082322871487 165.30137665220536,44.03003430868557 165.02189945313148,43.91518901757081 164.54678821453126,43.99175255118462 164.37910189508693,43.91518901757081 164.12757241592044,43.762061875109794 162.9537681795773,43.14955230461783 162.4507092211279,43.11127040325664 162.2271274618688,43.264397971041035 160.38257794757374,46.93942957605759 159.57209407008486,48.77692376411869 158.31444667407777,52.45186891316553 157.7275445559062,53.82995848520659 157.58780595631106,54.442440137965605 157.39217191690113,54.94008030205441 157.19653787754942,55.322879709186964 157.0288515581051,55.51427917811088 156.58168803947046,55.62911878453451 156.30221084033838,55.782238172207144 156.19041996065062,55.9353574597626 155.82709960185457,56.66267270933895 155.35198836331256,58.11729643619037 155.04456344427308,58.76804623279895 154.62534764560405,59.76330713192874 153.7589683283004,62.251440886742785 153.255909369851,63.36152280851093 153.06027533049928,64.28020731873403 153.11617077031406,65.88789654537686 152.9764321707189,66.42379050338059 149.59475806128467,74.88309705439315 149.2593854223378,75.99311914198915 148.72837874403922,77.29451765258273 148.19737206568243,78.82556547156128 147.41483590810094,80.62453387775167 146.93972466955893,81.92590666993055 146.60435203061206,82.61486581079953 146.5205088708899,82.6914167014329 146.43666571116773,82.88279381868779 145.71002499345923,84.91138165284065 145.57028639386408,85.48550709722622 144.8156979562482,87.62889632937731 143.5580505601829,90.6908469429909 142.80346212245058,93.02555740566459 142.10476912470767,94.32686133982497 141.90913508529775,94.47995544533478 141.43402384681394,94.59477595877252 141.21044208749663,94.82441681703494 140.93096488830633,95.62815804882848 139.84100381180178,98.23072979184508 139.08641537412768,100.60363766470982 138.49951325595612,101.86662722013716 137.96850657765754,103.39751452667406 137.7728725381894,103.66541877723648 137.18597042007605,103.74196279262833 135.87242758413777,103.58887473687355 131.7920604769024,102.93824938456237 131.0933674791013,102.97652151413786 129.779824643163,103.20615416009969 128.94139304582495,103.43578658116166 127.01300037186593,104.5839453117369 126.39815053372877,105.19629433492082 125.86714385537198,105.88518507375557 125.8112484155572,106.0 126.09072561468929,105.80864175829629 126.64968001295347,105.04320722908597 127.29247757099802,104.43085780594265 128.99728848563973,103.39751452667406 129.8077723630704,103.12960996985203 130.7859425600036,102.93824938456237 131.90385135653196,102.93824938456237 133.5807145513245,103.09133786524762 135.67679354472784,103.43578658116166 137.13007498026127,103.58887473687355 137.66108165855985,103.58887473687355 137.91261113778455,103.43578658116166 138.41567009623395,102.01971640078409 138.83488589490298,101.10117981721123 139.08641537412768,100.29745735369215 140.00869013130432,97.88627342630934 141.2942852471606,94.9009637197596 141.57376244629268,94.59477595877252 142.13271684461506,94.28858779779694 142.272455444152,93.98239923687652 142.5519326432841,93.17865236119542 143.3065210809582,91.30323226530163 143.75368459959282,90.3463794960262 146.0453976324061,83.99277801653079 146.799986070022,82.23211098270258 149.2314377024304,75.76345983109786 149.7903921006946,74.50032959826058 150.65677141794004,72.28026602364844 151.32751669583376,70.3664012341469 152.277739172976,67.99318718753057 152.9764321707189,65.88789654537686 153.0043798906845,65.58167087641777 152.92053673084592,64.47159947168257 152.94848445086973,64.12709348378121 153.28385708975838,63.17012974890531 153.7589683283004,62.17488331903587 153.9825500876177,61.409306265893974 154.34587044647196,60.56716861855239 154.87687712482875,58.8828842445364 155.9668382013915,55.97363726599724 156.2183676806162,55.51427917811088 156.5257925996557,55.322879709186964 156.94500839832472,55.24631987778412 157.05679927795427,55.169760021264665 157.16859015758382,54.9783602708776 157.5319105165545,54.0979194053798 157.89523087540874,53.37059619507636 158.7336624727468,51.03549062969978 159.32056459097657,49.73394628036476 159.57209407008486,48.85348570924543 160.01925758871948,47.896459597031935 160.35463022772456,46.93942957605759 161.05332322546747,45.408173412055476 161.38869586447254,44.489414910407504 162.64634326047963,41.96281045547221 163.12145449902164,41.23544957693957 163.9598860964179,39.742438594577834 165.30137665220536,36.832953962279134 165.86033105046954,35.722746355764684 166.30749456904596,34.957082872482715 166.7267103678314,34.0" stroke="#4dd2ff" stroke-linecap="round" stroke-linejoin="round" stroke-width="0.5"><title>2022-08-16 5.3km</title></polyline><polyline fill="none" points="76.03651432687184,114.0 75.69454219844192,114.76651513621619 75.53910032188287,115.40527602779912 75.38365844526561,115.74594786312082 75.16603981802473,115.83111575241492 73.86032805481227,116.04403535384336 73.54944430169417,116.25695478143462 73.45617917570053,116.59762550362211 73.48726755101234,117.40671668447612 73.42509080038872,117.70480227585358 73.23856054851785,117.87513674650108 73.02094192133518,117.91772034668247 72.61679304222343,117.91772034668247 72.05720228649443,117.83255313918926 71.52869990613544,117.87513674650108 70.65822539728833,117.44930036120059 70.47169514535926,117.4918840311293 69.66339738719398,117.83255313918926 69.134895006835,118.08805467815546 69.01054150552955,118.04547110568092 67.76700649299892,117.32154931001423 67.48721111513441,117.23638190772908 66.95870873465901,117.36413300075219 66.6167366062291,117.23638190772908 65.09340621583397,116.38470635445265 64.59599221078679,116.25695478143462 64.37837358360412,116.42729019811668 63.94313632912235,117.40671668447612 63.60116420069244,117.91772034668247 62.76177806715714,120.00430823680654 61.580419805133715,122.26121102750767 59.155526530579664,129.11696570042113 58.7202892760979,129.88343638258812 58.47158227354521,130.05376289479318 57.91199151787441,130.22408929569065 57.66328451532172,130.64990481107088 56.85498675715644,133.24736439103435 56.26430762617383,134.3970513513923 56.13995412486838,134.8654408814764 55.797981996438466,135.58931395424588 55.673628495191224,136.05770134208433 55.3316563667031,136.824151615554 55.11403773952043,137.59059963554319 54.43009348254418,138.99574848570046 54.27465160598513,139.8473501631379 54.15029810467968,141.72086406055314 53.808325976191554,142.78535459429258 52.84458634146722,144.99948098039022 52.00520020793192,147.2561673681048 51.01037219783757,150.23666661960306 50.2642511902377,151.98237178493582 49.20724642951973,154.87766189633112 47.77718116494361,158.28384438873036 47.497385787195526,159.0928061906161 47.24867878458463,159.9869189458841 46.93779503146652,160.92360520991497 45.53881814231863,164.28713268974388 45.29011113976594,165.0534999693191 44.41963663091883,167.22486169393233 43.70460399868898,169.14075407969358 43.08283649239456,170.92890760331647 42.181273608177435,173.01507121328905 41.96365498099476,173.27051867143018 41.497329351259395,173.48339136199502 41.279710724018514,173.6111148929631 41.09318047214765,173.95171066945477 40.34705946454778,175.91012774963747 40.0983524620533,176.42101674244623 39.19678957789438,178.7200048211962 37.92216618999373,182.25359512033174 37.36257543426473,183.40306597850577 37.176045182335656,183.57335752648942 36.80298467859393,183.6159303960594 30.616397990845144,182.67932565875526 29.497216479445342,182.76447168290906 28.937625723774545,182.84961767938512 28.067151214869227,183.06248254880484 27.507560459256638,183.275347244562 25.580081189691555,184.3396681160375 25.11375555995619,184.6802498773177 23.96348567318637,186.0 25.11375555995619,184.6802498773177 25.85987656749785,184.08423150303133 27.134499955456704,183.40306597850577 28.56456521997461,182.89219066721853 29.24850947689265,182.72189867429552 30.709663116780575,182.63675263614277 32.07755163067486,182.76447168290906 36.585366051411256,183.44563887597178 37.23822193295928,183.40306597850577 37.393663809634745,183.36049307406938 37.48692893551197,183.23277431924362 39.22787795320619,178.50713640623144 39.725291958253365,176.80418283006293 40.16052921261871,175.78240534498764 41.12426884745946,173.7388383612997 41.37297585001215,173.48339136199502 41.96365498099476,173.14279497360985 42.212361983489245,172.88734739040956 42.83412948984187,171.35465663464856 43.860045875248034,168.62985082014347 44.29528312967159,167.31001276578172 46.09840889793122,162.6692388123338 47.06214853271376,159.9869189458841 47.963711416872684,157.9006510801264 48.46112542197807,156.49560412940627 48.86527430108981,155.6440568373364 49.6735720593133,153.47259865245724 49.86010231112596,152.79135314137966 50.32642794091953,151.51401301001897 51.35234432632569,149.08704951692198 51.63213970413199,148.19289937643043 53.31091197126079,144.10531681899738 54.057032978802454,141.97634218505118 54.181386480049696,141.50796543210163 54.181386480049696,141.08216765377438 54.057032978802454,140.01767016488884 54.119209729426075,139.46412975265412 54.33682835655054,138.86800799427147 55.08294936415041,137.42027804812824 55.3316563667031,136.69641005973972 55.549274993885774,135.67447536006512 56.01560062362114,134.52479403390316 56.23321925092023,133.71575598699565 57.19695888564456,131.50153375483933 57.63219614000991,130.3518340233859 57.84981476725079,130.01118127713562 58.65811252547428,129.62794640555512 58.84464277740335,129.3724561782583 59.062261404586025,128.64856584079098 60.026001039368566,126.3491361392953 60.61668017040938,124.73100678207993 60.9586522988393,124.00710355417687 62.14001056080451,121.06888745981269 64.28510845761048,116.21437090978725 64.37837358360412,116.04403535384336 64.62708058604039,115.91628361388575 65.31102484301664,116.29953864603885 65.777350472752,116.64020931265259 66.08823422587011,116.72537690964236" stroke="#4dd2ff" stroke-linecap="round" stroke-linejoin="round" stroke-width="0.5"><title>2022-08-14 5.0km</title></polyline><polyline fill="none" points="171.2503875088296,114.0 170.8253797586076,114.13434596799198 169.58304941200186,114.13434596799198 169.12534875795245,114.31347382278182 169.027270046412,114.4030377062445 168.7984197193873,115.11954772035824 168.50418358459137,115.52258378040278 168.17725454602623,115.74649244645843 167.4580106610665,115.83605586166959 166.83684548776364,116.01518260422745 166.57530225685332,116.23909086803906 166.47722354531288,116.46299894878757 166.3137590260012,117.40341089075082 166.21568031440256,117.53775519056944 165.92144417966483,117.62731802047347 165.30027900636196,117.58253660911578 164.4829564098618,117.67209942443878 163.8290983326733,117.35862944289693 163.5348621979938,117.31384798776708 161.9656028127065,117.89600633471855 161.60598087019753,117.80644359244616 160.33095761970617,117.0003775965015 159.4809421193204,117.0003775965015 157.61744659935357,115.79127415764378 157.29051756078843,115.7017107278225 157.09436013759114,115.79127415764378 156.9962814259925,115.97040092965472 156.70204529125476,116.77646995463874 155.72125817538472,118.70206969682476 154.02122717478778,122.28454485005932 153.43275490525411,124.07576486858306 152.4519677895587,126.62823317074799 151.89618842391064,128.0164077076479 151.1442516351235,130.0762666457158 150.94809421198443,130.3001634235552 150.4250077501638,130.43450140260393 150.29423613473773,130.52406001868076 150.03269290388562,130.88229419040726 149.70576386532048,131.8226566638332 148.92113417264773,133.837708244042 148.59420513396617,134.46461015901878 148.36535480705788,135.18106773501495 148.10381157614756,135.8527450116526 147.90765415295027,136.6139772690076 147.0903315564501,138.44988166316762 146.3383947677794,140.3305514641106 146.27300895994995,140.73355045719654 146.20762315229513,142.61420459102374 145.12875732494285,145.79337628619396 144.60567086318042,147.04712400079006 143.59219084348297,149.82325924912584 142.80756115092663,151.4351958470652 142.0556243621395,153.04712296684738 141.6306166118593,154.4799391166598 141.3690733810654,155.06201853827224 140.97675853472902,156.53959921203204 140.4863649768522,157.70374807325425 140.0286643227446,159.04699061636347 139.17864882247522,161.2857135629165 138.78633397613885,162.0916493482364 137.93631847575307,164.28557364977314 137.18438168696593,165.94219873312977 136.49783070595004,168.1360922207823 136.00743714807322,169.3001918400114 135.58242939785123,170.64337756641908 134.8304926091223,172.47905408369843 133.81701258942485,175.34447578745312 133.65354807017138,175.65787946942146 133.52277645474533,175.79219522350468 132.70545385824516,176.19514209078625 132.47660353116225,176.5085448003374 132.14967449265532,177.4039791392861 131.52850931929424,178.79189658520045 131.10350156913046,180.09026460943278 130.48233639576938,181.61248135947972 129.95924993394874,183.04514822742203 128.7496124911704,186.0 128.9457699143677,185.19413449283456 129.89386412635213,182.8660652783292 130.84195833816193,179.911179730203 132.31313901179237,176.37422939724638 132.73814676213078,175.92651091169682 133.32661903154803,175.6131075368321 133.62085516628576,175.38924776404747 133.98047710873652,174.31471831005183 134.69972099363804,172.79246104118647 135.38627197471214,170.9567866223515 136.00743714807322,168.89723483880516 136.98822426376864,166.25561316337553 137.64208234107355,164.73331114588655 138.59017655294156,162.00210104463622 139.89789270737674,159.04699061636347 141.10753015015507,155.42022064505727 142.38255340076284,152.42026354654809 142.41524630453205,152.10683329898166 142.7421753431554,151.12176447315142 143.75565536279464,148.7038532573206 144.21335601678584,147.8978781128535 144.27874182455707,147.45011311976123 144.5402850554674,146.7784642589395 144.8018282863195,145.79337628619396 145.32491474814015,144.7187308241264 146.04415863298345,142.88286841398804 146.17493024846772,142.2112083628017 146.1095444407547,140.68877282051835 146.24031605618075,139.92755187876173 146.3710876715486,139.65888515929691 146.76340251794318,139.07677303042146 147.15571736416314,138.27076958061662 147.90765415295027,135.8527450116526 148.3980477109435,134.46461015901878 148.79036255716346,133.837708244042 149.1172915957868,132.8973526833579 149.7384567691479,130.79273569141515 149.93461419228697,130.47928071423667 150.09807871159865,130.3001634235552 150.71924388495972,130.0314872681338 150.8827084042714,129.89714909149916 151.01348001963925,129.67325198440813 151.70003100077156,128.06118741442333 152.58273940498475,125.55351257210714 153.72699103999184,122.91147318799631 154.21738459792687,121.52327279778547 155.1981717136805,119.19466280681081 156.89820271439385,115.92561924754409 157.09436013759114,115.74649244645843 157.35590336838504,115.79127415764378 157.84629692637827,115.92561924754409 158.40207629196811,116.32865412221872 159.38286340777995,116.73168840436847 159.57902083091903,116.77646995463874 160.3636505235918,116.59734370943625 161.93290990882087,117.31384798776708 163.46947639022255,116.8660330332932 164.45026350597618,117.22428505527205 165.13681448699208,117.22428505527205 165.95413708355045,117.49297376454342 166.41183773759985,117.49297376454342" stroke="#4dd2ff" stroke-linecap="round" stroke-linejoin="round" stroke-width="0.5"><title>2022-07-26 4.5km</title></polyline><polyline fill="none" points="69.92063569935272,195.56921436163248 68.93415054486832,195.48203602820286 68.32953061151784,195.6128035177826 68.2340643061907,195.7435709433339 68.26588640804403,196.135872835177 68.2340643061907,196.35381808137754 68.13859800097998,196.57176314969547 68.01130959397415,196.74611907612416 67.82037698343629,196.83329699657043 66.99300233781105,196.87688594608335 66.57931501494022,197.09483058695332 66.29291609907523,197.44354164216202 66.1338055903907,197.7050746345194 65.97469508153154,198.6640267460316 65.8474066745257,198.83838130510412 65.72011826751987,198.88196992711164 65.11549833411118,198.88196992711164 64.06536897621118,198.70761539653176 63.71532585687237,198.57684942384367 63.33346063573845,198.31531728612026 63.04706172004808,198.27172857159167 62.60155229544034,198.5332607519813 62.060576565621886,198.70761539653176 61.678711344487965,198.9255585419305 61.4559566322132,198.9255585419305 60.91498090233654,198.57684942384367 59.99213995138416,198.0973736421147 59.80120734090451,198.0537848920212 59.26023161096964,198.22813984990353 58.942010593484156,198.14096238519414 57.73277072672499,197.22559728601482 57.25543920038035,196.9640638238343 56.87357397930464,196.9640638238343 56.714463470561896,197.09483058695332 56.173487740627024,198.6204380884883 55.4097572984756,199.88450626679696 53.94594061776297,203.11003241041908 52.32301342813298,207.7303127362975 51.336528273765,210.2147700212081 50.859196747420356,211.042917308514 50.73190834035631,211.13009055764996 50.28639891574858,211.21726377823506 50.063644203473814,211.43519670533715 49.777245287725236,212.74279052953352 49.299913761380594,213.83244715444744 49.07715904904762,214.48623899344238 48.53618331922917,215.53230260347482 48.18614019989036,216.6219478363928 46.94507823139429,219.54217511738534 46.6268572138506,220.37029345487827 46.53139090858167,221.02406927428092 46.37228039978072,223.20331043662736 46.27681409451179,223.55198737082537 44.940285820746794,226.64647519672872 43.79469015751965,229.91526138823247 42.68091659608763,232.48667838508845 42.10811876447406,234.2299978475785 41.40803252585465,235.92972335766535 40.51701367663918,238.32675375323743 40.13514845556347,239.54705186517094 39.753283234429546,240.3751081202936 39.49870642047608,241.11599838090478 38.76679808006156,242.72851713153068 38.28946655377513,244.07953885305324 37.8439571292256,245.169067517214 37.334803501085844,246.5200768825889 37.11204878881108,247.43527288921177 36.95293827995192,247.91466002102243 36.57107305893442,248.7862707815948 36.06191943079466,250.18084207703942 35.29818898870144,252.09836570866173 34.05712702014716,255.0617842200736 33.77072810428217,255.45399891005945 33.10246396745788,255.84621302370215 32.91153135692002,256.1076887790405 32.27508932183264,257.6765379316639 31.734113592014182,259.3761141059804 29.188345451431815,265.7385339367611 29.156523349694908,266.0 29.251989654963836,265.9128446740506 29.4747443672386,265.0412898490322 30.429407419927884,262.2087170101295 31.097671556810383,260.465580319491 31.28860416734824,259.7683224552311 31.734113592014182,258.8967475629761 31.98869040608406,258.06874877878 32.43419983063359,256.8921145082568 32.72059874632396,256.0641095043393 33.10246396745788,255.62831636503688 33.802550206077285,255.23610193125205 33.961660714878235,255.10536365860025 34.184415427153,254.62598944402998 35.425477395707276,251.57540608471027 36.03009732905775,249.78861963693635 37.14387089048978,246.91230412694858 37.90760133264121,244.73325658531394 38.48039916425478,243.33865682044416 38.8940864870674,242.51060976166627 39.53052852221299,240.50585360993864 40.83523469429929,237.23719715181505 41.50349883112358,235.23240138133406 42.044474560942035,233.83775196154602 43.094603918958455,231.440681240696 44.11291117512155,228.477000397339 44.6220648032031,227.3874035763729 45.79948256816715,224.38009326372412 46.27681409451179,222.89821774538723 46.30863619630691,222.37520089157624 46.21316989097977,221.8085981431068 46.21316989097977,221.15482424604124 46.244991992774885,220.45746365669766 47.072366638400126,218.71405420970405 47.390587656002026,217.7551741581119 48.59982752264477,214.87851332771243 49.17262535437476,213.22223999266862 49.52266847365536,212.43768587711384 49.84088949114084,211.56595637620194 50.09546630521072,211.30443697053124 50.76373044215143,210.99933067330858 50.92284095089417,210.78139739017934 51.59110508771846,208.90716380768572 52.00479241058929,207.90466137073236 52.48212393699214,206.90215516701574 53.43678698968142,204.63560551663977 53.97776271938346,203.06644447913277 54.86878156865714,201.01780367971514 55.250646789732855,200.276802069915 56.04619933362119,198.3589059934602 56.58717506349785,197.31277504982427 56.77810767403571,197.0512416730926 57.03268448810559,196.92047488843673 58.369212761870585,197.7050746345194 59.22840950929094,197.96660737032653 59.73756313737249,197.83584103448084 59.928495747968554,197.83584103448084 60.05578415497439,197.8794298201392 60.533115681260824,198.22813984990353 61.26502402161714,198.5332607519813 61.51960083562881,198.5332607519813 62.028754463768564,198.22813984990353 63.07888382172678,198.0101961347973 63.96990267094225,198.48967207298847 64.54270050255582,198.3589059934602 65.11549833411118,198.44608338695252 65.87922877632082,198.31531728612026 66.16562769206939,198.14096238519414 66.22927189560141,197.96660737032653 66.29291609907523,197.7050746345194 66.29291609907523,197.0512416730926 66.42020450613927,196.78970803983975 66.83389182895189,196.57176314969547 67.59762227110332,196.5281741503277 68.13859800097998,196.3974071093544 68.39317481504986,196.26664000435267 68.8705063413945,195.6999818085751 69.57059258001391,195.13332240923773 70.52525563264498,194.95896542881383 70.62072193797212,194.741019043111 70.5570777344401,194.34871510020457 70.588899836177,194.26153636784875 70.84347665024688,194.0" stroke="#4dd2ff" stroke-linecap="round" stroke-linejoin="round" stroke-width="0.5"><title>2022-07-25 4.6km</title></polyline></svg>