<?xml version="1.0" encoding="utf-8" ?>
<svg baseProfile="full" height="300mm" version="1.1" viewBox="0,0,200,300" width="200mm" xmlns="http://www.w3.org/2000/svg" xmlns:ev="http://www.w3.org/2001/xml-events" xmlns:xlink="http://www.w3.org/1999/xlink"><defs /><rect fill="#222222" height="300" width="200" x="0" y="0" /><text fill="#FFFFFF" style="font-size:12px; font-family:Arial; font-weight:bold;" x="10" y="20">Over 4km Runs</text><text fill="#FFFFFF" style="font-size:4px; font-family:Arial" x="10" y="280">ATHLETE</text><text fill="#FFFFFF" style="font-size:9px; font-family:Arial" x="10" y="290">ChiZhang9797</text><text fill="#FFFFFF" style="font-size:4px; font-family:Arial" x="120" y="280">STATISTICS</text><text fill="#FFFFFF" style="font-size:3px; font-family:Arial" x="120" y="285">Number: 10</text><text fill="#FFFFFF" style="font-size:3px; font-family:Arial" x="120" y="290">Weekly: 2.5</text><text fill="#FFFFFF" style="font-size:3px; font-family:Arial" x="141" y="285">Total: 47.5 km</text><text fill="#FFFFFF" style="font-size:3px; font-family:Arial" x="141" y="290">Avg: 4.7 km</text><text fill="#FFFFFF" style="font-size:3px; font-family:Arial" x="167" y="285">Min: 4.1 km</text><text fill="#FFFFFF" style="font-size:3px; font-family:Arial" x="167" y="290">Max: 5.3 km</text><polyline fill="none" points="24.690721649385523,76.03598204339505 23.824742268014234,75.78179713114514 23.762886597891338,75.86652546288678 23.6701030927361,76.3748948720604 23.546391752490308,76.58671516503091 23.360824742238037,76.67144323392131 22.494845360750332,76.88326328460244 22.37113402056275,76.79853528505191 22.247422680375166,75.73943295494246 22.711340206151363,74.63796194261522 23.020618556649424,74.17195356744924 23.515463917457964,73.53648625130882 24.999999999941792,72.4773705972475 26.48453608242562,71.58771010450437 27.628865979379043,71.20642610175128 28.340206185530405,71.20642610175128 29.144329896837007,71.07933130962192 30.28865979379043,71.07933130962192 31.86597938137129,70.78277655228158 33.350515463913325,70.61331653862726 33.96907216485124,70.44385641424742 34.154639175278135,70.31676124832302 34.4020618556533,70.10493583319476 34.742268041241914,69.55418894425384 34.77319587615784,69.25763244260452 34.742268041241914,68.79161439764721 34.37113402056275,66.5038773008564 34.37113402056275,65.40236705522693 34.247422680375166,64.34321817525779 33.62886597937904,63.41116358201543 33.47422680410091,62.81803618730919 32.91752577316947,61.5046778418764 31.927835051494185,59.555811262878706 31.58762886596378,58.32717045607569 31.278350515465718,57.77639854933659 30.845360824721865,57.39509423634445 30.25773195869988,57.18325826442742 25.8041237113066,57.47982857649913 25.123711340071168,57.64929717394989 24.721649484476075,57.64929717394989 24.412371133978013,57.734031431158655 23.762886597891338,57.5645628891798 23.917525773169473,56.88668761315057 24.25773195869988,56.124075809217175 24.87628865975421,55.191991669358686 25.463917525776196,54.0480656454165 25.8041237113066,53.24307763998513 26.329896907147486,52.26861513167387 26.546391752490308,51.71783035463886 27.4742268040427,49.72652178336284 28.432989690627437,48.201253810402704 29.731958762858994,45.61675148321956 31.309278350439854,42.86274523966131 31.77319587621605,42.01535281763063 32.020618556649424,41.63402532420878 32.29896907211514,41.46454625813931 32.70103092776844,41.506916035097674 33.752577319566626,42.14246185756929 36.041237113415264,44.091459331990336 38.14432989683701,45.532013265779824 38.97938144323416,46.5912389929581 39.41237113403622,47.01492807221075 39.69072164944373,47.184403510036645 40.21649484534282,47.269141187294736 40.525773195840884,47.39624765136978 41.91752577316947,48.582571644859854 42.65979381441139,49.3028371353721 43.37113402056275,49.895995448721806 46.30927835049806,51.84493463776016 48.010309278266504,53.24307763998513 49.030927835032344,53.96333018360019 51.22680412372574,55.234359203022905 54.16494845354464,56.71721851728216 55.27835051540751,57.47982857649913 56.63917525764555,58.07296818301256 59.67010309279431,59.59817808333901 62.57731958763907,60.69971298711607 64.37113402062096,61.5046778418764 65.97938144329237,62.013075409893645 67.0,62.43673928845965 65.2061855669599,61.84360966470558 64.15463917521993,61.37757829413749 62.70103092782665,60.78444624741678 61.18556701031048,60.06421265222889 57.938144329877105,58.75084035747568 56.6082474226132,58.07296818301256 55.06185567006469,57.39509423634445 49.958762886584736,54.3446395436622 48.9381443298189,53.83622693885991 47.70103092776844,52.98887038217799 46.18556701031048,51.67546224636317 44.57731958758086,50.700993846185156 43.06185567000648,49.68415334967722 42.56701030925615,49.260468632521224 41.70103092776844,48.28599115542602 40.46391752571799,47.353878836962394 39.56701030925615,46.93019031175936 38.948453608260024,46.421763167512836 38.14432989683701,45.532013265779824 36.103092783421744,44.091459331990336 33.752577319566626,42.184831523743924 32.70103092776844,41.59165556814696 32.23711340199225,41.506916035097674 31.927835051494185,41.76113455099403 31.18556701025227,43.24407092604088 29.67010309267789,45.87096596935589 28.340206185530405,48.54020302424033 28.030927835032344,48.96388891852985 26.76288659783313,51.25178078330646 25.30927835049806,54.471742539069965 24.134020618512295,56.80195307910617 23.60824742267141,57.522195736295544 22.958762886584736,57.903499862513854 21.876288659696,59.979479156507296 21.041237113357056,61.462311332827085 20.6701030927361,62.05544182895392 20.206185566959903,63.072233808241435 19.52577319589909,64.21612001887115 18.75257731950842,65.61419631204626 17.79381443298189,67.22409300845175 17.45360824733507,68.07140304417408 16.958762886584736,68.91871031123446 16.37113402056275,70.14730093012622 15.96907216485124,71.16406117800216 14.886597938137129,72.85865273111267 14.237113401992247,74.42614005767973 13.463917525717989,75.56997618064634 13.123711340187583,76.41725894455158 13.0,76.75617127495934 13.123711340187583,76.96799125646066 13.525773195840884,77.0950831622904 14.97938144323416,77.85763328932808 15.938144329877105,77.89999711958808 16.46391752571799,78.19654373712547 17.051546391681768,78.40836254201713 17.731958762800787,78.32363504078239 18.59793814428849,77.98472475910967 18.907216494786553,77.89999711958808 19.773195876274258,78.40836254201713 21.628865979379043,78.53545374186069 21.876288659696,78.36599879480491 21.999999999941792,78.06945237104082 22.030927834974136,77.85763328932808 21.96907216490945,76.5019870686956 22.123711340187583,75.78179713114514 22.402061855595093,74.97687659863732 22.68041237111902,74.42614005767973 22.98969072161708,74.04486022872152 23.57731958758086,73.45175715828373 24.072164948447607,73.07047589654394" stroke="#4dd2ff" stroke-linecap="round" stroke-linejoin="round" stroke-width="0.5"><title>2022-08-26 5.1km</title></polyline><polyline fill="none" points="89.31664952239953,86.86222548425576 89.18732853475376,86.92127172462642 88.88557956364821,86.98031793598784 88.08091564063216,86.88190756760741 87.49178669703542,87.0 87.20440672454424,86.96063586875971 86.52906378917396,86.70476870191487 85.46575789092458,86.37017235603707 85.33643690327881,86.2520793061849 85.25022291153437,86.13398614063772 85.20711591566214,85.87811721805338 85.23585391291999,85.6812946000864 85.37954389918013,85.28764839955693 85.5088648868259,85.05146006176074 85.85372085380368,84.53971707466553 86.08362483177916,84.12638461350434 86.35663580565597,83.4965419456712 86.77333676579292,82.39430935303244 87.13256173141417,81.76445762911317 87.43431070251972,81.41016458723607 87.72169067504001,80.99682138803473 88.23897462553577,79.85519946982822 88.51198559938348,79.40248433400848 89.02926954990835,78.39863165944553 89.47470850727404,77.67034114963462 89.57529149763286,77.4144542494978 89.58966049627634,77.27666877047159 89.56092249901849,77.21761780259112 89.40286351417308,77.13888313379721 89.0580075471371,77.13888313379721 87.69295267778216,77.29635242000222 87.20440672454424,77.29635242000222 87.01760974241188,77.27666877047159 86.93139575063833,77.1979341402257 86.84518175889389,77.06014841351862 86.80207476302166,76.58773901110544 86.78770576440729,76.52868770554778 86.70149177266285,76.41058500755025 86.50032579191611,76.37121741588635 86.11236282903701,76.37121741588635 85.82498285651673,76.31216600414336 85.36517490053666,76.05627621887106 84.37371399541735,75.76101809892134 83.77021605317714,75.70196638802736 83.49720507930033,75.72165029490134 83.1236111150647,75.8200697807988 83.00865912606241,75.8200697807988 82.8506001411588,75.70196638802736 82.80749314528657,75.58386287954636 82.63506516182679,74.69808287455089 82.63506516182679,74.14692758409365 82.50574417421012,73.71387522948498 82.39079218520783,72.78871271071694 82.41953018243657,72.15881075961806 82.47700617695227,72.00133475712937 82.89370713706012,71.52890551449673 83.10924211645033,71.09584374762198 83.48283608071506,70.7218346051086 83.77021605317714,70.48561770616652 84.2875000036729,70.34782430122868 84.4599279871909,70.26908514189563 84.57487997619319,70.17066112036264 84.70420096380985,69.99349767895183 84.7329389610386,69.87538857322215 84.70420096380985,69.42263592844392 84.76167695829645,69.16673150684801 84.97721193765756,68.71397619833442 85.22148491430562,68.35964476976369 85.35080590192229,68.24153406193363 86.08362483177916,67.84783086607058 86.22731481806841,67.65097878556116 86.284790812555,67.4738116380322 86.284790812555,67.3557000616056 86.24168381668278,67.23758836930938 86.11236282903701,67.09979124860547 85.23585391291999,66.68639894055377 85.0634259294311,66.58797199143737 84.94847394042881,66.46985954629054 84.89099794594222,66.35174698533956 84.86225994865526,66.19426339061465 84.91973594317096,65.83992454953113 84.90536694452749,65.70212582981912 84.76167695829645,65.5643269524735 84.31623800093075,65.38715673564002 84.21565501057194,65.28872872480133 84.17254801467061,65.20998625818174 84.17254801467061,65.05250117054675 84.2300240091572,64.85564452148537 84.51740398167749,64.34381572803977 85.0634259294311,63.65481199459464 85.35080590192229,63.142978098207095 85.60944787715562,62.88706033434573 86.09799383042264,62.57208387852006 86.54343278778833,62.39490926013241 86.83081276027951,62.33585099605261 87.27625171767431,62.355537087300036 88.02343964614556,62.3161649016256 90.39432441926328,62.355537087300036 90.89723937111557,62.29647880398261 91.57258230651496,62.27679270309454 92.75084019373753,62.15867603020888 93.5986111125967,61.98150080367486 94.24521605073824,61.6665219796123 95.10735596824088,61.036561860375514 95.45221193521866,60.879071315706824 95.89765089261346,60.58377598944935 96.44367284036707,59.97349668748939 96.90348079631804,59.32384112926957 97.11901577570825,58.949795430387894 97.19086076880922,58.73324212638545 97.24833676332491,57.70953032730904 97.40639574822853,57.276418869776535 97.77998971246416,56.764557866386895 97.82309670833638,56.62674876303208 97.85183470559423,56.44956539844861 97.9236796986952,56.1345721066391 97.9236796986952,55.70145498518832 97.90931070008082,55.60301905860979 97.69377572071971,54.61865536705591 97.57882373168832,53.890221055458824 97.33455075506936,53.10271954617929 96.84600480183144,52.21677419292246 96.38619684585137,51.64582817853079 96.29998285410693,51.48832535336987 95.9838648843288,50.169231106119696 95.42347393796081,48.63355094498547 95.30852194895851,48.14134162096889 95.27978395172977,47.88539197748469 95.25104595447192,47.33411397443706 95.26541495308629,46.25123912149866 95.39473594073206,45.58182070570183 95.50968792973435,45.24711010236206 95.52405692834873,44.95177644441719 95.56716392425005,44.85333173083927 95.76832990499679,44.53830810654472 95.9263888898422,44.20359460279724 96.14192386923241,43.92794748932647 96.27124485681998,43.82950193876604 96.41493484308012,43.79012369605334 96.80289780595922,43.711367171905295 97.79435871110763,42.94348836209247 99.01572359420243,42.29374092929356 99.70543552815798,41.998400028125616 100.33767146771424,41.821195139760675 101.0848593961855,41.66367946447281 101.65961934116785,41.60461103317357 102.11942729720613,41.565232062836 103.28331618581433,41.407716052744945 103.97302811976988,41.36833701807336 105.00759602079052,41.50616358322441 106.04216392178205,41.42740556530771 106.43012688463205,41.30926844183705 106.99051783102914,41.2895789100221 107.57964677462587,41.2895789100221 108.09693072515074,41.42740556530771 109.13149862611317,41.36833701807336 109.26081961375894,41.2895789100221 109.51946158899227,41.033614703097555 110.12295953123248,40.81702917996881 111.10005143773742,40.71858108614833 111.7753943731077,40.46261566547764 112.00529835111229,40.482305332508986 112.53695130022243,40.40354664494953 112.89617626581457,40.265718817783636 113.24103223285056,40.00975243450375 113.95948216409306,39.2221601502024 114.57734910494764,38.7299123565972 115.49696501696599,37.70603050013597 116.05735596333398,36.70183022280253 116.63211590831634,34.96907279693551 117.12066186155425,33.74825145603245 117.50862482443335,33.059072652380564 117.56610081894905,33.0 117.60920781479217,33.03938177148666" stroke="#4dd2ff" stroke-linecap="round" stroke-linejoin="round" stroke-width="0.5"><title>2022-08-25 5.1km</title></polyline><polyline fill="none" points="177.2833560334402,83.58013281715102 177.07236898108386,83.48379795596702 176.61523036781,83.53196539051714 176.47457233298337,83.67646764701931 176.40424331557006,84.15814132406376 176.22842077189125,84.4953124296735 176.0174337196513,84.63981421405333 174.9273339495412,84.92881757035502 174.64601787977153,85.12148631713353 174.39986631879583,85.41048920134199 174.3295373013243,85.84399299617507 174.11855024908436,86.37383010232588 173.6614116358105,86.80733248067554 173.09877949621296,87.0 171.83285718259867,86.90366625602474 170.9537444646121,86.37383010232588 170.67242839495884,86.32566313195275 168.87903845054097,86.66283175870194 168.14058376755565,86.1329951720545 167.3318000670988,85.79582593939267 166.38235833175713,85.84399299617507 165.5735746313585,85.55499053711537 164.23732330015628,84.73614869758603 164.02633624791633,84.54347969894297 163.9560072303866,84.35081057457137 163.9560072303866,84.15814132406376 164.51863936986774,82.80945304530906 165.4680811051512,81.0754161925579 166.94499047118006,77.84815378391067 168.45706434594467,75.00620688754134 169.4416705899057,73.32029323972529 170.74275741243036,70.81548944543465 171.93835070874775,68.98504244477954 173.62624712701654,65.66130699359928 174.7515114059206,63.638145327946404 175.56029510631924,62.4820467135869 176.33391429804033,62.0485085643013 176.47457233298337,61.85582473775139 178.86575892550172,56.99051637836965 180.16684574796818,54.05202392031788 181.678919622791,51.35436571080936 182.41737430577632,49.812835649907356 182.8393484102562,48.801202166301664 183.22615800623316,48.22312433132902 185.4766865639831,44.56193838326726 185.4766865639831,44.1765477435838 185.37119303783402,43.93567833775887 184.24592875887174,43.35759096086258 182.87451291910838,42.92402468458749 181.53826158790616,42.153238618106116 180.9053004310117,41.67149630319909 180.5888198526227,41.382450536300894 180.2371747653815,40.8525325608789 179.60421360860346,40.3707881202281 178.90092343417928,39.55182076408528 176.8613819287857,38.39562768192263 175.31414354534354,37.28760505578248 173.907563196728,35.89052711240947 172.53614735690644,34.83067046239739 172.18450226966524,34.20438974167337 171.76252816518536,33.19270268941182 171.65703463897808,33.04817568423459 171.51637660409324,33.0 171.16473151696846,33.09635136043653 170.77792192110792,33.385405252774945 170.2856187991565,33.96351218695054 169.65265764226206,34.878845847415505 169.05486099410336,35.553300409868825 168.70321590697858,35.84235189284664 168.38673532853136,35.986877527990146 167.78893868043087,35.60147567678359 167.36696457577636,35.60147567678359 166.52301636664197,36.420454008330125 166.34719382307958,36.757679718808504 166.17137127945898,37.38395501469495 166.62850989279104,38.78102587984176 166.59334538399708,39.21459825025522 166.27686480566626,39.64816998288734 165.78456168365665,40.033566543337656 164.65929740469437,40.6116604389681 164.3076523175696,41.093404485989595 163.39337509102188,43.69480873522116 163.32304607360857,44.1765477435838 163.35821058228612,44.85098103250493 163.1120590212522,45.47723913344089 162.8659074602765,45.814454482810106 162.37360433820868,46.19984298115014 161.14284653321374,46.39253704139264 160.5098853763775,46.633404439664446 159.13846953643952,48.126777915254934 158.54067288833903,49.04206759642693 157.66156017052708,50.10187315026997 157.52090213558404,50.4390832092613 157.48573762684828,50.67994730107603 157.59123115299735,52.26964537028107 158.04836976632942,54.96729520370718 158.08353427506518,55.97890752676176 158.04836976632942,56.701485632162075 158.11869878374273,57.135031645040726 158.4000148534542,57.90577853831928 158.50550837966148,58.5801804169314 158.4703438708093,59.30275214603171 158.25935681862757,59.6881230106228 158.08353427506518,59.88080825423822 157.69672467920464,60.12166463120957 157.1340925397817,60.218007127026794 154.91872849070933,60.16983588313451 152.3165548457764,59.54360899559106 151.4022776192869,59.39909490942955 150.27701334032463,59.39909490942955 148.97592651785817,59.59178034181241 146.47924639913253,60.410692024132004 145.0023370331037,61.03691706983955 142.9627955276519,61.51862773820176 140.8529250047286,61.61496977743809 139.44634465611307,61.566798761690734 138.53206742956536,61.711311785213184 138.0749288163497,62.0966795013519 137.6529547116952,63.3009503671492 137.16065158956917,64.31253409257624 136.9848290461232,64.89058037730865 136.45736141537782,65.5649662767537 136.07055181951728,66.1911803735129 135.0507810668205,68.4070041886298 134.6991359795793,68.888702814118 134.5233134360169,69.27406114790938 135.08594557549804,67.73262479063123 136.28153887175722,65.51679590647109 136.8793355199159,64.79423940842389 137.30130962457042,64.55338684888557 140.88808951346437,64.26436351775192 143.87707275425782,64.31253409257624 145.2484885941376,64.07168113946682 147.92099125642562,63.975339903117856 151.71875819761772,63.58997464281856 154.21543831640156,63.73448667451157 157.1340925397817,63.49363324904698 159.0681405190262,63.445462540432345 160.47472086764174,63.3009503671492 161.91646572499303,63.34912109936704 163.25271705613704,63.15643812291091 165.96038422716083,63.0600965875783 167.4372935932479,62.91558422529488 169.6174931335263,62.91558422529488" stroke="#4dd2ff" stroke-linecap="round" stroke-linejoin="round" stroke-width="0.5"><title>2022-08-20 4.1km</title></polyline><polyline fill="none" points="46.63933176838327,142.78232697607018 46.57518363540294,143.17773663220578 46.3827392362291,143.39740841218736 45.5167394404416,143.39740841218736 44.45829524548026,143.57314570696326 44.13755458034575,143.83675143381697 44.041332380787935,144.01248844136717 43.880962048249785,144.71543532348005 43.688517649134155,144.93510584739852 43.496073250018526,144.979039930593 42.59799938771175,144.979039930593 42.34140685549937,145.0669080755324 42.18103652301943,145.1987102390267 41.95651805738453,145.55018235940952 41.79614772478817,146.51672832167242 41.69992552528856,146.82426494470565 41.34711079363478,147.0 39.90377780050039,146.8681987192249 39.00570393813541,146.42886065045604 38.74911140598124,146.4727944895858 37.40200061240466,146.95606624687207 37.17748214676976,146.91213248673012 36.568074883078225,146.51672832167242 36.022815752308816,146.25312522190507 35.670001020655036,146.16525746459956 35.06059375690529,146.20919134680298 34.80400122475112,146.16525746459956 32.94370536698261,145.1987102390267 32.78333503444446,145.0669080755324 32.655038768367376,144.8033035545668 32.687112834944855,144.62756706381333 33.521038564213086,143.08986787000322 34.00214956194395,141.99150591949 35.18889002298238,139.97050820846925 35.99074168584775,138.21310654788977 37.594445011462085,135.3573043529468 39.230222403712105,132.58934405000764 39.615111201885156,131.71062053510104 40.51318506419193,129.9531648903794 41.34711079363478,128.19569775901618 42.59799938771175,126.17459635730484 42.7583697202499,125.47160100436304 42.59799938771175,125.20797727315221 40.57733319728868,125.38372645605705 39.358518669730984,125.38372645605705 38.78118547250051,125.42766373383347 37.91518567659659,125.42766373383347 38.74911140598124,125.47160100436304 40.38488879817305,125.20797727315221 42.98288818576839,124.94435328347026 43.59229544957634,124.68072903543361 44.00925831426866,124.32922963582678 44.426221178960986,123.71410458095488 45.5167394404416,121.78084524709266 47.184590899094474,118.1339772984793 48.49962762626819,115.71735080692451 48.94866455742158,115.01432811279665 49.23733115597861,114.31130358047085 50.55236788315233,111.71888473053696 52.18814527528593,108.86280112707755 52.28436747484375,108.64310113168904 52.31644154136302,108.29158076568274 52.09192307572812,108.02794018949498 51.674960211035796,107.85217966191703 50.55236788315233,107.54459846200189 49.75051622022875,107.14913640220766 49.044886756979395,106.57791240001097 48.05059069499839,105.91880627415958 47.6015537637868,105.30363909891457 46.895924300537445,104.6884705160046 46.57518363540294,104.20512278491515 44.87525811017258,103.1944838121126 43.816813915153034,102.4474873469735 43.11118445190368,102.05201779003255 42.14896245650016,100.99742946054903 40.641481330327224,99.98677843005862 40.28866659861524,99.50342224637279 39.87170373398112,98.58064893711708 39.71133340144297,98.31699883844703 39.454740869347006,98.18517369221081 39.29437053675065,98.18517369221081 38.97362987161614,98.40488223338616 38.58874107344309,98.75641552580055 37.72274127759738,100.03071985818679 36.98503774771234,100.77772303795791 36.888815548154525,100.82166433680686 36.343556417443324,100.60195777067565 36.022815752308816,100.55801643585437 35.60585288761649,100.90954691314255 35.28511222254019,101.524724142364 35.18889002298238,101.8762533555855 35.22096408944344,102.09595888058539 35.44548255507834,102.62325140784378 35.477556621597614,102.84295632230351 35.44548255507834,103.54601084228489 35.317186289001256,103.89753741276218 35.1568159564049,104.20512278491515 34.86814935784787,104.42482640690287 34.32289022713667,104.77635182830272 33.42481636471348,105.08393619509297 32.975779433501884,105.4794012925413 32.10977963759797,107.76429935495253 32.01355743804015,108.15976050996687 32.04563150461763,108.77492115052883 31.98148337157909,109.03856099411496 31.756964906002395,109.5219000360521 31.500372373848222,109.82947897401755 31.211705775291193,110.04917799992836 29.800446848676074,110.40069606807083 29.35140991746448,110.70827400067355 27.90807692433009,112.46585543715628 26.97792899538763,113.47645956085762 26.81755866284948,113.78403397492366 26.785484596388415,113.95979062491097 26.81755866284948,114.75069412853918 26.689262396772392,115.67341194234905 26.945854928868357,117.65065373774269 27.138299327983987,118.57336159981787 27.2345215275418,119.75969562676619 27.747706591675524,121.78084524709266 27.876002857810818,122.08841016190127 28.068447256926447,122.22022358916001 28.613706387695856,122.30809917117585 29.54385431658011,122.08841016190127 30.121187513810582,122.08841016190127 31.59659457334783,122.35203695154632 33.29652009863639,122.8792897555686 33.841779229347594,122.96716512253624 35.18889002298238,122.96716512253624 36.08696388534736,122.79141436013742 36.888815548154525,122.48385024958407 38.58874107344309,121.16571436222875 39.26229647023138,120.63845819811104 39.48681493586628,120.15513913927134 39.58303713542409,119.14456011806033 39.454740869347006,117.65065373774269 39.51888900232734,116.94763609863003 40.128296266135294,114.97038913340657 40.4490369312698,114.355242667516 40.70562946330756,113.6082772098016 41.28296266059624,112.64161294896621 41.69992552528856,111.67494521255139 41.92444399080705,110.92797230853466 41.9885921239038,109.96129841115908 42.052740256884135,109.7415993133327 43.0791103853262,109.08250094298273 43.27155478444183,109.08250094298273 43.7526657821727,109.39008038357133 44.073406447249,109.39008038357133 44.26585084636463,109.25826066642185 44.8431840435951,108.24764068773948 45.61296163999941,107.10519613750512 47.82607222936349,104.11724128603237 48.5958498257678,103.28236561274389 49.23733115597861,102.71113339520525 49.718442153709475,102.40354631384253 49.87881248630583,102.18384104027064 49.81466435326729,101.612606488663 49.62221995415166,101.30501815053867 49.39770148857497,101.17319446938927 49.044886756979395,101.17319446938927 48.146812894498,101.74442995450227 47.50533156422898,101.92019447500934 46.895924300537445,101.8762533555855 46.79970210097963,101.65654765116051 46.92799836699851,101.3489593633276 47.53740563074825,100.55801643585437 47.82607222936349,99.67918823182117 47.92229442897951,99.32765614578966 47.85814629599918,98.75641552580055 47.72985002986388,98.18517369221081 47.409109364729375,97.74575607120642 46.895924300537445,97.21845397780999 46.767628034518566,95.46077286431682 46.79970210097963,95.32894631760428 46.895924300537445,95.02135079051368 47.3770352982101,94.31827397830784 47.50533156422898,93.9667348828225 47.66570189688355,93.79096516268328 47.986442562018055,93.61519532772945 49.42977555509424,93.30759783988469 50.16747908492107,93.2636553128541 51.06555294728605,93.43942537764087 51.931552743248176,93.79096516268328 52.22021934186341,93.79096516268328 52.47681187384296,93.70308025949635 53.31073760322761,93.0" stroke="#4dd2ff" stroke-linecap="round" stroke-linejoin="round" stroke-width="0.5"><title>2022-08-19 4.3km</title></polyline><polyline fill="none" points="119.77258253077161,93.0 119.67876244761283,93.03212814382277 119.51457730203401,93.22489689680515 119.3503921564261,93.77107400396198 119.18620701087639,93.93171404088207 118.90474676134181,94.09235394658754 118.15418609586777,94.06022597597621 117.8727258463332,94.15660987215233 117.82581580471015,94.34937752284168 117.7789057631162,94.92767934103904 117.73199572152225,95.21682961235638 117.66163065913133,95.34534070761583 117.4270804511907,95.47385171891074 117.02834509767126,95.50597945855407 115.87904907873599,95.34534070761583 114.87048318443703,95.53810719303146 114.4717478309176,95.50597945855407 112.57189114647917,95.08831843319058 111.53987023144145,94.63852864450018 111.14113487792201,94.5421449845453 110.88312964918441,94.60640076304844 110.7189445036347,94.67065652072779 110.43748425404192,94.95980716991471 110.29675412928918,95.18470182549208 110.01529387975461,96.02002257977438 109.78074367178488,96.56619192377548 108.74872275671805,98.62234526092652 108.39689744485077,99.55403266401845 107.69324682094157,101.67440823071229 106.63777088516508,104.30878239046433 106.49704076038324,104.56579261428851 106.37976565645658,104.66217136158957 105.88721021966194,104.79067628455232 105.81684515732923,104.91918112357962 105.44156482460676,106.13997290593397 104.92555436707335,107.0073729884025 104.69100415910361,107.64988910140528 104.43299893036601,108.19602614692121 103.9169884728326,109.48104850694654 103.77625834807986,110.05930582963629 103.49479809854529,110.76606247063319 103.14297278659069,111.66556724945258 103.11951776579372,112.05106803798117 103.18988282818464,112.46869303964195 103.2133378489525,112.9505669396458 103.18988282818464,113.43243965884903 103.14297278659069,113.59306363617361 102.29859203798696,115.45629218683462 101.99367676762631,116.42002416600008 101.31348116451409,117.99410957597138 101.12584099819651,118.66871375229675 100.02345502079697,121.30286028291448 99.46053452169872,122.97327638842398 99.1321642305411,123.7442328829784 98.80379393935436,124.64367830711126 98.54578871064587,125.51099678486935 97.34958265008754,128.53052016798756 96.95084729650989,129.71904325351352 96.76320713019231,130.10450865788152 96.17683161029709,131.54999719612533 94.55843517539324,135.85427793030976 94.04242471783073,137.0748777121771 93.9016945931071,137.26760330115212 93.40913915639976,137.5245704593981 93.26840903161792,137.74941644743376 92.96349376125727,138.55243573513872 92.07220297100139,140.60815017315326 91.86110778385773,141.2505565291358 91.3685523471795,142.43900275677152 90.4068964945327,144.9122326968063 90.3130764113157,145.0085916755197 90.055071182549,145.10495060698304 89.11687035075738,144.9122326968063 87.80338918615598,144.78375398511707 85.10606179467868,144.3983173466695 84.07404087969917,144.49467657708738 82.9951099230675,144.78375398511707 82.59637456954806,144.9764720211533 81.98654402882676,145.32978793006623 80.97797813464422,146.06853732552554 80.22741746919928,147.0 80.9076130722824,146.16489573773288 81.56435365453945,145.58674455633445 82.43218942396925,145.13707024029281 83.74567058857065,144.59103576035704 84.42586619162466,144.49467657708738 85.95044254336972,144.46255683887284 87.12319358310197,144.68739489634754 90.00816114101326,145.0085916755197 90.24271134892479,144.9764720211533 90.45380653609755,144.81587367097382 90.92290695203701,143.37048261830932 91.65001259668497,141.6038791306346 92.04874795020442,140.19058491670876 92.30675317900022,139.58029563969467 92.65857849089662,138.905763183182 93.22149898999487,137.55669133053743 93.43259417716763,137.33184512220032 93.97205965549801,137.04275676235557 94.08933475942467,136.88215193443466 94.95717052891268,134.762155915334 95.77809625677764,132.32092007281608 96.22374165186193,131.38938788307132 96.92739227574202,129.65479894609598 97.30267260846449,128.46627547229582 98.0766882947355,126.53892484304379 98.49887866905192,125.2861368060403 99.15561925136717,123.7442328829784 100.11727510395576,120.88525403977837 100.63328556148917,119.7930489040591 101.5714863932808,117.19100634905044 101.75912655965658,116.83763989036379 102.20477195482817,115.55266559732263 103.02569768263493,113.52881406096276 103.11951776579372,113.11119131046871 103.0491527034319,112.5650679141254 103.02569768263493,111.92256785911741 103.18988282818464,111.34431601499091 103.4009780153865,110.86243817939248 103.56516316093621,110.34843385340355 103.87007843129686,109.54529940457724 104.03426357684657,109.19191920811136 104.66754913833574,107.29650549901999 105.69957005328615,104.91918112357962 105.88721021966194,104.72642383357743 106.40322067722445,104.53366635464772 106.52049578118022,104.37303497790708 106.77850100997603,103.53774970379891 107.95125204976648,100.67847709970374 108.84254283996415,98.33319999703963 109.21782317271573,97.56214388122316 110.57821437885286,94.47788918495644 110.85967462838744,94.06022597597621 111.0707698155311,94.06022597597621 111.44605014828267,94.28512166027213 111.75096541864332,94.5421449845453 112.19661081378581,94.76704011770198 112.59534616724704,94.92767934103904 113.13481164560653,94.79916797281476 113.55700201989384,95.15257403324358 114.0261024357751,95.40959622376249 114.26065264377394,95.44172397389775 114.75320808048127,95.08831843319058 115.48031372510013,94.8634236674261" stroke="#4dd2ff" stroke-linecap="round" stroke-linejoin="round" stroke-width="0.5"><title>2022-08-18 5.1km</title></polyline><polyline fill="none" points="138.1469879518263,125.1496296308469 138.21927710846649,125.28825735220744 138.19036144582788,125.40708098716277 138.16144578313106,125.46649276100652 137.8578313253238,125.60512011998071 137.42409638557,125.74374732042634 137.25060240968014,125.8427666522839 137.1349397590675,125.98139358095068 137.06265060245642,126.27845075132063 137.01927710845484,126.37746964639518 136.91807228917605,126.49629221362557 136.65783132531215,126.55570345356682 136.49879518075613,126.51609596353956 136.23855421689223,126.3972734156705 136.02168674700079,126.35766587383114 135.8192771084723,126.25864696263307 135.3566265060217,126.41707718171529 135.13975903618848,126.51609596353956 135.0674698795192,126.53589971017209 134.82168674698914,126.37746964639518 134.344578313292,126.2190393754936 133.9831325301493,126.23884317070042 133.76626506022876,126.10021653643344 133.37590361447656,125.96158974366699 133.0,125.64472790771833 133.01445783136296,125.48629667910427 133.08674698797404,125.40708098716277 133.4915662650892,124.57531309618935 133.70843373495154,124.2584476363918 133.92530120484298,123.8425604633012 134.1132530120667,123.40686760868266 134.98072289157426,121.76310319370532 135.40000000002328,121.05013820304157 135.83373493977706,120.27775473062502 136.22409638555837,119.44595164050406 137.20722891564947,117.50505556403368 137.40963855423615,117.24758742305858 137.71325301207253,116.73264950040175 138.07469879521523,116.37615273388656 138.26265060240985,116.11868219484313 138.4072289156611,115.80179462674278 138.85542168677785,115.04918333194655 139.18795180725283,114.41540177472052 139.47710843372624,113.54394672210765 139.63614457836957,113.24685834021511 140.1132530120376,112.5338432523713 140.41686746993219,111.99907918377721 140.86506024099072,111.04838168026617 141.80481927710935,109.46386926869309 142.0216867470299,109.14696430052572 142.12289156627958,109.12715771247167 142.7734939758957,109.4242561930223 144.08915662651998,110.55322377695848 144.7686746988329,111.02857540299738 145.11566265061265,111.48411896176549 145.30361445783637,111.66237467084284 145.44819277111674,111.78121166460915 145.80963855423033,111.90004854184372 146.09879518070375,112.05849753018992 146.50361445784802,112.3753948854719 147.03855421688058,112.87054534433992 147.4289156626328,113.12802278353047 148.45542168678367,113.88064600795042 149.58313253015513,114.65307024704816 150.33493975905003,115.06898895224731 150.92771084338892,115.42548956353858 151.1301204819465,115.58393394304585 151.83855421686894,115.96023851437349 152.2144578313455,116.21770939000271 152.98072289157426,116.65342808733112 153.40000000002328,116.79206552623509 154.49879518072703,117.386224182359 155.95903614460258,117.96057478136936 156.55180722891237,118.17843119316967 157.07228915661108,118.45570242365648 158.02650602412177,118.75277803820791 158.33012048195815,118.87160808016779 159.08192771088216,119.28751230950729 160.71566265061847,119.98068285371119 160.97590361448238,120.0400972873831 161.84337349398993,120.3569737748403 162.32048192771617,120.63424002179818 162.9710843373614,120.85209162806132 163.66506024097907,121.14916136921966 164.09879518073285,121.38681663791067 164.48915662651416,121.54525322488189 165.24096385543817,121.76310319370532 165.920481927722,122.159193043095 166.83132530123112,122.55528159817186 167.14939759037225,122.73352102567878 168.21927710846649,123.14941200389148 168.75421686749905,123.30784628695983 169.34698795183795,123.60491000949696 171.6891566265258,124.35746818153712 172.22409638555837,124.59511715990084 172.78795180725865,124.91198173959856 173.4963855421811,125.16943360070582 174.20481927713263,125.52590450567368 175.28915662650252,125.8823743623143 175.76626506025787,126.12002035106707 176.54698795182048,126.4368809445732 176.92289156626794,126.49629221362557 177.35662650605082,126.71413328438939 177.7903614458046,126.81315182357503 178.61445783133968,127.42706496082974 178.94698795184377,127.56569007766666 179.82891566265607,127.80333276622696 181.60722891567275,128.5162580364995 181.99759036148316,128.57566828647396 182.17108433737303,128.63507850727183 182.54698795182048,128.83311236636655 182.98072289157426,129.14996586795314 183.83373493980616,129.46681854130293 184.3108433735324,129.58563808025792 185.38072289156844,130.1599308769146 186.58072289158008,130.65500869017706 187.0,130.8728422875356" stroke="#4dd2ff" stroke-linecap="round" stroke-linejoin="round" stroke-width="0.5"><title>2022-08-17 4.3km</title></polyline><polyline fill="none" points="58.14156368831755,158.48401048970118 58.015798948763404,158.5988570474292 57.28217130104895,158.6275686750887 56.94679866210208,158.71370353008388 56.82103392246063,158.91468469408574 56.69526918287738,159.4602038377925 56.54854365333449,159.51762680696265 55.83587679557968,159.63247268919076 55.54242573646479,159.7473184963601 55.37473941699136,159.94829847828078 55.290896257269196,160.12056685127027 55.18609230758739,160.7235048268485 55.08128835790558,160.8670611828129 54.997445198183414,160.8957724399661 54.200935180619126,160.83834992101765 53.38346437324071,160.6660822516278 52.83848383493023,160.8096386545658 52.398307246301556,161.01061742154707 52.25158171672956,161.01061742154707 51.47603248915402,160.52252573151782 51.26642458984861,160.43639176318538 50.910091160883894,160.4938144133921 50.78432642130065,160.43639176318538 50.59567931192578,160.32154640633962 49.71532613466843,159.86216422847065 49.33803191583138,159.83345280244248 49.17034559638705,159.94829847828078 47.7869334606803,162.70457218204683 47.17907055254909,164.08269282308174 46.235835005529225,166.83890168488142 45.795658416929655,167.87246886390494 45.69085446721874,168.3318301034742 45.54412893767585,168.70506022653717 45.39740340816206,168.99215978189022 45.27163866857882,169.13570938358316 44.93626602960285,169.2218390883936 44.72665813023923,169.33667862914444 44.64281497048796,169.45151809482195 44.370324701361824,169.99700453200785 44.01399127248442,171.08797232715006 43.78342258319026,171.57603467459558 43.46901073420304,172.32248034895747 42.81922624621075,174.18858066505345 42.4419320274028,175.02114210638683 42.29520649785991,175.71015548905416 42.33712807772099,176.91592240902537 42.23232412803918,177.31784287752816 39.69606854597805,183.6623227907985 39.44453906675335,184.4948393564846 39.04628405801486,185.4708882394334 38.64802904924727,186.61917410366004 38.0611269310466,187.96840040831012 37.704793502169196,188.94443000244792 37.4532640229736,189.46114935808873 37.39038165315287,189.5185625260783 37.327499283332145,189.66209536400856 36.78251874507987,191.1835362396232 36.67771479539806,191.6141303229233 36.111773467157036,193.22167224703298 35.168537920108065,195.5181352072541 34.60259659183794,197.26916805424844 34.0785768435162,198.24514600486145 33.93185131397331,198.35996658400109 33.575517885095906,198.44608196908666 33.40783156562247,198.61831261277257 33.19822366622975,199.22111853661772 32.380752858822234,201.17304734388017 31.814811530610314,202.952728248536 31.374634941952536,203.8999704151065 30.976379933214048,205.04813589500554 30.829654403642053,205.24906408293464 30.389477815042483,205.3064720944676 29.404320688103326,205.19165605264425 26.344045357691357,204.70368703841814 25.820025609311415,204.73239113560703 24.834868482343154,204.9046156200784 24.20604478433961,205.07683993587852 22.759750278870342,205.9379589838063 22.298612900282023,206.3972207511979 21.900357891543536,206.91388880531304 21.858436311682453,207.0 22.068044211016968,206.85648131872586 22.4872600097151,206.2824054218072 22.96935817823396,205.823143354457 24.247966364200693,205.04813589500554 24.8558292723028,204.84720747738902 25.589456920017255,204.70368703841814 26.42788851741352,204.70368703841814 27.685535913478816,204.818503398943 29.25759515853133,205.07683993587852 30.3475562351814,205.19165605264425 30.74581124391989,205.19165605264425 30.934458353323862,205.07683993587852 31.31175257213181,204.0147873005917 31.626164421177236,203.3258848629048 31.814811530610314,202.72309301527275 32.50651759846369,200.91470506973565 33.47071393538499,198.6757227898197 33.68032183471951,198.44608196908666 34.09953763347585,198.21644084835134 34.20434158309945,197.9867994276574 34.413949482433964,197.38398927089293 34.97989081070409,195.97742419897986 35.31526344968006,195.259784622016 37.034048224275466,190.49458351239446 37.59998955251649,189.17408323702693 39.42357827682281,184.32259487331612 39.84279407552094,183.37524719869543 40.49257856345503,181.71019951773633 40.995637521875324,180.2748009256029 41.70830437971745,178.49489039064792 42.23232412803918,176.91592240902537 42.253284917998826,176.68625315731333 42.190402548148995,175.8536996037583 42.211363338137744,175.59532011282863 42.46289281730424,174.87759731168626 42.81922624621075,174.13116248926963 42.98691256571328,173.55697969942412 43.25940283481032,172.9253764639143 43.65765784360701,171.6621631834132 44.47512865104363,169.4802279495052 44.663775760447606,169.13570938358316 44.894344449741766,168.99215978189022 45.208756298728986,168.934739908349 45.292599458480254,168.8773200159485 45.37644261820242,168.73377020315093 45.64893288741587,168.07343955403485 45.92142315657111,167.52794714631455 46.55024685454555,165.7766179722821 46.990423443203326,164.80045971028449 47.17907055254909,164.14011428192316 47.51444319152506,163.4223446977703 47.765972670778865,162.70457218204683 48.2899924191006,161.55613005904888 48.541521898354404,160.8670611828129 49.48475744537427,158.97210784160416 49.84109087425168,158.42658718269377 50.469914572284324,157.30682894593338 51.47603248915402,155.124715471713 51.895248287852155,154.29205976682715 52.23062092679902,153.71781215435476 52.54503277584445,153.0" stroke="#4dd2ff" stroke-linecap="round" stroke-linejoin="round" stroke-width="0.5"><title>2022-08-16 5.3km</title></polyline><polyline fill="none" points="119.52738574511022,153.0 119.27090664880234,153.57488635217305 119.1543252413685,154.0539570208639 119.03774383393466,154.3094608973479 118.87452986347489,154.37333681432938 117.89524604109465,154.5330265153898 117.66208322622697,154.6927160860796 117.59213438176084,154.94821912772022 117.61545066320105,155.55503751336073 117.56881810023333,155.7786017069011 117.42892041135929,155.9063525598758 117.26570644095773,155.93829026001913 116.96259478162392,155.93829026001913 116.54290171485627,155.8744148544065 116.14652492958703,155.9063525598758 115.4936690479226,155.58697527091135 115.35377135899034,155.61891302335425 114.74754804035183,155.8744148544065 114.35117125508259,156.0660410086275 114.25790612911806,156.03410332926433 113.32525486970553,155.49116198252887 113.11540833633626,155.427286430815 112.71903155097971,155.52309975058597 112.46255245464272,155.427286430815 111.32005466186092,154.7885297658504 110.94699415803188,154.6927160860796 110.78378018763033,154.82046764859115 110.45735224679811,155.55503751336073 110.20087315046112,155.93829026001913 109.5713335503242,157.50323117761582 108.68531485382118,159.19590827063075 106.86664489787654,164.3377242753195 106.54021695704432,164.91257728695928 106.35368670514436,165.04032217110216 105.9339936383767,165.16806697177526 105.74746338647674,165.4874286083068 105.14124006783823,167.43552329328668 104.69823071960127,168.2977885135624 104.60496559363673,168.64908066111093 104.34848649729975,169.19198546568805 104.25522137136431,169.54327600657416 103.99874227499822,170.11811371168005 103.83552830459666,170.6929497266683 103.32257011183538,171.74681136428262 103.20598870445974,172.38551262236433 103.1127235784952,173.79064804542577 102.85624448210001,174.589015945734 102.13343975605676,176.24961073529266 101.50390015591984,177.94212552608224 100.75777914834907,180.17749996471684 100.19818839262007,181.48677883872006 99.40543482208159,183.65824642225925 98.3328858736786,186.21288329156232 98.12303934036754,186.81960464298027 97.93650908840937,187.49018920942035 97.70334627354168,188.19270390743623 96.65411360666621,190.71534951731155 96.46758335476625,191.2901249770075 95.81472747313092,192.91864627046743 95.27845299898763,194.35556555977382 94.81212736922316,195.6966807025019 94.13595520608942,197.2613034099777 93.97274123568786,197.4528890035872 93.62299701338634,197.61254352150718 93.45978304298478,197.7083361697296 93.31988535405253,197.96378300210927 92.76029459838173,199.43259581223538 92.57376434648177,199.81576255684195 91.89759218337713,201.5400036159117 90.94162464243709,204.1901963402488 90.52193157566944,205.05229948388296 90.38203388673719,205.18001814487798 90.10223850890179,205.21194779705547 85.46229849307565,204.50949424407736 84.62291235954035,204.5733537622 84.2032192928018,204.63721325954248 83.55036341110826,204.79686191161454 83.13067034439882,204.9565104334324 81.68506089222501,205.7547510870354 81.33531666992349,206.01018740799918 80.47261425486067,207.0 81.33531666992349,206.01018740799918 81.89490742559428,205.5631736272917 82.85087496656342,205.05229948388296 83.9234239149373,204.66914300042845 84.43638210764038,204.5414240057289 85.53224733754178,204.47756447711436 86.55816372294794,204.5733537622 89.93902453850023,205.0842291569861 90.4286664497049,205.05229948388296 90.54524785716785,205.02036980557023 90.61519670160487,204.9245807394327 91.92090846487554,201.38035230468086 92.29396896864637,200.10313712255447 92.62039690944948,199.33680400875164 93.34320163555094,197.80412877097842 93.52973188745091,197.61254352150718 93.97274123568786,197.3570962302183 94.15927148758783,197.16551054282172 94.6255971173232,196.0159924759937 95.39503440642147,193.97238811512943 95.72146234719548,192.98250957434357 97.07380667340476,189.50192910926125 97.79661139950622,187.49018920942035 98.47278356261086,185.92548831010936 98.8458440664399,184.87170309705834 99.1489557257737,184.23304262800957 99.75517904444132,182.60444898935384 99.89507673328626,182.09351485605293 100.24482095564599,181.13550975752878 101.01425824471517,179.31528713770967 101.22410477808444,178.64467453233374 102.48318397838739,175.57898761425167 103.04277473405818,173.98225663878839 103.13603985999362,173.63097407409805 103.13603985999362,173.31162574034533 103.04277473405818,172.51325262367027 103.0894072970259,172.09809731450514 103.25262126736925,171.6510059957218 103.81221202309825,170.5652085361071 103.99874227499822,170.0223075448157 104.16195624539978,169.25585652005975 104.5117004677013,168.39359552544192 104.67491443813196,167.78681699026492 105.39771916420432,166.12615031613677 105.72414710494922,165.2638755175576 105.88736107540899,165.008385957859 106.4935843940766,164.7209598041809 106.63348208300886,164.52934213369736 106.79669605341041,163.98642438059323 107.51950077948277,162.26185210447875 107.96251012774883,161.04825508657086 108.21898922408582,160.50532766563992 109.10500792055973,158.30166559487407 110.7138313431642,154.66077818234044 110.78378018763033,154.5330265153898 110.97031043950119,154.43721271042887 111.48326863220427,154.72465398453642 111.8330128545058,154.98015698450035 112.06617566937348,155.0440326822427" stroke="#4dd2ff" stroke-linecap="round" stroke-linejoin="round" stroke-width="0.5"><title>2022-08-14 5.0km</title></polyline><polyline fill="none" points="175.93779063160764,153.0 175.6190348189848,153.10075947597215 174.6872870590014,153.10075947597215 174.34401156849344,153.23510536705726 174.270452534809,153.30227827966155 174.09881478955504,153.83966079026868 173.87813768847263,154.14193783527298 173.63294090950512,154.30986933482927 173.093507995829,154.37704189623764 172.62763411583728,154.5113869531633 172.43147669264,154.67931815101474 172.35791765898466,154.8472492115834 172.2353192695009,155.5525581680413 172.16176023581647,155.65331639292708 171.94108313479228,155.72048851534782 171.47520925480057,155.68690245682956 170.8622173074109,155.75407456830726 170.3718237495341,155.51897208216542 170.1511466484808,155.48538599080348 168.97420210952987,155.92200475101708 168.70448565264815,155.85483269432734 167.74821821477963,155.2502831973543 167.11070658947574,155.2502831973543 165.71308494952973,154.34345561823284 165.46788817059132,154.27628304585232 165.32077010319335,154.34345561823284 165.24721106950892,154.4778006972192 165.02653396845562,155.0823524659645 164.2909436315822,156.5265522726113 163.01592038109084,159.2134086375445 162.57456617898424,160.55682365142275 161.83897584216902,162.47117487803916 161.42214131797664,163.51230578072136 160.8581887263863,165.05719998426503 160.71107065898832,165.22512256764458 160.31875581265194,165.32587605192384 160.2206771010824,165.3930450140033 160.0245196779142,165.6617206427909 159.7793228990049,166.3669924978749 159.19085062950035,167.87828118301695 158.94565385050373,168.34845761924225 158.77401610530796,168.8858008012321 158.57785868213978,169.3895587587176 158.4307406147418,169.96048295173387 157.81774866738124,171.33741124736844 157.25379607582,172.7479135980684 157.20475671999156,173.05016284289013 157.15571736422135,174.46065344325325 156.3465679937217,176.84503221462364 155.95425314738532,177.78534300056344 155.19414313262678,179.86744443682255 154.60567086320953,181.07639688528434 154.04171827161917,182.28534222512098 153.72296245893813,183.35995433747303 153.52680503579904,183.79651390368235 153.2325689010613,184.9046994090022 152.86477373263915,185.77781105494068 152.5214982421021,186.78524296225805 151.88398661685642,188.46428517217282 151.5897504821187,189.06873701117001 150.9522388568439,190.71418023730803 150.38828626525356,191.95664904984005 149.87337302949163,193.60206916557217 149.50557786104036,194.47514388000127 149.18682204841753,195.48253317479976 148.62286945685628,196.85929056275927 147.86275944209774,199.00835684058256 147.74016105261398,199.24340960205882 147.64208234107355,199.34414641761396 147.02909039368387,199.64635656807513 146.8574526484008,199.88140860022395 146.6122558694915,200.55298435443547 146.1463819894998,201.59392243888578 145.82762617684784,202.56769845707458 145.36175229682704,203.7093610196025 144.96943745049066,204.78386117055197 144.06220936839236,207.0 144.20932743576122,206.39560086961137 144.92039809474954,204.64954895873962 145.63146875365055,202.43338479765225 146.73485425885883,199.7806720479275 147.0536100715981,199.4448831837508 147.49496427367558,199.20983065260225 147.71564137469977,199.04193582301377 147.9853578315815,198.2360387325316 148.52479074525763,197.09434578088985 149.03970398107776,195.71758996674907 149.50557786104036,194.17292612910387 150.2411681978556,192.19170987252437 150.7315617557906,191.04998335940763 151.44263241472072,189.0015757834626 152.42341953053256,186.78524296225805 153.33064761263086,184.06516548378568 154.28691505055758,181.8151976599038 154.3114347284427,181.58012497423624 154.5566315073811,180.841323354849 155.31674152211053,179.02788994298317 155.66001701261848,178.42340858462558 155.7090563684469,178.0875848397991 155.9052137916151,177.58384819419007 156.10137121478328,176.84503221462364 156.49368606111966,176.03904811808025 157.0331189747376,174.66215131047647 157.13119768636534,174.158406272094 157.08215833056602,173.0165796153742 157.18023704213556,172.44566390904947 157.2783157537051,172.24416386945813 157.57255188847193,171.80757977280882 157.86678802315146,171.2030771854479 158.4307406147418,169.3895587587176 158.79853578322218,168.34845761924225 159.0927719179017,167.87828118301695 159.3379686968401,167.17301451250387 159.80384257689002,165.59455176856136 159.95096064422978,165.35946053566295 160.07355903368443,165.22512256764458 160.53943291373434,165.0236154510785 160.6620313032181,164.9228618186171 160.76011001475854,164.7549389883061 161.27502325057867,163.54589056079567 161.93705455373856,161.66513442905853 162.79524328000844,159.6836048909754 163.1630384484888,158.64245459831727 163.89862878527492,156.8959971051081 165.17365203579539,154.44421443564352 165.32077010319335,154.30986933482927 165.51692752630333,154.34345561823284 165.8847226947837,154.44421443564352 166.3015572190052,154.7464905916422 167.03714755584951,155.04876630326908 167.18426562318928,155.0823524659645 167.77273789269384,154.94800778206263 168.94968243161566,155.48538599080348 170.10210729265236,155.14952477495535 170.8376976294967,155.41821379144676 171.35261086528772,155.41821379144676 171.9656028127065,155.61973032340757 172.30887830321444,155.61973032340757" stroke="#4dd2ff" stroke-linecap="round" stroke-linejoin="round" stroke-width="0.5"><title>2022-07-26 4.5km</title></polyline><polyline fill="none" points="54.94047677452909,214.17691077121708 54.20061290866579,214.11152702115942 53.74714795866748,214.2096026383224 53.67554822965758,214.30767820749315 53.69941480603302,214.6019046263682 53.67554822965758,214.7653635610186 53.60394850073499,214.9288223622716 53.50848219549516,215.05958930708584 53.365282737562666,215.1249727474351 52.744751753343735,215.15766445954796 52.43448626121972,215.32112294020772 52.219687074335525,215.5826562316215 52.10035419280757,215.77880597588955 51.981021311163204,216.49802005950187 51.88555500592338,216.62878597881354 51.79008870065445,216.66147744533373 51.33662375059794,216.66147744533373 50.549026732187485,216.53071154738427 50.28649439266883,216.43263706789003 50.00009547683294,216.23648796457564 49.78529629003606,216.20379642868647 49.45116422162391,216.39994556397141 49.04543242423097,216.53071154738427 48.75903350839508,216.6941689064406 48.59196747417445,216.6941689064406 48.18623567678151,216.43263706789003 47.49410496355267,216.07303023157874 47.350905505678384,216.04033866900136 46.945173708256334,216.1711048874131 46.70650794511312,216.10572178887378 45.7995780450583,215.4191979645111 45.441579400299815,215.2230478678539 45.15518048449303,215.2230478678539 45.03584760290687,215.32112294020772 44.63011580548482,216.46532856635167 44.05731797390035,217.41337970008317 42.95945546333678,219.83252430779976 41.74226007112884,223.29773455220857 41.00239620532375,225.16107751590607 40.64439756056527,225.7821879813855 40.548931255267235,225.8475679182302 40.214799186825985,225.91294783366902 40.047733152634464,226.0763975289883 39.832933965779375,227.0570928971283 39.474935321020894,227.87433536583558 39.30786928682937,228.36467924505996 38.90213748943643,229.1492269526061 38.63960514991777,229.96646087728732 37.70880867357482,232.15663133803173 37.4701429104025,232.77772009115142 37.398543181450805,233.2680519557034 37.279210299864644,234.90248282745597 37.207610570883844,235.16399052811903 36.2052143655892,237.4848563975538 35.34601761813974,239.93644604117435 34.510687447094824,241.86500878880906 34.08108907335554,243.17249838568387 33.556024394376436,244.44729251823446 32.88776025749394,246.24506531492807 32.60136134168715,247.16028889888548 32.31496242585126,247.78133109021292 32.12402981534251,248.3369987856713 31.57509856004617,249.54638784863346 31.217099915345898,250.55965413978265 30.88296784690465,251.37680063789594 30.501102625828935,252.3900576619344 30.33403659160831,253.07645466690883 30.214703709963942,253.43599501576682 29.928304794215364,254.0897030861961 29.54643957313965,255.13563155777229 28.97364174152608,256.57377428148175 28.042845265124924,258.7963381650479 27.82804607824073,259.0904991825373 27.32684797560796,259.38465976776206 27.18364851770457,259.58076658428763 26.70631699138903,260.75740344874794 26.300585193996085,262.0320855794853 24.391259088588413,266.803900452549 24.367392512300285,267.0 24.43899224125198,266.93463350553066 24.606058275472606,266.2809673867596 25.32205556498957,264.15653775758983 25.82325366762234,262.8491852396255 25.96645312552573,262.3262418414233 26.300585193996085,261.6725606722175 26.491517804563046,261.05156158407044 26.82564987297519,260.1690858811926 27.040449059772072,259.5480821282399 27.32684797560796,259.2212372737704 27.851912654587068,258.92707644843904 27.971245536173228,258.8290227439429 28.138311570393853,258.4694920830225 29.06910804679501,256.18155456351815 29.522572996793315,254.84146472768043 30.35790316789644,252.6842280951969 30.930700999480905,251.0499424389709 31.360299373220187,250.00399261532584 31.670564865285996,249.38295732124243 32.147896391688846,247.87939020743943 33.126426020724466,245.42789786384674 33.627624123357236,243.92430103597871 34.03335592072108,242.87831397114496 34.82095293921884,241.08051093050744 35.58468338137027,238.8577502979897 35.96654860241688,238.04055268225784 36.84961192612536,235.78506994777126 37.207610570883844,234.67366330903315 37.23147714723018,234.28140066866763 37.159877418278484,233.85644860731554 37.159877418278484,233.36611818452366 37.183743994595716,232.84309774251597 37.80427497881465,231.53554065727803 38.04294074198697,230.81638061857666 38.949870642012684,228.6588849957625 39.37946901578107,227.41667999447964 39.64200135524152,226.8282644078281 39.88066711835563,226.1744672821369 40.07159972892259,225.97832772789116 40.572797831642674,225.74949800498143 40.69213071317063,225.58604804261995 41.1933288158325,224.18037285574246 41.50359430795652,223.42849602803471 41.86159295277321,222.6766163752618 42.57759024229017,220.97670413747255 42.9833220395667,219.7998333593423 43.65158617650741,218.26335275976453 43.93798509231419,217.7076015524217 44.534649500244996,216.26917949509516 44.94038129760884,215.48458128735365 45.083580755541334,215.28843125479762 45.27451336607919,215.19035616633482 46.27690957140294,215.77880597588955 46.921307131968206,215.97495552773762 47.30317235304392,215.87688077584608 47.446371810976416,215.87688077584608 47.54183811621624,215.90957236511167 47.89983676094562,216.1711048874131 48.44876801624196,216.39994556397141 48.63970062675071,216.39994556397141 49.02156584785553,216.1711048874131 49.809162866324186,216.00764710109797 50.477427003206685,216.3672540547268 50.90702537694597,216.26917949509516 51.33662375059794,216.3345625402144 51.90942158224061,216.23648796457564 52.1242207690957,216.10572178887378 52.17195392170106,215.97495552773762 52.219687074335525,215.77880597588955 52.219687074335525,215.28843125479762 52.31515337963356,215.09228102986526 52.62541887172847,214.9288223622716 53.198216703371145,214.8961306127312 53.60394850073499,214.79805533199396 53.79488111130195,214.6999800032645 54.15287975606043,214.2749863564095 54.67794443501043,213.84999180691375 55.39394172449829,213.71922407159582 55.465541453508195,213.55576428232598 55.41780830084463,213.26153632513888 55.44167487716186,213.19615227587929 55.63260748772882,213.0" stroke="#4dd2ff" stroke-linecap="round" stroke-linejoin="round" stroke-width="0.5"><title>2022-07-25 4.6km</title></polyline></svg>