<?xml version="1.0" encoding="utf-8" ?>
<svg baseProfile="full" height="300mm" version="1.1" viewBox="0,0,200,300" width="200mm" xmlns="http://www.w3.org/2000/svg" xmlns:ev="http://www.w3.org/2001/xml-events" xmlns:xlink="http://www.w3.org/1999/xlink"><defs /><rect fill="#222222" height="300" width="200" x="0" y="0" /><text fill="#FFFFFF" style="font-size:12px; font-family:Arial; font-weight:bold;" x="10" y="20">Over 4km Runs</text><text fill="#FFFFFF" style="font-size:4px; font-family:Arial" x="10" y="280">ATHLETE</text><text fill="#FFFFFF" style="font-size:9px; font-family:Arial" x="10" y="290">ChiZhang9797</text><text fill="#FFFFFF" style="font-size:4px; font-family:Arial" x="120" y="280">STATISTICS</text><text fill="#FFFFFF" style="font-size:3px; font-family:Arial" x="120" y="285">Number: 12</text><text fill="#FFFFFF" style="font-size:3px; font-family:Arial" x="120" y="290">Weekly: 2.4</text><text fill="#FFFFFF" style="font-size:3px; font-family:Arial" x="141" y="285">Total: 58.5 km</text><text fill="#FFFFFF" style="font-size:3px; font-family:Arial" x="141" y="290">Avg: 4.9 km</text><text fill="#FFFFFF" style="font-size:3px; font-family:Arial" x="167" y="285">Min: 4.1 km</text><text fill="#FFFFFF" style="font-size:3px; font-family:Arial" x="167" y="290">Max: 6.0 km</text><polyline fill="none" points="42.935428329510614,84.02892602725478 42.73298499640077,84.06854058642057 42.675144044158515,84.82121597969672 42.559462139499374,85.13813123569707 42.3280983302393,85.17774561364786 41.17127928411355,85.0985168513871 40.99775642727036,84.94005924921657 40.99775642727036,84.62314373419213 41.43156356952386,83.19701879094646 41.576165950275026,82.88010099768871 41.86537071177736,82.52356798520486 42.2413369017886,82.20664931186184 43.60059928102419,81.33512082396192 45.1623049932532,80.46358920338389 45.769634992524516,80.18628303069272 46.43480594397988,80.02782221836969 47.562704513955396,79.94859177326725 48.89304641704075,79.98820699907083 50.3101497485186,79.79013080547156 50.88855927152326,79.8297460571921 51.58265069924528,79.94859177326725 51.84293498459738,79.86936130232061 52.21890117460862,79.55243915969913 52.82623117376352,78.64128569184686 52.912992602272425,78.3243619438872 52.912992602272425,78.04705332465528 52.82623117376352,77.61128199653467 52.652708316920325,77.0566628096567 52.59486736456165,76.73973699050839 52.50810593611095,75.5512614788604 52.56594688841142,74.56086076918291 52.50810593611095,73.64968854295148 52.074298793799244,72.89697846899799 51.78509403229691,72.10464955092175 51.38020736607723,71.23308475031808 50.25230879621813,69.09377604736073 50.07878593925852,68.57875446631806 49.934183558565564,67.90526305574167 49.731740225455724,67.35062166584248 49.38469451159472,67.0336831590248 48.748444036231376,66.7959790071036 47.12889737164369,66.9544484677026 45.1623049932532,66.99406581658695 43.571678804873955,67.31100437510759 42.44378023484023,67.15253514765936 41.286961188714486,67.31100437510759 40.36150595190702,67.27138707796985 37.498378812742885,67.46947349913535 37.006730718072504,67.42985622782726 36.42832119500963,67.19215246420936 36.25479833810823,67.11291782466287 36.19695738586597,66.99406581658695 36.1391164335073,66.12248264419031 36.023434528906364,65.80554253197624 35.676388815103564,65.44898441033729 35.09797929204069,65.17166106440709 32.871102628239896,65.13204341770324 32.26377262902679,65.01319043867989 31.28047643980244,64.65663115175266 30.759907869098242,64.57739568366378 29.574168346822262,64.57739568366378 28.73547453840729,64.69624887622194 28.47519025299698,64.65663115175266 28.330587872187607,64.53777793960762 28.18598549143644,64.22083575582656 28.128144539077766,63.666185937050614 27.781098825333174,62.3191739514441 27.75217834918294,61.32871918751334 27.43405311141396,60.338260377320694 27.318371206871234,59.58550897522946 27.144848349969834,58.83275523588236 27.087007397669367,58.23847431714239 27.17376882606186,57.56495418137638 27.144848349969834,57.04990810921299 27.144848349969834,56.89143217462697 27.289450730721,56.65371807840711 27.983542158384807,55.980193540031905 28.533031205297448,55.02933218277758 29.02467929990962,54.51428072374256 29.92121406062506,53.919989218964474 31.07803310675081,53.56341361689556 31.71428358211415,53.0087394156144 31.88780643901555,52.77102151227882 32.03240881982492,52.41444422022323 32.03240881982492,51.66166821465595 32.09024977206718,51.344709197292104 32.495136438228656,50.27496945409803 32.81326167593943,49.680667557098786 33.01570500899106,49.363705949726864 33.27598929434316,49.165604734560475 34.577410721278284,48.25433706026524 34.89553595898906,47.89775312470738 35.01121786358999,47.6204097012087 34.98229738738155,47.382686514174566 34.92445643513929,47.22420426008466 34.63525167357875,46.90723944088677 33.10246643749997,46.194067082571564 32.66865929518826,45.877100916564814 32.46621596213663,45.63937602004444 32.26377262902679,45.20354643769679 32.5240569144371,44.292263869952876 32.40837500983616,44.01491632156831 32.20593167678453,43.856431865729974 31.020192154450342,43.49984146129282 30.8177488213405,43.38097787652805 30.73098739294801,43.103629285571515 30.759907869098242,42.7074164624064 30.90451024984941,42.46968845756783 31.598601677455008,41.55839561286848 33.507353103603236,38.70563064755697 33.94116024591494,38.19054450633121 34.490649292769376,37.63583513037884 34.60633119742852,37.43772433120466 34.664172149728984,37.16036894056015 34.69309262582101,36.843390962691046 34.60633119742852,34.664156144397566 34.490649292769376,33.0 34.54849024512805,33.832079500265536 34.519569769036025,34.86226921022171 34.577410721278284,36.52641257025243 34.54849024512805,37.199991158704506 34.403887864376884,37.55659083017963 33.767637388955336,38.428276707520126 33.680875960562844,38.82449652477226 33.680875960562844,39.10185001134232 33.70979643665487,39.29995945050905 33.79655786510557,39.418825036103954 34.056842150574084,39.65655603277264 35.64746833889512,40.72634263249347 36.775366908928845,41.63763860501058 37.46945833659265,42.03385317664652 38.655197858810425,42.54893115173036 38.8865616680705,42.826280377295916 39.34928928647423,43.89605298933748 39.69633500033524,44.41112700779922 40.99775642727036,45.28278823812434 41.89429118804401,46.35255001018231 44.844179755600635,48.25433706026524 45.27798689791234,48.84864245374047 45.88531689712545,49.363705949726864 46.23236261087004,49.87876835136558 46.43480594397988,50.07686898356769 48.025432132417336,50.98812980737421 48.71952356008114,51.30508929102507 49.32685355923604,51.42394899051578 50.13662689155899,51.82014756796707 50.367990700819064,52.01824661390856 50.39691117691109,52.137105963833164 50.281229272310156,52.374824488768354 49.76066070160596,53.20683749031741 47.736227370915,57.08952707663411 47.186738323944155,58.040380353835644 46.955374514800496,58.555424321850296 46.11668070626911,59.86283871102205 44.95986166014336,62.47764633834595 43.97656547097722,64.37930689957284 43.13787166256225,65.80554253197624 42.81974642485147,66.55827462201705 42.53054166334914,66.9544484677026 41.836450235685334,67.46947349913535 41.25804071262246,68.61837154980458 39.754175952635705,71.27270140011387 38.53951595420949,73.76853728847345 37.55621976504335,75.27394968792214 36.052355005114805,78.08666886112769 35.6185478628031,79.15628589870175 34.95337691123132,80.26551339820435 34.43280834046891,81.25589080597274 34.143603579024784,81.73127052492055 33.680875960562844,82.95933048486768 32.90002310433192,84.50430030944699 32.784341199789196,84.97967365955992 32.784341199789196,85.2569743500062 32.84218215208966,85.3758174059767 33.8254783412558,85.81157477959641 34.664172149728984,86.00964605413901 35.416104529751465,86.00964605413901 36.60184405196924,86.64347304558032 37.58514024113538,86.64347304558032 38.221390716556925,86.56424476215034 38.481675001909025,86.60385890709586 38.85764119186206,86.88115774009202 39.66741452424321,86.88115774009202 40.13014214258874,87.0 40.73747214191826,86.96038591986871 40.82423357031075,86.88115774009202 41.08451785566285,86.40578811794694 41.11343833187129,86.0492602896993 41.026676903362386,85.41543174497201 41.05559737957083,84.94005924921657 41.14235880802153,84.38545682620315 41.54724547412479,83.03855994611513 41.86537071177736,82.56318279022526 42.675144044158515,81.81050038743706 43.68736070947489,81.2955058182124 44.78633880324196,80.54281948017888 46.14560118247755,79.86936130232061 47.12889737164369,79.75051554739184 47.649465942406096,79.8297460571921 47.67838641855633,79.94859177326725 47.649465942406096,80.02782221836969 47.215658800210804,80.82012524497986 47.215658800210804,81.13704573066207 47.302420228603296,81.65204063647252 47.273499752394855,82.08780470243073 47.12889737164369,82.36510870026541 46.724010705482215,82.64241238105751" stroke="#4dd2ff" stroke-linecap="round" stroke-linejoin="round" stroke-width="0.5"><title>2022-08-29 5.1km</title></polyline><polyline fill="none" points="112.97072274418315,43.70925800487748 112.91461291254382,43.70925800487748 112.67147030882188,44.016690018441295 112.46573425954557,44.50345614062098 112.29740476465668,44.759648229621234 112.12907526979689,44.86212494803476 111.56797695351997,44.88774411714985 111.32483434982714,45.06707818385621 111.19391140938387,45.2976502540987 111.13780157774454,45.73317435043282 111.04428519165958,45.86126944269927 110.95076880566194,45.91250745029538 110.80114258793765,45.91250745029538 110.44578032102436,45.81003141839756 110.01560494521982,45.83565043263661 109.49191318335943,45.65631724488048 109.11784763919422,45.75879337724473 108.74378209502902,45.91250745029538 108.63156243177946,45.93812644787249 107.71510184853105,45.528221985150594 107.22881664114539,45.528221985150594 106.3684658895072,44.96460159946582 106.12532328578527,44.86212494803476 105.90088395931525,44.86212494803476 105.71385118720355,44.99022075183166 105.6203348012059,45.11831645105849 105.11534631653922,46.348029839020455 104.32980867379229,47.91077668823709 103.41334809060208,50.26767690599081 103.28242515012971,50.75442362460308 103.05798582363059,51.369259425395285 102.44077767571434,52.855102658606484 102.27244818082545,53.11128110354184 101.9731957455515,53.18813455538475 101.8235695278272,53.29060576595657 100.85099911296857,55.51933802991698 100.3647139055829,57.00514194226707 100.08416474741534,57.748038619567524 99.84102214372251,58.260379105166066 99.72880248050205,58.593399523277185 99.65398937163991,59.05450355006906 99.71009920327924,60.0535576238326 99.61658281722339,60.437807495953166 99.14900088703143,61.564935022979626 98.99937466933625,62.026030312874354 98.56919929353171,63.076297856954625 98.21383702661842,63.896013979872805 97.50311249261722,65.74035959153844 97.29737644334091,66.20144260548113 96.66146501826006,68.04576110582275 96.49313552337117,68.42999139685708 95.68889460343053,70.65850852198491 94.43577503043343,73.70665883061884 92.58415058680112,78.72701255767606 92.41582109188312,79.0343759329844 92.28489815143985,79.18805739469826 91.94823916172027,79.31612516450696 91.79861294399598,79.46980635021464 91.05048185563646,81.3651952597429 90.48938353941776,82.9275932200544 89.87217539153062,84.41313750295376 89.6664393422252,84.9766161366424 89.53551640175283,85.3095798323775 89.36718690689304,85.46325514587807 89.23626396644977,85.4888676834671 85.73875112846144,84.92539088999911 85.2898724754341,84.8997782603401 84.54174138707458,84.9766161366424 84.05545617965981,85.07906657985586 83.60657752663246,85.2583546944079 82.50308417133056,85.87305524578551 81.97939240952837,86.3340790783841 81.38088753880584,87.0 81.62403014252777,86.74387690320145 81.99809568669298,86.23162945492368 82.44697433969122,85.82183029182488 83.06418248760747,85.46325514587807 83.45695130896638,85.28396726552455 84.24248895174242,85.05345397534256 85.10283970332239,84.92539088999911 85.40209213865455,84.92539088999911 88.91830825389479,85.41203005809803 89.27367052080808,85.38641750797979 89.46070329294889,85.3095798323775 89.53551640175283,85.23274211920216 90.1901311041147,83.43985145862098 90.43327370783663,82.9275932200544 90.84474580638926,81.72377977424185 91.6676900035527,79.7003278463526 91.89212933008093,79.39296577616187 92.30360142863356,79.16244382821606 92.41582109188312,79.00876234134194 93.16395218024263,76.95966146109276 93.38839150674175,76.42176804412156 93.59412755604717,75.80703045144037 94.04300620904542,74.73123386681254 94.94076351507101,72.27224253534223 95.37093889087555,71.27326629446179 96.3622125829279,68.6861444011447 96.62405846387264,68.04576110582275 97.20386005731416,66.25267396779964 97.55922232425655,65.45858597125334 98.08291408611694,64.02409423710196 98.68141895678127,62.64082192401111 99.22381399586448,61.23192091497185 99.61658281722339,60.02794093218108 99.6352860944462,59.82300724857487 99.6352860944462,59.00326983623381 100.06546147022163,57.850506850591046 100.1963844106649,57.28693075137562 100.38341718274751,56.72335262688284 100.75748272694182,55.8267468908889 101.26247121155029,54.21284364789608 101.46820726088481,53.70048993853561 101.65524003299652,53.34184134606039 101.76745969618787,53.23937016898708 102.12282196318847,53.18813455538475 102.27244818082545,53.06004544804455 102.3472612896876,52.90633838099893 102.9083596059645,51.548586079938104 103.30112842735252,50.47262307688652 103.76871035751537,49.37103425886016 104.32980867379229,47.91077668823709 105.02182993051247,46.399267687578686 105.39589547467767,45.50260292069288 106.14402656303719,43.93983207158453 106.76123471092433,42.83819735966972 107.34103630436584,41.53159731924825 108.55674932294642,39.251426072165486 109.28617713405401,37.99603673815727 109.45450662897201,37.63735222519608 109.86597872758284,37.04808302971651 110.29615410332917,36.253847131927614 110.63281309307786,35.51084861770505 110.96947208285565,34.8703298313485 111.47446056746412,34.12732476113888 111.88593266607495,33.3586951213947 111.9794490521017,33.25621088473417 112.18518510140711,33.20496874128003 112.89590963535011,33.30745301139541 113.19516207071138,33.30745301139541 114.22384231715114,33.1281054946885 116.05676348361885,33.0 116.46823558220058,33.02562110735744 116.80489457192016,33.1281054946885 116.93581751239253,33.230589815066196 117.0667404528649,33.40993721463019 117.38469616541988,34.460396434922586 118.33856330305571,36.253847131927614 118.61911246116506,36.89436026666954" stroke="#4dd2ff" stroke-linecap="round" stroke-linejoin="round" stroke-width="0.5"><title>2022-08-27 6.0km</title></polyline><polyline fill="none" points="144.69072164938552,76.03598204339505 143.82474226801423,75.78179713114514 143.76288659789134,75.86652546288678 143.6701030927361,76.3748948720604 143.5463917524903,76.58671516503091 143.36082474223804,76.67144323392131 142.49484536075033,76.88326328460244 142.37113402056275,76.79853528505191 142.24742268037517,75.73943295494246 142.71134020615136,74.63796194261522 143.02061855664942,74.17195356744924 143.51546391745796,73.53648625130882 144.9999999999418,72.4773705972475 146.48453608242562,71.58771010450437 147.62886597937904,71.20642610175128 148.3402061855304,71.20642610175128 149.144329896837,71.07933130962192 150.28865979379043,71.07933130962192 151.8659793813713,70.78277655228158 153.35051546391333,70.61331653862726 153.96907216485124,70.44385641424742 154.15463917527813,70.31676124832302 154.4020618556533,70.10493583319476 154.7422680412419,69.55418894425384 154.77319587615784,69.25763244260452 154.7422680412419,68.79161439764721 154.37113402056275,66.5038773008564 154.37113402056275,65.40236705522693 154.24742268037517,64.34321817525779 153.62886597937904,63.41116358201543 153.4742268041009,62.81803618730919 152.91752577316947,61.5046778418764 151.92783505149418,59.555811262878706 151.58762886596378,58.32717045607569 151.27835051546572,57.77639854933659 150.84536082472187,57.39509423634445 150.25773195869988,57.18325826442742 145.8041237113066,57.47982857649913 145.12371134007117,57.64929717394989 144.72164948447607,57.64929717394989 144.412371133978,57.734031431158655 143.76288659789134,57.5645628891798 143.91752577316947,56.88668761315057 144.25773195869988,56.124075809217175 144.8762886597542,55.191991669358686 145.4639175257762,54.0480656454165 145.8041237113066,53.24307763998513 146.32989690714749,52.26861513167387 146.5463917524903,51.71783035463886 147.4742268040427,49.72652178336284 148.43298969062744,48.201253810402704 149.731958762859,45.61675148321956 151.30927835043985,42.86274523966131 151.77319587621605,42.01535281763063 152.02061855664942,41.63402532420878 152.29896907211514,41.46454625813931 152.70103092776844,41.506916035097674 153.75257731956663,42.14246185756929 156.04123711341526,44.091459331990336 158.144329896837,45.532013265779824 158.97938144323416,46.5912389929581 159.41237113403622,47.01492807221075 159.69072164944373,47.184403510036645 160.21649484534282,47.269141187294736 160.52577319584088,47.39624765136978 161.91752577316947,48.582571644859854 162.6597938144114,49.3028371353721 163.37113402056275,49.895995448721806 166.30927835049806,51.84493463776016 168.0103092782665,53.24307763998513 169.03092783503234,53.96333018360019 171.22680412372574,55.234359203022905 174.16494845354464,56.71721851728216 175.2783505154075,57.47982857649913 176.63917525764555,58.07296818301256 179.6701030927943,59.59817808333901 182.57731958763907,60.69971298711607 184.37113402062096,61.5046778418764 185.97938144329237,62.013075409893645 187.0,62.43673928845965 185.2061855669599,61.84360966470558 184.15463917521993,61.37757829413749 182.70103092782665,60.78444624741678 181.18556701031048,60.06421265222889 177.9381443298771,58.75084035747568 176.6082474226132,58.07296818301256 175.0618556700647,57.39509423634445 169.95876288658474,54.3446395436622 168.9381443298189,53.83622693885991 167.70103092776844,52.98887038217799 166.18556701031048,51.67546224636317 164.57731958758086,50.700993846185156 163.06185567000648,49.68415334967722 162.56701030925615,49.260468632521224 161.70103092776844,48.28599115542602 160.463917525718,47.353878836962394 159.56701030925615,46.93019031175936 158.94845360826002,46.421763167512836 158.144329896837,45.532013265779824 156.10309278342174,44.091459331990336 153.75257731956663,42.184831523743924 152.70103092776844,41.59165556814696 152.23711340199225,41.506916035097674 151.92783505149418,41.76113455099403 151.18556701025227,43.24407092604088 149.6701030926779,45.87096596935589 148.3402061855304,48.54020302424033 148.03092783503234,48.96388891852985 146.76288659783313,51.25178078330646 145.30927835049806,54.471742539069965 144.1340206185123,56.80195307910617 143.6082474226714,57.522195736295544 142.95876288658474,57.903499862513854 141.876288659696,59.979479156507296 141.04123711335706,61.462311332827085 140.6701030927361,62.05544182895392 140.2061855669599,63.072233808241435 139.5257731958991,64.21612001887115 138.75257731950842,65.61419631204626 137.7938144329819,67.22409300845175 137.45360824733507,68.07140304417408 136.95876288658474,68.91871031123446 136.37113402056275,70.14730093012622 135.96907216485124,71.16406117800216 134.88659793813713,72.85865273111267 134.23711340199225,74.42614005767973 133.463917525718,75.56997618064634 133.12371134018758,76.41725894455158 133.0,76.75617127495934 133.12371134018758,76.96799125646066 133.52577319584088,77.0950831622904 134.97938144323416,77.85763328932808 135.9381443298771,77.89999711958808 136.463917525718,78.19654373712547 137.05154639168177,78.40836254201713 137.7319587628008,78.32363504078239 138.5979381442885,77.98472475910967 138.90721649478655,77.89999711958808 139.77319587627426,78.40836254201713 141.62886597937904,78.53545374186069 141.876288659696,78.36599879480491 141.9999999999418,78.06945237104082 142.03092783497414,77.85763328932808 141.96907216490945,76.5019870686956 142.12371134018758,75.78179713114514 142.4020618555951,74.97687659863732 142.68041237111902,74.42614005767973 142.98969072161708,74.04486022872152 143.57731958758086,73.45175715828373 144.0721649484476,73.07047589654394" stroke="#4dd2ff" stroke-linecap="round" stroke-linejoin="round" stroke-width="0.5"><title>2022-08-26 5.1km</title></polyline><polyline fill="none" points="29.31664952239953,146.86222548425576 29.18732853475376,146.92127172462642 28.885579563648207,146.98031793598784 28.080915640632156,146.8819075676074 27.491786697035423,147.0 27.204406724544242,146.9606358687597 26.52906378917396,146.70476870191487 25.46575789092458,146.37017235603707 25.33643690327881,146.2520793061849 25.250222911534365,146.13398614063772 25.207115915662143,145.87811721805338 25.235853912919993,145.6812946000864 25.379543899180135,145.28764839955693 25.508864886825904,145.05146006176074 25.85372085380368,144.53971707466553 26.08362483177916,144.12638461350434 26.35663580565597,143.4965419456712 26.77333676579292,142.39430935303244 27.13256173141417,141.76445762911317 27.434310702519724,141.41016458723607 27.72169067504001,140.99682138803473 28.238974625535775,139.85519946982822 28.51198559938348,139.40248433400848 29.02926954990835,138.39863165944553 29.474708507274045,137.67034114963462 29.57529149763286,137.4144542494978 29.589660496276338,137.2766687704716 29.56092249901849,137.21761780259112 29.402863514173077,137.1388831337972 29.058007547137095,137.1388831337972 27.69295267778216,137.29635242000222 27.204406724544242,137.29635242000222 27.017609742411878,137.2766687704716 26.93139575063833,137.1979341402257 26.845181758893887,137.06014841351862 26.802074763021665,136.58773901110544 26.787705764407292,136.52868770554778 26.70149177266285,136.41058500755025 26.50032579191611,136.37121741588635 26.11236282903701,136.37121741588635 25.824982856516726,136.31216600414336 25.36517490053666,136.05627621887106 24.373713995417347,135.76101809892134 23.770216053177137,135.70196638802736 23.49720507930033,135.72165029490134 23.123611115064705,135.8200697807988 23.008659126062412,135.8200697807988 22.850600141158793,135.70196638802736 22.80749314528657,135.58386287954636 22.635065161826788,134.6980828745509 22.635065161826788,134.14692758409365 22.505744174210122,133.71387522948498 22.39079218520783,132.78871271071694 22.419530182436574,132.15881075961806 22.477006176952273,132.00133475712937 22.89370713706012,131.52890551449673 23.109242116450332,131.09584374762198 23.48283608071506,130.7218346051086 23.770216053177137,130.48561770616652 24.287500003672903,130.34782430122868 24.459927987190895,130.26908514189563 24.574879976193188,130.17066112036264 24.704200963809853,129.99349767895183 24.7329389610386,129.87538857322215 24.704200963809853,129.42263592844392 24.761676958296448,129.166731506848 24.977211937657557,128.71397619833442 25.22148491430562,128.3596447697637 25.350805901922286,128.24153406193363 26.08362483177916,127.84783086607058 26.227314818068407,127.65097878556116 26.284790812555002,127.4738116380322 26.284790812555002,127.3557000616056 26.24168381668278,127.23758836930938 26.11236282903701,127.09979124860547 25.235853912919993,126.68639894055377 25.063425929431105,126.58797199143737 24.948473940428812,126.46985954629054 24.890997945942217,126.35174698533956 24.862259948655264,126.19426339061465 24.919735943170963,125.83992454953113 24.905366944527486,125.70212582981912 24.761676958296448,125.5643269524735 24.316238000930753,125.38715673564002 24.215655010571936,125.28872872480133 24.17254801467061,125.20998625818174 24.17254801467061,125.05250117054675 24.230024009157205,124.85564452148537 24.51740398167749,124.34381572803977 25.063425929431105,123.65481199459464 25.350805901922286,123.1429780982071 25.609447877155617,122.88706033434573 26.097993830422638,122.57208387852006 26.543432787788333,122.39490926013241 26.830812760279514,122.33585099605261 27.276251717674313,122.35553708730004 28.02343964614556,122.3161649016256 30.394324419263285,122.35553708730004 30.897239371115575,122.29647880398261 31.57258230651496,122.27679270309454 32.75084019373753,122.15867603020888 33.5986111125967,121.98150080367486 34.245216050738236,121.6665219796123 35.10735596824088,121.03656186037551 35.452211935218656,120.87907131570682 35.897650892613456,120.58377598944935 36.44367284036707,119.97349668748939 36.903480796318036,119.32384112926957 37.11901577570825,118.9497954303879 37.190860768809216,118.73324212638545 37.248336763324915,117.70953032730904 37.40639574822853,117.27641886977653 37.77998971246416,116.7645578663869 37.82309670833638,116.62674876303208 37.85183470559423,116.44956539844861 37.923679698695196,116.1345721066391 37.923679698695196,115.70145498518832 37.90931070008082,115.60301905860979 37.693775720719714,114.61865536705591 37.57882373168832,113.89022105545882 37.33455075506936,113.10271954617929 36.84600480183144,112.21677419292246 36.38619684585137,111.64582817853079 36.29998285410693,111.48832535336987 35.983864884328796,110.1692311061197 35.42347393796081,108.63355094498547 35.308521948958514,108.14134162096889 35.27978395172977,107.88539197748469 35.25104595447192,107.33411397443706 35.26541495308629,106.25123912149866 35.39473594073206,105.58182070570183 35.509687929734355,105.24711010236206 35.52405692834873,104.95177644441719 35.56716392425005,104.85333173083927 35.76832990499679,104.53830810654472 35.9263888898422,104.20359460279724 36.141923869232414,103.92794748932647 36.271244856819976,103.82950193876604 36.41493484308012,103.79012369605334 36.80289780595922,103.7113671719053 37.794358711107634,102.94348836209247 39.01572359420243,102.29374092929356 39.70543552815798,101.99840002812562 40.337671467714244,101.82119513976068 41.08485939618549,101.6636794644728 41.659619341167854,101.60461103317357 42.11942729720613,101.565232062836 43.28331618581433,101.40771605274495 43.97302811976988,101.36833701807336 45.007596020790515,101.5061635832244 46.04216392178205,101.42740556530771 46.430126884632045,101.30926844183705 46.99051783102914,101.2895789100221 47.57964677462587,101.2895789100221 48.09693072515074,101.42740556530771 49.13149862611317,101.36833701807336 49.26081961375894,101.2895789100221 49.51946158899227,101.03361470309756 50.12295953123248,100.81702917996881 51.10005143773742,100.71858108614833 51.7753943731077,100.46261566547764 52.00529835111229,100.48230533250899 52.53695130022243,100.40354664494953 52.896176265814574,100.26571881778364 53.24103223285056,100.00975243450375 53.95948216409306,99.2221601502024 54.57734910494764,98.7299123565972 55.49696501696599,97.70603050013597 56.057355963333976,96.70183022280253 56.63211590831634,94.9690727969355 57.120661861554254,93.74825145603245 57.508624824433355,93.05907265238056 57.56610081894905,93.0 57.60920781479217,93.03938177148666" stroke="#4dd2ff" stroke-linecap="round" stroke-linejoin="round" stroke-width="0.5"><title>2022-08-25 5.1km</title></polyline><polyline fill="none" points="117.28335603344021,143.58013281715102 117.07236898108386,143.48379795596702 116.61523036781,143.53196539051714 116.47457233298337,143.6764676470193 116.40424331557006,144.15814132406376 116.22842077189125,144.4953124296735 116.01743371965131,144.63981421405333 114.92733394954121,144.92881757035502 114.64601787977153,145.12148631713353 114.39986631879583,145.410489201342 114.32953730132431,145.84399299617507 114.11855024908436,146.37383010232588 113.66141163581051,146.80733248067554 113.09877949621296,147.0 111.83285718259867,146.90366625602474 110.9537444646121,146.37383010232588 110.67242839495884,146.32566313195275 108.87903845054097,146.66283175870194 108.14058376755565,146.1329951720545 107.33180006709881,145.79582593939267 106.38235833175713,145.84399299617507 105.5735746313585,145.55499053711537 104.23732330015628,144.73614869758603 104.02633624791633,144.54347969894297 103.9560072303866,144.35081057457137 103.9560072303866,144.15814132406376 104.51863936986774,142.80945304530906 105.46808110515121,141.0754161925579 106.94499047118006,137.84815378391067 108.45706434594467,135.00620688754134 109.4416705899057,133.3202932397253 110.74275741243036,130.81548944543465 111.93835070874775,128.98504244477954 113.62624712701654,125.66130699359928 114.75151140592061,123.6381453279464 115.56029510631924,122.4820467135869 116.33391429804033,122.0485085643013 116.47457233298337,121.85582473775139 118.86575892550172,116.99051637836965 120.16684574796818,114.05202392031788 121.678919622791,111.35436571080936 122.41737430577632,109.81283564990736 122.8393484102562,108.80120216630166 123.22615800623316,108.22312433132902 125.4766865639831,104.56193838326726 125.4766865639831,104.1765477435838 125.37119303783402,103.93567833775887 124.24592875887174,103.35759096086258 122.87451291910838,102.9240246845875 121.53826158790616,102.15323861810612 120.90530043101171,101.67149630319909 120.58881985262269,101.3824505363009 120.2371747653815,100.8525325608789 119.60421360860346,100.3707881202281 118.90092343417928,99.55182076408528 116.8613819287857,98.39562768192263 115.31414354534354,97.28760505578248 113.907563196728,95.89052711240947 112.53614735690644,94.83067046239739 112.18450226966524,94.20438974167337 111.76252816518536,93.19270268941182 111.65703463897808,93.0481756842346 111.51637660409324,93.0 111.16473151696846,93.09635136043653 110.77792192110792,93.38540525277494 110.28561879915651,93.96351218695054 109.65265764226206,94.8788458474155 109.05486099410336,95.55330040986883 108.70321590697858,95.84235189284664 108.38673532853136,95.98687752799015 107.78893868043087,95.6014756767836 107.36696457577636,95.6014756767836 106.52301636664197,96.42045400833013 106.34719382307958,96.7576797188085 106.17137127945898,97.38395501469495 106.62850989279104,98.78102587984176 106.59334538399708,99.21459825025522 106.27686480566626,99.64816998288734 105.78456168365665,100.03356654333766 104.65929740469437,100.6116604389681 104.30765231756959,101.0934044859896 103.39337509102188,103.69480873522116 103.32304607360857,104.1765477435838 103.35821058228612,104.85098103250493 103.11205902125221,105.47723913344089 102.8659074602765,105.8144544828101 102.37360433820868,106.19984298115014 101.14284653321374,106.39253704139264 100.5098853763775,106.63340443966445 99.13846953643952,108.12677791525493 98.54067288833903,109.04206759642693 97.66156017052708,110.10187315026997 97.52090213558404,110.4390832092613 97.48573762684828,110.67994730107603 97.59123115299735,112.26964537028107 98.04836976632942,114.96729520370718 98.08353427506518,115.97890752676176 98.04836976632942,116.70148563216208 98.11869878374273,117.13503164504073 98.4000148534542,117.90577853831928 98.50550837966148,118.5801804169314 98.4703438708093,119.30275214603171 98.25935681862757,119.6881230106228 98.08353427506518,119.88080825423822 97.69672467920464,120.12166463120957 97.1340925397817,120.2180071270268 94.91872849070933,120.16983588313451 92.31655484577641,119.54360899559106 91.4022776192869,119.39909490942955 90.27701334032463,119.39909490942955 88.97592651785817,119.59178034181241 86.47924639913253,120.410692024132 85.00233703310369,121.03691706983955 82.9627955276519,121.51862773820176 80.8529250047286,121.61496977743809 79.44634465611307,121.56679876169073 78.53206742956536,121.71131178521318 78.07492881634971,122.0966795013519 77.6529547116952,123.3009503671492 77.16065158956917,124.31253409257624 76.9848290461232,124.89058037730865 76.45736141537782,125.5649662767537 76.07055181951728,126.1911803735129 75.05078106682049,128.4070041886298 74.6991359795793,128.888702814118 74.5233134360169,129.27406114790938 75.08594557549804,127.73262479063123 76.28153887175722,125.51679590647109 76.87933551991591,124.79423940842389 77.30130962457042,124.55338684888557 80.88808951346437,124.26436351775192 83.87707275425782,124.31253409257624 85.2484885941376,124.07168113946682 87.92099125642562,123.97533990311786 91.71875819761772,123.58997464281856 94.21543831640156,123.73448667451157 97.1340925397817,123.49363324904698 99.0681405190262,123.44546254043235 100.47472086764174,123.3009503671492 101.91646572499303,123.34912109936704 103.25271705613704,123.15643812291091 105.96038422716083,123.0600965875783 107.43729359324789,122.91558422529488 109.6174931335263,122.91558422529488" stroke="#4dd2ff" stroke-linecap="round" stroke-linejoin="round" stroke-width="0.5"><title>2022-08-20 4.1km</title></polyline><polyline fill="none" points="166.63933176838327,142.78232697607018 166.57518363540294,143.17773663220578 166.3827392362291,143.39740841218736 165.5167394404416,143.39740841218736 164.45829524548026,143.57314570696326 164.13755458034575,143.83675143381697 164.04133238078794,144.01248844136717 163.88096204824978,144.71543532348005 163.68851764913416,144.93510584739852 163.49607325001853,144.979039930593 162.59799938771175,144.979039930593 162.34140685549937,145.0669080755324 162.18103652301943,145.1987102390267 161.95651805738453,145.55018235940952 161.79614772478817,146.51672832167242 161.69992552528856,146.82426494470565 161.34711079363478,147.0 159.9037778005004,146.8681987192249 159.0057039381354,146.42886065045604 158.74911140598124,146.4727944895858 157.40200061240466,146.95606624687207 157.17748214676976,146.91213248673012 156.56807488307822,146.51672832167242 156.02281575230882,146.25312522190507 155.67000102065504,146.16525746459956 155.0605937569053,146.20919134680298 154.80400122475112,146.16525746459956 152.9437053669826,145.1987102390267 152.78333503444446,145.0669080755324 152.65503876836738,144.8033035545668 152.68711283494486,144.62756706381333 153.5210385642131,143.08986787000322 154.00214956194395,141.99150591949 155.18889002298238,139.97050820846925 155.99074168584775,138.21310654788977 157.59444501146208,135.3573043529468 159.2302224037121,132.58934405000764 159.61511120188516,131.71062053510104 160.51318506419193,129.9531648903794 161.34711079363478,128.19569775901618 162.59799938771175,126.17459635730484 162.7583697202499,125.47160100436304 162.59799938771175,125.20797727315221 160.57733319728868,125.38372645605705 159.35851866973098,125.38372645605705 158.7811854725005,125.42766373383347 157.9151856765966,125.42766373383347 158.74911140598124,125.47160100436304 160.38488879817305,125.20797727315221 162.9828881857684,124.94435328347026 163.59229544957634,124.68072903543361 164.00925831426866,124.32922963582678 164.426221178961,123.71410458095488 165.5167394404416,121.78084524709266 167.18459089909447,118.1339772984793 168.4996276262682,115.71735080692451 168.94866455742158,115.01432811279665 169.2373311559786,114.31130358047085 170.55236788315233,111.71888473053696 172.18814527528593,108.86280112707755 172.28436747484375,108.64310113168904 172.31644154136302,108.29158076568274 172.09192307572812,108.02794018949498 171.6749602110358,107.85217966191703 170.55236788315233,107.54459846200189 169.75051622022875,107.14913640220766 169.0448867569794,106.57791240001097 168.0505906949984,105.91880627415958 167.6015537637868,105.30363909891457 166.89592430053744,104.6884705160046 166.57518363540294,104.20512278491515 164.87525811017258,103.1944838121126 163.81681391515303,102.4474873469735 163.11118445190368,102.05201779003255 162.14896245650016,100.99742946054903 160.64148133032722,99.98677843005862 160.28866659861524,99.50342224637279 159.87170373398112,98.58064893711708 159.71133340144297,98.31699883844703 159.454740869347,98.18517369221081 159.29437053675065,98.18517369221081 158.97362987161614,98.40488223338616 158.5887410734431,98.75641552580055 157.72274127759738,100.03071985818679 156.98503774771234,100.77772303795791 156.88881554815453,100.82166433680686 156.34355641744332,100.60195777067565 156.02281575230882,100.55801643585437 155.6058528876165,100.90954691314255 155.2851122225402,101.524724142364 155.18889002298238,101.8762533555855 155.22096408944344,102.09595888058539 155.44548255507834,102.62325140784378 155.4775566215976,102.84295632230351 155.44548255507834,103.54601084228489 155.31718628900126,103.89753741276218 155.1568159564049,104.20512278491515 154.86814935784787,104.42482640690287 154.32289022713667,104.77635182830272 153.42481636471348,105.08393619509297 152.97577943350188,105.4794012925413 152.10977963759797,107.76429935495253 152.01355743804015,108.15976050996687 152.04563150461763,108.77492115052883 151.9814833715791,109.03856099411496 151.7569649060024,109.5219000360521 151.50037237384822,109.82947897401755 151.2117057752912,110.04917799992836 149.80044684867607,110.40069606807083 149.35140991746448,110.70827400067355 147.9080769243301,112.46585543715628 146.97792899538763,113.47645956085762 146.81755866284948,113.78403397492366 146.78548459638841,113.95979062491097 146.81755866284948,114.75069412853918 146.6892623967724,115.67341194234905 146.94585492886836,117.65065373774269 147.138299327984,118.57336159981787 147.2345215275418,119.75969562676619 147.74770659167552,121.78084524709266 147.87600285781082,122.08841016190127 148.06844725692645,122.22022358916001 148.61370638769586,122.30809917117585 149.5438543165801,122.08841016190127 150.12118751381058,122.08841016190127 151.59659457334783,122.35203695154632 153.2965200986364,122.8792897555686 153.8417792293476,122.96716512253624 155.18889002298238,122.96716512253624 156.08696388534736,122.79141436013742 156.88881554815453,122.48385024958407 158.5887410734431,121.16571436222875 159.26229647023138,120.63845819811104 159.48681493586628,120.15513913927134 159.5830371354241,119.14456011806033 159.454740869347,117.65065373774269 159.51888900232734,116.94763609863003 160.1282962661353,114.97038913340657 160.4490369312698,114.355242667516 160.70562946330756,113.6082772098016 161.28296266059624,112.64161294896621 161.69992552528856,111.67494521255139 161.92444399080705,110.92797230853466 161.9885921239038,109.96129841115908 162.05274025688414,109.7415993133327 163.0791103853262,109.08250094298273 163.27155478444183,109.08250094298273 163.7526657821727,109.39008038357133 164.073406447249,109.39008038357133 164.26585084636463,109.25826066642185 164.8431840435951,108.24764068773948 165.6129616399994,107.10519613750512 167.8260722293635,104.11724128603237 168.5958498257678,103.28236561274389 169.2373311559786,102.71113339520525 169.71844215370947,102.40354631384253 169.87881248630583,102.18384104027064 169.8146643532673,101.612606488663 169.62221995415166,101.30501815053867 169.39770148857497,101.17319446938927 169.0448867569794,101.17319446938927 168.146812894498,101.74442995450227 167.50533156422898,101.92019447500934 166.89592430053744,101.8762533555855 166.79970210097963,101.65654765116051 166.9279983669985,101.3489593633276 167.53740563074825,100.55801643585437 167.8260722293635,99.67918823182117 167.9222944289795,99.32765614578966 167.85814629599918,98.75641552580055 167.72985002986388,98.18517369221081 167.40910936472937,97.74575607120642 166.89592430053744,97.21845397780999 166.76762803451857,95.46077286431682 166.79970210097963,95.32894631760428 166.89592430053744,95.02135079051368 167.3770352982101,94.31827397830784 167.50533156422898,93.9667348828225 167.66570189688355,93.79096516268328 167.98644256201806,93.61519532772945 169.42977555509424,93.30759783988469 170.16747908492107,93.2636553128541 171.06555294728605,93.43942537764087 171.93155274324818,93.79096516268328 172.2202193418634,93.79096516268328 172.47681187384296,93.70308025949635 173.3107376032276,93.0" stroke="#4dd2ff" stroke-linecap="round" stroke-linejoin="round" stroke-width="0.5"><title>2022-08-19 4.3km</title></polyline><polyline fill="none" points="59.772582530771615,153.0 59.678762447612826,153.03212814382277 59.51457730203401,153.22489689680515 59.350392156426096,153.77107400396198 59.18620701087639,153.93171404088207 58.90474676134181,154.09235394658754 58.15418609586777,154.0602259759762 57.872725846333196,154.15660987215233 57.825815804710146,154.34937752284168 57.7789057631162,154.92767934103904 57.73199572152225,155.21682961235638 57.66163065913133,155.34534070761583 57.427080451190704,155.47385171891074 57.02834509767126,155.50597945855407 55.87904907873599,155.34534070761583 54.870483184437035,155.53810719303146 54.47174783091759,155.50597945855407 52.571891146479174,155.08831843319058 51.539870231441455,154.63852864450018 51.14113487792201,154.5421449845453 50.88312964918441,154.60640076304844 50.7189445036347,154.6706565207278 50.43748425404192,154.9598071699147 50.296754129289184,155.18470182549208 50.01529387975461,156.02002257977438 49.780743671784876,156.56619192377548 48.74872275671805,158.62234526092652 48.396897444850765,159.55403266401845 47.69324682094157,161.6744082307123 46.63777088516508,164.30878239046433 46.49704076038324,164.5657926142885 46.379765656456584,164.66217136158957 45.88721021966194,164.79067628455232 45.816845157329226,164.91918112357962 45.44156482460676,166.13997290593397 44.925554367073346,167.0073729884025 44.69100415910361,167.64988910140528 44.43299893036601,168.1960261469212 43.9169884728326,169.48104850694654 43.776258348079864,170.0593058296363 43.49479809854529,170.7660624706332 43.14297278659069,171.66556724945258 43.11951776579372,172.05106803798117 43.189882828184636,172.46869303964195 43.213337848952506,172.9505669396458 43.189882828184636,173.43243965884903 43.14297278659069,173.5930636361736 42.298592037986964,175.45629218683462 41.99367676762631,176.42002416600008 41.31348116451409,177.99410957597138 41.12584099819651,178.66871375229675 40.02345502079697,181.30286028291448 39.46053452169872,182.97327638842398 39.13216423054109,183.7442328829784 38.803793939354364,184.64367830711126 38.545788710645866,185.51099678486935 37.34958265008754,188.53052016798756 36.95084729650989,189.71904325351352 36.76320713019231,190.10450865788152 36.176831610297086,191.54999719612533 34.55843517539324,195.85427793030976 34.04242471783073,197.0748777121771 33.901694593107095,197.26760330115212 33.40913915639976,197.5245704593981 33.26840903161792,197.74941644743376 32.96349376125727,198.55243573513872 32.07220297100139,200.60815017315326 31.861107783857733,201.2505565291358 31.368552347179502,202.43900275677152 30.406896494532702,204.9122326968063 30.313076411315706,205.0085916755197 30.055071182549,205.10495060698304 29.11687035075738,204.9122326968063 27.803389186155982,204.78375398511707 25.10606179467868,204.3983173466695 24.07404087969917,204.49467657708738 22.995109923067503,204.78375398511707 22.59637456954806,204.9764720211533 21.986544028826756,205.32978793006623 20.977978134644218,206.06853732552554 20.22741746919928,207.0 20.907613072282402,206.16489573773288 21.564353654539445,205.58674455633445 22.43218942396925,205.13707024029281 23.745670588570647,204.59103576035704 24.425866191624664,204.49467657708738 25.950442543369718,204.46255683887284 27.123193583101965,204.68739489634754 30.00816114101326,205.0085916755197 30.242711348924786,204.9764720211533 30.453806536097545,204.81587367097382 30.92290695203701,203.37048261830932 31.650012596684974,201.6038791306346 32.048747950204415,200.19058491670876 32.306753179000225,199.58029563969467 32.658578490896616,198.905763183182 33.22149898999487,197.55669133053743 33.43259417716763,197.33184512220032 33.972059655498015,197.04275676235557 34.08933475942467,196.88215193443466 34.957170528912684,194.762155915334 35.778096256777644,192.32092007281608 36.22374165186193,191.38938788307132 36.92739227574202,189.65479894609598 37.30267260846449,188.46627547229582 38.076688294735504,186.5389248430438 38.49887866905192,185.2861368060403 39.15561925136717,183.7442328829784 40.11727510395576,180.88525403977837 40.633285561489174,179.7930489040591 41.57148639328079,177.19100634905044 41.75912655965658,176.8376398903638 42.204771954828175,175.55266559732263 43.02569768263493,173.52881406096276 43.11951776579372,173.1111913104687 43.0491527034319,172.5650679141254 43.02569768263493,171.9225678591174 43.189882828184636,171.3443160149909 43.4009780153865,170.86243817939248 43.56516316093621,170.34843385340355 43.87007843129686,169.54529940457724 44.03426357684657,169.19191920811136 44.667549138335744,167.29650549902 45.69957005328615,164.91918112357962 45.88721021966194,164.72642383357743 46.40322067722445,164.53366635464772 46.520495781180216,164.37303497790708 46.778501009976026,163.5377497037989 47.95125204976648,160.67847709970374 48.84254283996415,158.33319999703963 49.217823172715725,157.56214388122316 50.57821437885286,154.47788918495644 50.85967462838744,154.0602259759762 51.070769815531094,154.0602259759762 51.446050148282666,154.28512166027213 51.75096541864332,154.5421449845453 52.19661081378581,154.76704011770198 52.595346167247044,154.92767934103904 53.13481164560653,154.79916797281476 53.557002019893844,155.15257403324358 54.0261024357751,155.4095962237625 54.26065264377394,155.44172397389775 54.75320808048127,155.08831843319058 55.48031372510013,154.8634236674261" stroke="#4dd2ff" stroke-linecap="round" stroke-linejoin="round" stroke-width="0.5"><title>2022-08-18 5.1km</title></polyline><polyline fill="none" points="78.1469879518263,185.1496296308469 78.21927710846649,185.28825735220744 78.19036144582788,185.40708098716277 78.16144578313106,185.46649276100652 77.85783132532379,185.6051201199807 77.42409638557001,185.74374732042634 77.25060240968014,185.8427666522839 77.13493975906749,185.98139358095068 77.06265060245642,186.27845075132063 77.01927710845484,186.37746964639518 76.91807228917605,186.49629221362557 76.65783132531215,186.55570345356682 76.49879518075613,186.51609596353956 76.23855421689223,186.3972734156705 76.02168674700079,186.35766587383114 75.8192771084723,186.25864696263307 75.35662650602171,186.41707718171529 75.13975903618848,186.51609596353956 75.0674698795192,186.5358997101721 74.82168674698914,186.37746964639518 74.344578313292,186.2190393754936 73.9831325301493,186.23884317070042 73.76626506022876,186.10021653643344 73.37590361447656,185.961589743667 73.0,185.64472790771833 73.01445783136296,185.48629667910427 73.08674698797404,185.40708098716277 73.4915662650892,184.57531309618935 73.70843373495154,184.2584476363918 73.92530120484298,183.8425604633012 74.1132530120667,183.40686760868266 74.98072289157426,181.76310319370532 75.40000000002328,181.05013820304157 75.83373493977706,180.27775473062502 76.22409638555837,179.44595164050406 77.20722891564947,177.50505556403368 77.40963855423615,177.24758742305858 77.71325301207253,176.73264950040175 78.07469879521523,176.37615273388656 78.26265060240985,176.11868219484313 78.40722891566111,175.80179462674278 78.85542168677785,175.04918333194655 79.18795180725283,174.41540177472052 79.47710843372624,173.54394672210765 79.63614457836957,173.2468583402151 80.1132530120376,172.5338432523713 80.41686746993219,171.9990791837772 80.86506024099072,171.04838168026617 81.80481927710935,169.4638692686931 82.02168674702989,169.14696430052572 82.12289156627958,169.12715771247167 82.77349397589569,169.4242561930223 84.08915662651998,170.55322377695848 84.76867469883291,171.02857540299738 85.11566265061265,171.4841189617655 85.30361445783637,171.66237467084284 85.44819277111674,171.78121166460915 85.80963855423033,171.90004854184372 86.09879518070375,172.05849753018992 86.50361445784802,172.3753948854719 87.03855421688058,172.87054534433992 87.42891566263279,173.12802278353047 88.45542168678367,173.88064600795042 89.58313253015513,174.65307024704816 90.33493975905003,175.0689889522473 90.92771084338892,175.42548956353858 91.1301204819465,175.58393394304585 91.83855421686894,175.9602385143735 92.2144578313455,176.2177093900027 92.98072289157426,176.65342808733112 93.40000000002328,176.7920655262351 94.49879518072703,177.386224182359 95.95903614460258,177.96057478136936 96.55180722891237,178.17843119316967 97.07228915661108,178.45570242365648 98.02650602412177,178.7527780382079 98.33012048195815,178.8716080801678 99.08192771088216,179.2875123095073 100.71566265061847,179.9806828537112 100.97590361448238,180.0400972873831 101.84337349398993,180.3569737748403 102.32048192771617,180.63424002179818 102.97108433736139,180.85209162806132 103.66506024097907,181.14916136921966 104.09879518073285,181.38681663791067 104.48915662651416,181.5452532248819 105.24096385543817,181.76310319370532 105.920481927722,182.159193043095 106.83132530123112,182.55528159817186 107.14939759037225,182.73352102567878 108.21927710846649,183.14941200389148 108.75421686749905,183.30784628695983 109.34698795183795,183.60491000949696 111.6891566265258,184.35746818153712 112.22409638555837,184.59511715990084 112.78795180725865,184.91198173959856 113.49638554218109,185.16943360070582 114.20481927713263,185.52590450567368 115.28915662650252,185.8823743623143 115.76626506025787,186.12002035106707 116.54698795182048,186.4368809445732 116.92289156626794,186.49629221362557 117.35662650605082,186.7141332843894 117.79036144580459,186.81315182357503 118.61445783133968,187.42706496082974 118.94698795184377,187.56569007766666 119.82891566265607,187.80333276622696 121.60722891567275,188.5162580364995 121.99759036148316,188.57566828647396 122.17108433737303,188.63507850727183 122.54698795182048,188.83311236636655 122.98072289157426,189.14996586795314 123.83373493980616,189.46681854130293 124.3108433735324,189.58563808025792 125.38072289156844,190.1599308769146 126.58072289158008,190.65500869017706 127.0,190.8728422875356" stroke="#4dd2ff" stroke-linecap="round" stroke-linejoin="round" stroke-width="0.5"><title>2022-08-17 4.3km</title></polyline><polyline fill="none" points="178.14156368831755,158.48401048970118 178.0157989487634,158.5988570474292 177.28217130104895,158.6275686750887 176.94679866210208,158.71370353008388 176.82103392246063,158.91468469408574 176.69526918287738,159.4602038377925 176.5485436533345,159.51762680696265 175.83587679557968,159.63247268919076 175.5424257364648,159.7473184963601 175.37473941699136,159.94829847828078 175.2908962572692,160.12056685127027 175.1860923075874,160.7235048268485 175.08128835790558,160.8670611828129 174.9974451981834,160.8957724399661 174.20093518061913,160.83834992101765 173.3834643732407,160.6660822516278 172.83848383493023,160.8096386545658 172.39830724630156,161.01061742154707 172.25158171672956,161.01061742154707 171.47603248915402,160.52252573151782 171.2664245898486,160.43639176318538 170.9100911608839,160.4938144133921 170.78432642130065,160.43639176318538 170.59567931192578,160.32154640633962 169.71532613466843,159.86216422847065 169.33803191583138,159.83345280244248 169.17034559638705,159.94829847828078 167.7869334606803,162.70457218204683 167.1790705525491,164.08269282308174 166.23583500552922,166.83890168488142 165.79565841692965,167.87246886390494 165.69085446721874,168.3318301034742 165.54412893767585,168.70506022653717 165.39740340816206,168.99215978189022 165.27163866857882,169.13570938358316 164.93626602960285,169.2218390883936 164.72665813023923,169.33667862914444 164.64281497048796,169.45151809482195 164.37032470136182,169.99700453200785 164.01399127248442,171.08797232715006 163.78342258319026,171.57603467459558 163.46901073420304,172.32248034895747 162.81922624621075,174.18858066505345 162.4419320274028,175.02114210638683 162.2952064978599,175.71015548905416 162.337128077721,176.91592240902537 162.23232412803918,177.31784287752816 159.69606854597805,183.6623227907985 159.44453906675335,184.4948393564846 159.04628405801486,185.4708882394334 158.64802904924727,186.61917410366004 158.0611269310466,187.96840040831012 157.7047935021692,188.94443000244792 157.4532640229736,189.46114935808873 157.39038165315287,189.5185625260783 157.32749928333214,189.66209536400856 156.78251874507987,191.1835362396232 156.67771479539806,191.6141303229233 156.11177346715704,193.22167224703298 155.16853792010807,195.5181352072541 154.60259659183794,197.26916805424844 154.0785768435162,198.24514600486145 153.9318513139733,198.35996658400109 153.5755178850959,198.44608196908666 153.40783156562247,198.61831261277257 153.19822366622975,199.22111853661772 152.38075285882223,201.17304734388017 151.8148115306103,202.952728248536 151.37463494195254,203.8999704151065 150.97637993321405,205.04813589500554 150.82965440364205,205.24906408293464 150.38947781504248,205.3064720944676 149.40432068810333,205.19165605264425 146.34404535769136,204.70368703841814 145.82002560931141,204.73239113560703 144.83486848234315,204.9046156200784 144.2060447843396,205.07683993587852 142.75975027887034,205.9379589838063 142.29861290028202,206.3972207511979 141.90035789154354,206.91388880531304 141.85843631168245,207.0 142.06804421101697,206.85648131872586 142.4872600097151,206.2824054218072 142.96935817823396,205.823143354457 144.2479663642007,205.04813589500554 144.8558292723028,204.84720747738902 145.58945692001726,204.70368703841814 146.42788851741352,204.70368703841814 147.68553591347882,204.818503398943 149.25759515853133,205.07683993587852 150.3475562351814,205.19165605264425 150.7458112439199,205.19165605264425 150.93445835332386,205.07683993587852 151.3117525721318,204.0147873005917 151.62616442117724,203.3258848629048 151.8148115306103,202.72309301527275 152.5065175984637,200.91470506973565 153.470713935385,198.6757227898197 153.6803218347195,198.44608196908666 154.09953763347585,198.21644084835134 154.20434158309945,197.9867994276574 154.41394948243396,197.38398927089293 154.9798908107041,195.97742419897986 155.31526344968006,195.259784622016 157.03404822427547,190.49458351239446 157.5999895525165,189.17408323702693 159.4235782768228,184.32259487331612 159.84279407552094,183.37524719869543 160.49257856345503,181.71019951773633 160.99563752187532,180.2748009256029 161.70830437971745,178.49489039064792 162.23232412803918,176.91592240902537 162.25328491799883,176.68625315731333 162.190402548149,175.8536996037583 162.21136333813774,175.59532011282863 162.46289281730424,174.87759731168626 162.81922624621075,174.13116248926963 162.98691256571328,173.55697969942412 163.25940283481032,172.9253764639143 163.657657843607,171.6621631834132 164.47512865104363,169.4802279495052 164.6637757604476,169.13570938358316 164.89434444974177,168.99215978189022 165.20875629872899,168.934739908349 165.29259945848025,168.8773200159485 165.37644261820242,168.73377020315093 165.64893288741587,168.07343955403485 165.9214231565711,167.52794714631455 166.55024685454555,165.7766179722821 166.99042344320333,164.80045971028449 167.1790705525491,164.14011428192316 167.51444319152506,163.4223446977703 167.76597267077886,162.70457218204683 168.2899924191006,161.55613005904888 168.5415218983544,160.8670611828129 169.48475744537427,158.97210784160416 169.84109087425168,158.42658718269377 170.46991457228432,157.30682894593338 171.47603248915402,155.124715471713 171.89524828785216,154.29205976682715 172.23062092679902,153.71781215435476 172.54503277584445,153.0" stroke="#4dd2ff" stroke-linecap="round" stroke-linejoin="round" stroke-width="0.5"><title>2022-08-16 5.3km</title></polyline><polyline fill="none" points="59.52738574511022,213.0 59.27090664880234,213.57488635217305 59.1543252413685,214.0539570208639 59.037743833934655,214.3094608973479 58.87452986347489,214.37333681432938 57.89524604109465,214.5330265153898 57.66208322622697,214.6927160860796 57.59213438176084,214.94821912772022 57.615450663201045,215.55503751336073 57.56881810023333,215.7786017069011 57.428920411359286,215.9063525598758 57.26570644095773,215.93829026001913 56.96259478162392,215.93829026001913 56.54290171485627,215.8744148544065 56.14652492958703,215.9063525598758 55.493669047922594,215.58697527091135 55.35377135899034,215.61891302335425 54.74754804035183,215.8744148544065 54.35117125508259,216.0660410086275 54.257906129118055,216.03410332926433 53.32525486970553,215.49116198252887 53.11540833633626,215.427286430815 52.71903155097971,215.52309975058597 52.46255245464272,215.427286430815 51.32005466186092,214.7885297658504 50.946994158031885,214.6927160860796 50.78378018763033,214.82046764859115 50.45735224679811,215.55503751336073 50.20087315046112,215.93829026001913 49.5713335503242,217.50323117761582 48.68531485382118,219.19590827063075 46.86664489787654,224.3377242753195 46.54021695704432,224.91257728695928 46.353686705144355,225.04032217110216 45.933993638376705,225.16806697177526 45.74746338647674,225.4874286083068 45.141240067838226,227.43552329328668 44.69823071960127,228.2977885135624 44.604965593636734,228.64908066111093 44.348486497299746,229.19198546568805 44.255221371364314,229.54327600657416 43.99874227499822,230.11811371168005 43.835528304596664,230.6929497266683 43.322570111835375,231.74681136428262 43.20598870445974,232.38551262236433 43.112723578495206,233.79064804542577 42.85624448210001,234.589015945734 42.13343975605676,236.24961073529266 41.50390015591984,237.94212552608224 40.75777914834907,240.17749996471684 40.19818839262007,241.48677883872006 39.40543482208159,243.65824642225925 38.332885873678606,246.21288329156232 38.12303934036754,246.81960464298027 37.936509088409366,247.49018920942035 37.70334627354168,248.19270390743623 36.654113606666215,250.71534951731155 36.46758335476625,251.2901249770075 35.814727473130915,252.91864627046743 35.27845299898763,254.35556555977382 34.81212736922316,255.6966807025019 34.13595520608942,257.2613034099777 33.97274123568786,257.4528890035872 33.62299701338634,257.6125435215072 33.45978304298478,257.7083361697296 33.31988535405253,257.96378300210927 32.76029459838173,259.4325958122354 32.57376434648177,259.81576255684195 31.897592183377128,261.5400036159117 30.94162464243709,264.1901963402488 30.52193157566944,265.05229948388296 30.38203388673719,265.180018144878 30.10223850890179,265.2119477970555 25.46229849307565,264.50949424407736 24.62291235954035,264.5733537622 24.203219292801805,264.6372132595425 23.550363411108265,264.79686191161454 23.130670344398823,264.9565104334324 21.68506089222501,265.7547510870354 21.335316669923486,266.0101874079992 20.472614254860673,267.0 21.335316669923486,266.0101874079992 21.894907425594283,265.5631736272917 22.850874966563424,265.05229948388296 23.923423914937302,264.66914300042845 24.436382107640384,264.5414240057289 25.532247337541776,264.47756447711436 26.55816372294794,264.5733537622 29.939024538500234,265.0842291569861 30.428666449704906,265.05229948388296 30.54524785716785,265.0203698055702 30.615196701604873,264.9245807394327 31.920908464875538,261.38035230468086 32.29396896864637,260.1031371225545 32.62039690944948,259.33680400875164 33.34320163555094,257.8041287709784 33.52973188745091,257.6125435215072 33.97274123568786,257.3570962302183 34.15927148758783,257.1655105428217 34.625597117323196,256.0159924759937 35.39503440642147,253.97238811512943 35.721462347195484,252.98250957434357 37.07380667340476,249.50192910926125 37.79661139950622,247.49018920942035 38.47278356261086,245.92548831010936 38.845844066439895,244.87170309705834 39.1489557257737,244.23304262800957 39.75517904444132,242.60444898935384 39.89507673328626,242.09351485605293 40.24482095564599,241.13550975752878 41.014258244715165,239.31528713770967 41.22410477808444,238.64467453233374 42.48318397838739,235.57898761425167 43.042774734058185,233.98225663878839 43.136039859993616,233.63097407409805 43.136039859993616,233.31162574034533 43.042774734058185,232.51325262367027 43.0894072970259,232.09809731450514 43.25262126736925,231.6510059957218 43.812212023098255,230.5652085361071 43.99874227499822,230.0223075448157 44.16195624539978,229.25585652005975 44.5117004677013,228.39359552544192 44.674914438131964,227.78681699026492 45.39771916420432,226.12615031613677 45.724147104949225,225.2638755175576 45.88736107540899,225.008385957859 46.493584394076606,224.7209598041809 46.63348208300886,224.52934213369736 46.796696053410415,223.98642438059323 47.51950077948277,222.26185210447875 47.96251012774883,221.04825508657086 48.21898922408582,220.50532766563992 49.10500792055973,218.30166559487407 50.7138313431642,214.66077818234044 50.78378018763033,214.5330265153898 50.97031043950119,214.43721271042887 51.48326863220427,214.72465398453642 51.833012854505796,214.98015698450035 52.06617566937348,215.0440326822427" stroke="#4dd2ff" stroke-linecap="round" stroke-linejoin="round" stroke-width="0.5"><title>2022-08-14 5.0km</title></polyline><polyline fill="none" points="115.93779063160764,213.0 115.6190348189848,213.10075947597215 114.68728705900139,213.10075947597215 114.34401156849344,213.23510536705726 114.27045253480901,213.30227827966155 114.09881478955504,213.83966079026868 113.87813768847263,214.14193783527298 113.63294090950512,214.30986933482927 113.09350799582899,214.37704189623764 112.62763411583728,214.5113869531633 112.43147669263999,214.67931815101474 112.35791765898466,214.8472492115834 112.2353192695009,215.5525581680413 112.16176023581647,215.65331639292708 111.94108313479228,215.72048851534782 111.47520925480057,215.68690245682956 110.8622173074109,215.75407456830726 110.37182374953409,215.51897208216542 110.15114664848079,215.48538599080348 108.97420210952987,215.92200475101708 108.70448565264815,215.85483269432734 107.74821821477963,215.2502831973543 107.11070658947574,215.2502831973543 105.71308494952973,214.34345561823284 105.46788817059132,214.27628304585232 105.32077010319335,214.34345561823284 105.24721106950892,214.4778006972192 105.02653396845562,215.0823524659645 104.2909436315822,216.5265522726113 103.01592038109084,219.2134086375445 102.57456617898424,220.55682365142275 101.83897584216902,222.47117487803916 101.42214131797664,223.51230578072136 100.85818872638629,225.05719998426503 100.71107065898832,225.22512256764458 100.31875581265194,225.32587605192384 100.2206771010824,225.3930450140033 100.02451967791421,225.6617206427909 99.77932289900491,226.3669924978749 99.19085062950035,227.87828118301695 98.94565385050373,228.34845761924225 98.77401610530796,228.8858008012321 98.57785868213978,229.3895587587176 98.43074061474181,229.96048295173387 97.81774866738124,231.33741124736844 97.25379607581999,232.7479135980684 97.20475671999156,233.05016284289013 97.15571736422135,234.46065344325325 96.34656799372169,236.84503221462364 95.95425314738532,237.78534300056344 95.19414313262678,239.86744443682255 94.60567086320953,241.07639688528434 94.04171827161917,242.28534222512098 93.72296245893813,243.35995433747303 93.52680503579904,243.79651390368235 93.23256890106131,244.9046994090022 92.86477373263915,245.77781105494068 92.5214982421021,246.78524296225805 91.88398661685642,248.46428517217282 91.58975048211869,249.06873701117001 90.9522388568439,250.71418023730803 90.38828626525356,251.95664904984005 89.87337302949163,253.60206916557217 89.50557786104036,254.47514388000127 89.18682204841753,255.48253317479976 88.62286945685628,256.85929056275927 87.86275944209774,259.00835684058256 87.74016105261398,259.2434096020588 87.64208234107355,259.34414641761396 87.02909039368387,259.64635656807513 86.8574526484008,259.88140860022395 86.61225586949149,260.55298435443547 86.14638198949979,261.5939224388858 85.82762617684784,262.5676984570746 85.36175229682704,263.7093610196025 84.96943745049066,264.783861170552 84.06220936839236,267.0 84.20932743576122,266.39560086961137 84.92039809474954,264.6495489587396 85.63146875365055,262.43338479765225 86.73485425885883,259.7806720479275 87.05361007159809,259.4448831837508 87.49496427367558,259.20983065260225 87.71564137469977,259.0419358230138 87.9853578315815,258.2360387325316 88.52479074525763,257.09434578088985 89.03970398107776,255.71758996674907 89.50557786104036,254.17292612910387 90.24116819785559,252.19170987252437 90.73156175579061,251.04998335940763 91.44263241472072,249.0015757834626 92.42341953053256,246.78524296225805 93.33064761263086,244.06516548378568 94.28691505055758,241.8151976599038 94.31143472844269,241.58012497423624 94.5566315073811,240.841323354849 95.31674152211053,239.02788994298317 95.66001701261848,238.42340858462558 95.70905636844691,238.0875848397991 95.9052137916151,237.58384819419007 96.10137121478328,236.84503221462364 96.49368606111966,236.03904811808025 97.03311897473759,234.66215131047647 97.13119768636534,234.158406272094 97.08215833056602,233.0165796153742 97.18023704213556,232.44566390904947 97.2783157537051,232.24416386945813 97.57255188847193,231.80757977280882 97.86678802315146,231.2030771854479 98.43074061474181,229.3895587587176 98.79853578322218,228.34845761924225 99.0927719179017,227.87828118301695 99.33796869684011,227.17301451250387 99.80384257689002,225.59455176856136 99.95096064422978,225.35946053566295 100.07355903368443,225.22512256764458 100.53943291373434,225.0236154510785 100.6620313032181,224.9228618186171 100.76011001475854,224.7549389883061 101.27502325057867,223.54589056079567 101.93705455373856,221.66513442905853 102.79524328000844,219.6836048909754 103.1630384484888,218.64245459831727 103.89862878527492,216.8959971051081 105.17365203579539,214.44421443564352 105.32077010319335,214.30986933482927 105.51692752630333,214.34345561823284 105.8847226947837,214.44421443564352 106.30155721900519,214.7464905916422 107.03714755584951,215.04876630326908 107.18426562318928,215.0823524659645 107.77273789269384,214.94800778206263 108.94968243161566,215.48538599080348 110.10210729265236,215.14952477495535 110.83769762949669,215.41821379144676 111.35261086528772,215.41821379144676 111.96560281270649,215.61973032340757 112.30887830321444,215.61973032340757" stroke="#4dd2ff" stroke-linecap="round" stroke-linejoin="round" stroke-width="0.5"><title>2022-07-26 4.5km</title></polyline><polyline fill="none" points="174.9404767745291,214.17691077121708 174.2006129086658,214.11152702115942 173.74714795866748,214.2096026383224 173.67554822965758,214.30767820749315 173.69941480603302,214.6019046263682 173.67554822965758,214.7653635610186 173.603948500735,214.9288223622716 173.50848219549516,215.05958930708584 173.36528273756267,215.1249727474351 172.74475175334373,215.15766445954796 172.43448626121972,215.32112294020772 172.21968707433552,215.5826562316215 172.10035419280757,215.77880597588955 171.9810213111632,216.49802005950187 171.88555500592338,216.62878597881354 171.79008870065445,216.66147744533373 171.33662375059794,216.66147744533373 170.54902673218749,216.53071154738427 170.28649439266883,216.43263706789003 170.00009547683294,216.23648796457564 169.78529629003606,216.20379642868647 169.4511642216239,216.39994556397141 169.04543242423097,216.53071154738427 168.75903350839508,216.6941689064406 168.59196747417445,216.6941689064406 168.1862356767815,216.43263706789003 167.49410496355267,216.07303023157874 167.35090550567838,216.04033866900136 166.94517370825633,216.1711048874131 166.70650794511312,216.10572178887378 165.7995780450583,215.4191979645111 165.44157940029982,215.2230478678539 165.15518048449303,215.2230478678539 165.03584760290687,215.32112294020772 164.63011580548482,216.46532856635167 164.05731797390035,217.41337970008317 162.95945546333678,219.83252430779976 161.74226007112884,223.29773455220857 161.00239620532375,225.16107751590607 160.64439756056527,225.7821879813855 160.54893125526723,225.8475679182302 160.21479918682599,225.91294783366902 160.04773315263446,226.0763975289883 159.83293396577938,227.0570928971283 159.4749353210209,227.87433536583558 159.30786928682937,228.36467924505996 158.90213748943643,229.1492269526061 158.63960514991777,229.96646087728732 157.70880867357482,232.15663133803173 157.4701429104025,232.77772009115142 157.3985431814508,233.2680519557034 157.27921029986464,234.90248282745597 157.20761057088384,235.16399052811903 156.2052143655892,237.4848563975538 155.34601761813974,239.93644604117435 154.51068744709482,241.86500878880906 154.08108907335554,243.17249838568387 153.55602439437644,244.44729251823446 152.88776025749394,246.24506531492807 152.60136134168715,247.16028889888548 152.31496242585126,247.78133109021292 152.1240298153425,248.3369987856713 151.57509856004617,249.54638784863346 151.2170999153459,250.55965413978265 150.88296784690465,251.37680063789594 150.50110262582893,252.3900576619344 150.3340365916083,253.07645466690883 150.21470370996394,253.43599501576682 149.92830479421536,254.0897030861961 149.54643957313965,255.13563155777229 148.97364174152608,256.57377428148175 148.04284526512492,258.7963381650479 147.82804607824073,259.0904991825373 147.32684797560796,259.38465976776206 147.18364851770457,259.58076658428763 146.70631699138903,260.75740344874794 146.30058519399608,262.0320855794853 144.3912590885884,266.803900452549 144.36739251230028,267.0 144.43899224125198,266.93463350553066 144.6060582754726,266.2809673867596 145.32205556498957,264.15653775758983 145.82325366762234,262.8491852396255 145.96645312552573,262.3262418414233 146.30058519399608,261.6725606722175 146.49151780456305,261.05156158407044 146.8256498729752,260.1690858811926 147.04044905977207,259.5480821282399 147.32684797560796,259.2212372737704 147.85191265458707,258.92707644843904 147.97124553617323,258.8290227439429 148.13831157039385,258.4694920830225 149.069108046795,256.18155456351815 149.52257299679331,254.84146472768043 150.35790316789644,252.6842280951969 150.9307009994809,251.0499424389709 151.3602993732202,250.00399261532584 151.670564865286,249.38295732124243 152.14789639168885,247.87939020743943 153.12642602072447,245.42789786384674 153.62762412335724,243.92430103597871 154.03335592072108,242.87831397114496 154.82095293921884,241.08051093050744 155.58468338137027,238.8577502979897 155.96654860241688,238.04055268225784 156.84961192612536,235.78506994777126 157.20761057088384,234.67366330903315 157.23147714723018,234.28140066866763 157.15987741827848,233.85644860731554 157.15987741827848,233.36611818452366 157.18374399459572,232.84309774251597 157.80427497881465,231.53554065727803 158.04294074198697,230.81638061857666 158.94987064201268,228.6588849957625 159.37946901578107,227.41667999447964 159.64200135524152,226.8282644078281 159.88066711835563,226.1744672821369 160.0715997289226,225.97832772789116 160.57279783164267,225.74949800498143 160.69213071317063,225.58604804261995 161.1933288158325,224.18037285574246 161.50359430795652,223.42849602803471 161.8615929527732,222.6766163752618 162.57759024229017,220.97670413747255 162.9833220395667,219.7998333593423 163.6515861765074,218.26335275976453 163.9379850923142,217.7076015524217 164.534649500245,216.26917949509516 164.94038129760884,215.48458128735365 165.08358075554133,215.28843125479762 165.2745133660792,215.19035616633482 166.27690957140294,215.77880597588955 166.9213071319682,215.97495552773762 167.30317235304392,215.87688077584608 167.44637181097642,215.87688077584608 167.54183811621624,215.90957236511167 167.89983676094562,216.1711048874131 168.44876801624196,216.39994556397141 168.6397006267507,216.39994556397141 169.02156584785553,216.1711048874131 169.8091628663242,216.00764710109797 170.47742700320669,216.3672540547268 170.90702537694597,216.26917949509516 171.33662375059794,216.3345625402144 171.9094215822406,216.23648796457564 172.1242207690957,216.10572178887378 172.17195392170106,215.97495552773762 172.21968707433552,215.77880597588955 172.21968707433552,215.28843125479762 172.31515337963356,215.09228102986526 172.62541887172847,214.9288223622716 173.19821670337114,214.8961306127312 173.603948500735,214.79805533199396 173.79488111130195,214.6999800032645 174.15287975606043,214.2749863564095 174.67794443501043,213.84999180691375 175.3939417244983,213.71922407159582 175.4655414535082,213.55576428232598 175.41780830084463,213.26153632513888 175.44167487716186,213.19615227587929 175.63260748772882,213.0" stroke="#4dd2ff" stroke-linecap="round" stroke-linejoin="round" stroke-width="0.5"><title>2022-07-25 4.6km</title></polyline></svg>