<?xml version="1.0" encoding="utf-8" ?>
<svg baseProfile="full" height="300mm" version="1.1" viewBox="0,0,200,300" width="200mm" xmlns="http://www.w3.org/2000/svg" xmlns:ev="http://www.w3.org/2001/xml-events" xmlns:xlink="http://www.w3.org/1999/xlink"><defs /><rect fill="#222222" height="300" width="200" x="0" y="0" /><text fill="#FFFFFF" style="font-size:12px; font-family:Arial; font-weight:bold;" x="10" y="20">Over 4km Runs</text><text fill="#FFFFFF" style="font-size:4px; font-family:Arial" x="10" y="280">ATHLETE</text><text fill="#FFFFFF" style="font-size:9px; font-family:Arial" x="10" y="290">ChiZhang9797</text><text fill="#FFFFFF" style="font-size:4px; font-family:Arial" x="120" y="280">STATISTICS</text><text fill="#FFFFFF" style="font-size:3px; font-family:Arial" x="120" y="285">Number: 14</text><text fill="#FFFFFF" style="font-size:3px; font-family:Arial" x="120" y="290">Weekly: 2.8</text><text fill="#FFFFFF" style="font-size:3px; font-family:Arial" x="141" y="285">Total: 68.6 km</text><text fill="#FFFFFF" style="font-size:3px; font-family:Arial" x="141" y="290">Avg: 4.9 km</text><text fill="#FFFFFF" style="font-size:3px; font-family:Arial" x="167" y="285">Min: 4.1 km</text><text fill="#FFFFFF" style="font-size:3px; font-family:Arial" x="167" y="290">Max: 6.0 km</text><polyline fill="none" points="34.033124505280284,74.32955564152508 33.72396245604614,74.2993068601063 33.14980436459882,74.39005318962154 33.03938934701728,74.60179445220274 32.95105733294622,75.02527625102084 32.70814429424354,75.20676815391926 32.06773719226476,75.32776265706343 31.824824153562076,75.20676815391926 31.758575143001508,75.05552491385606 31.86899016064126,74.60179445220274 31.957322174683213,74.14806287863757 32.310650230938336,73.45233897287108 33.03938934701728,72.81711051474849 34.65144860374858,71.7281423729437 34.98269365649321,71.57689629112429 35.86601379714557,71.33490230317693 37.74306909609004,71.2441544761823 39.156381321139634,71.06265868867922 39.99553545485833,70.9114120631275 40.21636548996321,70.82066402862256 40.525527539197356,70.57866905217816 40.70219156733947,70.30642432566674 40.79052358143963,70.09467815040261 40.812606584862806,69.64093553103157 40.79052358143963,69.03594364177843 40.68010856382898,68.40070003042638 40.613859553297516,67.6444547939318 40.41511252161581,66.46470605656214 40.08386746890028,65.79920345233404 39.708456409105565,64.86144572205376 38.869302275415976,63.13716911182564 38.692638247302966,62.713660119319684 38.538057222700445,62.0783948139142 38.33931019101874,61.715385089308256 37.80931810665061,61.322123750986066 37.50015605741646,61.26162193249911 36.08684383233776,61.41287644174008 35.6010177549324,61.50362908789248 33.43688341032248,61.715385089308256 33.08355535403825,61.594381689545116 32.95105733294622,61.322123750986066 32.9952233399672,61.11036729974148 33.83437747359858,59.62806535897835 34.45270157212508,58.35751139157219 35.137274681124836,56.844935774832265 36.506420899153454,54.60630118114932 37.146828001132235,53.184451638531755 37.74306909609004,52.0348631728848 38.648472240252886,50.46173054592509 39.46554337037378,49.251619428163394 40.15011647940264,48.04150039967499 40.326780507544754,47.52719741706096 40.70219156733947,46.740613621033845 41.01135361654451,46.22630702411698 41.430930683389306,45.31870366136718 42.46883184870239,43.382468281066394 43.02090693661012,42.414342995907646 43.90422707723337,40.992399803435546 46.8854325520806,35.60706911541638 46.907515555561986,35.395283245903556 46.84126654500142,35.304517799115274 46.532104495796375,35.183497134101344 46.04627841839101,34.79017942637438 44.45630216522841,33.88251998805208 44.27963813702809,33.70098756623338 44.21338912649662,33.54971041211684 44.2575551335467,33.277411223069066 44.6771322003915,32.5512780938443 44.69921520387288,32.40000000000873 44.58880018629134,32.43025562878756 44.39005315466784,32.64204489084659 44.03672509835451,33.126133722718805 43.175487961270846,34.548137344710995 42.53508085926296,35.42553838492313 41.93883976430516,36.09115019298042 41.56342870451044,36.423955199323245 40.59177654978703,36.877779243775876 39.79678842317662,37.48287623884971 39.266796338779386,37.81567874299071 38.58222322972142,38.11822595483682 37.036412983579794,38.390518022555625 33.966875494719716,38.783828080049716 32.818559311825084,38.84433724547853 31.824824153562076,38.75357348995749 29.815270833554678,38.69306429482822 28.33570959791541,38.723318894873955 27.80571751354728,38.81408266519429 27.275725429091835,39.0258646231523 26.259907267347444,39.54019122633326 26.039077232184354,39.69146348470531 25.751998186460696,40.02426201790513 24.073689919197932,42.38408899916976 23.941191898076795,42.747136633857735 23.919108894537203,42.928660184086766 23.89702589105582,43.80602150107734 24.029523912176955,44.16906634697807 24.515349989495007,44.95566107022751 25.06742507746094,45.46997119745356 26.546986313071102,46.01453330408549 26.9444803763472,46.22630702411698 27.187393415049883,46.43808050172811 27.209476418589475,46.61960043266299 27.143227408028906,46.922133255182416 26.878231365786633,47.19441237275896 26.45865429902915,47.43643791881914 25.84033020050265,47.64821001213568 25.597417161858175,47.82972875631822 25.464919140737038,47.9809942405991 25.133674088021507,48.58605494147923 24.802429035218665,49.312125171898515 24.736180024658097,49.55414794922399 24.669931014126632,50.431477864360204 24.58159900008468,50.703751820256 24.471183982503135,50.824762338685105 24.095772922679316,51.15754085674416 23.389116810139967,51.33905615979165 23.013705750374356,51.581076287140604 22.24080062727444,52.42814424082462 21.86538956745062,53.002938144869404 21.46789550417452,53.36596495413687 21.269148472551024,53.7289910515392 21.09248444440891,54.90882095141569 21.09248444440891,55.181088322016876 21.24706546901143,56.02813980302017 21.46789550417452,56.965942279071896 21.512061511253705,57.81298559330753 21.843306563969236,58.78103034959349 21.953721581579885,59.446558183204615 22.10830260621151,59.597814175416715 22.351215644855984,59.65831653751957 23.455365820700536,59.507060594900395 24.162021933298092,59.53731179330498 24.471183982503135,59.62806535897835 24.979093063389882,59.87007464976341 25.575334158347687,60.05158141021093 26.72365034118411,60.29359014744114 27.584887478355085,60.35409228231583 27.783634510007687,60.50534753293323 27.9602985381498,60.686853670631535 28.02654754871037,60.898610606309376 28.092796559270937,61.62463254694012 28.3577926014259,61.927140848492854 28.711120657710126,61.95739165150735 29.92568585119443,61.77588675952575 31.736492139520124,61.685134246741654 32.13398620279622,61.715385089308256 32.28856722745695,61.86663922772277 32.26648422391736,62.04814403074852 31.9794051781937,62.441403826800524 30.654424967156956,64.7706947219267 29.793187830073293,66.494956118142 29.46194277727045,67.0092064080236 28.821535675349878,68.1889516756055 28.269460587354843,69.00569399545202 26.436571295489557,72.75661245264928 26.06116023566574,73.66408130795753 25.266172109142644,75.1765195158514 25.266172109142644,75.32776265706343 25.597417161858175,75.41850848247122 25.9507452181424,75.60000000000582" stroke="#4dd2ff" stroke-linecap="round" stroke-linejoin="round" stroke-width="0.5"><title>2022-09-01 5.0km</title></polyline><polyline fill="none" points="104.06823550714762,73.28099300352915 103.43652191903675,73.17715627553116 103.13329939680989,73.17715627553116 102.7290027004201,73.62711506237974 102.37524309111177,74.11168499485939 102.19836328647216,74.21552126469032 101.89514076415799,74.25013334328833 101.33923280672752,74.18090918043163 101.08654737149482,74.0424607865425 100.9854731974192,73.86940016711014 101.03601028441335,73.55789069581078 101.2381586326519,72.79642117106414 101.51611261136713,72.20801102726546 101.84460367716383,71.79266170639312 102.34997454762924,71.37731157142844 103.53759609314147,70.75428484179429 104.5483378340723,70.06203077116515 105.00317161748535,69.81974131191964 105.73595937967184,69.64667724289757 107.55529451326584,69.5082258858456 108.768184602377,69.57745157567842 110.36010284427903,69.36977443839714 110.71386245361646,69.19671000167727 110.96654788884916,68.98903249102295 111.29503895467496,68.3313856976747 111.29503895467496,67.6737368627364 111.11815914994804,66.91224618739216 110.96654788884916,65.97768570837798 110.99181643236079,64.80082590704842 110.9160108018259,64.10855238155636 110.43590847484302,63.27782116479648 110.18322303961031,62.481700691758306 109.0966756681446,60.40485059194907 108.61657334121992,58.98565797964693 108.5154991671443,58.77797045838088 108.11120247081271,58.43182413703471 107.75744286144618,58.29336545021215 107.45422033919021,58.2241360728367 105.28112559620058,58.25875076428929 104.0429669636651,58.36259480500303 102.88061396157718,58.57028273343167 101.94567785123945,58.46643879466865 98.5091559321736,58.604897368422826 97.5994883653766,58.604897368422826 96.71508934203302,58.29336545021215 96.66455225498066,58.2241360728367 96.63928371143993,57.63568545159069 96.51294099388178,57.22030755833839 96.26025555864908,57.01261830623844 95.80542177523603,56.80492885049898 95.27478236122988,56.70108404628991 94.23877207681653,56.70108404628991 92.62158529137378,56.285704320514924 91.78772335511167,56.14724423074222 90.97912996233208,56.14724423074222 89.94311967791873,56.25108930640272 89.76623987327912,56.181859261676436 89.63989715560456,55.93955392653879 89.58936006863951,55.247251441993285 89.31140608989517,54.139562760537956 89.2608690028137,53.20494593009062 89.0839891981741,52.616481365752406 88.70496104532504,50.92030965088634 88.7554981323774,49.84721440865542 88.85657230642391,49.39720510864572 89.61462861212203,48.53179992130026 89.94311967791873,48.01255511189811 90.9033243317972,47.008678204379976 91.30762102815788,46.73174580631894 92.09094587736763,46.55866287383833 92.46997403021669,46.31634653064248 92.84900218306575,45.90094644014607 93.00061344416463,45.69324608948955 93.02588198770536,45.52016230825393 92.9753449006821,44.96629325814138 93.0511505312461,44.58550744612876 93.22803033591481,43.92778488557087 93.53125285822898,43.304677418011124 93.75866974986275,42.95850581066043 93.9608180981013,42.750802574664704 95.17370818715426,42.0930743170029 95.57800488354405,41.60843113611918 95.65381051410805,41.36610912985634 95.60327342702658,41.08916935468733 95.35058799179387,40.708376572452835 94.76941149076447,40.39681833247596 94.06189227217692,40.154494939983124 93.40491014055442,39.66984732345736 93.27856742293807,39.35828755584953 93.25329887939733,38.63131298251392 93.17749324886245,38.49284135219932 92.36889985614107,38.181279853350134 91.96460315975128,37.93895392623381 91.78772335511167,37.7312457680091 91.7371862680593,37.59277354936057 91.76245481157093,37.211974481338984 91.96460315975128,36.83117472875165 93.27856742293807,35.134876604381134 93.93554955450236,34.061701386992354 94.44092042496777,33.403946146849194 94.66833731668885,33.23085232308949 96.08337575400947,32.60771338631457 96.8667006031319,32.40000000000873 98.25647049694089,32.434618911880534 99.84838873884291,32.573094502673484 100.17687980463961,32.67695113652735 100.42956523987232,32.81542656896636 100.68225067510502,33.19623354142823 100.80859339266317,33.680895970668644 100.80859339266317,33.95784543226182 100.60644504451193,34.75407311733579 100.6569821316225,35.10025813381071 100.78332484918064,35.654152983188396 100.9854731974192,36.138809788171784 101.2381586326519,36.55422902412829 101.31396426318679,36.83117472875165 101.31396426318679,37.03888376959367 101.44030698077404,37.03888376959367 101.71826095951837,36.93502927466761 101.819335133594,37.03888376959367 101.76879804659984,37.17735635038116 101.51611261136713,37.385065051727 101.46557552434388,37.62739161255013 101.61718678544275,37.83509987250727 102.02148348183255,38.07742591854185 102.14782619939069,38.215897820249666 102.24890037352452,38.49284135219932 102.24890037352452,38.83902025799034 102.32470600408851,39.185198598046554 102.6531970698561,39.704465047092526 103.46179046260659,40.25834785637562 103.71447589783929,40.53528871793242 104.42199511645595,40.9160818112432 104.52306929053157,41.6430485429446 104.49780074701994,41.91998759401031 104.39672657294432,42.19692628295161 104.44726365999668,42.43924733881431 104.69994909522939,42.750802574664704 105.1295143351017,42.993122996835154 105.55907957497402,43.477763009505 106.4434785982885,43.962401913289796 107.15099781687604,44.44703970832052 107.37841470856802,44.58550744612876 108.26281373185338,44.79320888296934 108.91979586353409,45.10476065635157 109.04613858115044,45.24322796428169 109.04613858115044,45.34707838567556 108.64184188476065,45.93556314551097 108.13647101429524,47.043294728631736 106.87304383816081,49.36258896897198 106.11498753246269,50.85107786383014 105.48327394443913,51.85493656148901 104.69994909522939,53.30879244826792 103.94189278953127,55.108790673621115 102.75427124396083,57.25492241383472 102.32470600408851,58.29336545021215 102.04675202531507,58.25875076428929 101.97094639475108,58.43182413703471 101.56664969839039,58.95104340685066 101.41503843729151,59.29718887974741 100.35375960930833,61.09713622093841 99.57043476012768,62.654770614302834 98.58496156267938,64.35084837279283 97.92797943111509,65.70077810806106 97.42260856067878,66.6007264858199 96.96777477723663,67.81218941873522 96.31079264564323,68.95441955282877 95.98230157987564,69.61206441216927 95.55273634000332,70.23509450089477 95.24951381774736,70.89273538450652 94.794680034247,71.61959924918483 94.5419945990725,72.24262343384908 94.213503533334,73.28099300352915 93.75866974986275,74.11168499485939 93.70813266281039,74.3539695453801 93.78393829340348,74.45780569649651 94.1376979026827,74.52702976900036 94.4661889684503,74.83853781523067 94.94629129540408,74.90776176331565 95.35058799179387,75.15004540345399 95.80542177523603,75.04620959163003 95.93176449285238,75.04620959163003 96.33606118921307,75.35771687448141 97.04358040782972,75.60000000000582 97.2709972995508,75.53077627813036 97.70056253945222,75.28849307341443 98.38281321455725,75.11543347187398 98.53442447565612,75.11543347187398 98.88818408499355,75.39232876646565 99.16613806373789,75.46155253359757 99.64624039069167,75.42694065293472 100.10107417407562,75.49616440865793 100.75805630566902,75.42694065293472 100.93493611033773,75.32310497679282 100.9854731974192,75.21926924973377 100.93493611033773,73.7309515698289 101.08654737149482,72.8656457864563 101.28869571961695,72.31184823023796 101.4908440678264,71.96572402241873 101.69299241600675,71.75804922629322 102.34997454762924,71.16963619847957 104.5483378340723,69.85435410881473 105.5338110314915,69.57745157567842 106.54455277236411,69.5082258858456 106.72143257700372,69.57745157567842 106.6961640335212,69.71590288748848 106.24133025007905,70.44277078991581 106.24133025007905,70.71967219201906 106.41821005477686,71.34269902332744 106.3676729676954,71.61959924918483 105.81176501020673,72.10417377340491 105.68542229259037,72.5195224834024 105.63488520556712,72.93487037910381 105.60961666202638,74.0424607865425 105.43273685735767,74.3539695453801 105.23058850917732,74.42319365178992 103.13329939680989,74.38858160136442 102.95641959217028,74.31935748366232 102.85534541803645,74.07707289350219" stroke="#4dd2ff" stroke-linecap="round" stroke-linejoin="round" stroke-width="0.5"><title>2022-08-31 5.1km</title></polyline><polyline fill="none" points="168.3483426636085,73.22314082180674 168.18638799712062,73.25483246914519 168.140115235321,73.85697278376028 168.04756971160532,74.11050498856639 167.86247866423219,74.1421964909241 166.9370234273083,74.0788134811155 166.7982051418221,73.95204739937617 166.7982051418221,73.69851498736534 167.145250855654,72.55761503276881 167.26093276022584,72.3040807981597 167.4922965694277,72.0188543881668 167.79306952143088,71.76531944949238 168.88047942484263,71.06809665917535 170.12984399459674,70.37087136271293 170.61570799403125,70.14902642456582 171.1478447552072,70.02225777468993 172.0501636111585,69.95887341862544 173.11443713362678,69.99056559926248 174.24811979880906,69.83210464438889 174.7108474172128,69.86379684576241 175.2661205593904,69.95887341862544 175.4743479876779,69.89548904185358 175.77512093968107,69.64195132776513 176.26098493902828,68.91302855347749 176.33039408182958,68.65948955510976 176.33039408182958,68.43764265973005 176.26098493902828,68.08902559723356 176.12216665357118,67.64533024773118 176.07589389168425,67.39178959240962 176.00648474891204,66.44100918309414 176.05275751074078,65.64868861535797 176.00648474891204,64.91975083437865 175.65943903505104,64.31758277521294 175.42807522584917,63.68371964074322 175.10416589290253,62.9864678002632 174.20184703698033,61.27502083790023 174.06302875143592,60.86300357306027 173.9473468468641,60.32421044459625 173.78539218037622,59.88049733269145 173.50775560928741,59.626946527234395 172.99875522902585,59.4367832056887 171.7031178973266,59.563558774170815 170.12984399459674,59.595252653278294 168.85734304389916,59.84880350009189 167.95502418788965,59.72202811813622 167.02956895099487,59.84880350009189 166.28920476153144,59.81710966238461 163.9987030502234,59.97557879930537 163.60538457447547,59.94388498227636 163.14265695604263,59.753721971370396 163.00383867049823,59.69033425973612 162.9575659086986,59.595252653278294 162.91129314681166,58.89798611536389 162.8187476231542,58.644434025583905 162.5411110520654,58.35918752827274 162.07838343363255,58.13732885153149 160.2968821026152,58.10563473418006 159.8110181032098,58.01055235095555 159.02438115185942,57.72530492140504 158.60792629528441,57.66191654694558 157.65933467744617,57.66191654694558 156.98837963072583,57.756999100980465 156.78015220238012,57.72530492140504 156.6644702977792,57.63022235169774 156.54878839314915,57.376668604672886 156.5025156312622,56.9329487496434 156.22487906026072,55.85533916114946 156.20174267937546,55.062975350010674 155.9472424891428,54.270608301856555 155.85469696548535,53.66840718018648 155.71587867997005,53.06620418871171 155.66960591814131,52.59077945371973 155.7390150608553,52.051963345118565 155.71587867997005,51.639926487376215 155.71587867997005,51.5131457397074 155.83156058460008,51.32297446273151 156.3868337267195,50.78415483204299 156.82642496426706,50.023465746227885 157.2197434399277,49.61142457899405 157.93697124850587,49.13599137518031 158.86242648540065,48.85073089352227 159.37142686569132,48.40699153249443 159.51024515120662,48.21681720983179 159.62592705586576,47.931555376184406 159.62592705586576,47.32933457172476 159.6721998176654,47.075767357848235 159.99610915061203,46.21997556329006 160.25060934075736,45.74453404567612 160.41256400721613,45.49096475978149 160.62079143550363,45.33248378765711 161.66192857699934,44.603469648223836 161.91642876717378,44.3182024997659 162.00897429088946,44.09632776096987 161.98583790991688,43.90614921133965 161.93956514811725,43.77936340807355 161.70820133885718,43.52579155271815 160.48197314998833,42.95525366606307 160.13492743615643,42.70168073325476 159.97297276969766,42.51150081603555 159.8110181032098,42.16283715015743 160.0192455315264,41.43381109597976 159.92670000786893,41.21193305726047 159.76474534141016,41.08514549258689 158.81615372357192,40.799873169045895 158.65419905708404,40.70478230122535 158.58478991434094,40.48290342846303 158.60792629528441,40.16593316993385 158.72360819991445,39.97575076606881 159.27888134197565,39.246716490291874 160.80588248287677,36.9645045180514 161.15292819673778,36.552435605059145 161.59251943422714,36.10866810430889 161.6850649579428,35.95017946496955 161.73133771980065,35.72829515245394 161.7544741006859,35.47471277015575 161.6850649579428,33.731324915526784 161.59251943422714,32.39999999999418 161.63879219611408,33.06566360020952 161.61565581522882,33.88981536818028 161.66192857699934,35.221130056204856 161.63879219611408,35.759992926963605 161.52311029151315,36.045272664152435 161.01410991116427,36.74262136602192 160.94470076845028,37.059597219820716 160.94470076845028,37.2814800090855 160.96783714933554,37.43996756042179 161.03724629210774,37.535060028894804 161.24547372045345,37.725244826229755 162.51797467115102,38.581074105997686 163.42029352713143,39.310110884020105 163.97556666927994,39.627082541323034 164.92415828705998,40.03914492139302 165.10924933446222,40.26102430184255 165.47943142917939,41.11684239147871 165.7570680002973,41.5289016062452 166.7982051418221,42.22623059050238 167.51543295042939,43.08204000814294 169.8753438044805,44.603469648223836 170.22238951834152,45.078913962992374 170.70825351768872,45.49096475978149 170.98589008871932,45.903014681098284 171.1478447552072,46.061495186862885 172.42034570596297,46.790503845899366 172.97561884808238,47.04407143282879 173.46148284742958,47.13915919241845 174.10930151326465,47.45611805438239 174.2943925606378,47.61459729113267 174.31752894155215,47.70968477106362 174.2249834178656,47.899859591023414 173.8085285612906,48.56546999225975 172.188981896732,51.67162166131311 171.74939065915532,52.43230428308016 171.5642996118404,52.84433945748606 170.89334456503275,53.89027096882637 169.96788932813797,55.98211707068549 169.1812523767876,57.50344551967282 168.51029733006726,58.644434025583905 168.25579713989282,59.24661969761655 168.02443333066185,59.563558774170815 167.46916018854245,59.97557879930537 167.0064325700805,60.894697239855304 165.80334076212603,63.01816112009692 164.83161276340252,65.01482983077585 164.04497581205214,66.21915975034062 162.84188400406856,68.4693350889138 162.49483829023666,69.32502871897304 161.96270152900252,70.21241071856639 161.5462466723984,71.00471264478983 161.31488286322565,71.38501641993935 160.94470076845028,72.36746438790578 160.32001848350046,73.60344024756341 160.2274729598139,73.98373892765085 160.2274729598139,74.20557948001078 160.27374572167173,74.30065392478718 161.0603826730221,74.64925982368004 161.73133771980065,74.8077168433083 162.332883623807,74.8077168433083 163.28147524158703,75.31477843647008 164.0681121929374,75.31477843647008 164.57711257328629,75.25139580972609 164.78534000154468,75.28308712568833 165.08611295351875,75.50492619207944 165.73393161941203,75.50492619207944 166.1041137141001,75.60000000000582 166.5899777135346,75.56830873589206 166.6593868562486,75.50492619207944 166.8676142845361,75.12463049436337 166.89075066553778,74.83940823176818 166.82134152270737,74.3323453959747 166.84447790365084,73.95204739937617 166.91388704642304,73.50836546096252 167.23779637931148,72.43084795690083 167.4922965694277,72.05054623218894 168.140115235321,71.44840030994965 168.94988856755663,71.03640465457283 169.82907104259357,70.4342555841431 170.91648094597622,69.89548904185358 171.7031178973266,69.8004124379222 172.1195727539598,69.86379684576241 172.14270913484506,69.95887341862544 172.1195727539598,70.02225777468993 171.772527040157,70.65610019599262 171.772527040157,70.90963658453256 171.8419361829001,71.32163250917802 171.81879980195663,71.67024376195332 171.7031178973266,71.89208696022979 171.37920856437995,72.11392990485183" stroke="#4dd2ff" stroke-linecap="round" stroke-linejoin="round" stroke-width="0.5"><title>2022-08-29 5.1km</title></polyline><polyline fill="none" points="44.3765781953698,88.96740640390635 44.331690330058336,88.96740640390635 44.13717624708079,89.21335201476177 43.97258740765392,89.60276491249533 43.837923811748624,89.80771858370281 43.70326021584333,89.88969995843217 43.25438156284508,89.91019529371988 43.05986747989664,90.05366254708497 42.95512912751292,90.23812020328478 42.91024126223056,90.58653948034771 42.83542815336841,90.68901555416232 42.76061504453537,90.73000596024212 42.64091407039086,90.73000596024212 42.35662425684859,90.64802513473114 42.01248395620496,90.66852034610929 41.59353054672829,90.5250537959073 41.29427811136702,90.60703470179578 40.99502567603486,90.73000596024212 40.90524994544103,90.75050115830527 40.1720814788423,90.42257758812775 39.78305331291631,90.42257758812775 39.09477271162905,89.97168127957411 38.9002586286515,89.88969995843217 38.72070716746384,89.88969995843217 38.57108094979776,89.99217660146678 38.49626784099382,90.09465316084243 38.092277053248836,91.07842387122218 37.46384693903383,92.32862135059986 36.73067847249331,94.21414152479701 36.62594012010959,94.60353889968974 36.44638865892193,95.0954075403206 35.95262214058312,96.28408212688373 35.81795854467782,96.48902488283784 35.578556596447015,96.5505076443078 35.458855622273404,96.63248461277544 34.680799290392315,98.41547042393358 34.29177112446632,99.60411355381075 34.067331797938095,100.19843089565256 33.87281771498965,100.60830328414158 33.783041984424926,100.8747196186232 33.72319149732357,101.24360284005525 33.768079362635035,102.04284609906608 33.693266253801994,102.35024599676399 33.31920070966589,103.25194801839098 33.19949973549228,103.6208242503053 32.85535943484865,104.46103828556807 32.57106962130638,105.11681118390698 32.00248999413452,106.59228767323657 31.83790115470765,106.96115408439073 31.32917201463715,108.4366088846582 31.194508418702753,108.7439931174813 30.551115682756063,110.52680681759375 29.54862002437585,112.96532706449943 28.067320469446713,116.98161004614667 27.93265687354142,117.22750074639043 27.8279185211577,117.35044591576298 27.558591329376213,117.45290013161139 27.438890355231706,117.57584508018044 26.840385484538274,119.09215620779287 26.39150683156913,120.34207457605225 25.897740313230315,121.53051000236883 25.733151473803446,121.98129290930956 25.628413121419726,122.24766386590636 25.493749525543535,122.37060411670973 25.38901117318892,122.3910941467766 22.591000902786618,121.94031271200947 22.231897980353097,121.91982260828081 21.633393109688768,121.98129290930956 21.244364943762776,122.06325326388469 20.885262021329254,122.20668375552486 20.00246733709355,122.69844419662695 19.58351392764598,123.06726326271746 19.104710031067953,123.59999999999854 19.2992241140455,123.39510152256844 19.598476549377665,122.98530356393894 19.957579471782083,122.65746423346718 20.451345990091795,122.37060411670973 20.765561047184747,122.22717381242546 21.393991161428858,122.04276318028133 22.082271762687014,121.94031271200947 22.321673710946925,121.94031271200947 25.134646603139117,122.32962404648424 25.41893641668139,122.30913400638383 25.568562634376576,122.24766386590636 25.628413121419726,122.18619369536464 26.15210488330922,120.75188116689242 26.34661896628677,120.34207457605225 26.675796645111404,119.37902381939057 27.334152002847986,117.76026227709372 27.51370346409385,117.51437262092804 27.842881142918486,117.3299550625743 27.93265687354142,117.20700987307646 28.531161744205747,115.56772916887712 28.710713205422508,115.1374144352958 28.875302044849377,114.64562436116103 29.234404967253795,113.78498709345149 29.952610812091734,111.8177940282767 30.296751112735365,111.01861303557234 31.089770066348137,108.94891552092304 31.299246771115577,108.4366088846582 31.76308804587461,107.00213917424117 32.04737785941688,106.36686877700413 32.46633126892266,105.21927538968157 32.94513516544248,104.11265753921907 33.37905119670904,102.98553673197603 33.693266253801994,102.02235274574923 33.70822887556278,101.85840579887008 33.70822887556278,101.20261586899142 34.05236917620641,100.28040548047284 34.15710752856103,99.82954460110341 34.30673374622711,99.37868210150918 34.605986181559274,98.66139751271112 35.00997696927516,97.37027491832123 35.17456580873113,96.96039195083722 35.32419202642632,96.67347307685122 35.41396775696194,96.59149613519548 35.69825757056242,96.5505076443078 35.81795854467782,96.4480363584371 35.877809031750076,96.32507070479915 36.32668768480653,95.23886886394757 36.64090274189948,94.37809846151504 37.01496828603558,93.4968274070925 37.46384693903383,92.32862135059986 38.017463944415795,91.11941415007459 38.31671637974796,90.40208233655721 38.91522125044139,89.15186565726617 39.4089877687511,88.27055788774305 39.87282904351014,87.22527785540296 40.845399458368775,85.4011408577353 41.428941707272315,84.39682939053455 41.56360530317761,84.10988178016123 41.89278298208956,83.6384664237703 42.23692328267498,83.00307770554355 42.50625047448557,82.40867889416404 42.77557766629616,81.89626386507734 43.17956845401204,81.30185980891838 43.50874613286578,80.6869560971245 43.58355924169882,80.60496870779025 43.748148081154795,80.56397499302693 44.31672770829755,80.64596240912215 44.55612965658656,80.64596240912215 45.379073853750015,80.5024843957508 46.845410786918364,80.40000000000146 47.1745884657721,80.42049688589032 47.44391565755359,80.5024843957508 47.54865400993731,80.58447185206023 47.65339236232103,80.7279497717027 47.90775693234173,81.5683171479468 48.67085064246203,83.00307770554355 48.89528996896115,83.5154882133429" stroke="#4dd2ff" stroke-linecap="round" stroke-linejoin="round" stroke-width="0.5"><title>2022-08-27 6.0km</title></polyline><polyline fill="none" points="87.75257731950842,114.82878563470149 87.05979381440557,114.62543770490447 87.01030927832471,114.6932203703036 86.93608247418888,115.09991589763376 86.83711340199807,115.26937213201018 86.68865979378461,115.33715458711958 85.99587628859445,115.50661062767904 85.89690721646184,115.43882822804153 85.79793814430013,114.59154636393941 86.16907216492109,113.71036955408636 86.41649484529626,113.33756285395066 86.81237113397219,112.82918900102959 87.99999999994179,111.98189647779509 89.1876288659405,111.27016808358894 90.10309278350906,110.9651408813952 90.67216494842432,110.9651408813952 91.31546391744632,110.8634650476888 92.23092783504399,110.8634650476888 93.49278350512031,110.6262212418078 94.68041237111902,110.49065323089599 95.17525773189845,110.35508513139212 95.32371134019922,110.25340899864386 95.52164948449354,110.08394866654999 95.79381443298189,109.64335115539143 95.81855670094956,109.40610595408361 95.79381443298189,109.03329151810613 95.49690721643856,107.20310184067057 95.49690721643856,106.3218936441699 95.39793814430595,105.47457454020332 94.90309278352652,104.72893086560362 94.77938144325162,104.2544289498328 94.33402061855304,103.20374227348657 93.54226804120117,101.64464901029714 93.27010309277102,100.66173636485473 93.02268041233765,100.22111883945763 92.67628865980078,99.916075389061 92.2061855669599,99.7466066115303 88.643298969022,99.98386286119057 88.0989690720744,100.11943773915118 87.7773195875634,100.11943773915118 87.52989690715913,100.18722514490946 87.01030927832471,100.0516503113322 87.1340206185414,99.5093500905059 87.40618556694244,98.8992606473621 87.90103092778008,98.1535933354753 88.37113402059185,97.23845251632156 88.643298969022,96.5944621119852 89.06391752572381,95.81489210532163 89.23711340199225,95.37426428370236 89.97938144323416,93.78121742668736 90.74639175250195,92.56100304830761 91.7855670102872,90.49340118656983 93.04742268036352,88.29019619170867 93.41855670098448,87.61228225409286 93.6164948453079,87.3072202593612 93.83917525768629,87.1716370064969 94.1608247422264,87.20553282806941 95.00206185565912,87.71396948605252 96.83298969070893,89.27316746558063 98.51546391748707,90.42561061261222 99.18350515459315,91.27299119436066 99.52989690718823,91.61194245776278 99.75257731956663,91.74752280801476 100.17319587623933,91.81531294982415 100.42061855667271,91.91699812108709 101.53402061853558,92.86605731588497 102.12783505150583,93.44226970829186 102.6969072164793,93.91679635897162 105.04742268039263,95.47594771020522 106.40824742263067,96.5944621119852 107.22474226800841,97.17066414687724 108.9814432989806,98.18748736240377 111.33195876286482,99.37377481382282 112.22268041232019,99.98386286119057 113.31134020612808,100.45837454638968 115.73608247423545,101.67854246665956 118.0618556701229,102.5597703896783 119.49690721646766,103.20374227348657 120.78350515462807,103.6104603279091 121.60000000000582,103.94939143076772 120.16494845357374,103.47488773176156 119.32371134019922,103.10206263529835 118.1608247422555,102.62755699791887 116.94845360826002,102.05137012177147 114.35051546388422,101.0006722859689 113.2865979381022,100.45837454638968 112.04948453602265,99.916075389061 107.96701030925033,97.47571163492103 107.15051546387258,97.06898155108502 106.1608247422264,96.3910963057424 104.94845360826002,95.34036979707889 103.66185567007051,94.56079507693357 102.44948453598772,93.74732267973013 102.0536082474282,93.40837490600825 101.36082474220893,92.62879292432626 100.37113402059185,91.88310306955827 99.65360824740492,91.54415224940749 99.15876288656727,91.1374105339928 98.51546391748707,90.42561061261222 96.88247422673157,89.27316746558063 95.00206185565912,87.74786521897477 94.1608247422264,87.27332445450884 93.78969072160544,87.20553282806941 93.54226804120117,87.40890764078358 92.94845360820182,88.59525674082397 91.73608247414813,90.69677277546725 90.67216494842432,92.83216241939226 90.42474226799095,93.17111113481224 89.41030927828979,95.00142462663644 88.24742268040427,97.57739403125015 87.30721649480984,99.44156246328203 86.88659793810803,100.01775658903352 86.36701030927361,100.32279988999653 85.5010309277859,101.98358332520002 84.83298969067982,103.16984906625294 84.5360824741656,103.6443534631544 84.16494845354464,104.45778704658733 83.62061855671345,105.3728960150911 83.00206185563002,106.49135704962828 82.23505154636223,107.77927440675558 81.96288659784477,108.45712243532762 81.56701030925615,109.13496824898175 81.09690721644438,110.11784074408934 80.77525773190428,110.93124894239008 79.90927835050388,112.2869221848814 79.38969072161126,113.54091204612632 78.77113402055693,114.45598094450543 78.49896907212678,115.1338071556238 78.39999999999418,115.40493701996456 78.49896907212678,115.57439300515398 78.82061855669599,115.67606652982067 79.98350515458151,116.28610663145082 80.7505154638784,116.31999769566755 81.17113402058021,116.55723498968291 81.64123711333377,116.72669003359624 82.18556701025227,116.65890803260845 82.87835051541333,116.387779807279 83.1257731958176,116.31999769566755 83.81855670100776,116.72669003359624 85.30309278349159,116.82836299348855 85.5010309277859,116.6927990358381 85.59999999997672,116.45556189682975 85.62474226797349,116.28610663145082 85.57525773192174,115.20158965494193 85.69896907216753,114.62543770490447 85.92164948445861,113.98150127890403 86.14432989686611,113.54091204612632 86.39175257729948,113.2358881829714 86.86185567005305,112.76140572661825 87.25773195872898,112.45638071722351" stroke="#4dd2ff" stroke-linecap="round" stroke-linejoin="round" stroke-width="0.5"><title>2022-08-26 5.1km</title></polyline><polyline fill="none" points="157.45331961792544,123.48978038740461 157.349862827803,123.53701737969823 157.10846365091857,123.58425434878882 156.46473251251155,123.50552605408302 155.99342935762252,123.59999999999854 155.76352537963248,123.5685086950034 155.22325103133335,123.36381496152899 154.37260631273966,123.09613788482966 154.26914952263178,123.0016634449421 154.20017832922167,122.90718891251163 154.16569273253845,122.7024937744427 154.18868313034181,122.54503568006476 154.30363511932956,122.23011871964263 154.407091909452,122.04116804940713 154.6829766830342,121.6317736597266 154.86689986543206,121.30110769080056 155.08530864451313,120.79723355652823 155.4186694126256,119.9154474824245 155.70604938513134,119.41156610328471 155.94744856201578,119.12813166978594 156.17735254003492,118.79745711042779 156.5911797004228,117.88415957585676 156.80958847951842,117.52198746720387 157.22341563992086,116.71890532755788 157.5797668058076,116.13627291969897 157.6602331981121,115.93156339960115 157.67172839702107,115.82133501637145 157.6487379992177,115.77409424207144 157.52229081133555,115.71110650703486 157.24640603772423,115.71110650703486 156.154362142217,115.83708193599887 155.76352537963248,115.83708193599887 155.61408779391786,115.82133501637145 155.5451166005223,115.75834731217765 155.4761454071122,115.64811873080907 155.44165981042897,115.27019120888144 155.43016461152,115.22295016443968 155.36119341812446,115.12846800603438 155.20026063354453,115.09697393270471 154.88989026322088,115.09697393270471 154.6599862852163,115.04973280331615 154.2921399204206,114.8450209750954 153.4989711963426,114.60881447913562 153.01617284254462,114.56157311041898 152.797764063449,114.57732023591234 152.4988888920343,114.65605582463468 152.40692730086448,114.65605582463468 152.28048011292412,114.56157311041898 152.24599451622635,114.46709030363127 152.1080521294498,113.7584662996378 152.1080521294498,113.31754206727055 152.00459533935646,112.97110018358217 151.91263374815753,112.23097016857355 151.93562414594635,111.72704860768863 151.98160494156764,111.60106780569913 152.314965709651,111.2231244115901 152.48739369315444,110.87667499809322 152.78626886456914,110.57746768408106 153.01617284254462,110.38849416493031 153.4300000029325,110.27825944098004 153.56794238973816,110.21526811351214 153.65990398095164,110.13652889629157 153.76336077104497,109.99479814316146 153.7863511688338,109.90031085857481 153.76336077104497,109.53810874275223 153.80934156663716,109.33338520547841 153.98176955012605,108.97118095866608 154.1771879314474,108.6877158158095 154.28064472154074,108.59322724954836 154.86689986543206,108.27826469285355 154.9818518544489,108.12078302844748 155.0278326500411,107.97904931042285 155.0278326500411,107.88456004927866 154.99334705332876,107.79007069544605 154.88989026322088,107.67983299888147 154.18868313034181,107.3491191524372 154.05074074353615,107.27037759315135 153.95877915233723,107.17588763702952 153.91279835674504,107.08139758827019 153.88980795892712,106.9554107124859 153.93578875453386,106.671939639622 153.9242935556249,106.56170066384948 153.80934156663716,106.45146156197734 153.45299040075042,106.3097253885062 153.3725240084459,106.23098297983961 153.33803841174813,106.16798900654248 153.33803841174813,106.04200093643158 153.38401920734032,105.88451561718102 153.61392318533035,105.47505258242745 154.05074074353615,104.92384959567426 154.28064472154074,104.51438247856277 154.4875583017274,104.30964826747368 154.87839506434102,104.0576671028175 155.23474623022776,103.91592740810302 155.4646502082178,103.86868079683336 155.82100137413363,103.88442966983712 156.41875171691936,103.85293192129757 158.315459535399,103.88442966983712 158.717791496907,103.83718304317881 159.2580658452207,103.82143416246981 160.2006721549842,103.72694082416274 160.87888889007445,103.58520064294134 161.39617284058477,103.33321758368402 162.08588477458397,102.82924948829168 162.3617695481662,102.70325705256255 162.71812071408203,102.46702079155511 163.15493827228784,101.97879734999151 163.52278463705443,101.45907290340983 163.69521262055787,101.1598363443045 163.75268861505901,100.98659370110545 163.79866941066575,100.16762426184141 163.925116598577,99.82113509582268 164.2239917699626,99.41164629310515 164.25847736667492,99.30139901042276 164.28146776446374,99.15965231875452 164.3389437589649,98.90765768531128 164.3389437589649,98.56116398814629 164.32744856005593,98.48241524688638 164.1550205765816,97.69492429364618 164.06305898535356,97.1121768443627 163.8676406040613,96.48217563694197 163.47680384146224,95.77341935433651 163.10895747666655,95.31666254282754 163.03998628328554,95.19066028269299 162.78709190746304,94.13538488489576 162.33877915037738,92.90684075598256 162.2468175591639,92.51307329677365 162.22382716137508,92.30831358198338 162.20083676358627,91.86729117954383 162.21233196246612,91.00099129719456 162.315788752574,90.46545656456146 162.40775034378748,90.19768808188383 162.41924554266734,89.96142115553084 162.45373113939422,89.88266538466269 162.6146639239887,89.63064648523141 162.74111111187085,89.36287568223634 162.9135390953743,89.14235799146263 163.01699588546762,89.06360155100992 163.13194787446992,89.03209895684267 163.44231824476446,88.96909373752715 164.23548696887156,88.35479068967106 165.2125788753474,87.83499274343194 165.76434842252638,87.59872002249176 166.2701371741714,87.45695611180417 166.86788751694257,87.33094357157097 167.3276954729372,87.2836888265374 167.695541837762,87.25218565026444 168.62665294864564,87.12617284219596 169.17842249582463,87.09466961446014 170.00607681661495,87.20493086658098 170.83373113741982,87.14192445224762 171.14410150771437,87.04741475346964 171.59241426482913,87.03166312801477 172.0637174197036,87.03166312801477 172.4775445801206,87.14192445224762 173.30519890089636,87.09466961446014 173.40865569100424,87.03166312801477 173.6155692711909,86.82689176247368 174.09836762497434,86.65362334396923 174.88004115018703,86.57486486891139 175.42031549848616,86.3700925323792 175.604238680884,86.38584426600573 176.02956104018085,86.32283731595089 176.31694101265748,86.21257505422545 176.5928257862688,86.00780194759864 177.16758573128027,85.37772812016192 177.66187928395811,84.98392988527485 178.39757201356406,84.16482440010441 178.84588477066427,83.36146417824057 179.3056927266589,81.97525823754404 179.6965294892434,80.9986011648216 180.00689985953795,80.44725812190154 180.05288065515924,80.40000000000146 180.08736625184247,80.43150541718933" stroke="#4dd2ff" stroke-linecap="round" stroke-linejoin="round" stroke-width="0.5"><title>2022-08-25 5.1km</title></polyline><polyline fill="none" points="47.82668482669396,168.86410625372082 47.657895184878726,168.7870383647678 47.292184294201434,168.82557231240207 47.179657866363414,168.94117411763 47.123394652386196,169.3265130592481 46.98273661750136,169.59624994374462 46.81394697568612,169.71185137123393 45.941867159621324,169.94305405628984 45.71681430382887,170.09718905371847 45.51989305502502,170.32839136106486 45.463629841047805,170.67519439694297 45.29484019923257,171.09906408186362 44.92912930861348,171.44586598454043 44.479023596970364,171.60000000000582 43.46628574602073,171.52293300481688 42.762995571654756,171.09906408186362 42.53794271592051,171.0605305055651 41.10323076037457,171.33026540697028 40.51246701402124,170.90639613765234 39.86544005363248,170.63666075150832 39.1058866653475,170.67519439694297 38.458859705075156,170.4439924296894 37.3898586400901,169.78891895807465 37.22106899827486,169.6347837591602 37.16480578429764,169.48064845964836 37.16480578429764,169.3265130592481 37.61491149588255,168.24756243624142 38.37446488410933,166.86033295404923 39.55599237693241,164.27852302714018 40.7656514767441,162.00496551003016 41.553336471901275,160.65623459177732 42.59420592995593,158.65239155635936 43.55068056698656,157.18803395582654 44.900997701566666,154.52904559488525 45.80120912473649,152.91051626236003 46.44823608506704,151.9856373708608 47.06713143840898,151.63880685143522 47.179657866363414,151.48465979019238 49.09260714042466,147.59241310269863 50.133476598362904,145.24161913624266 51.3431356982328,143.0834925686504 51.93389944458613,141.85026851992006 52.27147872821661,141.04096173304424 52.58092640497489,140.5784994650603 54.38134925113991,137.6495507066138 54.38134925113991,137.34123819487286 54.29695443023229,137.14854267021292 53.39674300706247,136.6860727687017 52.299610335263424,136.33921974766417 51.230609270278364,135.72259089448198 50.724240344774444,135.3371970425651 50.47105588205159,135.1059604290349 50.189739812281914,134.6820260487002 49.6833708868362,134.29663049617375 49.12073874735506,133.6414566112653 47.48910554300528,132.71650214552938 46.25131483626319,131.8300840446318 45.12605055735912,130.71242168993922 44.02891788550187,129.86453636990336 43.74760181567399,129.36351179334451 43.41002253210172,128.5541621515149 43.3256277111941,128.43854054738767 43.213101283239666,128.40000000000873 42.9317852135282,128.47708108834922 42.622337536886334,128.70832420221996 42.22849503927864,129.17080974955752 41.72212611377472,129.9030766779324 41.24388879525941,130.44264032789215 40.96257272554794,130.6738815142744 40.70938826282509,130.78950202239503 40.231150944309775,130.48118054142105 39.893571660562884,130.48118054142105 39.21841309330193,131.1363632066641 39.0777550584171,131.40614377503516 38.93709702359047,131.90716401176178 39.30280791420955,133.0248207038676 39.274676307162736,133.37167860020418 39.02149184449809,133.71853598630696 38.627649346890394,134.02685323466721 37.72743792377878,134.48932835116284 37.44612185400911,134.87472358878586 36.71470007277094,136.95584698817402 36.65843685885193,137.34123819487286 36.68656846578233,137.8807848259894 36.48964721697848,138.3817913067469 36.292725968232844,138.65156358624517 35.89888347056694,138.9598743849201 34.91427722654771,139.11402963311411 34.407908301102,139.30672355172283 33.31077562912833,140.50142233220686 32.83253831061302,141.23365407715028 32.12924813636346,142.08149852021597 32.01672170846723,142.35126656740613 31.98859010147862,142.54395784086955 32.07298492238624,143.81571629623068 32.43869581306353,145.97383616297157 32.46682742005214,146.78312602141523 32.43869581306353,147.36118850571802 32.49495902698254,147.70802531602385 32.720011882775,148.32462283063796 32.804406703682616,148.8641443335364 32.7762750966358,149.4422017168108 32.60748545487877,149.75049840849533 32.46682742005214,149.90464660337602 32.15737974329386,150.0973317049793 31.707274031825364,150.17440570161853 29.934982792532537,150.13586870649306 27.853243876597844,149.63488719647285 27.121822095417883,149.51927592753782 26.22161067224806,149.51927592753782 25.18074121430982,149.67342427345284 23.183397119282745,150.32855361931433 22.001869626459666,150.82953365588037 20.370236422109883,151.21490219056432 18.682340003782883,151.29197582195047 17.557075724878814,151.25343900934968 16.825653943640646,151.36904942816182 16.45994305302156,151.67734360106988 16.12236376933288,152.64076029371063 15.72852127160877,153.45002727405517 15.587863236898556,153.912464301844 15.165889132302254,154.45197302140878 14.85644145560218,154.95294429879868 14.040624853398185,156.7256033508893 13.759308783628512,157.11096225128858 13.618650748801883,157.41924891833332 14.068756460328586,156.18609983249917 15.02523109735921,154.41343672516814 15.503468415874522,153.8353915267362 15.841047699621413,153.64270947911427 18.710471610771492,153.4114908141928 21.10165820340626,153.45002727405517 22.198790875263512,153.257344911588 24.336793005117215,153.18027192247973 27.375006558082532,152.8719797142694 29.372350653109606,152.98758933960926 31.707274031825364,152.79490659922885 33.25451241520932,152.75637003233714 34.37977669411339,152.64076029371063 35.53317257994786,152.67929687950527 36.60217364487471,152.52515049833164 38.76830738171702,152.4480772700481 39.94983487459831,152.33246738022717 41.69399450678611,152.33246738022717" stroke="#4dd2ff" stroke-linecap="round" stroke-linejoin="round" stroke-width="0.5"><title>2022-08-20 4.1km</title></polyline><polyline fill="none" points="105.31146541470662,168.2258615808678 105.26014690834563,168.54218930576462 105.10619138897164,168.71792672974698 104.41339155234164,168.71792672974698 103.56663619633764,168.85851656558225 103.31004366424168,169.0694011470623 103.23306590458378,169.20999075309373 103.10476963862311,169.77234825878986 102.95081411930732,169.94808467793337 102.79685859999154,169.98323194446857 102.07839951012284,169.98323194446857 101.87312548438786,170.05352646042593 101.74482921836898,170.1589681912301 101.5652144459309,170.4401458875218 101.43691817979561,171.2133826573554 101.35994042019593,171.4594119557878 101.07768863486126,171.60000000000582 99.92302224040031,171.49455897539156 99.2045631504734,171.14308852037357 98.99928912479663,171.17823559166573 97.92160048993537,171.56485299751512 97.74198571743909,171.52970598939282 97.25445990648586,171.2133826573554 96.81825260183541,171.0025001775357 96.53600081650075,170.93220597167965 96.04847500548931,170.9673530774453 95.84320097981254,170.93220597167965 94.35496429359773,170.1589681912301 94.22666802752065,170.05352646042593 94.12403101468226,169.84264284365054 94.14969026792096,169.70205365105357 94.81683085137047,168.47189429601713 95.20171964954352,167.59320473560365 96.1511120183859,165.97640656678414 96.79259334865492,164.5704852383351 98.07555600919295,162.285843482372 99.38417792296968,160.07147524002357 99.69208896148484,159.3684964280983 100.41054805135354,157.96253191230062 101.07768863486126,156.55655820721586 102.07839951012284,154.93967708584387 102.20669577619992,154.37728080349916 102.07839951012284,154.1663818185334 100.46186655783094,154.30698116484564 99.48681493580807,154.30698116484564 99.02494837797713,154.34213098709006 98.33214854128892,154.34213098709006 98.99928912479663,154.37728080349916 100.30791103851516,154.1663818185334 102.386310548638,153.95548262678494 102.87383635964943,153.74458322834107 103.20740665140329,153.46338370868762 103.54097694315715,152.97128366476682 104.41339155234164,151.42467619768286 105.74767271924065,148.50718183879508 106.79970210097963,146.5738806455338 107.15893164591398,146.0114624902344 107.38986492477125,145.44904286437668 108.44189430651022,143.37510778444994 109.75051622022875,141.09024090167077 109.82749397988664,140.9144809053687 109.85315323306713,140.633264612552 109.67353846057085,140.422352151596 109.339968168817,140.28174372955982 108.44189430651022,140.03567876960733 107.800412976183,139.71930912177777 107.23590940557187,139.26232992000587 106.44047255598707,138.73504501934804 106.08124301099451,138.24291127912875 105.5167394404416,137.7507764128095 105.26014690834563,137.36409822793212 103.9002064880915,136.55558704970463 103.05345113214571,135.95798987758462 102.48894756147638,135.64161423202313 101.71916996518848,134.79794356845377 100.51318506425014,133.98942274405272 100.23093327891547,133.60273779710406 99.89736298721982,132.86451914969075 99.76906672114274,132.65359907076345 99.56379269546596,132.54813895377447 99.43549642938888,132.54813895377447 99.17890389729291,132.7239057867264 98.87099285871955,133.00513242064335 98.17819302203134,134.02457588654943 97.58803019818151,134.62217843036342 97.51105243852362,134.65733146943967 97.07484513393138,134.48156621654925 96.81825260183541,134.44641314868932 96.48468231008155,134.72763753052277 96.2280897780438,135.2197793138912 96.1511120183859,135.50100268448296 96.1767712715664,135.67676710447995 96.35638604400447,136.09860112628667 96.38204529724317,136.27436505786318 96.35638604400447,136.83680867383373 96.25374903122429,137.11802993020683 96.125452765089,137.36409822793212 95.89451948628994,137.5398611255223 95.45831218169769,137.82108146263636 94.73985309177078,138.0671489560773 94.38062354677822,138.38352103403304 93.68782371009002,140.21143948397366 93.61084595043212,140.52780840799096 93.63650520367082,141.0199369204347 93.58518669725163,141.23084879531234 93.40557192481356,141.61752002885623 93.20029789907858,141.86358317921986 92.96936462022131,142.0393423999485 91.84035747894086,142.3205568544654 91.4811279339483,142.56661920054466 90.32646153942915,143.97268434973375 89.58234319626354,144.78116764870356 89.45404693030287,145.02722717994766 89.42838767712237,145.1678324999375 89.45404693030287,145.8005553028488 89.35140991740627,146.53872955388215 89.55668394308304,148.12052299019706 89.71063946239883,148.85868927986303 89.78761722205672,149.80775650141004 90.19816527335206,151.42467619768286 90.30080228624865,151.67072812952392 90.45475780556444,151.7761788713542 90.89096511015669,151.84647933694941 91.63508345326409,151.67072812952392 92.09695001103682,151.67072812952392 93.27727565867826,151.8816295612487 94.63721607887419,152.30343180446653 95.07342338346643,152.37373209804355 96.1511120183859,152.37373209804355 96.8695711082546,152.23313148811576 97.51105243852362,151.98708019967307 98.87099285871955,150.93257148980047 99.40983717620838,150.5107665584801 99.58945194864646,150.1241113114229 99.66642970830435,149.3156480944599 99.56379269546596,148.12052299019706 99.61511120182695,147.55810887891857 100.1026370128966,145.97631130674563 100.35922954499256,145.48419413402735 100.56450357066933,144.88662176785874 101.02637012844207,144.1132903591788 101.35994042019593,143.3399561700353 101.539555192634,142.74237784683646 101.5908736991114,141.96903872894472 101.64219220553059,141.7932794506778 102.46328830823768,141.26600075440365 102.61724382755347,141.26600075440365 103.00213262572652,141.51206430685124 103.25872515776427,141.51206430685124 103.41268067708006,141.4066085331433 103.874547234911,140.5981125502003 104.49036931199953,139.684156910007 106.26085778349079,137.29379302883171 106.87667986057932,136.6258924901922 107.38986492477125,136.16890671617875 107.7747537230025,135.92283705108275 107.90304998902138,135.74707283222233 107.85173148260219,135.29008519093622 107.69777596334461,135.0440145204484 107.51816119084833,134.93855557551433 107.23590940557187,134.93855557551433 106.51745031558676,135.39554396360472 106.00426525139483,135.5361555800191 105.5167394404416,135.50100268448296 105.4397616807837,135.32523812094587 105.54239869362209,135.079167490665 106.02992450463353,134.44641314868932 106.26085778349079,133.74335058545694 106.3378355432069,133.46212491663755 106.2865170367877,133.00513242064335 106.1838800238911,132.54813895377447 105.92728749179514,132.19660485697386 105.5167394404416,131.77476318227127 105.41410242760321,130.36861829145346 105.4397616807837,130.26315705409797 105.5167394404416,130.0170806324022 105.90162823855644,129.4546191826521 106.00426525139483,129.17338790628128 106.13256151747191,129.03277213015826 106.38915404956788,128.89215626218356 107.54382044402882,128.6460782719223 108.13398326793686,128.6109242502862 108.85244235786377,128.75154030212434 109.54524219461018,129.03277213015826 109.77617547346745,129.03277213015826 109.98144949908601,128.96246420760872 110.64859008259373,128.40000000000873" stroke="#4dd2ff" stroke-linecap="round" stroke-linejoin="round" stroke-width="0.5"><title>2022-08-19 4.3km</title></polyline><polyline fill="none" points="181.81806602462893,128.40000000000873 181.74300995809608,128.42570251507277 181.6116618416563,128.57991751746158 181.48031372515834,129.01685920318414 181.34896560871857,129.1453712327202 181.1237974090909,129.27388315727876 180.52334887671168,129.2481807807926 180.29818067708402,129.32528789773642 180.26065264377394,129.47950201829372 180.22312461052206,129.94214347284287 180.18559657724109,130.17346368990547 180.12930452733417,130.27627256611595 179.94166436095838,130.37908137514023 179.62267607814283,130.40478356684616 178.70323926300625,130.27627256611595 177.8963865475962,130.4304857544339 177.57739826475154,130.40478356684616 176.05751291720662,130.07065474656702 175.23189618517063,129.7108229156147 174.91290790235507,129.63371598764206 174.70650371938245,129.68512061046204 174.5751556029427,129.73652521660551 174.34998740325682,129.96784573595505 174.2374033034721,130.14776146040822 174.01223510384443,130.81601806383696 173.82459493746865,131.25295353903493 172.99897820537444,132.89787620874995 172.71751795592718,133.6432261312293 172.15459745677072,135.33952658457565 171.310216708167,137.44702591239184 171.19763260832406,137.65263409144245 171.10381252516527,137.72973708929203 170.70976817575865,137.83254102765932 170.65347612588084,137.93534489886952 170.35325185972033,138.91197832475882 169.94044349368778,139.60589839074237 169.752803327312,140.1199112811446 169.54639914433938,140.55682091755443 169.13359077827772,141.5848388055747 169.021006678493,142.04744466372358 168.79583847886533,142.6128499765182 168.51437822930166,143.33245379957953 168.49561421264661,143.6408544303995 168.55190626258263,143.97495443173102 168.57067027917947,144.36045355172246 168.55190626258263,144.74595172709087 168.51437822930166,144.87445090895926 167.83887363041868,146.36503374947642 167.59494141413597,147.1360193328146 167.05078493163455,148.39528766079457 166.90067279856885,148.93497100184322 166.01876401665504,151.0422882263374 165.56842761739972,152.37862111075083 165.30573138446198,152.99538630640018 165.04303515152424,153.71494264570356 164.83663096855162,154.40879742791003 163.87966612007585,156.8244161344046 163.5606778372312,157.77523460282828 163.4105657041655,158.08360692631686 162.94146528825513,159.23999775691482 161.64674814033788,162.68342234425654 161.23393977430533,163.65990216976206 161.1213556744915,163.81408264093625 160.7273113251431,164.0196563675272 160.61472722532926,164.19953315796738 160.37079500904656,164.84194858813134 159.6577623768244,166.48652013854007 159.48888622710365,167.0004452233261 159.09484187775524,167.95120220542594 158.32551719565527,169.9297861574596 158.2504611290642,170.00687334043323 158.04405694606248,170.08396048560098 157.29349628061755,169.9297861574596 156.2427113489539,169.82700318809657 154.08484943577787,169.51865387735597 153.25923270377098,169.59574126168445 152.3960879384831,169.82700318809657 152.07709965566755,169.9811776169372 151.58923522307305,170.26383034407627 150.7823825077503,170.85482986042916 150.18193397537107,171.60000000000582 150.7260904578725,170.93191659019794 151.25148292366066,170.4693956450792 151.94575153919868,170.1096561922459 152.99653647089144,169.67282860829437 153.54069295333466,169.59574126168445 154.76035403471906,169.57004547111865 155.69855486651068,169.74991591708385 158.0065289128397,170.00687334043323 158.1941690791573,169.9811776169372 158.36304522890714,169.85269893679651 158.7383255616587,168.6963860946562 159.3200100773538,167.28310330452223 159.63899836016935,166.15246793338156 159.84540254322928,165.6642365117732 160.12686279273476,165.12461054656887 160.57719919201918,164.0453530644445 160.74607534176903,163.86547609776608 161.17764772442752,163.63420540990774 161.2714678075572,163.50572154755355 161.96573642315343,161.80972473228758 162.62247700543958,159.85673605826742 162.978993321507,159.11151030648034 163.54191382063436,157.7238391568826 163.84213808679488,156.7730203778483 164.46135063580004,155.23113987444958 164.79910293527064,154.2289094448497 165.32449540111702,152.99538630640018 166.0938200831879,150.70820323184307 166.50662844922044,149.83443912326766 167.25718911466538,147.75280507926072 167.4073012477602,147.47011191230558 167.76381756388582,146.44213247786683 168.42055814611376,144.8230512487935 168.49561421264661,144.48895304839243 168.4393221627688,144.05205433131778 168.42055814611376,143.5380542873172 168.55190626258263,143.07545281200146 168.72078241233248,142.68995054352854 168.85213052877225,142.27874708273157 169.09606274505495,141.63623952367925 169.22741086152382,141.35353536650655 169.73403931068606,139.83720439922763 170.55965604266385,137.93534489886952 170.70976817575865,137.7811390668794 171.1225765417912,137.62693308373855 171.2163966249791,137.49842798234022 171.42280080800992,136.83019976304786 172.36100163983065,134.54278167977463 173.0740342719946,132.66655999765499 173.37425853818422,132.04971510499308 174.46257150309975,129.58231134798552 174.6877397027274,129.2481807807926 174.85661585244816,129.2481807807926 175.15684011863777,129.42809732822934 175.40077233492048,129.63371598764206 175.7572886510461,129.81363209417032 176.07627693383256,129.94214347284287 176.50784931652015,129.83933437826636 176.84560161596164,130.1220592266036 177.220881948655,130.32767697902455 177.4085221150599,130.35337917914148 177.8025664644083,130.07065474656702 178.3842509801034,129.89073893395835" stroke="#4dd2ff" stroke-linecap="round" stroke-linejoin="round" stroke-width="0.5"><title>2022-08-18 5.1km</title></polyline><polyline fill="none" points="16.517590361458133,202.11970370467316 16.575421686764457,202.23060588176304 16.55228915665066,202.3256647897215 16.529156626507756,202.37319420879794 16.286265060247388,202.4840960959773 15.939277108438546,202.5949978563367 15.80048192772665,202.6742133218213 15.707951807242353,202.78511486475327 15.65012048195058,203.02276060105214 15.615421686743503,203.10197571711615 15.534457831337932,203.19703377089172 15.326265060240985,203.24456276284764 15.199036144593265,203.21287677082728 14.990843373496318,203.11781873252767 14.817349397591897,203.08613269906346 14.655421686766203,203.00691757009918 14.28530120481446,203.13366174537077 14.11180722892459,203.21287677082728 14.053975903603714,203.22871976812894 13.857349397585494,203.10197571711615 13.47566265061323,202.97523150039342 13.186506024110713,202.9910745365487 13.013012048177188,202.88017322913947 12.700722891575424,202.76927179492486 12.39999999999418,202.51578232616885 12.411566265072906,202.38903734327323 12.469397590364679,202.3256647897215 12.793253012059722,201.6602504769471 12.966746987949591,201.4067581091076 13.140240963868564,201.07404837063223 13.290602409644634,200.72549408693885 13.984578313262318,199.41048255495843 14.319999999992433,198.8401105624289 14.666987951801275,198.22220378449128 14.979277108432143,197.55676131240034 15.765783132519573,196.00404445122695 15.92771084337437,195.7980699384425 16.17060240964929,195.38611960031267 16.45975903615181,195.10092218709906 16.61012048192788,194.89494575587014 16.725783132525976,194.6414357013855 17.084337349398993,194.03934666555142 17.350361445802264,193.5323214197706 17.581686746983905,192.83515737768175 17.70891566267528,192.59748667216627 18.09060240961844,192.02707460188685 18.333493975922465,191.59926334701595 18.69204819278093,190.83870534420566 19.443855421675835,189.5710954149472 19.61734939760936,189.31757144042058 19.69831325301493,189.30172616997152 20.21879518071364,189.53940495441202 21.271325301204342,190.44257902156096 21.814939759060508,190.82286032239062 22.092530120484298,191.1872951694022 22.24289156627492,191.32989973666554 22.358554216873017,191.4249693316815 22.647710843375535,191.5200388334706 22.879036144557176,191.64679802415048 23.202891566281323,191.90031590836588 23.630843373481184,192.29643627546466 23.943132530112052,192.5024182268171 24.764337349421112,193.10451680635015 25.66650602410664,193.7224561976327 26.267951807240024,194.05519116178766 26.742168674696586,194.34039165082504 26.904096385551384,194.46714715443522 27.470843373477692,194.76819081149006 27.771566265058937,194.9741675119949 28.384578313256497,195.32274246985617 28.720000000001164,195.43365242098662 29.599036144572892,195.90897934587701 30.76722891567624,196.36845982508385 31.241445783132804,196.54274495453137 31.65783132528304,196.76456193892227 32.421204819271225,197.00222243056487 32.664096385546145,197.09728646412987 33.26554216867953,197.43000984760147 34.572530120480224,197.98454628296167 34.78072289157717,198.0320778298992 35.474698795194854,198.28557901986642 35.85638554216712,198.50739201743272 36.37686746988038,198.68167330244614 36.93204819277162,198.9193290953699 37.27903614458046,199.10945331032417 37.59132530121133,199.23620257990115 38.19277108434471,199.41048255495843 38.736385542171774,199.72735443447164 39.465060240981984,200.04422527852876 39.719518072291976,200.18681682054012 40.575421686749905,200.51952960310882 41.00337349397887,200.64627702956204 41.477590361464536,200.88392800759175 43.35132530120609,201.48597454522678 43.77927710843505,201.67609372791776 44.23036144579237,201.92958539167012 44.79710843374778,202.13554688055592 45.36385542168864,202.42072360453312 46.23132530119619,202.70589948984707 46.61301204818301,202.89601628084347 47.2375903614593,203.14950475565274 47.53831325301144,203.19703377089172 47.88530120482028,203.3713066275086 48.23228915662912,203.45052145884983 48.89156626506883,203.94165196865652 49.15759036145755,204.05255206213042 49.86313253012486,204.24266621297284 51.28578313252365,204.81300642919814 51.59807228916907,204.86053462917334 51.73686746988096,204.90806280581455 52.037590361447656,205.0664898930845 52.3845783132565,205.3199726943567 53.06698795182456,205.57345483303652 53.448674698811374,205.66851046420197 54.30457831325475,206.12794470152585 55.264578313261154,206.52400695213146 55.60000000000582,206.69827383002848" stroke="#4dd2ff" stroke-linecap="round" stroke-linejoin="round" stroke-width="0.5"><title>2022-08-17 4.3km</title></polyline><polyline fill="none" points="114.51325095063657,180.78720839176094 114.41263915901072,180.87908563793462 113.82573704083916,180.90205494007387 113.55743892965256,180.9709628240671 113.4568271379685,181.13174775526568 113.35621534628444,181.5681630702311 113.23883492266759,181.61410144557885 112.66870143645792,181.7059781513526 112.43394058916601,181.79785479708517 112.29979153358727,181.95863878262753 112.2327170057979,182.09645348101913 112.14887384604663,182.57880386148463 112.06503068632446,182.69364894623868 111.99795615853509,182.71661795196997 111.36074814447784,182.6706799368112 110.70677149857511,182.53286580130225 110.27078706791508,182.6477109236439 109.91864579703542,182.80849393723474 109.80126537338947,182.80849393723474 109.18082599132322,182.4180205852026 109.01313967187889,182.3491134105425 108.7280729287013,182.39505153070786 108.62746113704634,182.3491134105425 108.4765434495057,182.2572371250717 107.77226090771728,181.88973138277652 107.4704255326651,181.86676224194525 107.33627647708636,181.95863878262753 106.2295467685326,184.16365774563747 105.7432564420451,185.2661542584683 104.9886680044292,187.47112134790223 104.63652673354954,188.29797509113268 104.55268357376917,188.66546408277645 104.43530315012322,188.96404818122392 104.31792272650637,189.19372782550636 104.21731093485141,189.30856750687235 103.94901282366482,189.37747127072362 103.78132650419138,189.46934290332138 103.7142519763729,189.56121447584883 103.496259761072,189.99760362559755 103.21119301798171,190.87037786172004 103.02673806654639,191.26082773967937 102.77520858735079,191.85798427916598 102.2553809969686,193.35086453203985 101.95354562188732,194.01691368510365 101.83616519827046,194.56812439124042 101.86970246216515,195.5327379272203 101.78585930241388,195.85427430202253 99.7568548367708,200.92985823263007 99.55563125340268,201.59587148518767 99.23702724641771,202.37671059154673 98.91842323937453,203.29533928293677 98.44890154481982,204.37472032665391 98.16383480172954,205.15554400195833 97.96261121836142,205.56891948646808 97.91230532250484,205.614850020851 97.86199942667736,205.72967629121558 97.42601499604643,206.94682899169857 97.34217183629517,207.29130425833864 96.88941877373145,208.57733779761475 96.13483033608645,210.41450816579163 95.68207727346453,211.81533444339584 95.2628614747955,212.59611680389207 95.14548105117865,212.68797326719505 94.86041430805926,212.75686557526933 94.72626525248052,212.89465009020932 94.55857893297798,213.3768948293 93.90460228704615,214.93843787511287 93.45184922448243,216.36218259882298 93.09970795354457,217.11997633207648 92.7811039465596,218.0385087159957 92.66372352288454,218.1992512663419 92.31158225200488,218.245177675577 91.5234565504652,218.1533248421183 89.07523628612398,217.7629496307345 88.65602048742585,217.78591290848271 87.86789478585706,217.9236924960569 87.36483582746587,218.06147194870573 86.20780022308463,218.75036718703632 85.83889032021398,219.11777660094958 85.52028631322901,219.53111104425625 85.48674904933432,219.60000000000582 85.65443536880775,219.48518505497486 85.98980800775462,219.02592433744576 86.37548654255806,218.65851468355686 87.39837309136055,218.0385087159957 87.88466341781896,217.87776598190248 88.47156553599052,217.7629496307345 89.14231081391335,217.7629496307345 90.14842873078305,217.8548027191573 91.40607612681924,218.06147194870573 92.2780449881393,218.1533248421183 92.59664899512427,218.1533248421183 92.7475666826358,218.06147194870573 93.04940205771709,217.21182984046754 93.30093153691269,216.660707890318 93.45184922448243,216.17847441221238 94.00521407875931,214.73176405578852 94.77657114827889,212.94057823184994 94.94425746778143,212.75686557526933 95.2796301067574,212.57315267868398 95.36347326645046,212.389439542123 95.53115958595299,211.90719141671434 95.98391264854581,210.78193935917807 96.2522107597324,210.2078276976099 97.62723857941455,206.39566680991265 98.07999164197827,205.33926658962446 99.53886262144079,201.4580758986558 99.87423526038765,200.70019775895344 100.39406285074074,199.36815961418324 100.79651001747698,198.2198407404794 101.36664350377396,196.79591231251834 101.78585930241388,195.5327379272203 101.80262793437578,195.34900252585066 101.75232203849009,194.68295968300663 101.76909067048109,194.47625609026 101.9703142538201,193.9020778493432 102.2553809969686,193.30492999142734 102.38953005254734,192.8455837595393 102.60752226784825,192.34030117113434 102.92612627486233,191.32973054672766 103.58010292082326,189.58418235959834 103.7310206083348,189.30856750687235 103.91547555977013,189.19372782550636 104.16700503896573,189.1477919266763 104.2340795667551,189.1018560127559 104.30115409454447,188.98701616252947 104.51914630990359,188.45875164322206 104.7371385252336,188.02235771705455 105.2401974836248,186.62129437782278 105.59233875456266,185.84036776822177 105.7432564420451,185.31209142554144 106.01155455320259,184.73787575821916 106.21277813659981,184.16365774563747 106.63199393526884,183.24490404722746 106.83321751866606,182.69364894623868 107.58780595628195,181.17768627328041 107.87287269940134,180.741269746155 108.37593165782164,179.8454631567438 109.18082599132322,178.09977237736166 109.51619863027008,177.43364781345008 109.78449674142757,176.9742497234838 110.03602622065227,176.40000000000873" stroke="#4dd2ff" stroke-linecap="round" stroke-linejoin="round" stroke-width="0.5"><title>2022-08-16 5.3km</title></polyline><polyline fill="none" points="181.62190859610564,176.40000000000873 181.4167253190244,176.85990908174426 181.32346019308898,177.2431656166882 181.23019506715355,177.4475687178783 181.09962389079737,177.49866945145186 180.31619683286408,177.626421212306 180.1296665809641,177.7541728688666 180.0737075053912,177.958575302182 180.09236053057248,178.4440300106944 180.05505448020995,178.62288136551797 179.94313632909325,178.72508204790938 179.81256515276618,178.7506322080153 179.57007582529332,178.7506322080153 179.23432137188502,178.6995318835252 178.91721994365798,178.72508204790938 178.39493523834972,178.46958021672617 178.28301708720392,178.4951304186834 177.79803843228729,178.6995318835252 177.48093700408936,178.85283280690783 177.40632490330609,178.8272826634202 176.66020389576443,178.39292958601436 176.49232666907483,178.34182914464327 176.17522524076048,178.41847980045713 175.97004196370835,178.34182914464327 175.0560437294771,177.8308238126774 174.75759532643133,177.7541728688666 174.62702415010426,177.85637411887 174.36588179745013,178.4440300106944 174.1606985203689,178.7506322080153 173.657066840271,180.00258494209265 172.94825188306277,181.3567266165046 171.49331591831287,185.4701794202556 171.23217356562964,185.93006182956742 171.0829493641213,186.03225773687882 170.7471949106839,186.13445357742603 170.59797070917557,186.38994288664253 170.11299205425894,187.94841863462352 169.75858457566937,188.6382308108441 169.6839724748861,188.91926452890038 169.47878919783398,189.35358837255626 169.4041770970798,189.63462080525642 169.19899381999858,190.0944909693353 169.0684226436715,190.55435978133755 168.65805608947994,191.3974490914261 168.5647909635736,191.90841009789438 168.49017886279034,193.03251843634644 168.28499558568,193.67121275658428 167.70675180482795,194.99968858824286 167.20312012473005,196.35370042086288 166.60622331866762,198.1419999717764 166.15855071411352,199.18942307097313 165.52434785765945,200.9265971378045 164.66630869894288,202.97030663324404 164.4984314722824,203.45568371437548 164.34920727071585,203.99215136753628 164.162677018845,204.5541631259548 163.3232908853388,206.57227961385797 163.17406668383046,207.0320999816031 162.6517819784931,208.33491701637104 162.22276239917846,209.48445244782488 161.84970189537853,210.5573445619957 161.3087641648599,211.80904272798216 161.17819298856193,211.96231120286393 160.89839761069743,212.09003481719992 160.76782643439947,212.16666893579531 160.65590828322456,212.3710264016845 160.20823567869957,213.5460766497854 160.05901147719123,213.85261004547647 159.5180737467017,215.23200289273518 158.75329971394967,217.35215707220777 158.41754526054137,218.04183958710928 158.30562710939557,218.14401451589947 158.08179080713307,218.16955823764147 154.36983879446052,217.6075953952677 153.69832988761482,217.65868300975126 153.36257543423562,217.70977060764562 152.84029072889825,217.83748952929454 152.50453627551906,217.96520834675175 151.34804871378583,218.60380086963414 151.06825333592133,218.80814992639353 150.37809140389436,219.60000000000582 151.06825333592133,218.80814992639353 151.51592594047543,218.45053890183044 152.28069997325656,218.04183958710928 153.13873913194402,217.73531440034276 153.5491056861065,217.63313920458313 154.42579787003342,217.58205158168857 155.24653097835835,217.65868300975126 157.951219630806,218.06738332558598 158.3429331597581,218.04183958710928 158.43619828575174,218.01629584445618 158.49215736126644,217.9396645915549 159.53672677191207,215.10428184374177 159.83517517492874,214.08250969804067 160.09631752755377,213.46944320701004 160.67456130843493,212.24330301678856 160.82378550997237,212.09003481719992 161.17819298856193,211.88567698418046 161.32741719007026,211.73240843425447 161.7004776938702,210.81279398078914 162.3160275251139,209.17791049210064 162.57716987776803,208.38600765947194 163.659045338718,205.6015432874119 164.23728911959915,203.99215136753628 164.77822685008869,202.7403906480904 165.07667525313445,201.8973624776554 165.31916458060732,201.38643410240184 165.80414323555306,200.08355919148016 165.91606138664065,199.67481188483362 166.19585676450515,198.90840780602593 166.81140659577795,197.45222971016483 166.97928382246755,196.915739625867 167.98654718272155,194.46319009141007 168.43421978724655,193.18580531103362 168.5088318880007,192.90477925927553 168.5088318880007,192.6493005922821 168.43421978724655,192.0106020989333 168.47152583760908,191.6784778516012 168.60209701390704,191.32080479657452 169.04976961846114,190.45216682887985 169.19899381999858,190.01784603585838 169.32956499632564,189.40468521603907 169.60936037416104,188.71487642035936 169.7399315505172,188.22945359221194 170.31817533136928,186.90092025291233 170.5793176839652,186.2111004140461 170.70988886032137,186.0067087662901 171.1948675152671,185.77676784334471 171.3067856664129,185.6234737069608 171.43735684273997,185.1891395044804 172.01560062359204,183.8094816835801 172.3700081022107,182.8386040692567 172.57519137926283,182.40426213252067 173.28400633644196,180.64133247589052 174.57106507453136,177.72862254588108 174.62702415010426,177.626421212306 174.7762483516126,177.54977016833436 175.18661490577506,177.77972318763204 175.46641028361046,177.98412558759446 175.65294053551042,178.03522614578833" stroke="#4dd2ff" stroke-linecap="round" stroke-linejoin="round" stroke-width="0.5"><title>2022-08-14 5.0km</title></polyline><polyline fill="none" points="46.75023250529193,224.39999999999418 46.49522785516456,224.4806075807719 45.74982964718947,224.4806075807719 45.475209254800575,224.5880842936458 45.41636202784139,224.64182262372924 45.27905183163239,225.07172863221786 45.102510150754824,225.31355026822712 44.90635272761574,225.44789546786342 44.47480639666901,225.50163351699302 44.10210729268147,225.60910956253065 43.94518135409453,225.74345452080888 43.88633412719355,225.8777993692638 43.788255415594904,226.44204653444467 43.729408188635716,226.52265311434167 43.55286650781636,226.5763908122899 43.18016740382882,226.54952196546947 42.6897738459229,226.6032596546429 42.29745899961563,226.4151776657236 42.12091731879627,226.38830879265151 41.17936168759479,226.7376038008224 40.963588522106875,226.68386615546478 40.19857457181206,226.20022655789217 39.68856527158641,226.20022655789217 38.570467959623784,225.47476449458918 38.374310536455596,225.42102643668477 38.25661608253722,225.47476449458918 38.19776885557803,225.58224055777828 38.02122717475868,226.0658819727687 37.432754905254114,227.22124181808613 36.41273630486103,229.37072691002686 36.05965294316411,230.4454589211382 35.471180673717754,231.97693990243715 35.13771305436967,232.80984462458582 34.68655098110321,234.04575998742075 34.568856527184835,234.18009805411566 34.25500465009827,234.26070084155072 34.17654168084846,234.31443601120554 34.01961574231973,234.5293765142269 33.82345831920975,235.09359399830282 33.352680503594456,236.30262494641647 33.156523080397164,236.67876609539962 33.01921288424637,237.1086406409886 32.86228694568854,237.511647006977 32.74459249179927,237.96838636139 32.25419893389335,239.06992899789475 31.803036860655993,240.19833087845473 31.76380537598743,240.44013027430628 31.724573891377077,241.5685227546055 31.077254394971533,243.47602577169891 30.76340251788497,244.2282744004624 30.15531450608978,245.8939555494726 29.6845366905618,246.8611175082333 29.23337461729534,247.82827378010552 28.97836996713886,248.6879634699726 28.821444028639235,249.0372111229517 28.586055120860692,249.9237595272134 28.291818986122962,250.62224884395255 28.017198593675857,251.42819436980062 27.507189293479314,252.77142813774117 27.27180038570077,253.2549896089331 26.76179108544602,254.5713441898406 26.31062901217956,255.56531923987495 25.898698423581664,256.88165533245774 25.604462288843933,257.58011510400684 25.349457638716558,258.3860265398398 24.898295565479202,259.48743245021615 24.290207553684013,261.20668547246896 24.192128842085367,261.39472768164705 24.113665872835554,261.47531713408534 23.62327231495874,261.7170852544659 23.485962118691532,261.905126880185 23.28980469558155,262.4423874835484 22.91710559159401,263.27513795111736 22.662100941466633,264.0541587656626 22.289401837449986,264.9674888156733 21.975549960392527,265.82708893643576 21.249767494708067,267.6000000000058 21.367461948597338,267.1164806956949 21.936318475782173,265.71963916698587 22.5051750029088,263.94670783811307 23.387883407092886,261.824537638342 23.64288805727847,261.55590654700063 23.995971418946283,261.3678645220789 24.172513099765638,261.23354865841975 24.388286265253555,260.58883098601655 24.819832596200285,259.67547662470315 25.23176318485639,258.57407197340217 25.604462288843933,257.3383409032831 26.192934558261186,255.75336789802532 26.585249404626666,254.8399866875261 27.154105931782397,253.20126062676718 27.938735624426045,251.42819436980062 28.664518090110505,249.25213238703145 29.429532040434424,247.45215812792594 29.44914778272505,247.26409997938026 29.645305205893237,246.67305868388212 30.253393217659323,245.2223119543778 30.528013610077323,244.73872686769755 30.567245094745886,244.47006787185092 30.724171033274615,244.06707855535205 30.881096971803345,243.47602577169891 31.194948848889908,242.83123849447293 31.62649517977843,241.72972104838118 31.70495814908645,241.3267250176723 31.665726664446993,240.41326369230228 31.744189633696806,239.9565311272454 31.82265260294662,239.7953310955636 32.058041510754265,239.44606381824997 32.2934304185037,238.96246174836415 32.74459249179927,237.511647006977 33.0388286265661,236.67876609539962 33.27421753431554,236.30262494641647 33.470374957454624,235.73841161000018 33.843074061500374,234.47564141484327 33.96076851536054,234.28756842852454 34.05884722695919,234.18009805411566 34.431546330975834,234.01889236086572 34.529625042545376,233.93828945489076 34.60808801179519,233.80395119063905 35.020018600451294,232.83671244863945 35.54964364296757,231.33210754324682 36.236194623983465,229.74688391278323 36.5304307587794,228.91396367865673 37.11890302822576,227.5167976840894 38.13892162864795,225.5553715485148 38.25661608253722,225.44789546786342 38.41354202103685,225.47476449458918 38.707778155832784,225.5553715485148 39.04124577518087,225.79719247331377 39.62971804465633,226.03901304260944 39.7474124985456,226.0658819727687 40.21819031413179,225.9584062256472 41.15974594527506,226.38830879265151 42.08168583412771,226.11961981996137 42.67015810360317,226.33457103316323 43.08208869220107,226.33457103316323 43.57248225013609,226.49578425871732 43.84710264255409,226.49578425871732" stroke="#4dd2ff" stroke-linecap="round" stroke-linejoin="round" stroke-width="0.5"><title>2022-07-26 4.5km</title></polyline><polyline fill="none" points="111.95238141959999,225.34152861697657 111.36049032691517,225.28922161692753 110.9977183669107,225.36768211066374 110.94043858372606,225.44614256599743 110.95953184482642,225.6815237011033 110.94043858372606,225.81229084882943 110.88315880057053,225.94305788981728 110.80678575637285,226.0476714456745 110.69222619003267,226.09997819794808 110.19580140267499,226.12613156763837 109.94758900895249,226.2568983521778 109.77574965945678,226.46612498530885 109.68028335421695,226.62304478071746 109.58481704891892,227.19841604761314 109.50844400472124,227.30302878306247 109.43207096052356,227.3291819562728 109.06929900046089,227.3291819562728 108.43922138572088,227.22456923792197 108.22919551411178,227.1461096543062 108.00007638143143,226.98919037166343 107.82823703202303,226.9630371429521 107.56093137728749,227.11995645119168 107.23634593936731,227.22456923792197 107.00722680668696,227.35533512514667 106.87357397933374,227.35533512514667 106.54898854141356,227.1461096543062 105.99528397084214,226.8584241852659 105.88072440453107,226.8322709352069 105.55613896658178,226.93688390993339 105.36520635607303,226.88457743110484 104.639662436035,226.3353583716089 104.35326352022821,226.17843829428602 104.12414438757696,226.17843829428602 104.02867808230803,226.2568983521778 103.70409264438786,227.17226285308425 103.24585437908536,227.93070376006654 102.36756437065196,229.86601944624272 101.39380805689143,232.63818764177267 100.80191696423572,234.12886201273068 100.51551804842893,234.6257503851084 100.43914500420215,234.6780543345958 100.17183934946661,234.73035826694104 100.03818652208429,234.86111802319647 99.86634717261768,235.64567431771138 99.5799482568109,236.2994682926801 99.44629542945768,236.69174339606252 99.1217099915375,237.3193815620907 98.9116841199284,237.97316870183568 98.16704693884822,239.7253050704312 97.97611432831036,240.22217607292987 97.91883454512572,240.61444156456855 97.82336823985679,241.92198626196478 97.76608845670125,242.13119242250104 96.96417149243644,243.98788511804014 96.27681409448269,245.94915683293948 95.6085499576584,247.49200703104725 95.26487125866697,248.5379987085471 94.84481951550697,249.55783401458757 94.31020820597769,250.99605225193955 94.08108907335554,251.7282311191084 93.85196994067519,252.22506487216742 93.69922385227983,252.6695990285516 93.26007884801948,253.6371102789126 92.9736799322418,254.44772331183776 92.70637427750626,255.10144051031966 92.40088210062822,255.91204612955335 92.267229273275,256.4611637335329 92.17176296797697,256.74879601261637 91.94264383535483,257.27176246895397 91.6371516584768,258.1085052462149 91.1789133932034,259.25901942519704 90.43427621209412,261.03707053203834 90.2624368625984,261.27239934602403 89.86147838048055,261.50772781421256 89.74691881414037,261.6646132674359 89.36505359309376,262.60592275900126 89.04046815520269,263.6256684635882 87.51300727084163,267.4431203620479 87.49391400982859,267.6000000000058 87.55119379298412,267.54770680442743 87.68484662036644,267.0247739094193 88.25764445198001,265.32523020607186 88.65860293406877,264.2793481917033 88.77316250040894,263.86099347313575 89.04046815520269,263.3380485377711 89.19321424362715,262.8412492672651 89.46051989836269,262.13526870495116 89.6323592478002,261.63846570259193 89.86147838048055,261.3769898190221 90.28153012364055,261.1416611587483 90.37699642890948,261.063218195166 90.5106492562918,260.775593666418 91.25528643740108,258.9452436508145 91.61805839740555,257.87317178215017 92.28632253431715,256.14738247616333 92.74456079959054,254.83995395118836 93.08823949855287,254.00319409226358 93.33645189221716,253.50636585699976 93.71831711335108,252.30351216594863 94.50114081657375,250.34231829109194 94.9020992986625,249.1394408287888 95.22668473658268,248.3026511769276 95.85676235135179,246.86440874441178 96.46774670507875,245.08620023839467 96.77323888189858,244.432442145815 97.47968954089447,242.62805595822283 97.76608845670125,241.73893064723234 97.7851817177725,241.42512053494283 97.72790193458786,241.08515888586408 97.72790193458786,240.69289454762475 97.74699519565911,240.27447819401277 98.2434199830459,239.22843252582243 98.43435259358375,238.65310449486424 99.15989651359268,236.9271079966129 99.50357521261321,235.93334399559535 99.71360108419321,235.4626115262654 99.90453369467286,234.93957382571534 100.05727978312643,234.78266218231875 100.4582382653025,234.59959840399097 100.55370457054232,234.46883843409887 100.95466305263108,233.3442982846027 101.20287544635357,232.7427968224365 101.48927436218946,232.14129310021235 102.06207219380303,230.78136330998677 102.3866576316359,229.83986668748548 102.92126894119428,228.61068220781453 103.15038807381643,228.16608124194317 103.62771960016107,227.01534359608195 103.95230503808125,226.38766502989165 104.06686460442143,226.23074500384973 104.21961069284589,226.15228493306495 105.02152765711071,226.62304478071746 105.53704570556874,226.77996442219592 105.84253788241767,226.70150462067977 105.95709744875785,226.70150462067977 106.03347049295553,226.72765789208643 106.31986940873321,226.93688390993339 106.75901441299357,227.11995645119168 106.91176050138893,227.11995645119168 107.21725267826696,226.93688390993339 107.84733029303607,226.8061176808842 108.38194160256535,227.09380324378435 108.72562030152767,227.01534359608195 109.06929900046089,227.0676500321715 109.52753726579249,226.98919037166343 109.6993766152591,226.88457743110484 109.73756313734339,226.77996442219592 109.77574965945678,226.62304478071746 109.77574965945678,226.23074500384973 109.85212270368356,226.07382482390676 110.10033509737696,225.94305788981728 110.55857336267945,225.9169044901937 110.88315880057053,225.83844426560972 111.0359048890241,225.7599840026087 111.32230380483088,225.41998908514506 111.74235554801999,225.07999344554264 112.31515337957535,224.9753792572883 112.3724331627891,224.84461142586952 112.3342466406466,224.60922906012274 112.35333990171785,224.55692182070925 112.50608599017141,224.40000000000873" stroke="#4dd2ff" stroke-linecap="round" stroke-linejoin="round" stroke-width="0.5"><title>2022-07-25 4.6km</title></polyline></svg>