<?xml version="1.0" encoding="utf-8" ?>
<svg baseProfile="full" height="300mm" version="1.1" viewBox="0,0,200,300" width="200mm" xmlns="http://www.w3.org/2000/svg" xmlns:ev="http://www.w3.org/2001/xml-events" xmlns:xlink="http://www.w3.org/1999/xlink"><defs /><rect fill="#222222" height="300" width="200" x="0" y="0" /><text fill="#FFFFFF" style="font-size:12px; font-family:Arial; font-weight:bold;" x="10" y="20">Over 4km Runs</text><text fill="#FFFFFF" style="font-size:4px; font-family:Arial" x="10" y="280">ATHLETE</text><text fill="#FFFFFF" style="font-size:9px; font-family:Arial" x="10" y="290">ChiZhang9797</text><text fill="#FFFFFF" style="font-size:4px; font-family:Arial" x="120" y="280">STATISTICS</text><text fill="#FFFFFF" style="font-size:3px; font-family:Arial" x="120" y="285">Number: 15</text><text fill="#FFFFFF" style="font-size:3px; font-family:Arial" x="120" y="290">Weekly: 3.0</text><text fill="#FFFFFF" style="font-size:3px; font-family:Arial" x="141" y="285">Total: 74.9 km</text><text fill="#FFFFFF" style="font-size:3px; font-family:Arial" x="141" y="290">Avg: 5.0 km</text><text fill="#FFFFFF" style="font-size:3px; font-family:Arial" x="167" y="285">Min: 4.1 km</text><text fill="#FFFFFF" style="font-size:3px; font-family:Arial" x="167" y="290">Max: 6.3 km</text><polyline fill="none" points="34.53675789566478,71.55623733189714 34.40256842179224,71.60875438235234 33.214033081312664,71.68752992563532 33.04150375773315,72.39650807864382 32.888144358905265,72.47528323587903 32.12134736505686,72.39650807864382 32.00632781605236,72.29147447552532 31.987157891126117,72.16018237508251 32.1405172899249,71.55623733189714 32.236366914148675,71.26739324818482 32.466406012303196,70.84725547238486 32.65810526080895,70.58466880471678 33.04150375773315,70.26956423721276 33.980830075161066,69.77064740864444 34.63260751994676,69.32424682816782 35.0926857162558,69.08791660708084 35.380234588927124,69.0091397894721 36.051181958580855,68.93036293330078 36.81797895240015,68.74655011868163 37.60394587111659,68.72029112797463 38.1023639170744,68.64151413019863 38.75414136186009,68.43144194733759 39.36757895690971,68.30014669362572 39.65512782963924,68.1163331582211 39.80848722837982,67.88000116092735 39.88516692776466,67.64366881611932 39.80848722837982,67.17100308388763 39.75097745383391,66.30444563098717 39.61678797993227,65.35910489894741 39.59761805506423,64.83391320059309 39.5784481302544,64.70261500784545 39.290899257553974,64.17742116416048 39.08003008423839,63.625965781044215 38.88833083579084,63.232067920384 38.428252639452694,62.4967893306748 38.19821354132728,62.0241084608424 38.083193992235465,61.735247244811035 37.87232481894898,60.94744128957973 37.776475194696104,60.76361934437591 37.584775946248556,60.60605750963441 37.25888722387026,60.422235173988156 37.02884812571574,60.36971446793177 35.763633085851325,60.47475586274231 35.01600601681275,60.50101620068017 34.3258887224074,60.57979718885326 33.78913082668441,60.71109874996182 33.57826165339793,60.71109874996182 33.271542855829466,60.63231782618095 33.156523306737654,60.553536863808404 33.07984360738192,60.47475586274231 33.11818345708889,60.212152247084305 33.46324210430612,59.50312034136732 34.000000000029104,58.61026089898951 34.28754887270043,57.95374343839649 34.57509774540085,57.42852753883926 35.03517594165169,56.27304651765735 36.166201507585356,54.40850280445011 36.66461955363047,53.27926158629998 37.06718797539361,52.517675819122815 37.66145564560429,51.59851577614609 38.12153384194244,50.78439820474887 38.88833083579084,49.20867505922797 39.36757895690971,48.525856897686026 39.961846627120394,47.42283681538538 40.326075199234765,46.6612232922198 41.22706166701391,45.085459714900935 41.59129023909918,44.481412913199165 42.45393685714225,42.905627959771664 44.083380469091935,39.99038505725912 44.94602708716411,38.38829211355187 45.17606618531863,37.915540323840105 45.1568962604797,37.81048418163846 44.735157913848525,37.626635767592234 43.776661671552574,37.02256092602329 42.9715248279972,36.39221953957167 42.89484512861236,36.2608981061785 42.9140150534804,36.05078358949686 43.23990377585869,35.446702823392116 43.31658347524353,35.15779382814071 43.27824362553656,34.947677868956816 43.201563926180825,34.86888431337138 42.262237608694704,34.42238676882698 41.112042117951205,33.81829988062964 40.07686617621221,33.398064184118994 39.271729332685936,33.00409222050803 38.485762413969496,32.636384182813345 37.699795495311264,32.40000000000873 37.54643609657069,32.42626492638374 37.48892632202478,32.505059679737315 37.50809624683461,32.66264907058212 37.584775946248556,32.7414437080879 38.14070376678137,32.95156255229085 39.022520309721585,33.42432894738158 39.674297754478175,33.73950577125652 39.73180752902408,33.84456457516353 39.73180752902408,33.97588798345532 39.65512782963924,34.31732834270224 39.36757895690971,35.000206884520594 39.118369933916256,35.31538061724859 38.60078196306131,36.05078358949686 38.389912789774826,36.313426692417124 37.96817444314365,36.681126315306756 37.431416547478875,37.07508926326409 37.02884812571574,37.28520244055835 35.89782255975297,37.81048418163846 34.479248121147975,37.941804348665755 33.73162105216761,38.07312440829992 33.156523306737654,38.04686040492379 32.69644511045772,37.941804348665755 31.680439093674067,37.86301226131036 31.45039999546134,37.78422013540694 31.182021047599846,37.626635767592234 31.009491723991232,37.57410761064966 30.41522405378055,37.7316920299636 29.725106759316986,37.81048418163846 27.90396389894886,37.83674822366447 27.75060450012097,37.915540323840105 27.693094725633273,38.020596397298505 27.693094725633273,38.12565240210097 27.73143457531114,39.22873630540562 27.712264650443103,40.67323948958074 27.693094725633273,40.778293760085944 27.558905251702527,41.04092913575005 27.09882705536438,41.59246202753275 27.022147356008645,41.9076228299964 27.041317280818475,42.17025635980826 27.156336829910288,42.35409957532829 27.309696228650864,42.53794258047128 27.808114274666877,42.8793647463026 28.421551869803807,43.220786186735495 29.66759698477108,44.11373113960144 29.801786458672723,44.42888699709147 29.8401263084088,44.56020175527374 29.801786458672723,44.74404223643069 29.475897736294428,45.32182523657684 28.97747969030752,45.97839430591557 28.862460141215706,46.05718241390423 28.689930817636196,45.97839430591557 28.574911268544383,45.84708070658962 28.3640420952579,45.82081797395949 28.057323297689436,46.00465701290523 27.9806435983337,46.10970779781928 27.808114274666877,46.60869808853022 27.788944349857047,46.7400110654562 27.92313382375869,47.3177868888597 27.942303748597624,47.55414912701235 27.92313382375869,47.71172375929018 27.808114274666877,47.92182302856236 27.463055627478752,48.26323375533684 27.252186454163166,48.36828306381358 26.830448107531993,48.525856897686026 26.69625863363035,48.65716830792371 26.54289923486067,48.81474185860134 26.217010512482375,49.41877237132576 26.02531126397662,49.944014449894894 25.929461639781948,50.49551678473654 25.94863156459178,50.91570776935259 25.910291714943014,51.04701722681057 25.83361201552907,51.15206471545389 25.48855336831184,51.467206769419136 25.162664645933546,51.62477756458975 24.62590675026877,51.72982467562542 24.20416840360849,52.07122731208801 23.686580432753544,52.622722346452065 23.36069171037525,53.20047701909789 22.881443589227274,53.67318384272221 22.823933814710472,53.778229614690645 22.823933814710472,53.909536733001005 22.843103739549406,54.907467326527694 22.938953363744076,55.43269146561215 23.034802987996954,56.29930754219822 23.130652612191625,56.77200525060471 23.1689924619277,57.402266698816675 23.36069171037525,58.00626493402524 23.494881184305996,58.636521541673574 23.552390958851902,58.76782469046884 23.724920282460516,58.872867132376996 23.859109756420366,58.872867132376996 24.280848103022436,58.76782469046884 24.74092629927327,58.74156406932161 25.699422541598324,58.82034591998672 26.5620691596705,59.10921237534785 27.09882705536438,59.21425459404418 28.306532320711995,59.135472936424776 28.517401493998477,59.26677567756269 28.67076089279726,59.47685984031705 28.766610516991932,59.66068325738888 28.843290216405876,60.50101620068017 28.958309765468584,60.65857813837647 29.11166916420916,60.73735904932255 29.782616533862893,60.65857813837647 30.434393978619482,60.553536863808404 30.760282700997777,60.553536863808404 32.389726312918356,60.47475586274231 33.09901353222085,60.50101620068017 33.53992180369096,60.60605750963441 33.88498045093729,60.60605750963441 35.07351579135866,60.448495520526194 36.127861657965695,60.36971446793177 36.875488726916956,60.343454108558944 37.29722707354813,60.422235173988156 37.60394587111659,60.60605750963441 37.79564511953504,60.78987963516556 37.96817444314365,61.18378348163969 38.12153384194244,61.787767504603835 38.33240301522892,62.260449069493916 38.96501053517568,63.44214689951332 39.34840903207078,64.25620035015163 39.42508873145562,64.38749890755571 39.65512782963924,64.59757637641451 39.770147378672846,64.78139393642778 39.80848722837982,66.17314863963111 39.92350677747163,67.5911504701362 39.88516692776466,67.98503764704219 39.827657153247856,68.22136948992556 39.75097745383391,68.3789238587051 39.59761805506423,68.5627370938455 39.405918806645786,68.69403213296027 39.1950496333302,68.77280910505215 37.431416547478875,69.0091397894721 36.070351883390686,69.06165767215134 35.26521503983531,69.27172903127212 33.36739248011145,70.24330549541628 32.888144358905265,70.55841011440498 32.600595486263046,70.8735141154757 32.370556388108525,71.26739324818482 32.19802706449991,71.74004693319148 32.06383759054006,72.34399128559744 32.04466766567202,73.02670825565292 32.15968721479294,73.76193867248367 32.17885713960277,74.26084311123122 32.29387668869458,75.54748425379512 32.44723608746426,75.60000000000582 32.94565413345117,75.52122637424327 34.01916992486804,75.38993691222277 34.11501954906271,75.25864734289644 34.076679699413944,74.78600400530559 34.095849624223774,74.60219788759423 34.17252932363772,74.44464961934136 35.24604511499638,74.23458502150606 35.514424062828766,74.07703639294778 35.763633085851325,73.4993567669153 35.82114286039723,73.31554917771427 35.72529323611525,72.7116084760346 35.533593987696804,72.39650807864382 35.45691428834107,71.74004693319148 35.399404513736954,71.55623733189714 35.28438496473245,71.50372026435798 34.82430676839431,71.50372026435798" stroke="#4dd2ff" stroke-linecap="round" stroke-linejoin="round" stroke-width="0.5"><title>2022-09-02 6.3km</title></polyline><polyline fill="none" points="100.03312450528028,74.32955564152508 99.72396245604614,74.2993068601063 99.14980436459882,74.39005318962154 99.03938934701728,74.60179445220274 98.95105733294622,75.02527625102084 98.70814429424354,75.20676815391926 98.06773719226476,75.32776265706343 97.82482415356208,75.20676815391926 97.75857514300151,75.05552491385606 97.86899016064126,74.60179445220274 97.95732217468321,74.14806287863757 98.31065023093834,73.45233897287108 99.03938934701728,72.81711051474849 100.65144860374858,71.7281423729437 100.98269365649321,71.57689629112429 101.86601379714557,71.33490230317693 103.74306909609004,71.2441544761823 105.15638132113963,71.06265868867922 105.99553545485833,70.9114120631275 106.21636548996321,70.82066402862256 106.52552753919736,70.57866905217816 106.70219156733947,70.30642432566674 106.79052358143963,70.09467815040261 106.8126065848628,69.64093553103157 106.79052358143963,69.03594364177843 106.68010856382898,68.40070003042638 106.61385955329752,67.6444547939318 106.41511252161581,66.46470605656214 106.08386746890028,65.79920345233404 105.70845640910557,64.86144572205376 104.86930227541598,63.13716911182564 104.69263824730297,62.713660119319684 104.53805722270044,62.0783948139142 104.33931019101874,61.715385089308256 103.80931810665061,61.322123750986066 103.50015605741646,61.26162193249911 102.08684383233776,61.41287644174008 101.6010177549324,61.50362908789248 99.43688341032248,61.715385089308256 99.08355535403825,61.594381689545116 98.95105733294622,61.322123750986066 98.9952233399672,61.11036729974148 99.83437747359858,59.62806535897835 100.45270157212508,58.35751139157219 101.13727468112484,56.844935774832265 102.50642089915345,54.60630118114932 103.14682800113223,53.184451638531755 103.74306909609004,52.0348631728848 104.64847224025289,50.46173054592509 105.46554337037378,49.251619428163394 106.15011647940264,48.04150039967499 106.32678050754475,47.52719741706096 106.70219156733947,46.740613621033845 107.01135361654451,46.22630702411698 107.4309306833893,45.31870366136718 108.4688318487024,43.382468281066394 109.02090693661012,42.414342995907646 109.90422707723337,40.992399803435546 112.8854325520806,35.60706911541638 112.90751555556199,35.395283245903556 112.84126654500142,35.304517799115274 112.53210449579637,35.183497134101344 112.04627841839101,34.79017942637438 110.45630216522841,33.88251998805208 110.27963813702809,33.70098756623338 110.21338912649662,33.54971041211684 110.2575551335467,33.277411223069066 110.6771322003915,32.5512780938443 110.69921520387288,32.40000000000873 110.58880018629134,32.43025562878756 110.39005315466784,32.64204489084659 110.03672509835451,33.126133722718805 109.17548796127085,34.548137344710995 108.53508085926296,35.42553838492313 107.93883976430516,36.09115019298042 107.56342870451044,36.423955199323245 106.59177654978703,36.877779243775876 105.79678842317662,37.48287623884971 105.26679633877939,37.81567874299071 104.58222322972142,38.11822595483682 103.0364129835798,38.390518022555625 99.96687549471972,38.783828080049716 98.81855931182508,38.84433724547853 97.82482415356208,38.75357348995749 95.81527083355468,38.69306429482822 94.33570959791541,38.723318894873955 93.80571751354728,38.81408266519429 93.27572542909184,39.0258646231523 92.25990726734744,39.54019122633326 92.03907723218435,39.69146348470531 91.7519981864607,40.02426201790513 90.07368991919793,42.38408899916976 89.9411918980768,42.747136633857735 89.9191088945372,42.928660184086766 89.89702589105582,43.80602150107734 90.02952391217696,44.16906634697807 90.51534998949501,44.95566107022751 91.06742507746094,45.46997119745356 92.5469863130711,46.01453330408549 92.9444803763472,46.22630702411698 93.18739341504988,46.43808050172811 93.20947641858947,46.61960043266299 93.1432274080289,46.922133255182416 92.87823136578663,47.19441237275896 92.45865429902915,47.43643791881914 91.84033020050265,47.64821001213568 91.59741716185817,47.82972875631822 91.46491914073704,47.9809942405991 91.13367408802151,48.58605494147923 90.80242903521867,49.312125171898515 90.7361800246581,49.55414794922399 90.66993101412663,50.431477864360204 90.58159900008468,50.703751820256 90.47118398250313,50.824762338685105 90.09577292267932,51.15754085674416 89.38911681013997,51.33905615979165 89.01370575037436,51.581076287140604 88.24080062727444,52.42814424082462 87.86538956745062,53.002938144869404 87.46789550417452,53.36596495413687 87.26914847255102,53.7289910515392 87.09248444440891,54.90882095141569 87.09248444440891,55.181088322016876 87.24706546901143,56.02813980302017 87.46789550417452,56.965942279071896 87.5120615112537,57.81298559330753 87.84330656396924,58.78103034959349 87.95372158157988,59.446558183204615 88.10830260621151,59.597814175416715 88.35121564485598,59.65831653751957 89.45536582070054,59.507060594900395 90.16202193329809,59.53731179330498 90.47118398250313,59.62806535897835 90.97909306338988,59.87007464976341 91.57533415834769,60.05158141021093 92.72365034118411,60.29359014744114 93.58488747835509,60.35409228231583 93.78363451000769,60.50534753293323 93.9602985381498,60.686853670631535 94.02654754871037,60.898610606309376 94.09279655927094,61.62463254694012 94.3577926014259,61.927140848492854 94.71112065771013,61.95739165150735 95.92568585119443,61.77588675952575 97.73649213952012,61.685134246741654 98.13398620279622,61.715385089308256 98.28856722745695,61.86663922772277 98.26648422391736,62.04814403074852 97.9794051781937,62.441403826800524 96.65442496715696,64.7706947219267 95.7931878300733,66.494956118142 95.46194277727045,67.0092064080236 94.82153567534988,68.1889516756055 94.26946058735484,69.00569399545202 92.43657129548956,72.75661245264928 92.06116023566574,73.66408130795753 91.26617210914264,75.1765195158514 91.26617210914264,75.32776265706343 91.59741716185817,75.41850848247122 91.9507452181424,75.60000000000582" stroke="#4dd2ff" stroke-linecap="round" stroke-linejoin="round" stroke-width="0.5"><title>2022-09-01 5.0km</title></polyline><polyline fill="none" points="170.06823550714762,73.28099300352915 169.43652191903675,73.17715627553116 169.1332993968099,73.17715627553116 168.7290027004201,73.62711506237974 168.37524309111177,74.11168499485939 168.19836328647216,74.21552126469032 167.895140764158,74.25013334328833 167.33923280672752,74.18090918043163 167.08654737149482,74.0424607865425 166.9854731974192,73.86940016711014 167.03601028441335,73.55789069581078 167.2381586326519,72.79642117106414 167.51611261136713,72.20801102726546 167.84460367716383,71.79266170639312 168.34997454762924,71.37731157142844 169.53759609314147,70.75428484179429 170.5483378340723,70.06203077116515 171.00317161748535,69.81974131191964 171.73595937967184,69.64667724289757 173.55529451326584,69.5082258858456 174.768184602377,69.57745157567842 176.36010284427903,69.36977443839714 176.71386245361646,69.19671000167727 176.96654788884916,68.98903249102295 177.29503895467496,68.3313856976747 177.29503895467496,67.6737368627364 177.11815914994804,66.91224618739216 176.96654788884916,65.97768570837798 176.9918164323608,64.80082590704842 176.9160108018259,64.10855238155636 176.43590847484302,63.27782116479648 176.1832230396103,62.481700691758306 175.0966756681446,60.40485059194907 174.61657334121992,58.98565797964693 174.5154991671443,58.77797045838088 174.1112024708127,58.43182413703471 173.75744286144618,58.29336545021215 173.45422033919021,58.2241360728367 171.28112559620058,58.25875076428929 170.0429669636651,58.36259480500303 168.88061396157718,58.57028273343167 167.94567785123945,58.46643879466865 164.5091559321736,58.604897368422826 163.5994883653766,58.604897368422826 162.71508934203302,58.29336545021215 162.66455225498066,58.2241360728367 162.63928371143993,57.63568545159069 162.51294099388178,57.22030755833839 162.26025555864908,57.01261830623844 161.80542177523603,56.80492885049898 161.27478236122988,56.70108404628991 160.23877207681653,56.70108404628991 158.62158529137378,56.285704320514924 157.78772335511167,56.14724423074222 156.97912996233208,56.14724423074222 155.94311967791873,56.25108930640272 155.76623987327912,56.181859261676436 155.63989715560456,55.93955392653879 155.5893600686395,55.247251441993285 155.31140608989517,54.139562760537956 155.2608690028137,53.20494593009062 155.0839891981741,52.616481365752406 154.70496104532504,50.92030965088634 154.7554981323774,49.84721440865542 154.8565723064239,49.39720510864572 155.61462861212203,48.53179992130026 155.94311967791873,48.01255511189811 156.9033243317972,47.008678204379976 157.30762102815788,46.73174580631894 158.09094587736763,46.55866287383833 158.4699740302167,46.31634653064248 158.84900218306575,45.90094644014607 159.00061344416463,45.69324608948955 159.02588198770536,45.52016230825393 158.9753449006821,44.96629325814138 159.0511505312461,44.58550744612876 159.2280303359148,43.92778488557087 159.53125285822898,43.304677418011124 159.75866974986275,42.95850581066043 159.9608180981013,42.750802574664704 161.17370818715426,42.0930743170029 161.57800488354405,41.60843113611918 161.65381051410805,41.36610912985634 161.60327342702658,41.08916935468733 161.35058799179387,40.708376572452835 160.76941149076447,40.39681833247596 160.06189227217692,40.154494939983124 159.40491014055442,39.66984732345736 159.27856742293807,39.35828755584953 159.25329887939733,38.63131298251392 159.17749324886245,38.49284135219932 158.36889985614107,38.181279853350134 157.96460315975128,37.93895392623381 157.78772335511167,37.7312457680091 157.7371862680593,37.59277354936057 157.76245481157093,37.211974481338984 157.96460315975128,36.83117472875165 159.27856742293807,35.134876604381134 159.93554955450236,34.061701386992354 160.44092042496777,33.403946146849194 160.66833731668885,33.23085232308949 162.08337575400947,32.60771338631457 162.8667006031319,32.40000000000873 164.2564704969409,32.434618911880534 165.8483887388429,32.573094502673484 166.1768798046396,32.67695113652735 166.42956523987232,32.81542656896636 166.68225067510502,33.19623354142823 166.80859339266317,33.680895970668644 166.80859339266317,33.95784543226182 166.60644504451193,34.75407311733579 166.6569821316225,35.10025813381071 166.78332484918064,35.654152983188396 166.9854731974192,36.138809788171784 167.2381586326519,36.55422902412829 167.3139642631868,36.83117472875165 167.3139642631868,37.03888376959367 167.44030698077404,37.03888376959367 167.71826095951837,36.93502927466761 167.819335133594,37.03888376959367 167.76879804659984,37.17735635038116 167.51611261136713,37.385065051727 167.46557552434388,37.62739161255013 167.61718678544275,37.83509987250727 168.02148348183255,38.07742591854185 168.1478261993907,38.215897820249666 168.24890037352452,38.49284135219932 168.24890037352452,38.83902025799034 168.3247060040885,39.185198598046554 168.6531970698561,39.704465047092526 169.4617904626066,40.25834785637562 169.7144758978393,40.53528871793242 170.42199511645595,40.9160818112432 170.52306929053157,41.6430485429446 170.49780074701994,41.91998759401031 170.39672657294432,42.19692628295161 170.44726365999668,42.43924733881431 170.69994909522939,42.750802574664704 171.1295143351017,42.993122996835154 171.55907957497402,43.477763009505 172.4434785982885,43.962401913289796 173.15099781687604,44.44703970832052 173.37841470856802,44.58550744612876 174.26281373185338,44.79320888296934 174.9197958635341,45.10476065635157 175.04613858115044,45.24322796428169 175.04613858115044,45.34707838567556 174.64184188476065,45.93556314551097 174.13647101429524,47.043294728631736 172.8730438381608,49.36258896897198 172.1149875324627,50.85107786383014 171.48327394443913,51.85493656148901 170.69994909522939,53.30879244826792 169.94189278953127,55.108790673621115 168.75427124396083,57.25492241383472 168.3247060040885,58.29336545021215 168.04675202531507,58.25875076428929 167.97094639475108,58.43182413703471 167.5666496983904,58.95104340685066 167.4150384372915,59.29718887974741 166.35375960930833,61.09713622093841 165.57043476012768,62.654770614302834 164.58496156267938,64.35084837279283 163.9279794311151,65.70077810806106 163.42260856067878,66.6007264858199 162.96777477723663,67.81218941873522 162.31079264564323,68.95441955282877 161.98230157987564,69.61206441216927 161.55273634000332,70.23509450089477 161.24951381774736,70.89273538450652 160.794680034247,71.61959924918483 160.5419945990725,72.24262343384908 160.213503533334,73.28099300352915 159.75866974986275,74.11168499485939 159.70813266281039,74.3539695453801 159.78393829340348,74.45780569649651 160.1376979026827,74.52702976900036 160.4661889684503,74.83853781523067 160.94629129540408,74.90776176331565 161.35058799179387,75.15004540345399 161.80542177523603,75.04620959163003 161.93176449285238,75.04620959163003 162.33606118921307,75.35771687448141 163.04358040782972,75.60000000000582 163.2709972995508,75.53077627813036 163.70056253945222,75.28849307341443 164.38281321455725,75.11543347187398 164.53442447565612,75.11543347187398 164.88818408499355,75.39232876646565 165.1661380637379,75.46155253359757 165.64624039069167,75.42694065293472 166.10107417407562,75.49616440865793 166.75805630566902,75.42694065293472 166.93493611033773,75.32310497679282 166.9854731974192,75.21926924973377 166.93493611033773,73.7309515698289 167.08654737149482,72.8656457864563 167.28869571961695,72.31184823023796 167.4908440678264,71.96572402241873 167.69299241600675,71.75804922629322 168.34997454762924,71.16963619847957 170.5483378340723,69.85435410881473 171.5338110314915,69.57745157567842 172.5445527723641,69.5082258858456 172.72143257700372,69.57745157567842 172.6961640335212,69.71590288748848 172.24133025007905,70.44277078991581 172.24133025007905,70.71967219201906 172.41821005477686,71.34269902332744 172.3676729676954,71.61959924918483 171.81176501020673,72.10417377340491 171.68542229259037,72.5195224834024 171.63488520556712,72.93487037910381 171.60961666202638,74.0424607865425 171.43273685735767,74.3539695453801 171.23058850917732,74.42319365178992 169.1332993968099,74.38858160136442 168.95641959217028,74.31935748366232 168.85534541803645,74.07707289350219" stroke="#4dd2ff" stroke-linecap="round" stroke-linejoin="round" stroke-width="0.5"><title>2022-08-31 5.1km</title></polyline><polyline fill="none" points="36.34834266360849,121.22314082180674 36.18638799712062,121.25483246914519 36.14011523532099,121.85697278376028 36.04756971160532,122.11050498856639 35.862478664232185,122.1421964909241 34.937023427308304,122.0788134811155 34.79820514182211,121.95204739937617 34.79820514182211,121.69851498736534 35.14525085565401,120.55761503276881 35.26093276022584,120.3040807981597 35.49229656942771,120.0188543881668 35.79306952143088,119.76531944949238 36.88047942484263,119.06809665917535 38.12984399459674,118.37087136271293 38.615707994031254,118.14902642456582 39.14784475520719,118.02225777468993 40.050163611158496,117.95887341862544 41.11443713362678,117.99056559926248 42.24811979880906,117.83210464438889 42.71084741721279,117.86379684576241 43.2661205593904,117.95887341862544 43.4743479876779,117.89548904185358 43.775120939681074,117.64195132776513 44.260984939028276,116.91302855347749 44.33039408182958,116.65948955510976 44.33039408182958,116.43764265973005 44.260984939028276,116.08902559723356 44.122166653571185,115.64533024773118 44.075893891684245,115.39178959240962 44.006484748912044,114.44100918309414 44.052757510740776,113.64868861535797 44.006484748912044,112.91975083437865 43.65943903505104,112.31758277521294 43.42807522584917,111.68371964074322 43.10416589290253,110.9864678002632 42.201847036980325,109.27502083790023 42.06302875143592,108.86300357306027 41.94734684686409,108.32421044459625 41.78539218037622,107.88049733269145 41.507755609287415,107.6269465272344 40.998755229025846,107.4367832056887 39.70311789732659,107.56355877417082 38.12984399459674,107.5952526532783 36.857343043899164,107.84880350009189 35.95502418788965,107.72202811813622 35.02956895099487,107.84880350009189 34.28920476153144,107.81710966238461 31.998703050223412,107.97557879930537 31.605384574475465,107.94388498227636 31.14265695604263,107.7537219713704 31.003838670498226,107.69033425973612 30.957565908698598,107.5952526532783 30.91129314681166,106.89798611536389 30.818747623154195,106.6444340255839 30.54111105206539,106.35918752827274 30.078383433632553,106.13732885153149 28.2968821026152,106.10563473418006 27.81101810320979,106.01055235095555 27.024381151859416,105.72530492140504 26.607926295284415,105.66191654694558 25.659334677446168,105.66191654694558 24.98837963072583,105.75699910098047 24.780152202380123,105.72530492140504 24.66447029777919,105.63022235169774 24.548788393149152,105.37666860467289 24.502515631262213,104.9329487496434 24.22487906026072,103.85533916114946 24.201742679375457,103.06297535001067 23.94724248914281,102.27060830185656 23.854696965485346,101.66840718018648 23.715878679970047,101.06620418871171 23.669605918141315,100.59077945371973 23.73901506085531,100.05196334511857 23.715878679970047,99.63992648737621 23.715878679970047,99.5131457397074 23.831560584600084,99.32297446273151 24.386833726719487,98.78415483204299 24.826424964267062,98.02346574622788 25.219743439927697,97.61142457899405 25.93697124850587,97.13599137518031 26.862426485400647,96.85073089352227 27.37142686569132,96.40699153249443 27.510245151206618,96.21681720983179 27.62592705586576,95.9315553761844 27.62592705586576,95.32933457172476 27.672199817665387,95.07576735784824 27.99610915061203,94.21997556329006 28.250609340757364,93.74453404567612 28.412564007216133,93.49096475978149 28.620791435503634,93.33248378765711 29.661928576999344,92.60346964822384 29.916428767173784,92.3182024997659 30.008974290889455,92.09632776096987 29.98583790991688,91.90614921133965 29.939565148117254,91.77936340807355 29.70820133885718,91.52579155271815 28.481973149988335,90.95525366606307 28.13492743615643,90.70168073325476 27.972972769697662,90.51150081603555 27.81101810320979,90.16283715015743 28.019245531526394,89.43381109597976 27.92670000786893,89.21193305726047 27.764745341410162,89.08514549258689 26.816153723571915,88.7998731690459 26.654199057084043,88.70478230122535 26.584789914340945,88.48290342846303 26.607926295284415,88.16593316993385 26.72360819991445,87.97575076606881 27.278881341975648,87.24671649029187 28.80588248287677,84.9645045180514 29.152928196737776,84.55243560505915 29.592519434227142,84.10866810430889 29.685064957942814,83.95017946496955 29.73133771980065,83.72829515245394 29.75447410068591,83.47471277015575 29.685064957942814,81.73132491552678 29.592519434227142,80.39999999999418 29.638792196114082,81.06566360020952 29.61565581522882,81.88981536818028 29.661928576999344,83.22113005620486 29.638792196114082,83.7599929269636 29.52311029151315,84.04527266415244 29.01410991116427,84.74262136602192 28.944700768450275,85.05959721982072 28.944700768450275,85.2814800090855 28.967837149335537,85.43996756042179 29.03724629210774,85.5350600288948 29.245473720453447,85.72524482622975 30.517974671151023,86.58107410599769 31.420293527131435,87.3101108840201 31.975566669279942,87.62708254132303 32.92415828705998,88.03914492139302 33.10924933446222,88.26102430184255 33.479431429179385,89.11684239147871 33.757068000297295,89.5289016062452 34.79820514182211,90.22623059050238 35.515432950429386,91.08204000814294 37.87534380448051,92.60346964822384 38.222389518341515,93.07891396299237 38.70825351768872,93.49096475978149 38.985890088719316,93.90301468109828 39.14784475520719,94.06149518686289 40.42034570596297,94.79050384589937 40.97561884808238,95.04407143282879 41.46148284742958,95.13915919241845 42.109301513264654,95.45611805438239 42.29439256063779,95.61459729113267 42.317528941552155,95.70968477106362 42.22498341786559,95.89985959102341 41.808528561290586,96.56546999225975 40.188981896732,99.67162166131311 39.749390659155324,100.43230428308016 39.5642996118404,100.84433945748606 38.89334456503275,101.89027096882637 37.96788932813797,103.98211707068549 37.1812523767876,105.50344551967282 36.51029733006726,106.6444340255839 36.25579713989282,107.24661969761655 36.02443333066185,107.56355877417082 35.469160188542446,107.97557879930537 35.006432570080506,108.8946972398553 33.80334076212603,111.01816112009692 32.83161276340252,113.01482983077585 32.044975812052144,114.21915975034062 30.84188400406856,116.4693350889138 30.494838290236657,117.32502871897304 29.962701529002516,118.21241071856639 29.54624667239841,119.00471264478983 29.314882863225648,119.38501641993935 28.944700768450275,120.36746438790578 28.320018483500462,121.60344024756341 28.227472959813895,121.98373892765085 28.227472959813895,122.20557948001078 28.27374572167173,122.30065392478718 29.060382673022104,122.64925982368004 29.73133771980065,122.8077168433083 30.332883623806993,122.8077168433083 31.28147524158703,123.31477843647008 32.068112192937406,123.31477843647008 32.577112573286286,123.25139580972609 32.78534000154468,123.28308712568833 33.08611295351875,123.50492619207944 33.73393161941203,123.50492619207944 34.104113714100095,123.60000000000582 34.58997771353461,123.56830873589206 34.6593868562486,123.50492619207944 34.8676142845361,123.12463049436337 34.89075066553778,122.83940823176818 34.82134152270737,122.3323453959747 34.84447790365084,121.95204739937617 34.91388704642304,121.50836546096252 35.237796379311476,120.43084795690083 35.49229656942771,120.05054623218894 36.14011523532099,119.44840030994965 36.94988856755663,119.03640465457283 37.82907104259357,118.4342555841431 38.91648094597622,117.89548904185358 39.70311789732659,117.8004124379222 40.1195727539598,117.86379684576241 40.14270913484506,117.95887341862544 40.1195727539598,118.02225777468993 39.772527040157,118.65610019599262 39.772527040157,118.90963658453256 39.8419361829001,119.32163250917802 39.81879980195663,119.67024376195332 39.70311789732659,119.89208696022979 39.37920856437995,120.11392990485183" stroke="#4dd2ff" stroke-linecap="round" stroke-linejoin="round" stroke-width="0.5"><title>2022-08-29 5.1km</title></polyline><polyline fill="none" points="110.3765781953698,88.96740640390635 110.33169033005834,88.96740640390635 110.13717624708079,89.21335201476177 109.97258740765392,89.60276491249533 109.83792381174862,89.80771858370281 109.70326021584333,89.88969995843217 109.25438156284508,89.91019529371988 109.05986747989664,90.05366254708497 108.95512912751292,90.23812020328478 108.91024126223056,90.58653948034771 108.83542815336841,90.68901555416232 108.76061504453537,90.73000596024212 108.64091407039086,90.73000596024212 108.35662425684859,90.64802513473114 108.01248395620496,90.66852034610929 107.59353054672829,90.5250537959073 107.29427811136702,90.60703470179578 106.99502567603486,90.73000596024212 106.90524994544103,90.75050115830527 106.1720814788423,90.42257758812775 105.78305331291631,90.42257758812775 105.09477271162905,89.97168127957411 104.9002586286515,89.88969995843217 104.72070716746384,89.88969995843217 104.57108094979776,89.99217660146678 104.49626784099382,90.09465316084243 104.09227705324884,91.07842387122218 103.46384693903383,92.32862135059986 102.73067847249331,94.21414152479701 102.62594012010959,94.60353889968974 102.44638865892193,95.0954075403206 101.95262214058312,96.28408212688373 101.81795854467782,96.48902488283784 101.57855659644702,96.5505076443078 101.4588556222734,96.63248461277544 100.68079929039232,98.41547042393358 100.29177112446632,99.60411355381075 100.0673317979381,100.19843089565256 99.87281771498965,100.60830328414158 99.78304198442493,100.8747196186232 99.72319149732357,101.24360284005525 99.76807936263504,102.04284609906608 99.693266253802,102.35024599676399 99.31920070966589,103.25194801839098 99.19949973549228,103.6208242503053 98.85535943484865,104.46103828556807 98.57106962130638,105.11681118390698 98.00248999413452,106.59228767323657 97.83790115470765,106.96115408439073 97.32917201463715,108.4366088846582 97.19450841870275,108.7439931174813 96.55111568275606,110.52680681759375 95.54862002437585,112.96532706449943 94.06732046944671,116.98161004614667 93.93265687354142,117.22750074639043 93.8279185211577,117.35044591576298 93.55859132937621,117.45290013161139 93.4388903552317,117.57584508018044 92.84038548453827,119.09215620779287 92.39150683156913,120.34207457605225 91.89774031323032,121.53051000236883 91.73315147380345,121.98129290930956 91.62841312141973,122.24766386590636 91.49374952554354,122.37060411670973 91.38901117318892,122.3910941467766 88.59100090278662,121.94031271200947 88.2318979803531,121.91982260828081 87.63339310968877,121.98129290930956 87.24436494376278,122.06325326388469 86.88526202132925,122.20668375552486 86.00246733709355,122.69844419662695 85.58351392764598,123.06726326271746 85.10471003106795,123.59999999999854 85.2992241140455,123.39510152256844 85.59847654937766,122.98530356393894 85.95757947178208,122.65746423346718 86.4513459900918,122.37060411670973 86.76556104718475,122.22717381242546 87.39399116142886,122.04276318028133 88.08227176268701,121.94031271200947 88.32167371094692,121.94031271200947 91.13464660313912,122.32962404648424 91.41893641668139,122.30913400638383 91.56856263437658,122.24766386590636 91.62841312141973,122.18619369536464 92.15210488330922,120.75188116689242 92.34661896628677,120.34207457605225 92.6757966451114,119.37902381939057 93.33415200284799,117.76026227709372 93.51370346409385,117.51437262092804 93.84288114291849,117.3299550625743 93.93265687354142,117.20700987307646 94.53116174420575,115.56772916887712 94.71071320542251,115.1374144352958 94.87530204484938,114.64562436116103 95.2344049672538,113.78498709345149 95.95261081209173,111.8177940282767 96.29675111273536,111.01861303557234 97.08977006634814,108.94891552092304 97.29924677111558,108.4366088846582 97.76308804587461,107.00213917424117 98.04737785941688,106.36686877700413 98.46633126892266,105.21927538968157 98.94513516544248,104.11265753921907 99.37905119670904,102.98553673197603 99.693266253802,102.02235274574923 99.70822887556278,101.85840579887008 99.70822887556278,101.20261586899142 100.05236917620641,100.28040548047284 100.15710752856103,99.82954460110341 100.30673374622711,99.37868210150918 100.60598618155927,98.66139751271112 101.00997696927516,97.37027491832123 101.17456580873113,96.96039195083722 101.32419202642632,96.67347307685122 101.41396775696194,96.59149613519548 101.69825757056242,96.5505076443078 101.81795854467782,96.4480363584371 101.87780903175008,96.32507070479915 102.32668768480653,95.23886886394757 102.64090274189948,94.37809846151504 103.01496828603558,93.4968274070925 103.46384693903383,92.32862135059986 104.0174639444158,91.11941415007459 104.31671637974796,90.40208233655721 104.91522125044139,89.15186565726617 105.4089877687511,88.27055788774305 105.87282904351014,87.22527785540296 106.84539945836877,85.4011408577353 107.42894170727232,84.39682939053455 107.56360530317761,84.10988178016123 107.89278298208956,83.6384664237703 108.23692328267498,83.00307770554355 108.50625047448557,82.40867889416404 108.77557766629616,81.89626386507734 109.17956845401204,81.30185980891838 109.50874613286578,80.6869560971245 109.58355924169882,80.60496870779025 109.7481480811548,80.56397499302693 110.31672770829755,80.64596240912215 110.55612965658656,80.64596240912215 111.37907385375001,80.5024843957508 112.84541078691836,80.40000000000146 113.1745884657721,80.42049688589032 113.44391565755359,80.5024843957508 113.54865400993731,80.58447185206023 113.65339236232103,80.7279497717027 113.90775693234173,81.5683171479468 114.67085064246203,83.00307770554355 114.89528996896115,83.5154882133429" stroke="#4dd2ff" stroke-linecap="round" stroke-linejoin="round" stroke-width="0.5"><title>2022-08-27 6.0km</title></polyline><polyline fill="none" points="153.75257731950842,114.82878563470149 153.05979381440557,114.62543770490447 153.0103092783247,114.6932203703036 152.93608247418888,115.09991589763376 152.83711340199807,115.26937213201018 152.6886597937846,115.33715458711958 151.99587628859445,115.50661062767904 151.89690721646184,115.43882822804153 151.79793814430013,114.59154636393941 152.1690721649211,113.71036955408636 152.41649484529626,113.33756285395066 152.8123711339722,112.82918900102959 153.9999999999418,111.98189647779509 155.1876288659405,111.27016808358894 156.10309278350906,110.9651408813952 156.67216494842432,110.9651408813952 157.31546391744632,110.8634650476888 158.23092783504399,110.8634650476888 159.49278350512031,110.6262212418078 160.68041237111902,110.49065323089599 161.17525773189845,110.35508513139212 161.32371134019922,110.25340899864386 161.52164948449354,110.08394866654999 161.7938144329819,109.64335115539143 161.81855670094956,109.40610595408361 161.7938144329819,109.03329151810613 161.49690721643856,107.20310184067057 161.49690721643856,106.3218936441699 161.39793814430595,105.47457454020332 160.90309278352652,104.72893086560362 160.77938144325162,104.2544289498328 160.33402061855304,103.20374227348657 159.54226804120117,101.64464901029714 159.27010309277102,100.66173636485473 159.02268041233765,100.22111883945763 158.67628865980078,99.916075389061 158.2061855669599,99.7466066115303 154.643298969022,99.98386286119057 154.0989690720744,100.11943773915118 153.7773195875634,100.11943773915118 153.52989690715913,100.18722514490946 153.0103092783247,100.0516503113322 153.1340206185414,99.5093500905059 153.40618556694244,98.8992606473621 153.90103092778008,98.1535933354753 154.37113402059185,97.23845251632156 154.643298969022,96.5944621119852 155.0639175257238,95.81489210532163 155.23711340199225,95.37426428370236 155.97938144323416,93.78121742668736 156.74639175250195,92.56100304830761 157.7855670102872,90.49340118656983 159.04742268036352,88.29019619170867 159.41855670098448,87.61228225409286 159.6164948453079,87.3072202593612 159.8391752576863,87.1716370064969 160.1608247422264,87.20553282806941 161.00206185565912,87.71396948605252 162.83298969070893,89.27316746558063 164.51546391748707,90.42561061261222 165.18350515459315,91.27299119436066 165.52989690718823,91.61194245776278 165.75257731956663,91.74752280801476 166.17319587623933,91.81531294982415 166.4206185566727,91.91699812108709 167.53402061853558,92.86605731588497 168.12783505150583,93.44226970829186 168.6969072164793,93.91679635897162 171.04742268039263,95.47594771020522 172.40824742263067,96.5944621119852 173.2247422680084,97.17066414687724 174.9814432989806,98.18748736240377 177.33195876286482,99.37377481382282 178.2226804123202,99.98386286119057 179.31134020612808,100.45837454638968 181.73608247423545,101.67854246665956 184.0618556701229,102.5597703896783 185.49690721646766,103.20374227348657 186.78350515462807,103.6104603279091 187.60000000000582,103.94939143076772 186.16494845357374,103.47488773176156 185.32371134019922,103.10206263529835 184.1608247422555,102.62755699791887 182.94845360826002,102.05137012177147 180.35051546388422,101.0006722859689 179.2865979381022,100.45837454638968 178.04948453602265,99.916075389061 173.96701030925033,97.47571163492103 173.15051546387258,97.06898155108502 172.1608247422264,96.3910963057424 170.94845360826002,95.34036979707889 169.6618556700705,94.56079507693357 168.44948453598772,93.74732267973013 168.0536082474282,93.40837490600825 167.36082474220893,92.62879292432626 166.37113402059185,91.88310306955827 165.65360824740492,91.54415224940749 165.15876288656727,91.1374105339928 164.51546391748707,90.42561061261222 162.88247422673157,89.27316746558063 161.00206185565912,87.74786521897477 160.1608247422264,87.27332445450884 159.78969072160544,87.20553282806941 159.54226804120117,87.40890764078358 158.94845360820182,88.59525674082397 157.73608247414813,90.69677277546725 156.67216494842432,92.83216241939226 156.42474226799095,93.17111113481224 155.4103092782898,95.00142462663644 154.24742268040427,97.57739403125015 153.30721649480984,99.44156246328203 152.88659793810803,100.01775658903352 152.3670103092736,100.32279988999653 151.5010309277859,101.98358332520002 150.83298969067982,103.16984906625294 150.5360824741656,103.6443534631544 150.16494845354464,104.45778704658733 149.62061855671345,105.3728960150911 149.00206185563002,106.49135704962828 148.23505154636223,107.77927440675558 147.96288659784477,108.45712243532762 147.56701030925615,109.13496824898175 147.09690721644438,110.11784074408934 146.77525773190428,110.93124894239008 145.90927835050388,112.2869221848814 145.38969072161126,113.54091204612632 144.77113402055693,114.45598094450543 144.49896907212678,115.1338071556238 144.39999999999418,115.40493701996456 144.49896907212678,115.57439300515398 144.820618556696,115.67606652982067 145.9835051545815,116.28610663145082 146.7505154638784,116.31999769566755 147.1711340205802,116.55723498968291 147.64123711333377,116.72669003359624 148.18556701025227,116.65890803260845 148.87835051541333,116.387779807279 149.1257731958176,116.31999769566755 149.81855670100776,116.72669003359624 151.3030927834916,116.82836299348855 151.5010309277859,116.6927990358381 151.59999999997672,116.45556189682975 151.6247422679735,116.28610663145082 151.57525773192174,115.20158965494193 151.69896907216753,114.62543770490447 151.9216494844586,113.98150127890403 152.1443298968661,113.54091204612632 152.39175257729948,113.2358881829714 152.86185567005305,112.76140572661825 153.25773195872898,112.45638071722351" stroke="#4dd2ff" stroke-linecap="round" stroke-linejoin="round" stroke-width="0.5"><title>2022-08-26 5.1km</title></polyline><polyline fill="none" points="25.453319617925445,171.4897803874046 25.34986282780301,171.53701737969823 25.108463650918566,171.58425434878882 24.464732512511546,171.50552605408302 23.993429357622517,171.59999999999854 23.763525379632483,171.5685086950034 23.223251031333348,171.363814961529 22.372606312739663,171.09613788482966 22.26914952263178,171.0016634449421 22.20017832922167,170.90718891251163 22.165692732538446,170.7024937744427 22.188683130341815,170.54503568006476 22.303635119329556,170.23011871964263 22.407091909451992,170.04116804940713 22.682976683034212,169.6317736597266 22.86689986543206,169.30110769080056 23.085308644513134,168.79723355652823 23.418669412625604,167.9154474824245 23.706049385131337,167.4115661032847 23.94744856201578,167.12813166978594 24.177352540034917,166.79745711042779 24.5911797004228,165.88415957585676 24.809588479518425,165.52198746720387 25.22341563992086,164.71890532755788 25.579766805807594,164.13627291969897 25.66023319811211,163.93156339960115 25.67172839702107,163.82133501637145 25.6487379992177,163.77409424207144 25.52229081133555,163.71110650703486 25.246406037724228,163.71110650703486 24.154362142216996,163.83708193599887 23.763525379632483,163.83708193599887 23.61408779391786,163.82133501637145 23.545116600522306,163.75834731217765 23.4761454071122,163.64811873080907 23.441659810428973,163.27019120888144 23.430164611520013,163.22295016443968 23.361193418124458,163.12846800603438 23.20026063354453,163.0969739327047 22.889890263220877,163.0969739327047 22.65998628521629,163.04973280331615 22.292139920420595,162.8450209750954 21.49897119634261,162.60881447913562 21.01617284254462,162.56157311041898 20.797764063448994,162.57732023591234 20.4988888920343,162.65605582463468 20.40692730086448,162.65605582463468 20.280480112924124,162.56157311041898 20.245994516226347,162.46709030363127 20.10805212944979,161.7584662996378 20.10805212944979,161.31754206727055 20.004595339356456,160.97110018358217 19.912633748157532,160.23097016857355 19.93562414594635,159.72704860768863 19.98160494156764,159.60106780569913 20.314965709651005,159.2231244115901 20.487393693154445,158.87667499809322 20.786268864569138,158.57746768408106 21.01617284254462,158.3884941649303 21.430000002932502,158.27825944098004 21.567942389738164,158.21526811351214 21.65990398095164,158.13652889629157 21.763360771044972,157.99479814316146 21.78635116883379,157.9003108585748 21.763360771044972,157.53810874275223 21.80934156663716,157.3333852054784 21.981769550126046,156.97118095866608 22.177187931447406,156.6877158158095 22.28064472154074,156.59322724954836 22.86689986543206,156.27826469285355 22.981851854448905,156.12078302844748 23.02783265004109,155.97904931042285 23.02783265004109,155.88456004927866 22.993347053328762,155.79007069544605 22.889890263220877,155.67983299888147 22.188683130341815,155.3491191524372 22.050740743536153,155.27037759315135 21.95877915233723,155.17588763702952 21.912798356745043,155.0813975882702 21.889807958927122,154.9554107124859 21.93578875453386,154.671939639622 21.9242935556249,154.56170066384948 21.80934156663716,154.45146156197734 21.452990400750423,154.3097253885062 21.372524008445907,154.2309829798396 21.33803841174813,154.16798900654248 21.33803841174813,154.04200093643158 21.384019207340316,153.88451561718102 21.61392318533035,153.47505258242745 22.050740743536153,152.92384959567426 22.28064472154074,152.51438247856277 22.487558301727404,152.30964826747368 22.87839506434102,152.0576671028175 23.234746230227756,151.91592740810302 23.46465020821779,151.86868079683336 23.82100137413363,151.88442966983712 24.41875171691936,151.85293192129757 26.315459535398986,151.88442966983712 26.71779149690701,151.8371830431788 27.2580658452207,151.8214341624698 28.200672154984204,151.72694082416274 28.87888889007445,151.58520064294134 29.396172840584768,151.33321758368402 30.085884774583974,150.82924948829168 30.361769548166194,150.70325705256255 30.718120714082033,150.46702079155511 31.154938272287836,149.9787973499915 31.52278463705443,149.45907290340983 31.695212620557868,149.1598363443045 31.752688615059014,148.98659370110545 31.798669410665752,148.1676242618414 31.925116598577006,147.82113509582268 32.223991769962595,147.41164629310515 32.258477366674924,147.30139901042276 32.28146776446374,147.15965231875452 32.33894375896489,146.90765768531128 32.33894375896489,146.5611639881463 32.32744856005593,146.48241524688638 32.15502057658159,145.69492429364618 32.063058985353564,145.1121768443627 31.867640604061307,144.48217563694197 31.476803841462242,143.7734193543365 31.108957476666546,143.31666254282754 31.039986283285543,143.190660282693 30.787091907463036,142.13538488489576 30.338779150377377,140.90684075598256 30.2468175591639,140.51307329677365 30.223827161375084,140.30831358198338 30.200836763586267,139.86729117954383 30.212331962466124,139.00099129719456 30.315788752574008,138.46545656456146 30.407750343787484,138.19768808188383 30.41924554266734,137.96142115553084 30.453731139394222,137.8826653846627 30.6146639239887,137.6306464852314 30.74111111187085,137.36287568223634 30.91353909537429,137.14235799146263 31.016995885467622,137.06360155100992 31.131947874469915,137.03209895684267 31.442318244764465,136.96909373752715 32.235486968871555,136.35479068967106 33.21257887534739,135.83499274343194 33.76434842252638,135.59872002249176 34.270137174171396,135.45695611180417 34.867887516942574,135.33094357157097 35.327695472937194,135.2836888265374 35.69554183776199,135.25218565026444 36.62665294864564,135.12617284219596 37.178422495824634,135.09466961446014 38.00607681661495,135.20493086658098 38.83373113741982,135.14192445224762 39.14410150771437,135.04741475346964 39.59241426482913,135.03166312801477 40.06371741970361,135.03166312801477 40.47754458012059,135.14192445224762 41.30519890089636,135.09466961446014 41.40865569100424,135.03166312801477 41.61556927119091,134.82689176247368 42.098367624974344,134.65362334396923 42.880041150187026,134.5748648689114 43.42031549848616,134.3700925323792 43.60423868088401,134.38584426600573 44.02956104018085,134.3228373159509 44.31694101265748,134.21257505422545 44.592825786268804,134.00780194759864 45.16758573128027,133.37772812016192 45.661879283958115,132.98392988527485 46.39757201356406,132.1648244001044 46.84588477066427,131.36146417824057 47.30569272665889,129.97525823754404 47.6965294892434,128.9986011648216 48.00689985953795,128.44725812190154 48.05288065515924,128.40000000000146 48.08736625184247,128.43150541718933" stroke="#4dd2ff" stroke-linecap="round" stroke-linejoin="round" stroke-width="0.5"><title>2022-08-25 5.1km</title></polyline><polyline fill="none" points="113.82668482669396,168.86410625372082 113.65789518487873,168.7870383647678 113.29218429420143,168.82557231240207 113.17965786636341,168.94117411763 113.1233946523862,169.3265130592481 112.98273661750136,169.59624994374462 112.81394697568612,169.71185137123393 111.94186715962132,169.94305405628984 111.71681430382887,170.09718905371847 111.51989305502502,170.32839136106486 111.4636298410478,170.67519439694297 111.29484019923257,171.09906408186362 110.92912930861348,171.44586598454043 110.47902359697036,171.60000000000582 109.46628574602073,171.52293300481688 108.76299557165476,171.09906408186362 108.53794271592051,171.0605305055651 107.10323076037457,171.33026540697028 106.51246701402124,170.90639613765234 105.86544005363248,170.63666075150832 105.1058866653475,170.67519439694297 104.45885970507516,170.4439924296894 103.3898586400901,169.78891895807465 103.22106899827486,169.6347837591602 103.16480578429764,169.48064845964836 103.16480578429764,169.3265130592481 103.61491149588255,168.24756243624142 104.37446488410933,166.86033295404923 105.55599237693241,164.27852302714018 106.7656514767441,162.00496551003016 107.55333647190128,160.65623459177732 108.59420592995593,158.65239155635936 109.55068056698656,157.18803395582654 110.90099770156667,154.52904559488525 111.80120912473649,152.91051626236003 112.44823608506704,151.9856373708608 113.06713143840898,151.63880685143522 113.17965786636341,151.48465979019238 115.09260714042466,147.59241310269863 116.1334765983629,145.24161913624266 117.3431356982328,143.0834925686504 117.93389944458613,141.85026851992006 118.27147872821661,141.04096173304424 118.58092640497489,140.5784994650603 120.38134925113991,137.6495507066138 120.38134925113991,137.34123819487286 120.29695443023229,137.14854267021292 119.39674300706247,136.6860727687017 118.29961033526342,136.33921974766417 117.23060927027836,135.72259089448198 116.72424034477444,135.3371970425651 116.47105588205159,135.1059604290349 116.18973981228191,134.6820260487002 115.6833708868362,134.29663049617375 115.12073874735506,133.6414566112653 113.48910554300528,132.71650214552938 112.25131483626319,131.8300840446318 111.12605055735912,130.71242168993922 110.02891788550187,129.86453636990336 109.74760181567399,129.36351179334451 109.41002253210172,128.5541621515149 109.3256277111941,128.43854054738767 109.21310128323967,128.40000000000873 108.9317852135282,128.47708108834922 108.62233753688633,128.70832420221996 108.22849503927864,129.17080974955752 107.72212611377472,129.9030766779324 107.24388879525941,130.44264032789215 106.96257272554794,130.6738815142744 106.70938826282509,130.78950202239503 106.23115094430977,130.48118054142105 105.89357166056288,130.48118054142105 105.21841309330193,131.1363632066641 105.0777550584171,131.40614377503516 104.93709702359047,131.90716401176178 105.30280791420955,133.0248207038676 105.27467630716274,133.37167860020418 105.02149184449809,133.71853598630696 104.6276493468904,134.02685323466721 103.72743792377878,134.48932835116284 103.4461218540091,134.87472358878586 102.71470007277094,136.95584698817402 102.65843685885193,137.34123819487286 102.68656846578233,137.8807848259894 102.48964721697848,138.3817913067469 102.29272596823284,138.65156358624517 101.89888347056694,138.9598743849201 100.91427722654771,139.11402963311411 100.407908301102,139.30672355172283 99.31077562912833,140.50142233220686 98.83253831061302,141.23365407715028 98.12924813636346,142.08149852021597 98.01672170846723,142.35126656740613 97.98859010147862,142.54395784086955 98.07298492238624,143.81571629623068 98.43869581306353,145.97383616297157 98.46682742005214,146.78312602141523 98.43869581306353,147.36118850571802 98.49495902698254,147.70802531602385 98.720011882775,148.32462283063796 98.80440670368262,148.8641443335364 98.7762750966358,149.4422017168108 98.60748545487877,149.75049840849533 98.46682742005214,149.90464660337602 98.15737974329386,150.0973317049793 97.70727403182536,150.17440570161853 95.93498279253254,150.13586870649306 93.85324387659784,149.63488719647285 93.12182209541788,149.51927592753782 92.22161067224806,149.51927592753782 91.18074121430982,149.67342427345284 89.18339711928274,150.32855361931433 88.00186962645967,150.82953365588037 86.37023642210988,151.21490219056432 84.68234000378288,151.29197582195047 83.55707572487881,151.25343900934968 82.82565394364065,151.36904942816182 82.45994305302156,151.67734360106988 82.12236376933288,152.64076029371063 81.72852127160877,153.45002727405517 81.58786323689856,153.912464301844 81.16588913230225,154.45197302140878 80.85644145560218,154.95294429879868 80.04062485339819,156.7256033508893 79.75930878362851,157.11096225128858 79.61865074880188,157.41924891833332 80.06875646032859,156.18609983249917 81.02523109735921,154.41343672516814 81.50346841587452,153.8353915267362 81.84104769962141,153.64270947911427 84.71047161077149,153.4114908141928 87.10165820340626,153.45002727405517 88.19879087526351,153.257344911588 90.33679300511722,153.18027192247973 93.37500655808253,152.8719797142694 95.3723506531096,152.98758933960926 97.70727403182536,152.79490659922885 99.25451241520932,152.75637003233714 100.37977669411339,152.64076029371063 101.53317257994786,152.67929687950527 102.60217364487471,152.52515049833164 104.76830738171702,152.4480772700481 105.94983487459831,152.33246738022717 107.69399450678611,152.33246738022717" stroke="#4dd2ff" stroke-linecap="round" stroke-linejoin="round" stroke-width="0.5"><title>2022-08-20 4.1km</title></polyline><polyline fill="none" points="171.31146541470662,168.2258615808678 171.26014690834563,168.54218930576462 171.10619138897164,168.71792672974698 170.41339155234164,168.71792672974698 169.56663619633764,168.85851656558225 169.31004366424168,169.0694011470623 169.23306590458378,169.20999075309373 169.1047696386231,169.77234825878986 168.95081411930732,169.94808467793337 168.79685859999154,169.98323194446857 168.07839951012284,169.98323194446857 167.87312548438786,170.05352646042593 167.74482921836898,170.1589681912301 167.5652144459309,170.4401458875218 167.4369181797956,171.2133826573554 167.35994042019593,171.4594119557878 167.07768863486126,171.60000000000582 165.92302224040031,171.49455897539156 165.2045631504734,171.14308852037357 164.99928912479663,171.17823559166573 163.92160048993537,171.56485299751512 163.7419857174391,171.52970598939282 163.25445990648586,171.2133826573554 162.8182526018354,171.0025001775357 162.53600081650075,170.93220597167965 162.0484750054893,170.9673530774453 161.84320097981254,170.93220597167965 160.35496429359773,170.1589681912301 160.22666802752065,170.05352646042593 160.12403101468226,169.84264284365054 160.14969026792096,169.70205365105357 160.81683085137047,168.47189429601713 161.20171964954352,167.59320473560365 162.1511120183859,165.97640656678414 162.79259334865492,164.5704852383351 164.07555600919295,162.285843482372 165.38417792296968,160.07147524002357 165.69208896148484,159.3684964280983 166.41054805135354,157.96253191230062 167.07768863486126,156.55655820721586 168.07839951012284,154.93967708584387 168.20669577619992,154.37728080349916 168.07839951012284,154.1663818185334 166.46186655783094,154.30698116484564 165.48681493580807,154.30698116484564 165.02494837797713,154.34213098709006 164.33214854128892,154.34213098709006 164.99928912479663,154.37728080349916 166.30791103851516,154.1663818185334 168.386310548638,153.95548262678494 168.87383635964943,153.74458322834107 169.2074066514033,153.46338370868762 169.54097694315715,152.97128366476682 170.41339155234164,151.42467619768286 171.74767271924065,148.50718183879508 172.79970210097963,146.5738806455338 173.15893164591398,146.0114624902344 173.38986492477125,145.44904286437668 174.44189430651022,143.37510778444994 175.75051622022875,141.09024090167077 175.82749397988664,140.9144809053687 175.85315323306713,140.633264612552 175.67353846057085,140.422352151596 175.339968168817,140.28174372955982 174.44189430651022,140.03567876960733 173.800412976183,139.71930912177777 173.23590940557187,139.26232992000587 172.44047255598707,138.73504501934804 172.0812430109945,138.24291127912875 171.5167394404416,137.7507764128095 171.26014690834563,137.36409822793212 169.9002064880915,136.55558704970463 169.0534511321457,135.95798987758462 168.48894756147638,135.64161423202313 167.71916996518848,134.79794356845377 166.51318506425014,133.98942274405272 166.23093327891547,133.60273779710406 165.89736298721982,132.86451914969075 165.76906672114274,132.65359907076345 165.56379269546596,132.54813895377447 165.43549642938888,132.54813895377447 165.1789038972929,132.7239057867264 164.87099285871955,133.00513242064335 164.17819302203134,134.02457588654943 163.5880301981815,134.62217843036342 163.51105243852362,134.65733146943967 163.07484513393138,134.48156621654925 162.8182526018354,134.44641314868932 162.48468231008155,134.72763753052277 162.2280897780438,135.2197793138912 162.1511120183859,135.50100268448296 162.1767712715664,135.67676710447995 162.35638604400447,136.09860112628667 162.38204529724317,136.27436505786318 162.35638604400447,136.83680867383373 162.2537490312243,137.11802993020683 162.125452765089,137.36409822793212 161.89451948628994,137.5398611255223 161.4583121816977,137.82108146263636 160.73985309177078,138.0671489560773 160.38062354677822,138.38352103403304 159.68782371009002,140.21143948397366 159.61084595043212,140.52780840799096 159.63650520367082,141.0199369204347 159.58518669725163,141.23084879531234 159.40557192481356,141.61752002885623 159.20029789907858,141.86358317921986 158.9693646202213,142.0393423999485 157.84035747894086,142.3205568544654 157.4811279339483,142.56661920054466 156.32646153942915,143.97268434973375 155.58234319626354,144.78116764870356 155.45404693030287,145.02722717994766 155.42838767712237,145.1678324999375 155.45404693030287,145.8005553028488 155.35140991740627,146.53872955388215 155.55668394308304,148.12052299019706 155.71063946239883,148.85868927986303 155.78761722205672,149.80775650141004 156.19816527335206,151.42467619768286 156.30080228624865,151.67072812952392 156.45475780556444,151.7761788713542 156.89096511015669,151.84647933694941 157.6350834532641,151.67072812952392 158.09695001103682,151.67072812952392 159.27727565867826,151.8816295612487 160.6372160788742,152.30343180446653 161.07342338346643,152.37373209804355 162.1511120183859,152.37373209804355 162.8695711082546,152.23313148811576 163.51105243852362,151.98708019967307 164.87099285871955,150.93257148980047 165.40983717620838,150.5107665584801 165.58945194864646,150.1241113114229 165.66642970830435,149.3156480944599 165.56379269546596,148.12052299019706 165.61511120182695,147.55810887891857 166.1026370128966,145.97631130674563 166.35922954499256,145.48419413402735 166.56450357066933,144.88662176785874 167.02637012844207,144.1132903591788 167.35994042019593,143.3399561700353 167.539555192634,142.74237784683646 167.5908736991114,141.96903872894472 167.6421922055306,141.7932794506778 168.46328830823768,141.26600075440365 168.61724382755347,141.26600075440365 169.00213262572652,141.51206430685124 169.25872515776427,141.51206430685124 169.41268067708006,141.4066085331433 169.874547234911,140.5981125502003 170.49036931199953,139.684156910007 172.2608577834908,137.29379302883171 172.87667986057932,136.6258924901922 173.38986492477125,136.16890671617875 173.7747537230025,135.92283705108275 173.90304998902138,135.74707283222233 173.8517314826022,135.29008519093622 173.6977759633446,135.0440145204484 173.51816119084833,134.93855557551433 173.23590940557187,134.93855557551433 172.51745031558676,135.39554396360472 172.00426525139483,135.5361555800191 171.5167394404416,135.50100268448296 171.4397616807837,135.32523812094587 171.5423986936221,135.079167490665 172.02992450463353,134.44641314868932 172.2608577834908,133.74335058545694 172.3378355432069,133.46212491663755 172.2865170367877,133.00513242064335 172.1838800238911,132.54813895377447 171.92728749179514,132.19660485697386 171.5167394404416,131.77476318227127 171.4141024276032,130.36861829145346 171.4397616807837,130.26315705409797 171.5167394404416,130.0170806324022 171.90162823855644,129.4546191826521 172.00426525139483,129.17338790628128 172.1325615174719,129.03277213015826 172.38915404956788,128.89215626218356 173.54382044402882,128.6460782719223 174.13398326793686,128.6109242502862 174.85244235786377,128.75154030212434 175.54524219461018,129.03277213015826 175.77617547346745,129.03277213015826 175.981449499086,128.96246420760872 176.64859008259373,128.40000000000873" stroke="#4dd2ff" stroke-linecap="round" stroke-linejoin="round" stroke-width="0.5"><title>2022-08-19 4.3km</title></polyline><polyline fill="none" points="49.81806602462893,176.40000000000873 49.74300995809608,176.42570251507277 49.611661841656314,176.57991751746158 49.48031372515834,177.01685920318414 49.34896560871857,177.1453712327202 49.12379740909091,177.27388315727876 48.52334887671168,177.2481807807926 48.29818067708402,177.32528789773642 48.26065264377394,177.47950201829372 48.22312461052206,177.94214347284287 48.185596577241085,178.17346368990547 48.12930452733417,178.27627256611595 47.941664360958384,178.37908137514023 47.62267607814283,178.40478356684616 46.70323926300625,178.27627256611595 45.896386547596194,178.4304857544339 45.57739826475154,178.40478356684616 44.05751291720662,178.07065474656702 43.231896185170626,177.7108229156147 42.91290790235507,177.63371598764206 42.706503719382454,177.68512061046204 42.57515560294269,177.73652521660551 42.34998740325682,177.96784573595505 42.23740330347209,178.14776146040822 42.01223510384443,178.81601806383696 41.824594937468646,179.25295353903493 40.99897820537444,180.89787620874995 40.71751795592718,181.6432261312293 40.154597456770716,183.33952658457565 39.31021670816699,185.44702591239184 39.19763260832406,185.65263409144245 39.10381252516527,185.72973708929203 38.709768175758654,185.83254102765932 38.65347612588084,185.93534489886952 38.35325185972033,186.91197832475882 37.94044349368778,187.60589839074237 37.752803327311995,188.1199112811446 37.546399144339375,188.55682091755443 37.13359077827772,189.5848388055747 37.021006678492995,190.04744466372358 36.795838478865335,190.6128499765182 36.514378229301656,191.33245379957953 36.495614212646615,191.6408544303995 36.551906262582634,191.97495443173102 36.57067027917947,192.36045355172246 36.551906262582634,192.74595172709087 36.514378229301656,192.87445090895926 35.838873630418675,194.36503374947642 35.594941414135974,195.1360193328146 35.05078493163455,196.39528766079457 34.90067279856885,196.93497100184322 34.01876401665504,199.0422882263374 33.56842761739972,200.37862111075083 33.30573138446198,200.99538630640018 33.043035151524236,201.71494264570356 32.83663096855162,202.40879742791003 31.879666120075854,204.8244161344046 31.560677837231196,205.77523460282828 31.410565704165492,206.08360692631686 30.94146528825513,207.23999775691482 29.646748140337877,210.68342234425654 29.233939774305327,211.65990216976206 29.121355674491497,211.81408264093625 28.72731132514309,212.0196563675272 28.61472722532926,212.19953315796738 28.37079500904656,212.84194858813134 27.657762376824394,214.48652013854007 27.48888622710365,215.0004452233261 27.094841877755243,215.95120220542594 26.325517195655266,217.9297861574596 26.250461129064206,218.00687334043323 26.044056946062483,218.08396048560098 25.293496280617546,217.9297861574596 24.24271134895389,217.82700318809657 22.08484943577787,217.51865387735597 21.259232703770977,217.59574126168445 20.396087938483106,217.82700318809657 20.077099655667553,217.9811776169372 19.589235223073047,218.26383034407627 18.7823825077503,218.85482986042916 18.181933975371066,219.60000000000582 18.726090457872488,218.93191659019794 19.25148292366066,218.4693956450792 19.94575153919868,218.1096561922459 20.996536470891442,217.67282860829437 21.540692953334656,217.59574126168445 22.760354034719057,217.57004547111865 23.698554866510676,217.74991591708385 26.006528912839713,218.00687334043323 26.19416907915729,217.9811776169372 26.36304522890714,217.85269893679651 26.738325561658712,216.6963860946562 27.3200100773538,215.28310330452223 27.638998360169353,214.15246793338156 27.845402543229284,213.6642365117732 28.126862792734755,213.12461054656887 28.57719919201918,212.0453530644445 28.74607534176903,211.86547609776608 29.177647724427516,211.63420540990774 29.2714678075572,211.50572154755355 29.96573642315343,209.80972473228758 30.622477005439578,207.85673605826742 30.978993321507005,207.11151030648034 31.541913820634363,205.7238391568826 31.842138086794876,204.7730203778483 32.461350635800045,203.23113987444958 32.79910293527064,202.2289094448497 33.32449540111702,200.99538630640018 34.09382008318789,198.70820323184307 34.50662844922044,197.83443912326766 35.25718911466538,195.75280507926072 35.40730124776019,195.47011191230558 35.76381756388582,194.44213247786683 36.42055814611376,192.8230512487935 36.495614212646615,192.48895304839243 36.4393221627688,192.05205433131778 36.42055814611376,191.5380542873172 36.551906262582634,191.07545281200146 36.72078241233248,190.68995054352854 36.85213052877225,190.27874708273157 37.09606274505495,189.63623952367925 37.22741086152382,189.35353536650655 37.73403931068606,187.83720439922763 38.559656042663846,185.93534489886952 38.709768175758654,185.7811390668794 39.122576541791204,185.62693308373855 39.2163966249791,185.49842798234022 39.422800808009924,184.83019976304786 40.36100163983065,182.54278167977463 41.074034271994606,180.66655999765499 41.37425853818422,180.04971510499308 42.46257150309975,177.58231134798552 42.68773970272741,177.2481807807926 42.85661585244816,177.2481807807926 43.156840118637774,177.42809732822934 43.400772334920475,177.63371598764206 43.75728865104611,177.81363209417032 44.07627693383256,177.94214347284287 44.50784931652015,177.83933437826636 44.84560161596164,178.1220592266036 45.220881948655006,178.32767697902455 45.408522115059895,178.35337917914148 45.8025664644083,178.07065474656702 46.38425098010339,177.89073893395835" stroke="#4dd2ff" stroke-linecap="round" stroke-linejoin="round" stroke-width="0.5"><title>2022-08-18 5.1km</title></polyline><polyline fill="none" points="82.51759036145813,202.11970370467316 82.57542168676446,202.23060588176304 82.55228915665066,202.3256647897215 82.52915662650776,202.37319420879794 82.28626506024739,202.4840960959773 81.93927710843855,202.5949978563367 81.80048192772665,202.6742133218213 81.70795180724235,202.78511486475327 81.65012048195058,203.02276060105214 81.6154216867435,203.10197571711615 81.53445783133793,203.19703377089172 81.32626506024098,203.24456276284764 81.19903614459326,203.21287677082728 80.99084337349632,203.11781873252767 80.8173493975919,203.08613269906346 80.6554216867662,203.00691757009918 80.28530120481446,203.13366174537077 80.11180722892459,203.21287677082728 80.05397590360371,203.22871976812894 79.8573493975855,203.10197571711615 79.47566265061323,202.97523150039342 79.18650602411071,202.9910745365487 79.01301204817719,202.88017322913947 78.70072289157542,202.76927179492486 78.39999999999418,202.51578232616885 78.4115662650729,202.38903734327323 78.46939759036468,202.3256647897215 78.79325301205972,201.6602504769471 78.96674698794959,201.4067581091076 79.14024096386856,201.07404837063223 79.29060240964463,200.72549408693885 79.98457831326232,199.41048255495843 80.31999999999243,198.8401105624289 80.66698795180127,198.22220378449128 80.97927710843214,197.55676131240034 81.76578313251957,196.00404445122695 81.92771084337437,195.7980699384425 82.17060240964929,195.38611960031267 82.45975903615181,195.10092218709906 82.61012048192788,194.89494575587014 82.72578313252598,194.6414357013855 83.084337349399,194.03934666555142 83.35036144580226,193.5323214197706 83.5816867469839,192.83515737768175 83.70891566267528,192.59748667216627 84.09060240961844,192.02707460188685 84.33349397592247,191.59926334701595 84.69204819278093,190.83870534420566 85.44385542167583,189.5710954149472 85.61734939760936,189.31757144042058 85.69831325301493,189.30172616997152 86.21879518071364,189.53940495441202 87.27132530120434,190.44257902156096 87.81493975906051,190.82286032239062 88.0925301204843,191.1872951694022 88.24289156627492,191.32989973666554 88.35855421687302,191.4249693316815 88.64771084337553,191.5200388334706 88.87903614455718,191.64679802415048 89.20289156628132,191.90031590836588 89.63084337348118,192.29643627546466 89.94313253011205,192.5024182268171 90.76433734942111,193.10451680635015 91.66650602410664,193.7224561976327 92.26795180724002,194.05519116178766 92.74216867469659,194.34039165082504 92.90409638555138,194.46714715443522 93.47084337347769,194.76819081149006 93.77156626505894,194.9741675119949 94.3845783132565,195.32274246985617 94.72000000000116,195.43365242098662 95.59903614457289,195.90897934587701 96.76722891567624,196.36845982508385 97.2414457831328,196.54274495453137 97.65783132528304,196.76456193892227 98.42120481927122,197.00222243056487 98.66409638554615,197.09728646412987 99.26554216867953,197.43000984760147 100.57253012048022,197.98454628296167 100.78072289157717,198.0320778298992 101.47469879519485,198.28557901986642 101.85638554216712,198.50739201743272 102.37686746988038,198.68167330244614 102.93204819277162,198.9193290953699 103.27903614458046,199.10945331032417 103.59132530121133,199.23620257990115 104.19277108434471,199.41048255495843 104.73638554217177,199.72735443447164 105.46506024098198,200.04422527852876 105.71951807229198,200.18681682054012 106.5754216867499,200.51952960310882 107.00337349397887,200.64627702956204 107.47759036146454,200.88392800759175 109.35132530120609,201.48597454522678 109.77927710843505,201.67609372791776 110.23036144579237,201.92958539167012 110.79710843374778,202.13554688055592 111.36385542168864,202.42072360453312 112.2313253011962,202.70589948984707 112.61301204818301,202.89601628084347 113.2375903614593,203.14950475565274 113.53831325301144,203.19703377089172 113.88530120482028,203.3713066275086 114.23228915662912,203.45052145884983 114.89156626506883,203.94165196865652 115.15759036145755,204.05255206213042 115.86313253012486,204.24266621297284 117.28578313252365,204.81300642919814 117.59807228916907,204.86053462917334 117.73686746988096,204.90806280581455 118.03759036144766,205.0664898930845 118.3845783132565,205.3199726943567 119.06698795182456,205.57345483303652 119.44867469881137,205.66851046420197 120.30457831325475,206.12794470152585 121.26457831326115,206.52400695213146 121.60000000000582,206.69827383002848" stroke="#4dd2ff" stroke-linecap="round" stroke-linejoin="round" stroke-width="0.5"><title>2022-08-17 4.3km</title></polyline><polyline fill="none" points="180.51325095063657,180.78720839176094 180.41263915901072,180.87908563793462 179.82573704083916,180.90205494007387 179.55743892965256,180.9709628240671 179.4568271379685,181.13174775526568 179.35621534628444,181.5681630702311 179.2388349226676,181.61410144557885 178.66870143645792,181.7059781513526 178.433940589166,181.79785479708517 178.29979153358727,181.95863878262753 178.2327170057979,182.09645348101913 178.14887384604663,182.57880386148463 178.06503068632446,182.69364894623868 177.9979561585351,182.71661795196997 177.36074814447784,182.6706799368112 176.7067714985751,182.53286580130225 176.27078706791508,182.6477109236439 175.91864579703542,182.80849393723474 175.80126537338947,182.80849393723474 175.18082599132322,182.4180205852026 175.0131396718789,182.3491134105425 174.7280729287013,182.39505153070786 174.62746113704634,182.3491134105425 174.4765434495057,182.2572371250717 173.77226090771728,181.88973138277652 173.4704255326651,181.86676224194525 173.33627647708636,181.95863878262753 172.2295467685326,184.16365774563747 171.7432564420451,185.2661542584683 170.9886680044292,187.47112134790223 170.63652673354954,188.29797509113268 170.55268357376917,188.66546408277645 170.43530315012322,188.96404818122392 170.31792272650637,189.19372782550636 170.2173109348514,189.30856750687235 169.94901282366482,189.37747127072362 169.78132650419138,189.46934290332138 169.7142519763729,189.56121447584883 169.496259761072,189.99760362559755 169.2111930179817,190.87037786172004 169.0267380665464,191.26082773967937 168.7752085873508,191.85798427916598 168.2553809969686,193.35086453203985 167.95354562188732,194.01691368510365 167.83616519827046,194.56812439124042 167.86970246216515,195.5327379272203 167.78585930241388,195.85427430202253 165.7568548367708,200.92985823263007 165.55563125340268,201.59587148518767 165.2370272464177,202.37671059154673 164.91842323937453,203.29533928293677 164.44890154481982,204.37472032665391 164.16383480172954,205.15554400195833 163.96261121836142,205.56891948646808 163.91230532250484,205.614850020851 163.86199942667736,205.72967629121558 163.42601499604643,206.94682899169857 163.34217183629517,207.29130425833864 162.88941877373145,208.57733779761475 162.13483033608645,210.41450816579163 161.68207727346453,211.81533444339584 161.2628614747955,212.59611680389207 161.14548105117865,212.68797326719505 160.86041430805926,212.75686557526933 160.72626525248052,212.89465009020932 160.55857893297798,213.3768948293 159.90460228704615,214.93843787511287 159.45184922448243,216.36218259882298 159.09970795354457,217.11997633207648 158.7811039465596,218.0385087159957 158.66372352288454,218.1992512663419 158.31158225200488,218.245177675577 157.5234565504652,218.1533248421183 155.07523628612398,217.7629496307345 154.65602048742585,217.78591290848271 153.86789478585706,217.9236924960569 153.36483582746587,218.06147194870573 152.20780022308463,218.75036718703632 151.83889032021398,219.11777660094958 151.520286313229,219.53111104425625 151.48674904933432,219.60000000000582 151.65443536880775,219.48518505497486 151.98980800775462,219.02592433744576 152.37548654255806,218.65851468355686 153.39837309136055,218.0385087159957 153.88466341781896,217.87776598190248 154.47156553599052,217.7629496307345 155.14231081391335,217.7629496307345 156.14842873078305,217.8548027191573 157.40607612681924,218.06147194870573 158.2780449881393,218.1533248421183 158.59664899512427,218.1533248421183 158.7475666826358,218.06147194870573 159.0494020577171,217.21182984046754 159.30093153691269,216.660707890318 159.45184922448243,216.17847441221238 160.0052140787593,214.73176405578852 160.7765711482789,212.94057823184994 160.94425746778143,212.75686557526933 161.2796301067574,212.57315267868398 161.36347326645046,212.389439542123 161.531159585953,211.90719141671434 161.9839126485458,210.78193935917807 162.2522107597324,210.2078276976099 163.62723857941455,206.39566680991265 164.07999164197827,205.33926658962446 165.53886262144079,201.4580758986558 165.87423526038765,200.70019775895344 166.39406285074074,199.36815961418324 166.79651001747698,198.2198407404794 167.36664350377396,196.79591231251834 167.78585930241388,195.5327379272203 167.80262793437578,195.34900252585066 167.7523220384901,194.68295968300663 167.7690906704811,194.47625609026 167.9703142538201,193.9020778493432 168.2553809969686,193.30492999142734 168.38953005254734,192.8455837595393 168.60752226784825,192.34030117113434 168.92612627486233,191.32973054672766 169.58010292082326,189.58418235959834 169.7310206083348,189.30856750687235 169.91547555977013,189.19372782550636 170.16700503896573,189.1477919266763 170.2340795667551,189.1018560127559 170.30115409454447,188.98701616252947 170.5191463099036,188.45875164322206 170.7371385252336,188.02235771705455 171.2401974836248,186.62129437782278 171.59233875456266,185.84036776822177 171.7432564420451,185.31209142554144 172.0115545532026,184.73787575821916 172.2127781365998,184.16365774563747 172.63199393526884,183.24490404722746 172.83321751866606,182.69364894623868 173.58780595628195,181.17768627328041 173.87287269940134,180.741269746155 174.37593165782164,179.8454631567438 175.18082599132322,178.09977237736166 175.51619863027008,177.43364781345008 175.78449674142757,176.9742497234838 176.03602622065227,176.40000000000873" stroke="#4dd2ff" stroke-linecap="round" stroke-linejoin="round" stroke-width="0.5"><title>2022-08-16 5.3km</title></polyline><polyline fill="none" points="49.62190859610564,224.40000000000873 49.41672531902441,224.85990908174426 49.32346019308898,225.2431656166882 49.230195067153545,225.4475687178783 49.099623890797375,225.49866945145186 48.31619683286408,225.626421212306 48.12966658096411,225.7541728688666 48.07370750539121,225.958575302182 48.09236053057248,226.4440300106944 48.05505448020995,226.62288136551797 47.94313632909325,226.72508204790938 47.81256515276618,226.7506322080153 47.570075825293316,226.7506322080153 47.23432137188502,226.6995318835252 46.91721994365798,226.72508204790938 46.39493523834972,226.46958021672617 46.283017087203916,226.4951304186834 45.798038432287285,226.6995318835252 45.480937004089355,226.85283280690783 45.406324903306086,226.8272826634202 44.660203895764425,226.39292958601436 44.49232666907483,226.34182914464327 44.17522524076048,226.41847980045713 43.970041963708354,226.34182914464327 43.056043729477096,225.8308238126774 42.75759532643133,225.7541728688666 42.62702415010426,225.85637411887 42.36588179745013,226.4440300106944 42.160698520368896,226.7506322080153 41.657066840271,228.00258494209265 40.94825188306277,229.3567266165046 39.493315918312874,233.4701794202556 39.23217356562964,233.93006182956742 39.082949364121305,234.03225773687882 38.7471949106839,234.13445357742603 38.59797070917557,234.38994288664253 38.11299205425894,235.94841863462352 37.758584575669374,236.6382308108441 37.683972474886104,236.91926452890038 37.478789197833976,237.35358837255626 37.40417709707981,237.63462080525642 37.19899381999858,238.0944909693353 37.06842264367151,238.55435978133755 36.65805608947994,239.3974490914261 36.564790963573614,239.90841009789438 36.490178862790344,241.03251843634644 36.28499558568001,241.67121275658428 35.706751804827945,242.99968858824286 35.20312012473005,244.35370042086288 34.60622331866762,246.1419999717764 34.15855071411352,247.18942307097313 33.52434785765945,248.9265971378045 32.666308698942885,250.97030663324404 32.49843147228239,251.45568371437548 32.34920727071585,251.99215136753628 32.16267701884499,252.5541631259548 31.323290885338793,254.57227961385797 31.17406668383046,255.0320999816031 30.65178197849309,256.33491701637104 30.222762399178464,257.4844524478249 29.84970189537853,258.5573445619957 29.308764164859895,259.80904272798216 29.178192988561932,259.96231120286393 28.89839761069743,260.0900348171999 28.767826434399467,260.1666689357953 28.655908283224562,260.3710264016845 28.208235678699566,261.5460766497854 28.059011477191234,261.85261004547647 27.518073746701702,263.2320028927352 26.753299713949673,265.3521570722078 26.417545260541374,266.0418395871093 26.305627109395573,266.14401451589947 26.081790807133075,266.16955823764147 22.36983879446052,265.6075953952677 21.69832988761482,265.65868300975126 21.362575434235623,265.7097706076456 20.840290728898253,265.83748952929454 20.504536275519058,265.96520834675175 19.34804871378583,266.60380086963414 19.068253335921327,266.8081499263935 18.37809140389436,267.6000000000058 19.068253335921327,266.8081499263935 19.515925940475427,266.45053890183044 20.28069997325656,266.0418395871093 21.13873913194402,265.73531440034276 21.549105686106486,265.63313920458313 22.42579787003342,265.5820515816886 23.24653097835835,265.65868300975126 25.95121963080601,266.067383325586 26.342933159758104,266.0418395871093 26.436198285751743,266.0162958444562 26.492157361266436,265.9396645915549 27.536726771912072,263.1042818437418 27.835175174928736,262.08250969804067 28.096317527553765,261.46944320701004 28.67456130843493,260.24330301678856 28.823785509972367,260.0900348171999 29.178192988561932,259.88567698418046 29.327417190070264,259.73240843425447 29.700477693870198,258.81279398078914 30.316027525113896,257.17791049210064 30.57716987776803,256.38600765947194 31.659045338717988,253.6015432874119 32.237289119599154,251.99215136753628 32.778226850088686,250.7403906480904 33.076675253134454,249.8973624776554 33.31916458060732,249.38643410240184 33.804143235553056,248.08355919148016 33.91606138664065,247.67481188483362 34.19585676450515,246.90840780602593 34.81140659577795,245.45222971016483 34.97928382246755,244.915739625867 35.98654718272155,242.46319009141007 36.43421978724655,241.18580531103362 36.508831888000714,240.90477925927553 36.508831888000714,240.6493005922821 36.43421978724655,240.0106020989333 36.47152583760908,239.6784778516012 36.60209701390704,239.32080479657452 37.04976961846114,238.45216682887985 37.19899381999858,238.01784603585838 37.329564996325644,237.40468521603907 37.60936037416104,236.71487642035936 37.73993155051721,236.22945359221194 38.318175331369275,234.90092025291233 38.5793176839652,234.2111004140461 38.70988886032137,234.0067087662901 39.194867515267106,233.77676784334471 39.30678566641291,233.6234737069608 39.43735684273997,233.1891395044804 40.015600623592036,231.8094816835801 40.370008102210704,230.8386040692567 40.57519137926283,230.40426213252067 41.28400633644196,228.64133247589052 42.57106507453136,225.72862254588108 42.62702415010426,225.626421212306 42.776248351612594,225.54977016833436 43.18661490577506,225.77972318763204 43.46641028361046,225.98412558759446 43.652940535510425,226.03522614578833" stroke="#4dd2ff" stroke-linecap="round" stroke-linejoin="round" stroke-width="0.5"><title>2022-08-14 5.0km</title></polyline><polyline fill="none" points="112.75023250529193,224.39999999999418 112.49522785516456,224.4806075807719 111.74982964718947,224.4806075807719 111.47520925480057,224.5880842936458 111.41636202784139,224.64182262372924 111.27905183163239,225.07172863221786 111.10251015075482,225.31355026822712 110.90635272761574,225.44789546786342 110.47480639666901,225.50163351699302 110.10210729268147,225.60910956253065 109.94518135409453,225.74345452080888 109.88633412719355,225.8777993692638 109.7882554155949,226.44204653444467 109.72940818863572,226.52265311434167 109.55286650781636,226.5763908122899 109.18016740382882,226.54952196546947 108.6897738459229,226.6032596546429 108.29745899961563,226.4151776657236 108.12091731879627,226.38830879265151 107.17936168759479,226.7376038008224 106.96358852210687,226.68386615546478 106.19857457181206,226.20022655789217 105.68856527158641,226.20022655789217 104.57046795962378,225.47476449458918 104.3743105364556,225.42102643668477 104.25661608253722,225.47476449458918 104.19776885557803,225.58224055777828 104.02122717475868,226.0658819727687 103.43275490525411,227.22124181808613 102.41273630486103,229.37072691002686 102.05965294316411,230.4454589211382 101.47118067371775,231.97693990243715 101.13771305436967,232.80984462458582 100.68655098110321,234.04575998742075 100.56885652718483,234.18009805411566 100.25500465009827,234.26070084155072 100.17654168084846,234.31443601120554 100.01961574231973,234.5293765142269 99.82345831920975,235.09359399830282 99.35268050359446,236.30262494641647 99.15652308039716,236.67876609539962 99.01921288424637,237.1086406409886 98.86228694568854,237.511647006977 98.74459249179927,237.96838636139 98.25419893389335,239.06992899789475 97.803036860656,240.19833087845473 97.76380537598743,240.44013027430628 97.72457389137708,241.5685227546055 97.07725439497153,243.47602577169891 96.76340251788497,244.2282744004624 96.15531450608978,245.8939555494726 95.6845366905618,246.8611175082333 95.23337461729534,247.82827378010552 94.97836996713886,248.6879634699726 94.82144402863923,249.0372111229517 94.58605512086069,249.9237595272134 94.29181898612296,250.62224884395255 94.01719859367586,251.42819436980062 93.50718929347931,252.77142813774117 93.27180038570077,253.2549896089331 92.76179108544602,254.5713441898406 92.31062901217956,255.56531923987495 91.89869842358166,256.88165533245774 91.60446228884393,257.58011510400684 91.34945763871656,258.3860265398398 90.8982955654792,259.48743245021615 90.29020755368401,261.20668547246896 90.19212884208537,261.39472768164705 90.11366587283555,261.47531713408534 89.62327231495874,261.7170852544659 89.48596211869153,261.905126880185 89.28980469558155,262.4423874835484 88.91710559159401,263.27513795111736 88.66210094146663,264.0541587656626 88.28940183744999,264.9674888156733 87.97554996039253,265.82708893643576 87.24976749470807,267.6000000000058 87.36746194859734,267.1164806956949 87.93631847578217,265.71963916698587 88.5051750029088,263.94670783811307 89.38788340709289,261.824537638342 89.64288805727847,261.55590654700063 89.99597141894628,261.3678645220789 90.17251309976564,261.23354865841975 90.38828626525356,260.58883098601655 90.81983259620029,259.67547662470315 91.23176318485639,258.57407197340217 91.60446228884393,257.3383409032831 92.19293455826119,255.75336789802532 92.58524940462667,254.8399866875261 93.1541059317824,253.20126062676718 93.93873562442604,251.42819436980062 94.6645180901105,249.25213238703145 95.42953204043442,247.45215812792594 95.44914778272505,247.26409997938026 95.64530520589324,246.67305868388212 96.25339321765932,245.2223119543778 96.52801361007732,244.73872686769755 96.56724509474589,244.47006787185092 96.72417103327462,244.06707855535205 96.88109697180334,243.47602577169891 97.19494884888991,242.83123849447293 97.62649517977843,241.72972104838118 97.70495814908645,241.3267250176723 97.66572666444699,240.41326369230228 97.7441896336968,239.9565311272454 97.82265260294662,239.7953310955636 98.05804151075426,239.44606381824997 98.2934304185037,238.96246174836415 98.74459249179927,237.511647006977 99.0388286265661,236.67876609539962 99.27421753431554,236.30262494641647 99.47037495745462,235.73841161000018 99.84307406150037,234.47564141484327 99.96076851536054,234.28756842852454 100.05884722695919,234.18009805411566 100.43154633097583,234.01889236086572 100.52962504254538,233.93828945489076 100.60808801179519,233.80395119063905 101.0200186004513,232.83671244863945 101.54964364296757,231.33210754324682 102.23619462398347,229.74688391278323 102.5304307587794,228.91396367865673 103.11890302822576,227.5167976840894 104.13892162864795,225.5553715485148 104.25661608253722,225.44789546786342 104.41354202103685,225.47476449458918 104.70777815583278,225.5553715485148 105.04124577518087,225.79719247331377 105.62971804465633,226.03901304260944 105.7474124985456,226.0658819727687 106.21819031413179,225.9584062256472 107.15974594527506,226.38830879265151 108.08168583412771,226.11961981996137 108.67015810360317,226.33457103316323 109.08208869220107,226.33457103316323 109.57248225013609,226.49578425871732 109.84710264255409,226.49578425871732" stroke="#4dd2ff" stroke-linecap="round" stroke-linejoin="round" stroke-width="0.5"><title>2022-07-26 4.5km</title></polyline><polyline fill="none" points="177.9523814196,225.34152861697657 177.36049032691517,225.28922161692753 176.9977183669107,225.36768211066374 176.94043858372606,225.44614256599743 176.95953184482642,225.6815237011033 176.94043858372606,225.81229084882943 176.88315880057053,225.94305788981728 176.80678575637285,226.0476714456745 176.69222619003267,226.09997819794808 176.195801402675,226.12613156763837 175.9475890089525,226.2568983521778 175.77574965945678,226.46612498530885 175.68028335421695,226.62304478071746 175.58481704891892,227.19841604761314 175.50844400472124,227.30302878306247 175.43207096052356,227.3291819562728 175.0692990004609,227.3291819562728 174.43922138572088,227.22456923792197 174.22919551411178,227.1461096543062 174.00007638143143,226.98919037166343 173.82823703202303,226.9630371429521 173.5609313772875,227.11995645119168 173.2363459393673,227.22456923792197 173.00722680668696,227.35533512514667 172.87357397933374,227.35533512514667 172.54898854141356,227.1461096543062 171.99528397084214,226.8584241852659 171.88072440453107,226.8322709352069 171.55613896658178,226.93688390993339 171.36520635607303,226.88457743110484 170.639662436035,226.3353583716089 170.3532635202282,226.17843829428602 170.12414438757696,226.17843829428602 170.02867808230803,226.2568983521778 169.70409264438786,227.17226285308425 169.24585437908536,227.93070376006654 168.36756437065196,229.86601944624272 167.39380805689143,232.63818764177267 166.80191696423572,234.12886201273068 166.51551804842893,234.6257503851084 166.43914500420215,234.6780543345958 166.1718393494666,234.73035826694104 166.0381865220843,234.86111802319647 165.86634717261768,235.64567431771138 165.5799482568109,236.2994682926801 165.44629542945768,236.69174339606252 165.1217099915375,237.3193815620907 164.9116841199284,237.97316870183568 164.16704693884822,239.7253050704312 163.97611432831036,240.22217607292987 163.91883454512572,240.61444156456855 163.8233682398568,241.92198626196478 163.76608845670125,242.13119242250104 162.96417149243644,243.98788511804014 162.2768140944827,245.94915683293948 161.6085499576584,247.49200703104725 161.26487125866697,248.5379987085471 160.84481951550697,249.55783401458757 160.3102082059777,250.99605225193955 160.08108907335554,251.7282311191084 159.8519699406752,252.22506487216742 159.69922385227983,252.6695990285516 159.26007884801948,253.6371102789126 158.9736799322418,254.44772331183776 158.70637427750626,255.10144051031966 158.40088210062822,255.91204612955335 158.267229273275,256.4611637335329 158.17176296797697,256.74879601261637 157.94264383535483,257.27176246895397 157.6371516584768,258.1085052462149 157.1789133932034,259.25901942519704 156.43427621209412,261.03707053203834 156.2624368625984,261.27239934602403 155.86147838048055,261.50772781421256 155.74691881414037,261.6646132674359 155.36505359309376,262.60592275900126 155.0404681552027,263.6256684635882 153.51300727084163,267.4431203620479 153.4939140098286,267.6000000000058 153.55119379298412,267.54770680442743 153.68484662036644,267.0247739094193 154.25764445198,265.32523020607186 154.65860293406877,264.2793481917033 154.77316250040894,263.86099347313575 155.0404681552027,263.3380485377711 155.19321424362715,262.8412492672651 155.4605198983627,262.13526870495116 155.6323592478002,261.63846570259193 155.86147838048055,261.3769898190221 156.28153012364055,261.1416611587483 156.37699642890948,261.063218195166 156.5106492562918,260.775593666418 157.25528643740108,258.9452436508145 157.61805839740555,257.87317178215017 158.28632253431715,256.14738247616333 158.74456079959054,254.83995395118836 159.08823949855287,254.00319409226358 159.33645189221716,253.50636585699976 159.71831711335108,252.30351216594863 160.50114081657375,250.34231829109194 160.9020992986625,249.1394408287888 161.22668473658268,248.3026511769276 161.8567623513518,246.86440874441178 162.46774670507875,245.08620023839467 162.77323888189858,244.432442145815 163.47968954089447,242.62805595822283 163.76608845670125,241.73893064723234 163.7851817177725,241.42512053494283 163.72790193458786,241.08515888586408 163.72790193458786,240.69289454762475 163.7469951956591,240.27447819401277 164.2434199830459,239.22843252582243 164.43435259358375,238.65310449486424 165.15989651359268,236.9271079966129 165.5035752126132,235.93334399559535 165.71360108419321,235.4626115262654 165.90453369467286,234.93957382571534 166.05727978312643,234.78266218231875 166.4582382653025,234.59959840399097 166.55370457054232,234.46883843409887 166.95466305263108,233.3442982846027 167.20287544635357,232.7427968224365 167.48927436218946,232.14129310021235 168.06207219380303,230.78136330998677 168.3866576316359,229.83986668748548 168.92126894119428,228.61068220781453 169.15038807381643,228.16608124194317 169.62771960016107,227.01534359608195 169.95230503808125,226.38766502989165 170.06686460442143,226.23074500384973 170.2196106928459,226.15228493306495 171.0215276571107,226.62304478071746 171.53704570556874,226.77996442219592 171.84253788241767,226.70150462067977 171.95709744875785,226.70150462067977 172.03347049295553,226.72765789208643 172.3198694087332,226.93688390993339 172.75901441299357,227.11995645119168 172.91176050138893,227.11995645119168 173.21725267826696,226.93688390993339 173.84733029303607,226.8061176808842 174.38194160256535,227.09380324378435 174.72562030152767,227.01534359608195 175.0692990004609,227.0676500321715 175.5275372657925,226.98919037166343 175.6993766152591,226.88457743110484 175.7375631373434,226.77996442219592 175.77574965945678,226.62304478071746 175.77574965945678,226.23074500384973 175.85212270368356,226.07382482390676 176.10033509737696,225.94305788981728 176.55857336267945,225.9169044901937 176.88315880057053,225.83844426560972 177.0359048890241,225.7599840026087 177.32230380483088,225.41998908514506 177.74235554802,225.07999344554264 178.31515337957535,224.9753792572883 178.3724331627891,224.84461142586952 178.3342466406466,224.60922906012274 178.35333990171785,224.55692182070925 178.5060859901714,224.40000000000873" stroke="#4dd2ff" stroke-linecap="round" stroke-linejoin="round" stroke-width="0.5"><title>2022-07-25 4.6km</title></polyline></svg>