<?xml version="1.0" encoding="utf-8" ?>
<svg baseProfile="full" height="300mm" version="1.1" viewBox="0,0,200,300" width="200mm" xmlns="http://www.w3.org/2000/svg" xmlns:ev="http://www.w3.org/2001/xml-events" xmlns:xlink="http://www.w3.org/1999/xlink"><defs /><rect fill="#222222" height="300" width="200" x="0" y="0" /><text fill="#FFFFFF" style="font-size:12px; font-family:Arial; font-weight:bold;" x="10" y="20">Over 4km Runs</text><text fill="#FFFFFF" style="font-size:4px; font-family:Arial" x="10" y="280">ATHLETE</text><text fill="#FFFFFF" style="font-size:9px; font-family:Arial" x="10" y="290">ChiZhang9797</text><text fill="#FFFFFF" style="font-size:4px; font-family:Arial" x="120" y="280">STATISTICS</text><text fill="#FFFFFF" style="font-size:3px; font-family:Arial" x="120" y="285">Number: 7</text><text fill="#FFFFFF" style="font-size:3px; font-family:Arial" x="120" y="290">Weekly: 2.3</text><text fill="#FFFFFF" style="font-size:3px; font-family:Arial" x="141" y="285">Total: 33.1 km</text><text fill="#FFFFFF" style="font-size:3px; font-family:Arial" x="141" y="290">Avg: 4.7 km</text><text fill="#FFFFFF" style="font-size:3px; font-family:Arial" x="167" y="285">Min: 4.3 km</text><text fill="#FFFFFF" style="font-size:3px; font-family:Arial" x="167" y="290">Max: 5.3 km</text><polyline fill="none" points="46.63933176838327,82.78232697607018 46.57518363540294,83.17773663220578 46.3827392362291,83.39740841218736 45.5167394404416,83.39740841218736 44.45829524548026,83.57314570696326 44.13755458034575,83.83675143381697 44.041332380787935,84.01248844136717 43.880962048249785,84.71543532348005 43.688517649134155,84.93510584739852 43.496073250018526,84.97903993059299 42.59799938771175,84.97903993059299 42.34140685549937,85.06690807553241 42.18103652301943,85.1987102390267 41.95651805738453,85.55018235940952 41.79614772478817,86.51672832167242 41.69992552528856,86.82426494470565 41.34711079363478,87.0 39.90377780050039,86.86819871922489 39.00570393813541,86.42886065045604 38.74911140598124,86.4727944895858 37.40200061240466,86.95606624687207 37.17748214676976,86.91213248673012 36.568074883078225,86.51672832167242 36.022815752308816,86.25312522190507 35.670001020655036,86.16525746459956 35.06059375690529,86.20919134680298 34.80400122475112,86.16525746459956 32.94370536698261,85.1987102390267 32.78333503444446,85.06690807553241 32.655038768367376,84.80330355456681 32.687112834944855,84.62756706381333 33.521038564213086,83.08986787000322 34.00214956194395,81.99150591949001 35.18889002298238,79.97050820846925 35.99074168584775,78.21310654788977 37.594445011462085,75.35730435294681 39.230222403712105,72.58934405000764 39.615111201885156,71.71062053510104 40.51318506419193,69.95316489037941 41.34711079363478,68.19569775901618 42.59799938771175,66.17459635730484 42.7583697202499,65.47160100436304 42.59799938771175,65.20797727315221 40.57733319728868,65.38372645605705 39.358518669730984,65.38372645605705 38.78118547250051,65.42766373383347 37.91518567659659,65.42766373383347 38.74911140598124,65.47160100436304 40.38488879817305,65.20797727315221 42.98288818576839,64.94435328347026 43.59229544957634,64.68072903543361 44.00925831426866,64.32922963582678 44.426221178960986,63.71410458095488 45.5167394404416,61.78084524709266 47.184590899094474,58.133977298479294 48.49962762626819,55.717350806924514 48.94866455742158,55.01432811279665 49.23733115597861,54.31130358047085 50.55236788315233,51.718884730536956 52.18814527528593,48.862801127077546 52.28436747484375,48.643101131689036 52.31644154136302,48.29158076568274 52.09192307572812,48.027940189494984 51.674960211035796,47.852179661917035 50.55236788315233,47.544598462001886 49.75051622022875,47.14913640220766 49.044886756979395,46.57791240001097 48.05059069499839,45.91880627415958 47.6015537637868,45.30363909891457 46.895924300537445,44.6884705160046 46.57518363540294,44.20512278491515 44.87525811017258,43.194483812112594 43.816813915153034,42.4474873469735 43.11118445190368,42.05201779003255 42.14896245650016,40.99742946054903 40.641481330327224,39.98677843005862 40.28866659861524,39.50342224637279 39.87170373398112,38.580648937117076 39.71133340144297,38.316998838447034 39.454740869347006,38.18517369221081 39.29437053675065,38.18517369221081 38.97362987161614,38.40488223338616 38.58874107344309,38.75641552580055 37.72274127759738,40.030719858186785 36.98503774771234,40.77772303795791 36.888815548154525,40.82166433680686 36.343556417443324,40.601957770675654 36.022815752308816,40.55801643585437 35.60585288761649,40.90954691314255 35.28511222254019,41.52472414236399 35.18889002298238,41.876253355585504 35.22096408944344,42.095958880585385 35.44548255507834,42.62325140784378 35.477556621597614,42.84295632230351 35.44548255507834,43.546010842284886 35.317186289001256,43.897537412762176 35.1568159564049,44.20512278491515 34.86814935784787,44.424826406902866 34.32289022713667,44.77635182830272 33.42481636471348,45.083936195092974 32.975779433501884,45.4794012925413 32.10977963759797,47.76429935495253 32.01355743804015,48.15976050996687 32.04563150461763,48.774921150528826 31.98148337157909,49.03856099411496 31.756964906002395,49.5219000360521 31.500372373848222,49.82947897401755 31.211705775291193,50.04917799992836 29.800446848676074,50.40069606807083 29.35140991746448,50.708274000673555 27.90807692433009,52.46585543715628 26.97792899538763,53.47645956085762 26.81755866284948,53.78403397492366 26.785484596388415,53.959790624910966 26.81755866284948,54.75069412853918 26.689262396772392,55.67341194234905 26.945854928868357,57.65065373774269 27.138299327983987,58.57336159981787 27.2345215275418,59.75969562676619 27.747706591675524,61.78084524709266 27.876002857810818,62.088410161901265 28.068447256926447,62.220223589160014 28.613706387695856,62.308099171175854 29.54385431658011,62.088410161901265 30.121187513810582,62.088410161901265 31.59659457334783,62.352036951546324 33.29652009863639,62.87928975556861 33.841779229347594,62.967165122536244 35.18889002298238,62.967165122536244 36.08696388534736,62.79141436013742 36.888815548154525,62.483850249584066 38.58874107344309,61.165714362228755 39.26229647023138,60.63845819811104 39.48681493586628,60.15513913927134 39.58303713542409,59.144560118060326 39.454740869347006,57.65065373774269 39.51888900232734,56.94763609863003 40.128296266135294,54.97038913340657 40.4490369312698,54.355242667515995 40.70562946330756,53.6082772098016 41.28296266059624,52.64161294896621 41.69992552528856,51.67494521255139 41.92444399080705,50.92797230853466 41.9885921239038,49.96129841115908 42.052740256884135,49.7415993133327 43.0791103853262,49.08250094298273 43.27155478444183,49.08250094298273 43.7526657821727,49.39008038357133 44.073406447249,49.39008038357133 44.26585084636463,49.25826066642185 44.8431840435951,48.24764068773948 45.61296163999941,47.10519613750512 47.82607222936349,44.11724128603237 48.5958498257678,43.28236561274389 49.23733115597861,42.71113339520525 49.718442153709475,42.403546313842526 49.87881248630583,42.183841040270636 49.81466435326729,41.612606488663005 49.62221995415166,41.30501815053867 49.39770148857497,41.17319446938927 49.044886756979395,41.17319446938927 48.146812894498,41.744429954502266 47.50533156422898,41.92019447500934 46.895924300537445,41.876253355585504 46.79970210097963,41.65654765116051 46.92799836699851,41.348959363327594 47.53740563074825,40.55801643585437 47.82607222936349,39.67918823182117 47.92229442897951,39.32765614578966 47.85814629599918,38.75641552580055 47.72985002986388,38.18517369221081 47.409109364729375,37.745756071206415 46.895924300537445,37.218453977809986 46.767628034518566,35.46077286431682 46.79970210097963,35.32894631760428 46.895924300537445,35.02135079051368 47.3770352982101,34.31827397830784 47.50533156422898,33.96673488282249 47.66570189688355,33.79096516268328 47.986442562018055,33.61519532772945 49.42977555509424,33.30759783988469 50.16747908492107,33.2636553128541 51.06555294728605,33.43942537764087 51.931552743248176,33.79096516268328 52.22021934186341,33.79096516268328 52.47681187384296,33.703080259496346 53.31073760322761,33.0" stroke="#4dd2ff" stroke-linecap="round" stroke-linejoin="round" stroke-width="0.5"><title>2022-08-19 4.3km</title></polyline><polyline fill="none" points="179.77258253077161,33.0 179.67876244761283,33.032128143822774 179.514577302034,33.22489689680515 179.3503921564261,33.771074003961985 179.1862070108764,33.93171404088207 178.9047467613418,34.09235394658754 178.15418609586777,34.06022597597621 177.8727258463332,34.15660987215233 177.82581580471015,34.34937752284168 177.7789057631162,34.92767934103904 177.73199572152225,35.21682961235638 177.66163065913133,35.34534070761583 177.4270804511907,35.47385171891074 177.02834509767126,35.505979458554066 175.879049078736,35.34534070761583 174.87048318443703,35.538107193031465 174.4717478309176,35.505979458554066 172.57189114647917,35.08831843319058 171.53987023144145,34.638528644500184 171.141134877922,34.5421449845453 170.8831296491844,34.60640076304844 170.7189445036347,34.67065652072779 170.43748425404192,34.95980716991471 170.29675412928918,35.184701825492084 170.0152938797546,36.02002257977438 169.78074367178488,36.56619192377548 168.74872275671805,38.62234526092652 168.39689744485077,39.55403266401845 167.69324682094157,41.67440823071229 166.63777088516508,44.30878239046433 166.49704076038324,44.56579261428851 166.37976565645658,44.66217136158957 165.88721021966194,44.79067628455232 165.81684515732923,44.91918112357962 165.44156482460676,46.13997290593397 164.92555436707335,47.007372988402494 164.6910041591036,47.64988910140528 164.432998930366,48.19602614692121 163.9169884728326,49.481048506946536 163.77625834807986,50.05930582963629 163.4947980985453,50.76606247063319 163.1429727865907,51.66556724945258 163.11951776579372,52.05106803798117 163.18988282818464,52.46869303964195 163.2133378489525,52.950566939645796 163.18988282818464,53.432439658849034 163.1429727865907,53.59306363617361 162.29859203798696,55.45629218683462 161.9936767676263,56.420024166000076 161.3134811645141,57.99410957597138 161.1258409981965,58.66871375229675 160.02345502079697,61.30286028291448 159.46053452169872,62.97327638842398 159.1321642305411,63.744232882978395 158.80379393935436,64.64367830711126 158.54578871064587,65.51099678486935 157.34958265008754,68.53052016798756 156.9508472965099,69.71904325351352 156.7632071301923,70.10450865788152 156.17683161029709,71.54999719612533 154.55843517539324,75.85427793030976 154.04242471783073,77.07487771217711 153.9016945931071,77.26760330115212 153.40913915639976,77.52457045939809 153.26840903161792,77.74941644743376 152.96349376125727,78.55243573513872 152.0722029710014,80.60815017315326 151.86110778385773,81.25055652913579 151.3685523471795,82.43900275677152 150.4068964945327,84.91223269680631 150.3130764113157,85.00859167551971 150.055071182549,85.10495060698304 149.11687035075738,84.91223269680631 147.80338918615598,84.78375398511707 145.10606179467868,84.3983173466695 144.07404087969917,84.49467657708738 142.9951099230675,84.78375398511707 142.59637456954806,84.97647202115331 141.98654402882676,85.32978793006623 140.97797813464422,86.06853732552554 140.22741746919928,87.0 140.9076130722824,86.16489573773288 141.56435365453945,85.58674455633445 142.43218942396925,85.13707024029281 143.74567058857065,84.59103576035704 144.42586619162466,84.49467657708738 145.95044254336972,84.46255683887284 147.12319358310197,84.68739489634754 150.00816114101326,85.00859167551971 150.2427113489248,84.97647202115331 150.45380653609755,84.81587367097382 150.922906952037,83.37048261830932 151.65001259668497,81.6038791306346 152.04874795020442,80.19058491670876 152.30675317900022,79.58029563969467 152.65857849089662,78.90576318318199 153.22149898999487,77.55669133053743 153.43259417716763,77.33184512220032 153.97205965549801,77.04275676235557 154.08933475942467,76.88215193443466 154.95717052891268,74.762155915334 155.77809625677764,72.32092007281608 156.22374165186193,71.38938788307132 156.92739227574202,69.65479894609598 157.3026726084645,68.46627547229582 158.0766882947355,66.53892484304379 158.49887866905192,65.2861368060403 159.15561925136717,63.744232882978395 160.11727510395576,60.885254039778374 160.63328556148917,59.793048904059106 161.5714863932808,57.19100634905044 161.75912655965658,56.83763989036379 162.20477195482817,55.55266559732263 163.02569768263493,53.52881406096276 163.11951776579372,53.11119131046871 163.0491527034319,52.56506791412539 163.02569768263493,51.92256785911741 163.18988282818464,51.34431601499091 163.4009780153865,50.862438179392484 163.5651631609362,50.34843385340355 163.87007843129686,49.545299404577236 164.03426357684657,49.19191920811136 164.66754913833574,47.296505499019986 165.69957005328615,44.91918112357962 165.88721021966194,44.72642383357743 166.40322067722445,44.53366635464772 166.52049578118022,44.37303497790708 166.77850100997603,43.53774970379891 167.95125204976648,40.67847709970374 168.84254283996415,38.33319999703963 169.21782317271573,37.562143881223164 170.57821437885286,34.47788918495644 170.85967462838744,34.06022597597621 171.0707698155311,34.06022597597621 171.44605014828267,34.285121660272125 171.75096541864332,34.5421449845453 172.1966108137858,34.76704011770198 172.59534616724704,34.92767934103904 173.13481164560653,34.79916797281476 173.55700201989384,35.15257403324358 174.0261024357751,35.40959622376249 174.26065264377394,35.44172397389775 174.75320808048127,35.08831843319058 175.48031372510013,34.863423667426105" stroke="#4dd2ff" stroke-linecap="round" stroke-linejoin="round" stroke-width="0.5"><title>2022-08-18 5.1km</title></polyline><polyline fill="none" points="18.146987951826304,125.1496296308469 18.219277108466486,125.28825735220744 18.190361445827875,125.40708098716277 18.161445783131057,125.46649276100652 17.857831325323787,125.60512011998071 17.42409638557001,125.74374732042634 17.25060240968014,125.8427666522839 17.134939759067493,125.98139358095068 17.062650602456415,126.27845075132063 17.019277108454844,126.37746964639518 16.918072289176052,126.49629221362557 16.657831325312145,126.55570345356682 16.498795180756133,126.51609596353956 16.238554216892226,126.3972734156705 16.021686747000786,126.35766587383114 15.819277108472306,126.25864696263307 15.356626506021712,126.41707718171529 15.13975903618848,126.51609596353956 15.067469879519194,126.53589971017209 14.821686746989144,126.37746964639518 14.344578313292004,126.2190393754936 13.983132530149305,126.23884317070042 13.766265060228761,126.10021653643344 13.375903614476556,125.96158974366699 13.0,125.64472790771833 13.01445783136296,125.48629667910427 13.086746987974038,125.40708098716277 13.491566265089205,124.57531309618935 13.70843373495154,124.2584476363918 13.925301204842981,123.8425604633012 14.113253012066707,123.40686760868266 14.98072289157426,121.76310319370532 15.400000000023283,121.05013820304157 15.83373493977706,120.27775473062502 16.22409638555837,119.44595164050406 17.207228915649466,117.50505556403368 17.409638554236153,117.24758742305858 17.713253012072528,116.73264950040175 18.074698795215227,116.37615273388656 18.26265060240985,116.11868219484313 18.407228915661108,115.80179462674278 18.855421686777845,115.04918333194655 19.18795180725283,114.41540177472052 19.477108433726244,113.54394672210765 19.636144578369567,113.24685834021511 20.113253012037603,112.5338432523713 20.416867469932185,111.99907918377721 20.865060240990715,111.04838168026617 21.804819277109345,109.46386926869309 22.02168674702989,109.14696430052572 22.122891566279577,109.12715771247167 22.77349397589569,109.4242561930223 24.08915662651998,110.55322377695848 24.76867469883291,111.02857540299738 25.11566265061265,111.48411896176549 25.303614457836375,111.66237467084284 25.448192771116737,111.78121166460915 25.809638554230332,111.90004854184372 26.098795180703746,112.05849753018992 26.503614457848016,112.3753948854719 27.038554216880584,112.87054534433992 27.42891566263279,113.12802278353047 28.455421686783666,113.88064600795042 29.583132530155126,114.65307024704816 30.33493975905003,115.06898895224731 30.927710843388923,115.42548956353858 31.130120481946506,115.58393394304585 31.838554216868943,115.96023851437349 32.2144578313455,116.21770939000271 32.98072289157426,116.65342808733112 33.40000000002328,116.79206552623509 34.49879518072703,117.386224182359 35.95903614460258,117.96057478136936 36.55180722891237,118.17843119316967 37.07228915661108,118.45570242365648 38.02650602412177,118.75277803820791 38.33012048195815,118.87160808016779 39.081927710882155,119.28751230950729 40.71566265061847,119.98068285371119 40.97590361448238,120.0400972873831 41.84337349398993,120.3569737748403 42.32048192771617,120.63424002179818 42.97108433736139,120.85209162806132 43.665060240979074,121.14916136921966 44.09879518073285,121.38681663791067 44.48915662651416,121.54525322488189 45.24096385543817,121.76310319370532 45.920481927721994,122.159193043095 46.83132530123112,122.55528159817186 47.149397590372246,122.73352102567878 48.219277108466486,123.14941200389148 48.75421686749905,123.30784628695983 49.346987951837946,123.60491000949696 51.6891566265258,124.35746818153712 52.22409638555837,124.59511715990084 52.78795180725865,124.91198173959856 53.49638554218109,125.16943360070582 54.20481927713263,125.52590450567368 55.28915662650252,125.8823743623143 55.766265060257865,126.12002035106707 56.54698795182048,126.4368809445732 56.922891566267936,126.49629221362557 57.356626506050816,126.71413328438939 57.79036144580459,126.81315182357503 58.61445783133968,127.42706496082974 58.94698795184377,127.56569007766666 59.82891566265607,127.80333276622696 61.60722891567275,128.5162580364995 61.99759036148316,128.57566828647396 62.17108433737303,128.63507850727183 62.54698795182048,128.83311236636655 62.98072289157426,129.14996586795314 63.83373493980616,129.46681854130293 64.3108433735324,129.58563808025792 65.38072289156844,130.1599308769146 66.58072289158008,130.65500869017706 67.0,130.8728422875356" stroke="#4dd2ff" stroke-linecap="round" stroke-linejoin="round" stroke-width="0.5"><title>2022-08-17 4.3km</title></polyline><polyline fill="none" points="178.14156368831755,98.48401048970118 178.0157989487634,98.59885704742919 177.28217130104895,98.6275686750887 176.94679866210208,98.71370353008388 176.82103392246063,98.91468469408574 176.69526918287738,99.4602038377925 176.5485436533345,99.51762680696265 175.83587679557968,99.63247268919076 175.5424257364648,99.7473184963601 175.37473941699136,99.94829847828078 175.2908962572692,100.12056685127027 175.1860923075874,100.72350482684851 175.08128835790558,100.8670611828129 174.9974451981834,100.8957724399661 174.20093518061913,100.83834992101765 173.3834643732407,100.66608225162781 172.83848383493023,100.80963865456579 172.39830724630156,101.01061742154707 172.25158171672956,101.01061742154707 171.47603248915402,100.52252573151782 171.2664245898486,100.43639176318538 170.9100911608839,100.4938144133921 170.78432642130065,100.43639176318538 170.59567931192578,100.32154640633962 169.71532613466843,99.86216422847065 169.33803191583138,99.83345280244248 169.17034559638705,99.94829847828078 167.7869334606803,102.70457218204683 167.1790705525491,104.08269282308174 166.23583500552922,106.83890168488142 165.79565841692965,107.87246886390494 165.69085446721874,108.3318301034742 165.54412893767585,108.70506022653717 165.39740340816206,108.99215978189022 165.27163866857882,109.13570938358316 164.93626602960285,109.22183908839361 164.72665813023923,109.33667862914444 164.64281497048796,109.45151809482195 164.37032470136182,109.99700453200785 164.01399127248442,111.08797232715006 163.78342258319026,111.57603467459558 163.46901073420304,112.32248034895747 162.81922624621075,114.18858066505345 162.4419320274028,115.02114210638683 162.2952064978599,115.71015548905416 162.337128077721,116.91592240902537 162.23232412803918,117.31784287752816 159.69606854597805,123.6623227907985 159.44453906675335,124.49483935648459 159.04628405801486,125.4708882394334 158.64802904924727,126.61917410366004 158.0611269310466,127.96840040831012 157.7047935021692,128.94443000244792 157.4532640229736,129.46114935808873 157.39038165315287,129.5185625260783 157.32749928333214,129.66209536400856 156.78251874507987,131.1835362396232 156.67771479539806,131.6141303229233 156.11177346715704,133.22167224703298 155.16853792010807,135.5181352072541 154.60259659183794,137.26916805424844 154.0785768435162,138.24514600486145 153.9318513139733,138.35996658400109 153.5755178850959,138.44608196908666 153.40783156562247,138.61831261277257 153.19822366622975,139.22111853661772 152.38075285882223,141.17304734388017 151.8148115306103,142.952728248536 151.37463494195254,143.8999704151065 150.97637993321405,145.04813589500554 150.82965440364205,145.24906408293464 150.38947781504248,145.3064720944676 149.40432068810333,145.19165605264425 146.34404535769136,144.70368703841814 145.82002560931141,144.73239113560703 144.83486848234315,144.9046156200784 144.2060447843396,145.07683993587852 142.75975027887034,145.9379589838063 142.29861290028202,146.3972207511979 141.90035789154354,146.91388880531304 141.85843631168245,147.0 142.06804421101697,146.85648131872586 142.4872600097151,146.2824054218072 142.96935817823396,145.823143354457 144.2479663642007,145.04813589500554 144.8558292723028,144.84720747738902 145.58945692001726,144.70368703841814 146.42788851741352,144.70368703841814 147.68553591347882,144.818503398943 149.25759515853133,145.07683993587852 150.3475562351814,145.19165605264425 150.7458112439199,145.19165605264425 150.93445835332386,145.07683993587852 151.3117525721318,144.0147873005917 151.62616442117724,143.3258848629048 151.8148115306103,142.72309301527275 152.5065175984637,140.91470506973565 153.470713935385,138.6757227898197 153.6803218347195,138.44608196908666 154.09953763347585,138.21644084835134 154.20434158309945,137.9867994276574 154.41394948243396,137.38398927089293 154.9798908107041,135.97742419897986 155.31526344968006,135.259784622016 157.03404822427547,130.49458351239446 157.5999895525165,129.17408323702693 159.4235782768228,124.32259487331612 159.84279407552094,123.37524719869543 160.49257856345503,121.71019951773633 160.99563752187532,120.2748009256029 161.70830437971745,118.49489039064792 162.23232412803918,116.91592240902537 162.25328491799883,116.68625315731333 162.190402548149,115.85369960375829 162.21136333813774,115.59532011282863 162.46289281730424,114.87759731168626 162.81922624621075,114.13116248926963 162.98691256571328,113.55697969942412 163.25940283481032,112.92537646391429 163.657657843607,111.66216318341321 164.47512865104363,109.4802279495052 164.6637757604476,109.13570938358316 164.89434444974177,108.99215978189022 165.20875629872899,108.934739908349 165.29259945848025,108.8773200159485 165.37644261820242,108.73377020315093 165.64893288741587,108.07343955403485 165.9214231565711,107.52794714631455 166.55024685454555,105.77661797228211 166.99042344320333,104.80045971028449 167.1790705525491,104.14011428192316 167.51444319152506,103.42234469777031 167.76597267077886,102.70457218204683 168.2899924191006,101.55613005904888 168.5415218983544,100.8670611828129 169.48475744537427,98.97210784160416 169.84109087425168,98.42658718269377 170.46991457228432,97.30682894593338 171.47603248915402,95.12471547171299 171.89524828785216,94.29205976682715 172.23062092679902,93.71781215435476 172.54503277584445,93.0" stroke="#4dd2ff" stroke-linecap="round" stroke-linejoin="round" stroke-width="0.5"><title>2022-08-16 5.3km</title></polyline><polyline fill="none" points="59.52738574511022,153.0 59.27090664880234,153.57488635217305 59.1543252413685,154.0539570208639 59.037743833934655,154.3094608973479 58.87452986347489,154.37333681432938 57.89524604109465,154.5330265153898 57.66208322622697,154.6927160860796 57.59213438176084,154.94821912772022 57.615450663201045,155.55503751336073 57.56881810023333,155.7786017069011 57.428920411359286,155.9063525598758 57.26570644095773,155.93829026001913 56.96259478162392,155.93829026001913 56.54290171485627,155.8744148544065 56.14652492958703,155.9063525598758 55.493669047922594,155.58697527091135 55.35377135899034,155.61891302335425 54.74754804035183,155.8744148544065 54.35117125508259,156.0660410086275 54.257906129118055,156.03410332926433 53.32525486970553,155.49116198252887 53.11540833633626,155.427286430815 52.71903155097971,155.52309975058597 52.46255245464272,155.427286430815 51.32005466186092,154.7885297658504 50.946994158031885,154.6927160860796 50.78378018763033,154.82046764859115 50.45735224679811,155.55503751336073 50.20087315046112,155.93829026001913 49.5713335503242,157.50323117761582 48.68531485382118,159.19590827063075 46.86664489787654,164.3377242753195 46.54021695704432,164.91257728695928 46.353686705144355,165.04032217110216 45.933993638376705,165.16806697177526 45.74746338647674,165.4874286083068 45.141240067838226,167.43552329328668 44.69823071960127,168.2977885135624 44.604965593636734,168.64908066111093 44.348486497299746,169.19198546568805 44.255221371364314,169.54327600657416 43.99874227499822,170.11811371168005 43.835528304596664,170.6929497266683 43.322570111835375,171.74681136428262 43.20598870445974,172.38551262236433 43.112723578495206,173.79064804542577 42.85624448210001,174.589015945734 42.13343975605676,176.24961073529266 41.50390015591984,177.94212552608224 40.75777914834907,180.17749996471684 40.19818839262007,181.48677883872006 39.40543482208159,183.65824642225925 38.332885873678606,186.21288329156232 38.12303934036754,186.81960464298027 37.936509088409366,187.49018920942035 37.70334627354168,188.19270390743623 36.654113606666215,190.71534951731155 36.46758335476625,191.2901249770075 35.814727473130915,192.91864627046743 35.27845299898763,194.35556555977382 34.81212736922316,195.6966807025019 34.13595520608942,197.2613034099777 33.97274123568786,197.4528890035872 33.62299701338634,197.61254352150718 33.45978304298478,197.7083361697296 33.31988535405253,197.96378300210927 32.76029459838173,199.43259581223538 32.57376434648177,199.81576255684195 31.897592183377128,201.5400036159117 30.94162464243709,204.1901963402488 30.52193157566944,205.05229948388296 30.38203388673719,205.18001814487798 30.10223850890179,205.21194779705547 25.46229849307565,204.50949424407736 24.62291235954035,204.5733537622 24.203219292801805,204.63721325954248 23.550363411108265,204.79686191161454 23.130670344398823,204.9565104334324 21.68506089222501,205.7547510870354 21.335316669923486,206.01018740799918 20.472614254860673,207.0 21.335316669923486,206.01018740799918 21.894907425594283,205.5631736272917 22.850874966563424,205.05229948388296 23.923423914937302,204.66914300042845 24.436382107640384,204.5414240057289 25.532247337541776,204.47756447711436 26.55816372294794,204.5733537622 29.939024538500234,205.0842291569861 30.428666449704906,205.05229948388296 30.54524785716785,205.02036980557023 30.615196701604873,204.9245807394327 31.920908464875538,201.38035230468086 32.29396896864637,200.10313712255447 32.62039690944948,199.33680400875164 33.34320163555094,197.80412877097842 33.52973188745091,197.61254352150718 33.97274123568786,197.3570962302183 34.15927148758783,197.16551054282172 34.625597117323196,196.0159924759937 35.39503440642147,193.97238811512943 35.721462347195484,192.98250957434357 37.07380667340476,189.50192910926125 37.79661139950622,187.49018920942035 38.47278356261086,185.92548831010936 38.845844066439895,184.87170309705834 39.1489557257737,184.23304262800957 39.75517904444132,182.60444898935384 39.89507673328626,182.09351485605293 40.24482095564599,181.13550975752878 41.014258244715165,179.31528713770967 41.22410477808444,178.64467453233374 42.48318397838739,175.57898761425167 43.042774734058185,173.98225663878839 43.136039859993616,173.63097407409805 43.136039859993616,173.31162574034533 43.042774734058185,172.51325262367027 43.0894072970259,172.09809731450514 43.25262126736925,171.6510059957218 43.812212023098255,170.5652085361071 43.99874227499822,170.0223075448157 44.16195624539978,169.25585652005975 44.5117004677013,168.39359552544192 44.674914438131964,167.78681699026492 45.39771916420432,166.12615031613677 45.724147104949225,165.2638755175576 45.88736107540899,165.008385957859 46.493584394076606,164.7209598041809 46.63348208300886,164.52934213369736 46.796696053410415,163.98642438059323 47.51950077948277,162.26185210447875 47.96251012774883,161.04825508657086 48.21898922408582,160.50532766563992 49.10500792055973,158.30166559487407 50.7138313431642,154.66077818234044 50.78378018763033,154.5330265153898 50.97031043950119,154.43721271042887 51.48326863220427,154.72465398453642 51.833012854505796,154.98015698450035 52.06617566937348,155.0440326822427" stroke="#4dd2ff" stroke-linecap="round" stroke-linejoin="round" stroke-width="0.5"><title>2022-08-14 5.0km</title></polyline><polyline fill="none" points="175.93779063160764,153.0 175.6190348189848,153.10075947597215 174.6872870590014,153.10075947597215 174.34401156849344,153.23510536705726 174.270452534809,153.30227827966155 174.09881478955504,153.83966079026868 173.87813768847263,154.14193783527298 173.63294090950512,154.30986933482927 173.093507995829,154.37704189623764 172.62763411583728,154.5113869531633 172.43147669264,154.67931815101474 172.35791765898466,154.8472492115834 172.2353192695009,155.5525581680413 172.16176023581647,155.65331639292708 171.94108313479228,155.72048851534782 171.47520925480057,155.68690245682956 170.8622173074109,155.75407456830726 170.3718237495341,155.51897208216542 170.1511466484808,155.48538599080348 168.97420210952987,155.92200475101708 168.70448565264815,155.85483269432734 167.74821821477963,155.2502831973543 167.11070658947574,155.2502831973543 165.71308494952973,154.34345561823284 165.46788817059132,154.27628304585232 165.32077010319335,154.34345561823284 165.24721106950892,154.4778006972192 165.02653396845562,155.0823524659645 164.2909436315822,156.5265522726113 163.01592038109084,159.2134086375445 162.57456617898424,160.55682365142275 161.83897584216902,162.47117487803916 161.42214131797664,163.51230578072136 160.8581887263863,165.05719998426503 160.71107065898832,165.22512256764458 160.31875581265194,165.32587605192384 160.2206771010824,165.3930450140033 160.0245196779142,165.6617206427909 159.7793228990049,166.3669924978749 159.19085062950035,167.87828118301695 158.94565385050373,168.34845761924225 158.77401610530796,168.8858008012321 158.57785868213978,169.3895587587176 158.4307406147418,169.96048295173387 157.81774866738124,171.33741124736844 157.25379607582,172.7479135980684 157.20475671999156,173.05016284289013 157.15571736422135,174.46065344325325 156.3465679937217,176.84503221462364 155.95425314738532,177.78534300056344 155.19414313262678,179.86744443682255 154.60567086320953,181.07639688528434 154.04171827161917,182.28534222512098 153.72296245893813,183.35995433747303 153.52680503579904,183.79651390368235 153.2325689010613,184.9046994090022 152.86477373263915,185.77781105494068 152.5214982421021,186.78524296225805 151.88398661685642,188.46428517217282 151.5897504821187,189.06873701117001 150.9522388568439,190.71418023730803 150.38828626525356,191.95664904984005 149.87337302949163,193.60206916557217 149.50557786104036,194.47514388000127 149.18682204841753,195.48253317479976 148.62286945685628,196.85929056275927 147.86275944209774,199.00835684058256 147.74016105261398,199.24340960205882 147.64208234107355,199.34414641761396 147.02909039368387,199.64635656807513 146.8574526484008,199.88140860022395 146.6122558694915,200.55298435443547 146.1463819894998,201.59392243888578 145.82762617684784,202.56769845707458 145.36175229682704,203.7093610196025 144.96943745049066,204.78386117055197 144.06220936839236,207.0 144.20932743576122,206.39560086961137 144.92039809474954,204.64954895873962 145.63146875365055,202.43338479765225 146.73485425885883,199.7806720479275 147.0536100715981,199.4448831837508 147.49496427367558,199.20983065260225 147.71564137469977,199.04193582301377 147.9853578315815,198.2360387325316 148.52479074525763,197.09434578088985 149.03970398107776,195.71758996674907 149.50557786104036,194.17292612910387 150.2411681978556,192.19170987252437 150.7315617557906,191.04998335940763 151.44263241472072,189.0015757834626 152.42341953053256,186.78524296225805 153.33064761263086,184.06516548378568 154.28691505055758,181.8151976599038 154.3114347284427,181.58012497423624 154.5566315073811,180.841323354849 155.31674152211053,179.02788994298317 155.66001701261848,178.42340858462558 155.7090563684469,178.0875848397991 155.9052137916151,177.58384819419007 156.10137121478328,176.84503221462364 156.49368606111966,176.03904811808025 157.0331189747376,174.66215131047647 157.13119768636534,174.158406272094 157.08215833056602,173.0165796153742 157.18023704213556,172.44566390904947 157.2783157537051,172.24416386945813 157.57255188847193,171.80757977280882 157.86678802315146,171.2030771854479 158.4307406147418,169.3895587587176 158.79853578322218,168.34845761924225 159.0927719179017,167.87828118301695 159.3379686968401,167.17301451250387 159.80384257689002,165.59455176856136 159.95096064422978,165.35946053566295 160.07355903368443,165.22512256764458 160.53943291373434,165.0236154510785 160.6620313032181,164.9228618186171 160.76011001475854,164.7549389883061 161.27502325057867,163.54589056079567 161.93705455373856,161.66513442905853 162.79524328000844,159.6836048909754 163.1630384484888,158.64245459831727 163.89862878527492,156.8959971051081 165.17365203579539,154.44421443564352 165.32077010319335,154.30986933482927 165.51692752630333,154.34345561823284 165.8847226947837,154.44421443564352 166.3015572190052,154.7464905916422 167.03714755584951,155.04876630326908 167.18426562318928,155.0823524659645 167.77273789269384,154.94800778206263 168.94968243161566,155.48538599080348 170.10210729265236,155.14952477495535 170.8376976294967,155.41821379144676 171.35261086528772,155.41821379144676 171.9656028127065,155.61973032340757 172.30887830321444,155.61973032340757" stroke="#4dd2ff" stroke-linecap="round" stroke-linejoin="round" stroke-width="0.5"><title>2022-07-26 4.5km</title></polyline><polyline fill="none" points="54.94047677452909,214.17691077121708 54.20061290866579,214.11152702115942 53.74714795866748,214.2096026383224 53.67554822965758,214.30767820749315 53.69941480603302,214.6019046263682 53.67554822965758,214.7653635610186 53.60394850073499,214.9288223622716 53.50848219549516,215.05958930708584 53.365282737562666,215.1249727474351 52.744751753343735,215.15766445954796 52.43448626121972,215.32112294020772 52.219687074335525,215.5826562316215 52.10035419280757,215.77880597588955 51.981021311163204,216.49802005950187 51.88555500592338,216.62878597881354 51.79008870065445,216.66147744533373 51.33662375059794,216.66147744533373 50.549026732187485,216.53071154738427 50.28649439266883,216.43263706789003 50.00009547683294,216.23648796457564 49.78529629003606,216.20379642868647 49.45116422162391,216.39994556397141 49.04543242423097,216.53071154738427 48.75903350839508,216.6941689064406 48.59196747417445,216.6941689064406 48.18623567678151,216.43263706789003 47.49410496355267,216.07303023157874 47.350905505678384,216.04033866900136 46.945173708256334,216.1711048874131 46.70650794511312,216.10572178887378 45.7995780450583,215.4191979645111 45.441579400299815,215.2230478678539 45.15518048449303,215.2230478678539 45.03584760290687,215.32112294020772 44.63011580548482,216.46532856635167 44.05731797390035,217.41337970008317 42.95945546333678,219.83252430779976 41.74226007112884,223.29773455220857 41.00239620532375,225.16107751590607 40.64439756056527,225.7821879813855 40.548931255267235,225.8475679182302 40.214799186825985,225.91294783366902 40.047733152634464,226.0763975289883 39.832933965779375,227.0570928971283 39.474935321020894,227.87433536583558 39.30786928682937,228.36467924505996 38.90213748943643,229.1492269526061 38.63960514991777,229.96646087728732 37.70880867357482,232.15663133803173 37.4701429104025,232.77772009115142 37.398543181450805,233.2680519557034 37.279210299864644,234.90248282745597 37.207610570883844,235.16399052811903 36.2052143655892,237.4848563975538 35.34601761813974,239.93644604117435 34.510687447094824,241.86500878880906 34.08108907335554,243.17249838568387 33.556024394376436,244.44729251823446 32.88776025749394,246.24506531492807 32.60136134168715,247.16028889888548 32.31496242585126,247.78133109021292 32.12402981534251,248.3369987856713 31.57509856004617,249.54638784863346 31.217099915345898,250.55965413978265 30.88296784690465,251.37680063789594 30.501102625828935,252.3900576619344 30.33403659160831,253.07645466690883 30.214703709963942,253.43599501576682 29.928304794215364,254.0897030861961 29.54643957313965,255.13563155777229 28.97364174152608,256.57377428148175 28.042845265124924,258.7963381650479 27.82804607824073,259.0904991825373 27.32684797560796,259.38465976776206 27.18364851770457,259.58076658428763 26.70631699138903,260.75740344874794 26.300585193996085,262.0320855794853 24.391259088588413,266.803900452549 24.367392512300285,267.0 24.43899224125198,266.93463350553066 24.606058275472606,266.2809673867596 25.32205556498957,264.15653775758983 25.82325366762234,262.8491852396255 25.96645312552573,262.3262418414233 26.300585193996085,261.6725606722175 26.491517804563046,261.05156158407044 26.82564987297519,260.1690858811926 27.040449059772072,259.5480821282399 27.32684797560796,259.2212372737704 27.851912654587068,258.92707644843904 27.971245536173228,258.8290227439429 28.138311570393853,258.4694920830225 29.06910804679501,256.18155456351815 29.522572996793315,254.84146472768043 30.35790316789644,252.6842280951969 30.930700999480905,251.0499424389709 31.360299373220187,250.00399261532584 31.670564865285996,249.38295732124243 32.147896391688846,247.87939020743943 33.126426020724466,245.42789786384674 33.627624123357236,243.92430103597871 34.03335592072108,242.87831397114496 34.82095293921884,241.08051093050744 35.58468338137027,238.8577502979897 35.96654860241688,238.04055268225784 36.84961192612536,235.78506994777126 37.207610570883844,234.67366330903315 37.23147714723018,234.28140066866763 37.159877418278484,233.85644860731554 37.159877418278484,233.36611818452366 37.183743994595716,232.84309774251597 37.80427497881465,231.53554065727803 38.04294074198697,230.81638061857666 38.949870642012684,228.6588849957625 39.37946901578107,227.41667999447964 39.64200135524152,226.8282644078281 39.88066711835563,226.1744672821369 40.07159972892259,225.97832772789116 40.572797831642674,225.74949800498143 40.69213071317063,225.58604804261995 41.1933288158325,224.18037285574246 41.50359430795652,223.42849602803471 41.86159295277321,222.6766163752618 42.57759024229017,220.97670413747255 42.9833220395667,219.7998333593423 43.65158617650741,218.26335275976453 43.93798509231419,217.7076015524217 44.534649500244996,216.26917949509516 44.94038129760884,215.48458128735365 45.083580755541334,215.28843125479762 45.27451336607919,215.19035616633482 46.27690957140294,215.77880597588955 46.921307131968206,215.97495552773762 47.30317235304392,215.87688077584608 47.446371810976416,215.87688077584608 47.54183811621624,215.90957236511167 47.89983676094562,216.1711048874131 48.44876801624196,216.39994556397141 48.63970062675071,216.39994556397141 49.02156584785553,216.1711048874131 49.809162866324186,216.00764710109797 50.477427003206685,216.3672540547268 50.90702537694597,216.26917949509516 51.33662375059794,216.3345625402144 51.90942158224061,216.23648796457564 52.1242207690957,216.10572178887378 52.17195392170106,215.97495552773762 52.219687074335525,215.77880597588955 52.219687074335525,215.28843125479762 52.31515337963356,215.09228102986526 52.62541887172847,214.9288223622716 53.198216703371145,214.8961306127312 53.60394850073499,214.79805533199396 53.79488111130195,214.6999800032645 54.15287975606043,214.2749863564095 54.67794443501043,213.84999180691375 55.39394172449829,213.71922407159582 55.465541453508195,213.55576428232598 55.41780830084463,213.26153632513888 55.44167487716186,213.19615227587929 55.63260748772882,213.0" stroke="#4dd2ff" stroke-linecap="round" stroke-linejoin="round" stroke-width="0.5"><title>2022-07-25 4.6km</title></polyline></svg>