<?xml version="1.0" encoding="utf-8" ?>
<svg baseProfile="full" height="200mm" version="1.1" viewBox="0,0,200,200" width="200mm" xmlns="http://www.w3.org/2000/svg" xmlns:ev="http://www.w3.org/2001/xml-events" xmlns:xlink="http://www.w3.org/1999/xlink"><defs /><rect fill="#1a1a1a" height="200" width="200" x="0" y="0" /><text alignment-baseline="middle" fill="#e1ed5e" style="dominant-baseline: central; font-size:9.0px; font-family:Arial;" text-anchor="middle" x="100.0" y="100.0">2022</text><line stroke="#e1ed5e" stroke-width="0.3" x1="100.0" x2="100.0" y1="15.0" y2="10.0" /><path d="M 100.0 14.0 a86.0,86.0 0 0,1 42.46469731375804,11.215312516191453" fill="none" id="id1" stroke="none" /><text fill="#e1ed5e" style="font-size:6.75px; font-family:Arial;" text-anchor="middle"><textPath startOffset="22.20632615414155" xlink:href="#id1">January</textPath></text><line stroke="#e1ed5e" stroke-width="0.3" x1="143.23703022742887" x2="145.7803849466894" y1="26.81831364943548" y2="22.513508569990506" /><path d="M 143.74570117128098 25.957352633546492 a86.0,86.0 0 0,1 28.547481713284135,27.462654790039103" fill="none" id="id2" stroke="none" /><text fill="#e1ed5e" style="font-size:6.75px; font-family:Arial;" text-anchor="middle"><textPath startOffset="19.985693538727396" xlink:href="#id2">February</textPath></text><line stroke="#e1ed5e" stroke-width="0.3" x1="172.23445277983987" x2="176.4835382374775" y1="55.19839476539836" y2="52.563006222186495" /><path d="M 173.08426987136738 54.67131705675599 a86.0,86.0 0 0,1 12.851231095245387,41.99856678651699" fill="none" id="id3" stroke="none" /><text fill="#e1ed5e" style="font-size:6.75px; font-family:Arial;" text-anchor="middle"><textPath startOffset="22.20632615414155" xlink:href="#id3">March</textPath></text><line stroke="#e1ed5e" stroke-width="0.3" x1="184.98032266829074" x2="189.97916517819016" y1="98.17113171792111" y2="98.06355123074" /><path d="M 185.9800911702706 98.14961562048488 a86.0,86.0 0 0,1 -9.607161424134198,41.387399972396054" fill="none" id="id4" stroke="none" /><text fill="#e1ed5e" style="font-size:6.75px; font-family:Arial;" text-anchor="middle"><textPath startOffset="21.466115282336823" xlink:href="#id4">April</textPath></text><line stroke="#e1ed5e" stroke-width="0.3" x1="174.80103733775053" x2="179.2010983576182" y1="140.37084112569926" y2="142.7455964860345" /><path d="M 175.68104954172406 140.8457921977663 a86.0,86.0 0 0,1 -30.038265399797805,32.042727171017184" fill="none" id="id5" stroke="none" /><text fill="#e1ed5e" style="font-size:6.75px; font-family:Arial;" text-anchor="middle"><textPath startOffset="22.206326154141568" xlink:href="#id5">May</textPath></text><line stroke="#e1ed5e" stroke-width="0.3" x1="143.8653032363475" x2="146.44561519142675" y1="172.8068346515853" y2="177.08958963109032" /><path d="M 144.38136562736335 173.6633856474863 a86.0,86.0 0 0,1 -40.68145358897372,12.25698825130547" fill="none" id="id6" stroke="none" /><text fill="#e1ed5e" style="font-size:6.75px; font-family:Arial;" text-anchor="middle"><textPath startOffset="21.466115282336833" xlink:href="#id6">June</textPath></text><line stroke="#e1ed5e" stroke-width="0.3" x1="102.19456741930631" x2="102.32365962044197" y1="184.97166512339345" y2="189.96999836594603" /><path d="M 102.22038585953345 185.97133177190398 a86.0,86.0 0 0,1 -42.740103519485714,-10.115201625700543" fill="none" id="id7" stroke="none" /><text fill="#e1ed5e" style="font-size:6.75px; font-family:Arial;" text-anchor="middle"><textPath startOffset="22.20632615414155" xlink:href="#id7">July</textPath></text><path d="M 95.86986931433489 120.58985236759428 l -3.36177233244999 16.75937186657368 a38.093216741658885,38.093216741658885 0 0,0 -0.6417954926104736,-0.13449448553721907 l 3.6497592864898505 -16.69902140030992" fill="#ff720a" stroke="none" /><path d="M 93.76903079525671 120.05430185196036 l -6.277520294820327 20.204125993481075 a42.15688937940402,42.15688937940402 0 0,0 -0.6911293890805351,-0.22127780523682639 l 6.624371028991803 -20.09307534158454" fill="#ffb110" stroke="none" /><path d="M 93.42475214034765 119.94407469862007 l -6.654328719384423 20.183943157937875 a42.252568129722384,42.252568129722384 0 0,0 -0.6887777586636155,-0.23367081230807227 l 7.000776210985264 -20.066409358731683" fill="#ffb310" stroke="none" /><path d="M 93.08242187328487 119.8279376855182 l -7.151120043266365 20.49734169997395 a42.70897359707955,42.70897359707955 0 0,0 -0.6920489666984587,-0.24814413753519973 l 7.502888570594551 -20.371210021398795" fill="#ffba11" stroke="none" /><path d="M 92.7421414339146 119.70592522655815 l -3.527364038088991 9.577201229332138 a31.2061295525936,31.2061295525936 0 0,0 -0.5024629379306897,-0.18998848908086663 l 3.691697196779964 -9.515064490144638" fill="#ff0000" stroke="none" /><path d="M 92.40401165467489 119.57807347666478 l -7.881883143957778 20.314945246310312 a42.790389676543,42.790389676543 0 0,0 -0.6843995257288974,-0.2723366956840021 l 8.230403745728534 -20.176261706220245" fill="#ffbb11" stroke="none" /><path d="M 92.06813273071674 119.44442032107085 l -10.409495560262927 25.518153561130273 a48.55964003735461,48.55964003735461 0 0,0 -0.7712393270946419,-0.3223781012749229 l 10.847206346855032 -25.335190416835378" fill="#efff19" stroke="none" /><path d="M 91.7346041902142 119.30500536409082 l -10.426182704281683 24.351829926262795 a47.48993972323627,47.48993972323627 0 0,0 -0.7487112954339762,-0.3282130293214969 l 10.843814674373403 -24.168752343646847" fill="#feff18" stroke="none" /><path d="M 91.40352486487194 119.15986991738527 l -9.711143869575139 21.644249575009272 a44.72298157738348,44.72298157738348 0 0,0 -0.6996633701368843,-0.3211811369085915 l 10.082275235479443 -21.47388136776661" fill="#ffd814" stroke="none" /><path d="M 91.07499286063937 119.00905698771935 l -9.80596548053532 20.88537899505345 a44.07284149758044,44.07284149758044 0 0,0 -0.6839419394902241,-0.32833369403852775 l 10.164020088025786 -20.71349102451536" fill="#ffce13" stroke="none" /><path d="M 90.42595943632237 118.69057910512821 l -10.353521410996319 20.21229277876926 a43.70973766873249,43.70973766873249 0 0,0 -0.6666965058797781,-0.3487841018535002 l 10.699908819402593 -20.031079257971044" fill="#ffc912" stroke="none" /><line stroke="#e1ed5e" stroke-width="0.3" x1="58.666819895761336" x2="56.23545636021788" y1="174.27360380694188" y2="178.64263932499728" /><path d="M 58.180547188652646 175.14741091055294 a86.0,86.0 0 0,1 -31.652253787137756,-30.449443065178592" fill="none" id="id8" stroke="none" /><text fill="#e1ed5e" style="font-size:6.75px; font-family:Arial;" text-anchor="middle"><textPath startOffset="22.20632615414155" xlink:href="#id8">August</textPath></text><path d="M 89.7882731507175 118.34994917583269 l -10.455915919878288 18.78874440614592 a42.50216486968333,42.50216486968333 0 0,0 -0.6362194254906238,-0.36126199410062065 l 10.777784112290119 -18.605979246250666" fill="#ffb610" stroke="none" /><path d="M 89.4739219176387 118.17145234162733 l -7.136238294680626 12.319480537350815 a35.237116902962896,35.237116902962896 0 0,0 -0.5222344244062345,-0.30854530306518424 l 7.347240590115242 -12.194816661991881" fill="#ff4406" stroke="none" /><path d="M 89.1626897886671 117.98757091392108 l -11.80765997245177 19.598139846531268 a43.88029544103914,43.88029544103914 0 0,0 -0.6436211289978829,-0.39536466554394023 l 12.14326030138196 -19.39198671415895" fill="#ffcb12" stroke="none" /><path d="M 88.54995079064634 117.60387380957326 l -12.661252309349825 19.466037555793505 a44.22141098565243,44.22141098565243 0 0,0 -0.6345252374950325,-0.42052872780804296 l 12.994452245584819 -19.245210806894146" fill="#ffd013" stroke="none" /><path d="M 87.95078237400918 117.19931262002967 l -8.240468697606477 11.762622409606282 a35.36191527294337,35.36191527294337 0 0,0 -0.49552596665477633,-0.353544620177762 l 8.441721992110141 -11.6190335275843" fill="#ff4606" stroke="none" /><path d="M 87.65650970185807 116.9893568818739 l -13.675750308813846 18.823055473929454 a44.26657611002632,44.26657611002632 0 0,0 -0.6125967774135321,-0.4531844508099799 l 13.997732056645944 -18.584861074379706" fill="#ffd113" stroke="none" /><path d="M 87.36589467227662 116.77436683061367 l -9.196435952109699 12.210155463594663 a36.28601748875116,36.28601748875116 0 0,0 -0.4956864749955059,-0.3800712518709231 l 9.405251155598691 -12.050044869896373" fill="#ff5507" stroke="none" /><path d="M 86.79598089348748 116.32954008644616 l -11.882010458386159 14.694599009788648 a39.89744460480516,39.89744460480516 0 0,0 -0.5303127897111745,-0.43641132242138025 l 12.133193376642023 -14.487892568510087" fill="#ff8e0d" stroke="none" /><path d="M 86.51685102203217 116.09983520530335 l -17.403667294424224 20.781211856815688 a48.10620595975889,48.10620595975889 0 0,0 -0.6302703833535344,-0.5371300941178453 l 17.758803154354815 -20.478557372474892" fill="#f5ff19" stroke="none" /><path d="M 85.97065885151581 115.62618273729859 l -19.713413854793384 21.957225504084207 a50.50827744290686,50.50827744290686 0 0,0 -0.6419372383411879,-0.5863944470396558 l 20.088450642601426 -21.614638290457975" fill="#d4ff1c" stroke="none" /><path d="M 85.70375840098266 115.38237550388516 l -15.88457803158779 17.091383235957867 a44.33313524068257,44.33313524068257 0 0,0 -0.5545107608015694,-0.5243245351544716 l 16.176424626780175 -16.815424064057463" fill="#ffd213" stroke="none" /><path d="M 85.44109423537348 115.13401014063109 l -21.906544936212942 22.77189498790208 a52.59835300110366,52.59835300110366 0 0,0 -0.6470850953709485,-0.633308959179591 l 22.295279983959684 -22.391435925799918" fill="#b8ff1f" stroke="none" /><path d="M 85.18274418774928 114.88116024355367 l -26.008713990052232 26.12088537303401 a57.86127854656592,57.86127854656592 0 0,0 -0.6997340063415983,-0.7088268541207959 l 26.454488621449364 -25.66931802493255" fill="#74ff27" stroke="none" /><path d="M 84.9287848128048 114.62390073753433 l -21.91440073431427 21.263980182131725 a51.53518974446048,51.53518974446048 0 0,0 -0.6122710578421537,-0.641963756320066 l 22.277178343535383 -20.883609309229158" fill="#c6ff1e" stroke="none" /><path d="M 84.67929136418377 114.36230785411682 l -24.68473685316233 23.140560819371803 a54.835215213515575,54.835215213515575 0 0,0 -0.6396229968989471,-0.6941844360576838 l 25.079406258057006 -22.712225128512774" fill="#9aff22" stroke="none" /><path d="M 84.43433777217949 114.09645910891817 l -18.277330356820226 16.552179806048667 a45.65837507428475,45.65837507428475 0 0,0 -0.5225517327876777,-0.5870924113198464 l 18.559540939256244 -16.235113224987956" fill="#ffe515" stroke="none" /><path d="M 84.19399662182784 113.82643327865904 l -13.641103801231473 11.932669318257478 a39.12369471092622,39.12369471092622 0 0,0 -0.43903770056647,-0.5107000326513234 l 13.844484011368722 -11.696092186444625" fill="#ff820c" stroke="none" /><path d="M 83.72743513129214 113.27417163493432 l -28.740968139645783 23.445138926653534 a58.090669836149075,58.090669836149075 0 0,0 -0.6253933298422997,-0.780274337598696 l 29.140279381542946 -22.946936755476578" fill="#71ff27" stroke="none" /><path d="M 83.28015986056508 112.70617746262583 l -24.366953825756543 18.517571756169676 a51.60472026487817,51.60472026487817 0 0,0 -0.5313780639348443,-0.7118677532028674 l 24.682093156386472 -18.095391123457503" fill="#c5ff1e" stroke="none" /><path d="M 83.06392112726016 112.41649034213515 l -24.557002837859574 18.003682603229493 a51.44961371933101,51.44961371933101 0 0,0 -0.5174856234281853,-0.7187422703700855 l 24.863268253663367 -17.57830672740827" fill="#c7ff1e" stroke="none" /><path d="M 82.85270091963577 112.12312394758628 l -28.93354996082853 20.455991977213117 a56.43441718312251,56.43441718312251 0 0,0 -0.5539685506172647,-0.79803301409103 l 29.28137941860793 -19.954917700935074" fill="#86ff25" stroke="none" /><path d="M 82.6465618267979 111.8261652097733 l -24.307188761326206 16.565064928775755 a50.414975804397656,50.414975804397656 0 0,0 -0.4825358846417664,-0.7213256762108665 l 24.588727751378702 -16.144202338359065" fill="#d5ff1c" stroke="none" /><path d="M 82.44556493220864 111.52570212397912 l -25.163493050454303 16.521575555028388 a51.102555395194834,51.102555395194834 0 0,0 -0.47645865787544117,-0.7394744177817794 l 25.44415657170679 -16.08597953732516" fill="#ccff1d" stroke="none" /><path d="M 82.05923443525364 110.91462005526583 l -25.776174200474653 15.681446082175796 a51.17149163766024,51.17149163766024 0 0,0 -0.45133042239727045,-0.75645574841522 l 26.042285498570156 -15.235428239874464" fill="#cbff1d" stroke="none" /><line stroke="#e1ed5e" stroke-width="0.3" x1="26.63291911575756" x2="22.317208475507996" y1="142.92168965132927" y2="145.44649492493687" /><path d="M 25.769776987707644 143.4266507060508 a86.0,86.0 0 0,1 -11.730757126820373,-40.83630448921669" fill="none" id="id9" stroke="none" /><text fill="#e1ed5e" style="font-size:6.75px; font-family:Arial;" text-anchor="middle"><textPath startOffset="21.46611528233685" xlink:href="#id9">September</textPath></text><path d="M 81.87401531095188 110.60418214915194 l -25.74888019415452 15.063778349127803 a50.83156464895153,50.83156464895153 0 0,0 -0.4353312111697772,-0.7590366608515073 l 26.004363401476674 -14.618321842417988" fill="#d0ff1d" stroke="none" /><path d="M 81.69416730710424 110.29060199501025 l -32.489136122694354 18.263729086200378 a58.27073605569234,58.27073605569234 0 0,0 -0.4839900479398491,-0.8785825214233893 l 32.79870258008572 -17.701776046379166" fill="#6fff27" stroke="none" /><path d="M 81.51974371655577 109.97397251340807 l -26.50578230222725 14.305426292471381 a51.11978945581119,51.11978945581119 0 0,0 -0.4112647718395817,-0.7779579591445631 l 26.748099582291715 -13.847053318240691" fill="#ccff1d" stroke="none" /><path d="M 81.35079622478065 109.6543875284942 l -28.234251712665472 14.616409949540449 a52.7932761694541,52.7932761694541 0 0,0 -0.4108355913311036,-0.8106175976789278 l 28.481665973782842 -14.128238140158835" fill="#b5ff1f" stroke="none" /><path d="M 81.18737489456691 109.33194174019688 l -43.64431066993249 21.649618922413907 a69.71890652856779,69.71890652856779 0 0,0 -0.5240429689484397,-1.079683732434012 l 44.010506895495645 -20.89514623401461" fill="#38ff82" stroke="none" /><path d="M 80.87730276802145 108.67885076344099 l -23.57746259444981 10.700649430125946 a46.892096103234564,46.892096103234564 0 0,0 -0.3272597495031731,-0.7378843410789636 l 23.75816342868426 -10.293216752554287" fill="#fff717" stroke="none" /><path d="M 80.73074385275274 108.34839909993369 l -27.34296377710104 11.846330363867192 a50.798879361575686,50.798879361575686 0 0,0 -0.34071296736230106,-0.80534480986096 l 27.542827725655645 -11.373911028340073" fill="#d0ff1d" stroke="none" /><path d="M 80.58989483394504 108.01547362559985 l -27.577432718310984 11.388201286098594 a50.836318872569834,50.836318872569834 0 0,0 -0.32704065621247635,-0.8116880883103519 l 27.769375988780848 -10.911813829945437" fill="#d0ff1d" stroke="none" /><path d="M 80.45479744820244 107.68017299344265 l -25.49554607423122 10.01832566807423 a48.39324221071398,48.39324221071398 0 0,0 -0.2979772879458179,-0.7779246711843758 l 25.66421764177055 -9.577977430056695" fill="#f1ff19" stroke="none" /><path d="M 80.32549172779594 107.34259656027581 l -57.13608154064727 21.323389127884766 a81.98539774174378,81.98539774174378 0 0,0 -0.48205750347344856,-1.3264152140993886 l 57.49466330512594 -20.33672611677926" fill="#4ae8ff" stroke="none" /><path d="M 80.0844068197444 106.66101706037122 l -28.579104467769792 9.558635824047439 a51.13524068257067,51.13524068257067 0 0,0 -0.27200964906629904,-0.8371596188841702 l 28.73940636785234 -9.065277305185464" fill="#ccff1d" stroke="none" /><path d="M 79.97269907076064 106.31721596034903 l -28.547277578905575 9.004674078806366 a50.933780456745055,50.933780456745055 0 0,0 -0.2565443022559098,-0.838401623326305 l 28.698048653667616 -8.511945482928013" fill="#ceff1d" stroke="none" /><path d="M 79.86692584326677 105.97154293290107 l -30.775338417242605 9.128077173036322 a53.100517870786994,53.100517870786994 0 0,0 -0.2523725080316932,-0.8785418086209309 l 30.927903562160402 -8.596977888910796" fill="#b1ff20" stroke="none" /><path d="M 79.76711848015287 105.62410040840567 l -57.76079145717456 16.05567108696166 a80.95075982681043,80.95075982681043 0 0,0 -0.3616260238546693,-1.3457449629461362 l 58.02860555737101 -15.059035190839985" fill="#49f3ff" stroke="none" /><path d="M 79.67330655649465 105.27499134158121 l -28.835408088674175 7.483092536495019 a50.79055947024365,50.79055947024365 0 0,0 -0.2123255458148266,-0.8481350108402668 l 28.95994494878406 -6.985629686257361" fill="#d0ff1d" stroke="none" /><path d="M 79.58551787078972 104.9243191809786 l -30.201440324613166 7.285099418264126 a52.0676627897105,52.0676627897105 0 0,0 -0.20266577570236324,-0.87307885746964 l 30.322366666246083 -6.764151903445912" fill="#bfff1e" stroke="none" /><path d="M 79.4281124754447 104.21870165774334 l -29.65537398479912 6.081463124924181 a51.2725188895492,51.2725188895492 0 0,0 -0.16985869407868312,-0.8661058216531697 l 29.75566261185347 -5.570093576203056" fill="#caff1d" stroke="none" /><path d="M 79.35854240842038 103.8639653848113 l -29.862558690729983 5.590103924150548 a51.3812717548179,51.3812717548179 0 0,0 -0.155253547141912,-0.8707443419533732 l 29.954358680211083 -5.075240831463961" fill="#c8ff1d" stroke="none" /><path d="M 79.29508885075956 103.50808413554451 l -29.196754749035033 4.946878129840759 a50.612870362509554,50.612870362509554 0 0,0 -0.13814480647230806,-0.8602278417725917 l 29.277581309868633 -4.443571058374954" fill="#d3ff1c" stroke="none" /><path d="M 79.23777060512086 103.15116336523772 l -61.00230542839877 9.258554387633547 a82.7009083962985,82.7009083962985 0 0,0 -0.20149859332790132,-1.4092806924261678 l 61.15263807274327 -8.207128223226977" fill="#4be0ff" stroke="none" /><path d="M 79.18660465613746 102.79330883721812 l -30.72621883304404 4.123681753152725 a52.00169793700653,52.00169793700653 0 0,0 -0.11142847256031359,-0.8881945617577778 l 30.792648814851205 -3.5941694371075386" fill="#c0ff1e" stroke="none" /><path d="M 79.10278846688536 102.07522291339032 l -24.995991088142457 2.482257183778527 a46.118940487307924,46.118940487307924 0 0,0 -0.0716499548891408,-0.7906512817072339 l 25.03501563930867 -2.0516245135227273" fill="#ffec16" stroke="none" /><path d="M 79.07016306316243 101.71520430193888 l -36.40939910522339 2.983757502017343 a57.531454283046095,57.531454283046095 0 0,0 -0.07238947653350197,-0.987696893592696 l 36.45536514042123 -2.3565874719278863" fill="#78ff26" stroke="none" /><path d="M 79.04373962182676 101.35467743843564 l -33.0744431488553 2.138034225287776 a54.143475677052386,54.143475677052386 0 0,0 -0.05211605805073346,-0.9305672260834523 l 33.10634555779357 -1.5683952828688865" fill="#a3ff21" stroke="none" /><path d="M 79.0235259727143 100.99374915477108 l -30.249883690082694 1.4330719409678072 a51.28381017064267,51.28381017064267 0 0,0 -0.03418399817394714,-0.8821370996881494 l 30.270069821107843 -0.912157594265661" fill="#c9ff1d" stroke="none" /><path d="M 79.0095281055655 100.63252640178507 l -29.76219271015497 0.8968532369765237 a50.77570252143645,50.77570252143645 0 0,0 -0.018806201492211506,-0.8738502857932365 l 29.77322097433219 -0.38441313539315836" fill="#d0ff1d" stroke="none" /><line stroke="#e1ed5e" stroke-width="0.3" x1="15.007084014347285" x2="10.007500721073583" y1="101.09737516637583" y2="101.16192664675087" /><path d="M 14.007167355692545 101.11028546245083 a86.0,86.0 0 0,1 10.666146001902534,-42.60595125391555" fill="none" id="id10" stroke="none" /><text fill="#e1ed5e" style="font-size:6.75px; font-family:Arial;" text-anchor="middle"><textPath startOffset="22.20632615414155" xlink:href="#id10">October</textPath></text><path d="M 79.00175016825051 100.2711162175752 l -60.32844655512736 0.7789230232647095 a81.33347482808387,81.33347482808387 0 0,0 -0.006025271773532786,-1.4000609645291557 l 60.33291612419039 0.25964741946812153" fill="#49efff" stroke="none" /><path d="M 79.00486145842228 99.54816195383935 l -35.98292371999804 -0.7743913628668914 a56.99125562441633,56.99125562441633 0 0,0 0.029549438314051515,-0.9806019996588006 l 35.96426258722834 1.3936635099506862" fill="#7fff26" stroke="none" /><path d="M 79.01574976396665 99.18683210126434 l -33.616843700988994 -1.30269787326104 a54.64207487902199,54.64207487902199 0 0,0 0.04451089237214493,-0.9395545880899393 l 33.58943920038335 1.8811635679739882" fill="#9dff22" stroke="none" /><path d="M 79.03285615573316 98.82574320788736 l -33.10823384458912 -1.8542138478957877 a54.16011545971644,54.16011545971644 0 0,0 0.06014199445968249,-0.93037003481443 l 33.07141125912503 2.4238429469632297" fill="#a3ff21" stroke="none" /><path d="M 79.08570108090925 98.10471618934814 l -62.742896757272284 -5.685851431955563 a84.0,84.0 0 0,0 0.1428914972710853,-1.4388978771822787 l 62.635728134318974 6.7650248398422725" fill="#4dd2ff" stroke="none" /><path d="M 79.12142395522702 97.74499172005258 l -35.52967970898432 -3.837413133722681 a56.73631038288479,56.73631038288479 0 0,0 0.11322851142978642,-0.9700727384437592 l 35.45836084455094 4.448429610491302" fill="#82ff25" stroke="none" /><path d="M 79.16333360222342 97.38593545837743 l -36.70253454631704 -4.604517455606157 a57.990236862212406,57.990236862212406 0 0,0 0.13278107637709805,-0.9893732479550745 l 36.61783747088211 5.235609045625891" fill="#73ff27" stroke="none" /><path d="M 79.21141760316559 97.0276538004421 l -31.627330510122956 -4.522067635465162 a52.94897699295356,52.94897699295356 0 0,0 0.13676999763265277,-0.9011433988196333 l 31.544804619051 5.0658101466768874" fill="#b3ff20" stroke="none" /><path d="M 79.32604984820605 96.31383870115002 l -34.39164291601026 -6.132023255839414 a55.93403514729603,55.93403514729603 0 0,0 0.17716246936298818,-0.9464089954196788 l 34.28099472273741 6.723110328721665" fill="#8cff24" stroke="none" /><path d="M 79.3925641242962 95.95851677861259 l -18.260181456831006 -3.5811450498933857 a39.608031242040916,39.608031242040916 0 0,0 0.13696967220085254,-0.6679127654403426 l 18.19583248871516 3.8949334714971307" fill="#ff8a0c" stroke="none" /><path d="M 79.46518482838121 95.60439243477599 l -59.34507541022797 -12.703190179793737 a81.68944732150436,81.68944732150436 0 0,0 0.3061627631858933,-1.3724676348773976 l 59.11761826004004 13.722835984221094" fill="#4aebff" stroke="none" /><path d="M 79.54389044137918 95.25157060432595 l -37.95642503720324 -8.810737148472027 a59.965616775617626,59.965616775617626 0 0,0 0.24205321022391504,-1.0034668251240504 l 37.79913902671851 9.462789205255474" fill="#5bff2a" stroke="none" /><line stroke="#e1ed5e" stroke-width="0.3" x1="26.266209847984243" x2="21.928928074336255" y1="57.711370442889674" y2="55.22380399835377" /><path d="M 25.398753493254645 57.213857153982495 a86.0,86.0 0 0,1 29.58750427330803,-30.492523968695096" fill="none" id="id11" stroke="none" /><text fill="#e1ed5e" style="font-size:6.75px; font-family:Arial;" text-anchor="middle"><textPath startOffset="21.46611528233685" xlink:href="#id11">November</textPath></text><line stroke="#e1ed5e" stroke-width="0.3" x1="56.762969772571076" x2="54.21961505331055" y1="26.818313649435495" y2="22.513508569990535" /><path d="M 56.25429882871897 25.957352633546506 a86.0,86.0 0 0,1 42.265352541879196,-11.944610805530505" fill="none" id="id12" stroke="none" /><text fill="#e1ed5e" style="font-size:6.75px; font-family:Arial;" text-anchor="middle"><textPath startOffset="22.20632615414155" xlink:href="#id12">December</textPath></text></svg>