<?xml version="1.0" encoding="utf-8" ?>
<svg baseProfile="full" height="200mm" version="1.1" viewBox="0,0,200,200" width="200mm" xmlns="http://www.w3.org/2000/svg" xmlns:ev="http://www.w3.org/2001/xml-events" xmlns:xlink="http://www.w3.org/1999/xlink"><defs /><rect fill="#1a1a1a" height="200" width="200" x="0" y="0" /><text alignment-baseline="middle" fill="#e1ed5e" style="dominant-baseline: central; font-size:9.0px; font-family:Arial;" text-anchor="middle" x="100.0" y="100.0">2023</text><line stroke="#e1ed5e" stroke-width="0.3" x1="100.0" x2="100.0" y1="15.0" y2="10.0" /><path d="M 100.0 14.0 a86.0,86.0 0 0,1 42.46469731375804,11.215312516191453" fill="none" id="id13" stroke="none" /><text fill="#e1ed5e" style="font-size:6.75px; font-family:Arial;" text-anchor="middle"><textPath startOffset="22.20632615414155" xlink:href="#id13">January</textPath></text><path d="M 100.0 79.0 l 0.0 -28.76483378632657 a49.76483378632657,49.76483378632657 0 0,0 0.8566198079999543,0.00737319713198079 l -0.495139328727426 28.76057196580315" fill="#c0ff1e" stroke="none" /><path d="M 100.36148047927253 79.00311137660856 l 0.28402001668508886 -16.497534442667767 a37.4999790926197,37.4999790926197 0 0,0 0.6453092202296232,0.016666433310885107 l -0.5679558721095799 16.490201217214523" fill="#ff980e" stroke="none" /><path d="M 100.72285384407766 79.0124445844662 l 0.659359176499747 -19.14403218424669 a40.155383650428604,40.155383650428604 0 0,0 0.6905945206798019,0.029738452764635426 l -0.9887945295688805 19.12984600495786" fill="#ffbe11" stroke="none" /><path d="M 101.08401301168833 79.027996857942 l 0.3374197306714581 -6.527936081517026 a27.5366506376751,27.5366506376751 0 0,0 0.4731556475199084,0.02854204079042627 l -0.4497374270309784 6.521160771346296" fill="#ff0000" stroke="none" /><path d="M 101.44485096284872 79.0497635885617 l 1.5513242646896976 -22.494091731074146 a43.54752247543382,43.54752247543382 0 0,0 0.7473787775766807,0.05801097731391474 l -1.9382932316287196 22.464055491571767" fill="#ffed16" stroke="none" /><path d="M 101.80526077348638 79.07773832637324 l 2.68767334670254 -31.149076010966187 a52.264812878946266,52.264812878946266 0 0,0 0.8956568044029979,0.08505340576924236 l -3.2234552781957824 31.098197060681766" fill="#a1ff22" stroke="none" /><path d="M 102.16513564639614 79.11191278185805 l 2.964737487456999 -28.60222421628661 a49.755467279949826,49.755467279949826 0 0,0 0.8511343109233513,0.0956348569704711 l -3.456638501890076 28.54695340584554" fill="#c0ff1e" stroke="none" /><path d="M 102.52436894288641 79.15227682838746 l 1.989306171759867 -16.42886016693331 a37.548860547773366,37.548860547773366 0 0,0 0.6409863556042649,0.08321842538901739 l -2.271807255871978 16.392183418380153" fill="#ff990e" stroke="none" /><path d="M 102.88285421437855 79.19881850522331 l 2.0131962066874993 -14.526180155429664 a35.66502195274932,35.66502195274932 0 0,0 0.6073770554283864,0.08951158949666758 l -2.2629422425445416 14.489374081772027" fill="#ff7d0b" stroke="none" /><path d="M 103.2404852339499 79.25152402106235 l 2.441712060036683 -15.634017860775932 a36.82354171022371,36.82354171022371 0 0,0 0.6254229454554158,0.10320014483072713 l -2.710464211630974 15.58967145300558" fill="#ff8e0d" stroke="none" /><path d="M 103.95276090670814 79.375362276772 l 3.01527147067014 -15.733023875594759 a37.01936023416266,37.01936023416266 0 0,0 0.6248049889059138,0.12533000291436552 l -3.2856428690431794 15.678789916603186" fill="#ff910d" stroke="none" /><path d="M 104.307194497241 79.44645832069477 l 3.521699580495568 -16.805231144326765 a38.17026970520594,38.17026970520594 0 0,0 0.6419099270197928,0.14029664739438158 l -3.8104522316688887 16.742120998836512" fill="#ffa20f" stroke="none" /><path d="M 104.66035177308747 79.52364482259891 l 9.463089650943335 -41.57831730370264 a63.641605686807445,63.641605686807445 0 0,0 1.0660766382995246,0.25230589673074577 l -10.177389976205383 41.409265494831025" fill="#31ff42" stroke="none" /><path d="M 105.01212808612495 79.60689891045804 l 4.685531127415158 -19.06425939195176 a40.631611959021534,40.631611959021534 0 0,0 0.6777567860783086,0.17277529565570576 l -5.012996802178491 18.98078110012719" fill="#ffc512" stroke="none" /><path d="M 105.36241919743992 79.69619591428918 l 4.686968890278946 -17.746336979674606 a39.35484005854067,39.35484005854067 0 0,0 0.6534817046512567,0.17862123529559332 l -4.991748484153913 17.66302920355272" fill="#ffb310" stroke="none" /><path d="M 105.71112130821622 79.79150937346287 l 4.046541788025132 -14.318466966469968 a35.8792807861175,35.8792807861175 0 0,0 0.592879114944317,0.17307767146803602 l -4.292411120692876 14.246690966083229" fill="#ff800b" stroke="none" /><path d="M 106.0581310904928 79.89281104454417 l 4.978484228369425 -16.523796133873024 a38.25749529583943,38.25749529583943 0 0,0 0.6289069990273648,0.19540446596020672 l -5.262176600107508 16.435651533030295" fill="#ffa30f" stroke="none" /><path d="M 106.74666289553966 80.11325718540242 l 5.8521858244911735 -17.25014517500664 a39.21580597951077,39.21580597951077 0 0,0 0.6373838240938146,0.22237070086687558 l -6.148251652648262 17.14685362096756" fill="#ffb110" stroke="none" /><path d="M 107.08798089147638 80.2323363322302 l 10.172529492684488 -28.37015854595097 a51.13878319046624,51.13878319046624 0 0,0 0.8260561474614486,0.3042434504846526 l -10.659367965918513 28.190851827659994" fill="#afff20" stroke="none" /><path d="M 107.4271985657038 80.35727306442388 l 10.00821347461909 -26.468742239190078 a49.29767928078612,49.29767928078612 0 0,0 0.7911498973367633,0.30695386891555265 l -10.46234653695552 26.29254566638398" fill="#c6ff1e" stroke="none" /><path d="M 107.76421540070413 80.48803036053334 l 5.89461354325672 -14.81354065498793 a36.94325736985155,36.94325736985155 0 0,0 0.5888335310303332,0.24019998203673731 l -6.148730943875441 14.709879786767614" fill="#ff900d" stroke="none" /><path d="M 108.09893153111575 80.62456947434976 l 5.893723816845123 -14.099815007933644 a36.282040560317796,36.282040560317796 0 0,0 0.574148160890675,0.24582027892358024 l -6.135555735526113 13.996275201047272" fill="#ff860c" stroke="none" /><path d="M 108.76106565485865 80.91482961587045 l 7.039747354337534 -15.335437835036377 a37.87405394104118,37.87405394104118 0 0,0 0.5901531274249051,0.27708480641549177 l -7.302678693062036 15.211988045980881" fill="#ff9e0e" stroke="none" /><path d="M 109.08828744355905 81.06846463323043 l 7.520686117835406 -15.666112686948349 a38.37779636211583,38.37779636211583 0 0,0 0.5930808394442433,0.29102219219348396 l -7.789238224290081 15.534335334620033" fill="#ffa50f" stroke="none" /><path d="M 109.41281617654863 81.2277094730956 l 27.928689536087695 -55.699108977967065 a83.30892745139035,83.30892745139035 0 0,0 1.2763701760816222,0.6538063786756068 l -28.883320199758074 55.21011007397895" fill="#4cd9ff" stroke="none" /><path d="M 110.05341064243156 81.56283822128135 l 8.556714300222184 -15.692338795117093 a38.873635793435085,38.873635793435085 0 0,0 0.58472595796825,0.3253993625399689 l -8.82556434726247 15.542724035016944" fill="#ffac0f" stroke="none" /><line stroke="#e1ed5e" stroke-width="0.3" x1="143.23703022742887" x2="145.7803849466894" y1="26.81831364943548" y2="22.513508569990506" /><path d="M 143.74570117128098 25.957352633546492 a86.0,86.0 0 0,1 28.547481713284135,27.462654790039103" fill="none" id="id14" stroke="none" /><text fill="#e1ed5e" style="font-size:6.75px; font-family:Arial;" text-anchor="middle"><textPath startOffset="19.985693538727396" xlink:href="#id14">February</textPath></text><path d="M 110.68208982089419 81.91981866633111 l 8.1880388544185 -13.858826291222892 a37.09692661509513,37.09692661509513 0 0,0 0.5469817003225708,0.32955035422433127 l -8.425382620958707 13.715829327539947" fill="#ff920d" stroke="none" /><path d="M 110.99172775467656 82.1063720568725 l 9.341091824243978 -15.20652852910205 a38.84641438427765,38.84641438427765 0 0,0 0.566752255540633,0.35490021042559255 l -9.601463232156876 15.043483977353514" fill="#ffac0f" stroke="none" /><path d="M 111.2981086023043 82.29822771554956 l 10.500335681832153 -16.451829035540744 a40.517164959230605,40.517164959230605 0 0,0 0.5846684287802189,0.38028460968905836 l -10.78197113639665 16.26864550169216" fill="#ffc312" stroke="none" /><path d="M 111.60114157652 82.49532879139004 l 17.232331978670814 -26.001433001624697 a52.19339326782354,52.19339326782354 0 0,0 0.7446140764777683,0.5027667483234042 l -17.677350749555124 25.700954341002625" fill="#a2ff22" stroke="none" /><path d="M 111.90073688211348 82.69761687909136 l 16.086604820229486 -23.388181964815942 a49.38636838804098,49.38636838804098 0 0,0 0.6962745623213952,0.4877848268820819 l -16.48681052213453 23.10781229516992" fill="#c5ff1e" stroke="none" /><path d="M 112.19680574252982 82.90503203632743 l 9.587612425415763 -13.437938647254049 a37.5075893790508,37.5075893790508 0 0,0 0.5223461993420141,0.3795067281639368 l -9.817503941111566 13.270912684273437" fill="#ff980e" stroke="none" /><path d="M 112.77801427241765 83.33499621200491 l 12.464908842200767 -16.25665370562984 a41.485427555927245,41.485427555927245 0 0,0 0.5629522042252927,0.43939312479774206 l -12.74289360158549 16.039682191608875" fill="#ffd113" stroke="none" /><path d="M 113.06298171725822 83.55741782278167 l 14.592777136986467 -18.36815992414128 a44.45929333054568,44.45929333054568 0 0,0 0.595112202735275,0.48120601399897994 l -14.906792738286233 18.114247812878173" fill="#fff917" stroke="none" /><path d="M 113.34407831869373 83.78471172551755 l 18.78958567132756 -22.832491007778103 a50.569767928078605,50.569767928078605 0 0,0 0.667382382809216,0.5589135527128666 l -19.179825591095895 22.505676297671418" fill="#b6ff1f" stroke="none" /><path d="M 113.6212207817346 84.01681056812373 l 23.60954645358711 -27.703526682012313 a57.39912189002718,57.39912189002718 0 0,0 0.7464788638284138,0.6473391147871276 l -24.08291911606229 27.293022573805516" fill="#65ff29" stroke="none" /><path d="M 113.89432698308785 84.25364557470407 l 41.68298094926353 -47.23906327588782 a84.0,84.0 0 0,0 1.0759560496160399,0.9660039649228103 l -42.48994798647556 46.51456030219571" fill="#4dd2ff" stroke="none" /><path d="M 114.42810811169701 84.74124197986012 l 13.472066213822483 -14.247675218164199 a40.60848839640393,40.60848839640393 0 0,0 0.503771032325424,0.484627333959792 l -13.715320489760327 14.013664797442104" fill="#ffc412" stroke="none" /><path d="M 114.68862486808459 84.99185889309783 l 15.351348105912871 -15.685280318875732 a42.94748066067322,42.94748066067322 0 0,0 0.5238860484890832,0.5216363153064331 l -15.619069954569277 15.41870815291918" fill="#ffe515" stroke="none" /><path d="M 114.94478906791727 85.2469230424477 l 15.326194166298428 -15.129589382240823 a42.53593978674472,42.53593978674472 0 0,0 0.5098960057760191,0.5254926550764769 l -15.584354435777557 14.863532531614231" fill="#ffdf14" stroke="none" /><path d="M 115.4437574822437 85.77008943001954 l 24.32706619751629 -22.415009871701194 a54.079280786117494,54.079280786117494 0 0,0 0.6248895901744022,0.6900186930051244 l -24.70929942830673 21.992938391426524" fill="#8bff24" stroke="none" /><path d="M 115.68641384162765 86.03803664274999 l 20.431146809460426 -18.185094820288313 a48.35195484005854,48.35195484005854 0 0,0 0.5480075554214464,0.6264673685313102 l -20.74114622845972 17.830711895554053" fill="#d2ff1c" stroke="none" /><path d="M 115.9244219780498 86.31012108654704 l 19.43092442991727 -16.70434273775751 a46.62412711687225,46.62412711687225 0 0,0 0.5179482862758947,0.6130874016513885 l -19.715583329680282 16.367396386477015" fill="#e8ff1a" stroke="none" /><path d="M 116.15771136456269 86.58626213691792 l 16.28180222750609 -13.516755070728014 a42.16127953167468,42.16127953167468 0 0,0 0.45875790233217634,0.5623829441142872 l -16.512058621914676 13.234487957005625" fill="#ffda14" stroke="none" /><path d="M 116.38621287248628 86.86637796730983 l 12.348185921680551 -9.897125586415697 a36.82500522684508,36.82500522684508 0 0,0 0.39217915005189746,0.49802769414967235 l -12.516719152326413 9.683105498312987" fill="#ff8e0d" stroke="none" /><path d="M 116.60985879189232 87.15038557335679 l 14.90268618430414 -11.528922297824936 a39.84160568680744,39.84160568680744 0 0,0 0.4149675116099319,0.5460486033337129 l -15.098929636138184 11.270688918610189" fill="#ffba11" stroke="none" /><path d="M 117.04232023915458 87.72973835380427 l 24.288008360346748 -17.48706826678126 a50.92832950031361,50.92832950031361 0 0,0 0.5060999838659558,0.7158425357553879 l -24.58542096401659 17.06639923069408" fill="#b1ff20" stroke="none" /><path d="M 117.2510076193507 88.02491185347247 l 24.589508595621982 -17.06923673154419 a50.93330545682626,50.93330545682626 0 0,0 0.4937511844586202,0.7245189374969206 l -24.87968424574934 16.643439770776865" fill="#b1ff20" stroke="none" /><path d="M 117.45458315368197 88.32363383020206 l 14.612511366082652 -9.775142257391783 a38.58063976583734,38.58063976583734 0 0,0 0.3645013685517128,0.555160591305746 l -14.778609369992289 9.522163602108362" fill="#ffa80f" stroke="none" /><line stroke="#e1ed5e" stroke-width="0.3" x1="172.23445277983987" x2="176.4835382374775" y1="55.19839476539836" y2="52.563006222186495" /><path d="M 173.08426987136738 54.67131705675599 a86.0,86.0 0 0,1 12.851231095245387,41.99856678651699" fill="none" id="id15" stroke="none" /><text fill="#e1ed5e" style="font-size:6.75px; font-family:Arial;" text-anchor="middle"><textPath startOffset="22.20632615414155" xlink:href="#id15">March</textPath></text><path d="M 117.84615892207809 88.93136811851018 l 15.29155508724999 -9.484203009472251 a38.99393685971148,38.99393685971148 0 0,0 0.3488735570744895,0.573456397705103 l -15.452544442610703 9.219578838560066" fill="#ffae10" stroke="none" /><path d="M 118.03404312379186 89.2402003453031 l 16.602279103537924 -9.905554497080987 a40.33276186493832,40.33276186493832 0 0,0 0.35058835620650525,0.5992691456423074 l -16.770327134214757 9.618305939084783" fill="#ffc111" stroke="none" /><path d="M 118.21658344932153 89.55222093294921 l 16.853100933148184 -9.665779295776657 a40.42818314865147,40.42818314865147 0 0,0 0.34102589148636353,0.6066470082626839 l -17.01698446592698 9.37424877757918" fill="#ffc212" stroke="none" /><path d="M 118.3937258080291 89.86733742301442 l 15.604350425892967 -8.596062551372606 a38.81538783190466,38.81538783190466 0 0,0 0.3173470341158182,0.5879958575549884 l -15.750005559227251 8.32618571048516" fill="#ffab0f" stroke="none" /><path d="M 118.56541770881063 90.18545643968196 l 21.672204314315973 -11.456935503800917 a45.514196111227264,45.514196111227264 0 0,0 0.36019190718983274,0.6957761179093376 l -21.866205654665922 11.082186663631234" fill="#f7ff19" stroke="none" /><path d="M 118.89224826269711 90.83032412892265 l 19.8502244168499 -9.634645984938647 a43.06485469370688,43.06485469370688 0 0,0 0.31794537398355416,0.669674043788955 l -20.01312798467521 9.291529525509151" fill="#ffe615" stroke="none" /><path d="M 119.04729006885535 91.15688171328212 l 20.236932647411926 -9.395435703161995 a43.31160359606942,43.31160359606942 0 0,0 0.30812634408832096,0.6789155555039533 l -20.395661308463595 9.045698138815979" fill="#ffea16" stroke="none" /><path d="M 119.196687751892 91.48605970444005 l 17.042495360917265 -7.5585324856839495 a39.6434455362743,39.6434455362743 0 0,0 0.27129197225753937,0.626179275996029 l -17.170078043017487 7.264054065101318" fill="#ffb711" stroke="none" /><path d="M 119.34039704204932 91.81776055985345 l 19.6013421160852 -8.292636091872268 a42.28333681789672,42.28333681789672 0 0,0 0.2778182612836253,0.6727589560451145 l -19.741182064255025 7.954002565373851" fill="#ffdc14" stroke="none" /><path d="M 119.47837535516314 92.15188598940014 l 30.40901679601926 -12.252224654975914 a53.78452853857412,53.78452853857412 0 0,0 0.33860293282720283,0.861707530857826 l -30.615413278728163 11.726968119222304" fill="#8fff24" stroke="none" /><path d="M 119.61058180528143 92.48833698450437 l 19.210142717613476 -7.358278301331566 a41.57118962993937,41.57118962993937 0 0,0 0.2502098866549122,0.6704380997060275 l -19.333957192770015 7.026517064596205" fill="#ffd213" stroke="none" /><line stroke="#e1ed5e" stroke-width="0.3" x1="184.98032266829074" x2="189.97916517819016" y1="98.17113171792111" y2="98.06355123074" /><path d="M 185.9800911702706 98.14961562048488 a86.0,86.0 0 0,1 -9.607161424134198,41.387399972396054" fill="none" id="id16" stroke="none" /><text fill="#e1ed5e" style="font-size:6.75px; font-family:Arial;" text-anchor="middle"><textPath startOffset="21.466115282336823" xlink:href="#id16">April</textPath></text><line stroke="#e1ed5e" stroke-width="0.3" x1="174.80103733775053" x2="179.2010983576182" y1="140.37084112569926" y2="142.7455964860345" /><path d="M 175.68104954172406 140.8457921977663 a86.0,86.0 0 0,1 -30.038265399797805,32.042727171017184" fill="none" id="id17" stroke="none" /><text fill="#e1ed5e" style="font-size:6.75px; font-family:Arial;" text-anchor="middle"><textPath startOffset="22.206326154141568" xlink:href="#id17">May</textPath></text><line stroke="#e1ed5e" stroke-width="0.3" x1="143.8653032363475" x2="146.44561519142675" y1="172.8068346515853" y2="177.08958963109032" /><path d="M 144.38136562736335 173.6633856474863 a86.0,86.0 0 0,1 -40.68145358897372,12.25698825130547" fill="none" id="id18" stroke="none" /><text fill="#e1ed5e" style="font-size:6.75px; font-family:Arial;" text-anchor="middle"><textPath startOffset="21.466115282336833" xlink:href="#id18">June</textPath></text><line stroke="#e1ed5e" stroke-width="0.3" x1="102.19456741930631" x2="102.32365962044197" y1="184.97166512339345" y2="189.96999836594603" /><path d="M 102.22038585953345 185.97133177190398 a86.0,86.0 0 0,1 -42.740103519485714,-10.115201625700543" fill="none" id="id19" stroke="none" /><text fill="#e1ed5e" style="font-size:6.75px; font-family:Arial;" text-anchor="middle"><textPath startOffset="22.20632615414155" xlink:href="#id19">July</textPath></text><line stroke="#e1ed5e" stroke-width="0.3" x1="58.666819895761336" x2="56.23545636021788" y1="174.27360380694188" y2="178.64263932499728" /><path d="M 58.180547188652646 175.14741091055294 a86.0,86.0 0 0,1 -31.652253787137756,-30.449443065178592" fill="none" id="id20" stroke="none" /><text fill="#e1ed5e" style="font-size:6.75px; font-family:Arial;" text-anchor="middle"><textPath startOffset="22.20632615414155" xlink:href="#id20">August</textPath></text><line stroke="#e1ed5e" stroke-width="0.3" x1="26.63291911575756" x2="22.317208475507996" y1="142.92168965132927" y2="145.44649492493687" /><path d="M 25.769776987707644 143.4266507060508 a86.0,86.0 0 0,1 -11.730757126820373,-40.83630448921669" fill="none" id="id21" stroke="none" /><text fill="#e1ed5e" style="font-size:6.75px; font-family:Arial;" text-anchor="middle"><textPath startOffset="21.46611528233685" xlink:href="#id21">September</textPath></text><line stroke="#e1ed5e" stroke-width="0.3" x1="15.007084014347285" x2="10.007500721073583" y1="101.09737516637583" y2="101.16192664675087" /><path d="M 14.007167355692545 101.11028546245083 a86.0,86.0 0 0,1 10.666146001902534,-42.60595125391555" fill="none" id="id22" stroke="none" /><text fill="#e1ed5e" style="font-size:6.75px; font-family:Arial;" text-anchor="middle"><textPath startOffset="22.20632615414155" xlink:href="#id22">October</textPath></text><line stroke="#e1ed5e" stroke-width="0.3" x1="26.266209847984243" x2="21.928928074336255" y1="57.711370442889674" y2="55.22380399835377" /><path d="M 25.398753493254645 57.213857153982495 a86.0,86.0 0 0,1 29.58750427330803,-30.492523968695096" fill="none" id="id23" stroke="none" /><text fill="#e1ed5e" style="font-size:6.75px; font-family:Arial;" text-anchor="middle"><textPath startOffset="21.46611528233685" xlink:href="#id23">November</textPath></text><line stroke="#e1ed5e" stroke-width="0.3" x1="56.762969772571076" x2="54.21961505331055" y1="26.818313649435495" y2="22.513508569990535" /><path d="M 56.25429882871897 25.957352633546506 a86.0,86.0 0 0,1 42.265352541879196,-11.944610805530505" fill="none" id="id24" stroke="none" /><text fill="#e1ed5e" style="font-size:6.75px; font-family:Arial;" text-anchor="middle"><textPath startOffset="22.20632615414155" xlink:href="#id24">December</textPath></text></svg>