<?xml version="1.0" encoding="utf-8" ?>
<svg baseProfile="full" height="200mm" version="1.1" viewBox="0,0,200,200" width="200mm" xmlns="http://www.w3.org/2000/svg" xmlns:ev="http://www.w3.org/2001/xml-events" xmlns:xlink="http://www.w3.org/1999/xlink"><defs /><rect fill="#1a1a1a" height="200" width="200" x="0" y="0" /><text alignment-baseline="middle" fill="#e1ed5e" style="dominant-baseline: central; font-size:9.0px; font-family:Arial;" text-anchor="middle" x="100.0" y="100.0">2024</text><line stroke="#e1ed5e" stroke-width="0.3" x1="100.0" x2="100.0" y1="15.0" y2="10.0" /><path d="M 100.0 14.0 a86.0,86.0 0 0,1 42.35913384403234,11.155469271406648" fill="none" id="id25" stroke="none" /><text fill="#e1ed5e" style="font-size:6.75px; font-family:Arial;" text-anchor="middle"><textPath startOffset="22.145653131862478" xlink:href="#id25">January</textPath></text><path d="M 100.0 79.0 l 0.0 -29.661440922190202 a50.6614409221902,50.6614409221902 0 0,0 0.8696710007189433,0.007465079586528394 l -0.5091780758700885 29.65707024079811" fill="#ff6909" stroke="none" /><path d="M 100.72087961077811 79.0123766808444 l 1.074629985773206 -31.286679511621944 a52.30512968299712,52.30512968299712 0 0,0 0.8970933476308623,0.03852504830237133 l -1.6115490940049046 31.263621894893742" fill="#ff8d0d" stroke="none" /><path d="M 101.44090949804482 79.04949213459386 l 2.7029635093467297 -39.300496206954136 a60.39333717579251,60.39333717579251 0 0,0 1.0336779947606363,0.08001321423100895 l -3.3772104988825995 39.24830522572807" fill="#ccff1d" stroke="none" /><path d="M 101.80034050326958 79.07731436759882 l 3.204709861843098 -37.243586344154366 a58.38121037463977,58.38121037463977 0 0,0 0.9977638996937918,0.09448927867221726 l -3.843573324921903 37.18308530997697" fill="#f3ff19" stroke="none" /><path d="M 102.15924093988457 79.11130261209362 l 6.391950551309703 -61.83632327382026 a83.1658097982709,83.1658097982709 0 0,0 1.4188249459531979,0.15898229457969032 l -7.452511398863698 61.71748521873361" fill="#4bdeff" stroke="none" /><path d="M 102.87502721639298 79.19773525538626 l 3.930253344000501 -28.43735534367427 a49.70766570605187,49.70766570605187 0 0,0 0.844260781723557,0.12407726119662806 l -4.41783923133174 28.36569700917876" fill="#ff5307" stroke="none" /><path d="M 103.23170211078529 79.25015418208739 l 6.723206994142546 -43.167811805671036 a64.68823054755043,64.68823054755043 0 0,0 1.0957647092120608,0.18030766591346994 l -7.463249206407678 43.046038141261896" fill="#7eff26" stroke="none" /><path d="M 103.58742460773223 79.30868818359171 l 4.535249068933641 -26.15811143406913 a47.54835734870317,47.54835734870317 0 0,0 0.8030357537279774,0.14633986485764955 l -4.983619556212672 26.076403395280114" fill="#ff2203" stroke="none" /><path d="M 103.94208987418118 79.37332000966035 l 4.745503695224667 -24.830480592405415 a46.27988472622478,46.27988472622478 0 0,0 0.7790524714258403,0.1558323129221278 l -5.171052652181465 24.74535888282043" fill="#ff0400" stroke="none" /><path d="M 104.64783097203109 79.52079915486377 l 13.943492916093248 -61.4376025354087 a84.0,84.0 0 0,0 1.40347138504046,0.3312154254150901 l -14.996096454873593 61.18919096634738" fill="#4dd2ff" stroke="none" /><path d="M 104.9986988182912 79.60360301121754 l 7.124139793639777 -29.06892147671595 a50.92917579250721,50.92917579250721 0 0,0 0.8473516401093046,0.21539347337297265 l -7.622096726974475 28.942342771507708" fill="#ff6f0a" stroke="none" /><path d="M 105.3480935250658 79.69241777938227 l 6.799322592270979 -25.818135367284487 a47.69844380403458,47.69844380403458 0 0,0 0.790019328643552,0.21532328108170892 l -7.241523321849224 25.697611592058635" fill="#ff2503" stroke="none" /><path d="M 105.69591212413111 79.78721728523813 l 6.816841366588359 -24.19056515287616 a46.13270317002882,46.13270317002882 0 0,0 0.7603987287655662,0.22134098777384362 l -7.23110010773553 24.069980470799802" fill="#ff0000" stroke="none" /><path d="M 106.38641147887787 79.99465700312896 l 12.060636852318696 -37.77977316202183 a60.658167146974066,60.658167146974066 0 0,0 0.9892401439905396,0.3251828841356432 l -12.70739973395698 37.567169356484165" fill="#c7ff1e" stroke="none" /><path d="M 107.06938296918511 80.22567764915836 l 9.095260324965425 -25.441061874091478 a48.017982708933715,48.017982708933715 0 0,0 0.7738002983041824,0.2841501877882412 l -9.530649774923733 25.281180837294514" fill="#ff2d04" stroke="none" /><line stroke="#e1ed5e" stroke-width="0.3" x1="143.13028292997686" x2="145.6673583964461" y1="26.7553504044142" y2="22.446841604673864" /><path d="M 143.63769802327073 25.89364864446614 a86.0,86.0 0 0,1 29.32050498858742,28.57503671076993" fill="none" id="id26" stroke="none" /><text fill="#e1ed5e" style="font-size:6.75px; font-family:Arial;" text-anchor="middle"><textPath startOffset="20.669276256404974" xlink:href="#id26">February</textPath></text><line stroke="#e1ed5e" stroke-width="0.3" x1="172.87174338648825" x2="177.1583165268699" y1="56.24261187166439" y2="53.66864786411523" /><path d="M 173.72905801456457 55.72781907015455 a86.0,86.0 0 0,1 12.242430191666344,42.057860355516425" fill="none" id="id27" stroke="none" /><text fill="#e1ed5e" style="font-size:6.75px; font-family:Arial;" text-anchor="middle"><textPath startOffset="22.145653131862474" xlink:href="#id27">March</textPath></text><line stroke="#e1ed5e" stroke-width="0.3" x1="184.99686870605535" x2="189.99668451229388" y1="99.2704041080226" y2="99.22748670261217" /><path d="M 185.99683186730306 99.26182062694052 a86.0,86.0 0 0,1 -10.086455211305974,41.156179273409016" fill="none" id="id28" stroke="none" /><text fill="#e1ed5e" style="font-size:6.75px; font-family:Arial;" text-anchor="middle"><textPath startOffset="21.40746469413373" xlink:href="#id28">April</textPath></text><line stroke="#e1ed5e" stroke-width="0.3" x1="174.33088141563837" x2="178.70328620479359" y1="141.23008692659167" y2="143.65538615756765" /><path d="M 175.20536237346943 141.71514677278685 a86.0,86.0 0 0,1 -30.301960400862466,31.631185727798858" fill="none" id="id29" stroke="none" /><text fill="#e1ed5e" style="font-size:6.75px; font-family:Arial;" text-anchor="middle"><textPath startOffset="22.145653131862474" xlink:href="#id29">May</textPath></text><line stroke="#e1ed5e" stroke-width="0.3" x1="143.1302829299769" x2="145.66735839644613" y1="173.24464959558577" y2="177.55315839532614" /><path d="M 143.63769802327073 174.10635135553383 a86.0,86.0 0 0,1 -40.68552437913181,11.842963189579606" fill="none" id="id30" stroke="none" /><text fill="#e1ed5e" style="font-size:6.75px; font-family:Arial;" text-anchor="middle"><textPath startOffset="21.407464694133747" xlink:href="#id30">June</textPath></text><line stroke="#e1ed5e" stroke-width="0.3" x1="101.45913802915013" x2="101.54496967792366" y1="184.9874750549273" y2="189.98673829345242" /><path d="M 101.47630435890484 185.9873277026323 a86.0,86.0 0 0,1 -42.54439059252881,-10.42667462771756" fill="none" id="id31" stroke="none" /><text fill="#e1ed5e" style="font-size:6.75px; font-family:Arial;" text-anchor="middle"><textPath startOffset="22.145653131862474" xlink:href="#id31">July</textPath></text><line stroke="#e1ed5e" stroke-width="0.3" x1="58.13341422392154" x2="55.67067388415222" y1="173.97424548756322" y2="178.32567169271397" /><path d="M 57.64086615596768 174.84453072859336 a86.0,86.0 0 0,1 -31.369924170532247,-30.572349798747897" fill="none" id="id32" stroke="none" /><text fill="#e1ed5e" style="font-size:6.75px; font-family:Arial;" text-anchor="middle"><textPath startOffset="22.145653131862474" xlink:href="#id32">August</textPath></text><line stroke="#e1ed5e" stroke-width="0.3" x1="26.387840678322732" x2="22.057713659400548" y1="142.50000000000003" y2="145.00000000000006" /><path d="M 25.521815274538298 143.00000000000003 a86.0,86.0 0 0,1 -11.493303480769221,-40.785679425670985" fill="none" id="id33" stroke="none" /><text fill="#e1ed5e" style="font-size:6.75px; font-family:Arial;" text-anchor="middle"><textPath startOffset="21.40746469413373" xlink:href="#id33">September</textPath></text><line stroke="#e1ed5e" stroke-width="0.3" x1="15.003131293944662" x2="10.003315487706104" y1="100.72959589197737" y2="100.7725132973878" /><path d="M 14.003168132696942 100.73817937305945 a86.0,86.0 0 0,1 10.791469493833604,-42.45332614584628" fill="none" id="id34" stroke="none" /><text fill="#e1ed5e" style="font-size:6.75px; font-family:Arial;" text-anchor="middle"><textPath startOffset="22.145653131862435" xlink:href="#id34">October</textPath></text><line stroke="#e1ed5e" stroke-width="0.3" x1="26.387840678322718" x2="22.05771365940052" y1="57.49999999999999" y2="54.99999999999999" /><path d="M 25.521815274538284 56.99999999999999 a86.0,86.0 0 0,1 29.574782752854787,-30.34633250058573" fill="none" id="id35" stroke="none" /><text fill="#e1ed5e" style="font-size:6.75px; font-family:Arial;" text-anchor="middle"><textPath startOffset="21.40746469413373" xlink:href="#id35">November</textPath></text><line stroke="#e1ed5e" stroke-width="0.3" x1="56.869717070023135" x2="54.33264160355391" y1="26.7553504044142" y2="22.446841604673864" /><path d="M 56.362301976729285 25.89364864446614 a86.0,86.0 0 0,1 42.16139366436587,-11.88097634709845" fill="none" id="id36" stroke="none" /><text fill="#e1ed5e" style="font-size:6.75px; font-family:Arial;" text-anchor="middle"><textPath startOffset="22.145653131862474" xlink:href="#id36">December</textPath></text></svg>