<?xml version="1.0" encoding="utf-8" ?>
<svg baseProfile="full" height="200mm" version="1.1" viewBox="0,0,200,200" width="200mm" xmlns="http://www.w3.org/2000/svg" xmlns:ev="http://www.w3.org/2001/xml-events" xmlns:xlink="http://www.w3.org/1999/xlink"><defs /><rect fill="#1a1a1a" height="200" width="200" x="0" y="0" /><text alignment-baseline="middle" fill="#e1ed5e" style="dominant-baseline: central; font-size:9.0px; font-family:Arial;" text-anchor="middle" x="100.0" y="100.0">2023</text><line stroke="#e1ed5e" stroke-width="0.3" x1="100.0" x2="100.0" y1="15.0" y2="10.0" /><path d="M 100.0 14.0 a86.0,86.0 0 0,1 42.46469731375804,11.215312516191453" fill="none" id="id13" stroke="none" /><text fill="#e1ed5e" style="font-size:6.75px; font-family:Arial;" text-anchor="middle"><textPath startOffset="22.20632615414155" xlink:href="#id13">January</textPath></text><path d="M 100.0 79.0 l 0.0 -27.07008438634078 a48.07008438634078,48.07008438634078 0 0,0 0.8274474829831119,0.007122101720529125 l -0.46596700371058347 27.06607366122881" fill="#d2ff1c" stroke="none" /><path d="M 100.36148047927253 79.00311137660856 l 0.2672862939583538 -15.525542502591042 a36.527843120108436,36.527843120108436 0 0,0 0.6285804560660755,0.016234378687202396 l -0.534493385219297 15.51864133176148" fill="#ff8f0d" stroke="none" /><path d="M 100.72285384407766 79.0124445844662 l 0.6205114439854971 -18.016115461397998 a39.02679812863452,39.02679812863452 0 0,0 0.6711850441260588,0.02890263987531276 l -0.9305373205008874 18.00276509499849" fill="#ffb210" stroke="none" /><path d="M 101.08401301168833 79.027996857942 l 0.3175398352982873 -6.143327018955521 a27.15152813606751,27.15152813606751 0 0,0 0.46653818016629667,0.028142857088136946 l -0.42324006430419586 6.13695089248708" fill="#ff0000" stroke="none" /><path d="M 101.44485096284872 79.0497635885617 l 1.4599242626491504 -21.168798188700737 a42.219080932184866,42.219080932184866 0 0,0 0.7245795697173686,0.05624131998675564 l -1.8240940217288601 21.140531606525517" fill="#ffdf14" stroke="none" /><path d="M 101.80526077348638 79.07773832637324 l 2.5293226040729357 -29.313853243060233 a50.42277119496305,50.42277119496305 0 0,0 0.8640899226450011,0.08205574998207708 l -3.0335376538081813 29.265971948562978" fill="#b5ff20" stroke="none" /><path d="M 102.16513564639614 79.11191278185805 l 2.790062844269193 -26.917055350410774 a48.06126973022605,48.06126973022605 0 0,0 0.8221527789855886,0.09237844417394517 l -3.252982326764507 26.865040952766226" fill="#d2ff1c" stroke="none" /><path d="M 102.52436894288641 79.15227682838746 l 1.8721014117385988 -15.460914337063922 a36.57384460670718,36.57384460670718 0 0,0 0.6243421244451083,0.08105752649192607 l -2.1379582646915534 15.42639848740786" fill="#ff8f0d" stroke="none" /><path d="M 102.88285421437855 79.19881850522331 l 1.8945839077713433 -13.670335296899585 a34.800996895632025,34.800996895632025 0 0,0 0.5926626667563841,0.0873430710998478 l -2.1296155549563833 13.635697741638769" fill="#ff750a" stroke="none" /><path d="M 103.2404852339499 79.25152402106235 l 2.297852718473156 -14.712902078020672 a35.891259673822745,35.891259673822745 0 0,0 0.6095887657399112,0.10058736950518173 l -2.5507706903519423 14.671168445575866" fill="#ff850c" stroke="none" /><path d="M 103.95276090670814 79.375362276772 l 2.8376194962602748 -14.806074915236051 a36.07554107822133,36.07554107822133 0 0,0 0.6088754073700094,0.12213467871598566 l -3.0920613130974095 14.755036280442859" fill="#ff880c" stroke="none" /><path d="M 104.307194497241 79.44645832069477 l 3.3142101753660245 -15.815110512654323 a37.15864194831883,37.15864194831883 0 0,0 0.6248973697439391,0.13657836130946552 l -3.5859502692634915 15.755718653248987" fill="#ff980e" stroke="none" /><path d="M 104.66035177308747 79.52364482259891 l 8.905548952913247 -39.12863068891801 a61.12927287831752,61.12927287831752 0 0,0 1.023991915799826,0.24234580261791724 l -9.577764555675596 38.96953897415922" fill="#3aff2e" stroke="none" /><path d="M 105.01212808612495 79.60689891045804 l 4.409471786144906 -17.941042675120187 a39.47496830046784,39.47496830046784 0 0,0 0.6584633578616328,0.16785697121717605 l -4.717644032691565 17.862482707734145" fill="#ffb911" stroke="none" /><path d="M 105.36241919743992 79.69619591428918 l 4.410824839749853 -16.700768833108583 a38.27342048882865,38.27342048882865 0 0,0 0.635524881480144,0.17371295720000315 l -4.697647610453707 16.622369335082286" fill="#ffa80f" stroke="none" /><path d="M 105.71112130821622 79.79150937346287 l 3.8081300412994157 -13.474860030292353 a35.00263215425648,35.00263215425648 0 0,0 0.57839313156931,0.16884881568905252 l -4.039513390592153 13.407312885684597" fill="#ff780b" stroke="none" /><path d="M 106.0581310904928 79.89281104454417 l 4.685164850216839 -15.550256923064843 a37.24072843338726,37.24072843338726 0 0,0 0.6121925802911019,0.1902112146972285 l -4.952142803218659 15.467305573485094" fill="#ff990e" stroke="none" /><path d="M 106.74666289553966 80.11325718540242 l 5.507390214395339 -16.233811362610094 a38.14257793712562,38.14257793712562 0 0,0 0.6199403933981006,0.21628503040788102 l -5.786012611856713 16.136605479030006" fill="#ffa60f" stroke="none" /><path d="M 107.08798089147638 80.2323363322302 l 9.573190439237223 -26.69866238746778 a49.36308425517031,49.36308425517031 0 0,0 0.7973728873205344,0.2936791637067639 l -10.031345652330334 26.529919955954693" fill="#c2ff1e" stroke="none" /><path d="M 107.4271985657038 80.35727306442388 l 9.41855549477347 -24.9092725978404 a47.63045341261861,47.63045341261861 0 0,0 0.7643935551786444,0.2965728238429184 l -9.84593221495178 24.74345707010693" fill="#d8ff1c" stroke="none" /><path d="M 107.76421540070413 80.48803036053334 l 5.547318202015043 -13.940765261144366 a36.00392199728914,36.00392199728914 0 0,0 0.5738615928844837,0.2340925525440664 l -5.786463664487914 13.84321182241672" fill="#ff870c" stroke="none" /><path d="M 108.09893153111575 80.62456947434976 l 5.54648089597595 -13.2690904780403 a35.38166236718989,35.38166236718989 0 0,0 0.5599000514760173,0.2397199820507113 l -5.774064705242282 13.171650968026796" fill="#ff7e0b" stroke="none" /><path d="M 108.76106565485865 80.91482961587045 l 6.6249836990548685 -14.43191361297737 a36.87987844869048,36.87987844869048 0 0,0 0.5746618949063764,0.26981146503329256 l -6.872423805260843 14.315737165304075" fill="#ff940d" stroke="none" /><path d="M 109.08828744355905 81.06846463323043 l 7.077586798007534 -14.743105960278637 a37.35394167286083,37.35394167286083 0 0,0 0.5772584458695121,0.28325821238226423 l -7.330316510887479 14.619092587761541" fill="#ff9b0e" stroke="none" /><path d="M 109.41281617654863 81.2277094730956 l 26.28320358663738 -52.417461942515594 a79.63784705522278,79.63784705522278 0 0,0 1.2201258133823158,0.6249958315581229 l -27.181589887608453 51.95727358564497" fill="#47feff" stroke="none" /><path d="M 110.05341064243156 81.56283822128135 l 8.052574887011156 -14.767786894176147 a37.82056753093437,37.82056753093437 0 0,0 0.5688860105069765,0.3165844489273174 l -8.305584986590167 14.626987047688651" fill="#ffa10e" stroke="none" /><line stroke="#e1ed5e" stroke-width="0.3" x1="143.23703022742887" x2="145.7803849466894" y1="26.81831364943548" y2="22.513508569990506" /><path d="M 143.74570117128098 25.957352633546492 a86.0,86.0 0 0,1 28.547481713284135,27.462654790039103" fill="none" id="id14" stroke="none" /><text fill="#e1ed5e" style="font-size:6.75px; font-family:Arial;" text-anchor="middle"><textPath startOffset="19.985693538727396" xlink:href="#id14">February</textPath></text><path d="M 110.68208982089419 81.91981866633111 l 7.705620842248984 -13.042300191471114 a36.148537449171435,36.148537449171435 0 0,0 0.5329980211912283,0.3211253440121512 l -7.92898092965785 12.907728238000347" fill="#ff890c" stroke="none" /><path d="M 110.99172775467656 82.1063720568725 l 8.790738921739988 -14.310599308999517 a37.794949936600936,37.794949936600936 0 0,0 0.5514118475058891,0.3452940483215676 l -9.035769921618142 14.157160919355006" fill="#ffa10e" stroke="none" /><path d="M 111.2981086023043 82.29822771554956 l 9.881683137943876 -15.482529939506856 a39.36726422106598,39.36726422106598 0 0,0 0.5680751982688437,0.369491910993725 l -10.146725361997 15.310139104353603" fill="#ffb711" stroke="none" /><path d="M 111.60114157652 82.49532879139004 l 16.21704767360069 -24.469496008502876 a50.355559442088236,50.355559442088236 0 0,0 0.7183947247324749,0.48506332498431787 l -16.635847092739706 24.18672077121989" fill="#b6ff1f" stroke="none" /><path d="M 111.90073688211348 82.69761687909136 l 15.138823787687869 -22.01021094485225 a47.71391718770495,47.71391718770495 0 0,0 0.6726954803697074,0.47126617313506564 l -15.515450407641227 21.74635992895325" fill="#d7ff1c" stroke="none" /><path d="M 112.19680574252982 82.90503203632743 l 9.022735168485692 -12.646210155838075 a36.53500502820165,36.53500502820165 0 0,0 0.5088015875016882,0.3696659916366152 l -9.23908207234117 12.489024929384785" fill="#ff8f0d" stroke="none" /><path d="M 112.77801427241765 83.33499621200491 l 11.730508743172932 -15.298853833812416 a40.278479296926236,40.278479296926236 0 0,0 0.5465740632051835,0.4266097259457788 l -11.992115361537547 15.094665718643414" fill="#ffc412" stroke="none" /><path d="M 113.06298171725822 83.55741782278167 l 13.733008557034163 -17.28595558249552 a43.07713261335316,43.07713261335316 0 0,0 0.5766112179619187,0.46624617096950866 l -14.028523173560572 17.047003314261882" fill="#ffea16" stroke="none" /><path d="M 113.34407831869373 83.78471172551755 l 17.682552017700093 -21.487259857719913 a48.827593896200426,48.827593896200426 0 0,0 0.6443904588929977,0.539658477645368 l -18.049800013552208 21.179700222680726" fill="#c9ff1d" stroke="none" /><path d="M 113.6212207817346 84.01681056812373 l 22.218533212093142 -26.07130674392427 a55.254580035853266,55.254580035853266 0 0,0 0.7185889743314393,0.6231532774468862 l -22.664015985071345 25.684988473057714" fill="#7bff26" stroke="none" /><path d="M 113.89432698308785 84.25364557470407 l 39.227127823946205 -44.45586019057197 a80.28820340168772,80.28820340168772 0 0,0 1.0284116447958216,0.9233181288399929 l -39.986550456338016 43.774043052962675" fill="#48f8ff" stroke="none" /><path d="M 114.42810811169701 84.74124197986012 l 12.678327014700205 -13.408239148185794 a39.45320711818461,39.45320711818461 0 0,0 0.48943912131032885,0.4708400469184288 l -12.907249379622952 13.188016014505063" fill="#ffb811" stroke="none" /><path d="M 114.68862486808459 84.99185889309783 l 14.446886491959935 -14.76114428504752 a41.65439202483495,41.65439202483495 0 0,0 0.508112571550405,0.505930574690524 l -14.698834863677662 14.510277859706877" fill="#ffd714" stroke="none" /><path d="M 114.94478906791727 85.2469230424477 l 14.423214557226371 -14.238193217116018 a41.26709807179398,41.26709807179398 0 0,0 0.4946858722828127,0.5098172755032475 l -14.666164693212293 13.987811746062658" fill="#ffd213" stroke="none" /><path d="M 115.4437574822437 85.77008943001954 l 22.893778553724893 -21.094375627369192 a52.13033535918849,52.13033535918849 0 0,0 0.6023693996059918,0.6651513361046776 l -23.25349159394692 20.697171503994966" fill="#a0ff22" stroke="none" /><path d="M 115.68641384162765 86.03803664274999 l 19.22739663125449 -17.113676199749705 a46.74044860303441,46.74044860303441 0 0,0 0.5297431936925519,0.6055880457610154 l -19.51913168852489 16.78017259778574" fill="#e3ff1b" stroke="none" /><path d="M 115.9244219780498 86.31012108654704 l 18.28610476005965 -15.720166189328134 a45.11442000787022,45.11442000787022 0 0,0 0.5011769222152652,0.5932353965641397 l -18.553992295762033 15.403071843134889" fill="#f9ff18" stroke="none" /><path d="M 116.15771136456269 86.58626213691792 l 15.322520670006885 -12.720382920065344 a40.91451182720476,40.91451182720476 0 0,0 0.4451917927844711,0.5457524978836495 l -15.539210954867764 12.454746252573594" fill="#ffcd13" stroke="none" /><path d="M 116.38621287248628 86.86637796730983 l 11.620662834388147 -9.314012616816854 a35.89263696384067,35.89263696384067 0 0,0 0.38224960922310564,0.48541818565776546 l -11.779266524205218 9.112602037206049" fill="#ff850c" stroke="none" /><path d="M 116.60985879189232 87.15038557335679 l 14.024658567088023 -10.849668098344411 a38.731507148791046,38.731507148791046 0 0,0 0.40340535642011177,0.5308341624045069 l -14.209339863732248 10.60664916005887" fill="#ffae10" stroke="none" /><path d="M 117.04232023915458 87.72973835380427 l 22.857021903017934 -16.456775560319464 a49.16502995059245,49.16502995059245 0 0,0 0.48857720465013194,0.6910578072289799 l -23.13691172747195 16.06089125275869" fill="#c5ff1e" stroke="none" /><path d="M 117.2510076193507 88.02491185347247 l 23.14075852642516 -16.063561575418277 a49.16971273665341,49.16971273665341 0 0,0 0.47665478777519543,0.6994320849485419 l -23.413837779869088 15.66285146719933" fill="#c4ff1e" stroke="none" /><path d="M 117.45458315368197 88.32363383020206 l 13.75158009653622 -9.1992162291536 a37.544834069345455,37.544834069345455 0 0,0 0.3547153049660262,0.540255745081514 l -13.90789203686017 8.961142420094413" fill="#ff9d0e" stroke="none" /><line stroke="#e1ed5e" stroke-width="0.3" x1="172.23445277983987" x2="176.4835382374775" y1="55.19839476539836" y2="52.563006222186495" /><path d="M 173.08426987136738 54.67131705675599 a86.0,86.0 0 0,1 12.851231095245387,41.99856678651699" fill="none" id="id15" stroke="none" /><text fill="#e1ed5e" style="font-size:6.75px; font-family:Arial;" text-anchor="middle"><textPath startOffset="22.20632615414155" xlink:href="#id15">March</textPath></text><path d="M 117.84615892207809 88.93136811851018 l 14.390616322872852 -8.92541836711888 a37.933780770407935,37.933780770407935 0 0,0 0.3393884818111183,0.5578654279047369 l -14.542120602970193 8.67638516600706" fill="#ffa30f" stroke="none" /><path d="M 118.03404312379186 89.2402003453031 l 15.624115879716612 -9.321944917927624 a39.193725678807226,39.193725678807226 0 0,0 0.34068740210143633,0.5823452056353169 l -15.782262956288376 9.051620299938412" fill="#ffb510" stroke="none" /><path d="M 118.21658344932153 89.55222093294921 l 15.860159937677189 -9.096296649584579 a39.28352498797604,39.28352498797604 0 0,0 0.33137029879608204,0.5894707862666584 l -16.014387877765703 8.821942353383127" fill="#ffb610" stroke="none" /><path d="M 118.3937258080291 89.86733742301442 l 14.684982571453254 -8.089604841260476 a37.76575138822089,37.76575138822089 0 0,0 0.3087654114422165,0.5720954140634125 l -14.822056082113935 7.835628443864604" fill="#ffa10e" stroke="none" /><path d="M 118.56541770881063 90.18545643968196 l 20.39533424682698 -10.781922579513752 a44.06988325827467,44.06988325827467 0 0,0 0.34876185139334126,0.6736968882242058 l -20.577905531380438 10.429252969029202" fill="#fff817" stroke="none" /><path d="M 118.89224826269711 90.83032412892265 l 18.680700679291192 -9.066997632671372 a41.76485068427266,41.76485068427266 0 0,0 0.30834751828661894,0.6494585119328383 l -18.834006391419567 8.744096705097993" fill="#ffd814" stroke="none" /><path d="M 119.04729006885535 91.15688171328212 l 19.044625063904963 -8.841881000262653 a41.99706178129509,41.99706178129509 0 0,0 0.29877446307012656,0.6583099253191665 l -19.194001843938437 8.512749066101424" fill="#ffdc14" stroke="none" /><path d="M 119.196687751892 91.48605970444005 l 16.0383957369902 -7.113203356023721 a38.54502208036378,38.54502208036378 0 0,0 0.2637751315365369,0.6088293712373786 l -16.158461578369415 6.83607484019974" fill="#ffac0f" stroke="none" /><path d="M 119.34039704204932 91.81776055985345 l 18.446481878167106 -7.80405548176349 a41.02937781469984,41.02937781469984 0 0,0 0.26957925423719814,0.6528075469700143 l -18.5780828192905 7.485373364340173" fill="#ffce13" stroke="none" /><path d="M 119.47837535516314 92.15188598940014 l 28.617396397582983 -11.53035535662516 a51.852949149578066,51.852949149578066 0 0,0 0.3264425873919246,0.8307607781173253 l -28.811632534856606 11.03604557361205" fill="#a3ff21" stroke="none" /><path d="M 119.61058180528143 92.48833698450437 l 18.07833093360822 -6.924747628818589 a40.35918849197674,40.35918849197674 0 0,0 0.24291505891351764,0.6508915881192626 l -18.194850581023363 6.612532903669993" fill="#ffc512" stroke="none" /><path d="M 119.7369772167798 92.82701384747503 l 15.112754733455304 -5.492410475978028 a37.07986095929343,37.07986095929343 0 0,0 0.21285061917349726,0.60175736317611 l -15.205058433438612 5.231455486375304" fill="#ff970d" stroke="none" /><path d="M 119.97218684219823 93.5106431181261 l 22.867896324456513 -7.430229927228006 a45.04472913296314,45.04472913296314 0 0,0 0.23325558468363172,0.7394839462836225 l -22.99240739290835 7.035495814517964" fill="#faff18" stroke="none" /><path d="M 120.08093135843002 93.85539295169968 l 19.026355403963212 -5.821915101043374 a40.89715797297888,40.89715797297888 0 0,0 0.20018984116730268,0.6749406247152064 l -19.123751142242217 5.493545089581637" fill="#ffcd13" stroke="none" /><path d="M 120.18372546131832 94.20196356495316 l 17.33350561424474 -4.9792738853432565 a39.034510952734905,39.034510952734905 0 0,0 0.17995509831890177,0.6473942353050803 l -17.416647483130006 4.680168346619224" fill="#ffb310" stroke="none" /><path d="M 120.28053869075195 94.5502522615342 l 56.5687900596085 -15.201057545659674 a79.57559354641248,79.57559354641248 0 0,0 0.34408360893391055,1.3258945057600742 l -56.82207000041272 14.22506661435075" fill="#47ffff" stroke="none" /><path d="M 120.37134235888165 94.90015583598534 l 14.569460068763883 -3.647377506869851 a36.01907218748633,36.01907218748633 0 0,0 0.14539218507317225,0.6027444718385065 l -14.630085054097876 3.3960478033719386" fill="#ff870c" stroke="none" /><path d="M 120.53481517161879 95.60439243477599 l 14.683142555663725 -3.143019888883192 a36.01576669144331,36.01576669144331 0 0,0 0.12454715882351504,0.6073361784466196 l -14.735069010402237 2.889808054273161" fill="#ff870c" stroke="none" /><path d="M 120.6074358757038 95.95851677861258 l 16.712917923469323 -3.2776992623212364 a38.03129290367714,38.03129290367714 0 0,0 0.12045828172667575,0.6434929576723312 l -16.766861929105858 2.989528227186342" fill="#ffa40f" stroke="none" /><path d="M 120.67395015179393 96.31383870115 l 16.728354199821332 -2.9826623065300084 a37.992177867168024,37.992177867168024 0 0,0 0.10925128086623145,0.6448072440329126 l -16.777217342207784 2.694269274181258" fill="#ffa40f" stroke="none" /><path d="M 120.73433829027371 96.67025291283417 l 22.448404723985423 -3.6050106444088206 a43.736028157929255,43.736028157929255 0 0,0 0.11297246533049976,0.7443473944804192 l -22.50713308275522 3.2180641375363193" fill="#fff316" stroke="none" /><path d="M 120.78858239683441 97.02765380044208 l 36.71346729258793 -5.249282173099716 a58.086839228717594,58.086839228717594 0 0,0 0.1330022682000464,0.9910213839565825 l -36.79838555984581 4.616542447078469" fill="#5bff2a" stroke="none" /><path d="M 120.83666639777658 97.38593545837742 l 30.902149223010067 -3.876829959346093 a52.14438371737134,52.14438371737134 0 0,0 0.10406441497335424,0.8915603564244654 l -30.96430399098701 3.344325864596775" fill="#a0ff22" stroke="none" /><path d="M 120.87857604477298 97.74499172005257 l 11.530276008530882 -1.2453372209655902 a32.597332866949415,32.597332866949415 0 0,0 0.055450972623837635,0.5583837269530599 l -11.550004106836948 1.0466779633080951" fill="#ff5507" stroke="none" /><path d="M 120.94382443527127 98.46500227214037 l 18.08928858071189 -1.32578541019604 a39.13780770407941,39.13780770407941 0 0,0 0.04346050214485549,0.672314732107351 l -18.10942967386116 1.0142116138356538" fill="#ffb410" stroke="none" /><path d="M 120.96714384426684 98.82574320788733 l 13.824508580419543 -0.774236263114889 a34.84617200822002,34.84617200822002 0 0,0 0.0283853461874086,0.5991697947082272 l -13.835787534840449 0.5361553617836621" fill="#ff760a" stroke="none" /><path d="M 120.98425023603335 99.18683210126433 l 20.277496357461512 -0.7857802360888191 a41.29271566612741,41.29271566612741 0 0,0 0.02140989071090319,0.7104900411458689 l -20.28801794262806 0.4366200475179511" fill="#ffd213" stroke="none" /><line stroke="#e1ed5e" stroke-width="0.3" x1="184.98032266829074" x2="189.97916517819016" y1="98.17113171792111" y2="98.06355123074" /><path d="M 185.9800911702706 98.14961562048488 a86.0,86.0 0 0,1 -9.607161424134198,41.387399972396054" fill="none" id="id16" stroke="none" /><text fill="#e1ed5e" style="font-size:6.75px; font-family:Arial;" text-anchor="middle"><textPath startOffset="21.466115282336823" xlink:href="#id16">April</textPath></text><path d="M 120.99513854157772 99.54816195383933 l 32.85673546130759 -0.7071124167461444 a53.86434349175812,53.86434349175812 0 0,0 0.011970690842140943,0.9271431978879738 l -32.86403915926745 0.1414329607977078" fill="#8bff24" stroke="none" /><path d="M 120.99980553446 99.90962569577887 l 26.460526248687348 -0.1138749425620127 a47.460771282410036,47.460771282410036 0 0,0 -0.0035159452631582304,0.8169818559873324 l -26.45856600613469 -0.3416163916290044" fill="#daff1c" stroke="none" /><path d="M 120.9904718944345 100.63252640178507 l 14.871562569639602 0.4481393276151067 a35.87831314765424,35.87831314765424 0 0,0 -0.02391523147446637,0.6171458594137734 l -14.861645205313932 -0.7040624340428863" fill="#ff850c" stroke="none" /><path d="M 120.9764740272857 100.99374915477107 l 13.860376494038173 0.6566278683368142 a34.87592147260723,34.87592147260723 0 0,0 -0.033569982815303094,0.5994145942061277 l -13.84702016033534 -0.8951141788783652" fill="#ff770a" stroke="none" /><path d="M 120.95626037817324 101.35467743843564 l 19.48709558912321 1.2597060858586782 a40.52776879017095,40.52776879017095 0 0,0 -0.050994434337731834,0.695778541271639 l -19.462524596121142 -1.5949577636270873" fill="#ffc712" stroke="none" /><path d="M 120.89721153311464 102.0752229133903 l 62.69163459934395 6.2256687401709 a84.0,84.0 0 0,0 -0.15527079399579247,1.4376147124608343 l -62.575181503847105 -7.303879774516526" fill="#4dd2ff" stroke="none" /><path d="M 120.8583938346157 102.4346265915055 l 20.268602251700834 2.3657851321584484 a41.406204363604566,41.406204363604566 0 0,0 -0.08872460496089414,0.7072223984558454 l -20.22487613749309 -2.714325284901689" fill="#ffd413" stroke="none" /><path d="M 120.81339534386255 102.79330883721812 l 9.602318320593767 1.2887008668965347 a30.6884089021031,30.6884089021031 0 0,0 -0.0747715030603183,0.5229517182540148 l -9.578712766516848 -1.4537980571309588" fill="#ff3705" stroke="none" /><path d="M 120.70491114924044 103.5080841355445 l 17.02309252985515 2.88426453083725 a38.265707664728254,38.265707664728254 0 0,0 -0.11562358513026584,0.6484784689429025 l -16.970922502385694 -3.176861750513371" fill="#ffa80f" stroke="none" /><path d="M 120.64145759157962 103.86396538481128 l 18.15818311458993 3.3991102951209204 a39.473591010449915,39.473591010449915 0 0,0 -0.1307704939184868,0.6667959311567274 l -18.096982687695782 -3.711169953345593" fill="#ffb911" stroke="none" /><path d="M 120.49622156327973 104.57218783832717 l 36.59880815396136 8.164267010003703 a58.49837348607407,58.49837348607407 0 0,0 -0.22769637822546895,0.9809100380274464 l -36.45285120980533 -8.793045705379715" fill="#56ff2a" stroke="none" /><path d="M 120.41448212921028 104.9243191809786 l 30.077331053086766 7.255162157918919 a51.939993878711036,51.939993878711036 0 0,0 -0.2171306570540298,0.8673290416730299 l -29.947989081737678 -7.771819038989345" fill="#a2ff22" stroke="none" /><path d="M 120.32669344350535 105.2749913415812 l 13.507550389682452 3.5053517951446658 a34.95497791963622,34.95497791963622 0 0,0 -0.1561520819081798,0.5810999867806437 l -13.445210231432494 -3.7373427151008576" fill="#ff780b" stroke="none" /><path d="M 120.23288151984713 105.62410040840565 l 21.08913642881744 5.862112160637561 a42.88871933890079,42.88871933890079 0 0,0 -0.20383857069275438,0.7095888056896736 l -20.985105221238584 -6.224258441831816" fill="#ffe815" stroke="none" /><path d="M 120.13307415673323 105.97154293290107 l 17.094582964096436 5.070315407148174 a38.830672030081764,38.830672030081764 0 0,0 -0.19558311935131376,0.6391769504036439 l -17.004773072238986 -5.363819330103874" fill="#ffb010" stroke="none" /><path d="M 119.9155931802556 106.66101706037122 l 20.969236123201224 7.0134210061125195 a43.11101394779415,43.11101394779415 0 0,0 -0.24144050131404085,0.7017391126120925 l -20.845404790943952 -7.3733328218139125" fill="#ffeb16" stroke="none" /><path d="M 119.79798401119884 107.00284435728193 l 37.28800663152459 13.189328099576088 a60.55191290280268,60.55191290280268 0 0,0 -0.3560329615819384,0.9796498002009564 l -37.05544940893742 -13.829225696783174" fill="#40ff2d" stroke="none" /><path d="M 119.67450827220406 107.3425965602758 l 16.833485535122993 6.28231675615849 a38.96757465786367,38.96757465786367 0 0,0 -0.23993953874423196,0.6264064220078472 l -16.722851716785257 -6.571146744999481" fill="#ffb210" stroke="none" /><path d="M 119.54520255179757 107.68017299344265 l 17.08562284543018 6.713695537606556 a39.35734773293691,39.35734773293691 0 0,0 -0.2531940375467866,0.6284068368992359 l -16.967526193626 -7.006801742348605" fill="#ffb711" stroke="none" /><path d="M 119.41010516605496 108.01547362559984 l 15.013955248685164 6.200067505158791 a37.2437584714267,37.2437584714267 0 0,0 -0.24979746844814682,0.5904474264321227 l -14.90500679904471 -6.457589457257077" fill="#ff990e" stroke="none" /><path d="M 119.12269723197855 108.67885076344098 l 19.473947509935524 8.838265970721887 a42.38573302435398,42.38573302435398 0 0,0 -0.30724687857889993,0.6617824424934586 l -19.318926014516794 -9.172168480494175" fill="#ffe115" stroke="none" /><path d="M 118.97047184881838 109.00673069616215 l 19.70487155914778 9.355406283516531 a42.81296838791483,42.81296838791483 0 0,0 -0.32180417308045434,0.6630119117933067 l -19.54091412945261 -9.693207151275114" fill="#ffe715" stroke="none" /><path d="M 118.81262510543309 109.33194174019688 l 33.88320677629196 16.807654956993918 a58.82286301429758,58.82286301429758 0 0,0 -0.45775764384650414,0.9031992587880767 l -33.588870462659195 -17.38840842748469" fill="#53ff2b" stroke="none" /><line stroke="#e1ed5e" stroke-width="0.3" x1="174.80103733775053" x2="179.2010983576182" y1="140.37084112569926" y2="142.7455964860345" /><path d="M 175.68104954172406 140.8457921977663 a86.0,86.0 0 0,1 -30.038265399797805,32.042727171017184" fill="none" id="id17" stroke="none" /><text fill="#e1ed5e" style="font-size:6.75px; font-family:Arial;" text-anchor="middle"><textPath startOffset="22.206326154141568" xlink:href="#id17">May</textPath></text><path d="M 118.48025628344425 109.97397251340804 l 22.255089621705213 12.011286465176156 a46.28952385116523,46.28952385116523 0 0,0 -0.3844754740428679,0.6979346638384231 l -22.045037738210834 -12.392591647412383" fill="#e9ff1a" stroke="none" /><path d="M 118.30583269289576 110.29060199501025 l 21.287704045148974 11.966857415954266 a45.420729307857115,45.420729307857115 0 0,0 -0.3889917856819626,0.6782399665516942 l -21.078560263314632 -12.331517228364275" fill="#f5ff19" stroke="none" /><path d="M 118.12598468904814 110.60418214915192 l 13.669501609821756 7.997021262312866 a36.83690700013117,36.83690700013117 0 0,0 -0.32489998364524475,0.544551060801573 l -13.529820750478285 -8.231134417000543" fill="#ff930d" stroke="none" /><path d="M 117.94076556474637 110.91462005526583 l 12.878427644581498 7.834846519930333 a36.074439246206985,36.074439246206985 0 0,0 -0.32730744193105854,0.5277238133512068 l -12.741655562982476 -8.055366664646813" fill="#ff880c" stroke="none" /><path d="M 117.55443506779139 111.5257021239791 l 31.853344083375287 20.913925975960584 a59.105482925976126,59.105482925976126 0 0,0 -0.5657151676819452,0.8456674184426086 l -31.48862581028262 -21.459130308609" fill="#50ff2b" stroke="none" /><path d="M 117.35343817320211 111.8261652097733 l 25.516178027652085 17.38897697765673 a51.878015827904335,51.878015827904335 0 0,0 -0.5092422438567876,0.7336014333569663 l -25.21307487663316 -17.825619673200713" fill="#a3ff21" stroke="none" /><path d="M 117.14729908036423 112.12312394758627 l 14.374761281440406 10.162942391984242 a38.60452100913821,38.60452100913821 0 0,0 -0.3882883306090751,0.5392985305589016 l -14.197693158455728 -10.408874527994275" fill="#ffac10" stroke="none" /><path d="M 116.71984013943494 112.70617746262583 l 16.016570224952115 12.171730227303973 a41.11669800183638,41.11669800183638 0 0,0 -0.4330825379290322,0.5598175603868892 l -15.804680869805017 -12.445625781804114" fill="#ffd013" stroke="none" /><path d="M 116.498646956653 112.99209946851258 l 21.97030264141593 17.30083430602155 a48.96449652398233,48.96449652398233 0 0,0 -0.5271426480630844,0.6576915053461871 l -21.66924208129799 -17.676453644945987" fill="#c7ff1e" stroke="none" /><path d="M 116.27256486870786 113.27417163493432 l 13.888421734671162 11.329332243062456 a38.92322591928643,38.92322591928643 0 0,0 -0.4279775505624071,0.5155265298222397 l -13.691348184215212 -11.566720029998466" fill="#ffb110" stroke="none" /><path d="M 116.0416608686014 113.55231037782055 l 28.765150724252795 24.301364669969576 a58.65621092212846,58.65621092212846 0 0,0 -0.6582274030474223,0.7656671757222437 l -28.342580811634594 -24.792908944853348" fill="#55ff2b" stroke="none" /><path d="M 115.80600337817218 113.82643327865902 l 18.694567600101525 16.35322892269781 a45.83777272528529,45.83777272528529 0 0,0 -0.5246049060168139,0.5893991732083155 l -18.410303844436374 -16.67260226564699" fill="#efff19" stroke="none" /><path d="M 115.32070863581623 114.36230785411682 l 13.417460095040537 12.578118746726824 a39.39122906737791,39.39122906737791 0 0,0 -0.46799302787815666,0.49068881871877834 l -13.198960515783417 -12.80721468202811" fill="#ffb811" stroke="none" /><path d="M 115.07121518719521 114.62390073753431 l 11.448812274968773 11.109010931915856 a36.95259936163701,36.95259936163701 0 0,0 -0.446879001735931,0.4526860694240545 l -11.255892648177307 -11.304437495320574" fill="#ff950d" stroke="none" /><path d="M 114.81725581225074 114.88116024355365 l 12.117678913817455 12.16994050594429 a38.173980149534344,38.173980149534344 0 0,0 -0.4696309328398897,0.45963271199264466 l -11.906398028601771 -12.376723320859506" fill="#ffa60f" stroke="none" /><path d="M 114.29624159901734 115.38237550388516 l 41.362650544074846 44.50511122788191 a81.75832276682262,81.75832276682262 0 0,0 -1.0391111038713576,0.94920335630001 l -40.590439890736626 -45.2105073507685" fill="#4ae8ff" stroke="none" /><path d="M 114.0293411484842 115.62618273729858 l 27.505078152571265 30.635749239171854 a62.17133050588081,62.17133050588081 0 0,0 -0.8024768839805209,0.7080925477253919 l -26.973658915684158 -31.104664928669532" fill="#2fff30" stroke="none" /><path d="M 113.75828350139079 115.86535959552629 l 15.840584158994927 18.26656383845026 a45.17832626470202,45.17832626470202 0 0,0 -0.5919103459945457,0.5044388380772697 l -15.523808336423334 -18.536527066750477" fill="#f8ff18" stroke="none" /><path d="M 113.20401910651253 116.32954008644616 l 11.639927962121652 14.395213209519051 a39.512430588955446,39.512430588955446 0 0,0 -0.5325570201299801,0.4230955054610736 l -11.390413449274321 -14.593442628985251" fill="#ffb911" stroke="none" /><path d="M 112.92097659922987 116.55440617244103 l 13.61948105759584 17.44933283903218 a43.13525425210966,43.13525425210966 0 0,0 -0.5892507254313871,0.4518123293208436 l -13.31710160367096 -17.681184510180397" fill="#ffeb16" stroke="none" /><path d="M 112.34349029814194 116.9893568818739 l 26.632762834572148 36.6568532577017 a66.31036246775392,66.31036246775392 0 0,0 -0.9292060740330942,0.6629638618711738 l -25.997829432690168 -37.10986138141709" fill="#35ff66" stroke="none" /><path d="M 112.04921762599082 117.19931262002967 l 21.387664215613622 30.52921230861339 a58.275527961173545,58.275527961173545 0 0,0 -0.826522133247724,0.5684894598789713 l -20.858985197743014 -30.892842557857453" fill="#59ff2a" stroke="none" /><path d="M 111.7513745106137 117.40417183066458 l 15.365933096039148 22.757451879388256 a48.45930654540685,48.45930654540685 0 0,0 -0.6953340544593879,0.4608294958885797 l -14.971924342839797 -23.018579396368153" fill="#cdff1d" stroke="none" /><path d="M 111.45004920935366 117.60387380957326 l 8.136138329357358 12.508902785346546 a35.9221109702243,35.9221109702243 0 0,0 -0.5212438534055686,0.33268248904279024 l -7.919612673904858 -12.647099703213145" fill="#ff860c" stroke="none" /><path d="M 111.1453310114006 117.79835938074945 l 11.83424511444887 18.89850981827144 a43.29804993222858,43.29804993222858 0 0,0 -0.6350809514998045,0.3901185910008766 l -11.507184963016757 -19.099416876100694" fill="#ffed16" stroke="none" /><line stroke="#e1ed5e" stroke-width="0.3" x1="143.8653032363475" x2="146.44561519142675" y1="172.8068346515853" y2="177.08958963109032" /><path d="M 144.38136562736335 173.6633856474863 a86.0,86.0 0 0,1 -40.68145358897372,12.25698825130547" fill="none" id="id18" stroke="none" /><text fill="#e1ed5e" style="font-size:6.75px; font-family:Arial;" text-anchor="middle"><textPath startOffset="21.466115282336833" xlink:href="#id18">June</textPath></text><path d="M 110.5260780823613 118.17145234162733 l 8.995744374536557 15.529596009103825 a38.94691530759477,38.94691530759477 0 0,0 -0.5830005167408592,0.3310429087843043 l -8.727095090874498 -15.682142083682757" fill="#ffb110" stroke="none" /><path d="M 110.21172684928248 118.3499491758327 l 20.764707812110807 37.3131144836705 a63.70177517380088,63.70177517380088 0 0,0 -0.9627376325541165,0.5249613187296959 l -20.119347367688043 -37.665016454159975" fill="#32ff44" stroke="none" /><path d="M 109.89434966115114 118.52300852407294 l 16.99984334352519 31.82505712289396 a57.08086659962398,57.08086659962398 0 0,0 -0.8706438506443361,0.4554797134875285 l -16.44950859035436 -32.11296625532621" fill="#66ff29" stroke="none" /><path d="M 109.57404056367764 118.69057910512821 l 6.843779212428531 13.360523793184388 a36.01135936338595,36.01135936338595 0 0,0 -0.5541395265385716,0.27785706235430696 l -6.612785778207199 -13.476348696447996" fill="#ff870c" stroke="none" /><path d="M 109.2508944713604 118.85261126421891 l 8.978638030073498 18.297773581478946 a41.38196405928906,41.38196405928906 0 0,0 -0.6421837076281891,0.30828720510117524 l -8.662341654445076 -18.449615063079683" fill="#ffd313" stroke="none" /><path d="M 108.2653958097858 119.30500536409082 l 11.536607529930881 26.94538475520362 a50.311210703510994,50.311210703510994 0 0,0 -0.7990583179456064,0.33400644170681193 l -11.071077752487813 -27.1399762399304" fill="#b6ff1f" stroke="none" /><path d="M 107.93186726928326 119.44442032107085 l 13.85255481396766 33.958573584124025 a57.67530497136111,57.67530497136111 0 0,0 -0.9224723510827605,0.36707078615546446 l -13.265961386843035 -34.19199121468556" fill="#5fff29" stroke="none" /><path d="M 107.59598834532513 119.57807347666477 l 5.534333950956464 14.264318454741966 a36.300314809146954,36.300314809146954 0 0,0 -0.5844865444166375,0.22100279857283903 l -5.2879771857795514 -14.357469503421436" fill="#ff8b0c" stroke="none" /><path d="M 107.2578585660854 119.70592522655815 l 4.969908380708176 13.493875919643758 a35.380009619168376,35.380009619168376 0 0,0 -0.5732916770540393,0.2055619986506951 l -4.736897143024402 -13.577425459334412" fill="#ff7e0b" stroke="none" /><path d="M 106.2309692047433 120.05430185196036 l 6.800667936938608 21.88787058977831 a43.92003410432426,43.92003410432426 0 0,0 -0.7238963298545004,0.21810402597301903 l -6.422896632643862 -22.001689984857055" fill="#fff617" stroke="none" /><path d="M 105.88484417918355 120.15858648285463 l 9.437853267035246 32.32945095963738 a54.678872808359934,54.678872808359934 0 0,0 -0.905765505390524,0.25597837927045264 l -8.879956593540115 -32.48711813224635" fill="#82ff25" stroke="none" /><path d="M 105.53697534728816 120.25689768951611 l 6.988993931540276 25.569074475507577 a47.507048227012376,47.507048227012376 0 0,0 -0.7906746375788539,0.20882435811452743 l -6.547828851149924 -25.68559018292569" fill="#daff1c" stroke="none" /><path d="M 104.83641907484287 120.43548508189849 l 5.064124730904727 21.39761749133352 a42.98871059420227,42.98871059420227 0 0,0 -0.721554966097043,0.16422356110240519 l -4.695049615414821 -21.481617786013608" fill="#ffe915" stroke="none" /><path d="M 104.48393922423573 120.51570834832081 l 3.819690416329075 17.476520229963693 a38.889069126841854,38.889069126841854 0 0,0 -0.6552040340066576,0.13730437575559212 l -3.518294920893039 -17.539680586445826" fill="#ffb010" stroke="none" /><path d="M 103.7750983002368 120.6578951692458 l 4.071134275991028 22.27784772864602 a43.64677976476761,43.64677976476761 0 0,0 -0.7402307383407096,0.12869860219119017 l -3.6870545661782685 -22.344624909358217" fill="#fff216" stroke="none" /><path d="M 103.06178313531738 120.77559828337769 l 5.309598633917658 36.02805404204754 a57.41720082200166,57.41720082200166 0 0,0 -0.9790218089734671,0.13568350185668235 l -4.688648233757361 -36.11411210939683" fill="#62ff29" stroke="none" /><path d="M 102.70371172650421 120.8252237178851 l 2.190549108622081 16.872610642944448 a38.01421450745485,38.01421450745485 0 0,0 -0.6496313867127584,0.07866131392107358 l -1.8997902988579423 -16.907817485590872" fill="#ffa40f" stroke="none" /><path d="M 102.34483914955558 120.86867818915974 l 1.6422588634257929 14.615830570136785 a35.70780464343491,35.70780464343491 0 0,0 -0.6113982188835378,0.06337392524377246 l -1.3904280479366522 -14.641933863836316" fill="#ff830c" stroke="none" /><path d="M 101.26447882468166 120.96189622390904 l 1.351761091330473 22.408817896275135 a43.44955183420051,43.44955183420051 0 0,0 -0.7469431730587318,0.03860843015818603 l -0.9658298498582616 -22.42876613319552" fill="#ffef16" stroke="none" /><line stroke="#e1ed5e" stroke-width="0.3" x1="102.19456741930631" x2="102.32365962044197" y1="184.97166512339345" y2="189.96999836594603" /><path d="M 102.22038585953345 185.97133177190398 a86.0,86.0 0 0,1 -42.740103519485714,-10.115201625700543" fill="none" id="id19" stroke="none" /><text fill="#e1ed5e" style="font-size:6.75px; font-family:Arial;" text-anchor="middle"><textPath startOffset="22.20632615414155" xlink:href="#id19">July</textPath></text><path d="M 100.54218724476979 120.99299961872073 l 0.7968097160171793 30.851751356939168 a51.86203926369638,51.86203926369638 0 0,0 -0.8926205502032881,0.015367272269879264 l -0.26562947592122316 -30.860896106488205" fill="#a3ff21" stroke="none" /><path d="M 100.18074693466247 120.99922214144158 l 0.24165764797702974 28.07584339687189 a49.07688338944514,49.07688338944514 0 0,0 -0.844809165278951,0.0 l 0.2416576479770104 -28.07584339687189" fill="#c6ff1e" stroke="none" /><path d="M 99.81925306533755 120.99922214144158 l -0.18960765186517375 22.02866238738553 a43.02947837873289,43.02947837873289 0 0,0 -0.7405994289983788,-0.01275009080369398 l 0.5687667707562205 -22.02213481930268" fill="#ffea16" stroke="none" /><path d="M 99.45781275523022 120.99299961872073 l -0.7483279209807068 28.97458011299506 a49.984242053255215,49.984242053255215 0 0,0 -0.8599185424195029,-0.029617333304170216 l 1.2469668150748527 -28.957405981264795" fill="#baff1f" stroke="none" /><path d="M 99.09653310690486 120.98055641714683 l -0.9468092863050528 21.987065380501882 a43.00744173844606,43.00744173844606 0 0,0 -0.7393428387900357,-0.03821557969060701 l 1.3251401935085774 -21.96750999404907" fill="#ffe915" stroke="none" /><path d="M 98.73552117531835 120.96189622390904 l -1.3491902258087185 22.366199376122466 a43.40685584364479,43.40685584364479 0 0,0 -0.745434697843763,-0.05140954115116226 l 1.7339876844314115 -22.33966149045502" fill="#ffef16" stroke="none" /><path d="M 98.01472825383883 120.90594882070398 l -3.1746206108534323 33.43041381815226 a54.58080975908355,54.58080975908355 0 0,0 -0.9345466685827506,-0.09686958332938198 l 3.7495998760417764 -33.37081486636712" fill="#83ff25" stroke="none" /><path d="M 97.65516085044442 120.86867818915974 l -2.540466257301943 22.609726890691622 a43.7520047221372,43.7520047221372 0 0,0 -0.747685461014341,-0.09053429678126304 l 2.9292791413676733 -22.562647065185008" fill="#fff316" stroke="none" /><path d="M 97.2962882734958 120.8252237178851 l -2.401315915372291 18.49603294046608 a39.651261422762445,39.651261422762445 0 0,0 -0.6760944304222766,-0.09370052747004283 l 2.7193389369813987 -18.451957847503433" fill="#ffbb11" stroke="none" /><path d="M 96.93821686468263 120.77559828337769 l -3.239310598731483 21.980203280255274 a43.21761619518167,43.21761619518167 0 0,0 -0.7350372650119346,-0.11479770399001753 l 3.617183727351935 -21.92118726891815" fill="#ffec16" stroke="none" /><path d="M 96.58105272829116 120.7198165907248 l -3.577180654031604 21.678756989539114 a42.97190765598356,42.97190765598356 0 0,0 -0.7287851956898398,-0.12670864789155045 l 3.9498148211934936 -21.613969763126555" fill="#ffe915" stroke="none" /><path d="M 96.22490169976321 120.6578951692458 l -4.935225903018235 27.00628466673363 a48.45352192733155,48.45352192733155 0 0,0 -0.8191699748696762,-0.15699587532474146 l 5.399363492459607 -26.91733159306042" fill="#ceff1d" stroke="none" /><path d="M 95.51606077576429 120.51570834832081 l -5.134758368513309 23.493450704714757 a45.04803462900617,45.04803462900617 0 0,0 -0.7561202150560592,-0.1720904992306836 l 5.538398732962231 -23.401583471906388" fill="#f9ff18" stroke="none" /><path d="M 95.16358092515715 120.4354850818985 l -8.910400609816614 37.64941704138062 a59.68945389357702,59.68945389357702 0 0,0 -0.9977993678481807,-0.24523480827907385 l 9.557153262408006 -37.49046097478752" fill="#49ff2c" stroke="none" /><path d="M 94.81253420990036 120.34920634021253 l -3.7237208521254357 14.607279746860181 a36.074439246206985,36.074439246206985 0 0,0 -0.6003981565126494,-0.1585706100689184 l 3.9746094514495742 -14.541017787487682" fill="#ff880c" stroke="none" /><path d="M 94.11515582081647 120.15858648285463 l -8.393371260277329 28.75156848358247 a50.951650561846876,50.951650561846876 0 0,0 -0.8397924453824244,-0.25302257487125007 l 8.8870386801 -28.602830539605495" fill="#aeff20" stroke="none" /><path d="M 93.76903079525671 120.05430185196036 l -7.663838752879657 24.66597581288031 a46.82914608018888,46.82914608018888 0 0,0 -0.7677274010965376,-0.24580206979885622 l 8.087287499067134 -24.530400896421746" fill="#e2ff1b" stroke="none" /><path d="M 93.42475214034765 119.94407469862007 l -4.974171699659788 15.087682481223144 a36.88648944077653,36.88648944077653 0 0,0 -0.6013029419652014,-0.20399460511741477 l 5.233144374562215 -14.999824889207607" fill="#ff940d" stroke="none" /><path d="M 92.40401165467489 119.57807347666478 l -6.721209205683132 17.32339778560679 a39.581570547855364,39.581570547855364 0 0,0 -0.6330769201993781,-0.2519143717659412 l 7.018407201924369 -17.20513656943478" fill="#ffba11" stroke="none" /><path d="M 92.06813273071674 119.44442032107085 l -8.445560671375965 20.70370392824019 a43.36002798303528,43.36002798303528 0 0,0 -0.6886574690157596,-0.28785887790036296 l 8.800689599889187 -20.555260007319855" fill="#ffee16" stroke="none" /><path d="M 91.7346041902142 119.30500536409082 l -7.253787399539092 16.94225030243357 a39.42979318787985,39.42979318787985 0 0,0 -0.621637587001332,-0.2725076498966813 l 7.544345661198167 -16.81487809924244" fill="#ffb811" stroke="none" /><path d="M 91.40352486487194 119.15986991738527 l -11.125953457758072 24.797584778258326 a48.179165755760565,48.179165755760565 0 0,0 -0.7537332327616062,-0.3460019588803091 l 11.551154686287099 -24.602395749043943" fill="#d1ff1c" stroke="none" /><path d="M 90.7491055286396 118.85261126421891 l -12.436711450275867 25.345061183346512 a49.23196624546369,49.23196624546369 0 0,0 -0.7575770242531347,-0.37986484700156387 l 12.871142382211762 -25.12722849543565" fill="#c4ff1e" stroke="none" /><path d="M 90.42595943632237 118.69057910512821 l -19.03991217620952 37.169989234664406 a62.76273883957851,62.76273883957851 0 0,0 -0.9573083920319359,-0.5008185055223411 l 19.67691147076795 -36.83674131019735" fill="#30ff38" stroke="none" /><line stroke="#e1ed5e" stroke-width="0.3" x1="58.666819895761336" x2="56.23545636021788" y1="174.27360380694188" y2="178.64263932499728" /><path d="M 58.180547188652646 175.14741091055294 a86.0,86.0 0 0,1 -31.652253787137756,-30.449443065178592" fill="none" id="id20" stroke="none" /><text fill="#e1ed5e" style="font-size:6.75px; font-family:Arial;" text-anchor="middle"><textPath startOffset="22.20632615414155" xlink:href="#id20">August</textPath></text><path d="M 89.7882731507175 118.34994917583269 l -8.70271660781863 15.638335200511905 a38.89678195094224,38.89678195094224 0 0,0 -0.5822500651940773,-0.33061678281045925 l 8.970615439933914 -15.486215251906813" fill="#ffb110" stroke="none" /><path d="M 89.1626897886671 117.98757091392108 l -11.400427672534777 18.92222306179847 a43.091180971536005,43.091180971536005 0 0,0 -0.6320466685101997,-0.3882546865619117 l 11.724453540977285 -18.723179908408177" fill="#ffea16" stroke="none" /><path d="M 87.95078237400918 117.19931262002967 l -10.594892705499909 15.123377921608451 a39.46532727034236,39.46532727034236 0 0,0 -0.5530270149124685,-0.3945700913621044 l 10.853647048261264 -14.938763568402129" fill="#ffb911" stroke="none" /><path d="M 87.65650970185807 116.9893568818739 l -9.00366164998524 12.392477113079343 a36.317944121376414,36.317944121376414 0 0,0 -0.5025971621509874,-0.371809365158143 l 9.21564378255479 -12.235657799181434" fill="#ff8c0c" stroke="none" /><path d="M 87.36589467227662 116.77436683061367 l -9.114056096412154 12.100779304137502 a36.14908836517861,36.14908836517861 0 0,0 -0.4938159496723854,-0.37863701281644596 l 9.321000774578026 -11.94210294949369" fill="#ff890c" stroke="none" /><path d="M 85.44109423537348 115.13401014063109 l -10.11204519884665 10.511490152899617 a35.58577674784662,35.58577674784662 0 0,0 -0.4377898627405014,-0.42846952324349674 l 10.291485013962946 -10.335870526733551" fill="#ff810b" stroke="none" /><path d="M 85.18274418774928 114.88116024355367 l -12.686372331332803 12.741086606324318 a38.97997026802501,38.97997026802501 0 0,0 -0.4713966135534062,-0.47752228075240444 l 12.903809569941743 -12.52082383159125" fill="#ffb210" stroke="none" /><path d="M 84.67929136418377 114.36230785411682 l -18.90011812926297 17.717804150198663 a46.90627432119277,46.90627432119277 0 0,0 -0.5471362086911365,-0.5938082938206205 l 19.202300745949838 -17.389844601576698" fill="#e1ff1b" stroke="none" /><path d="M 84.43433777217949 114.09645910891817 l -13.185247720014768 11.940725849360117 a38.78852695553321,38.78852695553321 0 0,0 -0.4439275804256804,-0.498757342652225 l 13.388834150088787 -11.71199433696703" fill="#ffaf10" stroke="none" /><path d="M 83.95833913139862 113.55231037782056 l -13.858631473846675 11.708044240794251 a39.14221503213676,39.14221503213676 0 0,0 -0.4303854297117966,-0.5184269753724458 l 14.058112903452008 -11.467756008308044" fill="#ffb410" stroke="none" /><path d="M 83.72743513129214 113.27417163493432 l -14.899524962991777 12.154128942393719 a40.22807048227013,40.22807048227013 0 0,0 -0.4330879127921832,-0.5403437615190667 l 15.106530787838821 -11.895857347296392" fill="#ffc312" stroke="none" /><path d="M 83.50135304334701 112.99209946851258 l -12.234723104115519 9.634410625065241 a36.57274277469284,36.57274277469284 0 0,0 -0.3852210179713905,-0.4979500940438201 l 12.398750939304978 -9.422382536908168" fill="#ff8f0d" stroke="none" /><path d="M 82.85270091963577 112.12312394758628 l -24.35927118668873 17.221981286094294 a50.832377246294435,50.832377246294435 0 0,0 -0.4989781015401582,-0.7188151708139627 l 24.652110195391025 -16.80012485309332" fill="#b0ff20" stroke="none" /><path d="M 82.44556493220864 111.52570212397912 l -14.984553580581409 9.838396984216676 a38.92570504131871,38.92570504131871 0 0,0 -0.36292684460522945,-0.5632705223755021 l 15.151685288563684 -9.579004861919726" fill="#ffb110" stroke="none" /><path d="M 82.05923443525364 110.91462005526583 l -22.08829780078692 13.437853434576182 a46.854763674522324,46.854763674522324 0 0,0 -0.41325706176958665,-0.6926426060276101 l 22.316335738254736 -13.05564873466246" fill="#e2ff1b" stroke="none" /><line stroke="#e1ed5e" stroke-width="0.3" x1="26.63291911575756" x2="22.317208475507996" y1="142.92168965132927" y2="145.44649492493687" /><path d="M 25.769776987707644 143.4266507060508 a86.0,86.0 0 0,1 -11.730757126820373,-40.83630448921669" fill="none" id="id21" stroke="none" /><text fill="#e1ed5e" style="font-size:6.75px; font-family:Arial;" text-anchor="middle"><textPath startOffset="21.46611528233685" xlink:href="#id21">September</textPath></text><path d="M 81.87401531095188 110.60418214915194 l -15.856650398522124 9.27656135575062 a39.37084517511259,39.37084517511259 0 0,0 -0.3371794245018005,-0.5879007475571685 l 16.0139818191763 -9.002240762335143" fill="#ffb711" stroke="none" /><path d="M 81.51974371655577 109.97397251340807 l -35.51084146382664 19.16554355393321 a61.352669319225214,61.352669319225214 0 0,0 -0.49358950453290884,-0.9336853285147847 l 35.83548347658443 -18.551443210332298" fill="#37ff2e" stroke="none" /><path d="M 81.35079622478065 109.6543875284942 l -16.00931932669184 8.2877625613524 a39.02734904464168,39.02734904464168 0 0,0 -0.30370958550433413,-0.5992478251359025 l 16.14960758198244 -8.010960524513813" fill="#ffb210" stroke="none" /><path d="M 81.02952815118164 109.00673069616217 l -19.861638608224187 9.429835565208409 a42.98650693017358,42.98650693017358 0 0,0 -0.3116017851506247,-0.6711625238182641 l 20.021015010214636 -9.086552974111319" fill="#ffe915" stroke="none" /><path d="M 80.87730276802145 108.67885076344099 l -18.165350009267886 8.244357994251192 a40.94866861964934,40.94866861964934 0 0,0 -0.28578059307590886,-0.6443597935129747 l 18.304571687075075 -7.930449864245523" fill="#ffcd13" stroke="none" /><path d="M 80.58989483394504 108.01547362559985 l -12.01014578583985 4.95963344672462 a33.993904945127014,33.993904945127014 0 0,0 -0.2186898899652151,-0.5427703722663177 l 12.093738290062454 -4.752163706615496" fill="#ff6909" stroke="none" /><path d="M 80.45479744820244 107.68017299344265 l -38.6311513826675 15.179884924112535 a62.506562896244155,62.506562896244155 0 0,0 -0.3848788640682136,-1.004797264382523 l 38.88672452632922 -14.512664092896854" fill="#30ff35" stroke="none" /><path d="M 80.20201598880116 107.00284435728193 l -16.698657267562943 5.906565928843632 a38.71250054654365,38.71250054654365 0 0,0 -0.21680690578041967,-0.6301423532609112 l 16.797855004286593 -5.618250872493424" fill="#ffae10" stroke="none" /><path d="M 80.0844068197444 106.66101706037122 l -14.32971817991877 4.792751910667698 a36.10997332866949,36.10997332866949 0 0,0 -0.1920839922099497,-0.5911737405794644 l 14.410094423144969 -4.5453792701104305" fill="#ff890c" stroke="none" /><path d="M 79.86692584326677 105.97154293290107 l -21.408964047108338 6.349976509349278 a43.33082943465524,43.33082943465524 0 0,0 -0.20593980130528217,-0.7169034651074466 l 21.515096485299722 -5.9805155687372356" fill="#ffee16" stroke="none" /><path d="M 79.76711848015287 105.62410040840567 l -32.485757454027635 9.0300119429526 a54.71743692886188,54.71743692886188 0 0,0 -0.2444356198068637,-0.9096358735838703 l 32.63638115017628 -8.46948513619319" fill="#81ff25" stroke="none" /><path d="M 79.58551787078972 104.9243191809786 l -21.281100147628823 5.133362138995836 a42.89147391893665,42.89147391893665 0 0,0 -0.16694880021610642,-0.7192110618749415 l 21.366309513775484 -4.76628241977232" fill="#ffe815" stroke="none" /><path d="M 79.50377843672027 104.57218783832718 l -21.807761078729857 4.864759081446928 a43.34377596082375,43.34377596082375 0 0,0 -0.15617373682800978,-0.7295917055463372 l 21.88826885428231 -4.488653556484427" fill="#ffee16" stroke="none" /><path d="M 79.35854240842038 103.8639653848113 l -26.894092727536236 5.034423702592444 a48.36124349613047,48.36124349613047 0 0,0 -0.1461282358442976,-0.8195647500713408 l 26.97676740571972 -4.57074020178789" fill="#cfff1d" stroke="none" /><path d="M 79.18660465613746 102.79330883721812 l -58.23173223561491 7.815121443327005 a79.7538148747322,79.7538148747322 0 0,0 -0.1708953000556773,-1.3622036868292962 l 58.35762904491744 -6.8116000022103" fill="#47fdff" stroke="none" /><path d="M 79.07016306316243 101.71520430193888 l -18.398416582035413 1.507753900118963 a39.46009356827423,39.46009356827423 0 0,0 -0.04965102226195868,-0.6774487508435361 l 18.42164416296171 -1.1908320127786662" fill="#ffb911" stroke="none" /><path d="M 79.04373962182676 101.35467743843564 l -19.81805624884934 1.28110040577311 a40.85942022648769,40.85942022648769 0 0,0 -0.039329427780815,-0.7022533530416813 l 19.83717202751769 -0.939775336395991" fill="#ffcc13" stroke="none" /><path d="M 79.0235259727143 100.99374915477108 l -21.942890479673043 1.0395326134909546 a42.96750032792619,42.96750032792619 0 0,0 -0.028640636252680672,-0.7390875598752616 l 21.957533248776922 -0.6616678066016962" fill="#ffe915" stroke="none" /><line stroke="#e1ed5e" stroke-width="0.3" x1="15.007084014347285" x2="10.007500721073583" y1="101.09737516637583" y2="101.16192664675087" /><path d="M 14.007167355692545 101.11028546245083 a86.0,86.0 0 0,1 10.666146001902534,-42.60595125391555" fill="none" id="id22" stroke="none" /><text fill="#e1ed5e" style="font-size:6.75px; font-family:Arial;" text-anchor="middle"><textPath startOffset="22.20632615414155" xlink:href="#id22">October</textPath></text><path d="M 79.00175016825051 100.2711162175752 l -59.92199611599533 0.7736751903942461 a80.9269905120021,80.9269905120021 0 0,0 -0.005995158975804076,-1.393063810837612 l 59.92643557226064 0.25789809864704116" fill="#49f1ff" stroke="none" /><path d="M 79.00486145842228 99.54816195383935 l -18.510623546047118 -0.39836860136445235 a39.51490971098771,39.51490971098771 0 0,0 0.020488114785277723,-0.6799007857326593 l 18.501023736806193 0.716939534522106" fill="#ffb911" stroke="none" /><path d="M 79.01574976396665 99.18683210126434 l -16.31497701334098 -0.6322272860184305 a37.32722224651305,37.32722224651305 0 0,0 0.030406385109719575,-0.6418307320871617 l 16.30167701999776 0.9129691247286013" fill="#ff9a0e" stroke="none" /><path d="M 79.05617556472873 98.46500227214037 l -18.505491116929402 -1.3562893876046447 a39.555126579511175,39.555126579511175 0 0,0 0.055613596659295154,-0.6786267433182176 l 18.479403036450613 1.6746300481306404" fill="#ffba11" stroke="none" /><path d="M 79.08570108090925 98.10471618934814 l -30.86804574845122 -2.7973066465114775 a51.99453456342093,51.99453456342093 0 0,0 0.08844734397238585,-0.8906526834331785 l 30.815321278796603 3.3282348606490864" fill="#a2ff22" stroke="none" /><path d="M 79.16333360222342 97.38593545837743 l -22.227660331409794 -2.7885717228629683 a43.40189759958025,43.40189759958025 0 0,0 0.09937794690809595,-0.7404811347389282 l 22.176366385443863 3.170771199666556" fill="#ffef16" stroke="none" /><path d="M 79.32604984820605 96.31383870115002 l -15.6514936858153 -2.7906582859222464 a36.8983341349307,36.8983341349307 0 0,0 0.11686980875795037,-0.6243231915834265 l 15.601138153147488 3.0596595549682455" fill="#ff940d" stroke="none" /><path d="M 79.3925641242962 95.95851677861259 l -18.598321253883842 -3.6474602540029655 a39.9526124786848,39.9526124786848 0 0,0 0.1381612784874983,-0.6737234608843863 l 18.53278067948135 3.967059371050754" fill="#ffbf11" stroke="none" /><path d="M 79.54389044137918 95.25157060432595 l -35.99992647949704 -8.3565796637664 a57.9570985090289,57.9570985090289 0 0,0 0.23394575931516606,-0.9698562069639958 l 35.85074791992106 8.975021102389793" fill="#5cff2a" stroke="none" /><path d="M 79.71946130924805 94.55025226153421 l -20.744567631194897 -5.574440711730585 a42.48049057758734,42.48049057758734 0 0,0 0.1958415943210244,-0.7045464139710375 l 20.645539266307512 5.930698429120564" fill="#ffe215" stroke="none" /><path d="M 79.81627453868168 94.20196356495316 l -17.69806759177395 -5.0839990329676645 a39.4138166236719,39.4138166236719 0 0,0 0.19292894863019258,-0.6504605046631151 l 17.607932746032052 5.387888924377319" fill="#ffb811" stroke="none" /><path d="M 80.02781315780177 93.51064311812611 l -14.001052252998669 -4.549217644985373 a35.72157754361418,35.72157754361418 0 0,0 0.19504441675677547,-0.583157980380805 l 13.92067054247012 4.7895487282885005" fill="#ff830c" stroke="none" /><path d="M 80.14247586403 93.16781622104843 l -15.185523026457751 -5.224734130290015 a37.05920160902453,37.05920160902453 0 0,0 0.21273202769600263,-0.6014220890995388 l 15.093337917951938 5.485353845816165" fill="#ff960d" stroke="none" /><path d="M 80.2630227832202 92.82701384747504 l -21.80404824678955 -7.924219318155804 a44.19934851995978,44.19934851995978 0 0,0 0.26602832591144254,-0.7128236524803238 l 21.66441533237648 8.29836610766547" fill="#fff917" stroke="none" /><path d="M 80.52162464483688 92.15188598940014 l -16.991179894220515 -6.845987642860977 a39.31850815443137,39.31850815443137 0 0,0 0.2583381632999829,-0.6255863536302079 l 16.870820044034332 7.137448566944496" fill="#ffb710" stroke="none" /><path d="M 80.65960295795068 91.81776055985345 l -15.930141557322965 -6.739480697012311 a38.29710987713698,38.29710987713698 0 0,0 0.26207859407239126,-0.604913528862254 l 15.811772253407895 7.0126933704611645" fill="#ffa80f" stroke="none" /><path d="M 80.803312248108 91.48605970444005 l -19.274075474804185 -8.548262594333526 a42.08465742643522,42.08465742643522 0 0,0 0.2993976338524047,-0.6596829995335032 l 19.124075523988427 8.8787676027091" fill="#ffdd14" stroke="none" /><path d="M 81.10775173730289 90.83032412892265 l -19.365401155219207 -9.39932872136605 a42.525941148178916,42.525941148178916 0 0,0 0.3253031731041615,-0.6557913467092955 l 19.200737969161633 9.731279656574307" fill="#ffe315" stroke="none" /><path d="M 81.6062741919709 89.86733742301443 l -13.50999094863264 -7.442330125464219 a36.424270910760356,36.424270910760356 0 0,0 0.30725148873026636,-0.54656611440873 l 13.379881818609942 7.673779749807734" fill="#ff8d0d" stroke="none" /><line stroke="#e1ed5e" stroke-width="0.3" x1="26.266209847984243" x2="21.928928074336255" y1="57.711370442889674" y2="55.22380399835377" /><path d="M 25.398753493254645 57.213857153982495 a86.0,86.0 0 0,1 29.58750427330803,-30.492523968695096" fill="none" id="id23" stroke="none" /><text fill="#e1ed5e" style="font-size:6.75px; font-family:Arial;" text-anchor="middle"><textPath startOffset="21.46611528233685" xlink:href="#id23">November</textPath></text><path d="M 81.78341655067845 89.55222093294921 l -10.917524784218019 -6.261541151329855 a33.58567618381356,33.58567618381356 0 0,0 0.29194001255845625,-0.49902011520787654 l 10.808125097189238 6.448540678891622" fill="#ff6309" stroke="none" /><path d="M 82.15384107792192 88.93136811851018 l -17.56837340433685 -10.896342390439566 a41.67312316907875,41.67312316907875 0 0,0 0.38333797021471466,-0.6063486100670114 l 17.37820783787617 11.197138648220793" fill="#ffd714" stroke="none" /><path d="M 82.95767976084542 87.72973835380427 l -12.64459536540868 -9.103953649889583 a36.5810065148004,36.5810065148004 0 0,0 0.3723204173378664,-0.5078446308267535 l 12.48601233555718 9.320260724387836" fill="#ff8f0d" stroke="none" /><path d="M 83.17141714833178 87.43820079747576 l -11.70811990449673 -8.739598133468832 a35.61029251016571,35.61029251016571 0 0,0 0.37089655941097405,-0.4880563961788355 l 11.555947404861646 8.939839305528693" fill="#ff810b" stroke="none" /><path d="M 83.39014120810768 87.1503855733568 l -12.571668121329687 -9.725614773899256 a36.8944777228805,36.8944777228805 0 0,0 0.39291901863518397,-0.49896725211561443 l 12.402395022100531 9.940574419967918" fill="#ff940d" stroke="none" /><path d="M 83.6137871275137 86.86637796730984 l -14.570697004405307 -11.678478041135925 a39.67329806304927,39.67329806304927 0 0,0 0.4316861157956902,-0.5291961348246244 l 14.367512396533224 11.927558345568631" fill="#ffbc11" stroke="none" /><path d="M 83.84228863543731 86.58626213691792 l -17.731023559433094 -14.719863271725501 a44.0448165799484,44.0448165799484 0 0,0 0.4892946780480144,-0.5791705673228515 l 17.475018267897955 15.022892788677469" fill="#fff717" stroke="none" /><path d="M 84.31358615837235 86.03803664274999 l -13.112020314691824 -11.670579969490937 a38.55356127847492,38.55356127847492 0 0,0 0.44548889624385446,-0.49191996597141563 l 12.909187777831924 11.894552722731909" fill="#ffac0f" stroke="none" /><path d="M 84.5562425177563 85.77008943001954 l -16.462379674625524 -15.168471196748664 a43.38509466136155,43.38509466136155 0 0,0 0.5107720542711282,-0.5448560149448511 l 16.19884029838394 15.449596628571564" fill="#ffee16" stroke="none" /><path d="M 84.80347519578584 85.50635884689758 l -10.992248178851685 -10.483824599551822 a36.19013160771282,36.19013160771282 0 0,0 0.43382616318803024,-0.447095995561613 l 10.810157751960537 10.671484790663559" fill="#ff8a0c" stroke="none" /><path d="M 85.57189188830299 84.74124197986013 l -15.15736756590198 -16.030002140260617 a43.06143150714879,43.06143150714879 0 0,0 0.5429679797905136,-0.5046295624271427 l 14.87919170231661 16.288536288762405" fill="#ffea16" stroke="none" /><path d="M 85.83668400450813 84.49514656593479 l -14.122134564260172 -15.459771332129781 a41.938940142538584,41.938940142538584 0 0,0 0.5371959090577678,-0.48229979121852157 l 13.853927667606433 15.700570132117582" fill="#ffdb14" stroke="none" /><path d="M 86.10567301691215 84.25364557470407 l -12.337586442920706 -13.982110045302898 a39.64712955270867,39.64712955270867 0 0,0 0.515613187938072,-0.4471346756431683 l 12.095079456335862 14.192409714365747" fill="#ffbb11" stroke="none" /><path d="M 86.65592168130627 83.78471172551755 l -9.710936974174214 -11.800413538563502 a36.28241003891391,36.28241003891391 0 0,0 0.4856601025632357,-0.3927033608765569 l 9.506373473046477 11.965822996704194" fill="#ff8b0c" stroke="none" /><path d="M 86.93701828274178 83.55741782278169 l -11.466077752268404 -14.432533840491248 a39.432823225919286,39.432823225919286 0 0,0 0.5350986132162034,-0.41765295520880574 l 11.215946583892775 14.627765184923275" fill="#ffb811" stroke="none" /><path d="M 88.09926311788651 82.69761687909137 l -10.543165174473504 -15.328620820945767 a39.60443356215295,39.60443356215295 0 0,0 0.565014398852815,-0.3815002442753559 l 10.277746081214149 15.507832977519788" fill="#ffbb11" stroke="none" /><line stroke="#e1ed5e" stroke-width="0.3" x1="56.762969772571076" x2="54.21961505331055" y1="26.818313649435495" y2="22.513508569990535" /><path d="M 56.25429882871897 25.957352633546506 a86.0,86.0 0 0,1 42.265352541879196,-11.944610805530505" fill="none" id="id24" stroke="none" /><text fill="#e1ed5e" style="font-size:6.75px; font-family:Arial;" text-anchor="middle"><textPath startOffset="22.20632615414155" xlink:href="#id24">December</textPath></text><path d="M 89.3179101791058 81.91981866633112 l -7.168270296188973 -12.132796950494068 a35.092156005421714,35.092156005421714 0 0,0 0.5227114792063167,-0.3027882274477287 l 6.9583620845173355 12.254389335331844" fill="#ff7a0b" stroke="none" /><path d="M 89.63071344664047 81.73862282372117 l -9.720407059014367 -17.118633832538276 a40.68588168422894,40.68588168422894 0 0,0 0.6119852351863234,-0.3405691207988358 l 9.424297734755998 17.283418350897296" fill="#ffca12" stroke="none" /><path d="M 89.94658935756843 81.56283822128135 l -6.937077524093123 -12.722052757240535 a35.490468278606095,35.490468278606095 0 0,0 0.5388719815077906,-0.2878467502029264 l 6.7170604960570275 12.839578233945211" fill="#ff800b" stroke="none" /><path d="M 90.26544431104013 81.39251694778311 l -7.435947495254842 -14.213721860161568 a37.04129683879148,37.04129683879148 0 0,0 0.5675070849520304,-0.2906991710071956 l 7.190179922714048 14.33961355648127" fill="#ff960d" stroke="none" /><path d="M 90.58718382345135 81.22770947309562 l -7.893332230773749 -15.7419334535219 a38.61003016920992,38.61003016920992 0 0,0 0.5966697224525201,-0.2927832414992967 l 7.621191241310802 15.875471855156027" fill="#ffad10" stroke="none" /><path d="M 91.23893434514133 80.91482961587045 l -6.4623728656637995 -14.077680967790752 a36.49010537361724,36.49010537361724 0 0,0 0.573099488154791,-0.25713303488594813 l 6.2190912590422345 14.186834333193229" fill="#ff8e0d" stroke="none" /><path d="M 91.90106846888425 80.62456947434976 l -10.933185747754482 -26.155941690059286 a49.34903589698745,49.34903589698745 0 0,0 0.7865675397611307,-0.32086064900331024 l 10.481334338404972 26.340263225246176" fill="#c2ff1e" stroke="none" /><path d="M 92.23578459929587 80.48803036053334 l -8.657621271458938 -21.75715570479762 a44.41640942678501,44.41640942678501 0 0,0 0.7128132250996964,-0.2765604571207918 l 8.281824881359565 21.902958865808962" fill="#fffc17" stroke="none" /><path d="M 92.57280143429618 80.3572730644239 l -5.34082181676073 -14.124882165212078 a36.10088321455118,36.10088321455118 0 0,0 0.5831456019807685,-0.21477744657769585 l 5.096893889007392 14.214722879596096" fill="#ff880c" stroke="none" /><path d="M 93.25333710446033 80.11325718540243 l -5.391902543388232 -15.893395123183959 a37.783105242446766,37.783105242446766 0 0,0 0.6176947170835644,-0.2036442365863793 l 5.117525004062259 15.983853084029572" fill="#ffa10e" stroke="none" /><path d="M 93.59665428221793 80.00007090966166 l -4.733845017544461 -14.785483846768427 a36.524813082068995,36.524813082068995 0 0,0 0.6004237969017499,-0.18655459641065228 l 4.478635847931982 14.864778578061605" fill="#ff8f0d" stroke="none" /><path d="M 93.94186890950719 79.89281104454417 l -4.361822599236807 -14.477070549144806 a36.11988981679856,36.11988981679856 0 0,0 0.5968550048181562,-0.1742383427482937 l 4.111977376695229 14.550007220811798" fill="#ff890c" stroke="none" /><path d="M 94.28887869178378 79.79150937346287 l -4.292892395181639 -15.19016512640955 a36.785120895457126,36.785120895457126 0 0,0 0.6108118714955453,-0.16695795803185334 l 4.030782634462371 15.261809625267698" fill="#ff920d" stroke="none" /><path d="M 94.63758080256005 79.69619591428918 l -5.354705341832597 -20.274597004497938 a41.96979143894014,41.96979143894014 0 0,0 0.7000783278478638,-0.17846555366262146 l 5.004918125299733 20.363765554329422" fill="#ffdb14" stroke="none" /><path d="M 94.98787191387505 79.60689891045804 l -3.604038077302482 -14.663933478565875 a36.100332298544004,36.100332298544004 0 0,0 0.6047257997813885,-0.14311905890127313 l 3.3510885905585592 14.723798449608019" fill="#ff880c" stroke="none" /><path d="M 95.33964822691252 79.52364482259891 l -3.7035644987867413 -16.272484523057738 a37.688623147217,37.688623147217 0 0,0 0.6338100705274148,-0.13852633249127477 l 3.4229117041058057 16.333824353644882" fill="#ff9f0e" stroke="none" /><path d="M 96.40284397218896 79.31037775812273 l -4.019610712376661 -23.119438399530306 a44.46626732543396,44.46626732543396 0 0,0 0.7552294698572886,-0.12461933358225456 l 3.621052036380487 23.185203996052188" fill="#fffd17" stroke="none" /></svg>