<?xml version="1.0" encoding="utf-8" ?>
<svg baseProfile="full" height="300mm" version="1.1" viewBox="0,0,200,300" width="200mm" xmlns="http://www.w3.org/2000/svg" xmlns:ev="http://www.w3.org/2001/xml-events" xmlns:xlink="http://www.w3.org/1999/xlink"><defs /><rect fill="#222222" height="300" width="200" x="0" y="0" /><text fill="#FFFFFF" style="font-size:12px; font-family:Arial; font-weight:bold;" x="10" y="20">Over 10km Runs</text><text fill="#FFFFFF" style="font-size:4px; font-family:Arial" x="10" y="280">ATHLETE</text><text fill="#FFFFFF" style="font-size:9px; font-family:Arial" x="10" y="290">ChiZhang9797</text><text fill="#FFFFFF" style="font-size:4px; font-family:Arial" x="120" y="280">STATISTICS</text><text fill="#FFFFFF" style="font-size:3px; font-family:Arial" x="120" y="285">Number: 7</text><text fill="#FFFFFF" style="font-size:3px; font-family:Arial" x="120" y="290">Weekly: 1.0</text><text fill="#FFFFFF" style="font-size:3px; font-family:Arial" x="141" y="285">Total: 76.1 km</text><text fill="#FFFFFF" style="font-size:3px; font-family:Arial" x="141" y="290">Avg: 10.9 km</text><text fill="#FFFFFF" style="font-size:3px; font-family:Arial" x="167" y="285">Min: 10.1 km</text><text fill="#FFFFFF" style="font-size:3px; font-family:Arial" x="167" y="290">Max: 14.4 km</text><polyline fill="none" points="14.073985680181067,55.18085633818919 14.367541766099748,55.19066398574432 14.56801909308706,55.17104868901879 14.897374701671652,55.09258743812825 15.198090692123515,55.04354910424445 15.26968973746989,55.00431840827878 15.35560859189718,54.925856939458754 15.412887828162638,54.847395368055004 15.427207637214451,54.77874140896529 15.377088305496727,54.60220229643892 15.35560859189718,54.435470435662864 15.35560859189718,54.17066005781089 15.312649164683535,53.76853836119699 15.162291169472155,53.503725041075086 15.047732696912135,53.18006272990533 14.897374701671652,52.8858227507626 14.804295942711178,52.65042972893207 14.739856801912538,52.55234903073142 14.668257756566163,52.27772222309068 14.596658711219789,52.169832776326075 14.489260143207503,52.110983905437024 14.360381861581118,52.071751292809495 13.766109785196022,52.09136760234833 13.193317422425025,52.1600246351918 13.11455847256002,52.15021649243863 13.078758949894109,52.12079205460395 13.05727923628001,52.08155944838654 13.0,51.84616327245749 13.014319809066365,51.75788946851753 13.207637231505942,51.404792954399454 13.422434367545065,50.97322772744883 13.622911694503273,50.50242575903758 13.72315035801148,50.30625718228839 14.05250596658152,49.80602440960865 14.245823389021098,49.34502188839906 14.818615751792095,48.44262372531739 14.875894988086657,48.3935799581559 14.918854415271198,48.403388714796165 15.133651551324874,48.501476193006965 15.219570405737613,48.5505198719693 15.70644391408132,48.98210251903947 15.971360381852719,49.178275423622836 16.100238663479104,49.24693578874212 16.20763723150594,49.33521328565985 16.329355608584592,49.51176788990415 16.41527446299733,49.60985355676894 16.766109785210574,49.756981756516325 17.088305489261984,50.04142858666091 17.217183770873817,50.178747263609694 17.3675417661143,50.30625718228839 17.704057279232075,50.551467803077685 17.86157517900574,50.639743381310836 18.09785202864441,50.806485785971745 18.233890214803978,50.91437768336618 18.613365155120846,51.1988190286138 18.91408114558726,51.36555988019245 19.307875894985045,51.62057440427816 19.84486873509013,51.91482058578549 20.10262529832835,52.06194313562446 20.682577565632528,52.32676281660315 21.047732696912135,52.52292478999516 21.29832935560262,52.6111974688647 21.7136038186145,52.787742437198176 22.415274463011883,53.05255891602792 22.658711217183736,53.17025475385526 22.894988066822407,53.229102586203226 23.202863961822004,53.40564573712982 23.704057279232075,53.63122789660338 23.83293556085846,53.660651594022056 24.26968973746989,53.84700134281229 24.606205250602216,54.0137348381686 24.93556085920136,54.14123661035774 25.064439140813192,54.17066005781089 25.23627684963867,54.258930313542805 25.415274463011883,54.317777078602376 25.64439140811737,54.42566266470749 26.324582338900655,54.64143325521218 26.747016706431168,54.88662616658257 27.50596658710856,55.22008691877636 27.813842482108157,55.38681660021757 28.336515513146878,55.57316099025047 29.05250596658152,55.77911990626308 29.489260143207503,55.93604051079819 29.84009546539164,56.083153204988776 30.3269689737499,56.328340227493754 30.663484486867674,56.46564452261373 31.021479713599547,56.59314108690887 31.279236276852316,56.661792970895476 31.630071599051007,56.86774815180979 31.81622911694285,56.93639972174424 32.01670644391561,57.034473256906494 32.23150357995473,57.08350996439549 32.51789976134023,57.19139057986831 32.63245823390025,57.26004177967479 32.81145584725891,57.39734394376501 33.00477326968394,57.49541672585474 33.49880668258993,57.62291110302249 33.86396181384043,57.789634110740735 34.801909307876485,58.113271568618075 35.12410501194245,58.33883603773211 35.704057279232075,58.51536416149611 36.205250596642145,58.760541249997914 37.214797136039124,59.18224349990487 37.43675417661143,59.29012034381958 38.08114558474335,59.52548733040021 38.48210023865977,59.76085339417841 38.76849642004527,59.89814983855467 39.319809069202165,60.113900759621174 40.19331742243958,60.496366395858786 40.78042959426239,60.71211516703261 41.267303102620644,60.94747657854532 41.9188544152712,61.1828370673029 42.21241050120443,61.329936904232454 42.94272076371999,61.65355527674183 43.8162291169574,61.967365365911974 44.38186157516611,62.1929153543133 45.47732696897583,62.55575486197267 45.82100238662679,62.712657753661915 46.07875894987956,62.810721852758434 46.20763723149139,62.86956023529274 46.66587112171692,63.02646230686878 47.17422434367472,63.26181464537876 47.52505966585886,63.47755347851489 47.818615751792095,63.614841423233884 48.09785202864441,63.712904048661585 48.53460620524129,63.83057898776315 48.77088305489451,63.92864126084896 49.32219570405141,64.19340859810472 49.75178997612966,64.33069490586786 50.1026252983138,64.41895022365497 50.53937947492523,64.56604213166065 51.00477326968394,64.76216411511632 51.312649164683535,64.8406127291164 51.67780429593404,64.9582854579021 52.014319809066365,65.13479411866138 52.54415274463827,65.34072023369663 52.75178997612966,65.47800391798955 53.145584725541994,65.69373478763009 53.23866348447336,65.78198810180038 53.3460620525002,65.95849434099364 53.40334128878021,66.02713551608394 53.65393794748525,66.16441763084731 53.940334128870745,66.25267025315406 54.284009546536254,66.38014603411284 54.74940334128041,66.60567944515788 55.44391408114461,66.87043497709237 56.08114558471425,67.15480072953142 56.682577565617976,67.3901368854531 56.94749403341848,67.51761025143423 57.140811455843505,67.58624964409319 57.64916467780131,67.831389691597 57.96420047731954,67.94905655888579 58.973747016701964,68.33147228501912 59.818615751792095,68.5962202071023 60.04773269689758,68.71388557552564 60.957040572786354,69.36104098021315 61.32935560858459,69.58656319447618 61.55847255370463,69.68461606689016 61.687350835316465,69.68461606689016 61.75894988066284,69.70422662215788 61.84486873509013,69.78266877920396 61.859188544156495,69.82188981926811 61.85202863960876,69.8807213313703 61.90214797137014,69.91013706578451 62.00238663483469,69.9003318225914 62.152744630075176,69.81208456166496 62.27446300716838,69.80227930242472 62.618138424819335,69.84150032970501 62.92601431980438,69.9395527857996 63.06921241049713,69.98857895383117 63.44868735082855,70.17487802717733 63.62768496418721,70.29254030201992 63.92840095463907,70.43961782132101 64.2219570405723,70.61611036890463 64.45823389021098,70.73377177912334 64.95226730308787,70.92006854038482 65.05966587112925,70.99850910905661 65.23150357995473,71.06714452258893 65.47494033412659,71.15538993898735 65.797136038178,71.23383020022447 66.11217183769622,71.33188038271328 66.40572792362946,71.44954039030199 67.0,71.60642004184774 66.6133651551354,71.51817528829633 66.37708830549673,71.4397353984823 65.19570405727427,71.10636472364058 64.66587112170237,70.81221259115046 64.30071599043731,70.6749411028286 63.89260143197316,70.4690332819373 63.09785202862986,69.98857895383117 62.818615751792095,69.87091608334595 62.63245823390025,69.82188981926811 62.360381861566566,69.80227930242472 62.21718377088837,69.83169507527782 62.07398568018107,69.9395527857996 62.00954653938243,69.96896849143013 61.88066825774149,69.9395527857996 61.830548926009214,69.91013706578451 61.809069212395116,69.82188981926811 61.73747016706329,69.76305824952215 61.45823389021098,69.68461606689016 61.3866348448646,69.64539493713164 60.86396181384043,69.29240361644406 60.53460620524129,69.08649105436416 60.26252983293671,68.87077237477206 60.11933174224396,68.79232902638978 59.48210023865977,68.51777650002623 58.88066825775604,68.321666784017 57.79952267302724,67.89022315405236 57.39140811454854,67.72352819397202 57.01193317421712,67.54702714360974 56.704057279246626,67.4293594884075 56.53937947493978,67.3901368854531 56.38186157516611,67.32149726860371 56.13126491647563,67.17441211108962 54.548926014322205,66.52723313740717 54.32696897373535,66.41936929689837 53.71837708829844,66.1840293358764 53.5107398567925,66.07616487881023 53.38902147971385,65.98791199706466 53.23150357995473,65.77218218442431 53.12410501191334,65.68392885583671 52.87350835322286,65.52703372912583 52.715990453463746,65.44858601205124 52.40095465393097,65.26227227312847 51.86396181384043,65.06615192333629 51.58472553698812,64.91906124059096 51.019093078764854,64.7719701974529 50.883054892590735,64.7229397696683 50.582338902153424,64.57584824603327 50.41766109786113,64.53662377887304 50.095465393780614,64.42875636206736 49.365155131265055,64.2228271190179 48.90692124105408,64.00709096398714 48.548926014322205,63.83057898776315 47.94749403341848,63.62464769297367 47.532219570406596,63.45794088933326 47.31026252981974,63.34026521986743 47.031026252981974,63.183363968382764 46.73031026253011,63.046075036982074 46.07875894987956,62.80091545004689 45.36992840094899,62.506722624220856 44.754176610993454,62.310593272759434 43.601431980903726,61.888912997390435 42.94272076371999,61.60452230211013 42.55608591885539,61.46722976016099 42.44152744630992,61.398583371446875 41.94749403341848,61.20245039974907 41.73985680191254,61.07496362450547 41.27446300716838,60.86902287722478 40.2863961813855,60.496366395858786 40.15035799522593,60.45713926325334 39.69928400954814,60.25119639656623 39.26968973746989,60.113900759621174 38.83293556085846,59.88834296009372 38.62529832935252,59.74123959077406 38.45346062052704,59.67259122838004 38.0596658711147,59.456838721311215 37.193317422425025,59.093980483423366 36.74224343676178,58.8684188517218 36.4486873508431,58.74092711976118 35.16706443914154,58.24076463354504 34.830548926009214,58.06423570228071 34.52983293555735,57.95635665542795 34.02863961814728,57.819055769934494 33.58472553698812,57.64252559853776 33.11933174224396,57.5052239952347 32.6539379474998,57.27965639377726 32.28878281622019,57.14235396048389 32.13126491646108,57.10312463617811 31.9594272076356,57.122739301525144 31.852028639623313,57.07370262608674 31.6945107398642,56.95601444160275 31.164677804292296,56.65198556371979 30.65632458233449,56.416607310409745 30.198090692123515,56.24007301474194 29.732696897379356,56.00469314628572 29.331742243433837,55.82815763921826 28.257756563238217,55.49470026494237 27.88544152745453,55.337778506669565 27.684964200481772,55.27893274158123 27.33412887828308,55.122010419258004 26.890214797123917,54.95528000227932 26.618138424819335,54.8277799592106 26.303102625301108,54.64143325521218 25.594272076370544,54.4158548921514 24.79952267302724,54.111813148520014 24.01193317423167,53.73911471666361 23.446300715993857,53.51353296266461 23.202863961822004,53.386029857138055 22.837708830542397,53.18006272990533 22.60859188545146,53.09179088761084 22.4081145584787,53.04275091913951 22.107398568026838,52.90543879425604 21.09069212412578,52.51311670656287 20.188544152741088,52.110983905437024 19.801909307876485,51.865779655712686 19.365155131279607,51.62057440427816 18.670644391415408,51.1988190286138 18.3269689737499,50.90456933706446" stroke="#4dd2ff" stroke-linecap="round" stroke-linejoin="round" stroke-width="0.5"><title>2022-11-05 14.4km</title></polyline><polyline fill="none" points="155.23950250976486,84.00539827652392 156.0315985979978,83.96199775517744 156.3959627985896,83.89689694659319 156.72864315562765,83.78839552796853 157.0613235126948,83.76669523364399 157.59994885267224,83.67989402081002 157.71084230506676,83.63649339303083 157.9959968967887,83.44119039289944 158.1385741927079,83.28928786088363 158.2019418797281,83.15908555228089 158.21778380149044,82.72507693518128 158.15441611444112,82.11746248838608 158.05936458386714,81.44474325135525 157.98015497505548,81.11923271979322 157.9326292097394,80.68521743669407 157.61579077446368,80.09929455471865 157.5207392438606,79.79548167233588 156.8078527644393,78.42831510097312 156.61774970329134,77.9725897830067 156.41180472032283,77.40835627024353 156.26922742446186,77.14793999429094 156.1424920503341,77.01773166483326 155.79396977156284,76.8875232077553 155.19197674444877,76.90922462609888 153.70283609858598,77.01773166483326 153.1008430715592,77.12623861493194 152.4196404356917,77.10453723197861 151.05723516389844,77.16964137009927 150.566135589208,77.2130441111658 150.1067198580131,77.2130441111658 149.1245207086613,77.32155090164451 148.96610149100889,77.10453723197861 148.9185757257219,76.97432886002935 148.90273380395956,76.64880737148633 148.85520803867257,76.45349409540358 148.8235241951479,76.36668810268748 148.60173729041708,76.0845682345971 148.42747615103144,75.97606043344422 148.2532150116458,75.95435886261112 147.41359315809677,75.93265728815459 146.1937651822227,75.60713324643439 145.4175110157521,75.56372998058214 144.78383414517157,75.62883487401996 144.6412568493106,75.56372998058214 144.56204724046984,75.39011677533563 144.51452147515374,75.08629311995173 144.3402603357681,74.52204734456609 144.30857649224345,74.34843277747859 144.30857649224345,73.84928963291168 144.15015727459104,73.21993255935377 144.05510574401706,72.72078517331101 143.94421229165164,72.28674244307331 144.00757997873006,71.483759652343 144.10263150927494,71.33184344306937 144.49867955342052,70.9194985704089 144.799676066963,70.4420450131438 145.10067258044728,70.11650751250272 145.5284044680884,69.8343743665755 146.20960710398504,69.53053800054477 146.4947616957361,69.31351159924816 146.58981322631007,69.16159290730138 146.62149706986384,69.03137674732716 146.6056551481015,68.5322136177565 146.66902283517993,68.27177993579244 146.82744205280324,67.83772266417509 146.9700193486933,67.55558467678202 147.2234900968906,67.23004010035947 148.06311195043963,66.70916711812606 148.23737308982527,66.55724544676195 148.3482665421907,66.38362046674592 148.3482665421907,66.20999525964726 148.33242462042836,66.12318257096922 148.22153116809204,65.9495570233994 148.07895387217286,65.8627441645367 147.1759643316036,65.49378888089268 146.98586127045564,65.38527242594864 146.6056551481015,64.95120571939333 146.22544902571826,64.71246842594701 145.97197827749187,64.40862034085148 145.90861059047165,64.21328906182316 145.89276866868022,63.99625397042837 145.9402944339963,63.75751496016164 145.9878201992833,63.64899708630401 146.73239052222925,62.49870217163698 147.69874774984783,61.23987744987244 147.98390234162798,60.93602141882002 148.06311195043963,60.80579719263187 148.0947957939643,60.588756531928084 148.03142810691497,59.91592822918028 148.03142810691497,59.22139221173711 148.07895387217286,58.39662597264396 148.15816348104272,58.24469479090476 148.26905693337903,58.201285849907435 149.39383337865002,58.288103717713966 150.8354482592258,58.09276343532838 151.02555132040288,58.15787689470744 151.35823167744093,58.33151263027685 152.13448584394064,58.33151263027685 152.81568847983726,58.46173928301141 154.05135837744456,58.418330412969226 154.71671909154975,58.26639925605559 154.98603176153847,58.179581374060945 155.27118635331863,58.02764994396421 155.76228592800908,57.8323092784849 156.4910143291927,57.41992248529277 156.79201084270608,57.202876290277345 157.07716543442803,56.89901102114527 157.36232002620818,56.37809751353052 157.66331653972156,56.00911587582959 157.77420999211608,55.81377224077005 157.94847113150172,55.40137917854008 158.01183881855104,54.92386982226162 158.32867725385586,54.185897439325345 158.4078868626966,53.86032008417533 158.42372878442984,53.382805185829056 158.39204494090518,52.7316457387351 158.42372878442984,52.55800268024905 158.53462223679526,52.27583222580142 158.53462223679526,52.145599506096914 158.5029383932706,51.79831162911432 158.39204494090518,51.082027514101355 158.07520650560036,50.148681808816036 157.69500038327533,49.38897697257926 157.18805888682255,48.67267985989747 156.88706237328006,48.195146304613445 156.52269817268825,47.67419864919793 156.01575667623547,47.109836382529465 155.85733745861216,46.84936068110983 155.60386671032757,46.111343418830074 155.27118635331863,44.98260320039117 155.12860905739944,44.61358989376458 155.11276713566622,44.09262818538991 155.19197674444877,42.942163838015404 155.12860905739944,42.44290262316645 155.12860905739944,42.20412485675479 155.2078186662693,41.85681097539782 155.5246571015159,40.96681500732666 155.65139247564366,40.445838989369804 155.79396977156284,40.16364279271511 155.93654706742382,39.98998329664755 156.8553785297845,38.90460629988229 157.12469119977322,38.49216071458068 157.40984579152428,38.01459054132283 157.8375776791363,37.55872650069068 158.01183881855104,37.450187212685705 158.5029383932706,37.276524167275056 159.1682991073758,36.97261329120374 159.59603099501692,36.755533668154385 160.16634017854813,36.3864974941971 161.1802231714828,36.06087648890389 161.62379698085715,35.99575219195685 161.97231925971573,36.039168393515865 162.28915769499145,36.01746029450442 163.3030406879261,35.713546536280774 163.7149306538049,35.670130228289054 164.34860752438544,35.49646485445555 164.96644247317454,35.43134028064378 166.24963813612703,35.43134028064378 168.46750718314433,35.322799253379344 170.13090896842186,35.040592167148134 170.8754792913969,34.75838448102877 171.81015267546172,34.25909248989774 172.50719723312068,33.95517470630875 172.8240356683964,33.738090149257914 173.45771253900602,33.19537720356311 173.600289834867,33.108542926376686 173.72702520899475,33.108542926376686 174.0121798007749,33.28221142398252 174.1705990183982,33.347337051993236 174.36070207957528,33.30391997018887 174.77259204545408,33.0434171812085 174.9468531848397,33.0 175.54884621192468,33.17366863961797 175.8656846472295,33.108542926376686 176.00826194309047,33.15196007207851 176.05578770837747,33.23879432087415 176.0241038648528,33.36904558754759 175.54884621192468,34.28080087641138 174.7409082019003,35.64842206900357 174.0121798007749,37.03773710895621 173.82207673956873,37.36335571836389 173.6478156001831,37.55872650069068 173.56860599134234,37.5804343476193 173.25176755603752,37.493602938528056 172.80819374663406,37.5804343476193 171.77846883193706,37.55872650069068 170.558640856063,37.645557867203024 170.0992251248972,37.75409699550073 169.29128711493104,37.819220429853885 169.10118405372486,37.79751262196805 168.43582333961967,37.66726569994353 167.84967223435524,37.645557867203024 166.26548005788936,37.84092823418905 165.26743898671702,37.90605162602151 164.52286866380018,38.01459054132283 163.69908873201348,38.188252621286665 163.3030406879261,38.34020675488864 162.43173499091063,38.68752983577724 161.89310965090408,38.948021550197154 161.21190701500745,39.38217327170423 160.54654630087316,39.83803105131665 160.07128864794504,40.22876504523447 159.8495017432433,40.424131610881886 159.34256024679053,41.03193686580926 158.94651220267406,41.79168952151667 158.59798992384458,42.03046802961035 158.48709647150827,42.16071067127632 158.36036109738052,42.74680097748933 158.26530956677743,43.354595599419554 158.23362572325277,44.63529658722109 158.32867725385586,45.221375969893415 158.75640914146788,46.545471716992324 159.1207733420888,47.37031157290039 159.3267183249991,48.30367680895142 159.4851375426515,48.737797938956646 159.56434715149226,48.88973999909649 159.77029213446076,49.12850574236654 159.8970275085594,49.30215328592749 160.07128864794504,49.67115356196882 160.22970786559745,49.93162372770894 160.3564432397252,50.23550494185474 160.5148624573485,50.47426826511219 160.59407206618926,50.66961975565937 160.720807440317,51.16885003694915 160.89506857973174,51.62466735005728 161.00596203206806,52.38435939459305 161.2911166238191,53.59985762521683 161.27527470205678,53.90373044431908 161.1326974061667,54.57658921176335 161.05348779735505,54.72852459065325 160.78417512736632,54.94557483024255 160.68912359679234,55.119214766440564 160.65743975323858,55.22773961133498 160.54654630087316,55.81377224077005 160.53070437913993,56.39980228377681 160.41981092677452,56.96412506594788 160.32475939620053,57.15946700863424 159.88118558676797,57.81060474232072 159.6435567603039,58.11446792531933 158.72472529797233,59.00434896122897 158.10689034915413,59.35161799166235 157.34647810447495,59.89422403363278 156.99795582564548,60.067857498754165 156.47517240740126,60.30660314258421 155.85733745861216,60.415123747938196 155.28702827505185,60.54534835719096 153.46520727212192,60.784093142545316 152.26122121803928,60.80579719263187 151.65922819101252,60.7406850316911 150.29682291921927,60.69727690666332 149.59977836158941,60.7406850316911 148.96610149100889,60.7406850316911 148.57005344689242,60.84920528228395 148.28489885511226,60.97942946583498 148.03142810691497,61.13135751867958 147.65122198453173,61.43521310276992 147.61953814103617,61.54373278570711 147.66706390632316,61.97781063070579 147.69874774984783,62.086329870231566 147.7937992804509,62.216552840633085 148.64926305570407,62.73744344507577 149.36214953512535,63.214924704196164 150.3126648410107,63.7141078212735 150.423558293347,63.84432919540268 150.66118711978197,64.40862034085148 150.8354482592258,64.62565475828887 151.62754434745875,65.2333492400212 152.10280200038687,65.7542280110356 152.51469196626567,65.9712602293148 153.13252691505477,66.4487298608874 153.6553103333281,66.79597942373948 153.78204570745584,66.92619777568325 153.9246230033168,67.16493108935538 154.25730336035485,67.40366397378966 154.4790902650857,67.68580228392966 154.60582563918433,67.79431685896998 155.5246571015159,68.35859121989051 156.2375435809372,68.55391640156449 156.72864315562765,68.77094404428499 156.87122045151773,68.90116045961622 156.99795582564548,68.96626861940604 157.29895233915886,69.0747821481491 157.59994885267224,69.22670093939814 158.39204494090518,69.8343743665755 159.00987988972338,70.37693757683155 159.77029213446076,70.87609377254557 159.92871135208406,71.02801050315611 160.29307555264677,71.57056883673067 160.53070437913993,71.74418703542324 160.83170089268242,71.76588929427089 160.9742781885143,71.67908023750351 161.16438124972046,71.28843877994223 161.57627121559926,70.81098654904054 161.48121968499618,70.83268896037771 160.86338473617798,71.44035503885243 159.77029213446076,72.24333809201198 157.82173575740308,73.95779917179607 157.5207392438606,74.28332725630025 157.29895233915886,74.58715274861606 157.04548159090336,75.12969654184417 156.96627198212082,75.58543161523994 156.99795582564548,75.86755254365562 157.1088492779527,76.10626978421351 157.4256877132866,76.45349409540358 157.4256877132866,76.56200150644872 157.33063618268352,76.86582178580284 157.3147942609212,77.06113445555093 157.28311041742563,77.14793999429094 157.0137977474078,77.38665493337612 156.96627198212082,77.53856421668024 156.95043006032938,77.73387589701451 157.18805888682255,78.45001626756857 157.74252614856232,79.46996709854284 157.90094536618562,79.83888355524687 157.96431305326405,80.07759365756647 158.02768074034248,80.7069182345731 158.02768074034248,81.2711377338419 158.07520650560036,82.0957619210676 158.2019418797281,83.11568475437525 158.17025803617435,83.31098823320644 158.05936458386714,83.52799176172994 157.8851034444524,83.78839552796853 157.66331653972156,83.91859721962828 156.11080820680945,84.00539827652392 155.3662378839217,84.02709853190754 154.39988065621583,84.24410089039884 153.32262997626094,84.72150483111909 152.92658193214447,84.9819062572933 152.34043082685093,85.2857072759798 152.2136954527232,85.39420747128315 152.0077504697838,85.67630756449944 151.92854086100124,85.80650740546116 151.78596356508206,86.24050595342123 151.67507011274574,86.71790271824284 151.65922819101252,87.0" stroke="#4dd2ff" stroke-linecap="round" stroke-linejoin="round" stroke-width="0.5"><title>2022-10-14 10.2km</title></polyline><polyline fill="none" points="19.761162296228576,126.16901916642382 21.496102055258234,126.06417267561483 21.712969525164226,125.99427495796408 21.87880935508292,125.83700492625212 22.006378454956575,125.60983669439156 22.0318922749575,125.36519344361295 21.917080085040652,124.64873498976522 21.90432317504019,124.38661484405748 21.827781715095625,123.91479696289753 21.866052445053356,123.46045185076218 21.840538625066984,123.33812783693429 21.508858965273248,122.62165580350847 21.240963855423615,122.16730519769044 20.97306874555943,121.66052724481415 20.81998582565575,121.31102380917582 20.71793054571026,120.85666763521294 20.654145995737053,120.69939004834305 20.552090715791564,120.57706287640758 20.335223245914676,120.45473556457 20.156626506024622,120.41978487834422 18.03897944719938,120.59453819523333 17.962437987240264,120.52463690272998 17.822111977322493,120.31493275109824 17.758327427334734,120.12270358421665 17.745570517363376,119.96542491792934 17.78384124733566,119.84309690647933 18.1793054571026,119.21397920873278 18.51098511693999,118.49747954520717 18.766123316803714,117.86835393144429 19.250885896515683,116.92465857116622 19.582565556338523,116.34795175148611 19.773919206214487,115.96347881058318 19.914245216161362,115.57900448733562 20.424521615859703,114.82752795519627 20.81998582565575,114.11099890186597 20.93479801558715,113.9711877951122 21.011339475546265,113.90128217313031 21.18993621543632,113.9537113938859 21.623671155190095,114.18090438668878 22.37632884476625,114.86248046913533 23.38412473423523,115.57900448733562 23.65201984407031,115.94600273493415 23.907158043934032,116.19066753362858 24.11126860382501,116.29552370459714 24.493975903620594,116.4353317726127 24.851169383400702,116.69747140743857 25.348688873142237,117.15184525232326 26.649893692403566,118.06058715054678 26.956059532240033,118.2353443225802 27.644932671857532,118.79456535406644 28.65272856129741,119.38873449599487 29.15024805100984,119.72076875508355 29.49468462081859,119.87804778118152 30.65556343019125,120.57706287640758 31.204110559861874,120.7867665140293 31.663359319602023,121.01394499078742 34.546420978032984,122.2372054165753 35.37562012753915,122.4818558226616 35.68178596739017,122.67408074922423 36.1793054571026,122.95368002550094 38.37349397590151,123.89732218658173 39.470588235286414,124.26429188954353 39.929836995041114,124.49146297945117 40.389085754795815,124.75358286818664 41.34585400421929,124.96327831660892 41.65201984407031,125.06812588665343 42.53224663360743,125.59236219505692 43.463501063073636,125.9593260820111 44.20340184266388,126.34376308933133 45.593905031870236,126.86799314509699 46.167965981556335,127.02526166071038 47.03543586107844,127.32232378159097 47.58398299079272,127.56696255572751 48.4769666903012,128.02129022305598 49.21686746987689,128.3008755206247 50.0333097094117,128.66783011452208 50.69666902904282,128.92993976797152 50.785967399016954,128.94741372206045 50.939050318906084,128.87751788869355 51.11764705881069,128.68530411145184 51.71722182848316,128.2135051936566 52.13819985825103,127.81160077027016 52.36782423812838,127.63685924551828 52.63571934797801,127.51454000835656 53.3118355776096,127.37474642313464 55.21261516652885,126.32628870984627 55.34018426646071,126.30881432757451 55.51878100637987,126.48355802212609 55.646350106282625,126.5359810747832 55.735648476256756,126.51850672677392 57.59815733518917,125.90690274669032 58.00637845498568,125.73215810995316 59.256555634274264,125.2778207183801 59.575478384125745,125.1380242095911 60.69808646349702,124.89337987946783 61.39971651310043,124.84095602166053 62.024805102773826,124.91085449307138 62.854004252294544,125.05065129876311 63.249468462061486,125.17297335388139 63.47909284193884,125.2778207183801 63.95109851167945,125.53993867986719 64.37207654144731,125.90690274669032 64.66548547126877,126.09912151729077 64.83132530118746,126.18649357154209 65.03543586107844,126.27386555439443 66.08150248050515,126.39618621055706 66.40042523032753,126.37871183965035 66.64280652019079,126.34376308933133 66.8341601700813,126.25639116356615 66.94897236002726,126.16901916642382 66.98724309001409,126.09912151729077 67.0,126.02922382250108 67.0,125.99427495796408 66.94897236002726,125.94185163976363 66.84691708005266,125.92437719467125 65.87739192059962,125.97680052139185 65.71155209071003,125.9593260820111 65.54571226080589,125.88942829588632 65.328844790929,125.69720914839127 64.85683912118839,125.41761704446253 64.14245216156996,124.84095602166053 63.798015591761214,124.59631101198465 63.61941885187116,124.50893765866931 63.249468462061486,124.4215642339841 63.01984408221324,124.31671603007999 62.5733522324299,123.9672212747173 62.177888022662955,123.54782606070512 62.1141034727043,123.42550214682706 62.1141034727043,123.3206529664094 62.15237420266203,123.21580368321156 62.30545712259482,123.00610480846808 62.42026931254077,122.95368002550094 62.70092133239086,122.93620509216271 62.73919206234859,122.90125521687878 62.72643515236268,122.77893056352332 63.01984408221324,120.85666763521294 62.72643515236268,120.90909344608372 62.39475549253984,120.99646974045027 61.79518072286737,121.31102380917582 61.27214741316857,121.62557695265423 60.902197023358895,121.99255445072777 60.4429482636333,122.25468046412425 60.25159461372823,122.44690579894814 60.149539333811845,122.67408074922423 60.034727143865894,122.79640552256024 59.919914953934494,122.90125521687878 59.588235294111655,123.04105464948952 59.460666194194346,123.14590410401433 59.23104181430244,123.49540154333226 58.92487597448053,123.89732218658173 58.73352232457546,124.0545950706146 58.59319631464314,124.07206982121716 57.30474840536772,124.03712031713076 56.73068745568162,124.07206982121716 56.39900779588788,124.0545950706146 55.82494684620178,124.14196879512747 55.569808646367164,124.26429188954353 55.45499645640666,124.35166544275853 55.40396881644847,124.40408954046143 55.352941176490276,124.59631101198465 55.31467044647434,125.01570211450598 55.3274273564748,126.09912151729077 55.301913536473876,126.22144237325847 55.22537207652931,126.34376308933133 54.79163713674643,126.57092976229615 54.43444365696632,126.72819871479442 53.45216158751282,127.28737533961248 53.24805102762184,127.35727221215348 52.71226080793713,127.47959162919142 52.50815024804615,127.56696255572751 51.768249468441354,128.19603111967444 51.25797306874301,128.49308998874767 50.785967399016954,128.92993976797152 50.734939759000554,128.964887673239 50.67115520905645,128.94741372206045 50.19914953933039,128.66783011452208 49.05102763995819,128.19603111967444 48.719347980149905,128.09118661598768 48.00496102053148,127.75917834279244 47.23954642098397,127.33979799832741 45.04535790218506,126.62335277214152 44.59886605243082,126.51850672677392 44.42026931254077,126.43113494372665 44.1651311126916,126.41366057856794 44.063075832731556,126.39618621055706 43.297661233184044,125.97680052139185 41.945428773906315,125.38266798003315 41.38412473423523,125.03317670807155 40.22324592486257,124.63126033334993 39.6874557051633,124.38661484405748 38.94755492558761,124.12449405591906 38.4245216158597,123.86237262538634 37.95251594611909,123.74004907128983 36.574769666884094,123.0585295656856 35.82211197732249,122.79640552256024 35.069454287717235,122.37700571715686 34.6867469879362,122.28963055065833 34.31679659814108,122.16730519769044 33.46208362861944,121.80032829924312 32.9007795889338,121.50325084013457 32.237420269302675,121.29354860742751 30.362154500340694,120.40230953092396 29.405386250844458,119.8256214648136 28.856839121188386,119.52853852019325 27.96385542167991,118.96932132675283 26.70092133236176,118.06058715054678 26.152374202676583,117.7110719497141 25.39971651310043,117.13436937092047 24.851169383400702,116.59261563057953 24.659815733524738,116.45280776824802 24.4429482636624,116.31299972306442 23.945428773906315,116.10328731266054 23.817859673989005,116.01590702022077 23.65201984407031,115.75376571468223 23.44790928416478,115.54405220753688 22.733522324604564,115.08967153129197 22.082919914930244,114.51295481568377 21.54712969524553,114.0935225235371 21.304748405367718,113.9537113938859 20.36073706590105,113.58670630892448 19.888731396160438,113.42941802979476 19.3274273564748,113.0973642362951 19.110559886597912,112.94007523739856 18.931963146693306,112.71287960837799 18.715095676816418,112.53811341139226 18.625797306885943,112.38082358990505 18.60028348688502,112.22353353705694 18.676824946858687,111.99633638563682 18.638554216871853,111.68175491753209 18.638554216871853,111.50698703533999 18.702338766801404,111.38464934787044 18.766123316803714,111.34969569717941 19.110559886597912,111.2797883614985 19.56980864633806,111.05258920497727 19.697377746284474,111.03511232675373 19.78667611621495,111.07006608029042 19.837703756202245,111.1399735530722 19.863217576174065,111.19240412768704 19.863217576174065,111.31474203508697 19.21261516652885,111.94390620524064 18.84266477676283,112.32839359798527 18.472714386924054,112.87016894140106 17.541459957457846,114.14595164996717 17.46491849751328,114.21585711202351 17.362863217567792,114.23333347036532 17.12048192768998,114.21585711202351 17.031183557759505,114.23333347036532 16.916371367842657,114.3207152193063 16.7377746279235,114.53043112550222 16.673990077950293,114.652765214174 16.64847625794937,115.03724286750366 16.559177888004342,115.35181446477509 16.355067328113364,115.82367012568284 16.138199858236476,116.17319149517425 15.997873848318704,116.59261563057953 15.806520198428188,117.06446581670752 15.768249468470458,117.30912805652042 15.742735648469534,117.53631392090028 15.781006378441816,117.90330545152392 15.768249468470458,118.28777141853789 15.69170800849679,118.61980909587146 15.615166548537672,118.79456535406644 15.525868178592646,118.8994189719524 15.104890148810227,119.23145475028286 14.913536498948815,119.40621000900865 14.785967399016954,119.59844046377839 14.683912119071465,119.84309690647933 14.645641389055527,120.01785116575775 14.696669029042823,120.41978487834422 14.74769666903012,120.6294888243574 14.836995038975147,120.71686534721084 15.15591778876842,120.64696413461934 16.584691708005266,120.52463690272998 16.99291282775812,120.54211223016318 17.094968107703608,120.6294888243574 17.094968107703608,120.7343406431828 16.814316087868065,121.29354860742751 16.482636428030673,121.88770386550459 15.883061658401857,123.00610480846808 15.487597448605811,123.72257426643046 15.130403968825703,124.26429188954353 14.467044649165473,125.53993867986719 13.880226789522567,126.55345541995484 13.26789510983508,127.70675588967424 13.0,128.42319385847804 13.0,128.52803803675488 13.242381289877812,128.61540810678707 13.663359319602023,128.84256995487522" stroke="#4dd2ff" stroke-linecap="round" stroke-linejoin="round" stroke-width="0.5"><title>2022-10-07 10.6km</title></polyline><polyline fill="none" points="140.6429107276781,126.28027327228483 141.5746436608897,126.18778868983645 142.0337584396475,126.05831014748401 142.26331582898274,125.9473284219057 142.43885971492273,125.79935261850187 142.54688672168413,125.59588557302777 142.58739684923785,125.37392110637302 142.5738934733672,124.85600232502475 142.47936984244734,123.57969235695055 142.45236309079337,123.43171345877636 142.38484621152747,123.28373436718539 142.15528882219223,122.91378579184675 141.91222805701545,122.3033679994187 141.41260315079126,121.26749997109437 141.19654913726845,120.56458412510256 141.1020255063777,120.41660128555668 140.95348837212077,120.28711614228087 140.76444111028104,120.17612875869963 140.62940735183656,120.13913294001395 140.3593398349476,120.1206350261491 138.87396849214565,120.19462666354957 138.22580645160633,120.28711614228087 138.09077269319096,120.26861825255764 138.02325581395417,120.23162246413267 137.8612153038266,120.08363918929535 137.83420855214354,119.99114954433753 138.07726931732032,119.51020217225596 138.4688672168122,118.86276979084505 138.8199549887504,118.17833724697266 139.2520630157378,117.25342182927125 139.98124531132635,116.0695190671031 140.17029257313698,115.71804555092967 140.41335333831375,115.21858130856708 140.7104276069149,114.46013139305433 140.83195798948873,114.21964621238294 141.29107276818831,113.4981876048405 141.4261065266328,113.36869454751286 141.49362340586958,113.35019552725862 141.7501875468588,113.4426905984219 142.0337584396475,113.60918153607054 143.11402850711602,114.47863023191894 143.88372093022917,115.03359399289911 143.9647411852784,115.12608768847713 144.22130532632582,115.4590643670308 144.3968492122949,115.62555233893363 144.5723930982931,115.73654418422666 144.9639909977268,115.86603453280986 145.1800450112496,116.01402332128055 145.47711927985074,116.23600614118186 146.0037509377289,116.73546589435864 147.52963240811368,117.82687027849897 148.42085521382978,118.52980312425643 149.69017254313803,119.32522186970891 151.3915978994628,120.26861825255764 151.95873968492378,120.52758843334595 152.8229557389277,120.97153593636904 154.91597899474436,121.87792334909318 155.3210802700487,122.0813970770323 156.0367591897957,122.35886066198873 156.3608402100508,122.54383600754227 156.77944486122578,122.67331856957026 159.15603900977294,123.56119500526984 159.6421605401265,123.78316302617895 160.58739684920874,124.24559500510804 161.3165791447973,124.50455608829361 161.76219054762623,124.7265222594724 162.97749437356833,125.0779678071849 163.855213803472,125.55889152547024 164.84096024004975,126.00281929827906 165.63765941484598,126.39125467150006 166.36684171043453,126.68720453750575 166.7854463615804,126.92766323397518 168.0007501875225,127.18661818210239 169.02700675168307,127.50106267985393 169.44561140282894,127.66753294275259 170.66091522880015,128.2779218124997 171.3225806451519,128.53687367205566 172.86196549140732,129.18425072972605 173.02400600147666,129.18425072972605 173.11852963239653,129.11026496763225 173.33458364591934,128.90680387258908 174.05026256563724,128.4258943762252 174.711927981989,127.85249961447698 174.95498874719488,127.72302297601709 175.5356339084974,127.53805609277333 175.87321830456494,127.39008236858353 177.08852213053615,126.7426950512745 177.6421605401556,126.42824844707502 177.73668417104636,126.33576398551668 177.80420105028315,126.24327944840479 177.8177044260956,126.13229790412151 177.80420105028315,125.22594455348008 177.83120780199533,124.87449946517881 177.87171792949084,124.6155392282526 177.97974493625225,124.37507562077371 178.16879219806287,124.20860051630007 178.39834958739812,124.13461150244984 178.76294073517784,124.07911971028079 180.3968492122949,124.07911971028079 181.4231057764555,124.0051306118039 181.55813953489996,123.9311414649419 181.62565641410765,123.83865496336512 181.7876969242352,123.57969235695055 181.94973743433366,123.39471870400303 182.1387846961734,123.08026280030754 182.2468117029348,122.96927815520758 182.43585896474542,122.85829340125201 182.69242310579284,122.76580602312606 182.94898724681116,122.50684096257464 183.09752438109717,122.2478753096002 183.19204801201704,122.13688984837063 183.75918979741982,121.84092808659625 184.1777944485948,121.41548169834277 185.3525881470705,120.76806021355878 185.87921980494866,120.50909058292018 186.01425356339314,120.50909058292018 186.37884471117286,120.67557112778013 186.62190547637874,120.73106458834809 186.91897974492167,120.71256677116617 186.9594898724754,120.6940689510011 187.0,120.56458412510256 186.94598649663385,120.28711614228087 186.8919729932677,120.19462666354957 186.79744936234783,120.08363918929535 186.3248312078067,119.88016187059111 186.1762940735207,119.88016187059111 186.08177044262993,119.91715777392528 185.98724681173917,120.04664334036352 185.8252063015825,120.37960554543679 185.7171792948502,120.50909058292018 184.20480120027787,121.34149085894751 183.8942235558934,121.67444925553718 183.786196549132,121.76693752523715 183.30007501874934,121.95191383797646 183.15153788446332,122.04440188093577 183.05701425357256,122.17388501425012 182.94898724681116,122.41435329741944 182.8949737434159,122.46984590554348 182.6384096024267,122.67331856957026 182.3953488371917,122.74730853847723 182.23330832709325,122.85829340125201 181.61215303826611,123.7276710617225 181.49062265566317,123.83865496336512 181.38259564893087,123.89414687341923 180.0727681920398,123.9866333296086 178.77644411104848,123.94963875618123 178.39834958739812,124.02362789095059 178.12828207050916,124.1531087604817 178.02025506374775,124.22709776222473 177.925731432857,124.35657839899795 177.8582145536493,124.50455608829361 177.80420105028315,124.70802509517671 177.76369092272944,124.98548224248952 177.7501875468879,125.31842992168094 177.76369092272944,126.15079483568115 177.7501875468879,126.20628561240301 177.7096774193633,126.28027327228483 177.02100525129936,126.68720453750575 175.83270817706943,127.31609543401282 175.52213053262676,127.42707581777358 175.13053263316397,127.51955938780884 174.8874718679872,127.61204288233421 174.59039759938605,127.83400296087348 174.07726931734942,128.31491497155366 173.57764441109612,128.62935633549205 173.05101275318884,129.0547756143569 172.91597899477347,129.0547756143569 170.7149287321663,128.22243205124687 170.40435108775273,128.07445922157785 169.7156789197179,127.68602962354635 168.86496624158463,127.2791019485303 167.1095273818646,126.68720453750575 165.73218304576585,126.29877017972467 163.76069017255213,125.4294122638239 163.0315078769636,125.0409735903886 161.82970742686302,124.67103075747582 161.3570892723219,124.4490644774487 160.50637659415952,124.11611424139846 159.87171792949084,123.82015765397227 158.2513128282153,123.15425250330736 157.30607651913306,122.72881105078704 156.9954988747195,122.5253384865573 156.41485371344606,122.26637287590711 155.29407351836562,121.87792334909318 153.17404351086589,121.0270292518253 151.47261815454112,120.250120359844 150.47336834209273,119.60269221023191 149.77119279818726,119.25122966407798 148.6774193548481,118.60379580142035 146.58439609903144,117.1054346611345 146.16579144788557,116.77246282549459 145.49062265566317,116.10651621579018 145.05851462867577,115.82903730552789 144.69392348086694,115.69954691460589 144.42385596397799,115.51456038487959 143.99174793699058,114.99659649342357 143.22205551387742,114.42313370620104 142.0337584396475,113.4426905984219 141.7906976744125,113.31319747762609 141.1425356339023,113.05421079161897 140.56189047262887,112.8692199388388 139.90022505627712,112.49923732624302 139.58964741186355,112.31424556642742 139.23855963992537,111.94426113985537 139.0360090022441,111.77776775333768 138.95498874722398,111.64827272787807 138.9279819955118,111.5557761904056 138.9954988747195,111.24128739762091 138.9954988747195,110.90829831172596 139.0360090022441,110.70480449922616 139.1440360089764,110.61230719077867 139.33308327081613,110.5568087694046 139.37359339836985,110.5198098067558 139.2115528882132,110.5013103208621 139.0360090022441,110.59380771998985 138.94148537132423,110.7418034014263 138.90097524379962,110.9452971474384 138.90097524379962,111.27828612447047 138.83345836459193,111.50027823166602 138.87396849214565,111.629773426459 139.23855963992537,111.98125963693747 139.40060015002382,112.22174957311654 139.5761440359929,112.36974312613893 140.27831957989838,112.79522351304331 140.9669917479332,113.03571171991643 141.18304576145601,113.14670610457688 141.2505626406637,113.20220325616538 141.27756939234678,113.27619941589364 141.29107276818831,113.33169650397758 141.26406601650524,113.38719356476213 140.77794448612258,114.31214057307807 140.34583645913517,115.07059148017288 140.15678919729544,115.53305905146408 139.7111777944374,116.19900903474627 139.23855963992537,117.0684378388687 139.06301575395628,117.41990716219152 138.76594148538425,118.15983901270374 138.23930982744787,119.15873933890543 137.8882220555097,119.75067611370469 137.7531882970652,119.9726516062874 137.6451612903038,120.04664334036352 137.17254313576268,120.04664334036352 137.2130532633164,120.36110767086211 137.19954988747486,120.52758843334595 137.1455363841087,120.71256677116617 137.01050262569333,121.04552701758075 136.69992498125066,121.63745392645797 136.01125281321583,123.00627304896625 134.90397599400603,124.81900803569442 134.2558139534667,126.15079483568115 133.891222805687,126.76119188313169 133.41860465114587,127.59354618946236 133.04051012755372,128.4258943762252 133.0,128.55537021080818 133.01350337584154,128.6478528591615 133.12153038257384,128.74033543193218 133.86421605400392,129.1472578547182 134.01275318828993,129.18425072972605 134.1747936984175,129.16575429371005 134.30982745686197,129.20274716267159 134.86346586645232,129.48019329455565 134.94448612153064,129.48019329455565 135.16054013502435,129.38771132611146 135.5386346586747,129.29522928220103 135.68717179296073,129.35071851764224 135.8897224306129,129.48019329455565 135.95723930982058,129.49868967914517 136.7539384846168,129.48019329455565 136.83495873969514,129.42470412259718 136.94298574642744,129.31372569702216 137.02400600150577,129.11026496763225 137.05101275318884,128.92530035090022" stroke="#4dd2ff" stroke-linecap="round" stroke-linejoin="round" stroke-width="0.5"><title>2022-10-01 10.2km</title></polyline><polyline fill="none" points="36.67195955911302,194.8202790100986 37.32196745771216,194.78466379512247 38.049976304144366,194.78466379512247 38.38798041144037,194.71343333025288 38.751984834700124,194.71343333025288 38.98598767819931,194.6422028188972 39.193990205734735,194.48193399798765 39.31099162748433,194.33947262607398 39.38899257534649,194.17920336004318 39.41499289125204,194.05454932353314 39.42799304926302,193.9120873929278 39.2719911535678,191.6682874228718 39.18099004775286,191.5436305145122 39.024988152086735,191.47239793140034 38.97298752021743,191.3833571370924 38.90798673036625,191.11623431768385 38.270978989690775,189.92307773076027 38.03697614619159,189.26416476313898 37.945975040405756,189.1216965706626 37.85497393459082,189.05046240459342 37.59497077512788,188.92580250194442 37.33496761569404,188.9079939328003 36.07395229235408,188.97922819199448 35.31994312995812,189.08607949349243 35.26794249805971,189.05046240459342 35.11194060239359,188.81895104330033 35.07294012847706,188.7477166793833 35.0469398125133,188.5518219384321 35.05993997049518,188.39154416121892 35.280942656012485,187.99975304676627 35.46294486764236,187.73262193394476 35.618946763308486,187.34082845068042 35.82694929087302,187.02026909856795 36.008951502502896,186.52161934333708 36.21695403003832,186.05858538473694 36.48995734748314,185.72021317085455 36.7369603489351,185.25717580726632 37.0749644562311,184.50918821786763 37.191965878009796,184.17081119325303 37.581970617146,183.60091067155736 37.841973776579835,183.19129283075745 38.231978515774244,182.47891030993196 38.257978831738,182.3186236009642 38.24497867375612,182.26519464561716 38.192978041857714,182.21176566401118 37.72497235485935,181.98023977453704 37.139965246082284,181.71309390616807 37.36096793162869,181.89119122448756 37.82897361862706,182.0336688696043 38.20597819983959,182.21176566401118 38.348979937523836,182.17614632841287 38.41398072740412,182.10490762231348 38.64798357090331,181.64185489732336 39.59699510291102,180.11020494315744 39.7789973145118,179.64714374227333 40.27300331747392,178.7032052005452 40.87101058420376,177.652396074227 41.41701721903519,176.7618719331149 41.729021010396536,176.13850070427725 42.88603506991058,174.03682285375544 43.01603664967115,173.75184646507842 43.00303649168927,173.6271690606809 42.69103270035703,173.46686933105957 42.483030172792496,173.2887582438707 42.26202748724609,173.1462691645138 41.67702037852723,172.8256680546765 41.49501816686825,172.68317836971255 41.48201800888637,172.5406884984186 41.70302069443278,172.07759512998746 41.690020536480006,172.00634982168413 41.61201958861784,172.04197248160926 41.31301595523837,172.36257589731395 41.23501500740531,172.39819844079466 41.20901469147066,172.38038717052405 41.300015797285596,172.1132177666659 41.352016429184005,171.57887699364073 41.560018956748536,171.11577953753294 41.65102006253437,170.97328761657263 41.83302227416425,170.77736092103441 41.87202274808078,170.68830321570567 41.87202274808078,170.4033180694969 41.924023379950086,169.95802728629496 41.924023379950086,169.61960507409822 41.794021800218616,168.90713382302783 41.729021010396536,168.3371534679609 41.66402022051625,168.0877861250483 41.521018482832005,167.7671701312138 41.430017377017066,167.46436527086917 41.352016429184005,167.23280804511887 41.19601453351788,166.98343817474233 41.04001263785176,166.59157008249895 40.70200853055576,166.0037653015679 40.53300647690776,165.6475184364681 40.15600189572433,164.41845781068696 40.000000000029104,164.06220576218766 39.85699826234486,163.56345093733398 39.68799620869686,163.11813220023032 39.59699510291102,162.72625020587293 39.47999368113233,161.79997807080508 39.46699352317955,161.4259043993443 39.51899415504886,161.01620319033827 39.73999684059527,160.23242267153546 39.804997630475555,159.893970249861 40.000000000029104,159.60895686877484 40.169002053677104,159.2170622524136 40.299003633408574,159.07455476966425 40.53300647690776,158.94986056935886 40.91001105812029,158.9142336287623 41.027012479898985,158.8607931960796 41.65102006253437,158.41545523734385 42.52203064670903,157.86323364032432 43.26303965112311,157.50696015690482 43.874047075834824,157.27538176787493 44.966060345526785,157.04380288660468 47.39708988639177,156.77659587347443 48.47610299810185,156.8834787573869 49.26911263441434,156.84785114110855 49.802119111292996,156.75878204932087 51.128135224455036,156.74096822224237 51.67414185931557,156.68752672347182 51.99914580860059,156.59845750067325 52.220148494147,156.59845750067325 52.35015007387847,156.45594659267226 53.63716571315308,154.19356095842522 53.819167924753856,153.83727547425224 54.079171084216796,153.21377307326475 54.09217124216957,153.16032984430058 54.02717045234749,153.0712577377417 53.6241655551712,153.0534433076682 53.234160816035,153.0 53.10415923630353,153.03562887472071 52.792155444971286,153.21377307326475 52.649153707228834,153.24940187804168 52.545152443490224,153.23158747708658 52.220148494147,153.12470101040526 52.12914738836116,153.12470101040526 52.01214596661157,153.19595866654709 51.46613933175104,153.60568928477005 50.82913159110467,153.94416124188137 50.075122428679606,154.42514589831262 49.72411816343083,154.5498452774409 49.15211121266475,154.69235867880343 48.1640992067405,154.83487189374137 47.30608878057683,154.81705775209412 46.35707724856911,154.97738492227654 45.77207013982115,154.99519903770852 44.84905892374809,155.0486413665858 44.25105165701825,155.0486413665858 43.744045496103354,155.1020836692769 43.48404233666952,155.15552594573091 43.0420369656058,155.36929478937236 42.78203380614286,155.38710884073225 42.40502922493033,155.35148073511664 42.00202432778315,155.42273693479365 41.547018798737554,155.6008772300338 41.261015323369065,155.65431926183373 41.014012321888,155.761203246715 40.52000631892588,156.11748243909824 39.453993365197675,156.68752672347182 39.024988152086735,157.00817532270594 38.72598451873637,157.328822978292 38.439981043338776,157.72072438676696 38.16697772592306,158.16606518531626 37.86797409254359,158.5045229746902 37.646971407026285,158.80735273709433 37.38696824753424,159.4130097368252 37.0749644562311,160.60650044067006 37.048964140267344,160.8558849065521 37.03596398231457,161.3012128900882 37.022963824361796,161.55059576585336 37.03596398231457,161.78216506794706 36.99696350839804,162.1562375162539 37.00996366637992,162.40561843491741 37.29596714177751,163.31407266877795 37.39996840551612,163.7950159613756 37.50396966934204,164.08001839229837 37.82897361862706,164.65002101756545 38.24497867375612,165.13095841317408 38.348979937523836,165.32689526204194 38.66098372885608,165.75439261831343 39.06398862603237,166.36001100188878 39.25899099561502,166.73406773366878 39.505993997096084,167.32186857479246 39.68799620869686,168.14122203226725 39.73999684059527,168.81807458909316 39.6619958927331,169.04962844593683 39.64899573478033,169.12087568746938 39.70099636664963,169.45929944876116 39.70099636664963,169.65522851431888 39.6619958927331,169.8689689113453 39.54499447098351,170.20739034908183 39.54499447098351,170.5101875866385 39.51899415504886,170.58143387325254 39.33699194344808,170.93766460723418 39.323991785466205,171.1870254280875 39.23299067968037,171.43638567828748 39.03798831006861,171.77480224799365 38.66098372885608,172.2378969033307 38.439981043338776,172.5763109837062 37.82897361862706,173.1106468655198 37.65997156500816,173.19970259111142 37.38696824753424,173.39562493115227 36.87996208664845,173.6449801271665 36.7369603489351,173.69841330919735 36.2299541880202,173.76965751119133 35.761948501021834,173.75184646507842 35.24194218212506,173.84090166659735 34.96893886468024,173.80527959470783 34.50093317768187,173.71622436403413 33.9809268587851,173.7340354160333 33.78592448917334,173.68060225145018 33.59092211961979,173.5559247654819 33.46092053988832,173.50249151358003 32.550909481797135,173.66279119073442 31.419895738188643,173.6449801271665 31.289894158486277,173.66279119073442 31.198893052671338,173.69841330919735 31.146892420802033,173.80527959470783 31.13389226284926,173.8765237268235 31.211893210624112,175.1054776736637 31.22489336860599,175.58636892344657 31.198893052671338,175.71104408621613 30.665886575821787,176.29879650370276 30.327882468525786,176.86873521432426 29.820876307581784,177.52772313258174 29.54787299016607,178.07984507697256 29.495872358296765,178.3648101473591 29.521872674231417,178.59634371831635 29.742875359777827,179.05940938442654 29.924877571349498,179.3265617582074 30.22388120472897,179.62933365676872 30.925889735255623,179.8608645410277 31.211893210624112,179.98553481345152 31.380895264272112,180.11020494315744 31.40689558023587,180.1992549485367 31.40689558023587,180.28830488111998 31.354894948366564,180.44859457640268 31.172892736736685,180.64450388378464 30.925889735255623,180.80479305515473 30.54888515404309,180.92946224764455 30.4318837322935,181.03632144199946 30.327882468525786,181.26784933695308 30.14588025692501,181.57061584196344 30.067879309062846,181.78433286843938 30.028878835146315,182.0336688696043 30.028878835146315,182.47891030993196 29.989878361229785,182.65700637669943 29.937877729331376,182.72824472192588 29.79487599164713,182.8351021524577 29.5868734640826,182.977578563492 29.15786825097166,183.06662622578733 29.00186635533464,183.15567381530855 28.858864617650397,183.28034031840798 28.767863511806354,183.36938773332076 28.22185687700403,184.06395507244451 28.00085419145762,184.31328585798474 27.831852137780515,184.5804253522947 27.805851821845863,184.72289948159596 27.766851347958436,185.2037482925807 27.96185371754109,186.09420345135004 28.05285482335603,186.4503834776915 28.078855139261577,186.61066410975764 28.078855139261577,186.8777979727456 28.104855455225334,187.02026909856795 28.28685766682611,187.78604820890178 28.364858614688274,187.89290068023547 28.468859878426883,187.92851814734604 28.62486177412211,187.92851814734604 28.92386540750158,187.85728320143244 29.105867619102355,187.85728320143244 29.898877255414845,187.99975304676627 30.24988152066362,188.1244140086783 30.691886891727336,188.23126614827197 31.055891314987093,188.26688350486074 31.43289589617052,188.23126614827197 31.65389858171693,188.26688350486074 31.79690031943028,188.40935281479324 31.90090158316889,188.58743919026165 31.913901741150767,188.89018536074582 31.9529022150964,189.06827095049812 32.16090474263183,189.24635624929215 32.30390648034518,189.26416476313898 32.86291327312938,189.19293069019477 33.148916748556076,189.13950510493305 33.48692085582297,189.13950510493305 34.04592764866538,189.06827095049812 34.38393175593228,189.1216965706626 34.44893254581257,189.24635624929215 34.40993207186693,189.37101578528382 34.22792986029526,189.63814288224967 33.72092369935126,190.51075350302563 33.36991943407338,191.02719323237397 33.09691611665767,191.72171176855773 32.69391121951048,192.34499386617244 31.926901899132645,193.64497077120905 31.53689715996734,194.4997416564147 31.159892578754807,195.14081542108033 31.003890683088684,195.53258086546703 30.63988625985803,196.28049280353298 30.158880414877785,197.13524301983853 29.664874411944766,198.2748995479633 29.521872674231417,198.7556885717495 29.131867935037008,199.46796470867412 28.936865565454355,199.91313493053167 28.507860352372518,201.0349558257949 28.364858614688274,201.4801196477856 28.260857350862352,201.7116041166737 28.143855929141864,202.06773310896097 27.883852769708028,202.7265686771425 27.79285166389309,202.86901908717846 27.727850874012802,202.94024422246002 27.415847082680557,203.01146931111725 27.376846608764026,203.04708183799812 27.311845818912843,203.15391934887157 26.94784139568219,204.36473715332977 26.68783823621925,204.91672315949836 26.60983728838619,205.16600624605053 26.44083523476729,205.41528876252414 26.3758344448579,205.5221239522216 26.128831443435047,206.3411902611333 25.93382907382329,206.80413806111028 25.907828757859534,207.0 25.985829705692595,206.62608144766273 26.193832233257126,206.19874438863917 26.414834918803535,205.55773565890559 26.68783823621925,205.00575289870903 27.402846924727783,203.225144297925 27.467847714549862,203.1005006064879 27.53284850443015,203.04708183799812 27.68885040009627,202.99366304331488 27.805851821845863,202.88682537536806 28.45585972047411,201.24863468723925" stroke="#4dd2ff" stroke-linecap="round" stroke-linejoin="round" stroke-width="0.5"><title>2022-09-23 10.4km</title></polyline><polyline fill="none" points="139.93724420190847,180.7742498326188 141.05457025922078,180.70697447136627 141.3738062755874,180.62288020799315 141.49658935879415,180.55560474780214 141.59481582538865,180.4378725867209 141.66848567526904,180.33695919858292 141.70532060027472,180.15195106348256 141.68076398363337,180.01739948360046 141.54570259210595,179.71465778585844 141.5211459754355,179.58010563438438 141.55798090041208,178.755969869002 141.47203274216736,178.28503218340484 141.2633015006868,177.88136959516123 141.00545702589443,177.15813683245506 140.55115961801494,176.3003425494826 140.39154160984617,175.79575433794525 140.31787175989302,175.59391836073337 140.2319236016483,175.49300022369425 140.1582537517097,175.42572141071287 140.0231923601532,175.35844255373377 139.88813096862577,175.32480310877872 137.56753069577098,175.52663961370854 137.1500682128244,175.45936082270782 137.1255115961685,175.3920819877676 137.18690313780098,175.32480310877872 137.33424283763452,175.2070649648158 137.97271487039689,174.21469525719294 138.09549795360363,173.91193649257912 138.30422919509874,173.55871680825658 138.54979536154133,172.90273417871504 139.48294679399987,171.10296549445047 139.64256480216864,170.68245425713394 140.13369713503926,169.99281210864865 140.55115961801494,169.25270319920674 140.68622100954235,169.11813737115153 140.77216916781617,169.10131663028733 141.16507503410685,169.2695239153254 141.3124147339695,169.3704481544264 141.68076398363337,169.70686156998272 142.17189631651854,170.1105562172088 143.01909959071781,170.6992747395998 143.41200545702304,171.17024713305 143.65757162346563,171.30481027818314 143.9399727148848,171.37209178480407 144.11186903135967,171.4730139622552 144.45566166439676,171.77577990083228 144.885402455664,172.17946643362666 145.5729877216654,172.68407237315114 146.30968622100772,173.17185576327756 146.93587994544941,173.69327683093434 148.70395634378656,174.76975067952299 149.62482946793898,175.27434392071154 150.5948158253741,175.76211503589002 151.85948158251995,176.31716211396997 153.21009549795417,176.8385672488148 153.63983628922142,177.04040078549588 154.62210095499177,177.37678913384298 155.49386084581784,177.84773097473226 156.73396998635144,178.33548989560222 157.97407912688504,178.95779964610847 158.63710777625965,179.19326721929247 159.03001364256488,179.37827707744145 159.61937244203,179.58010563438438 160.4051841746259,179.78193379564618 161.10504774897709,180.18558893092268 162.3206002728548,180.70697447136627 162.67667121418344,180.89198160899105 163.0818553888239,181.07698841411184 164.81309686221357,181.58155073806847 165.80763983627548,181.96838017830305 167.64938608459488,182.84294572822546 168.70532060028927,183.22977042838465 169.94542974080832,183.83523225834506 170.20327421555703,183.90250557519903 170.48567530696164,183.95296053397033 171.0995907230681,184.17159840293607 171.6030013642594,184.52478167185473 171.89768076398468,184.6761455590895 172.95361527967907,184.99569081224763 173.40791268760222,185.19750835581362 173.94815825375554,185.3656893399093 174.45156889494683,185.58432420840836 174.9672578444879,185.752504560558 175.50750341065577,186.12250036813202 175.8512960436783,186.27386190608377 176.71077762619825,186.5765843144618 178.29467939972528,187.29975090883818 179.0068212824117,187.5688348564654 180.02592087314406,188.02291242326464 180.72578444749524,188.27517687266663 181.0818553887948,188.47698798713827 181.54843110506772,188.66198116121086 182.05184174625902,188.94787904906843 182.60436562074756,189.1328713770272 182.98499317874666,189.23377614306082 183.3778990450228,189.45240279682184 184.17598908595392,189.78875058826088 184.55661664393847,189.99055873566977 185.452933151435,190.34372204179817 185.79672578445752,190.52871186147968 186.88949522511393,190.93232485974295 187.0,190.91550768305024 186.98772169166477,190.84823894889269 186.9508867667173,190.78097017078835 186.0422919509001,190.52871186147968 184.50750341064122,189.95692407194292 183.75852660300734,189.63739421808714 183.48840381993796,189.46922021247155 182.76398362891632,189.23377614306082 181.37653478854918,188.66198116121086 181.06957708048867,188.5610758347757 180.77489768077794,188.3088120859029 180.41882673942018,188.12381827717763 179.3874488403817,187.7538296624698 178.60163710777124,187.36702196169063 177.43519781720534,186.91294150191243 176.67394270122168,186.52613064152683 175.43383356070262,186.07204647268372 174.95497953615268,185.80295861260674 174.54979536152678,185.63477834293008 173.53069577080896,185.29841697923257 172.7694406548544,184.9788726657789 171.82401091406064,184.6761455590895 171.03819918143563,184.3229628094341 170.71896316508355,184.20523495694943 170.39972714871692,184.0370520769793 169.933151432444,183.8184139222867 169.71214188267186,183.6670487739175 169.39290586629068,183.48204662365606 168.7789904501842,183.24658886060934 168.28785811732814,183.12885977715632 167.62482946792443,182.82612723000784 167.34242837651982,182.7083976656795 166.42155525238195,182.27111524796055 165.8690313778934,182.0356547151241 163.90450204639637,181.3797261052605 163.1555252387625,181.14426353354065 162.8362892223813,181.07698841411184 162.51705320600013,180.87516279205738 161.93997271485568,180.58924248339463 160.957708049129,180.18558893092268 160.18417462485377,179.78193379564618 159.27557980900747,179.49601045042073 158.89495225100836,179.29418172859732 158.21964529332763,179.05871438624308 157.31105047751043,178.68869318867655 156.94270122784656,178.52050129554846 156.57435197818268,178.31867066097038 155.35879945429042,177.78045370076143 154.89222373806115,177.59544097077742 154.70804911323648,177.49452479604952 154.49931787177047,177.44406667156727 153.90995907230536,177.1749562567711 153.54160982264148,177.07403966979473 152.69440654842765,176.68719183655776 151.41746248294658,176.21624468601658 149.93178717597038,175.45936082270782 149.44065484311432,175.2407044482461 148.0900409277092,174.38289418610657 147.09549795361818,173.84465664619347 145.2414733969781,172.48223029425571 144.76261937245727,172.0785449488394 144.57844474758895,171.87670168245677 144.3328785811609,171.6580376971906 143.9399727148848,171.42255288586603 143.55934515688568,171.30481027818314 143.46111869030574,171.23752872758632 143.3628922237258,171.11978590823855 143.21555252386315,170.80019757675473 143.04365620735916,170.6151722997165 142.92087312413787,170.53106979107542 142.49113233287062,170.34604403026606 142.31923601636663,170.2283001911128 141.1159618008096,169.23588248030137 140.89495225100836,169.1349581093018 140.69849931786302,169.06767514025705 140.57571623464173,169.10131663028733 140.51432469303836,169.1685995772641 140.0845839017711,170.0937356384893 139.6548431105184,170.7497361705391 139.42155525238195,171.22070833303587 139.12687585267122,171.69167834056134 138.9181446111761,172.14582594975218 138.5375170532061,172.78499326422025 138.41473396999936,173.0709352515405 138.26739427009306,173.50825675446686 138.0832196452975,173.84465664619347 137.94815825374098,174.21469525719294 137.72714870396885,174.58473253803095 137.5798090040771,174.78657049411413 137.4447476125497,175.07250692110392 137.29740791268705,175.29116365285154 137.21145975441323,175.37526227212948 137.02728512960311,175.3920819877676 136.96589358797064,175.42572141071287 136.87994542975503,175.7452953807515 136.20463847203064,176.9394840665991 135.86084583902266,177.69635704653774 135.60300136424485,178.13365889831766 135.30832196451956,178.5541396961271 135.1732605729776,178.82324650532246 134.92769440654956,179.22690540002077 134.4120054570085,180.28650246744655 134.25238744881062,180.55560474780214 134.17871759893023,180.74061215748952 133.99454297407647,181.00971325070714 133.74897680763388,181.56473203379574 133.38062755797,182.187022262362 133.22100954977213,182.57384942731733 133.0245566166559,182.91021969349822 133.01227830830612,182.99431208836177 133.0,183.11204132568673 133.0491132332827,183.1624966718955 133.35607094135776,183.2634072901492 133.52796725783264,183.3643178094717 133.88403819917585,183.48204662365606 134.0927694406564,183.46522822984844 134.20327421554248,183.48204662365606 134.37517053203192,183.58295692862157 134.70668485674832,183.73432220063842 134.78035470667237,183.73432220063842 135.35743519780226,183.5325017885043 135.49249658932968,183.54932017132523 135.68894952248957,183.68386713470682 135.81173260571086,183.73432220063842 136.25375170531333,183.7511405504847 136.47476125511457,183.71750384808547" stroke="#4dd2ff" stroke-linecap="round" stroke-linejoin="round" stroke-width="0.5"><title>2022-09-16 10.1km</title></polyline><polyline fill="none" points="45.70578043506248,243.83540361634368 45.70578043506248,243.90518592866283 45.64464707324805,243.98892462823278 45.583513711433625,244.01683750983648 45.13520239153877,243.96101173746138 45.08425792338676,243.90518592866283 45.08425792338676,243.86331654807873 45.186146859734436,243.5423172820374 45.24728022150521,243.40275200752512 45.389924732386135,243.16549051755283 45.502002562381676,243.0398812265994 45.63445817962929,242.92822836854612 46.001258350443095,242.6770089042111 46.388436308538076,242.38391859544936 46.71448090480408,242.23039469905052 46.97939213929931,242.16061101853848 47.16279222469893,242.16061101853848 47.52959239552729,242.10478403308662 48.16130380083632,242.0908272810484 48.89490414249303,242.02104348650755 49.047737547021825,241.96521640988067 49.15981537698826,241.88147572647722 49.26170431332139,241.7419077384111 49.29227099423588,241.65816683608864 49.30245988785464,241.50464163531433 49.24132652605476,240.75096846569795 49.25151541965897,240.30434419026278 49.23113763242145,240.01124574039568 49.00698197247402,239.6623177030997 48.87452635524096,239.32734544625418 48.72169295071217,239.02028639024502 48.37527056716499,238.3922076103263 48.3039483117318,238.18284699071228 48.22243716265075,237.90369869966526 48.120548226317624,237.75016675073857 47.96771482180338,237.62454949638777 47.77412584275589,237.56871954621602 46.94882545838482,237.59663452583482 46.07258060584718,237.69433688274148 46.0420139249909,237.66642193500593 45.89936941409542,237.47101704567467 45.83823605228099,237.24769662475592 45.86880273321003,237.1220786314152 45.960502775909845,236.9825028665873 46.07258060584718,236.73126591512846 46.17446954220941,236.5777318587643 46.45975856397126,235.94963511804963 46.765425372999744,235.23778656165814 47.2544922674133,234.42822609144787 47.60091465098958,233.68844860739046 48.29375941808394,232.52991627695155 48.33451499263174,232.43220801246935 48.3447038862505,232.36241632654128 48.32432609899843,232.2926245835115 48.263192737184,232.25074951037823 47.92695924727013,232.09720739987097 47.631481331874966,231.99949864036898 46.98958103291807,231.62262094945618 46.928447671132744,231.56678707603714 46.82655873479962,231.41324373592215 46.6125919684564,231.23178306899354 46.50051413850451,231.0503220165774 46.4495696703234,230.99448776898498 45.9299360949808,230.68739875506435 45.62426928598143,230.4501019425661 45.42049141328607,230.32447395138297 45.043502348838956,229.9615476055551 44.59519102892955,229.65445487757825 44.52386877349636,229.55674332347553 44.37103536898212,229.19381371523923 44.29971311354893,229.09610163414618 44.19782417721581,229.02630722205504 43.85140179365408,228.90067713655299 43.63743502733996,228.77504686623433 43.301201537426095,228.52378577128547 42.638923451217124,228.1189746745149 42.496278940321645,227.95146607324568 42.46571225943626,227.85375257075793 42.45552336577384,227.7839571434306 42.496278940321645,227.63040700247075 42.567601195769385,227.54665226377256 42.93440136661229,227.3512242206998 43.33176821831148,227.23955085244233 43.729135070054326,227.23955085244233 44.56462434802961,227.18371411360567 45.02312456157233,227.2255916711656 45.848424945928855,227.25351003148535 47.22392558651336,227.11391813863884 48.242814949917374,226.8905706355872 48.76244852524542,226.68118182094622 48.96622639792622,226.54158899263712 49.30245988785464,226.27636199029075 49.73039342049742,226.0390529215656 50.300971463977476,225.45275710121496 50.60663827302051,224.99209327586868 50.718716102986946,224.7966593871388 50.73909389023902,224.71290186936676 50.759471677505644,224.5035077154971 50.81041614568676,224.3080727086999 50.82060503932007,223.93116107538663 50.86136061386787,223.72176500475325 50.912305082019884,223.6240466627787 51.136460741981864,223.34485078380385 51.177216316515114,223.23317217663862 51.2485385719483,222.66081702277006 51.23834967832954,222.33973806178983 51.136460741981864,221.8790574439554 51.0447606992675,221.2648127543871 50.93268286930106,220.95768875286012 50.8817384011345,220.72036490419123 50.790038358434686,220.53888151609863 50.63720495390589,220.30155650357483 50.2398381021776,219.5476962064131 50.04624912314466,219.0032374085058 49.76096010138281,218.03995564684737 49.53680444143538,217.42568334232055 49.38397103695024,216.8253675027081 49.34321546237334,216.15524251076567 49.373782143287826,215.68056745961803 49.47567107962095,215.2617343408856 49.54699333506869,215.03835583759792 49.57756001596863,214.87082157660188 49.8322823568451,214.2984103715571 49.92398239954491,214.172758617824 50.08700469767791,214.07502934820513 50.260215889444225,214.0471066791797 50.372293719425215,214.08899067925813 50.20927142127766,214.21464255626051 50.11757137857785,214.21464255626051 49.679448952301755,213.76787948690617 49.07830422790721,213.20942236305564 48.92547082339297,213.06980751141236 48.77263741887873,213.0 48.68093737617892,213.0 48.57904843984579,213.06980751141236 48.15111490721756,213.61430414193455 47.96771482180338,213.76787948690617 47.82507031093701,214.0052226585758 47.73337026820809,214.21464255626051 47.62129243824165,214.63348081093136 47.590725757341716,214.842899167852 47.50921460828977,215.10816168265592 47.36657009739429,215.55491773970425 47.36657009739429,215.9597883974784 47.39713677827967,216.69971946728037 47.41751456556085,216.81140661898826 47.53978128917515,217.20231049966242 47.712992480941466,217.84450584745355 47.83525920455577,218.15164104568976 48.00847039632208,218.48669636569684 48.15111490721756,218.7240264220236 48.69112626981223,219.44997308806342 48.86433746157854,219.7291817009973 49.047737547021825,219.98046867206722 49.20057095150696,220.2875961881582 49.45529329236888,220.97164895869355 49.50623776053544,221.22293227377668 49.56737112234987,221.82321720019536 49.49604886691668,222.07449800959876 49.49604886691668,222.70269679823105 49.445104398721014,223.21921234046022 49.41453771783563,223.30297132322448 49.25151541965897,223.5263282089727 49.17000427060702,223.8334429730021 49.02735975974065,224.14055663256295 48.43640392895031,224.852497686712 48.19187048176536,225.0618909849145 47.95752592818462,225.22940525380545 47.68242580005608,225.39691919415782 47.26468116106116,225.57839225873613 47.0914699692803,225.6202706034819 46.63296975575213,225.67610836454696 46.33749184034241,225.66214892770222 45.960502775909845,225.7179866613733 45.7669137968478,225.7179866613733 45.42049141328607,225.64818948854372 44.98236898702453,225.6342300471515 44.84991336980602,225.59235170925967 44.63594660347735,225.48067604109383 44.534057667144225,225.4667165723149 44.26914643266355,225.55047335079144 44.08574634724937,225.57839225873613 43.43365715465916,225.6063111574913 42.924212472949876,225.59235170925967 42.83251243025006,225.6063111574913 42.7815679620835,225.64818948854372 42.77137906846474,225.7459055145373 42.801945749350125,225.96925601116527 42.84270132389793,227.0580813176639 42.81213464298344,227.23955085244233 42.75100128116901,227.33726505767117 42.567601195769385,227.50477486359887 42.38420111035521,227.7281207604974 41.66078966234636,228.7052521917867 41.51814515146543,229.040266109012 41.457011789651006,229.36131987987756 41.47738957693218,229.43111401819624 41.50795625784667,229.5009080995078 41.85437864139385,230.1011348441316 41.9766453649936,230.2686392293108 42.03777872680803,230.31051527429372 42.44533447215508,230.4501019425661 42.89364579206449,230.63156427026115 42.97515694114554,230.71531598374713 42.995534728397615,230.79906761513848 42.9853458347643,230.84094340002775 42.924212472949876,230.95261205938004 42.81213464298344,231.06428057274752 42.5777900894027,231.20386600909842 42.31287885492202,231.31553419394913 42.221178812222206,231.41324373592215 42.068345407693414,231.70637169116526 41.92570089682704,232.04137383668422 41.89513421591255,232.23679114811966 41.90532310954586,232.51595796028414 41.874756428660476,232.62762442967505 41.83400085411267,232.69741589888145 41.74230081142741,232.7951238599926 41.64041187506518,232.85095693041512 41.49776736419881,232.90678996439237 41.23285612971813,232.9626229618225 41.08002272521844,233.0603306195626 40.70303366074222,233.45116013267398 40.519633575342596,233.75823920983385 40.264911234466126,234.0094849063098 40.213966766314115,234.14906552944012 40.19358897903294,234.63759591418784 40.2852890217473,235.29361803538632 40.37698906447622,235.6006904885653 40.38717795809498,235.72631071936485 40.366800170813804,235.94963511804963 40.49925578804687,236.36836679170665 40.560389149861294,236.66147774187266 40.641900298942346,236.77313879167923 40.81511149072321,236.8289692617982 41.03926715067064,236.77313879167923 41.31436727878463,236.77313879167923 41.681167449612985,236.84292687365087 42.190612131293165,236.9964604533161 42.45552336577384,237.02437561997067 43.026101409283,237.02437561997067 43.13817923927854,237.03833319990372 43.26044596287829,237.1220786314152 43.35214600559266,237.23373907907808 43.37252379284473,237.34539938074886 43.39290158012591,237.61059201225726 43.41327936739253,237.69433688274148 43.48460162284027,237.7920391278385 43.576301665540086,237.84786893198907 43.67819060188776,237.86182637733873 43.90234626183519,237.84786893198907 44.7174577525584,237.69433688274148 45.186146859734436,237.66642193500593 45.25746911516762,237.66642193500593 45.308413583319634,237.70829435314226 45.33898026421957,237.77808167108014 45.31860247695295,237.8757838203892 44.81934668889153,238.7690554324654 44.41179094352992,239.57857476203935 43.800457325487514,240.63931261575635 43.07704587747867,241.99312995276705 42.81213464298344,242.53744221592933 42.5777900894027,243.1096641888289 42.251745493136696,243.64001283856487 42.1396676631266,243.89122947074065 42.08872319497459,244.07266324567172 42.04796762042679,244.18431460794818 41.82381196047936,244.54718052742828 41.33474506606581,245.5659881391548 40.784544809837826,246.91972739951598 40.62152251167572,247.38027297900408 40.489066894428106,247.68730198597768 40.37698906447622,248.03619724541932 40.19358897903294,248.52464821476315 40.15283340449969,248.58047100483236 40.0815111490665,248.60838238621363 39.95924442546675,248.59442669667624 39.89811106365232,248.60838238621363 39.83697770185245,248.69211647560587 39.673955403704895,249.16660809859604 39.49055531829072,249.6271415653464 39.33772191379103,250.17140518894303 39.093188466562424,250.7156653451675 39.011677317510475,250.9668611709276 38.869032806614996,251.24596677771478 38.706010508481995,251.63671309531492 38.67544382758206,251.8041752558056 38.68563272120082,252.05536788101017 38.67544382758206,252.22282922079467 38.69582161484868,252.3763351606467 38.67544382758206,252.48797567089787 38.03354352862516,254.0648822949952 37.19805425066443,256.3813472082402 36.86182076073601,257.19069966149254 36.60709841987409,257.9302736475365 36.433887228078675,258.36285169098846 36.01614258909831,259.3256788283761 35.4455645455746,260.94432028810115 35.2010310983751,261.5024654057561 34.77309756576142,262.6326981021557 34.71196420394699,262.74432521156996 34.661019735765876,262.8001387116019 34.44705296945176,262.8699055353645 34.37573071401857,262.9536256487045 33.92741939413827,264.0140733174703 33.59118590420985,264.9489307418189 33.50967475514335,265.25589662067796 33.16325237158162,266.09307068551425 33.08174122250057,266.17678764088487 32.9085300307197,266.17678764088487 32.23606305086287,266.0651650154832 30.96245134662604,265.8837779382811 30.330739941317006,265.95354224430776 30.14733985590283,265.99540080058796 29.811106365988962,266.13492917346593 29.27109500336519,266.4418907918007 29.057128237051074,266.6372294293178 28.934861513465876,266.79070947411674 28.782028108937084,266.9441892432078 28.751461428037146,267.0 28.80240589621826,266.97209462619503 29.15901717339875,266.553512925042 29.342417258842033,266.40003245421394 29.790728578722337,266.13492917346593 30.14733985590283,265.98144795078406 30.62621785669762,265.89773080402665 30.901317984811612,265.8837779382811 31.746996156449313,265.98144795078406 32.96966339253413,266.17678764088487 33.08174122250057,266.1628348207014 33.17344126521493,266.1070235170919 33.29570798880013,265.855872199907" stroke="#4dd2ff" stroke-linecap="round" stroke-linejoin="round" stroke-width="0.5"><title>2022-09-11 10.3km</title></polyline></svg>