<?xml version="1.0" encoding="utf-8" ?>
<svg baseProfile="full" height="300mm" version="1.1" viewBox="0,0,200,300" width="200mm" xmlns="http://www.w3.org/2000/svg" xmlns:ev="http://www.w3.org/2001/xml-events" xmlns:xlink="http://www.w3.org/1999/xlink"><defs /><rect fill="#222222" height="300" width="200" x="0" y="0" /><text fill="#FFFFFF" style="font-size:12px; font-family:Arial; font-weight:bold;" x="10" y="20">Over 10km Runs</text><text fill="#FFFFFF" style="font-size:4px; font-family:Arial" x="10" y="280">ATHLETE</text><text fill="#FFFFFF" style="font-size:9px; font-family:Arial" x="10" y="290">ChiZhang9797</text><text fill="#FFFFFF" style="font-size:4px; font-family:Arial" x="120" y="280">STATISTICS</text><text fill="#FFFFFF" style="font-size:3px; font-family:Arial" x="120" y="285">Number: 5</text><text fill="#FFFFFF" style="font-size:3px; font-family:Arial" x="120" y="290">Weekly: 1.0</text><text fill="#FFFFFF" style="font-size:3px; font-family:Arial" x="141" y="285">Total: 51.5 km</text><text fill="#FFFFFF" style="font-size:3px; font-family:Arial" x="141" y="290">Avg: 10.3 km</text><text fill="#FFFFFF" style="font-size:3px; font-family:Arial" x="167" y="285">Min: 10.1 km</text><text fill="#FFFFFF" style="font-size:3px; font-family:Arial" x="167" y="290">Max: 10.6 km</text><polyline fill="none" points="23.014883061638102,78.2253588885651 25.328136073687347,78.08556356748159 25.617292700218968,77.99236661063333 25.838412473443896,77.78267323500768 26.008504606608767,77.4797822591936 26.04252303330577,77.1535912581603 25.889440113387536,76.1983133196918 25.872430900053587,75.84881979208149 25.7703756201372,75.21972928386822 25.821403260080842,74.6139358010114 25.787384833442047,74.45083711591724 25.345145287021296,73.49554107134463 24.98795180724119,72.8897402635921 24.630758327431977,72.21403632643342 24.426647767541,71.74803174557746 24.290574060956715,71.14222351362696 24.20552799431607,70.9325200644671 24.069454287731787,70.76941716854344 23.78029766122927,70.60631408610789 23.542168674699496,70.55971317112562 20.71863926295191,70.79271759364929 20.616583982977318,70.69951587032119 20.429482636449393,70.41991033480735 20.344436569779646,70.16360477895068 20.3274273564748,69.9538998905773 20.37845499647665,69.79079587530578 20.905740609479835,68.95197227831522 21.34798015592969,67.99663939361926 21.688164422404952,67.15780524193542 22.334514528687578,65.89954476155981 22.776754075137433,65.13060233532451 23.031892274942948,64.61797174744424 23.218993621558184,64.1053393164475 23.899362154479604,63.103370606928365 24.426647767541,62.14799853583099 24.579730687459232,61.96158372682112 24.68178596740472,61.86837623085012 24.919914953934494,61.93828185852908 25.49822820693953,62.24120584891352 26.501771793031367,63.149973958861665 27.845499645656673,64.1053393164475 28.20269312543678,64.59467031325039 28.542877391912043,64.92089004484296 28.815024805109715,65.0606982728059 29.32530120483716,65.24710903015512 29.801559177867603,65.59662854325143 30.464918497542385,66.20246033644071 32.19985825652839,67.41411620072904 32.60807937633945,67.64712576344027 33.526576895819744,68.39275380542676 34.87030474838684,69.18497932799801 35.53366406803252,69.62769167344959 35.99291282775812,69.83739704158506 37.5407512402453,70.76941716854344 38.27214741316857,71.04902201870573 38.8844790928124,71.35192665438808 42.72856130404398,72.98294055543374 43.834160170081304,73.30914109687728 44.24238128986326,73.56544099896564 44.905740609479835,73.93824003401096 47.831325301202014,75.19642958210898 49.29411764704855,75.68572251939622 49.906449326721486,75.9886173059349 50.51878100639442,76.33811049092037 51.79447200562572,76.61770442214038 52.20269312543678,76.75750118221913 53.376328844809905,77.45648292674741 54.618001417431515,77.94576810934814 55.60453579024761,78.45835078577511 57.45854004251305,79.1573241934675 58.223954642075114,79.3670155476284 59.38058114811429,79.76309837546432 60.11197732106666,80.08928340763669 61.30262225374463,80.69505363074131 62.28915662650252,81.06783402750443 63.377746279235,81.55710681936762 64.2622253720765,81.90658635730506 64.38128986535594,81.92988496275211 64.58540042521781,81.83669051826291 64.82352941177669,81.58040548194549 65.62296243797755,80.9513402582088 66.18426647767774,80.41546769370325 66.4904323175142,80.18247899402922 66.84762579729431,80.0193866778136 67.74911410346976,79.83299523085589 70.28348688871483,78.43505161313806 70.45357902193791,78.41175243677571 70.69170800849679,78.64474402950145 70.86180014171987,78.71464143304911 70.9808646349993,78.69134230236523 73.46420978027163,77.87587032892043 74.00850460666697,77.6428774799424 75.67540751237539,77.03709429116861 76.1006378455204,76.85069894613116 77.59744861800573,76.52450650597166 78.53295535081998,76.45460802888556 79.36640680371784,76.5478059907764 80.47200566972606,76.7342017316987 80.99929128275835,76.89729780517519 81.30545712259482,77.03709429116861 81.9347980155726,77.38658490648959 82.49610205527279,77.87587032892043 82.88731396169169,78.13216202305921 83.10843373491662,78.24865809539915 83.38058114811429,78.36515407252591 84.77533664068324,78.52824828075245 85.20056697377004,78.50494911953865 85.52374202691135,78.45835078577511 85.77888022677507,78.34185488476942 85.93196314672241,78.2253588885651 85.98299078669515,78.13216202305921 86.0,78.03896509666811 86.0,77.99236661063333 85.93196314672241,77.92246885302302 85.79588944007992,77.89916959289985 84.50318922748556,77.96906736186065 84.28206945428974,77.94576810934814 84.06094968106481,77.85257106118661 83.7717930545914,77.59627886452654 83.14245216158452,77.22348939262156 82.18993621543632,76.45460802888556 81.73068745571072,76.12841468265106 81.49255846918095,76.01191687822575 80.99929128275835,75.89541897864547 80.69312544295099,75.75562137343513 80.0978029765829,75.28962836629944 79.57051736355061,74.73043474761653 79.48547129693907,74.56733619577426 79.48547129693907,74.42753728854586 79.53649893688271,74.28773824429663 79.74060949680279,74.00813974461926 79.89369241672102,73.93824003401096 80.26789510986418,73.91494012287876 80.31892274980783,73.86834028917656 80.30191353650298,73.70524075136927 80.69312544295099,71.14222351362696 80.30191353650298,71.21212459477829 79.85967399005312,71.32862632061006 79.06024096385227,71.74803174557746 78.36286321756779,72.16743593687715 77.86959603114519,72.65673926763702 77.25726435150136,73.00624061883718 77.00212615166674,73.26254106526903 76.86605244508246,73.56544099896564 76.71296952516423,73.72854069675668 76.55988660524599,73.86834028917656 76.11764705882524,74.05473953265755 75.94755492560216,74.1945388053573 75.64138908573659,74.66053539111454 75.23316796598374,75.19642958210898 74.97802976612002,75.40612676081946 74.79092841953388,75.42942642829439 73.07299787382362,75.38282708951738 72.30758327426156,75.42942642829439 71.86534372784081,75.40612676081946 71.09992912827875,75.52262506016996 70.75974486183259,75.68572251939622 70.60666194188525,75.80222059035441 70.53862508860766,75.87211938727705 70.47058823533007,76.12841468265106 70.41956059529912,76.68760281935101 70.43656980866217,78.13216202305921 70.40255138196517,78.29525649768766 70.30049610204878,78.45835078577511 69.72218284901464,78.76123968306638 69.2459248759551,78.97093161972589 67.9362154500268,79.71650045282149 67.66406803682912,79.8096962828713 66.9496810772689,79.97278883893159 66.67753366407123,80.08928340763669 65.69099929125514,80.92804149290896 65.01063075833372,81.32411998500174 64.38128986535594,81.90658635730506 64.31325301202014,81.95318356432836 64.2282069454377,81.92988496275211 63.59886605243082,81.55710681936762 62.06803685327759,80.92804149290896 61.62579730688594,80.78824882132176 60.67328136070864,80.34557112373295 59.65272856131196,79.78639733110322 56.72714386958978,78.83113702952687 56.1318214032508,78.69134230236523 55.893692416721024,78.57484659164038 55.55350815024576,78.55154743809544 55.41743444366148,78.52824828075245 54.39688164423569,77.96906736186065 52.59390503188479,77.1768906400539 51.84549964565667,76.71090227742388 50.29766123314039,76.1750137777999 49.58327427355107,75.84881979208149 48.59673990079318,75.49932540790178 47.899362154479604,75.14983016719634 47.270021261501824,74.98673209505796 45.433026222512126,74.07803942091414 44.42948263644939,73.72854069675668 43.42593905029935,73.169340956214 42.91566265060101,73.05284073422081 42.42239546420751,72.8897402635921 41.28277817150229,72.40043773232901 40.53437278527417,72.00433445350791 39.64989369243267,71.72473147657001 37.14953933379729,70.53641270790831 35.87384833447868,69.76749528641813 35.142452161584515,69.37138469358615 33.951807228906546,68.62576176899893 32.26789510983508,67.41411620072904 31.536498936911812,66.94809593295213 30.532955350819975,66.17915916122729 29.801559177867603,65.45682084078726 29.546420978062088,65.27041035766888 29.25726435155957,65.08399963076226 28.593905031884788,64.80438308355224 28.42381289866171,64.68787602697557 28.20269312543678,64.33835428624297 27.93054571223911,64.05873627672554 26.97802976614912,63.45289537505596 26.11055988658336,62.68393975424988 25.396172927023144,62.12469669805432 25.072997873823624,61.93828185852908 23.814316087868065,61.44894174524234 23.184975194890285,61.2392240397312 22.43656980866217,60.79648564840318 22.147413182159653,60.58676698319323 21.909284195600776,60.28383947783732 21.62012756909826,60.05081788185635 21.501063075847924,59.8410981198831 21.467044649180025,59.6313780494238 21.569099929154618,59.32844851417758 21.51807228915277,58.9090065567143 21.51807228915277,58.67598271378665 21.60311835576431,58.51286579716543 21.688164422404952,58.4662609295774 22.147413182159653,58.37305114866467 22.759744861803483,58.07011893996969 22.929836995055666,58.046816435686196 23.048901488276897,58.093421440396924 23.116938341612695,58.18663140411081 23.15095676825149,58.256538836925756 23.15095676825149,58.41965604678262 22.283486888714833,59.25854160699237 21.79021970235044,59.77119146398036 21.296952515898738,60.4935585885396 20.055279943277128,62.19460219996108 19.953224663360743,62.28780948270287 19.81715095677646,62.31111129382043 19.49397590357694,62.28780948270287 19.374911410355708,62.31111129382043 19.221828490466578,62.42762029240839 18.9836995039077,62.707241500669625 18.89865343729616,62.87035361889866 18.86463501059916,63.382990490004886 18.745570517348824,63.80241928638134 18.473423104151152,64.43156016757712 18.184266477648634,64.89758866022748 17.997165131091606,65.45682084078726 17.742026931256987,66.0859544222767 17.690999291313346,66.41217074204178 17.656980864616344,66.7150852278719 17.708008504618192,67.20440726871311 17.690999291313346,67.71702855805052 17.588944011338754,68.1597454611765 17.486888731393265,68.39275380542676 17.367824238113826,68.53255862927472 16.806520198413637,68.975273000382 16.55138199860812,69.20828001201153 16.38128986535594,69.4645872850524 16.245216158771655,69.79079587530578 16.194188518740702,70.02380155435822 16.2622253720765,70.55971317112562 16.330262225383194,70.83931843248138 16.44932671863353,70.95582046295749 16.87455705172033,70.86261884616397 18.779588944016723,70.69951587032119 19.32388377035386,70.72281630689395 19.459957476938143,70.83931843248138 19.459957476938143,70.97912085757707 19.085754783824086,71.72473147657001 18.643515237403335,72.5169384873443 17.844082211202476,74.00813974461926 17.31679659814108,74.96343235524546 16.84053862511064,75.68572251939622 15.956059532240033,77.38658490648959 15.173635719373124,78.7379405599495 14.357193479780108,80.27567451956565 14.0,81.23092514464224 14.0,81.37071738234954 14.323175053170417,81.48721080904943 14.884479092812398,81.7900932731718" stroke="#4dd2ff" stroke-linecap="round" stroke-linejoin="round" stroke-width="0.5"><title>2022-10-07 10.6km</title></polyline><polyline fill="none" points="124.19054763694294,78.37369769638462 125.43285821453901,78.25038491978194 126.04501125286333,78.07774686331686 126.35108777196729,77.9297712292173 126.58514628658304,77.73247015800735 126.72918229558854,77.46118076404673 126.7831957989838,77.16522814183554 126.76519129783264,76.47466976669966 126.63915978992009,74.77292314260558 126.6031507877342,74.57561794504 126.51312828206574,74.37831248958537 126.20705176293268,73.88504772246233 125.88297074270668,73.07115733255341 125.21680420107441,71.68999996146886 124.9287321830634,70.75277883348463 124.80270067517995,70.55546838074224 124.6046511628374,70.382821523046 124.35258814704139,70.23483834494255 124.17254313579178,70.18551058668527 123.81245311329258,70.16084670153214 121.83195798951783,70.2595022180758 120.96774193551391,70.382821523046 120.7876969242352,70.35815767008171 120.69767441862496,70.3088299521769 120.48162040513125,70.11151891907502 120.44561140288715,69.9881993924646 120.76969242311316,69.34693622968916 121.29182295576902,68.48369305445522 121.75993998500053,67.57111632930173 122.33608402102254,66.33789577237621 123.30832708175876,64.75935875614232 123.56039009749657,64.29072740123956 123.88447111778078,63.62477507808944 124.28057014255319,62.613508524082135 124.44261065268074,62.29286161651544 125.05476369091775,61.330916806458845 125.23480870216736,61.15825939668866 125.32483120783581,61.13359403634968 125.66691672918387,61.25692079789587 126.04501125286333,61.478908714765566 127.48537134280195,62.63817364255374 128.51162790699163,63.378125323870336 128.61965491372393,63.50145025130769 128.9617404351302,63.945419156050775 129.19579894971685,64.16740311858302 129.4298574643908,64.3153922456404 129.95198799698846,64.48804604375619 130.24006001499947,64.68536442838376 130.636159039801,64.98134152157581 131.33833458364825,65.64728785914485 133.37284321081825,67.102493704675 134.56114028510638,68.03973749901343 136.2535633908701,69.1002958262834 138.52213053262676,70.35815767008171 139.27831957992748,70.70345124446612 140.4306076519424,71.29538124849205 143.22130532632582,72.50389779878606 143.76144036010373,72.77519610270974 144.715678919747,73.14514754932316 145.1477869467344,73.39178134339454 145.70592648163438,73.56442475943186 148.87471867969725,74.74826000703615 149.52288072017836,75.0442173682386 150.7831957989547,75.66079334013921 151.75543885974912,76.00607478439633 152.34958739683498,76.30202967931109 153.9699924981105,76.77062374290836 155.1402850713057,77.41185536730336 156.45461365338997,78.00375906437694 157.51687921982375,78.52167289533827 158.48912228055997,78.91627271666948 159.04726181543083,79.23688431197661 160.66766691673547,79.58215757613652 162.0360090022732,80.00141690648161 162.59414853714406,80.223377257018 164.2145536384196,81.03722908333293 165.09677419354557,81.38249822941725 167.14928732186672,82.24566763963958 167.36534133533132,82.24566763963958 167.49137284318567,82.147019956843 167.77944486122578,81.87573849679029 168.73368342086906,81.23452583498147 169.61590397599502,80.46999948596931 169.93998499627924,80.29736396802764 170.7141785446729,80.05074145703111 171.16429107275326,79.85344315812108 172.7846961740579,78.99026006837084 173.52288072020747,78.57099792943336 173.64891222809092,78.44768531403679 173.73893473370117,78.32437259788276 173.75693923482322,78.1763972054905 173.73893473370117,76.96792607131647 173.77494373597438,76.49933262025297 173.82895723934053,76.1540523043368 173.97299324834603,75.83343416103162 174.22505626408383,75.61146735507646 174.5311327832169,75.51281533660949 175.01725431359955,75.43882628038409 177.19579894974595,75.43882628038409 178.56414103528368,75.34017414908158 178.7441860465333,75.24152195327042 178.83420855217264,75.11820661782986 179.05026256566634,74.77292314260558 179.26631657913094,74.52629160534707 179.51837959489785,74.10701706708642 179.66241560390336,73.95903754027677 179.91447861964116,73.81105786834087 180.25656414104742,73.68774136417778 180.59864966242458,73.34245461676619 180.79669917482533,72.99716707946209 180.92273068267968,72.84918646450387 181.6789197299222,72.45457078212348 182.23705926482216,71.8873089311237 183.80345086276066,71.02408028475475 184.50562640660792,70.67878744390327 184.68567141785752,70.67878744390327 185.17179294824018,70.90076150371169 185.4958739685244,70.97475278445927 185.8919729932386,70.9500890282361 185.94598649663385,70.92542526799662 186.0,70.75277883348463 185.9279819955118,70.382821523046 185.8559639910236,70.2595022180758 185.72993248314015,70.11151891907502 185.09977494375198,69.84021582745481 184.90172543138033,69.84021582745481 184.77569392352598,69.88954369857674 184.64966241564252,70.06219112047984 184.43360840211972,70.50614072725875 184.28957239314332,70.67878744390327 182.27306826706626,71.78865447860153 181.8589647412009,72.23259900738776 181.7149287321954,72.3559167003259 181.06676669165608,72.60255178397347 180.86871717931353,72.72586917458102 180.74268567143008,72.89851335233834 180.59864966242458,73.21913772990229 180.52663165790727,73.29312787405797 180.18454613655922,73.56442475943186 179.860465116275,73.66307805130782 179.6444111028104,73.81105786834087 178.8162040510215,74.97022808229667 178.65416354086483,75.11820661782986 178.51012753188843,75.19219583123049 176.76369092275854,75.31551110614964 175.0352588147216,75.26618500825134 174.5311327832169,75.36483718793897 174.17104276068858,75.53747834730893 174.02700675168307,75.63613034963782 173.90097524382873,75.80877119867364 173.81095273818937,76.00607478439633 173.73893473370117,76.2773667935835 173.68492123033502,76.6473096566624 173.66691672918387,77.0912398955843 173.68492123033502,78.20105978091306 173.66691672918387,78.27504748319916 173.61290322584682,78.37369769638462 172.69467366841855,78.91627271666948 171.1102775694162,79.75479391201225 170.69617404349265,79.90276775704115 170.174043510895,80.02607918374997 169.84996249063988,80.1493905097741 169.45386346586747,80.44533728116949 168.76969242314226,81.08655329540488 168.1035258814809,81.50580844732758 167.40135033760453,82.07303415247588 167.22130532635492,82.07303415247588 164.2865716429078,80.96324273500068 163.87246811701334,80.76594562876562 162.95423855964327,80.24803949806665 161.8199549887795,79.70546926470706 159.47936984250555,78.91627271666948 157.6429107276781,78.3983602396329 155.01425356339314,77.23921635176521 154.04201050262782,76.72129812052299 152.43960990250343,76.22804100997746 151.80945236311527,75.93208596993645 150.6751687922224,75.48815232186462 149.82895723934053,75.09354353863455 147.66841710428707,74.20567000440496 146.40810202551074,73.63841473439243 145.99399849961628,73.36711798208125 145.21980495125172,73.02183050120948 143.72543135785963,72.50389779878606 140.89872468117392,71.36937233577191 138.63015753938816,70.33349381313019 137.29782445612364,69.47025628031406 136.3615903976024,69.00163955210883 134.90322580648353,68.1383944019035 132.11252813204192,66.14057954818418 131.55438859717106,65.6966171006643 130.65416354089393,64.80868828772509 130.07801950490102,64.43871640737052 129.59189797451836,64.26606255280785 129.23180795196095,64.01941384650127 128.65566391599714,63.32879532457446 127.62940735186567,62.56417827492987 126.04501125286333,61.25692079789587 125.72093023255002,61.084263303506305 124.8567141785752,60.73894772215863 124.08252063015243,60.49229325179476 123.20030007502646,59.99898310167191 122.786196549132,59.75232742191292 122.3180795199005,59.259014853145345 122.04801200298243,59.03702367111691 121.93998499627924,58.864363637170754 121.90397599400603,58.741034920545644 121.99399849964539,58.32171653016121 121.99399849964539,57.87773108230613 122.04801200298243,57.60640599897306 122.19204801195883,57.483076254371554 122.44411102778395,57.40907835921098 122.4981245311501,57.35974640901259 122.28207051762729,57.33508042781614 122.04801200298243,57.45841029332951 121.92198049512808,57.655737868568394 121.86796699173283,57.927062863251194 121.86796699173283,58.371048165965476 121.77794448615168,58.667037642226205 121.83195798951783,58.83969790194533 122.3180795199005,59.30834618258814 122.5341335333651,59.628999430831755 122.76819204800995,59.82632416818524 123.70442610656028,60.393631350729265 124.62265566393035,60.71428229322191 124.91072768194135,60.86227480611706 125.0007501875807,60.9362710082205 125.0367591898248,61.03493255452486 125.05476369091775,61.10892867197981 125.01875468867365,61.18292475301132 124.37059264819254,62.41618743077561 123.79444861217053,63.42745530689717 123.54238559640362,64.04407873528544 122.94823705925955,64.93201204633806 122.3180795199005,66.09125045182009 122.08402100525564,66.55987621625536 121.68792198051233,67.54645201694802 120.98574643660686,68.87831911855028 120.51762940737535,69.6675681516208 120.33758439609664,69.96353547504987 120.19354838709114,70.06219112047984 119.56339084770298,70.06219112047984 119.61740435109823,70.48147689449252 119.59939985000528,70.70345124446612 119.52738184551708,70.9500890282361 119.34733683423838,71.394036023441 118.93323330834392,72.18327190194395 118.01500375094474,74.00836406528833 116.53863465867471,76.42534404758771 115.67441860464169,78.20105978091306 115.18829707425903,79.0149225108471 114.55813953487086,80.12472825263103 114.05401350339525,81.23452583498147 114.0,81.40716028108727 114.01800450112205,81.53047047888685 114.16204051012755,81.65378057591442 115.15228807201493,82.19634380629577 115.35033758438658,82.24566763963958 115.56639159790939,82.22100572494674 115.74643660915899,82.27032955024333 116.48462115527946,82.64025772608875 116.59264816206996,82.64025772608875 116.88072018005187,82.51694843481528 117.38484621155658,82.39363904292986 117.58289572395734,82.4676246901945 117.8529632408463,82.64025772608875 117.94298574642744,82.66491957219841 119.00525131283212,82.64025772608875 119.11327831962262,82.56627216345805 119.25731432859902,82.41830092936289 119.36534133536043,82.147019956843 119.40135033760453,81.9004004678718" stroke="#4dd2ff" stroke-linecap="round" stroke-linejoin="round" stroke-width="0.5"><title>2022-10-01 10.2km</title></polyline><polyline fill="none" points="45.56261274544522,169.7603720134648 46.42928994356771,169.712885060173 47.399968405487016,169.712885060173 47.85064054856775,169.6179111070087 48.33597977954196,169.6179111070087 48.64798357090331,169.5229370918678 48.92532027428388,169.30924533064535 49.08132216995,169.11929683476046 49.18532343374682,168.90560448005272 49.21999052161118,168.73939909804903 49.237324065645225,168.54944985723705 49.02932153805159,165.55771656382421 48.90798673030804,165.39150735268777 48.69998420274351,165.296530575215 48.63065002692747,165.17780951612804 48.54398230710649,164.82164575690695 47.69463865287253,163.23077030768036 47.382634861569386,162.352219684195 47.261300053825835,162.16226209422166 47.139965246082284,162.06728320612456 46.79329436682747,161.9010700025974 46.44662348754355,161.8773252437386 44.76526972310967,161.97230425599264 43.75992417323869,162.11477265799476 43.69058999736444,162.06728320612456 43.482587469829014,161.7586013910768 43.430586837930605,161.6636222391826 43.39591974997893,161.40242925124767 43.41325329395477,161.1887255483016 43.707923541311175,160.66633739569806 43.95059315682738,160.31016257860756 44.15859568439191,159.7877712675836 44.43593238777248,159.36035879810515 44.67860200328869,158.69549245778762 44.95593870666926,158.07811384632078 45.319943129929015,157.62695089448243 45.649280465207994,157.00956774302176 46.09995260828873,156.012250957152 46.255954503954854,155.56108159100404 46.775960822822526,154.801214228748 47.12263170207734,154.2550571076863 47.64263802100322,153.30521374658565 47.67730510892579,153.09149813462864 47.65997156497906,153.02025952748954 47.59063738910481,152.9490208853531 46.966629806440324,152.64031969937787 46.186620328051504,152.28412520822894 46.48129057546612,152.5215882993216 47.10529815813061,152.71155849281058 47.60797093308065,152.9490208853531 47.798639916669345,152.90152843788383 47.88530763651943,152.80654349642282 48.19731142782257,152.1891398630978 49.46266013715649,150.14693992420507 49.70532975264359,149.52952498970262 50.36400442325976,148.2709402673936 51.1613474455371,146.86986143230752 51.88935629199841,145.6824959108344 52.30536134715658,144.85133427237452 53.848046759841964,142.04909713835514 54.02138219951303,141.6691286201094 54.00404865553719,141.50289208091272 53.58804360043723,141.28915910808428 53.310706896998454,141.0516776584991 53.01603664964205,140.86169221936143 52.236027171311434,140.434224072902 51.99335755579523,140.24423782627855 51.97602401181939,140.0542513312248 52.2706942592049,139.4367935066548 52.25336071525817,139.3417997622455 52.14935945146135,139.3892966421554 51.75068794027902,139.81676786308526 51.64668667651131,139.86426458774076 51.61201958858874,139.84051622737024 51.73335439636139,139.48429035555455 51.80268857217743,138.77183599153068 52.08002527561621,138.15437271671544 52.20136008335976,137.96438348876836 52.44402969881776,137.7031478947174 52.49603033071617,137.58440428761241 52.49603033071617,137.20442409266252 52.56536450656131,136.61070304839814 52.56536450656131,136.15947343214066 52.39202906691935,135.20951176404196 52.30536134715658,134.4495379572909 52.21869362730649,134.1170481667359 52.0280246437178,133.68956017495657 51.90668983597425,133.2858203611686 51.80268857217743,132.97707739348698 51.594686044642,132.64458423299948 51.38668351707747,132.12209344333678 50.93601137402584,131.33835373542388 50.71067530248547,130.86335791529564 50.208002527593635,129.22461041425413 50.0,128.74960768292658 49.80933101644041,128.08460124977864 49.58399494490004,127.49084293365013 49.46266013715649,126.96833360783057 49.306658241461264,125.73330409442133 49.289324697543634,125.23453919914027 49.35865887335967,124.68827092046558 49.653329120745184,123.64323022871395 49.73999684059527,123.19196033314802 50.0,122.81194249170949 50.22533607154037,122.28941633655631 50.39867151118233,122.09940635955718 50.71067530248547,121.93314742582152 51.21334807743551,121.88564483835944 51.36934997313074,121.81439092810615 52.20136008335976,121.22060698312998 53.36270752889686,120.48431152044213 54.350719534792006,120.00928020921128 55.16539610107429,119.7005090238381 56.62141379399691,119.39173718214442 59.86278651515022,119.03546116463258 61.3014706641261,119.17797167651588 62.358816845866386,119.13046818814473 63.069492148351856,119.01170939909935 64.83751363257761,118.9879576296662 65.56552247906802,118.91670229796728 65.99886107811471,118.79794333422615 66.29353132547112,118.79794333422615 66.46686676514219,118.60792879022483 68.18288761749864,115.59141461123363 68.42555723298574,115.11636729900783 68.77222811224055,114.285030764353 68.78956165618729,114.21377312573895 68.70289393642452,114.09501031698892 68.1655540735228,114.07125774356246 67.64554775465513,114.0 67.47221231504227,114.04750516629429 67.05620725991321,114.285030764353 66.8655382762663,114.33253583738406 66.72686992460513,114.3087833027821 66.29353132547112,114.16626801386883 66.17219651778578,114.16626801386883 66.01619462211966,114.26127822206763 65.28818577562924,114.80758571303159 64.43884212142439,115.25888165584183 63.433496571553405,115.90019453108835 62.96549088455504,116.06646036992606 62.20281495017116,116.25647823839972 60.88546560893883,116.44649585832667 59.74145170740667,116.42274366946367 58.47610299807275,116.6365132297069 57.69609351971303,116.6602653836162 56.46541189830168,116.73152182211925 55.66806887599523,116.73152182211925 54.99206066143233,116.80277822571225 54.64538978217752,116.87403459430789 54.0560492874356,117.159059719168 53.70937840815168,117.182811787643 53.206705633201636,117.13530764682218 52.66936577032902,117.2303159130679 52.06269173161127,117.46783630670689 51.68135376446298,117.53909234912135 51.3520164291258,117.6816043289582 50.693341758538736,118.15664325213584 49.27199115353869,118.91670229796728 48.69998420274351,119.34423376360792 48.30131269161939,119.77176397106086 47.919974724412896,120.29429918236565 47.55597030118224,120.88808691375016 47.15729879002902,121.33936396625359 46.862628542643506,121.7431369827973 46.515957663359586,122.55067964910995 46.09995260828873,124.14200058756978 46.06528552030795,124.47451320874097 46.04795197639032,125.0682838534558 46.03061843244359,125.40079435447115 46.04795197639032,125.70955342393427 45.995951344491914,126.20831668833853 46.01328488846775,126.54082457988989 46.39462285564514,127.75209689170879 46.533291207335424,128.39335461518203 46.671959559083916,128.77335785639298 47.10529815813061,129.53336135676363 47.65997156497906,130.17461121757515 47.798639916669345,130.4358603494038 48.2146449717693,131.0058568244276 48.75198483464192,131.81334800252807 49.01198799410486,132.31209031156322 49.34132532944204,133.0958247663948 49.58399494490004,134.188296043023 49.653329120745184,135.09076611879573 49.549327856948366,135.39950459459214 49.53199431300163,135.4945009166404 49.601328488846775,135.94573259835306 49.601328488846775,136.20697135242517 49.549327856948366,136.49195854847494 49.393325961282244,136.94318713211396 49.393325961282244,137.3469167821895 49.35865887335967,137.44191183100338 49.115989257901674,137.9168861429789 49.09865571392584,138.24936723745486 48.977320906182285,138.58184757105482 48.717317746719345,139.03306966398668 48.2146449717693,139.65052920444577 47.919974724412896,140.10174797827494 47.10529815813061,140.81419582069793 46.879962086619344,140.93293678815826 46.515957663359586,141.19416657487454 45.83994944882579,141.52664016956987 45.649280465207994,141.59788441227283 44.973272250645095,141.69287668158358 44.349264667980606,141.6691286201094 43.65592290947097,141.7878688888013 43.291918486211216,141.74037279294862 42.667910903546726,141.62163248538855 41.97456914500799,141.64538055472076 41.71456598551595,141.57413633527176 41.454562826111214,141.40789968731406 41.281227386469254,141.33665535144974 40.06787930903374,141.55038825432712 38.55986098424182,141.52664016956987 38.38652554459986,141.55038825432712 38.26519073685631,141.59788441227283 38.19585656101117,141.74037279294862 38.178523017064435,141.83536496911256 38.282524280803045,143.47397023155645 38.29985782477888,144.11515856460028 38.26519073685631,144.28139211496455 37.55451543437084,145.06506200494186 37.10384329131921,145.82498028577538 36.427835076727206,146.70363084344717 36.06383065349655,147.43979343597312 35.994496477680514,147.8197468631406 36.029163565603085,148.12845829108846 36.323833812988596,148.7458791792451 36.566503428446595,149.10208234428137 36.96517493959982,149.5057782090298 37.90118631365476,149.81448605471815 38.282524280803045,149.98071308460203 38.507860352343414,150.14693992420507 38.54252744029509,150.2656732647156 38.54252744029509,150.38440650816483 38.47319326444995,150.5981261018751 38.23052364893374,150.85933851171285 37.90118631365476,151.07305740687298 37.398513538675616,151.2392829968594 37.2425116430386,151.38176192267565 37.10384329131921,151.69046578260895 36.861173675832106,152.09415445596096 36.75717241203529,152.37911049126706 36.70517178013688,152.71155849281058 36.70517178013688,153.30521374658565 36.65317114823847,153.54267516893742 36.58383697242243,153.63765962923935 36.39316798883374,153.78013620327692 36.11583128539496,153.97010475132265 35.543824334599776,154.08883496772614 35.33582180706435,154.2075650870829 35.145152823475655,154.3737870912155 35.023818015703,154.49251697775617 34.2958091692708,155.41860676326905 34.00113892191439,155.75104781065602 33.77580285034492,156.10723380306445 33.741135762422346,156.29719930879946 33.68913513055304,156.93833105677913 33.94913829001598,158.12560460180975 34.07047309775953,158.60051130359352 34.105140185623895,158.81421881301503 34.105140185623895,159.170397296999 34.139807273604674,159.36035879810515 34.38247688906267,160.38139761186903 34.48647815285949,160.5238675736473 34.625146504549775,160.57135752979957 34.83314903214341,160.57135752979957 35.231820543296635,160.47637760190992 35.474490158754634,160.47637760190992 36.53183634052402,160.66633739569806 36.99984202752239,160.8325520115759 37.58918252226431,160.97502153103414 38.07452175326762,161.02251133981918 38.57719452821766,160.97502153103414 38.87186477557407,161.02251133981918 39.062533759191865,161.21247041973402 39.201202110853046,161.44991892034886 39.21853565479978,161.85358048099442 39.27053628672729,162.09102793400234 39.547872990136966,162.3284749990562 39.738541973754764,162.352219684195 40.4838843641337,162.25724092025484 40.865222331369296,162.18600680657255 41.315894474391825,162.18600680657255 42.06123686482897,162.09102793400234 42.5119090078515,162.16226209422166 42.598576727701584,162.3284749990562 42.54657609577407,162.49468771371176 42.30390648034518,162.85085717633774 41.627898265753174,164.01433800403902 41.1598925787257,164.70292430983682 40.79588815549505,165.62894902474363 40.25854829265154,166.4599918215681 39.235869198833825,168.19329436161206 38.715862879907945,169.3329888752196 38.2131901049579,170.18775389478833 38.00518757739337,170.7101078206324 37.51984834641917,171.70732373803912 36.87850721977884,172.84699069312774 36.21983254919178,174.36653273062257 36.029163565603085,175.0075847623375 35.509157246677205,175.957286278237 35.24915408724337,176.55084657404223 34.677147136448184,178.04660776772653 34.48647815285949,178.64015953039052 34.347809801111,178.94880548890796 34.19180790550308,179.42364414529584 33.84513702621916,180.30209156953788 33.72380221847561,180.49202544956643 33.63713449862553,180.58699229662307 33.22112944352557,180.68195908148482 33.16912881162716,180.729442450669 33.082461091835285,180.8718924651621 32.59712186086108,182.4863162044494 32.250450981606264,183.22229754600266 32.146449717809446,183.5546749947389 31.92111364629818,183.88705168337037 31.834445926448097,184.02949860296212 31.505108591198223,185.12158701485896 31.24510543170618,185.7388507481519 31.210438343783608,186.0 31.31443960755132,185.50144193021697 31.5917763109901,184.93165918486193 31.886446558346506,184.07698087854078 32.250450981606264,183.34100386494538 33.203795899578836,180.96685906390485 33.29046361937071,180.80066747532692 33.377131339220796,180.729442450669 33.58513386675622,180.6582173910865 33.741135762422346,180.51576716716227 34.60781296060304,178.33151291632385" stroke="#4dd2ff" stroke-linecap="round" stroke-linejoin="round" stroke-width="0.5"><title>2022-09-23 10.4km</title></polyline><polyline fill="none" points="123.24965893587796,151.0323331101681 124.73942701230408,150.94263262848835 125.16507503410685,150.83050694399572 125.32878581175464,150.74080633040285 125.45975443386124,150.58383011563274 125.55798090036842,150.4492789314536 125.60709413370932,150.20260141798644 125.57435197819723,150.02319931147213 125.39427012280794,149.6195437144779 125.36152796726674,149.4401408458507 125.41064120054943,148.34129315867904 125.29604365624255,147.71337624454463 125.01773533425876,147.17515946022468 124.67394270119257,146.21084910993522 124.06821282402962,145.06712339931983 123.85538881312823,144.3943391172652 123.75716234653373,144.12522448098753 123.64256480219774,143.99066696493537 123.54433833563235,143.9009618809505 123.36425648021395,143.8112567383214 123.18417462485377,143.76640414503345 120.09004092769464,144.03551948493987 119.53342428378528,143.9458144302771 119.50068212824408,143.8561093170283 119.58253751706798,143.76640414503345 119.77899045019876,143.60941995309258 120.63028649389162,142.28626034292392 120.7939972714812,141.88258199011034 121.07230559346499,141.41162241101847 121.39972714873147,140.53697890495823 122.6439290586859,138.13728732593881 122.85675306955818,137.5766056761786 123.51159618006204,136.65708281153638 124.06821282402962,135.67027093228535 124.2482946793898,135.49084982820204 124.3628922237549,135.46842217372614 124.88676671215217,135.69269855377206 125.08321964531206,135.82726420590188 125.57435197819723,136.27581542664848 126.22919508870109,136.8140749562881 127.35879945431952,137.5990329861379 127.88267394271679,138.2269961774 128.21009549795417,138.4064137042442 128.58663028650335,138.4961223797436 128.81582537514623,138.63068528301665 129.2742155525484,139.0343732011097 129.84720327422838,139.5726219115022 130.76398362888722,140.24542983087304 131.74624829468667,140.89580768437008 132.58117326060892,141.59103577458882 134.93860845841118,143.02633423937368 136.166439290595,143.69912522762024 137.45975443383213,144.34948671452003 139.14597544338903,145.089549485303 140.94679399728193,145.78475633176276 141.5197817189619,146.05386771399935 142.82946793999872,146.50238551179064 143.99181446110015,147.13030796631938 145.64529331514495,147.780653194146 147.29877216918976,148.61039952814463 148.1828103683656,148.9243562923948 148.70668485676288,149.17103610326012 149.49249658937333,149.4401408458507 150.54024556619697,149.70924506086158 151.47339699865552,150.2474519078969 153.09413369715912,150.94263262848835 153.5688949522446,151.1893088119832 154.10914051844156,151.43598455215397 156.41746248296113,152.10873431742948 157.74351978171035,152.62450690440892 160.1991814461362,153.79059430431516 161.60709413373843,154.30636057117954 163.26057298775413,155.11364301113645 163.6043656207621,155.2033407669369 163.9809004093113,155.27061404529377 164.79945429743384,155.5621312039293 165.4706684856792,156.03304222914448 165.86357435196987,156.2348607454478 167.2714870396012,156.66092108300654 167.87721691679326,156.93001114108483 168.59754433835042,157.1542524532124 169.26875852659578,157.44576561122085 169.95634379266994,157.67000608074886 170.6766712142271,158.16333382418088 171.13506139157107,158.3651492081117 172.281036834931,158.76877908594906 174.39290586631978,159.7330012117891 175.34242837654892,160.09177980863024 176.70122783086845,160.69721656435286 177.634379263327,161.0335691635555 178.10914051841246,161.30265064952255 178.73124147343333,161.54930821496237 179.4024556616787,161.93050539876276 180.13915416100645,162.17716183603625 180.64665757166222,162.31170152408595 181.17053206003038,162.60320372910064 182.23465211462462,163.05166745102906 182.7421555252804,163.32074498089787 183.93724420192302,163.79162938905938 184.3956343792961,164.0382824819826 185.8526603001519,164.57643314632878 186.0,164.55401024407183 185.9836289222294,164.46431859851873 185.9345156889758,164.37462689439417 184.72305593453348,164.0382824819826 182.676671214198,163.2758987625857 181.67803547068615,162.84985895744467 181.31787175990758,162.62562694995722 180.35197817190783,162.31170152408595 178.50204638473224,161.54930821496237 178.09276944067096,161.41476777971548 177.6998635743803,161.07841611454205 177.2251023192366,160.83175770290836 175.8499317871756,160.33843954997428 174.80218281038105,159.82269594892568 173.24693042295985,159.21725533588324 172.2319236016483,158.70150752204063 170.5784447476326,158.096061963588 169.93997271489934,157.73727815014718 169.39972714870237,157.513037790588 168.04092769444105,157.0645559723198 167.0259208731586,156.63849688771006 165.76534788543358,156.2348607454478 164.71759890858084,155.76395041258365 164.29195088677807,155.60697994260408 163.8663028649753,155.38273610264878 163.24420190995443,155.09121856305865 162.94952251025825,154.88939836522331 162.52387448839727,154.64272883154626 161.70532060027472,154.32878514748882 161.05047748979996,154.17181303621328 160.1664392905659,153.76816964001046 159.78990450201673,153.61119688757753 158.562073669862,153.02815366395225 157.82537517053424,152.714206286837 155.2060027285188,151.83963480702369 154.20736698503606,151.5256847113924 153.78171896317508,151.43598455215397 153.3560709413432,151.16688372274803 152.58663028650335,150.78565664452617 151.27694406549563,150.2474519078969 150.2455661664717,149.70924506086158 149.03410641202936,149.32801393388945 148.5266030013736,149.0589089714631 147.62619372445624,148.74495251500048 146.4147339700139,148.25159091824025 145.92360163712874,148.02733506073128 145.43246930424357,147.75822754796536 143.81173260571086,147.04060493434372 143.1896316507773,146.79392129437474 142.94406548433471,146.6593663947424 142.66575716238003,146.59208889542788 141.87994542974047,146.23327500902815 141.3888130968553,146.0987195597263 140.25920873126597,145.58292244875338 138.55661664393847,144.95499291468877 136.57571623462718,143.9458144302771 135.92087312415242,143.65427259767603 134.12005457028863,142.51052558147057 132.7939972715103,141.7928755282628 130.32196452931385,139.97630705901247 129.6834924966097,139.43805993179558 129.437926330138,139.16893557661388 129.11050477487152,138.87738359626383 128.58663028650335,138.56340384783107 128.07912687584758,138.4064137042442 127.94815825374098,138.3167049701151 127.81718963163439,138.15971454432292 127.6207366985036,137.733596769016 127.39154160983162,137.48689639962686 127.22783083221293,137.37475972143875 126.65484311050386,137.12805870703596 126.42564802183188,136.97106692148373 124.82128240109887,135.64784330707334 124.52660300134448,135.51327747906907 124.2646657571604,135.42356685367122 124.10095497954171,135.46842217372614 124.01909959071781,135.55813276968547 123.44611186903785,136.79164751799544 122.87312414735788,137.666314894057 122.562073669862,138.29427777738601 122.16916780357133,138.92223778742482 121.89085948158754,139.5277679330029 121.38335607096087,140.37999101897003 121.21964529334218,140.761247002054 121.02319236015319,141.34434233928914 120.7776261937397,141.7928755282628 120.59754433832131,142.28626034292392 120.30286493862513,142.77964338404126 120.10641200543614,143.04876065882854 119.92633015007596,143.43000922814826 119.72987721694517,143.72155153713538 119.61527967258007,143.83368302951567 119.36971350616659,143.8561093170283 119.28785811731359,143.9009618809505 119.1732605730067,144.32706050766865 118.27285129606025,145.9193120888085 117.81446111868718,146.92847606205032 117.4706684856792,147.51154519776173 117.07776261938852,148.0721862615028 116.89768076397013,148.43099534042994 116.57025920876185,148.96920720003254 115.88267394268769,150.38200328993844 115.6698499317572,150.74080633040285 115.57162346525001,150.9874828766624 115.32605729877832,151.34628433428588 114.99863574351184,152.08630937839916 114.50750341062667,152.9160296831542 114.29467939972528,153.4317992364231 114.0327421555703,153.880292924674 114.0163710777415,153.99241611782054 114.0,154.14938843426353 114.0654843110533,154.21666222919885 114.47476125514368,154.35120972020377 114.70395634378656,154.48575707929558 115.17871759893023,154.64272883154626 115.45702592088492,154.62030430645973 115.604365620733,154.64272883154626 115.83356070940499,154.77727590483846 116.27557980900747,154.9790962675179 116.37380627557286,154.9790962675179 117.14324693041272,154.7100023846724 117.3233287857729,154.73242689510516 117.58526603001519,154.91182284627575 117.74897680763388,154.9790962675179 118.33833560711355,155.00152073397476 118.63301500683883,154.95667179745215" stroke="#4dd2ff" stroke-linecap="round" stroke-linejoin="round" stroke-width="0.5"><title>2022-09-16 10.1km</title></polyline><polyline fill="none" points="57.60770724673057,235.11387148846552 57.60770724673057,235.20691457155044 57.52619609766407,235.31856617097947 57.444684948568465,235.35578334645106 56.84693652205169,235.28134898327698 56.77901056452538,235.20691457155044 56.77901056452538,235.15108873077406 56.91486247963621,234.7230897093832 56.99637362867361,234.53700267669774 57.18656630985788,234.22065402340377 57.3360034165089,234.0531749688016 57.512610906152986,233.9043044913924 58.00167780058109,233.56934520562208 58.51791507806047,233.1785581272634 58.95264120641514,232.97385959872918 59.30585618573241,232.88081469138706 59.55038963293191,232.88081469138706 60.03945652736002,232.80637871077488 60.881738401105395,232.7877697080694 61.85987218999071,232.69472464868159 62.063650062686065,232.62028854650998 62.21308716930798,232.50863430197205 62.34893908441882,232.3225436512148 62.38969465898117,232.21088911478728 62.40327985046315,232.00618884708092 62.32176870142575,231.00129128759727 62.33535389287863,230.40579225368856 62.308183509885566,230.01499432052515 62.00930929664173,229.54975693746383 61.83270180699765,229.10312726167467 61.62892393427319,228.69371518699336 61.16702742289635,227.85627681377082 61.071931082289666,227.57712932095455 60.963249550201,227.20493159956095 60.827397635090165,227.00022233432537 60.62361976239481,226.8327326618455 60.365501123684226,226.7582927282856 59.26510061119916,226.7955127011155 58.09677414112957,226.92578251031955 58.05601856665453,226.88856258000305 57.86582588547026,226.6280227275638 57.784314736374654,226.33026216634607 57.82507031093701,226.16277150854876 57.94733703453676,225.97667048878066 58.09677414112957,225.6416878868331 58.23262605626951,225.4369758116809 58.61301141863805,224.59951349073526 59.02056716399966,223.65038208221085 59.672656356560765,222.5709681219305 60.134552867966704,221.58459814318485 61.05834589077858,220.03988836926874 61.11268665685202,219.9096106832876 61.126271848334,219.8165551020502 61.09910146531183,219.72349944467715 61.01759031624533,219.66766601384006 60.56927899635048,219.4629431998328 60.175308442499954,219.33266485382774 59.31944137721439,218.83016126594157 59.23793022817699,218.75571610139014 59.10207831306616,218.55099164789863 58.8167892912752,218.30904409199138 58.66735218465328,218.06709602210321 58.599426227097865,217.99265035865392 57.906581459974404,217.5831983400858 57.4990257146419,217.26680259008572 57.22732188436203,217.09929860184639 56.72466979845194,216.61539680739952 56.126921371906064,216.205939836771 56.03182503132848,216.07565776463161 55.828047158633126,215.59175162031897 55.73295081805554,215.46146884552581 55.59709890294471,215.36840962940914 55.13520239153877,215.20090284873731 54.849913369776914,215.03339582164335 54.40160204991116,214.69838102838548 53.51856460160343,214.15863289935078 53.32837192041916,213.93528809765849 53.28761634591501,213.8050034276821 53.274031154374825,213.7119428579026 53.32837192041916,213.50720933662524 53.423468261025846,213.3955363517016 53.912535155483056,213.13496562759974 54.44235762441531,212.98606780326372 54.97218009340577,212.98606780326372 56.086165797372814,212.91161881814332 56.697499415429775,212.9674555615493 57.79789992791484,213.00468004198046 59.63190078199841,212.8185575181924 60.990419933223166,212.52076084745204 61.68326470031752,212.2415757612689 61.954968530568294,212.05545199017797 62.40327985046315,211.70181598705676 62.97385789398686,211.38540389542322 63.734628618636634,210.60367613496055 64.14218436402734,209.98945770115824 64.29162147064926,209.72887918285414 64.31879185367143,209.6172024924963 64.34596223666449,209.33801028732705 64.41388819424901,209.07743027825927 64.4274733857601,208.57488143385126 64.48181415183353,208.2956866730092 64.54974010935985,208.1653955503789 64.84861432266189,207.79313437840756 64.90295508867712,207.64422956885392 64.9980514292547,206.881089363691 64.98446623777272,206.45298408238887 64.84861432266189,205.8387432586096 64.72634759903303,205.0197503391828 64.57691049241112,204.61025167047774 64.5089845348557,204.29381987225497 64.38671781125595,204.05184202145756 64.18293993853149,203.7354086714331 63.653117469570134,202.7302616085508 63.39499883085955,202.00431654467684 63.01461346852011,200.7199408624656 62.71573925524717,199.90091112309892 62.511961382610025,199.10049000361323 62.457620616507484,198.2069900143615 62.498376191040734,197.5740899461598 62.63422810618067,197.01564578784019 62.729324446758255,196.71780778346874 62.770080021291506,196.49442876880494 63.1097098091268,195.73121382873796 63.23197653272655,195.5636781571011 63.44933959690388,195.4333724642711 63.6802878525923,195.39614223891112 63.82972495924332,195.45198757234903 63.612361895036884,195.61952340834978 63.49009517143713,195.61952340834978 62.90593193640234,195.02383931587974 62.104405637219315,194.27922981740267 61.90062776452396,194.09307668188558 61.69684989185771,194.0 61.57458316825796,194.0 61.43873125311802,194.09307668188558 60.868153209623415,194.81907218924607 60.62361976239481,195.02383931587974 60.43342708123964,195.34029687810835 60.31116035761079,195.61952340834978 60.16172325098887,196.17797441457515 60.12096767645562,196.45719889047177 60.01228614436695,196.81088224354608 59.82209346318268,197.40655698627234 59.82209346318268,197.94638452997606 59.86284903771593,198.93295928971202 59.8900194207672,199.0818754919892 60.053041718900204,199.60308066620928 60.28398997458862,200.45934112993564 60.44701227272162,200.8688547275815 60.677960528439144,201.31559515426488 60.868153209623415,201.63203522936237 61.58816835973994,202.59996411741304 61.81911661542836,202.9722422679988 62.063650062686065,203.3072915627563 62.267427935352316,203.71679491754185 62.607057723158505,204.62886527825322 62.67498368071392,204.96390969836648 62.75649482978042,205.76428960025805 62.66139848920284,206.09933067946986 62.66139848920284,206.93692906430806 62.59347253161832,207.62561645394453 62.55271695711417,207.7372950976278 62.33535389287863,208.03510427863512 62.226672360819066,208.4445906306646 62.036479679634795,208.8540755100912 61.24853857193375,209.80333024894935 60.92249397569685,210.08252131321933 60.61003457091283,210.30587367174303 60.243234400084475,210.52922559221042 59.68624154807185,210.77118967831484 59.45529329238343,210.8270274713068 58.84395967432647,210.90147781940323 58.449989120446844,210.88286523693387 57.94733703453676,210.95731554849772 57.68921839579707,210.95731554849772 57.22732188436203,210.86425265138678 56.64315864938544,210.8456400628711 56.46655115974136,210.78980227901047 56.1812621379795,210.64090138812026 56.045410222839564,210.62228876308654 55.692195243551396,210.73396446772676 55.44766179632279,210.77118967831484 54.57820953952614,210.80841487665748 53.89894996394287,210.78980227901047 53.77668324034312,210.80841487665748 53.7087572827586,210.86425265138678 53.69517209127662,210.99454068604973 53.735927665780764,211.29234134822036 53.7902684318542,212.74410842355428 53.74951285732095,212.98606780326372 53.66800170822535,213.11635341023066 53.423468261025846,213.33969981813425 53.17893481379724,213.63749434732745 52.214386216481216,214.94033625572047 52.02419353526784,215.38702147868025 51.94268238620134,215.8150931731725 51.96985276925261,215.90815202426165 52.01060834378586,216.00121079934615 52.4725048551918,216.80151312551607 52.6355271533248,217.02485230575257 52.717038302420406,217.08068703239405 53.26044596286374,217.26680259008572 53.85819438940962,217.50875236035063 53.96687592152739,217.620421311658 53.994046304549556,217.7320901535204 53.98046111300937,217.7879245333679 53.89894996394287,217.93681607917097 53.74951285732095,218.08570743033488 53.43705345253693,218.27182134546456 53.08383847321966,218.420712258594 52.96157174961991,218.55099164789863 52.75779387692455,218.94182892155368 52.567601195769385,219.3884984489123 52.526845621236134,219.64905486415955 52.540430812718114,220.02127728037158 52.49967523821397,220.17016590623098 52.44533447214053,220.26322119851102 52.32306774856988,220.39349847999256 52.187215833429946,220.46794257388683 51.99702315227478,220.54238661919226 51.643808172957506,220.61683061576332 51.440030300291255,220.74710749275255 50.93737821432296,221.26821351022954 50.69284476712346,221.6776522797736 50.35321497928817,222.01264654174884 50.285289021761855,222.19875403925835 50.258118638710584,222.8501278855838 50.38038536233944,223.72482404718903 50.50265208596829,224.13425398475374 50.51623727745027,224.30174762581737 50.489066894399,224.59951349073526 50.66567438407219,225.15782238894462 50.747185533167794,225.54863698916597 50.85586706525646,225.6975183889008 51.08681532094488,225.77195901573577 51.38568953421782,225.6975183889008 51.75248970504617,225.6975183889008 52.24155659947428,225.79056916486297 52.92081617505755,225.9952806044239 53.274031154374825,226.0325008266227 54.0348018790537,226.0325008266227 54.184238985704724,226.0511109332001 54.347261283837724,226.16277150854876 54.46952800746658,226.3116521054326 54.49669839045964,226.46053250766272 54.52386877351091,226.8141226830121 54.551039156503975,226.92578251031955 54.64613549711066,227.0560521704465 54.76840222071041,227.13049190931633 54.90425413585035,227.1491018364468 55.203128349094186,227.13049190931633 56.28994367006817,226.92578251031955 56.91486247963621,226.88856258000305 57.0099588202138,226.88856258000305 57.07788477774011,226.9443924708612 57.118640352302464,227.03744222810928 57.0914699692803,227.16771176052134 56.42579558520811,228.35874057662295 55.88238792470656,229.438099682724 55.06727643398335,230.85241682100605 54.10272783663822,232.6575066036894 53.74951285732095,233.38325628791063 53.43705345253693,234.14621891843854 53.00232732418226,234.85335045141983 52.852890217502136,235.18830596098996 52.78496425997582,235.43021766089805 52.730623493902385,235.57908614393818 52.43174928065855,236.06290736990923 51.779660088097444,237.42131751887064 51.04605974644073,239.22630319935706 50.828696682234295,239.84036397200543 50.65208919256111,240.24973598129873 50.50265208596829,240.71492966055666 50.258118638710584,241.36619761968177 50.20377787266625,241.44062800645042 50.10868153208867,241.47784318161575 49.945659233955666,241.45923559556832 49.86414808486006,241.47784318161575 49.782636935822666,241.58948863414116 49.56527387161623,242.22214413146867 49.32074042438762,242.83618875379761 49.11696255172137,243.56187358525494 48.790917955426266,244.28755379355425 48.6822364233376,244.62248156123678 48.49204374215333,244.99462237028638 48.274680677975994,245.5156174604199 48.23392510344274,245.7389003410717 48.24751029492472,246.0738238413469 48.23392510344274,246.29710562773107 48.26109548646491,246.5017802141956 48.23392510344274,246.65063422786625 47.37805803818628,248.75317639332206 46.264072334219236,251.84179627765843 45.815761014295276,252.9209328819852 45.47613122651819,253.9070315300487 45.245182970771566,254.48380225464643 44.68819011878804,255.76757177116815 43.927419394109165,257.9257603841397 43.60137479781406,258.66995387434145 43.03079675434856,260.17693080287427 42.94928560528206,260.3257669487575 42.88135964766843,260.40018494880496 42.59607062593568,260.49320738048846 42.5009742853581,260.60483419827506 41.903225858841324,262.01876442329376 41.45491453894647,263.2652409890943 41.3462330068578,263.6745288275706 40.88433649542276,264.7907609140166 40.77565496333409,264.9023835211847 40.54470670761657,264.9023835211847 39.64808406782686,264.7535533539776 37.94993512882502,264.51170391770574 37.10765325507964,264.6047229924152 36.863119807851035,264.66053440078394 36.41480848798528,264.84657223129034 35.69479333781055,265.25585438907 35.4095043160778,265.5163059057595 35.246482017973904,265.7209459654914 35.042704145249445,265.9255856576128 35.001948570716195,266.0 35.069874528300716,265.96279283492186 35.545356231188634,265.40468390005844 35.78988967844634,265.20004327228526 36.387638104963116,264.84657223129034 36.863119807851035,264.64193060105026 37.50162380893016,264.5303077386998 37.86842397975852,264.51170391770574 38.99599487526575,264.64193060105026 40.626217856712174,264.9023835211847 40.77565496333409,264.88377976093034 40.897921686962945,264.80936468945583 41.06094398506684,264.4744962665427" stroke="#4dd2ff" stroke-linecap="round" stroke-linejoin="round" stroke-width="0.5"><title>2022-09-11 10.3km</title></polyline></svg>