<?xml version="1.0" encoding="utf-8" ?>
<svg baseProfile="full" height="300mm" version="1.1" viewBox="0,0,200,300" width="200mm" xmlns="http://www.w3.org/2000/svg" xmlns:ev="http://www.w3.org/2001/xml-events" xmlns:xlink="http://www.w3.org/1999/xlink"><defs /><rect fill="#222222" height="300" width="200" x="0" y="0" /><text fill="#FFFFFF" style="font-size:12px; font-family:Arial; font-weight:bold;" x="10" y="20">Over 4km Runs</text><text fill="#FFFFFF" style="font-size:4px; font-family:Arial" x="10" y="280">ATHLETE</text><text fill="#FFFFFF" style="font-size:9px; font-family:Arial" x="10" y="290">ChiZhang9797</text><text fill="#FFFFFF" style="font-size:4px; font-family:Arial" x="120" y="280">STATISTICS</text><text fill="#FFFFFF" style="font-size:3px; font-family:Arial" x="120" y="285">Number: 9</text><text fill="#FFFFFF" style="font-size:3px; font-family:Arial" x="120" y="290">Weekly: 2.2</text><text fill="#FFFFFF" style="font-size:3px; font-family:Arial" x="141" y="285">Total: 42.4 km</text><text fill="#FFFFFF" style="font-size:3px; font-family:Arial" x="141" y="290">Avg: 4.7 km</text><text fill="#FFFFFF" style="font-size:3px; font-family:Arial" x="167" y="285">Min: 4.1 km</text><text fill="#FFFFFF" style="font-size:3px; font-family:Arial" x="167" y="290">Max: 5.3 km</text><polyline fill="none" points="29.31664952239953,86.86222548425576 29.18732853475376,86.92127172462642 28.885579563648207,86.98031793598784 28.080915640632156,86.88190756760741 27.491786697035423,87.0 27.204406724544242,86.96063586875971 26.52906378917396,86.70476870191487 25.46575789092458,86.37017235603707 25.33643690327881,86.2520793061849 25.250222911534365,86.13398614063772 25.207115915662143,85.87811721805338 25.235853912919993,85.6812946000864 25.379543899180135,85.28764839955693 25.508864886825904,85.05146006176074 25.85372085380368,84.53971707466553 26.08362483177916,84.12638461350434 26.35663580565597,83.4965419456712 26.77333676579292,82.39430935303244 27.13256173141417,81.76445762911317 27.434310702519724,81.41016458723607 27.72169067504001,80.99682138803473 28.238974625535775,79.85519946982822 28.51198559938348,79.40248433400848 29.02926954990835,78.39863165944553 29.474708507274045,77.67034114963462 29.57529149763286,77.4144542494978 29.589660496276338,77.27666877047159 29.56092249901849,77.21761780259112 29.402863514173077,77.13888313379721 29.058007547137095,77.13888313379721 27.69295267778216,77.29635242000222 27.204406724544242,77.29635242000222 27.017609742411878,77.27666877047159 26.93139575063833,77.1979341402257 26.845181758893887,77.06014841351862 26.802074763021665,76.58773901110544 26.787705764407292,76.52868770554778 26.70149177266285,76.41058500755025 26.50032579191611,76.37121741588635 26.11236282903701,76.37121741588635 25.824982856516726,76.31216600414336 25.36517490053666,76.05627621887106 24.373713995417347,75.76101809892134 23.770216053177137,75.70196638802736 23.49720507930033,75.72165029490134 23.123611115064705,75.8200697807988 23.008659126062412,75.8200697807988 22.850600141158793,75.70196638802736 22.80749314528657,75.58386287954636 22.635065161826788,74.69808287455089 22.635065161826788,74.14692758409365 22.505744174210122,73.71387522948498 22.39079218520783,72.78871271071694 22.419530182436574,72.15881075961806 22.477006176952273,72.00133475712937 22.89370713706012,71.52890551449673 23.109242116450332,71.09584374762198 23.48283608071506,70.7218346051086 23.770216053177137,70.48561770616652 24.287500003672903,70.34782430122868 24.459927987190895,70.26908514189563 24.574879976193188,70.17066112036264 24.704200963809853,69.99349767895183 24.7329389610386,69.87538857322215 24.704200963809853,69.42263592844392 24.761676958296448,69.16673150684801 24.977211937657557,68.71397619833442 25.22148491430562,68.35964476976369 25.350805901922286,68.24153406193363 26.08362483177916,67.84783086607058 26.227314818068407,67.65097878556116 26.284790812555002,67.4738116380322 26.284790812555002,67.3557000616056 26.24168381668278,67.23758836930938 26.11236282903701,67.09979124860547 25.235853912919993,66.68639894055377 25.063425929431105,66.58797199143737 24.948473940428812,66.46985954629054 24.890997945942217,66.35174698533956 24.862259948655264,66.19426339061465 24.919735943170963,65.83992454953113 24.905366944527486,65.70212582981912 24.761676958296448,65.5643269524735 24.316238000930753,65.38715673564002 24.215655010571936,65.28872872480133 24.17254801467061,65.20998625818174 24.17254801467061,65.05250117054675 24.230024009157205,64.85564452148537 24.51740398167749,64.34381572803977 25.063425929431105,63.65481199459464 25.350805901922286,63.142978098207095 25.609447877155617,62.88706033434573 26.097993830422638,62.57208387852006 26.543432787788333,62.39490926013241 26.830812760279514,62.33585099605261 27.276251717674313,62.355537087300036 28.02343964614556,62.3161649016256 30.394324419263285,62.355537087300036 30.897239371115575,62.29647880398261 31.57258230651496,62.27679270309454 32.75084019373753,62.15867603020888 33.5986111125967,61.98150080367486 34.245216050738236,61.6665219796123 35.10735596824088,61.036561860375514 35.452211935218656,60.879071315706824 35.897650892613456,60.58377598944935 36.44367284036707,59.97349668748939 36.903480796318036,59.32384112926957 37.11901577570825,58.949795430387894 37.190860768809216,58.73324212638545 37.248336763324915,57.70953032730904 37.40639574822853,57.276418869776535 37.77998971246416,56.764557866386895 37.82309670833638,56.62674876303208 37.85183470559423,56.44956539844861 37.923679698695196,56.1345721066391 37.923679698695196,55.70145498518832 37.90931070008082,55.60301905860979 37.693775720719714,54.61865536705591 37.57882373168832,53.890221055458824 37.33455075506936,53.10271954617929 36.84600480183144,52.21677419292246 36.38619684585137,51.64582817853079 36.29998285410693,51.48832535336987 35.983864884328796,50.169231106119696 35.42347393796081,48.63355094498547 35.308521948958514,48.14134162096889 35.27978395172977,47.88539197748469 35.25104595447192,47.33411397443706 35.26541495308629,46.25123912149866 35.39473594073206,45.58182070570183 35.509687929734355,45.24711010236206 35.52405692834873,44.95177644441719 35.56716392425005,44.85333173083927 35.76832990499679,44.53830810654472 35.9263888898422,44.20359460279724 36.141923869232414,43.92794748932647 36.271244856819976,43.82950193876604 36.41493484308012,43.79012369605334 36.80289780595922,43.711367171905295 37.794358711107634,42.94348836209247 39.01572359420243,42.29374092929356 39.70543552815798,41.998400028125616 40.337671467714244,41.821195139760675 41.08485939618549,41.66367946447281 41.659619341167854,41.60461103317357 42.11942729720613,41.565232062836 43.28331618581433,41.407716052744945 43.97302811976988,41.36833701807336 45.007596020790515,41.50616358322441 46.04216392178205,41.42740556530771 46.430126884632045,41.30926844183705 46.99051783102914,41.2895789100221 47.57964677462587,41.2895789100221 48.09693072515074,41.42740556530771 49.13149862611317,41.36833701807336 49.26081961375894,41.2895789100221 49.51946158899227,41.033614703097555 50.12295953123248,40.81702917996881 51.10005143773742,40.71858108614833 51.7753943731077,40.46261566547764 52.00529835111229,40.482305332508986 52.53695130022243,40.40354664494953 52.896176265814574,40.265718817783636 53.24103223285056,40.00975243450375 53.95948216409306,39.2221601502024 54.57734910494764,38.7299123565972 55.49696501696599,37.70603050013597 56.057355963333976,36.70183022280253 56.63211590831634,34.96907279693551 57.120661861554254,33.74825145603245 57.508624824433355,33.059072652380564 57.56610081894905,33.0 57.60920781479217,33.03938177148666" stroke="#4dd2ff" stroke-linecap="round" stroke-linejoin="round" stroke-width="0.5"><title>2022-08-25 5.1km</title></polyline><polyline fill="none" points="117.28335603344021,83.58013281715102 117.07236898108386,83.48379795596702 116.61523036781,83.53196539051714 116.47457233298337,83.67646764701931 116.40424331557006,84.15814132406376 116.22842077189125,84.4953124296735 116.01743371965131,84.63981421405333 114.92733394954121,84.92881757035502 114.64601787977153,85.12148631713353 114.39986631879583,85.41048920134199 114.32953730132431,85.84399299617507 114.11855024908436,86.37383010232588 113.66141163581051,86.80733248067554 113.09877949621296,87.0 111.83285718259867,86.90366625602474 110.9537444646121,86.37383010232588 110.67242839495884,86.32566313195275 108.87903845054097,86.66283175870194 108.14058376755565,86.1329951720545 107.33180006709881,85.79582593939267 106.38235833175713,85.84399299617507 105.5735746313585,85.55499053711537 104.23732330015628,84.73614869758603 104.02633624791633,84.54347969894297 103.9560072303866,84.35081057457137 103.9560072303866,84.15814132406376 104.51863936986774,82.80945304530906 105.46808110515121,81.0754161925579 106.94499047118006,77.84815378391067 108.45706434594467,75.00620688754134 109.4416705899057,73.32029323972529 110.74275741243036,70.81548944543465 111.93835070874775,68.98504244477954 113.62624712701654,65.66130699359928 114.75151140592061,63.638145327946404 115.56029510631924,62.4820467135869 116.33391429804033,62.0485085643013 116.47457233298337,61.85582473775139 118.86575892550172,56.99051637836965 120.16684574796818,54.05202392031788 121.678919622791,51.35436571080936 122.41737430577632,49.812835649907356 122.8393484102562,48.801202166301664 123.22615800623316,48.22312433132902 125.4766865639831,44.56193838326726 125.4766865639831,44.1765477435838 125.37119303783402,43.93567833775887 124.24592875887174,43.35759096086258 122.87451291910838,42.92402468458749 121.53826158790616,42.153238618106116 120.90530043101171,41.67149630319909 120.58881985262269,41.382450536300894 120.2371747653815,40.8525325608789 119.60421360860346,40.3707881202281 118.90092343417928,39.55182076408528 116.8613819287857,38.39562768192263 115.31414354534354,37.28760505578248 113.907563196728,35.89052711240947 112.53614735690644,34.83067046239739 112.18450226966524,34.20438974167337 111.76252816518536,33.19270268941182 111.65703463897808,33.04817568423459 111.51637660409324,33.0 111.16473151696846,33.09635136043653 110.77792192110792,33.385405252774945 110.28561879915651,33.96351218695054 109.65265764226206,34.878845847415505 109.05486099410336,35.553300409868825 108.70321590697858,35.84235189284664 108.38673532853136,35.986877527990146 107.78893868043087,35.60147567678359 107.36696457577636,35.60147567678359 106.52301636664197,36.420454008330125 106.34719382307958,36.757679718808504 106.17137127945898,37.38395501469495 106.62850989279104,38.78102587984176 106.59334538399708,39.21459825025522 106.27686480566626,39.64816998288734 105.78456168365665,40.033566543337656 104.65929740469437,40.6116604389681 104.30765231756959,41.093404485989595 103.39337509102188,43.69480873522116 103.32304607360857,44.1765477435838 103.35821058228612,44.85098103250493 103.11205902125221,45.47723913344089 102.8659074602765,45.814454482810106 102.37360433820868,46.19984298115014 101.14284653321374,46.39253704139264 100.5098853763775,46.633404439664446 99.13846953643952,48.126777915254934 98.54067288833903,49.04206759642693 97.66156017052708,50.10187315026997 97.52090213558404,50.4390832092613 97.48573762684828,50.67994730107603 97.59123115299735,52.26964537028107 98.04836976632942,54.96729520370718 98.08353427506518,55.97890752676176 98.04836976632942,56.701485632162075 98.11869878374273,57.135031645040726 98.4000148534542,57.90577853831928 98.50550837966148,58.5801804169314 98.4703438708093,59.30275214603171 98.25935681862757,59.6881230106228 98.08353427506518,59.88080825423822 97.69672467920464,60.12166463120957 97.1340925397817,60.218007127026794 94.91872849070933,60.16983588313451 92.31655484577641,59.54360899559106 91.4022776192869,59.39909490942955 90.27701334032463,59.39909490942955 88.97592651785817,59.59178034181241 86.47924639913253,60.410692024132004 85.00233703310369,61.03691706983955 82.9627955276519,61.51862773820176 80.8529250047286,61.61496977743809 79.44634465611307,61.566798761690734 78.53206742956536,61.711311785213184 78.07492881634971,62.0966795013519 77.6529547116952,63.3009503671492 77.16065158956917,64.31253409257624 76.9848290461232,64.89058037730865 76.45736141537782,65.5649662767537 76.07055181951728,66.1911803735129 75.05078106682049,68.4070041886298 74.6991359795793,68.888702814118 74.5233134360169,69.27406114790938 75.08594557549804,67.73262479063123 76.28153887175722,65.51679590647109 76.87933551991591,64.79423940842389 77.30130962457042,64.55338684888557 80.88808951346437,64.26436351775192 83.87707275425782,64.31253409257624 85.2484885941376,64.07168113946682 87.92099125642562,63.975339903117856 91.71875819761772,63.58997464281856 94.21543831640156,63.73448667451157 97.1340925397817,63.49363324904698 99.0681405190262,63.445462540432345 100.47472086764174,63.3009503671492 101.91646572499303,63.34912109936704 103.25271705613704,63.15643812291091 105.96038422716083,63.0600965875783 107.43729359324789,62.91558422529488 109.6174931335263,62.91558422529488" stroke="#4dd2ff" stroke-linecap="round" stroke-linejoin="round" stroke-width="0.5"><title>2022-08-20 4.1km</title></polyline><polyline fill="none" points="166.63933176838327,82.78232697607018 166.57518363540294,83.17773663220578 166.3827392362291,83.39740841218736 165.5167394404416,83.39740841218736 164.45829524548026,83.57314570696326 164.13755458034575,83.83675143381697 164.04133238078794,84.01248844136717 163.88096204824978,84.71543532348005 163.68851764913416,84.93510584739852 163.49607325001853,84.97903993059299 162.59799938771175,84.97903993059299 162.34140685549937,85.06690807553241 162.18103652301943,85.1987102390267 161.95651805738453,85.55018235940952 161.79614772478817,86.51672832167242 161.69992552528856,86.82426494470565 161.34711079363478,87.0 159.9037778005004,86.86819871922489 159.0057039381354,86.42886065045604 158.74911140598124,86.4727944895858 157.40200061240466,86.95606624687207 157.17748214676976,86.91213248673012 156.56807488307822,86.51672832167242 156.02281575230882,86.25312522190507 155.67000102065504,86.16525746459956 155.0605937569053,86.20919134680298 154.80400122475112,86.16525746459956 152.9437053669826,85.1987102390267 152.78333503444446,85.06690807553241 152.65503876836738,84.80330355456681 152.68711283494486,84.62756706381333 153.5210385642131,83.08986787000322 154.00214956194395,81.99150591949001 155.18889002298238,79.97050820846925 155.99074168584775,78.21310654788977 157.59444501146208,75.35730435294681 159.2302224037121,72.58934405000764 159.61511120188516,71.71062053510104 160.51318506419193,69.95316489037941 161.34711079363478,68.19569775901618 162.59799938771175,66.17459635730484 162.7583697202499,65.47160100436304 162.59799938771175,65.20797727315221 160.57733319728868,65.38372645605705 159.35851866973098,65.38372645605705 158.7811854725005,65.42766373383347 157.9151856765966,65.42766373383347 158.74911140598124,65.47160100436304 160.38488879817305,65.20797727315221 162.9828881857684,64.94435328347026 163.59229544957634,64.68072903543361 164.00925831426866,64.32922963582678 164.426221178961,63.71410458095488 165.5167394404416,61.78084524709266 167.18459089909447,58.133977298479294 168.4996276262682,55.717350806924514 168.94866455742158,55.01432811279665 169.2373311559786,54.31130358047085 170.55236788315233,51.718884730536956 172.18814527528593,48.862801127077546 172.28436747484375,48.643101131689036 172.31644154136302,48.29158076568274 172.09192307572812,48.027940189494984 171.6749602110358,47.852179661917035 170.55236788315233,47.544598462001886 169.75051622022875,47.14913640220766 169.0448867569794,46.57791240001097 168.0505906949984,45.91880627415958 167.6015537637868,45.30363909891457 166.89592430053744,44.6884705160046 166.57518363540294,44.20512278491515 164.87525811017258,43.194483812112594 163.81681391515303,42.4474873469735 163.11118445190368,42.05201779003255 162.14896245650016,40.99742946054903 160.64148133032722,39.98677843005862 160.28866659861524,39.50342224637279 159.87170373398112,38.580648937117076 159.71133340144297,38.316998838447034 159.454740869347,38.18517369221081 159.29437053675065,38.18517369221081 158.97362987161614,38.40488223338616 158.5887410734431,38.75641552580055 157.72274127759738,40.030719858186785 156.98503774771234,40.77772303795791 156.88881554815453,40.82166433680686 156.34355641744332,40.601957770675654 156.02281575230882,40.55801643585437 155.6058528876165,40.90954691314255 155.2851122225402,41.52472414236399 155.18889002298238,41.876253355585504 155.22096408944344,42.095958880585385 155.44548255507834,42.62325140784378 155.4775566215976,42.84295632230351 155.44548255507834,43.546010842284886 155.31718628900126,43.897537412762176 155.1568159564049,44.20512278491515 154.86814935784787,44.424826406902866 154.32289022713667,44.77635182830272 153.42481636471348,45.083936195092974 152.97577943350188,45.4794012925413 152.10977963759797,47.76429935495253 152.01355743804015,48.15976050996687 152.04563150461763,48.774921150528826 151.9814833715791,49.03856099411496 151.7569649060024,49.5219000360521 151.50037237384822,49.82947897401755 151.2117057752912,50.04917799992836 149.80044684867607,50.40069606807083 149.35140991746448,50.708274000673555 147.9080769243301,52.46585543715628 146.97792899538763,53.47645956085762 146.81755866284948,53.78403397492366 146.78548459638841,53.959790624910966 146.81755866284948,54.75069412853918 146.6892623967724,55.67341194234905 146.94585492886836,57.65065373774269 147.138299327984,58.57336159981787 147.2345215275418,59.75969562676619 147.74770659167552,61.78084524709266 147.87600285781082,62.088410161901265 148.06844725692645,62.220223589160014 148.61370638769586,62.308099171175854 149.5438543165801,62.088410161901265 150.12118751381058,62.088410161901265 151.59659457334783,62.352036951546324 153.2965200986364,62.87928975556861 153.8417792293476,62.967165122536244 155.18889002298238,62.967165122536244 156.08696388534736,62.79141436013742 156.88881554815453,62.483850249584066 158.5887410734431,61.165714362228755 159.26229647023138,60.63845819811104 159.48681493586628,60.15513913927134 159.5830371354241,59.144560118060326 159.454740869347,57.65065373774269 159.51888900232734,56.94763609863003 160.1282962661353,54.97038913340657 160.4490369312698,54.355242667515995 160.70562946330756,53.6082772098016 161.28296266059624,52.64161294896621 161.69992552528856,51.67494521255139 161.92444399080705,50.92797230853466 161.9885921239038,49.96129841115908 162.05274025688414,49.7415993133327 163.0791103853262,49.08250094298273 163.27155478444183,49.08250094298273 163.7526657821727,49.39008038357133 164.073406447249,49.39008038357133 164.26585084636463,49.25826066642185 164.8431840435951,48.24764068773948 165.6129616399994,47.10519613750512 167.8260722293635,44.11724128603237 168.5958498257678,43.28236561274389 169.2373311559786,42.71113339520525 169.71844215370947,42.403546313842526 169.87881248630583,42.183841040270636 169.8146643532673,41.612606488663005 169.62221995415166,41.30501815053867 169.39770148857497,41.17319446938927 169.0448867569794,41.17319446938927 168.146812894498,41.744429954502266 167.50533156422898,41.92019447500934 166.89592430053744,41.876253355585504 166.79970210097963,41.65654765116051 166.9279983669985,41.348959363327594 167.53740563074825,40.55801643585437 167.8260722293635,39.67918823182117 167.9222944289795,39.32765614578966 167.85814629599918,38.75641552580055 167.72985002986388,38.18517369221081 167.40910936472937,37.745756071206415 166.89592430053744,37.218453977809986 166.76762803451857,35.46077286431682 166.79970210097963,35.32894631760428 166.89592430053744,35.02135079051368 167.3770352982101,34.31827397830784 167.50533156422898,33.96673488282249 167.66570189688355,33.79096516268328 167.98644256201806,33.61519532772945 169.42977555509424,33.30759783988469 170.16747908492107,33.2636553128541 171.06555294728605,33.43942537764087 171.93155274324818,33.79096516268328 172.2202193418634,33.79096516268328 172.47681187384296,33.703080259496346 173.3107376032276,33.0" stroke="#4dd2ff" stroke-linecap="round" stroke-linejoin="round" stroke-width="0.5"><title>2022-08-19 4.3km</title></polyline><polyline fill="none" points="59.772582530771615,123.0 59.678762447612826,123.03212814382277 59.51457730203401,123.22489689680515 59.350392156426096,123.77107400396198 59.18620701087639,123.93171404088207 58.90474676134181,124.09235394658754 58.15418609586777,124.06022597597621 57.872725846333196,124.15660987215233 57.825815804710146,124.34937752284168 57.7789057631162,124.92767934103904 57.73199572152225,125.21682961235638 57.66163065913133,125.34534070761583 57.427080451190704,125.47385171891074 57.02834509767126,125.50597945855407 55.87904907873599,125.34534070761583 54.870483184437035,125.53810719303146 54.47174783091759,125.50597945855407 52.571891146479174,125.08831843319058 51.539870231441455,124.63852864450018 51.14113487792201,124.5421449845453 50.88312964918441,124.60640076304844 50.7189445036347,124.67065652072779 50.43748425404192,124.95980716991471 50.296754129289184,125.18470182549208 50.01529387975461,126.02002257977438 49.780743671784876,126.56619192377548 48.74872275671805,128.62234526092652 48.396897444850765,129.55403266401845 47.69324682094157,131.6744082307123 46.63777088516508,134.30878239046433 46.49704076038324,134.5657926142885 46.379765656456584,134.66217136158957 45.88721021966194,134.79067628455232 45.816845157329226,134.91918112357962 45.44156482460676,136.13997290593397 44.925554367073346,137.0073729884025 44.69100415910361,137.64988910140528 44.43299893036601,138.1960261469212 43.9169884728326,139.48104850694654 43.776258348079864,140.0593058296363 43.49479809854529,140.7660624706332 43.14297278659069,141.66556724945258 43.11951776579372,142.05106803798117 43.189882828184636,142.46869303964195 43.213337848952506,142.9505669396458 43.189882828184636,143.43243965884903 43.14297278659069,143.5930636361736 42.298592037986964,145.45629218683462 41.99367676762631,146.42002416600008 41.31348116451409,147.99410957597138 41.12584099819651,148.66871375229675 40.02345502079697,151.30286028291448 39.46053452169872,152.97327638842398 39.13216423054109,153.7442328829784 38.803793939354364,154.64367830711126 38.545788710645866,155.51099678486935 37.34958265008754,158.53052016798756 36.95084729650989,159.71904325351352 36.76320713019231,160.10450865788152 36.176831610297086,161.54999719612533 34.55843517539324,165.85427793030976 34.04242471783073,167.0748777121771 33.901694593107095,167.26760330115212 33.40913915639976,167.5245704593981 33.26840903161792,167.74941644743376 32.96349376125727,168.55243573513872 32.07220297100139,170.60815017315326 31.861107783857733,171.2505565291358 31.368552347179502,172.43900275677152 30.406896494532702,174.9122326968063 30.313076411315706,175.0085916755197 30.055071182549,175.10495060698304 29.11687035075738,174.9122326968063 27.803389186155982,174.78375398511707 25.10606179467868,174.3983173466695 24.07404087969917,174.49467657708738 22.995109923067503,174.78375398511707 22.59637456954806,174.9764720211533 21.986544028826756,175.32978793006623 20.977978134644218,176.06853732552554 20.22741746919928,177.0 20.907613072282402,176.16489573773288 21.564353654539445,175.58674455633445 22.43218942396925,175.13707024029281 23.745670588570647,174.59103576035704 24.425866191624664,174.49467657708738 25.950442543369718,174.46255683887284 27.123193583101965,174.68739489634754 30.00816114101326,175.0085916755197 30.242711348924786,174.9764720211533 30.453806536097545,174.81587367097382 30.92290695203701,173.37048261830932 31.650012596684974,171.6038791306346 32.048747950204415,170.19058491670876 32.306753179000225,169.58029563969467 32.658578490896616,168.905763183182 33.22149898999487,167.55669133053743 33.43259417716763,167.33184512220032 33.972059655498015,167.04275676235557 34.08933475942467,166.88215193443466 34.957170528912684,164.762155915334 35.778096256777644,162.32092007281608 36.22374165186193,161.38938788307132 36.92739227574202,159.65479894609598 37.30267260846449,158.46627547229582 38.076688294735504,156.5389248430438 38.49887866905192,155.2861368060403 39.15561925136717,153.7442328829784 40.11727510395576,150.88525403977837 40.633285561489174,149.7930489040591 41.57148639328079,147.19100634905044 41.75912655965658,146.8376398903638 42.204771954828175,145.55266559732263 43.02569768263493,143.52881406096276 43.11951776579372,143.1111913104687 43.0491527034319,142.5650679141254 43.02569768263493,141.9225678591174 43.189882828184636,141.3443160149909 43.4009780153865,140.86243817939248 43.56516316093621,140.34843385340355 43.87007843129686,139.54529940457724 44.03426357684657,139.19191920811136 44.667549138335744,137.29650549902 45.69957005328615,134.91918112357962 45.88721021966194,134.72642383357743 46.40322067722445,134.53366635464772 46.520495781180216,134.37303497790708 46.778501009976026,133.5377497037989 47.95125204976648,130.67847709970374 48.84254283996415,128.33319999703963 49.217823172715725,127.56214388122316 50.57821437885286,124.47788918495644 50.85967462838744,124.06022597597621 51.070769815531094,124.06022597597621 51.446050148282666,124.28512166027213 51.75096541864332,124.5421449845453 52.19661081378581,124.76704011770198 52.595346167247044,124.92767934103904 53.13481164560653,124.79916797281476 53.557002019893844,125.15257403324358 54.0261024357751,125.40959622376249 54.26065264377394,125.44172397389775 54.75320808048127,125.08831843319058 55.48031372510013,124.8634236674261" stroke="#4dd2ff" stroke-linecap="round" stroke-linejoin="round" stroke-width="0.5"><title>2022-08-18 5.1km</title></polyline><polyline fill="none" points="78.1469879518263,155.1496296308469 78.21927710846649,155.28825735220744 78.19036144582788,155.40708098716277 78.16144578313106,155.46649276100652 77.85783132532379,155.6051201199807 77.42409638557001,155.74374732042634 77.25060240968014,155.8427666522839 77.13493975906749,155.98139358095068 77.06265060245642,156.27845075132063 77.01927710845484,156.37746964639518 76.91807228917605,156.49629221362557 76.65783132531215,156.55570345356682 76.49879518075613,156.51609596353956 76.23855421689223,156.3972734156705 76.02168674700079,156.35766587383114 75.8192771084723,156.25864696263307 75.35662650602171,156.41707718171529 75.13975903618848,156.51609596353956 75.0674698795192,156.5358997101721 74.82168674698914,156.37746964639518 74.344578313292,156.2190393754936 73.9831325301493,156.23884317070042 73.76626506022876,156.10021653643344 73.37590361447656,155.961589743667 73.0,155.64472790771833 73.01445783136296,155.48629667910427 73.08674698797404,155.40708098716277 73.4915662650892,154.57531309618935 73.70843373495154,154.2584476363918 73.92530120484298,153.8425604633012 74.1132530120667,153.40686760868266 74.98072289157426,151.76310319370532 75.40000000002328,151.05013820304157 75.83373493977706,150.27775473062502 76.22409638555837,149.44595164050406 77.20722891564947,147.50505556403368 77.40963855423615,147.24758742305858 77.71325301207253,146.73264950040175 78.07469879521523,146.37615273388656 78.26265060240985,146.11868219484313 78.40722891566111,145.80179462674278 78.85542168677785,145.04918333194655 79.18795180725283,144.41540177472052 79.47710843372624,143.54394672210765 79.63614457836957,143.2468583402151 80.1132530120376,142.5338432523713 80.41686746993219,141.9990791837772 80.86506024099072,141.04838168026617 81.80481927710935,139.4638692686931 82.02168674702989,139.14696430052572 82.12289156627958,139.12715771247167 82.77349397589569,139.4242561930223 84.08915662651998,140.55322377695848 84.76867469883291,141.02857540299738 85.11566265061265,141.4841189617655 85.30361445783637,141.66237467084284 85.44819277111674,141.78121166460915 85.80963855423033,141.90004854184372 86.09879518070375,142.05849753018992 86.50361445784802,142.3753948854719 87.03855421688058,142.87054534433992 87.42891566263279,143.12802278353047 88.45542168678367,143.88064600795042 89.58313253015513,144.65307024704816 90.33493975905003,145.0689889522473 90.92771084338892,145.42548956353858 91.1301204819465,145.58393394304585 91.83855421686894,145.9602385143735 92.2144578313455,146.2177093900027 92.98072289157426,146.65342808733112 93.40000000002328,146.7920655262351 94.49879518072703,147.386224182359 95.95903614460258,147.96057478136936 96.55180722891237,148.17843119316967 97.07228915661108,148.45570242365648 98.02650602412177,148.7527780382079 98.33012048195815,148.8716080801678 99.08192771088216,149.2875123095073 100.71566265061847,149.9806828537112 100.97590361448238,150.0400972873831 101.84337349398993,150.3569737748403 102.32048192771617,150.63424002179818 102.97108433736139,150.85209162806132 103.66506024097907,151.14916136921966 104.09879518073285,151.38681663791067 104.48915662651416,151.5452532248819 105.24096385543817,151.76310319370532 105.920481927722,152.159193043095 106.83132530123112,152.55528159817186 107.14939759037225,152.73352102567878 108.21927710846649,153.14941200389148 108.75421686749905,153.30784628695983 109.34698795183795,153.60491000949696 111.6891566265258,154.35746818153712 112.22409638555837,154.59511715990084 112.78795180725865,154.91198173959856 113.49638554218109,155.16943360070582 114.20481927713263,155.52590450567368 115.28915662650252,155.8823743623143 115.76626506025787,156.12002035106707 116.54698795182048,156.4368809445732 116.92289156626794,156.49629221362557 117.35662650605082,156.7141332843894 117.79036144580459,156.81315182357503 118.61445783133968,157.42706496082974 118.94698795184377,157.56569007766666 119.82891566265607,157.80333276622696 121.60722891567275,158.5162580364995 121.99759036148316,158.57566828647396 122.17108433737303,158.63507850727183 122.54698795182048,158.83311236636655 122.98072289157426,159.14996586795314 123.83373493980616,159.46681854130293 124.3108433735324,159.58563808025792 125.38072289156844,160.1599308769146 126.58072289158008,160.65500869017706 127.0,160.8728422875356" stroke="#4dd2ff" stroke-linecap="round" stroke-linejoin="round" stroke-width="0.5"><title>2022-08-17 4.3km</title></polyline><polyline fill="none" points="178.14156368831755,128.48401048970118 178.0157989487634,128.5988570474292 177.28217130104895,128.6275686750887 176.94679866210208,128.71370353008388 176.82103392246063,128.91468469408574 176.69526918287738,129.4602038377925 176.5485436533345,129.51762680696265 175.83587679557968,129.63247268919076 175.5424257364648,129.7473184963601 175.37473941699136,129.94829847828078 175.2908962572692,130.12056685127027 175.1860923075874,130.7235048268485 175.08128835790558,130.8670611828129 174.9974451981834,130.8957724399661 174.20093518061913,130.83834992101765 173.3834643732407,130.6660822516278 172.83848383493023,130.8096386545658 172.39830724630156,131.01061742154707 172.25158171672956,131.01061742154707 171.47603248915402,130.52252573151782 171.2664245898486,130.43639176318538 170.9100911608839,130.4938144133921 170.78432642130065,130.43639176318538 170.59567931192578,130.32154640633962 169.71532613466843,129.86216422847065 169.33803191583138,129.83345280244248 169.17034559638705,129.94829847828078 167.7869334606803,132.70457218204683 167.1790705525491,134.08269282308174 166.23583500552922,136.83890168488142 165.79565841692965,137.87246886390494 165.69085446721874,138.3318301034742 165.54412893767585,138.70506022653717 165.39740340816206,138.99215978189022 165.27163866857882,139.13570938358316 164.93626602960285,139.2218390883936 164.72665813023923,139.33667862914444 164.64281497048796,139.45151809482195 164.37032470136182,139.99700453200785 164.01399127248442,141.08797232715006 163.78342258319026,141.57603467459558 163.46901073420304,142.32248034895747 162.81922624621075,144.18858066505345 162.4419320274028,145.02114210638683 162.2952064978599,145.71015548905416 162.337128077721,146.91592240902537 162.23232412803918,147.31784287752816 159.69606854597805,153.6623227907985 159.44453906675335,154.4948393564846 159.04628405801486,155.4708882394334 158.64802904924727,156.61917410366004 158.0611269310466,157.96840040831012 157.7047935021692,158.94443000244792 157.4532640229736,159.46114935808873 157.39038165315287,159.5185625260783 157.32749928333214,159.66209536400856 156.78251874507987,161.1835362396232 156.67771479539806,161.6141303229233 156.11177346715704,163.22167224703298 155.16853792010807,165.5181352072541 154.60259659183794,167.26916805424844 154.0785768435162,168.24514600486145 153.9318513139733,168.35996658400109 153.5755178850959,168.44608196908666 153.40783156562247,168.61831261277257 153.19822366622975,169.22111853661772 152.38075285882223,171.17304734388017 151.8148115306103,172.952728248536 151.37463494195254,173.8999704151065 150.97637993321405,175.04813589500554 150.82965440364205,175.24906408293464 150.38947781504248,175.3064720944676 149.40432068810333,175.19165605264425 146.34404535769136,174.70368703841814 145.82002560931141,174.73239113560703 144.83486848234315,174.9046156200784 144.2060447843396,175.07683993587852 142.75975027887034,175.9379589838063 142.29861290028202,176.3972207511979 141.90035789154354,176.91388880531304 141.85843631168245,177.0 142.06804421101697,176.85648131872586 142.4872600097151,176.2824054218072 142.96935817823396,175.823143354457 144.2479663642007,175.04813589500554 144.8558292723028,174.84720747738902 145.58945692001726,174.70368703841814 146.42788851741352,174.70368703841814 147.68553591347882,174.818503398943 149.25759515853133,175.07683993587852 150.3475562351814,175.19165605264425 150.7458112439199,175.19165605264425 150.93445835332386,175.07683993587852 151.3117525721318,174.0147873005917 151.62616442117724,173.3258848629048 151.8148115306103,172.72309301527275 152.5065175984637,170.91470506973565 153.470713935385,168.6757227898197 153.6803218347195,168.44608196908666 154.09953763347585,168.21644084835134 154.20434158309945,167.9867994276574 154.41394948243396,167.38398927089293 154.9798908107041,165.97742419897986 155.31526344968006,165.259784622016 157.03404822427547,160.49458351239446 157.5999895525165,159.17408323702693 159.4235782768228,154.32259487331612 159.84279407552094,153.37524719869543 160.49257856345503,151.71019951773633 160.99563752187532,150.2748009256029 161.70830437971745,148.49489039064792 162.23232412803918,146.91592240902537 162.25328491799883,146.68625315731333 162.190402548149,145.8536996037583 162.21136333813774,145.59532011282863 162.46289281730424,144.87759731168626 162.81922624621075,144.13116248926963 162.98691256571328,143.55697969942412 163.25940283481032,142.9253764639143 163.657657843607,141.6621631834132 164.47512865104363,139.4802279495052 164.6637757604476,139.13570938358316 164.89434444974177,138.99215978189022 165.20875629872899,138.934739908349 165.29259945848025,138.8773200159485 165.37644261820242,138.73377020315093 165.64893288741587,138.07343955403485 165.9214231565711,137.52794714631455 166.55024685454555,135.7766179722821 166.99042344320333,134.80045971028449 167.1790705525491,134.14011428192316 167.51444319152506,133.4223446977703 167.76597267077886,132.70457218204683 168.2899924191006,131.55613005904888 168.5415218983544,130.8670611828129 169.48475744537427,128.97210784160416 169.84109087425168,128.42658718269377 170.46991457228432,127.30682894593338 171.47603248915402,125.12471547171299 171.89524828785216,124.29205976682715 172.23062092679902,123.71781215435476 172.54503277584445,123.0" stroke="#4dd2ff" stroke-linecap="round" stroke-linejoin="round" stroke-width="0.5"><title>2022-08-16 5.3km</title></polyline><polyline fill="none" points="59.52738574511022,213.0 59.27090664880234,213.57488635217305 59.1543252413685,214.0539570208639 59.037743833934655,214.3094608973479 58.87452986347489,214.37333681432938 57.89524604109465,214.5330265153898 57.66208322622697,214.6927160860796 57.59213438176084,214.94821912772022 57.615450663201045,215.55503751336073 57.56881810023333,215.7786017069011 57.428920411359286,215.9063525598758 57.26570644095773,215.93829026001913 56.96259478162392,215.93829026001913 56.54290171485627,215.8744148544065 56.14652492958703,215.9063525598758 55.493669047922594,215.58697527091135 55.35377135899034,215.61891302335425 54.74754804035183,215.8744148544065 54.35117125508259,216.0660410086275 54.257906129118055,216.03410332926433 53.32525486970553,215.49116198252887 53.11540833633626,215.427286430815 52.71903155097971,215.52309975058597 52.46255245464272,215.427286430815 51.32005466186092,214.7885297658504 50.946994158031885,214.6927160860796 50.78378018763033,214.82046764859115 50.45735224679811,215.55503751336073 50.20087315046112,215.93829026001913 49.5713335503242,217.50323117761582 48.68531485382118,219.19590827063075 46.86664489787654,224.3377242753195 46.54021695704432,224.91257728695928 46.353686705144355,225.04032217110216 45.933993638376705,225.16806697177526 45.74746338647674,225.4874286083068 45.141240067838226,227.43552329328668 44.69823071960127,228.2977885135624 44.604965593636734,228.64908066111093 44.348486497299746,229.19198546568805 44.255221371364314,229.54327600657416 43.99874227499822,230.11811371168005 43.835528304596664,230.6929497266683 43.322570111835375,231.74681136428262 43.20598870445974,232.38551262236433 43.112723578495206,233.79064804542577 42.85624448210001,234.589015945734 42.13343975605676,236.24961073529266 41.50390015591984,237.94212552608224 40.75777914834907,240.17749996471684 40.19818839262007,241.48677883872006 39.40543482208159,243.65824642225925 38.332885873678606,246.21288329156232 38.12303934036754,246.81960464298027 37.936509088409366,247.49018920942035 37.70334627354168,248.19270390743623 36.654113606666215,250.71534951731155 36.46758335476625,251.2901249770075 35.814727473130915,252.91864627046743 35.27845299898763,254.35556555977382 34.81212736922316,255.6966807025019 34.13595520608942,257.2613034099777 33.97274123568786,257.4528890035872 33.62299701338634,257.6125435215072 33.45978304298478,257.7083361697296 33.31988535405253,257.96378300210927 32.76029459838173,259.4325958122354 32.57376434648177,259.81576255684195 31.897592183377128,261.5400036159117 30.94162464243709,264.1901963402488 30.52193157566944,265.05229948388296 30.38203388673719,265.180018144878 30.10223850890179,265.2119477970555 25.46229849307565,264.50949424407736 24.62291235954035,264.5733537622 24.203219292801805,264.6372132595425 23.550363411108265,264.79686191161454 23.130670344398823,264.9565104334324 21.68506089222501,265.7547510870354 21.335316669923486,266.0101874079992 20.472614254860673,267.0 21.335316669923486,266.0101874079992 21.894907425594283,265.5631736272917 22.850874966563424,265.05229948388296 23.923423914937302,264.66914300042845 24.436382107640384,264.5414240057289 25.532247337541776,264.47756447711436 26.55816372294794,264.5733537622 29.939024538500234,265.0842291569861 30.428666449704906,265.05229948388296 30.54524785716785,265.0203698055702 30.615196701604873,264.9245807394327 31.920908464875538,261.38035230468086 32.29396896864637,260.1031371225545 32.62039690944948,259.33680400875164 33.34320163555094,257.8041287709784 33.52973188745091,257.6125435215072 33.97274123568786,257.3570962302183 34.15927148758783,257.1655105428217 34.625597117323196,256.0159924759937 35.39503440642147,253.97238811512943 35.721462347195484,252.98250957434357 37.07380667340476,249.50192910926125 37.79661139950622,247.49018920942035 38.47278356261086,245.92548831010936 38.845844066439895,244.87170309705834 39.1489557257737,244.23304262800957 39.75517904444132,242.60444898935384 39.89507673328626,242.09351485605293 40.24482095564599,241.13550975752878 41.014258244715165,239.31528713770967 41.22410477808444,238.64467453233374 42.48318397838739,235.57898761425167 43.042774734058185,233.98225663878839 43.136039859993616,233.63097407409805 43.136039859993616,233.31162574034533 43.042774734058185,232.51325262367027 43.0894072970259,232.09809731450514 43.25262126736925,231.6510059957218 43.812212023098255,230.5652085361071 43.99874227499822,230.0223075448157 44.16195624539978,229.25585652005975 44.5117004677013,228.39359552544192 44.674914438131964,227.78681699026492 45.39771916420432,226.12615031613677 45.724147104949225,225.2638755175576 45.88736107540899,225.008385957859 46.493584394076606,224.7209598041809 46.63348208300886,224.52934213369736 46.796696053410415,223.98642438059323 47.51950077948277,222.26185210447875 47.96251012774883,221.04825508657086 48.21898922408582,220.50532766563992 49.10500792055973,218.30166559487407 50.7138313431642,214.66077818234044 50.78378018763033,214.5330265153898 50.97031043950119,214.43721271042887 51.48326863220427,214.72465398453642 51.833012854505796,214.98015698450035 52.06617566937348,215.0440326822427" stroke="#4dd2ff" stroke-linecap="round" stroke-linejoin="round" stroke-width="0.5"><title>2022-08-14 5.0km</title></polyline><polyline fill="none" points="115.93779063160764,213.0 115.6190348189848,213.10075947597215 114.68728705900139,213.10075947597215 114.34401156849344,213.23510536705726 114.27045253480901,213.30227827966155 114.09881478955504,213.83966079026868 113.87813768847263,214.14193783527298 113.63294090950512,214.30986933482927 113.09350799582899,214.37704189623764 112.62763411583728,214.5113869531633 112.43147669263999,214.67931815101474 112.35791765898466,214.8472492115834 112.2353192695009,215.5525581680413 112.16176023581647,215.65331639292708 111.94108313479228,215.72048851534782 111.47520925480057,215.68690245682956 110.8622173074109,215.75407456830726 110.37182374953409,215.51897208216542 110.15114664848079,215.48538599080348 108.97420210952987,215.92200475101708 108.70448565264815,215.85483269432734 107.74821821477963,215.2502831973543 107.11070658947574,215.2502831973543 105.71308494952973,214.34345561823284 105.46788817059132,214.27628304585232 105.32077010319335,214.34345561823284 105.24721106950892,214.4778006972192 105.02653396845562,215.0823524659645 104.2909436315822,216.5265522726113 103.01592038109084,219.2134086375445 102.57456617898424,220.55682365142275 101.83897584216902,222.47117487803916 101.42214131797664,223.51230578072136 100.85818872638629,225.05719998426503 100.71107065898832,225.22512256764458 100.31875581265194,225.32587605192384 100.2206771010824,225.3930450140033 100.02451967791421,225.6617206427909 99.77932289900491,226.3669924978749 99.19085062950035,227.87828118301695 98.94565385050373,228.34845761924225 98.77401610530796,228.8858008012321 98.57785868213978,229.3895587587176 98.43074061474181,229.96048295173387 97.81774866738124,231.33741124736844 97.25379607581999,232.7479135980684 97.20475671999156,233.05016284289013 97.15571736422135,234.46065344325325 96.34656799372169,236.84503221462364 95.95425314738532,237.78534300056344 95.19414313262678,239.86744443682255 94.60567086320953,241.07639688528434 94.04171827161917,242.28534222512098 93.72296245893813,243.35995433747303 93.52680503579904,243.79651390368235 93.23256890106131,244.9046994090022 92.86477373263915,245.77781105494068 92.5214982421021,246.78524296225805 91.88398661685642,248.46428517217282 91.58975048211869,249.06873701117001 90.9522388568439,250.71418023730803 90.38828626525356,251.95664904984005 89.87337302949163,253.60206916557217 89.50557786104036,254.47514388000127 89.18682204841753,255.48253317479976 88.62286945685628,256.85929056275927 87.86275944209774,259.00835684058256 87.74016105261398,259.2434096020588 87.64208234107355,259.34414641761396 87.02909039368387,259.64635656807513 86.8574526484008,259.88140860022395 86.61225586949149,260.55298435443547 86.14638198949979,261.5939224388858 85.82762617684784,262.5676984570746 85.36175229682704,263.7093610196025 84.96943745049066,264.783861170552 84.06220936839236,267.0 84.20932743576122,266.39560086961137 84.92039809474954,264.6495489587396 85.63146875365055,262.43338479765225 86.73485425885883,259.7806720479275 87.05361007159809,259.4448831837508 87.49496427367558,259.20983065260225 87.71564137469977,259.0419358230138 87.9853578315815,258.2360387325316 88.52479074525763,257.09434578088985 89.03970398107776,255.71758996674907 89.50557786104036,254.17292612910387 90.24116819785559,252.19170987252437 90.73156175579061,251.04998335940763 91.44263241472072,249.0015757834626 92.42341953053256,246.78524296225805 93.33064761263086,244.06516548378568 94.28691505055758,241.8151976599038 94.31143472844269,241.58012497423624 94.5566315073811,240.841323354849 95.31674152211053,239.02788994298317 95.66001701261848,238.42340858462558 95.70905636844691,238.0875848397991 95.9052137916151,237.58384819419007 96.10137121478328,236.84503221462364 96.49368606111966,236.03904811808025 97.03311897473759,234.66215131047647 97.13119768636534,234.158406272094 97.08215833056602,233.0165796153742 97.18023704213556,232.44566390904947 97.2783157537051,232.24416386945813 97.57255188847193,231.80757977280882 97.86678802315146,231.2030771854479 98.43074061474181,229.3895587587176 98.79853578322218,228.34845761924225 99.0927719179017,227.87828118301695 99.33796869684011,227.17301451250387 99.80384257689002,225.59455176856136 99.95096064422978,225.35946053566295 100.07355903368443,225.22512256764458 100.53943291373434,225.0236154510785 100.6620313032181,224.9228618186171 100.76011001475854,224.7549389883061 101.27502325057867,223.54589056079567 101.93705455373856,221.66513442905853 102.79524328000844,219.6836048909754 103.1630384484888,218.64245459831727 103.89862878527492,216.8959971051081 105.17365203579539,214.44421443564352 105.32077010319335,214.30986933482927 105.51692752630333,214.34345561823284 105.8847226947837,214.44421443564352 106.30155721900519,214.7464905916422 107.03714755584951,215.04876630326908 107.18426562318928,215.0823524659645 107.77273789269384,214.94800778206263 108.94968243161566,215.48538599080348 110.10210729265236,215.14952477495535 110.83769762949669,215.41821379144676 111.35261086528772,215.41821379144676 111.96560281270649,215.61973032340757 112.30887830321444,215.61973032340757" stroke="#4dd2ff" stroke-linecap="round" stroke-linejoin="round" stroke-width="0.5"><title>2022-07-26 4.5km</title></polyline><polyline fill="none" points="174.9404767745291,214.17691077121708 174.2006129086658,214.11152702115942 173.74714795866748,214.2096026383224 173.67554822965758,214.30767820749315 173.69941480603302,214.6019046263682 173.67554822965758,214.7653635610186 173.603948500735,214.9288223622716 173.50848219549516,215.05958930708584 173.36528273756267,215.1249727474351 172.74475175334373,215.15766445954796 172.43448626121972,215.32112294020772 172.21968707433552,215.5826562316215 172.10035419280757,215.77880597588955 171.9810213111632,216.49802005950187 171.88555500592338,216.62878597881354 171.79008870065445,216.66147744533373 171.33662375059794,216.66147744533373 170.54902673218749,216.53071154738427 170.28649439266883,216.43263706789003 170.00009547683294,216.23648796457564 169.78529629003606,216.20379642868647 169.4511642216239,216.39994556397141 169.04543242423097,216.53071154738427 168.75903350839508,216.6941689064406 168.59196747417445,216.6941689064406 168.1862356767815,216.43263706789003 167.49410496355267,216.07303023157874 167.35090550567838,216.04033866900136 166.94517370825633,216.1711048874131 166.70650794511312,216.10572178887378 165.7995780450583,215.4191979645111 165.44157940029982,215.2230478678539 165.15518048449303,215.2230478678539 165.03584760290687,215.32112294020772 164.63011580548482,216.46532856635167 164.05731797390035,217.41337970008317 162.95945546333678,219.83252430779976 161.74226007112884,223.29773455220857 161.00239620532375,225.16107751590607 160.64439756056527,225.7821879813855 160.54893125526723,225.8475679182302 160.21479918682599,225.91294783366902 160.04773315263446,226.0763975289883 159.83293396577938,227.0570928971283 159.4749353210209,227.87433536583558 159.30786928682937,228.36467924505996 158.90213748943643,229.1492269526061 158.63960514991777,229.96646087728732 157.70880867357482,232.15663133803173 157.4701429104025,232.77772009115142 157.3985431814508,233.2680519557034 157.27921029986464,234.90248282745597 157.20761057088384,235.16399052811903 156.2052143655892,237.4848563975538 155.34601761813974,239.93644604117435 154.51068744709482,241.86500878880906 154.08108907335554,243.17249838568387 153.55602439437644,244.44729251823446 152.88776025749394,246.24506531492807 152.60136134168715,247.16028889888548 152.31496242585126,247.78133109021292 152.1240298153425,248.3369987856713 151.57509856004617,249.54638784863346 151.2170999153459,250.55965413978265 150.88296784690465,251.37680063789594 150.50110262582893,252.3900576619344 150.3340365916083,253.07645466690883 150.21470370996394,253.43599501576682 149.92830479421536,254.0897030861961 149.54643957313965,255.13563155777229 148.97364174152608,256.57377428148175 148.04284526512492,258.7963381650479 147.82804607824073,259.0904991825373 147.32684797560796,259.38465976776206 147.18364851770457,259.58076658428763 146.70631699138903,260.75740344874794 146.30058519399608,262.0320855794853 144.3912590885884,266.803900452549 144.36739251230028,267.0 144.43899224125198,266.93463350553066 144.6060582754726,266.2809673867596 145.32205556498957,264.15653775758983 145.82325366762234,262.8491852396255 145.96645312552573,262.3262418414233 146.30058519399608,261.6725606722175 146.49151780456305,261.05156158407044 146.8256498729752,260.1690858811926 147.04044905977207,259.5480821282399 147.32684797560796,259.2212372737704 147.85191265458707,258.92707644843904 147.97124553617323,258.8290227439429 148.13831157039385,258.4694920830225 149.069108046795,256.18155456351815 149.52257299679331,254.84146472768043 150.35790316789644,252.6842280951969 150.9307009994809,251.0499424389709 151.3602993732202,250.00399261532584 151.670564865286,249.38295732124243 152.14789639168885,247.87939020743943 153.12642602072447,245.42789786384674 153.62762412335724,243.92430103597871 154.03335592072108,242.87831397114496 154.82095293921884,241.08051093050744 155.58468338137027,238.8577502979897 155.96654860241688,238.04055268225784 156.84961192612536,235.78506994777126 157.20761057088384,234.67366330903315 157.23147714723018,234.28140066866763 157.15987741827848,233.85644860731554 157.15987741827848,233.36611818452366 157.18374399459572,232.84309774251597 157.80427497881465,231.53554065727803 158.04294074198697,230.81638061857666 158.94987064201268,228.6588849957625 159.37946901578107,227.41667999447964 159.64200135524152,226.8282644078281 159.88066711835563,226.1744672821369 160.0715997289226,225.97832772789116 160.57279783164267,225.74949800498143 160.69213071317063,225.58604804261995 161.1933288158325,224.18037285574246 161.50359430795652,223.42849602803471 161.8615929527732,222.6766163752618 162.57759024229017,220.97670413747255 162.9833220395667,219.7998333593423 163.6515861765074,218.26335275976453 163.9379850923142,217.7076015524217 164.534649500245,216.26917949509516 164.94038129760884,215.48458128735365 165.08358075554133,215.28843125479762 165.2745133660792,215.19035616633482 166.27690957140294,215.77880597588955 166.9213071319682,215.97495552773762 167.30317235304392,215.87688077584608 167.44637181097642,215.87688077584608 167.54183811621624,215.90957236511167 167.89983676094562,216.1711048874131 168.44876801624196,216.39994556397141 168.6397006267507,216.39994556397141 169.02156584785553,216.1711048874131 169.8091628663242,216.00764710109797 170.47742700320669,216.3672540547268 170.90702537694597,216.26917949509516 171.33662375059794,216.3345625402144 171.9094215822406,216.23648796457564 172.1242207690957,216.10572178887378 172.17195392170106,215.97495552773762 172.21968707433552,215.77880597588955 172.21968707433552,215.28843125479762 172.31515337963356,215.09228102986526 172.62541887172847,214.9288223622716 173.19821670337114,214.8961306127312 173.603948500735,214.79805533199396 173.79488111130195,214.6999800032645 174.15287975606043,214.2749863564095 174.67794443501043,213.84999180691375 175.3939417244983,213.71922407159582 175.4655414535082,213.55576428232598 175.41780830084463,213.26153632513888 175.44167487716186,213.19615227587929 175.63260748772882,213.0" stroke="#4dd2ff" stroke-linecap="round" stroke-linejoin="round" stroke-width="0.5"><title>2022-07-25 4.6km</title></polyline></svg>