<?xml version="1.0" encoding="utf-8" ?>
<svg baseProfile="full" height="300mm" version="1.1" viewBox="0,0,200,300" width="200mm" xmlns="http://www.w3.org/2000/svg" xmlns:ev="http://www.w3.org/2001/xml-events" xmlns:xlink="http://www.w3.org/1999/xlink"><defs /><rect fill="#222222" height="300" width="200" x="0" y="0" /><text fill="#FFFFFF" style="font-size:12px; font-family:Arial; font-weight:bold;" x="10" y="20">Over 4km Runs</text><text fill="#FFFFFF" style="font-size:4px; font-family:Arial" x="10" y="280">ATHLETE</text><text fill="#FFFFFF" style="font-size:9px; font-family:Arial" x="10" y="290">ChiZhang9797</text><text fill="#FFFFFF" style="font-size:4px; font-family:Arial" x="120" y="280">STATISTICS</text><text fill="#FFFFFF" style="font-size:3px; font-family:Arial" x="120" y="285">Number: 4</text><text fill="#FFFFFF" style="font-size:3px; font-family:Arial" x="120" y="290">Weekly: 1.3</text><text fill="#FFFFFF" style="font-size:3px; font-family:Arial" x="141" y="285">Total: 19.4 km</text><text fill="#FFFFFF" style="font-size:3px; font-family:Arial" x="141" y="290">Avg: 4.8 km</text><text fill="#FFFFFF" style="font-size:3px; font-family:Arial" x="167" y="285">Min: 4.5 km</text><text fill="#FFFFFF" style="font-size:3px; font-family:Arial" x="167" y="290">Max: 5.3 km</text><polyline fill="none" points="82.21234553249087,42.72601573454449 82.02369842317421,42.89828557113651 80.92325695161708,42.94135301260394 80.42019799316768,43.07055529509671 80.2315508837346,43.3720270410995 80.04290377435973,44.19030575666693 79.82281548005994,44.276440210436704 78.75381519336952,44.44870903377887 78.31363860471174,44.620977744518314 78.06210912548704,44.92244771742844 77.9363443859038,45.18085027689813 77.77913846139563,46.08525724025094 77.62193253688747,46.30059177419753 77.49616779730422,46.343658659927314 76.30140277097235,46.25752488151193 75.07519655989017,45.999123377434444 74.25772575236624,46.214457981841406 73.59746086946689,46.51592613229877 73.3773725751089,46.51592613229877 72.21404873376014,45.783788597240346 71.89963688480202,45.654587644763524 71.3651367413695,45.740721620066324 71.17648963199463,45.654587644763524 70.89351896790322,45.48231960949488 69.5729892020463,44.79324634268414 69.00704787374707,44.750179203634616 68.75551839458058,44.92244771742844 66.68040019104956,49.05685827304842 65.7686058288673,51.124039234622614 64.35375250835204,55.25835252730758 63.69348762539448,56.80870329585741 63.53628170082811,57.497745155211305 63.31619340652833,58.05759033979848 63.09610511222854,58.48823967282078 62.90745800285367,58.70356407534564 62.40439904440427,58.83275863257586 62.08998719538795,59.00501794370939 61.964222455746494,59.177277142211096 61.55548705207184,59.995506797975395 61.02098690875573,61.631958490703255 60.67513387481449,62.364052011893364 60.203516101348214,63.48372052342165 59.22883936937433,66.28287099755835 58.662898041075096,67.53171315955115 58.44280974677531,68.56523323355941 58.505692116566934,70.37388361353078 58.34848619205877,70.97676431629225 54.54410281899618,80.4934841861832 54.16680860018823,81.74225903471233 53.56942608702229,83.20633235914283 52.972043573856354,84.92876115549006 52.091690396599006,86.95260061245062 51.5571902532829,88.41664500365732 51.17989603447495,89.19172403714038 51.08557247975841,89.27784378908109 50.99124892504187,89.49314304601285 50.173778117634356,91.77530435941298 50.016572193126194,92.42119548437768 49.16766020079376,94.8325083705131 47.7528068801621,98.27720281085931 46.90389488777146,100.9037520813581 46.117865265288856,102.36771900727763 45.89777697098907,102.53994987599435 45.36327682767296,102.66912295360817 45.11174734844826,102.92746891913703 44.79733549937373,103.83167780490476 43.57112928829156,106.7595710158057 42.72221729590092,109.42909237276763 42.061952412943356,110.84995562263066 41.464569899835624,112.57220384248649 41.24448160547763,112.87359612438013 40.584216722578276,112.95970814168686 39.106481032213196,112.7874840789591 34.51606803655159,112.05553055761266 33.73003841401078,112.09858670338872 32.25230272352928,112.35692343008122 31.30906717653852,112.61525990380323 29.13962541834917,113.90693847567309 28.447919350408483,114.59583112678956 27.85053683730075,115.37083320796955 27.787654467509128,115.5 28.102066316525452,115.28472197806695 28.730890014616307,114.42360813269624 29.454037267365493,113.73471503166365 31.371949546330143,112.57220384248649 32.2837439084542,112.2708112160617 33.38418538001133,112.05553055761266 34.641832776134834,112.05553055761266 36.528303870232776,112.22775509839994 38.8863927378552,112.61525990380323 40.52133435278665,112.7874840789591 41.118716865894385,112.7874840789591 41.40168752998579,112.61525990380323 41.96762885822682,111.02218095088028 42.4392466317513,109.9888272943499 42.72221729590092,109.0846395228873 43.759776397724636,106.37205760457437 45.20607090310659,103.01358418472228 45.520482752122916,102.66912295360817 46.14930645021377,102.32466127251973 46.306512374663725,101.98019914145698 46.62092422368005,101.07598390631028 47.46983621607069,98.96613629846252 47.97289517452009,97.88967693300219 50.5510723364423,90.74187526857713 51.399984328774735,88.76112485551857 54.13536741526332,81.48389230997418 54.764191113295965,80.06287079802132 55.738867845211644,77.56529927658266 56.49345628282754,75.4122013883898 57.56245656957617,72.74233558596461 58.34848619205877,70.37388361353078 58.37992737698369,70.02937973596272 58.28560382220894,68.78054940563743 58.317045007192064,68.39298016924295 58.6943392259418,67.31639596750028 59.22883936937433,66.19674373388989 59.48036884859903,65.33546954911435 59.88910425227368,64.38806469587144 60.48648676543962,62.49324477510527 61.71269297658,59.220341924228705 61.99566364067141,58.70356407534564 62.34151667461265,58.48823967282078 62.81313444807893,58.40210986250895 62.93889918772038,58.315980023908196 63.06466392730363,58.100655304733664 63.4733993310947,57.110159331030445 63.88213473488577,56.29192071946454 64.82537028187653,53.66492695841589 65.4856351648341,52.20068956539035 65.7686058288673,51.21017142289202 66.2716647873167,50.13351704663364 66.64895900618285,49.05685827304842 67.43498862866545,47.334195088536944 67.8122828475316,46.30059177419753 69.22713616804685,43.45816176239168 69.76163631142117,42.639880774047924 70.70487185847014,40.96024341890006 72.21404873376014,37.687073207547655 72.84287243179278,36.43808965021162 73.34593139018398,35.57671823151759 73.81754916376667,34.5" stroke="#4dd2ff" stroke-linecap="round" stroke-linejoin="round" stroke-width="0.5"><title>2022-08-16 5.3km</title></polyline><polyline fill="none" points="174.2910786177381,34.5 173.90635997324716,35.36232952825958 173.7314878620673,36.08093553126673 173.55661575094564,36.464191346021835 173.31179479527054,36.56000522148679 171.84286906168563,36.79953977308469 171.4931248393841,37.03907412910485 171.38820157264126,37.42232869158033 171.42317599483067,38.33255627003382 171.35322715039365,38.66790256035165 171.14338061708258,38.859528839820996 170.8985596614657,38.90743539002142 170.44389217247954,38.90743539002142 169.8143525723135,38.811622281587915 169.2197873943951,38.859528839820996 168.24050357192755,38.38046290635248 168.03065703850007,38.42836953501683 167.12132206058595,38.811622281587915 166.52675688266754,39.09906151294126 166.3868591937353,39.05115499391104 164.9878823045874,38.2367429737933 164.6731125045335,38.14092964620795 164.07854732649866,38.28464962585713 163.69382868200773,38.14092964620795 161.98008199280594,37.1827946487756 161.42049123707693,37.03907412910485 161.17567028151825,37.23070147287217 160.68602837022627,38.33255627003382 160.30130972573534,38.90743539002142 159.3570003255154,41.25484676641645 158.02797228074633,43.79386240596068 155.29996734688757,51.50658641298651 154.8103254355956,52.36886593041709 154.53053005773108,52.560483256645966 153.90099045756506,52.75210045764106 153.62119507970056,53.231142912467476 152.71186010178644,56.15328493993729 152.047346079431,57.44668277032906 151.90744839044055,57.97362099165912 151.52272974594962,58.7879781985248 151.38283205707557,59.314914009853965 150.99811341252644,60.17717056750553 150.75329245690955,61.03942458998063 149.98385516781127,62.62021704640938 149.80898305674782,63.5782689335465 149.66908536775736,65.68597206813865 149.28436672320822,66.88352391860099 148.20015963411424,69.37441610294627 147.2558502338943,71.91318828912335 146.1366687225527,75.26624994707527 145.2972825889592,77.23016825807281 144.1081522331806,80.48736963339616 142.499328810547,84.31932493732893 142.1845590105513,85.2294069644704 141.9047636326286,86.2352838141378 141.55501941032708,87.28905586115434 139.98117041005753,91.0730242759746 139.70137503219303,91.93518746548216 138.72209120972548,94.37796940567205 137.917679498496,96.53334833966801 137.21819105389295,98.54502105375286 136.2039328091778,100.89195511495927 135.9591118535609,101.17933350536623 135.43449552013772,101.41881528226077 135.18967456452083,101.56250425460166 134.97982803109335,101.9456745031348 134.14044189761626,104.14889371834579 133.86064651975175,104.72364383525564 132.8463882750948,107.31000542387483 131.4124369636993,111.28529451036593 130.78289736353327,112.57844922580989 130.57305083010579,112.77002721730969 130.15335776336724,112.81792169559048 123.19344773964258,111.76424136612331 121.93436853931053,111.8600306432927 121.30482893926091,111.95581988932099 120.32554511673516,112.19529286739998 119.69600551662734,112.43476565013407 117.52759133838117,113.63212663054583 117.00297500489978,114.0152811119915 115.70892138232011,115.5 117.00297500489978,114.0152811119915 117.84236113837687,113.34476044093026 119.27631244988879,112.57844922580989 120.88513587240595,112.0037145006354 121.65457316144602,111.81213600860792 123.29837100632722,111.71634671566426 124.83724558446556,111.8600306432927 129.90853680780856,112.62634373546462 130.64299967460101,112.57844922580989 130.81787178578088,112.53055470835534 130.9227950524073,112.38687110916362 132.8813626973424,107.07052845702856 133.4409534530132,105.15470568381716 133.93059536418878,104.00520601312746 135.01480245334096,101.70619315645308 135.29459783120546,101.41881528226077 135.9591118535609,101.03564434533473 136.2389072314254,100.74826581421075 136.93839567602845,99.023988713976 138.09255160961766,95.95858217266505 138.58219352085143,94.47376436152263 140.61071001016535,89.2528936638846 141.69491709931754,86.2352838141378 142.7091753439745,83.88823246516404 143.2687660996453,82.30755464558024 143.72343358868966,81.3495639419998 144.6327685667202,78.90667348401621 144.84261509997305,78.14027228407213 145.36723143351264,76.70326463627862 146.52138736710185,73.97293070654268 146.83615716715576,72.96701179849333 148.72477596759563,68.36848142137751 149.56416210113093,65.97338495819713 149.70405979000498,65.44646111113252 149.70405979000498,64.96743861050345 149.56416210113093,63.7698789355054 149.63411094556795,63.14714597174316 149.87893190106843,62.47650899356813 150.71831803466193,60.84781280416064 150.99811341252644,60.03346131721628 151.24293436814332,58.883784780075075 151.7675507015665,57.590393288148334 152.0123716572416,56.680225485382834 153.09657874633558,54.18922547419788 153.58622065745294,52.89581327632186 153.83104161312804,52.512578936788486 154.74037659115857,52.081439706264064 154.95022312458605,51.79401320053148 155.19504408014473,50.979636570904404 156.2792511692387,48.39277815670357 156.94376519165235,46.57238262984902 157.32848383614328,45.75799149845261 158.65751188085414,42.45249839228927 161.0707470147754,36.99116727351793 161.17567028151825,36.79953977308469 161.45546565926634,36.655819065636024 162.2249029483064,37.086980976804625 162.7495192817878,37.47023547673598 163.09926350408932,37.566049023356754" stroke="#4dd2ff" stroke-linecap="round" stroke-linejoin="round" stroke-width="0.5"><title>2022-08-14 5.0km</title></polyline><polyline fill="none" points="78.90668594738236,184.5 78.42855222843355,184.6511392139655 77.03093058848754,184.6511392139655 76.51601735269651,184.85265805060044 76.40567880216986,184.95341741951415 76.14822218427435,185.75949118539575 75.8172065326944,186.21290675291675 75.44941136427224,186.46480400225846 74.64026199374348,186.56556284439284 73.94145117374137,186.7670804297377 73.64721503894543,187.01897722651483 73.53687648847699,187.27087381738238 73.35297890426591,188.32883725207648 73.24264035368105,188.4799745893979 72.91162470215932,188.580732773029 72.2128138821572,188.5303536852589 71.2933259611018,188.63111185247544 70.55773562425748,188.27845812324085 70.22671997273574,188.22807898622705 68.46130316425115,188.88300712654018 68.05672847898677,188.78224904151284 66.62232732214034,187.875424796046 65.6660598841845,187.875424796046 63.569627424294595,186.51518342734198 63.20183225587243,186.41442456879304 62.98115515476093,186.51518342734198 62.87081660423428,186.7167010458361 62.53980095265433,187.62352869895403 61.43641544732964,189.78982840891695 59.5238805715926,193.82011295630946 58.86184926843271,195.83523547713412 57.75846376322443,198.7067623170733 57.13321197690675,200.26845867111115 56.28728308953578,202.58579997642664 56.06660598842427,202.83768385148142 55.47813371894881,202.98881407792214 55.331015651579946,203.08956752100494 55.036779516842216,203.4925809642009 54.66898434847826,204.55048874681233 53.786275944206864,206.81742177455453 53.41848077572649,207.5226864288852 53.161024157947395,208.32870120188454 52.86678802315146,209.0843381380837 52.64611092209816,209.94072442763718 51.72662300104275,212.00611687105265 50.88069411372999,214.12187039709534 50.80713507998735,214.57524426435702 50.733576046302915,216.69098016488715 49.519851990567986,220.26754832195002 48.93137972103432,221.67801450088155 47.791214698925614,224.80116665526293 46.90850629477063,226.6145953279629 46.06257740739966,228.42801333771786 45.58444368833443,230.03993150620954 45.29020755365491,230.69477085553808 44.84885335160652,232.35704911351786 44.29716059897328,233.66671658243285 43.78224736312404,235.17786444339436 42.82597992522642,237.69642775825923 42.38462572317803,238.60310551675502 41.4283582852222,241.07127035598387 40.58242939785123,242.93497357476735 39.81005954416469,245.40310374836554 39.258366791531444,246.712715820031 38.78023307258263,248.22379976219963 37.934304185269866,250.28893584414618 36.794139163102955,253.51253526087385 36.61024157889187,253.86511440310278 36.463123511581216,254.01621962644276 35.54363559052581,254.46953485213453 35.28617897257209,254.82211290035048 34.91838380420813,255.8294765316823 34.219572984206025,257.3908836583432 33.74143926525721,258.85154768562643 33.0426284451969,260.56404152940377 32.45415617572144,262.1757917558425 31.093314052559435,265.5 31.313991153612733,264.59340130444616 32.38059714209521,261.97432343810215 33.447203130461276,258.6500771964784 35.10228138824459,254.67100807192037 35.580415107368026,254.1673247756553 36.24244641046971,253.81474597891793 36.57346206204966,253.5629037345352 36.978036747314036,252.35405809880467 37.78718611784279,250.6415186713275 38.55955597158754,248.57638495013816 39.258366791531444,246.25938919367036 40.36175229673972,243.28756480879383 41.097342633700464,241.57497503911145 42.16394862206653,238.50236367518664 43.63512929575518,235.17786444339436 44.99597141891718,231.09774822570034 46.43037257582182,227.72279648986296 46.46715209260583,227.3701874613471 46.83494726102799,226.26198503229534 47.975112283136696,223.54183491447475 48.490025518869516,222.63511287694564 48.563584552612156,222.1313772597059 48.857820687349886,221.37577229129965 49.15205682214582,220.26754832195002 49.74052909162128,219.05857217713492 50.54967846209183,216.9932269657147 50.696796529518906,216.23760940815555 50.62323749583447,214.5248694230686 50.77035556314513,213.66849586358876 50.917473630513996,213.36624580417993 51.3588278326788,212.71136965922778 51.800182034727186,211.80461577817914 52.64611092209816,209.0843381380837 53.19780367478961,207.5226864288852 53.639157876838,206.81742177455453 54.00695304526016,205.75952176877763 54.70576386532048,203.39182765284204 54.92644096631557,203.03919080350897 55.11033855052665,202.83768385148142 55.809149370586965,202.53542317662505 55.99304695479805,202.38429272794747 56.140165022108704,202.13240848245914 56.91253487585345,200.31883584122988 57.90558183059329,197.4977016436169 59.192864919954445,194.52540733647766 59.744557672704104,192.96368189749774 60.847943177912384,190.34399565766216 62.76047805370763,186.66632165346527 62.98115515476093,186.46480400225846 63.27539128944045,186.51518342734198 63.8270840421319,186.66632165346527 64.45233582844958,187.11973588747787 65.55572133371606,187.57314945492544 65.77639843476936,187.62352869895403 66.65910683898255,187.42201167310122 68.42452364740893,188.22807898622705 70.1531609389931,187.72428716244758 71.25654644425958,188.12732068719924 72.02891629788792,188.12732068719924 72.94840421900153,188.4295954851259 73.46331745479256,188.4295954851259" stroke="#4dd2ff" stroke-linecap="round" stroke-linejoin="round" stroke-width="0.5"><title>2022-07-26 4.5km</title></polyline><polyline fill="none" points="167.41071516176453,186.26536615681835 166.30091936298413,186.16729053171002 165.62072193797212,186.3144039574836 165.51332234445726,186.46151731122518 165.54912220902042,186.90285693955957 165.51332234445726,187.14804534151335 165.40592275105882,187.3932335434074 165.26272329321364,187.58938396064332 165.04792410630034,187.6874591211381 164.1171276299865,187.73649668932194 163.65172939177137,187.9816844103043 163.32953061145963,188.37398434741772 163.1505312891677,188.66820896381978 162.97153196670115,189.74703008926008 162.82833250885596,189.94317896821303 162.68513305095257,189.9922161680006 162.00493562588235,189.9922161680006 160.82354009820847,189.79606732109096 160.42974158894503,189.6489556018205 160.00014321517665,189.35473194686347 159.67794443498133,189.3056946430297 159.17674633237766,189.59991834594985 158.56814863631735,189.79606732109096 158.13855026254896,190.0412533596391 157.88795121118892,190.0412533596391 157.2793535151286,189.6489556018205 156.2411574452999,189.1095453473681 156.02635825850302,189.06050800348748 155.4177605623263,189.2566573311051 155.05976191762602,189.1585826833034 153.6993670675438,188.12879694675212 153.16236910043517,187.8345718017954 152.732770726725,187.8345718017954 152.55377140431665,187.9816844103043 151.94517370819813,189.69799284951296 151.08597696077777,191.12006955011748 149.43918319494696,194.74878646168509 147.6133901066496,199.9466018282983 146.50359430792741,202.74161627385183 145.9665963408188,203.6732819720637 145.8233968828572,203.77135187733802 145.32219878019532,203.8694217505108 145.0715997288935,204.11459629348246 144.74940094863996,205.58563934569247 144.21240298153134,206.81150304875337 143.9618039301713,207.54701886759722 143.35320623411098,208.72384042889462 142.95940772484755,209.94969131593825 141.56321301031858,213.23494700703304 141.2052143655601,214.16658013671986 141.09781477210345,214.90207793354057 140.9188154497533,217.3537242411694 140.81141585629666,217.745985792164 139.30782154831104,221.22728459630162 138.0190264271805,224.9046690617688 136.76603117055492,227.79751318320632 136.12163360998966,229.75874757851125 135.334036591521,231.67093877732987 134.33164038619725,234.367597972363 133.90204201248707,235.74043334831367 133.4724436387187,236.67199663529755 133.1860447229701,237.50549817850697 132.3626478400547,239.31958177295746 131.8256498729461,240.8394812096667 131.32445177034242,242.06520095682936 130.75165393867064,243.58508649287978 130.5010548873688,244.61468200036325 130.32205556490226,245.15399252364296 129.8924571913085,246.13455462927232 129.31965935963672,247.70344733665115 128.46046261227457,249.86066142222262 127.06426789762918,253.19450724756462 126.74206911731744,253.63574877378414 125.99027196335373,254.07698965162854 125.77547277649865,254.3711498764169 125.05947548703989,256.1361051731219 124.45087779097958,258.0481283692061 121.58688863285352,265.2058506788162 121.55108876840677,265.5 121.65848836186342,265.401950258296 121.90908741316525,264.4214510801248 122.9830833474407,261.23480663637747 123.7348805014044,259.273777859431 123.9496796882595,258.489362762135 124.45087779097958,257.50884100832627 124.73727670678636,256.57734237611294 125.23847480944823,255.2536288217816 125.56067358958535,254.32212319233804 125.99027196335373,253.83185591062647 126.7778689818224,253.39061467265128 126.95686830423074,253.24353411589982 127.20746735553257,252.7042381245119 128.60366207011975,249.27233184527722 129.28385949513176,247.2621970915352 130.53685475181555,244.02634214278078 131.3960514991777,241.57491365846363 132.04044905980118,240.00598892298876 132.5058472978999,239.07443598186364 133.22184458747506,236.8190853111446 134.68963903101394,233.1418467957701 135.44143618497765,230.8864515539608 136.05003388103796,229.31747095671017 137.23142940877005,226.62076639576117 138.3770250719972,223.28662544698454 138.94982290355256,222.06082902339404 140.27441788918804,218.6776049216569 140.81141585629666,217.010494963557 140.84721572080161,216.42210100300144 140.73981612734497,215.78467291095876 140.73981612734497,215.04917727675638 140.77561599184992,214.26464661376667 141.70641246822197,212.30331098590977 142.06441111298045,211.22457092785044 143.42480596300447,207.98832749362919 144.06920352362795,206.12501999171218 144.46300203283317,205.24239661174943 144.82100067753345,204.26170092320535 145.10739959334023,203.9674915918149 145.85919674742036,203.62424700745032 146.03819606971228,203.37907206392265 146.789993223676,201.2705592836137 147.25539146189112,200.14274404203752 147.79238942911616,199.01492456288543 148.8663853633916,196.4650562062161 149.4749830593355,194.6997500389989 150.47737926471746,192.3950291396468 150.90697763842763,191.56140232863254 151.80197425029473,189.40376924263546 152.41057194641326,188.2268719310232 152.62537113326835,187.93264688219642 152.91177004907513,187.78553424947313 154.41536435706075,188.66820896381978 155.38196069787955,188.96243329159915 155.95475852955133,188.8153211637691 156.16955771640642,188.8153211637691 156.3127571743098,188.8643585476675 156.84975514136022,189.2566573311051 157.67315202433383,189.59991834594985 157.9595509400824,189.59991834594985 158.53234877169598,189.2566573311051 159.71374429942807,189.0114706516324 160.71614050475182,189.55088108207565 161.3605380653753,189.40376924263546 162.00493562588235,189.5018438103143 162.86413237336092,189.35473194686347 163.18633115361445,189.1585826833034 163.25793088250794,188.96243329159915 163.32953061145963,188.66820896381978 163.32953061145963,187.93264688219642 163.47273006942123,187.63842154480517 163.93812830751995,187.3932335434074 164.7973250549985,187.34419591908227 165.40592275105882,187.19708299799822 165.69232166692382,187.0499700048822 166.22931963403244,186.4124795346288 167.0169166525011,185.7749877103779 168.09091258671833,185.57883610739373 168.1983121802332,185.33364642347442 168.12671245122328,184.89230448770104 168.16251231572824,184.79422841381165 168.44891123153502,184.5" stroke="#4dd2ff" stroke-linecap="round" stroke-linejoin="round" stroke-width="0.5"><title>2022-07-25 4.6km</title></polyline></svg>