<?xml version="1.0" encoding="utf-8" ?>
<svg baseProfile="full" height="300mm" version="1.1" viewBox="0,0,200,300" width="200mm" xmlns="http://www.w3.org/2000/svg" xmlns:ev="http://www.w3.org/2001/xml-events" xmlns:xlink="http://www.w3.org/1999/xlink"><defs /><rect fill="#222222" height="300" width="200" x="0" y="0" /><text fill="#FFFFFF" style="font-size:12px; font-family:Arial; font-weight:bold;" x="10" y="20">Over 10km Runs</text><text fill="#FFFFFF" style="font-size:4px; font-family:Arial" x="10" y="280">ATHLETE</text><text fill="#FFFFFF" style="font-size:9px; font-family:Arial" x="10" y="290">ChiZhang9797</text><text fill="#FFFFFF" style="font-size:4px; font-family:Arial" x="120" y="280">STATISTICS</text><text fill="#FFFFFF" style="font-size:3px; font-family:Arial" x="120" y="285">Number: 6</text><text fill="#FFFFFF" style="font-size:3px; font-family:Arial" x="120" y="290">Weekly: 1.0</text><text fill="#FFFFFF" style="font-size:3px; font-family:Arial" x="141" y="285">Total: 61.7 km</text><text fill="#FFFFFF" style="font-size:3px; font-family:Arial" x="141" y="290">Avg: 10.3 km</text><text fill="#FFFFFF" style="font-size:3px; font-family:Arial" x="167" y="285">Min: 10.1 km</text><text fill="#FFFFFF" style="font-size:3px; font-family:Arial" x="167" y="290">Max: 10.6 km</text><polyline fill="none" points="43.65267001299071,102.00719770202704 44.70879813062493,101.94933034022688 45.19461706475704,101.8625292621291 45.638190874131396,101.71786070395319 46.08176468356396,101.68892697818228 46.799931803543586,101.5731920277467 46.94778974005021,101.51532452405081 47.327995862375246,101.25492052386107 47.51809892358142,101.05238381450181 47.602589172980515,100.87878073638421 47.623711735301185,100.30010258023685 47.53922148590209,99.48994998451963 47.412486111803446,98.59299100180215 47.306873300054576,98.15897695971944 47.24350561297615,97.58028991559695 46.821054365922464,96.79905940630124 46.69431899179472,96.39397556311451 45.74380368590937,94.5710868012975 45.49033293768298,93.96345304400893 45.21573962707771,93.21114169365319 45.025636565929744,92.86391999237821 44.85665606710245,92.69030888643465 44.39195969537832,92.51669761033554 43.589302325912286,92.54563283479365 41.6037814647716,92.69030888643465 40.80112409539288,92.8349848199141 39.89285391420708,92.8060496426333 38.07631355186459,92.89285516012751 37.42151411893428,92.9507254815544 36.80895981067442,92.9507254815544 35.49936094484292,93.09540120219754 35.288135321316076,92.8060496426333 35.224767634266755,92.63243848003913 35.203645071946084,92.19840982864844 35.14027738486766,91.93799212719023 35.09803226016811,91.8222508035833 34.80231638721307,91.44609097945795 34.56996820133645,91.30141391126381 34.33762001548894,91.27247848347179 33.218124210776296,91.24354305087763 31.59168690961087,90.809510995241 30.556681354297325,90.75163997409982 29.711778860189952,90.83844649868843 29.52167579907109,90.75163997409982 29.416062987264013,90.5201557004475 29.352695300185587,90.11505749326898 29.120347114338074,89.36272979275964 29.078101989638526,89.13124370330479 29.078101989638526,88.46571951055375 28.866876366111683,87.62657674580987 28.740140991983935,86.96104689773347 28.592283055535518,86.38232325742138 28.676773304963717,85.31167953646218 28.803508679004153,85.10912459075917 29.331572737864917,84.55933142721187 29.732901422597934,83.92272668417718 30.13423010724364,83.48867668333696 30.704539290774846,83.11249915543885 31.612809471960645,82.70738400073606 31.993015594314784,82.41801546566421 32.119750968384324,82.21545720973518 32.16199609314208,82.04183566309803 32.1408735307632,81.37628482368018 32.2253637801914,81.02903991439962 32.43658940374735,80.45029688556679 32.626692464895314,80.07411290238088 32.9646534625208,79.64005346714112 34.08414926723344,78.94555615750141 34.316497453080956,78.74299392901594 34.46435538958758,78.51149395566608 34.46435538958758,78.27999367953453 34.4432328272087,78.16424342796381 34.295374890760286,77.93274269787071 34.10527182955411,77.81699221937743 32.901285775442375,77.32505184119509 32.64781502727419,77.18036323459819 32.1408735307632,76.60160762585292 31.633932034281315,76.28329123460571 31.29597103665583,75.87816045447835 31.211480787256733,75.617718749083 31.190358224877855,75.32833862723783 31.25372591195628,75.01001994688704 31.317093599034706,74.86532944839564 32.3098540295905,73.33160289550142 33.59833033310133,71.6531699331681 33.97853645551368,71.24802855841699 34.08414926723344,71.07439625683764 34.12639439193299,70.78500870923745 34.041904142533895,69.88790430557856 34.041904142533895,68.96185628231615 34.10527182955411,67.86216796352528 34.21088464136119,67.65959305454453 34.35874257780961,67.6017144665384 35.858444504847284,67.71747162361862 37.78059767893865,67.45701791376632 38.03406842719414,67.54383585961477 38.4776422365976,67.77535017370246 39.51264779191115,67.77535017370246 40.420917973067844,67.94898571068188 42.06847783658304,67.8911072172923 42.95562545538996,67.6885323414026 43.314709015365224,67.57277516540489 43.69491513771936,67.37019992528076 44.34971457064967,67.10974570465623 45.32135243888479,66.55989664705703 45.7226811235887,66.2705017203698 46.102887245913735,65.8653480281937 46.48309336826787,65.17079668470251 46.88442205294268,64.67882116777764 47.03227998944931,64.4183629876934 47.26462817529682,63.86850557140133 47.34911842469592,63.231826429691864 47.77156967180781,62.24786325242894 47.87718248355668,61.81376011222892 47.898305045906454,61.17707358111511 47.856059921206906,60.30886098498013 47.898305045906454,60.07733690699388 48.04616298235487,59.701109634392196 48.04616298235487,59.52746600811952 48.003917857655324,59.064415505490615 47.856059921206906,58.10937001880666 47.43360867409501,56.86490907843108 46.92666717770044,55.85196929676749 46.250745182391256,54.896906479872996 45.84941649768734,54.260195072813076 45.36359756355523,53.56559819892573 44.68767556830426,52.813115176715655 44.476449944777414,52.46581424148462 44.138488947064616,51.481791225101915 43.69491513771936,49.976804267193074 43.504812076542294,49.484786525019445 43.48368951419252,48.79017091386777 43.589302325912286,47.256218450682354 43.504812076542294,46.59053683090315 43.504812076542294,46.2721664756682 43.61042488834937,45.80908130054013 44.03287613534485,44.62242000976403 44.201856634172145,43.92778531915974 44.39195969537832,43.551523723624996 44.58206275655539,43.31997772886825 45.8071713730169,41.87280839984305 46.166254933021264,41.322880952764535 46.546461055317195,40.686120721758925 47.1167702388484,40.07830200092576 47.34911842469592,39.93358295025246 48.003917857655324,39.70203222303826 48.891065476462245,39.29681772160984 49.46137465999345,39.007378224196145 50.22178690470173,38.5153299922531 51.573630895261886,38.0811686518573 52.165062641113764,37.99433625594247 52.629759012925206,38.05222452468297 53.05221025997889,38.02328039267741 54.40405425053905,37.61806204836466 54.95324087172048,37.56017363771389 55.79814336585696,37.32861980593589 56.62192329755635,37.241787040868076 58.332850848149974,37.241787040868076 61.290009577496676,37.09706567117246 63.50787862454308,36.72078955620236 64.50063905518618,36.344512641386245 65.74687023393926,35.67878998653032 66.67626297747483,35.27356627507834 67.09871422449942,34.98412019902025 67.943616718665,34.26050293809385 68.13371977981296,34.14472390184528 68.30270027864026,34.14472390184528 68.6829064009944,34.37628189865791 68.89413202449214,34.463116069324315 69.14760277274763,34.405226626913645 69.69678939389996,34.05788957494951 69.92913757977658,34.0 70.73179494921351,34.23155818616215 71.1542461962963,34.14472390184528 71.34434925744426,34.20261342942831 71.40771694446448,34.3183924278419 71.36547181976493,34.49206078340649 70.73179494921351,35.707734501876985 69.65454426917131,37.5312294253381 68.6829064009944,39.38364947860828 68.4294356527389,39.81780762449489 68.19708746689139,40.07830200092576 68.09147465511342,40.107245796811185 67.66902340803063,39.991470584704075 67.07759166217875,40.107245796811185 65.70462510923971,40.07830200092576 64.07818780807429,40.1940771562804 63.465633499843534,40.338795994000975 62.38838281988865,40.42562723980518 62.13491207163315,40.396683495957404 61.24776445279713,40.22302093326289 60.466229645797284,40.1940771562804 58.35397341052885,40.45457097890903 57.023251982289366,40.54140216803353 56.03049155170447,40.686120721758925 54.9321183093125,40.9176701617107 54.40405425053905,41.120275673180004 53.242313321185065,41.583373114364804 52.52414620120544,41.93069540025317 51.61587601996143,42.50956436227716 50.72872840115451,43.117374735098565 50.09505153057398,43.63835339366051 49.799335657648044,43.898842147842515 49.123413662367966,44.70924915441719 48.595349603536306,45.722252695355564 48.13065323178307,46.04062403948046 47.982795295334654,46.21428089503024 47.81381479650736,46.99573463665729 47.68707942235051,47.80612746589759 47.64483429768006,49.51372878297116 47.77156967180781,50.29516795986274 48.34187885528081,52.060628955980064 48.82769778944203,53.160415430538706 49.10229109998909,54.40490241193038 49.31351672351593,54.98373058528523 49.419129535293905,55.18631999880017 49.69372284592828,55.50467432316509 49.86270334472647,55.7362043812318 50.09505153057398,56.22820474929176 50.306277154100826,56.57549830361677 50.47525765292812,56.980673255820875 50.686483276454965,57.299024353487766 50.79209608823294,57.55949300756038 50.961076587060234,58.22513338261342 51.193424772965955,58.83288980007637 51.34128270941437,59.845812526138616 51.72148883173941,61.46647683363699 51.70036626941874,61.87164059243514 51.510263208212564,62.768785615684465 51.40465039643459,62.97136612086615 51.04556683645933,63.2607664403331 50.918831462360686,63.492286355249234 50.876586337632034,63.63698614844179 50.72872840115451,64.4183629876934 50.70760583883384,65.19973637837393 50.55974790232722,65.95216675459233 50.43301252822857,66.21262267818383 49.84158078234759,67.0808063230943 49.524742347042775,67.48595723375911 48.29963373061037,68.67246528163378 47.475853798823664,69.13549065556435 46.4619708059181,69.85896537818189 45.997274434164865,70.09047666500555 45.30022987653501,70.40880419011228 44.476449944777414,70.55349833058426 43.71603770006914,70.72713114292128 41.286943029466784,71.0454575233889 39.68162829068024,71.07439625683764 38.878970921301516,70.9875800422451 37.06243055895902,70.92970254221291 36.13303781545255,70.9875800422451 35.288135321316076,70.9875800422451 34.76007126251352,71.13227370970708 34.37986514015938,71.30590595444664 34.041904142533895,71.50847669156792 33.534962646022905,71.9136174703599 33.492717521381564,72.05831038094766 33.55608520840178,72.6370808409265 33.59833033310133,72.78177316029905 33.72506570722908,72.95540378750593 34.86568407426239,73.64992459342466 35.81619938014774,74.286566272247 37.083553121308796,74.95214376169315 37.23141105778632,75.1257722605369 37.54824949303293,75.87816045447835 37.78059767893865,76.16753967771365 38.836725796572864,76.97779898669978 39.470402667153394,77.67230401470442 40.01958928836393,77.96168030575791 40.84336922006332,78.59830648118805 41.54041377775138,79.06130589831446 41.70939427657868,79.23493036757282 41.89949733772664,79.55324145247869 42.343071147130104,79.87155196504318 42.63878702008515,80.24773637857288 42.80776751888334,80.39242247863149 44.03287613534485,81.1447882931825 44.9833914412302,81.40522186875751 45.638190874131396,81.6945920590515 45.82829393533757,81.86821394615981 45.997274434164865,81.95502482587472 46.39860311886878,82.09970953087031 46.799931803543586,82.30226791919267 47.856059921206906,83.11249915543885 48.6798398529354,83.83591676910874 49.69372284592828,84.5014583634038 49.90494846942602,84.7040140042227 50.39076740349992,85.4274251156312 50.70760583883384,85.65891604722128 51.10893452356686,85.68785239235149 51.29903758468572,85.57210698333802 51.552508332941215,85.05125170657993 52.101694954093546,84.41464873205405 51.9749595799658,84.44358528050361 51.1511796482082,85.25380671847961 49.69372284592828,86.32445078933961 47.09564767652773,88.61039889571839 46.69431899179472,89.04443634171912 46.39860311886878,89.4495369981596 46.06064212121419,90.17292872245889 45.95502930946532,90.78057548699144 45.997274434164865,91.15673672487901 46.14513237058418,91.47502637896105 46.56758361769607,91.93799212719023 46.56758361769607,92.08266867526982 46.440848243568325,92.48776238106075 46.41972568118945,92.74817927407275 46.37748055654811,92.86391999237821 46.01839699651464,93.18220657783968 45.95502930946532,93.38475228889729 45.933906747057335,93.64516786269087 46.250745182391256,94.60002169010113 46.990034864720656,95.95995613138075 47.2012604882475,96.45184474033886 47.2857507376757,96.77012487675529 47.3702409871039,97.60922431276413 47.3702409871039,98.36151697846071 47.43360867409501,99.4610158947471 47.602589172980515,100.82091300582397 47.56034404822276,101.08131764427526 47.412486111803446,101.37065568231628 47.180137925897725,101.71786070395319 46.88442205294268,101.89146295950923 44.8144109424029,102.00719770202704 43.821650511876214,102.03613137587672 42.53317420827807,102.32546785386512 41.09683996831882,102.96200644149212 40.56877590948716,103.30920834305289 39.78724110245821,103.71427636797307 39.618260603630915,103.8589432950539 39.343667293025646,104.23507675268047 39.23805448130588,104.40867654061003 39.04795142009971,104.98734127121861 38.90009348365129,105.62387029099045 38.878970921301516,106.0" stroke="#4dd2ff" stroke-linecap="round" stroke-linejoin="round" stroke-width="0.5"><title>2022-10-14 10.2km</title></polyline><polyline fill="none" points="123.0148830616381,78.2253588885651 125.32813607368735,78.08556356748159 125.61729270021897,77.99236661063333 125.8384124734439,77.78267323500768 126.00850460660877,77.4797822591936 126.04252303330577,77.1535912581603 125.88944011338754,76.1983133196918 125.87243090005359,75.84881979208149 125.7703756201372,75.21972928386822 125.82140326008084,74.6139358010114 125.78738483344205,74.45083711591724 125.3451452870213,73.49554107134463 124.98795180724119,72.8897402635921 124.63075832743198,72.21403632643342 124.426647767541,71.74803174557746 124.29057406095671,71.14222351362696 124.20552799431607,70.9325200644671 124.06945428773179,70.76941716854344 123.78029766122927,70.60631408610789 123.5421686746995,70.55971317112562 120.71863926295191,70.79271759364929 120.61658398297732,70.69951587032119 120.42948263644939,70.41991033480735 120.34443656977965,70.16360477895068 120.3274273564748,69.9538998905773 120.37845499647665,69.79079587530578 120.90574060947984,68.95197227831522 121.34798015592969,67.99663939361926 121.68816442240495,67.15780524193542 122.33451452868758,65.89954476155981 122.77675407513743,65.13060233532451 123.03189227494295,64.61797174744424 123.21899362155818,64.1053393164475 123.8993621544796,63.103370606928365 124.426647767541,62.14799853583099 124.57973068745923,61.96158372682112 124.68178596740472,61.86837623085012 124.9199149539345,61.93828185852908 125.49822820693953,62.24120584891352 126.50177179303137,63.149973958861665 127.84549964565667,64.1053393164475 128.20269312543678,64.59467031325039 128.54287739191204,64.92089004484296 128.81502480510972,65.0606982728059 129.32530120483716,65.24710903015512 129.8015591778676,65.59662854325143 130.46491849754239,66.20246033644071 132.1998582565284,67.41411620072904 132.60807937633945,67.64712576344027 133.52657689581974,68.39275380542676 134.87030474838684,69.18497932799801 135.53366406803252,69.62769167344959 135.99291282775812,69.83739704158506 137.5407512402453,70.76941716854344 138.27214741316857,71.04902201870573 138.8844790928124,71.35192665438808 142.72856130404398,72.98294055543374 143.8341601700813,73.30914109687728 144.24238128986326,73.56544099896564 144.90574060947984,73.93824003401096 147.831325301202,75.19642958210898 149.29411764704855,75.68572251939622 149.90644932672149,75.9886173059349 150.51878100639442,76.33811049092037 151.79447200562572,76.61770442214038 152.20269312543678,76.75750118221913 153.3763288448099,77.45648292674741 154.61800141743151,77.94576810934814 155.6045357902476,78.45835078577511 157.45854004251305,79.1573241934675 158.2239546420751,79.3670155476284 159.3805811481143,79.76309837546432 160.11197732106666,80.08928340763669 161.30262225374463,80.69505363074131 162.28915662650252,81.06783402750443 163.377746279235,81.55710681936762 164.2622253720765,81.90658635730506 164.38128986535594,81.92988496275211 164.5854004252178,81.83669051826291 164.8235294117767,81.58040548194549 165.62296243797755,80.9513402582088 166.18426647767774,80.41546769370325 166.4904323175142,80.18247899402922 166.8476257972943,80.0193866778136 167.74911410346976,79.83299523085589 170.28348688871483,78.43505161313806 170.4535790219379,78.41175243677571 170.6917080084968,78.64474402950145 170.86180014171987,78.71464143304911 170.9808646349993,78.69134230236523 173.46420978027163,77.87587032892043 174.00850460666697,77.6428774799424 175.6754075123754,77.03709429116861 176.1006378455204,76.85069894613116 177.59744861800573,76.52450650597166 178.53295535081998,76.45460802888556 179.36640680371784,76.5478059907764 180.47200566972606,76.7342017316987 180.99929128275835,76.89729780517519 181.30545712259482,77.03709429116861 181.9347980155726,77.38658490648959 182.4961020552728,77.87587032892043 182.8873139616917,78.13216202305921 183.10843373491662,78.24865809539915 183.3805811481143,78.36515407252591 184.77533664068324,78.52824828075245 185.20056697377004,78.50494911953865 185.52374202691135,78.45835078577511 185.77888022677507,78.34185488476942 185.9319631467224,78.2253588885651 185.98299078669515,78.13216202305921 186.0,78.03896509666811 186.0,77.99236661063333 185.9319631467224,77.92246885302302 185.79588944007992,77.89916959289985 184.50318922748556,77.96906736186065 184.28206945428974,77.94576810934814 184.0609496810648,77.85257106118661 183.7717930545914,77.59627886452654 183.14245216158452,77.22348939262156 182.18993621543632,76.45460802888556 181.73068745571072,76.12841468265106 181.49255846918095,76.01191687822575 180.99929128275835,75.89541897864547 180.693125442951,75.75562137343513 180.0978029765829,75.28962836629944 179.5705173635506,74.73043474761653 179.48547129693907,74.56733619577426 179.48547129693907,74.42753728854586 179.5364989368827,74.28773824429663 179.7406094968028,74.00813974461926 179.89369241672102,73.93824003401096 180.26789510986418,73.91494012287876 180.31892274980783,73.86834028917656 180.30191353650298,73.70524075136927 180.693125442951,71.14222351362696 180.30191353650298,71.21212459477829 179.85967399005312,71.32862632061006 179.06024096385227,71.74803174557746 178.3628632175678,72.16743593687715 177.8695960311452,72.65673926763702 177.25726435150136,73.00624061883718 177.00212615166674,73.26254106526903 176.86605244508246,73.56544099896564 176.71296952516423,73.72854069675668 176.559886605246,73.86834028917656 176.11764705882524,74.05473953265755 175.94755492560216,74.1945388053573 175.6413890857366,74.66053539111454 175.23316796598374,75.19642958210898 174.97802976612002,75.40612676081946 174.79092841953388,75.42942642829439 173.07299787382362,75.38282708951738 172.30758327426156,75.42942642829439 171.8653437278408,75.40612676081946 171.09992912827875,75.52262506016996 170.7597448618326,75.68572251939622 170.60666194188525,75.80222059035441 170.53862508860766,75.87211938727705 170.47058823533007,76.12841468265106 170.41956059529912,76.68760281935101 170.43656980866217,78.13216202305921 170.40255138196517,78.29525649768766 170.30049610204878,78.45835078577511 169.72218284901464,78.76123968306638 169.2459248759551,78.97093161972589 167.9362154500268,79.71650045282149 167.66406803682912,79.8096962828713 166.9496810772689,79.97278883893159 166.67753366407123,80.08928340763669 165.69099929125514,80.92804149290896 165.01063075833372,81.32411998500174 164.38128986535594,81.90658635730506 164.31325301202014,81.95318356432836 164.2282069454377,81.92988496275211 163.59886605243082,81.55710681936762 162.0680368532776,80.92804149290896 161.62579730688594,80.78824882132176 160.67328136070864,80.34557112373295 159.65272856131196,79.78639733110322 156.72714386958978,78.83113702952687 156.1318214032508,78.69134230236523 155.89369241672102,78.57484659164038 155.55350815024576,78.55154743809544 155.41743444366148,78.52824828075245 154.3968816442357,77.96906736186065 152.5939050318848,77.1768906400539 151.84549964565667,76.71090227742388 150.2976612331404,76.1750137777999 149.58327427355107,75.84881979208149 148.59673990079318,75.49932540790178 147.8993621544796,75.14983016719634 147.27002126150182,74.98673209505796 145.43302622251213,74.07803942091414 144.4294826364494,73.72854069675668 143.42593905029935,73.169340956214 142.915662650601,73.05284073422081 142.4223954642075,72.8897402635921 141.2827781715023,72.40043773232901 140.53437278527417,72.00433445350791 139.64989369243267,71.72473147657001 137.1495393337973,70.53641270790831 135.87384833447868,69.76749528641813 135.14245216158452,69.37138469358615 133.95180722890655,68.62576176899893 132.26789510983508,67.41411620072904 131.5364989369118,66.94809593295213 130.53295535081998,66.17915916122729 129.8015591778676,65.45682084078726 129.5464209780621,65.27041035766888 129.25726435155957,65.08399963076226 128.5939050318848,64.80438308355224 128.4238128986617,64.68787602697557 128.20269312543678,64.33835428624297 127.93054571223911,64.05873627672554 126.97802976614912,63.45289537505596 126.11055988658336,62.68393975424988 125.39617292702314,62.12469669805432 125.07299787382362,61.93828185852908 123.81431608786806,61.44894174524234 123.18497519489028,61.2392240397312 122.43656980866217,60.79648564840318 122.14741318215965,60.58676698319323 121.90928419560078,60.28383947783732 121.62012756909826,60.05081788185635 121.50106307584792,59.8410981198831 121.46704464918002,59.6313780494238 121.56909992915462,59.32844851417758 121.51807228915277,58.9090065567143 121.51807228915277,58.67598271378665 121.60311835576431,58.51286579716543 121.68816442240495,58.4662609295774 122.14741318215965,58.37305114866467 122.75974486180348,58.07011893996969 122.92983699505567,58.046816435686196 123.0489014882769,58.093421440396924 123.1169383416127,58.18663140411081 123.15095676825149,58.256538836925756 123.15095676825149,58.41965604678262 122.28348688871483,59.25854160699237 121.79021970235044,59.77119146398036 121.29695251589874,60.4935585885396 120.05527994327713,62.19460219996108 119.95322466336074,62.28780948270287 119.81715095677646,62.31111129382043 119.49397590357694,62.28780948270287 119.37491141035571,62.31111129382043 119.22182849046658,62.42762029240839 118.9836995039077,62.707241500669625 118.89865343729616,62.87035361889866 118.86463501059916,63.382990490004886 118.74557051734882,63.80241928638134 118.47342310415115,64.43156016757712 118.18426647764863,64.89758866022748 117.9971651310916,65.45682084078726 117.74202693125699,66.0859544222767 117.69099929131335,66.41217074204178 117.65698086461634,66.7150852278719 117.70800850461819,67.20440726871311 117.69099929131335,67.71702855805052 117.58894401133875,68.1597454611765 117.48688873139326,68.39275380542676 117.36782423811383,68.53255862927472 116.80652019841364,68.975273000382 116.55138199860812,69.20828001201153 116.38128986535594,69.4645872850524 116.24521615877165,69.79079587530578 116.1941885187407,70.02380155435822 116.2622253720765,70.55971317112562 116.3302622253832,70.83931843248138 116.44932671863353,70.95582046295749 116.87455705172033,70.86261884616397 118.77958894401672,70.69951587032119 119.32388377035386,70.72281630689395 119.45995747693814,70.83931843248138 119.45995747693814,70.97912085757707 119.08575478382409,71.72473147657001 118.64351523740334,72.5169384873443 117.84408221120248,74.00813974461926 117.31679659814108,74.96343235524546 116.84053862511064,75.68572251939622 115.95605953224003,77.38658490648959 115.17363571937312,78.7379405599495 114.35719347978011,80.27567451956565 114.0,81.23092514464224 114.0,81.37071738234954 114.32317505317042,81.48721080904943 114.8844790928124,81.7900932731718" stroke="#4dd2ff" stroke-linecap="round" stroke-linejoin="round" stroke-width="0.5"><title>2022-10-07 10.6km</title></polyline><polyline fill="none" points="24.190547636942938,158.37369769638462 25.43285821453901,158.25038491978194 26.045011252863333,158.07774686331686 26.351087771967286,157.9297712292173 26.58514628658304,157.73247015800735 26.729182295588544,157.46118076404673 26.783195798983797,157.16522814183554 26.765191297832644,156.47466976669966 26.639159789920086,154.77292314260558 26.603150787734194,154.57561794504 26.513128282065736,154.37831248958537 26.20705176293268,153.88504772246233 25.882970742706675,153.0711573325534 25.21680420107441,151.68999996146886 24.928732183063403,150.75277883348463 24.80270067517995,150.55546838074224 24.6046511628374,150.382821523046 24.352588147041388,150.23483834494255 24.172543135791784,150.18551058668527 23.812453113292577,150.16084670153214 21.831957989517832,150.2595022180758 20.967741935513914,150.382821523046 20.787696924235206,150.3581576700817 20.697674418624956,150.3088299521769 20.481620405131252,150.11151891907502 20.445611402887153,149.9881993924646 20.769692423113156,149.34693622968916 21.29182295576902,148.48369305445522 21.75993998500053,147.57111632930173 22.336084021022543,146.3378957723762 23.308327081758762,144.75935875614232 23.560390097496565,144.29072740123956 23.884471117780777,143.62477507808944 24.280570142553188,142.61350852408214 24.44261065268074,142.29286161651544 25.054763690917753,141.33091680645884 25.234808702167356,141.15825939668866 25.324831207835814,141.13359403634968 25.666916729183868,141.25692079789587 26.045011252863333,141.47890871476557 27.485371342801955,142.63817364255374 28.511627906991635,143.37812532387034 28.619654913723934,143.5014502513077 28.961740435130196,143.94541915605078 29.195798949716846,144.16740311858302 29.429857464390807,144.3153922456404 29.951987996988464,144.48804604375619 30.24006001499947,144.68536442838376 30.636159039800987,144.9813415215758 31.338334583648248,145.64728785914485 33.372843210818246,147.102493704675 34.561140285106376,148.03973749901343 36.25356339087011,149.1002958262834 38.52213053262676,150.3581576700817 39.278319579927484,150.70345124446612 40.43060765194241,151.29538124849205 43.22130532632582,152.50389779878606 43.761440360103734,152.77519610270974 44.715678919747006,153.14514754932316 45.14778694673441,153.39178134339454 45.70592648163438,153.56442475943186 48.87471867969725,154.74826000703615 49.522880720178364,155.0442173682386 50.783195798954694,155.6607933401392 51.75543885974912,156.00607478439633 52.34958739683498,156.3020296793111 53.969992498110514,156.77062374290836 55.1402850713057,157.41185536730336 56.45461365338997,158.00375906437694 57.51687921982375,158.52167289533827 58.48912228055997,158.91627271666948 59.04726181543083,159.2368843119766 60.66766691673547,159.58215757613652 62.036009002273204,160.0014169064816 62.594148537144065,160.223377257018 64.2145536384196,161.03722908333293 65.09677419354557,161.38249822941725 67.14928732186672,162.24566763963958 67.36534133533132,162.24566763963958 67.49137284318567,162.147019956843 67.77944486122578,161.8757384967903 68.73368342086906,161.23452583498147 69.61590397599502,160.4699994859693 69.93998499627924,160.29736396802764 70.7141785446729,160.0507414570311 71.16429107275326,159.85344315812108 72.7846961740579,158.99026006837084 73.52288072020747,158.57099792943336 73.64891222809092,158.4476853140368 73.73893473370117,158.32437259788276 73.75693923482322,158.1763972054905 73.73893473370117,156.96792607131647 73.77494373597438,156.49933262025297 73.82895723934053,156.1540523043368 73.97299324834603,155.83343416103162 74.22505626408383,155.61146735507646 74.53113278321689,155.5128153366095 75.01725431359955,155.4388262803841 77.19579894974595,155.4388262803841 78.56414103528368,155.34017414908158 78.74418604653329,155.24152195327042 78.83420855217264,155.11820661782986 79.05026256566634,154.77292314260558 79.26631657913094,154.52629160534707 79.51837959489785,154.10701706708642 79.66241560390336,153.95903754027677 79.91447861964116,153.81105786834087 80.25656414104742,153.68774136417778 80.59864966242458,153.3424546167662 80.79669917482533,152.9971670794621 80.92273068267968,152.84918646450387 81.6789197299222,152.45457078212348 82.23705926482216,151.8873089311237 83.80345086276066,151.02408028475475 84.50562640660792,150.67878744390327 84.68567141785752,150.67878744390327 85.17179294824018,150.9007615037117 85.49587396852439,150.97475278445927 85.8919729932386,150.9500890282361 85.94598649663385,150.92542526799662 86.0,150.75277883348463 85.9279819955118,150.382821523046 85.8559639910236,150.2595022180758 85.72993248314015,150.11151891907502 85.09977494375198,149.8402158274548 84.90172543138033,149.8402158274548 84.77569392352598,149.88954369857674 84.64966241564252,150.06219112047984 84.43360840211972,150.50614072725875 84.28957239314332,150.67878744390327 82.27306826706626,151.78865447860153 81.85896474120091,152.23259900738776 81.7149287321954,152.3559167003259 81.06676669165608,152.60255178397347 80.86871717931353,152.72586917458102 80.74268567143008,152.89851335233834 80.59864966242458,153.2191377299023 80.52663165790727,153.29312787405797 80.18454613655922,153.56442475943186 79.86046511627501,153.66307805130782 79.64441110281041,153.81105786834087 78.81620405102149,154.97022808229667 78.65416354086483,155.11820661782986 78.51012753188843,155.1921958312305 76.76369092275854,155.31551110614964 75.0352588147216,155.26618500825134 74.53113278321689,155.36483718793897 74.17104276068858,155.53747834730893 74.02700675168307,155.63613034963782 73.90097524382873,155.80877119867364 73.81095273818937,156.00607478439633 73.73893473370117,156.2773667935835 73.68492123033502,156.6473096566624 73.66691672918387,157.0912398955843 73.68492123033502,158.20105978091306 73.66691672918387,158.27504748319916 73.61290322584682,158.37369769638462 72.69467366841855,158.91627271666948 71.11027756941621,159.75479391201225 70.69617404349265,159.90276775704115 70.17404351089499,160.02607918374997 69.84996249063988,160.1493905097741 69.45386346586747,160.4453372811695 68.76969242314226,161.08655329540488 68.10352588148089,161.50580844732758 67.40135033760453,162.07303415247588 67.22130532635492,162.07303415247588 64.2865716429078,160.96324273500068 63.87246811701334,160.76594562876562 62.95423855964327,160.24803949806665 61.8199549887795,159.70546926470706 59.47936984250555,158.91627271666948 57.6429107276781,158.3983602396329 55.01425356339314,157.2392163517652 54.04201050262782,156.721298120523 52.439609902503435,156.22804100997746 51.80945236311527,155.93208596993645 50.675168792222394,155.48815232186462 49.828957239340525,155.09354353863455 47.66841710428707,154.20567000440496 46.40810202551074,153.63841473439243 45.99399849961628,153.36711798208125 45.21980495125172,153.02183050120948 43.725431357859634,152.50389779878606 40.89872468117392,151.3693723357719 38.630157539388165,150.3334938131302 37.297824456123635,149.47025628031406 36.36159039760241,149.00163955210883 34.90322580648353,148.1383944019035 32.112528132041916,146.14057954818418 31.554388597171055,145.6966171006643 30.654163540893933,144.8086882877251 30.07801950490102,144.43871640737052 29.59189797451836,144.26606255280785 29.231807951960946,144.01941384650127 28.65566391599714,143.32879532457446 27.629407351865666,142.56417827492987 26.045011252863333,141.25692079789587 25.720930232550018,141.0842633035063 24.856714178575203,140.73894772215863 24.08252063015243,140.49229325179476 23.200300075026462,139.9989831016719 22.786196549132,139.75232742191292 22.318079519900493,139.25901485314535 22.048012002982432,139.0370236711169 21.939984996279236,138.86436363717075 21.903975994006032,138.74103492054564 21.993998499645386,138.3217165301612 21.993998499645386,137.87773108230613 22.048012002982432,137.60640599897306 22.192048011958832,137.48307625437155 22.444111027783947,137.40907835921098 22.498124531150097,137.3597464090126 22.28207051762729,137.33508042781614 22.048012002982432,137.4584102933295 21.921980495128082,137.6557378685684 21.86796699173283,137.9270628632512 21.86796699173283,138.37104816596548 21.777944486151682,138.6670376422262 21.831957989517832,138.83969790194533 22.318079519900493,139.30834618258814 22.534133533365093,139.62899943083175 22.76819204800995,139.82632416818524 23.704426106560277,140.39363135072927 24.622655663930345,140.7142822932219 24.910727681941353,140.86227480611706 25.000750187580707,140.9362710082205 25.036759189824807,141.03493255452486 25.054763690917753,141.1089286719798 25.018754688673653,141.18292475301132 24.37059264819254,142.4161874307756 23.794448612170527,143.42745530689717 23.54238559640362,144.04407873528544 22.948237059259554,144.93201204633806 22.318079519900493,146.0912504518201 22.084021005255636,146.55987621625536 21.68792198051233,147.54645201694802 20.98574643660686,148.87831911855028 20.517629407375352,149.6675681516208 20.337584396096645,149.96353547504987 20.19354838709114,150.06219112047984 19.563390847702976,150.06219112047984 19.61740435109823,150.48147689449252 19.599399850005284,150.70345124446612 19.527381845517084,150.9500890282361 19.347336834238376,151.394036023441 18.933233308343915,152.18327190194395 18.015003750944743,154.00836406528833 16.53863465867471,156.4253440475877 15.674418604641687,158.20105978091306 15.188297074259026,159.0149225108471 14.558139534870861,160.12472825263103 14.054013503395254,161.23452583498147 14.0,161.40716028108727 14.01800450112205,161.53047047888685 14.162040510127554,161.65378057591442 15.152288072014926,162.19634380629577 15.35033758438658,162.24566763963958 15.566391597909387,162.22100572494674 15.746436609158991,162.27032955024333 16.484621155279456,162.64025772608875 16.592648162069963,162.64025772608875 16.880720180051867,162.51694843481528 17.384846211556578,162.39363904292986 17.582895723957336,162.4676246901945 17.852963240846293,162.64025772608875 17.94298574642744,162.66491957219841 19.005251312832115,162.64025772608875 19.113278319622623,162.56627216345805 19.257314328599023,162.41830092936289 19.365341335360426,162.147019956843 19.401350337604526,161.9004004678718" stroke="#4dd2ff" stroke-linecap="round" stroke-linejoin="round" stroke-width="0.5"><title>2022-10-01 10.2km</title></polyline><polyline fill="none" points="145.56261274544522,169.7603720134648 146.4292899435677,169.712885060173 147.39996840548702,169.712885060173 147.85064054856775,169.6179111070087 148.33597977954196,169.6179111070087 148.6479835709033,169.5229370918678 148.92532027428388,169.30924533064535 149.08132216995,169.11929683476046 149.18532343374682,168.90560448005272 149.21999052161118,168.73939909804903 149.23732406564523,168.54944985723705 149.0293215380516,165.55771656382421 148.90798673030804,165.39150735268777 148.6999842027435,165.296530575215 148.63065002692747,165.17780951612804 148.5439823071065,164.82164575690695 147.69463865287253,163.23077030768036 147.3826348615694,162.352219684195 147.26130005382583,162.16226209422166 147.13996524608228,162.06728320612456 146.79329436682747,161.9010700025974 146.44662348754355,161.8773252437386 144.76526972310967,161.97230425599264 143.7599241732387,162.11477265799476 143.69058999736444,162.06728320612456 143.482587469829,161.7586013910768 143.4305868379306,161.6636222391826 143.39591974997893,161.40242925124767 143.41325329395477,161.1887255483016 143.70792354131117,160.66633739569806 143.95059315682738,160.31016257860756 144.1585956843919,159.7877712675836 144.43593238777248,159.36035879810515 144.6786020032887,158.69549245778762 144.95593870666926,158.07811384632078 145.31994312992902,157.62695089448243 145.649280465208,157.00956774302176 146.09995260828873,156.012250957152 146.25595450395485,155.56108159100404 146.77596082282253,154.801214228748 147.12263170207734,154.2550571076863 147.64263802100322,153.30521374658565 147.6773051089258,153.09149813462864 147.65997156497906,153.02025952748954 147.5906373891048,152.9490208853531 146.96662980644032,152.64031969937787 146.1866203280515,152.28412520822894 146.48129057546612,152.5215882993216 147.1052981581306,152.71155849281058 147.60797093308065,152.9490208853531 147.79863991666934,152.90152843788383 147.88530763651943,152.80654349642282 148.19731142782257,152.1891398630978 149.4626601371565,150.14693992420507 149.7053297526436,149.52952498970262 150.36400442325976,148.2709402673936 151.1613474455371,146.86986143230752 151.8893562919984,145.6824959108344 152.30536134715658,144.85133427237452 153.84804675984196,142.04909713835514 154.02138219951303,141.6691286201094 154.0040486555372,141.50289208091272 153.58804360043723,141.28915910808428 153.31070689699845,141.0516776584991 153.01603664964205,140.86169221936143 152.23602717131143,140.434224072902 151.99335755579523,140.24423782627855 151.9760240118194,140.0542513312248 152.2706942592049,139.4367935066548 152.25336071525817,139.3417997622455 152.14935945146135,139.3892966421554 151.75068794027902,139.81676786308526 151.6466866765113,139.86426458774076 151.61201958858874,139.84051622737024 151.7333543963614,139.48429035555455 151.80268857217743,138.77183599153068 152.0800252756162,138.15437271671544 152.20136008335976,137.96438348876836 152.44402969881776,137.7031478947174 152.49603033071617,137.58440428761241 152.49603033071617,137.20442409266252 152.5653645065613,136.61070304839814 152.5653645065613,136.15947343214066 152.39202906691935,135.20951176404196 152.30536134715658,134.4495379572909 152.2186936273065,134.1170481667359 152.0280246437178,133.68956017495657 151.90668983597425,133.2858203611686 151.80268857217743,132.97707739348698 151.594686044642,132.64458423299948 151.38668351707747,132.12209344333678 150.93601137402584,131.33835373542388 150.71067530248547,130.86335791529564 150.20800252759364,129.22461041425413 150.0,128.74960768292658 149.8093310164404,128.08460124977864 149.58399494490004,127.49084293365013 149.4626601371565,126.96833360783057 149.30665824146126,125.73330409442133 149.28932469754363,125.23453919914027 149.35865887335967,124.68827092046558 149.65332912074518,123.64323022871395 149.73999684059527,123.19196033314802 150.0,122.81194249170949 150.22533607154037,122.28941633655631 150.39867151118233,122.09940635955718 150.71067530248547,121.93314742582152 151.2133480774355,121.88564483835944 151.36934997313074,121.81439092810615 152.20136008335976,121.22060698312998 153.36270752889686,120.48431152044213 154.350719534792,120.00928020921128 155.1653961010743,119.7005090238381 156.6214137939969,119.39173718214442 159.86278651515022,119.03546116463258 161.3014706641261,119.17797167651588 162.3588168458664,119.13046818814473 163.06949214835186,119.01170939909935 164.8375136325776,118.9879576296662 165.56552247906802,118.91670229796728 165.99886107811471,118.79794333422615 166.29353132547112,118.79794333422615 166.46686676514219,118.60792879022483 168.18288761749864,115.59141461123363 168.42555723298574,115.11636729900783 168.77222811224055,114.285030764353 168.7895616561873,114.21377312573895 168.70289393642452,114.09501031698892 168.1655540735228,114.07125774356246 167.64554775465513,114.0 167.47221231504227,114.04750516629429 167.0562072599132,114.285030764353 166.8655382762663,114.33253583738406 166.72686992460513,114.3087833027821 166.29353132547112,114.16626801386883 166.17219651778578,114.16626801386883 166.01619462211966,114.26127822206763 165.28818577562924,114.80758571303159 164.4388421214244,115.25888165584183 163.4334965715534,115.90019453108835 162.96549088455504,116.06646036992606 162.20281495017116,116.25647823839972 160.88546560893883,116.44649585832667 159.74145170740667,116.42274366946367 158.47610299807275,116.6365132297069 157.69609351971303,116.6602653836162 156.46541189830168,116.73152182211925 155.66806887599523,116.73152182211925 154.99206066143233,116.80277822571225 154.64538978217752,116.87403459430789 154.0560492874356,117.159059719168 153.70937840815168,117.182811787643 153.20670563320164,117.13530764682218 152.66936577032902,117.2303159130679 152.06269173161127,117.46783630670689 151.68135376446298,117.53909234912135 151.3520164291258,117.6816043289582 150.69334175853874,118.15664325213584 149.2719911535387,118.91670229796728 148.6999842027435,119.34423376360792 148.3013126916194,119.77176397106086 147.9199747244129,120.29429918236565 147.55597030118224,120.88808691375016 147.15729879002902,121.33936396625359 146.8626285426435,121.7431369827973 146.5159576633596,122.55067964910995 146.09995260828873,124.14200058756978 146.06528552030795,124.47451320874097 146.04795197639032,125.0682838534558 146.0306184324436,125.40079435447115 146.04795197639032,125.70955342393427 145.9959513444919,126.20831668833853 146.01328488846775,126.54082457988989 146.39462285564514,127.75209689170879 146.53329120733542,128.39335461518203 146.67195955908392,128.77335785639298 147.1052981581306,129.53336135676363 147.65997156497906,130.17461121757515 147.79863991666934,130.4358603494038 148.2146449717693,131.0058568244276 148.75198483464192,131.81334800252807 149.01198799410486,132.31209031156322 149.34132532944204,133.0958247663948 149.58399494490004,134.188296043023 149.65332912074518,135.09076611879573 149.54932785694837,135.39950459459214 149.53199431300163,135.4945009166404 149.60132848884678,135.94573259835306 149.60132848884678,136.20697135242517 149.54932785694837,136.49195854847494 149.39332596128224,136.94318713211396 149.39332596128224,137.3469167821895 149.35865887335967,137.44191183100338 149.11598925790167,137.9168861429789 149.09865571392584,138.24936723745486 148.97732090618229,138.58184757105482 148.71731774671935,139.03306966398668 148.2146449717693,139.65052920444577 147.9199747244129,140.10174797827494 147.1052981581306,140.81419582069793 146.87996208661934,140.93293678815826 146.5159576633596,141.19416657487454 145.8399494488258,141.52664016956987 145.649280465208,141.59788441227283 144.9732722506451,141.69287668158358 144.3492646679806,141.6691286201094 143.65592290947097,141.7878688888013 143.29191848621122,141.74037279294862 142.66791090354673,141.62163248538855 141.974569145008,141.64538055472076 141.71456598551595,141.57413633527176 141.45456282611121,141.40789968731406 141.28122738646925,141.33665535144974 140.06787930903374,141.55038825432712 138.55986098424182,141.52664016956987 138.38652554459986,141.55038825432712 138.2651907368563,141.59788441227283 138.19585656101117,141.74037279294862 138.17852301706444,141.83536496911256 138.28252428080305,143.47397023155645 138.29985782477888,144.11515856460028 138.2651907368563,144.28139211496455 137.55451543437084,145.06506200494186 137.1038432913192,145.82498028577538 136.4278350767272,146.70363084344717 136.06383065349655,147.43979343597312 135.9944964776805,147.8197468631406 136.02916356560308,148.12845829108846 136.3238338129886,148.7458791792451 136.5665034284466,149.10208234428137 136.96517493959982,149.5057782090298 137.90118631365476,149.81448605471815 138.28252428080305,149.98071308460203 138.5078603523434,150.14693992420507 138.5425274402951,150.2656732647156 138.5425274402951,150.38440650816483 138.47319326444995,150.5981261018751 138.23052364893374,150.85933851171285 137.90118631365476,151.07305740687298 137.39851353867562,151.2392829968594 137.2425116430386,151.38176192267565 137.1038432913192,151.69046578260895 136.8611736758321,152.09415445596096 136.7571724120353,152.37911049126706 136.70517178013688,152.71155849281058 136.70517178013688,153.30521374658565 136.65317114823847,153.54267516893742 136.58383697242243,153.63765962923935 136.39316798883374,153.78013620327692 136.11583128539496,153.97010475132265 135.54382433459978,154.08883496772614 135.33582180706435,154.2075650870829 135.14515282347566,154.3737870912155 135.023818015703,154.49251697775617 134.2958091692708,155.41860676326905 134.0011389219144,155.75104781065602 133.77580285034492,156.10723380306445 133.74113576242235,156.29719930879946 133.68913513055304,156.93833105677913 133.94913829001598,158.12560460180975 134.07047309775953,158.60051130359352 134.1051401856239,158.81421881301503 134.1051401856239,159.170397296999 134.13980727360467,159.36035879810515 134.38247688906267,160.38139761186903 134.4864781528595,160.5238675736473 134.62514650454978,160.57135752979957 134.8331490321434,160.57135752979957 135.23182054329664,160.47637760190992 135.47449015875463,160.47637760190992 136.53183634052402,160.66633739569806 136.9998420275224,160.8325520115759 137.5891825222643,160.97502153103414 138.07452175326762,161.02251133981918 138.57719452821766,160.97502153103414 138.87186477557407,161.02251133981918 139.06253375919187,161.21247041973402 139.20120211085305,161.44991892034886 139.21853565479978,161.85358048099442 139.2705362867273,162.09102793400234 139.54787299013697,162.3284749990562 139.73854197375476,162.352219684195 140.4838843641337,162.25724092025484 140.8652223313693,162.18600680657255 141.31589447439183,162.18600680657255 142.06123686482897,162.09102793400234 142.5119090078515,162.16226209422166 142.59857672770158,162.3284749990562 142.54657609577407,162.49468771371176 142.30390648034518,162.85085717633774 141.62789826575317,164.01433800403902 141.1598925787257,164.70292430983682 140.79588815549505,165.62894902474363 140.25854829265154,166.4599918215681 139.23586919883383,168.19329436161206 138.71586287990795,169.3329888752196 138.2131901049579,170.18775389478833 138.00518757739337,170.7101078206324 137.51984834641917,171.70732373803912 136.87850721977884,172.84699069312774 136.21983254919178,174.36653273062257 136.02916356560308,175.0075847623375 135.5091572466772,175.957286278237 135.24915408724337,176.55084657404223 134.67714713644818,178.04660776772653 134.4864781528595,178.64015953039052 134.347809801111,178.94880548890796 134.19180790550308,179.42364414529584 133.84513702621916,180.30209156953788 133.7238022184756,180.49202544956643 133.63713449862553,180.58699229662307 133.22112944352557,180.68195908148482 133.16912881162716,180.729442450669 133.08246109183528,180.8718924651621 132.59712186086108,182.4863162044494 132.25045098160626,183.22229754600266 132.14644971780945,183.5546749947389 131.92111364629818,183.88705168337037 131.8344459264481,184.02949860296212 131.50510859119822,185.12158701485896 131.24510543170618,185.7388507481519 131.2104383437836,186.0 131.31443960755132,185.50144193021697 131.5917763109901,184.93165918486193 131.8864465583465,184.07698087854078 132.25045098160626,183.34100386494538 133.20379589957884,180.96685906390485 133.2904636193707,180.80066747532692 133.3771313392208,180.729442450669 133.58513386675622,180.6582173910865 133.74113576242235,180.51576716716227 134.60781296060304,178.33151291632385" stroke="#4dd2ff" stroke-linecap="round" stroke-linejoin="round" stroke-width="0.5"><title>2022-09-23 10.4km</title></polyline><polyline fill="none" points="23.24965893587796,231.0323331101681 24.739427012304077,230.94263262848835 25.16507503410685,230.83050694399572 25.328785811754642,230.74080633040285 25.459754433861235,230.58383011563274 25.55798090036842,230.4492789314536 25.607094133709325,230.20260141798644 25.574351978197228,230.02319931147213 25.39427012280794,229.6195437144779 25.36152796726674,229.4401408458507 25.410641200549435,228.34129315867904 25.296043656242546,227.71337624454463 25.01773533425876,227.17515946022468 24.673942701192573,226.21084910993522 24.068212824029615,225.06712339931983 23.85538881312823,224.3943391172652 23.757162346533732,224.12522448098753 23.64256480219774,223.99066696493537 23.544338335632347,223.9009618809505 23.364256480213953,223.8112567383214 23.184174624853767,223.76640414503345 20.090040927694645,224.03551948493987 19.53342428378528,223.9458144302771 19.50068212824408,223.8561093170283 19.582537517067976,223.76640414503345 19.778990450198762,223.60941995309258 20.630286493891617,222.28626034292392 20.793997271481203,221.88258199011034 21.07230559346499,221.41162241101847 21.399727148731472,220.53697890495823 22.6439290586859,218.13728732593881 22.85675306955818,217.5766056761786 23.511596180062043,216.65708281153638 24.068212824029615,215.67027093228535 24.2482946793898,215.49084982820204 24.362892223754898,215.46842217372614 24.886766712152166,215.69269855377206 25.083219645312056,215.82726420590188 25.574351978197228,216.27581542664848 26.22919508870109,216.8140749562881 27.358799454319524,217.5990329861379 27.882673942716792,218.2269961774 28.21009549795417,218.4064137042442 28.58663028650335,218.4961223797436 28.815825375146233,218.63068528301665 29.274215552548412,219.0343732011097 29.847203274228377,219.5726219115022 30.763983628887217,220.24542983087304 31.746248294686666,220.89580768437008 32.58117326060892,221.59103577458882 34.93860845841118,223.02633423937368 36.16643929059501,223.69912522762024 37.45975443383213,224.34948671452003 39.145975443389034,225.089549485303 40.94679399728193,225.78475633176276 41.519781718961895,226.05386771399935 42.82946793999872,226.50238551179064 43.99181446110015,227.13030796631938 45.645293315144954,227.780653194146 47.29877216918976,228.61039952814463 48.18281036836561,228.9243562923948 48.70668485676288,229.17103610326012 49.49249658937333,229.4401408458507 50.54024556619697,229.70924506086158 51.47339699865552,230.2474519078969 53.09413369715912,230.94263262848835 53.56889495224459,231.1893088119832 54.10914051844156,231.43598455215397 56.41746248296113,232.10873431742948 57.74351978171035,232.62450690440892 60.19918144613621,233.79059430431516 61.60709413373843,234.30636057117954 63.26057298775413,235.11364301113645 63.60436562076211,235.2033407669369 63.98090040931129,235.27061404529377 64.79945429743384,235.5621312039293 65.4706684856792,236.03304222914448 65.86357435196987,236.2348607454478 67.2714870396012,236.66092108300654 67.87721691679326,236.93001114108483 68.59754433835042,237.1542524532124 69.26875852659578,237.44576561122085 69.95634379266994,237.67000608074886 70.6766712142271,238.16333382418088 71.13506139157107,238.3651492081117 72.281036834931,238.76877908594906 74.39290586631978,239.7330012117891 75.34242837654892,240.09177980863024 76.70122783086845,240.69721656435286 77.63437926332699,241.0335691635555 78.10914051841246,241.30265064952255 78.73124147343333,241.54930821496237 79.40245566167869,241.93050539876276 80.13915416100645,242.17716183603625 80.64665757166222,242.31170152408595 81.17053206003038,242.60320372910064 82.23465211462462,243.05166745102906 82.7421555252804,243.32074498089787 83.93724420192302,243.79162938905938 84.3956343792961,244.0382824819826 85.85266030015191,244.57643314632878 86.0,244.55401024407183 85.9836289222294,244.46431859851873 85.93451568897581,244.37462689439417 84.72305593453348,244.0382824819826 82.676671214198,243.2758987625857 81.67803547068615,242.84985895744467 81.31787175990758,242.62562694995722 80.35197817190783,242.31170152408595 78.50204638473224,241.54930821496237 78.09276944067096,241.41476777971548 77.69986357438029,241.07841611454205 77.22510231923661,240.83175770290836 75.84993178717559,240.33843954997428 74.80218281038105,239.82269594892568 73.24693042295985,239.21725533588324 72.2319236016483,238.70150752204063 70.5784447476326,238.096061963588 69.93997271489934,237.73727815014718 69.39972714870237,237.513037790588 68.04092769444105,237.0645559723198 67.02592087315861,236.63849688771006 65.76534788543358,236.2348607454478 64.71759890858084,235.76395041258365 64.29195088677807,235.60697994260408 63.866302864975296,235.38273610264878 63.24420190995443,235.09121856305865 62.94952251025825,234.88939836522331 62.52387448839727,234.64272883154626 61.70532060027472,234.32878514748882 61.05047748979996,234.17181303621328 60.166439290565904,233.76816964001046 59.789904502016725,233.61119688757753 58.562073669862,233.02815366395225 57.825375170534244,232.714206286837 55.2060027285188,231.83963480702369 54.20736698503606,231.5256847113924 53.78171896317508,231.43598455215397 53.356070941343205,231.16688372274803 52.58663028650335,230.78565664452617 51.27694406549563,230.2474519078969 50.24556616647169,229.70924506086158 49.03410641202936,229.32801393388945 48.52660300137359,229.0589089714631 47.62619372445624,228.74495251500048 46.41473397001391,228.25159091824025 45.92360163712874,228.02733506073128 45.43246930424357,227.75822754796536 43.81173260571086,227.04060493434372 43.1896316507773,226.79392129437474 42.944065484334715,226.6593663947424 42.66575716238003,226.59208889542788 41.879945429740474,226.23327500902815 41.3888130968553,226.0987195597263 40.25920873126597,225.58292244875338 38.55661664393847,224.95499291468877 36.57571623462718,223.9458144302771 35.92087312415242,223.65427259767603 34.12005457028863,222.51052558147057 32.79399727151031,221.7928755282628 30.321964529313846,219.97630705901247 29.683492496609688,219.43805993179558 29.437926330137998,219.16893557661388 29.110504774871515,218.87738359626383 28.58663028650335,218.56340384783107 28.079126875847578,218.4064137042442 27.948158253740985,218.3167049701151 27.817189631634392,218.15971454432292 27.620736698503606,217.733596769016 27.39154160983162,217.48689639962686 27.22783083221293,217.37475972143875 26.65484311050386,217.12805870703596 26.425648021831876,216.97106692148373 24.82128240109887,215.64784330707334 24.526603001344483,215.51327747906907 24.2646657571604,215.42356685367122 24.10095497954171,215.46842217372614 24.019099590717815,215.55813276968547 23.44611186903785,216.79164751799544 22.873124147357885,217.666314894057 22.562073669862002,218.29427777738601 22.169167803571327,218.92223778742482 21.89085948158754,219.5277679330029 21.383356070960872,220.37999101897003 21.219645293342182,220.761247002054 21.02319236015319,221.34434233928914 20.777626193739707,221.7928755282628 20.597544338321313,222.28626034292392 20.302864938625135,222.77964338404126 20.10641200543614,223.04876065882854 19.926330150075955,223.43000922814826 19.72987721694517,223.72155153713538 19.615279672580073,223.83368302951567 19.36971350616659,223.8561093170283 19.28785811731359,223.9009618809505 19.1732605730067,224.32706050766865 18.272851296060253,225.9193120888085 17.814461118687177,226.92847606205032 17.470668485679198,227.51154519776173 17.077762619388523,228.0721862615028 16.89768076397013,228.43099534042994 16.570259208761854,228.96920720003254 15.882673942687688,230.38200328993844 15.669849931757199,230.74080633040285 15.571623465250013,230.9874828766624 15.326057298778323,231.34628433428588 14.99863574351184,232.08630937839916 14.507503410626668,232.9160296831542 14.294679399725283,233.4317992364231 14.032742155570304,233.880292924674 14.016371077741496,233.99241611782054 14.0,234.14938843426353 14.065484311053297,234.21666222919885 14.474761255143676,234.35120972020377 14.703956343786558,234.48575707929558 15.178717598930234,234.64272883154626 15.457025920884917,234.62030430645973 15.604365620733006,234.64272883154626 15.833560709404992,234.77727590483846 16.275579809007468,234.9790962675179 16.37380627557286,234.9790962675179 17.143246930412715,234.7100023846724 17.3233287857729,234.73242689510516 17.58526603001519,234.91182284627575 17.74897680763388,234.9790962675179 18.33833560711355,235.00152073397476 18.633015006838832,234.95667179745215" stroke="#4dd2ff" stroke-linecap="round" stroke-linejoin="round" stroke-width="0.5"><title>2022-09-16 10.1km</title></polyline><polyline fill="none" points="157.60770724673057,235.11387148846552 157.60770724673057,235.20691457155044 157.52619609766407,235.31856617097947 157.44468494856847,235.35578334645106 156.8469365220517,235.28134898327698 156.77901056452538,235.20691457155044 156.77901056452538,235.15108873077406 156.9148624796362,234.7230897093832 156.9963736286736,234.53700267669774 157.18656630985788,234.22065402340377 157.3360034165089,234.0531749688016 157.512610906153,233.9043044913924 158.0016778005811,233.56934520562208 158.51791507806047,233.1785581272634 158.95264120641514,232.97385959872918 159.3058561857324,232.88081469138706 159.5503896329319,232.88081469138706 160.03945652736002,232.80637871077488 160.8817384011054,232.7877697080694 161.8598721899907,232.69472464868159 162.06365006268607,232.62028854650998 162.21308716930798,232.50863430197205 162.34893908441882,232.3225436512148 162.38969465898117,232.21088911478728 162.40327985046315,232.00618884708092 162.32176870142575,231.00129128759727 162.33535389287863,230.40579225368856 162.30818350988557,230.01499432052515 162.00930929664173,229.54975693746383 161.83270180699765,229.10312726167467 161.6289239342732,228.69371518699336 161.16702742289635,227.85627681377082 161.07193108228967,227.57712932095455 160.963249550201,227.20493159956095 160.82739763509016,227.00022233432537 160.6236197623948,226.8327326618455 160.36550112368423,226.7582927282856 159.26510061119916,226.7955127011155 158.09677414112957,226.92578251031955 158.05601856665453,226.88856258000305 157.86582588547026,226.6280227275638 157.78431473637465,226.33026216634607 157.825070310937,226.16277150854876 157.94733703453676,225.97667048878066 158.09677414112957,225.6416878868331 158.2326260562695,225.4369758116809 158.61301141863805,224.59951349073526 159.02056716399966,223.65038208221085 159.67265635656076,222.5709681219305 160.1345528679667,221.58459814318485 161.05834589077858,220.03988836926874 161.11268665685202,219.9096106832876 161.126271848334,219.8165551020502 161.09910146531183,219.72349944467715 161.01759031624533,219.66766601384006 160.56927899635048,219.4629431998328 160.17530844249995,219.33266485382774 159.3194413772144,218.83016126594157 159.237930228177,218.75571610139014 159.10207831306616,218.55099164789863 158.8167892912752,218.30904409199138 158.66735218465328,218.06709602210321 158.59942622709787,217.99265035865392 157.9065814599744,217.5831983400858 157.4990257146419,217.26680259008572 157.22732188436203,217.09929860184639 156.72466979845194,216.61539680739952 156.12692137190606,216.205939836771 156.03182503132848,216.07565776463161 155.82804715863313,215.59175162031897 155.73295081805554,215.46146884552581 155.5970989029447,215.36840962940914 155.13520239153877,215.20090284873731 154.8499133697769,215.03339582164335 154.40160204991116,214.69838102838548 153.51856460160343,214.15863289935078 153.32837192041916,213.93528809765849 153.287616345915,213.8050034276821 153.27403115437482,213.7119428579026 153.32837192041916,213.50720933662524 153.42346826102585,213.3955363517016 153.91253515548306,213.13496562759974 154.4423576244153,212.98606780326372 154.97218009340577,212.98606780326372 156.08616579737281,212.91161881814332 156.69749941542977,212.9674555615493 157.79789992791484,213.00468004198046 159.6319007819984,212.8185575181924 160.99041993322317,212.52076084745204 161.68326470031752,212.2415757612689 161.9549685305683,212.05545199017797 162.40327985046315,211.70181598705676 162.97385789398686,211.38540389542322 163.73462861863663,210.60367613496055 164.14218436402734,209.98945770115824 164.29162147064926,209.72887918285414 164.31879185367143,209.6172024924963 164.3459622366645,209.33801028732705 164.413888194249,209.07743027825927 164.4274733857601,208.57488143385126 164.48181415183353,208.2956866730092 164.54974010935985,208.1653955503789 164.8486143226619,207.79313437840756 164.90295508867712,207.64422956885392 164.9980514292547,206.881089363691 164.98446623777272,206.45298408238887 164.8486143226619,205.8387432586096 164.72634759903303,205.0197503391828 164.57691049241112,204.61025167047774 164.5089845348557,204.29381987225497 164.38671781125595,204.05184202145756 164.1829399385315,203.7354086714331 163.65311746957013,202.7302616085508 163.39499883085955,202.00431654467684 163.0146134685201,200.7199408624656 162.71573925524717,199.90091112309892 162.51196138261002,199.10049000361323 162.45762061650748,198.2069900143615 162.49837619104073,197.5740899461598 162.63422810618067,197.01564578784019 162.72932444675826,196.71780778346874 162.7700800212915,196.49442876880494 163.1097098091268,195.73121382873796 163.23197653272655,195.5636781571011 163.44933959690388,195.4333724642711 163.6802878525923,195.39614223891112 163.82972495924332,195.45198757234903 163.61236189503688,195.61952340834978 163.49009517143713,195.61952340834978 162.90593193640234,195.02383931587974 162.10440563721932,194.27922981740267 161.90062776452396,194.09307668188558 161.6968498918577,194.0 161.57458316825796,194.0 161.43873125311802,194.09307668188558 160.86815320962342,194.81907218924607 160.6236197623948,195.02383931587974 160.43342708123964,195.34029687810835 160.3111603576108,195.61952340834978 160.16172325098887,196.17797441457515 160.12096767645562,196.45719889047177 160.01228614436695,196.81088224354608 159.82209346318268,197.40655698627234 159.82209346318268,197.94638452997606 159.86284903771593,198.93295928971202 159.8900194207672,199.0818754919892 160.0530417189002,199.60308066620928 160.28398997458862,200.45934112993564 160.44701227272162,200.8688547275815 160.67796052843914,201.31559515426488 160.86815320962342,201.63203522936237 161.58816835973994,202.59996411741304 161.81911661542836,202.9722422679988 162.06365006268607,203.3072915627563 162.26742793535232,203.71679491754185 162.6070577231585,204.62886527825322 162.67498368071392,204.96390969836648 162.75649482978042,205.76428960025805 162.66139848920284,206.09933067946986 162.66139848920284,206.93692906430806 162.59347253161832,207.62561645394453 162.55271695711417,207.7372950976278 162.33535389287863,208.03510427863512 162.22667236081907,208.4445906306646 162.0364796796348,208.8540755100912 161.24853857193375,209.80333024894935 160.92249397569685,210.08252131321933 160.61003457091283,210.30587367174303 160.24323440008448,210.52922559221042 159.68624154807185,210.77118967831484 159.45529329238343,210.8270274713068 158.84395967432647,210.90147781940323 158.44998912044684,210.88286523693387 157.94733703453676,210.95731554849772 157.68921839579707,210.95731554849772 157.22732188436203,210.86425265138678 156.64315864938544,210.8456400628711 156.46655115974136,210.78980227901047 156.1812621379795,210.64090138812026 156.04541022283956,210.62228876308654 155.6921952435514,210.73396446772676 155.4476617963228,210.77118967831484 154.57820953952614,210.80841487665748 153.89894996394287,210.78980227901047 153.77668324034312,210.80841487665748 153.7087572827586,210.86425265138678 153.69517209127662,210.99454068604973 153.73592766578076,211.29234134822036 153.7902684318542,212.74410842355428 153.74951285732095,212.98606780326372 153.66800170822535,213.11635341023066 153.42346826102585,213.33969981813425 153.17893481379724,213.63749434732745 152.21438621648122,214.94033625572047 152.02419353526784,215.38702147868025 151.94268238620134,215.8150931731725 151.9698527692526,215.90815202426165 152.01060834378586,216.00121079934615 152.4725048551918,216.80151312551607 152.6355271533248,217.02485230575257 152.7170383024204,217.08068703239405 153.26044596286374,217.26680259008572 153.85819438940962,217.50875236035063 153.9668759215274,217.620421311658 153.99404630454956,217.7320901535204 153.98046111300937,217.7879245333679 153.89894996394287,217.93681607917097 153.74951285732095,218.08570743033488 153.43705345253693,218.27182134546456 153.08383847321966,218.420712258594 152.9615717496199,218.55099164789863 152.75779387692455,218.94182892155368 152.56760119576938,219.3884984489123 152.52684562123613,219.64905486415955 152.5404308127181,220.02127728037158 152.49967523821397,220.17016590623098 152.44533447214053,220.26322119851102 152.32306774856988,220.39349847999256 152.18721583342995,220.46794257388683 151.99702315227478,220.54238661919226 151.6438081729575,220.61683061576332 151.44003030029126,220.74710749275255 150.93737821432296,221.26821351022954 150.69284476712346,221.6776522797736 150.35321497928817,222.01264654174884 150.28528902176186,222.19875403925835 150.25811863871058,222.8501278855838 150.38038536233944,223.72482404718903 150.5026520859683,224.13425398475374 150.51623727745027,224.30174762581737 150.489066894399,224.59951349073526 150.6656743840722,225.15782238894462 150.7471855331678,225.54863698916597 150.85586706525646,225.6975183889008 151.08681532094488,225.77195901573577 151.38568953421782,225.6975183889008 151.75248970504617,225.6975183889008 152.24155659947428,225.79056916486297 152.92081617505755,225.9952806044239 153.27403115437482,226.0325008266227 154.0348018790537,226.0325008266227 154.18423898570472,226.0511109332001 154.34726128383772,226.16277150854876 154.46952800746658,226.3116521054326 154.49669839045964,226.46053250766272 154.5238687735109,226.8141226830121 154.55103915650398,226.92578251031955 154.64613549711066,227.0560521704465 154.7684022207104,227.13049190931633 154.90425413585035,227.1491018364468 155.2031283490942,227.13049190931633 156.28994367006817,226.92578251031955 156.9148624796362,226.88856258000305 157.0099588202138,226.88856258000305 157.0778847777401,226.9443924708612 157.11864035230246,227.03744222810928 157.0914699692803,227.16771176052134 156.4257955852081,228.35874057662295 155.88238792470656,229.438099682724 155.06727643398335,230.85241682100605 154.10272783663822,232.6575066036894 153.74951285732095,233.38325628791063 153.43705345253693,234.14621891843854 153.00232732418226,234.85335045141983 152.85289021750214,235.18830596098996 152.78496425997582,235.43021766089805 152.73062349390239,235.57908614393818 152.43174928065855,236.06290736990923 151.77966008809744,237.42131751887064 151.04605974644073,239.22630319935706 150.8286966822343,239.84036397200543 150.6520891925611,240.24973598129873 150.5026520859683,240.71492966055666 150.25811863871058,241.36619761968177 150.20377787266625,241.44062800645042 150.10868153208867,241.47784318161575 149.94565923395567,241.45923559556832 149.86414808486006,241.47784318161575 149.78263693582267,241.58948863414116 149.56527387161623,242.22214413146867 149.32074042438762,242.83618875379761 149.11696255172137,243.56187358525494 148.79091795542627,244.28755379355425 148.6822364233376,244.62248156123678 148.49204374215333,244.99462237028638 148.274680677976,245.5156174604199 148.23392510344274,245.7389003410717 148.24751029492472,246.0738238413469 148.23392510344274,246.29710562773107 148.2610954864649,246.5017802141956 148.23392510344274,246.65063422786625 147.37805803818628,248.75317639332206 146.26407233421924,251.84179627765843 145.81576101429528,252.9209328819852 145.4761312265182,253.9070315300487 145.24518297077157,254.48380225464643 144.68819011878804,255.76757177116815 143.92741939410917,257.9257603841397 143.60137479781406,258.66995387434145 143.03079675434856,260.17693080287427 142.94928560528206,260.3257669487575 142.88135964766843,260.40018494880496 142.59607062593568,260.49320738048846 142.5009742853581,260.60483419827506 141.90322585884132,262.01876442329376 141.45491453894647,263.2652409890943 141.3462330068578,263.6745288275706 140.88433649542276,264.7907609140166 140.7756549633341,264.9023835211847 140.54470670761657,264.9023835211847 139.64808406782686,264.7535533539776 137.94993512882502,264.51170391770574 137.10765325507964,264.6047229924152 136.86311980785104,264.66053440078394 136.41480848798528,264.84657223129034 135.69479333781055,265.25585438907 135.4095043160778,265.5163059057595 135.2464820179739,265.7209459654914 135.04270414524944,265.9255856576128 135.0019485707162,266.0 135.06987452830072,265.96279283492186 135.54535623118863,265.40468390005844 135.78988967844634,265.20004327228526 136.38763810496312,264.84657223129034 136.86311980785104,264.64193060105026 137.50162380893016,264.5303077386998 137.86842397975852,264.51170391770574 138.99599487526575,264.64193060105026 140.62621785671217,264.9023835211847 140.7756549633341,264.88377976093034 140.89792168696295,264.80936468945583 141.06094398506684,264.4744962665427" stroke="#4dd2ff" stroke-linecap="round" stroke-linejoin="round" stroke-width="0.5"><title>2022-09-11 10.3km</title></polyline></svg>