<?xml version="1.0" encoding="utf-8" ?>
<svg baseProfile="full" height="300mm" version="1.1" viewBox="0,0,200,300" width="200mm" xmlns="http://www.w3.org/2000/svg" xmlns:ev="http://www.w3.org/2001/xml-events" xmlns:xlink="http://www.w3.org/1999/xlink"><defs /><rect fill="#222222" height="300" width="200" x="0" y="0" /><text fill="#FFFFFF" style="font-size:12px; font-family:Arial; font-weight:bold;" x="10" y="20">Over 4km Runs</text><text fill="#FFFFFF" style="font-size:4px; font-family:Arial" x="10" y="280">ATHLETE</text><text fill="#FFFFFF" style="font-size:9px; font-family:Arial" x="10" y="290">ChiZhang9797</text><text fill="#FFFFFF" style="font-size:4px; font-family:Arial" x="120" y="280">STATISTICS</text><text fill="#FFFFFF" style="font-size:3px; font-family:Arial" x="120" y="285">Number: 13</text><text fill="#FFFFFF" style="font-size:3px; font-family:Arial" x="120" y="290">Weekly: 2.6</text><text fill="#FFFFFF" style="font-size:3px; font-family:Arial" x="141" y="285">Total: 63.6 km</text><text fill="#FFFFFF" style="font-size:3px; font-family:Arial" x="141" y="290">Avg: 4.9 km</text><text fill="#FFFFFF" style="font-size:3px; font-family:Arial" x="167" y="285">Min: 4.1 km</text><text fill="#FFFFFF" style="font-size:3px; font-family:Arial" x="167" y="290">Max: 6.0 km</text><polyline fill="none" points="38.06823550714762,73.28099300352915 37.43652191903675,73.17715627553116 37.13329939680989,73.17715627553116 36.7290027004201,73.62711506237974 36.37524309111177,74.11168499485939 36.19836328647216,74.21552126469032 35.895140764157986,74.25013334328833 35.33923280672752,74.18090918043163 35.08654737149482,74.0424607865425 34.985473197419196,73.86940016711014 35.03601028441335,73.55789069581078 35.2381586326519,72.79642117106414 35.516112611367134,72.20801102726546 35.84460367716383,71.79266170639312 36.349974547629245,71.37731157142844 37.537596093141474,70.75428484179429 38.5483378340723,70.06203077116515 39.00317161748535,69.81974131191964 39.73595937967184,69.64667724289757 41.555294513265835,69.5082258858456 42.768184602377005,69.57745157567842 44.36010284427903,69.36977443839714 44.71386245361646,69.19671000167727 44.96654788884916,68.98903249102295 45.295038954674965,68.3313856976747 45.295038954674965,67.6737368627364 45.11815914994804,66.91224618739216 44.96654788884916,65.97768570837798 44.99181643236079,64.80082590704842 44.916010801825905,64.10855238155636 44.43590847484302,63.27782116479648 44.18322303961031,62.481700691758306 43.0966756681446,60.40485059194907 42.61657334121992,58.98565797964693 42.5154991671443,58.77797045838088 42.111202470812714,58.43182413703471 41.75744286144618,58.29336545021215 41.454220339190215,58.2241360728367 39.28112559620058,58.25875076428929 38.042966963665094,58.36259480500303 36.88061396157718,58.57028273343167 35.94567785123945,58.46643879466865 32.5091559321736,58.604897368422826 31.5994883653766,58.604897368422826 30.715089342033025,58.29336545021215 30.664552254980663,58.2241360728367 30.63928371143993,57.63568545159069 30.512940993881784,57.22030755833839 30.260255558649078,57.01261830623844 29.805421775236027,56.80492885049898 29.27478236122988,56.70108404628991 28.23877207681653,56.70108404628991 26.621585291373776,56.285704320514924 25.787723355111666,56.14724423074222 24.97912996233208,56.14724423074222 23.94311967791873,56.25108930640272 23.76623987327912,56.181859261676436 23.639897155604558,55.93955392653879 23.589360068639508,55.247251441993285 23.311406089895172,54.139562760537956 23.260869002813706,53.20494593009062 23.083989198174095,52.616481365752406 22.704961045325035,50.92030965088634 22.755498132377397,49.84721440865542 22.856572306423914,49.39720510864572 23.614628612122033,48.53179992130026 23.94311967791873,48.01255511189811 24.903324331797194,47.008678204379976 25.307621028157882,46.73174580631894 26.09094587736763,46.55866287383833 26.46997403021669,46.31634653064248 26.84900218306575,45.90094644014607 27.000613444164628,45.69324608948955 27.02588198770536,45.52016230825393 26.975344900682103,44.96629325814138 27.051150531246094,44.58550744612876 27.22803033591481,43.92778488557087 27.53125285822898,43.304677418011124 27.758669749862747,42.95850581066043 27.9608180981013,42.750802574664704 29.17370818715426,42.0930743170029 29.578004883544054,41.60843113611918 29.653810514108045,41.36610912985634 29.60327342702658,41.08916935468733 29.350587991793873,40.708376572452835 28.76941149076447,40.39681833247596 28.06189227217692,40.154494939983124 27.40491014055442,39.66984732345736 27.278567422938067,39.35828755584953 27.253298879397335,38.63131298251392 27.177493248862447,38.49284135219932 26.36889985614107,38.181279853350134 25.964603159751277,37.93895392623381 25.787723355111666,37.7312457680091 25.737186268059304,37.59277354936057 25.762454811570933,37.211974481338984 25.964603159751277,36.83117472875165 27.278567422938067,35.134876604381134 27.93554955450236,34.061701386992354 28.44092042496777,33.403946146849194 28.66833731668885,33.23085232308949 30.083375754009467,32.60771338631457 30.866700603131903,32.40000000000873 32.25647049694089,32.434618911880534 33.848388738842914,32.573094502673484 34.17687980463961,32.67695113652735 34.42956523987232,32.81542656896636 34.682250675105024,33.19623354142823 34.80859339266317,33.680895970668644 34.80859339266317,33.95784543226182 34.60644504451193,34.75407311733579 34.6569821316225,35.10025813381071 34.783324849180644,35.654152983188396 34.985473197419196,36.138809788171784 35.2381586326519,36.55422902412829 35.31396426318679,36.83117472875165 35.31396426318679,37.03888376959367 35.44030698077404,37.03888376959367 35.718260959518375,36.93502927466761 35.819335133593995,37.03888376959367 35.76879804659984,37.17735635038116 35.516112611367134,37.385065051727 35.465575524343876,37.62739161255013 35.617186785442755,37.83509987250727 36.02148348183255,38.07742591854185 36.14782619939069,38.215897820249666 36.24890037352452,38.49284135219932 36.24890037352452,38.83902025799034 36.32470600408851,39.185198598046554 36.653197069856105,39.704465047092526 37.46179046260659,40.25834785637562 37.71447589783929,40.53528871793242 38.421995116455946,40.9160818112432 38.523069290531566,41.6430485429446 38.49780074701994,41.91998759401031 38.39672657294432,42.19692628295161 38.44726365999668,42.43924733881431 38.699949095229385,42.750802574664704 39.1295143351017,42.993122996835154 39.55907957497402,43.477763009505 40.44347859828849,43.962401913289796 41.15099781687604,44.44703970832052 41.378414708568016,44.58550744612876 42.262813731853385,44.79320888296934 42.91979586353409,45.10476065635157 43.046138581150444,45.24322796428169 43.046138581150444,45.34707838567556 42.64184188476065,45.93556314551097 42.13647101429524,47.043294728631736 40.87304383816081,49.36258896897198 40.11498753246269,50.85107786383014 39.483273944439134,51.85493656148901 38.699949095229385,53.30879244826792 37.941892789531266,55.108790673621115 36.75427124396083,57.25492241383472 36.32470600408851,58.29336545021215 36.04675202531507,58.25875076428929 35.97094639475108,58.43182413703471 35.56664969839039,58.95104340685066 35.415038437291514,59.29718887974741 34.35375960930833,61.09713622093841 33.57043476012768,62.654770614302834 32.58496156267938,64.35084837279283 31.92797943111509,65.70077810806106 31.422608560678782,66.6007264858199 30.967774777236627,67.81218941873522 30.310792645643232,68.95441955282877 29.98230157987564,69.61206441216927 29.55273634000332,70.23509450089477 29.249513817747356,70.89273538450652 28.794680034246994,71.61959924918483 28.541994599072495,72.24262343384908 28.213503533334006,73.28099300352915 27.758669749862747,74.11168499485939 27.708132662810385,74.3539695453801 27.78393829340348,74.45780569649651 28.137697902682703,74.52702976900036 28.466188968450297,74.83853781523067 28.94629129540408,74.90776176331565 29.350587991793873,75.15004540345399 29.805421775236027,75.04620959163003 29.93176449285238,75.04620959163003 30.33606118921307,75.35771687448141 31.043580407829722,75.60000000000582 31.2709972995508,75.53077627813036 31.70056253945222,75.28849307341443 32.382813214557245,75.11543347187398 32.534424475656124,75.11543347187398 32.888184084993554,75.39232876646565 33.16613806373789,75.46155253359757 33.64624039069167,75.42694065293472 34.10107417407562,75.49616440865793 34.758056305669015,75.42694065293472 34.93493611033773,75.32310497679282 34.985473197419196,75.21926924973377 34.93493611033773,73.7309515698289 35.08654737149482,72.8656457864563 35.28869571961695,72.31184823023796 35.4908440678264,71.96572402241873 35.692992416006746,71.75804922629322 36.349974547629245,71.16963619847957 38.5483378340723,69.85435410881473 39.533811031491496,69.57745157567842 40.54455277236411,69.5082258858456 40.721432577003725,69.57745157567842 40.6961640335212,69.71590288748848 40.241330250079045,70.44277078991581 40.241330250079045,70.71967219201906 40.418210054776864,71.34269902332744 40.3676729676954,71.61959924918483 39.81176501020673,72.10417377340491 39.685422292590374,72.5195224834024 39.634885205567116,72.93487037910381 39.60961666202638,74.0424607865425 39.43273685735767,74.3539695453801 39.23058850917732,74.42319365178992 37.13329939680989,74.38858160136442 36.95641959217028,74.31935748366232 36.85534541803645,74.07707289350219" stroke="#4dd2ff" stroke-linecap="round" stroke-linejoin="round" stroke-width="0.5"><title>2022-08-31 5.1km</title></polyline><polyline fill="none" points="102.34834266360849,73.22314082180674 102.18638799712062,73.25483246914519 102.14011523532099,73.85697278376028 102.04756971160532,74.11050498856639 101.86247866423219,74.1421964909241 100.9370234273083,74.0788134811155 100.79820514182211,73.95204739937617 100.79820514182211,73.69851498736534 101.14525085565401,72.55761503276881 101.26093276022584,72.3040807981597 101.49229656942771,72.0188543881668 101.79306952143088,71.76531944949238 102.88047942484263,71.06809665917535 104.12984399459674,70.37087136271293 104.61570799403125,70.14902642456582 105.14784475520719,70.02225777468993 106.0501636111585,69.95887341862544 107.11443713362678,69.99056559926248 108.24811979880906,69.83210464438889 108.71084741721279,69.86379684576241 109.2661205593904,69.95887341862544 109.4743479876779,69.89548904185358 109.77512093968107,69.64195132776513 110.26098493902828,68.91302855347749 110.33039408182958,68.65948955510976 110.33039408182958,68.43764265973005 110.26098493902828,68.08902559723356 110.12216665357118,67.64533024773118 110.07589389168425,67.39178959240962 110.00648474891204,66.44100918309414 110.05275751074078,65.64868861535797 110.00648474891204,64.91975083437865 109.65943903505104,64.31758277521294 109.42807522584917,63.68371964074322 109.10416589290253,62.9864678002632 108.20184703698033,61.27502083790023 108.06302875143592,60.86300357306027 107.9473468468641,60.32421044459625 107.78539218037622,59.88049733269145 107.50775560928741,59.626946527234395 106.99875522902585,59.4367832056887 105.70311789732659,59.563558774170815 104.12984399459674,59.595252653278294 102.85734304389916,59.84880350009189 101.95502418788965,59.72202811813622 101.02956895099487,59.84880350009189 100.28920476153144,59.81710966238461 97.99870305022341,59.97557879930537 97.60538457447547,59.94388498227636 97.14265695604263,59.753721971370396 97.00383867049823,59.69033425973612 96.9575659086986,59.595252653278294 96.91129314681166,58.89798611536389 96.8187476231542,58.644434025583905 96.54111105206539,58.35918752827274 96.07838343363255,58.13732885153149 94.2968821026152,58.10563473418006 93.81101810320979,58.01055235095555 93.02438115185942,57.72530492140504 92.60792629528441,57.66191654694558 91.65933467744617,57.66191654694558 90.98837963072583,57.756999100980465 90.78015220238012,57.72530492140504 90.66447029777919,57.63022235169774 90.54878839314915,57.376668604672886 90.50251563126221,56.9329487496434 90.22487906026072,55.85533916114946 90.20174267937546,55.062975350010674 89.94724248914281,54.270608301856555 89.85469696548535,53.66840718018648 89.71587867997005,53.06620418871171 89.66960591814131,52.59077945371973 89.73901506085531,52.051963345118565 89.71587867997005,51.639926487376215 89.71587867997005,51.5131457397074 89.83156058460008,51.32297446273151 90.38683372671949,50.78415483204299 90.82642496426706,50.023465746227885 91.2197434399277,49.61142457899405 91.93697124850587,49.13599137518031 92.86242648540065,48.85073089352227 93.37142686569132,48.40699153249443 93.51024515120662,48.21681720983179 93.62592705586576,47.931555376184406 93.62592705586576,47.32933457172476 93.67219981766539,47.075767357848235 93.99610915061203,46.21997556329006 94.25060934075736,45.74453404567612 94.41256400721613,45.49096475978149 94.62079143550363,45.33248378765711 95.66192857699934,44.603469648223836 95.91642876717378,44.3182024997659 96.00897429088946,44.09632776096987 95.98583790991688,43.90614921133965 95.93956514811725,43.77936340807355 95.70820133885718,43.52579155271815 94.48197314998833,42.95525366606307 94.13492743615643,42.70168073325476 93.97297276969766,42.51150081603555 93.81101810320979,42.16283715015743 94.0192455315264,41.43381109597976 93.92670000786893,41.21193305726047 93.76474534141016,41.08514549258689 92.81615372357192,40.799873169045895 92.65419905708404,40.70478230122535 92.58478991434094,40.48290342846303 92.60792629528441,40.16593316993385 92.72360819991445,39.97575076606881 93.27888134197565,39.246716490291874 94.80588248287677,36.9645045180514 95.15292819673778,36.552435605059145 95.59251943422714,36.10866810430889 95.68506495794281,35.95017946496955 95.73133771980065,35.72829515245394 95.75447410068591,35.47471277015575 95.68506495794281,33.731324915526784 95.59251943422714,32.39999999999418 95.63879219611408,33.06566360020952 95.61565581522882,33.88981536818028 95.66192857699934,35.221130056204856 95.63879219611408,35.759992926963605 95.52311029151315,36.045272664152435 95.01410991116427,36.74262136602192 94.94470076845028,37.059597219820716 94.94470076845028,37.2814800090855 94.96783714933554,37.43996756042179 95.03724629210774,37.535060028894804 95.24547372045345,37.725244826229755 96.51797467115102,38.581074105997686 97.42029352713143,39.310110884020105 97.97556666927994,39.627082541323034 98.92415828705998,40.03914492139302 99.10924933446222,40.26102430184255 99.47943142917939,41.11684239147871 99.7570680002973,41.5289016062452 100.79820514182211,42.22623059050238 101.51543295042939,43.08204000814294 103.87534380448051,44.603469648223836 104.22238951834152,45.078913962992374 104.70825351768872,45.49096475978149 104.98589008871932,45.903014681098284 105.14784475520719,46.061495186862885 106.42034570596297,46.790503845899366 106.97561884808238,47.04407143282879 107.46148284742958,47.13915919241845 108.10930151326465,47.45611805438239 108.29439256063779,47.61459729113267 108.31752894155215,47.70968477106362 108.22498341786559,47.899859591023414 107.80852856129059,48.56546999225975 106.188981896732,51.67162166131311 105.74939065915532,52.43230428308016 105.5642996118404,52.84433945748606 104.89334456503275,53.89027096882637 103.96788932813797,55.98211707068549 103.1812523767876,57.50344551967282 102.51029733006726,58.644434025583905 102.25579713989282,59.24661969761655 102.02443333066185,59.563558774170815 101.46916018854245,59.97557879930537 101.0064325700805,60.894697239855304 99.80334076212603,63.01816112009692 98.83161276340252,65.01482983077585 98.04497581205214,66.21915975034062 96.84188400406856,68.4693350889138 96.49483829023666,69.32502871897304 95.96270152900252,70.21241071856639 95.54624667239841,71.00471264478983 95.31488286322565,71.38501641993935 94.94470076845028,72.36746438790578 94.32001848350046,73.60344024756341 94.2274729598139,73.98373892765085 94.2274729598139,74.20557948001078 94.27374572167173,74.30065392478718 95.0603826730221,74.64925982368004 95.73133771980065,74.8077168433083 96.33288362380699,74.8077168433083 97.28147524158703,75.31477843647008 98.0681121929374,75.31477843647008 98.57711257328629,75.25139580972609 98.78534000154468,75.28308712568833 99.08611295351875,75.50492619207944 99.73393161941203,75.50492619207944 100.1041137141001,75.60000000000582 100.58997771353461,75.56830873589206 100.6593868562486,75.50492619207944 100.8676142845361,75.12463049436337 100.89075066553778,74.83940823176818 100.82134152270737,74.3323453959747 100.84447790365084,73.95204739937617 100.91388704642304,73.50836546096252 101.23779637931148,72.43084795690083 101.49229656942771,72.05054623218894 102.14011523532099,71.44840030994965 102.94988856755663,71.03640465457283 103.82907104259357,70.4342555841431 104.91648094597622,69.89548904185358 105.70311789732659,69.8004124379222 106.1195727539598,69.86379684576241 106.14270913484506,69.95887341862544 106.1195727539598,70.02225777468993 105.772527040157,70.65610019599262 105.772527040157,70.90963658453256 105.8419361829001,71.32163250917802 105.81879980195663,71.67024376195332 105.70311789732659,71.89208696022979 105.37920856437995,72.11392990485183" stroke="#4dd2ff" stroke-linecap="round" stroke-linejoin="round" stroke-width="0.5"><title>2022-08-29 5.1km</title></polyline><polyline fill="none" points="176.3765781953698,40.96740640390635 176.33169033005834,40.96740640390635 176.1371762470808,41.21335201476177 175.97258740765392,41.60276491249533 175.83792381174862,41.80771858370281 175.70326021584333,41.889699958432175 175.25438156284508,41.91019529371988 175.05986747989664,42.05366254708497 174.95512912751292,42.23812020328478 174.91024126223056,42.58653948034771 174.8354281533684,42.689015554162324 174.76061504453537,42.730005960242124 174.64091407039086,42.730005960242124 174.3566242568486,42.64802513473114 174.01248395620496,42.66852034610929 173.5935305467283,42.5250537959073 173.29427811136702,42.60703470179578 172.99502567603486,42.730005960242124 172.90524994544103,42.75050115830527 172.1720814788423,42.42257758812775 171.7830533129163,42.42257758812775 171.09477271162905,41.97168127957411 170.9002586286515,41.889699958432175 170.72070716746384,41.889699958432175 170.57108094979776,41.99217660146678 170.49626784099382,42.09465316084243 170.09227705324884,43.078423871222185 169.46384693903383,44.32862135059986 168.7306784724933,46.214141524797014 168.6259401201096,46.60353889968974 168.44638865892193,47.09540754032059 167.95262214058312,48.28408212688373 167.81795854467782,48.48902488283784 167.57855659644702,48.5505076443078 167.4588556222734,48.63248461277544 166.68079929039232,50.415470423933584 166.29177112446632,51.60411355381075 166.0673317979381,52.198430895652564 165.87281771498965,52.608303284141584 165.78304198442493,52.8747196186232 165.72319149732357,53.243602840055246 165.76807936263504,54.04284609906608 165.693266253802,54.35024599676399 165.3192007096659,55.251948018390976 165.19949973549228,55.620824250305304 164.85535943484865,56.461038285568065 164.57106962130638,57.116811183906975 164.00248999413452,58.59228767323657 163.83790115470765,58.96115408439073 163.32917201463715,60.4366088846582 163.19450841870275,60.743993117481295 162.55111568275606,62.52680681759375 161.54862002437585,64.96532706449943 160.0673204694467,68.98161004614667 159.93265687354142,69.22750074639043 159.8279185211577,69.35044591576298 159.5585913293762,69.45290013161139 159.4388903552317,69.57584508018044 158.84038548453827,71.09215620779287 158.39150683156913,72.34207457605225 157.89774031323032,73.53051000236883 157.73315147380345,73.98129290930956 157.62841312141973,74.24766386590636 157.49374952554354,74.37060411670973 157.38901117318892,74.3910941467766 154.59100090278662,73.94031271200947 154.2318979803531,73.91982260828081 153.63339310968877,73.98129290930956 153.24436494376278,74.06325326388469 152.88526202132925,74.20668375552486 152.00246733709355,74.69844419662695 151.58351392764598,75.06726326271746 151.10471003106795,75.59999999999854 151.2992241140455,75.39510152256844 151.59847654937766,74.98530356393894 151.95757947178208,74.65746423346718 152.4513459900918,74.37060411670973 152.76556104718475,74.22717381242546 153.39399116142886,74.04276318028133 154.08227176268701,73.94031271200947 154.32167371094692,73.94031271200947 157.13464660313912,74.32962404648424 157.4189364166814,74.30913400638383 157.56856263437658,74.24766386590636 157.62841312141973,74.18619369536464 158.15210488330922,72.75188116689242 158.34661896628677,72.34207457605225 158.6757966451114,71.37902381939057 159.334152002848,69.76026227709372 159.51370346409385,69.51437262092804 159.8428811429185,69.3299550625743 159.93265687354142,69.20700987307646 160.53116174420575,67.56772916887712 160.7107132054225,67.1374144352958 160.87530204484938,66.64562436116103 161.2344049672538,65.78498709345149 161.95261081209173,63.817794028276694 162.29675111273536,63.01861303557234 163.08977006634814,60.94891552092304 163.29924677111558,60.4366088846582 163.7630880458746,59.002139174241165 164.04737785941688,58.36686877700413 164.46633126892266,57.21927538968157 164.94513516544248,56.11265753921907 165.37905119670904,54.985536731976026 165.693266253802,54.02235274574923 165.70822887556278,53.85840579887008 165.70822887556278,53.202615868991415 166.0523691762064,52.28040548047284 166.15710752856103,51.82954460110341 166.3067337462271,51.378682101509185 166.60598618155927,50.66139751271112 167.00997696927516,49.37027491832123 167.17456580873113,48.96039195083722 167.32419202642632,48.673473076851224 167.41396775696194,48.591496135195484 167.69825757056242,48.5505076443078 167.81795854467782,48.44803635843709 167.87780903175008,48.325070704799145 168.32668768480653,47.23886886394757 168.64090274189948,46.37809846151504 169.01496828603558,45.496827407092496 169.46384693903383,44.32862135059986 170.0174639444158,43.11941415007459 170.31671637974796,42.402082336557214 170.9152212504414,41.15186565726617 171.4089877687511,40.27055788774305 171.87282904351014,39.225277855402965 172.84539945836877,37.4011408577353 173.42894170727232,36.39682939053455 173.5636053031776,36.10988178016123 173.89278298208956,35.638466423770296 174.23692328267498,35.00307770554355 174.50625047448557,34.40867889416404 174.77557766629616,33.896263865077344 175.17956845401204,33.30185980891838 175.50874613286578,32.686956097124494 175.58355924169882,32.60496870779025 175.7481480811548,32.56397499302693 176.31672770829755,32.64596240912215 176.55612965658656,32.64596240912215 177.37907385375001,32.5024843957508 178.84541078691836,32.400000000001455 179.1745884657721,32.420496885890316 179.4439156575536,32.5024843957508 179.5486540099373,32.58447185206023 179.65339236232103,32.7279497717027 179.90775693234173,33.5683171479468 180.67085064246203,35.00307770554355 180.89528996896115,35.515488213342906" stroke="#4dd2ff" stroke-linecap="round" stroke-linejoin="round" stroke-width="0.5"><title>2022-08-27 6.0km</title></polyline><polyline fill="none" points="21.75257731950842,114.82878563470149 21.059793814405566,114.62543770490447 21.010309278324712,114.6932203703036 20.93608247418888,115.09991589763376 20.837113401998067,115.26937213201018 20.68865979378461,115.33715458711958 19.995876288594445,115.50661062767904 19.89690721646184,115.43882822804153 19.797938144300133,114.59154636393941 20.16907216492109,113.71036955408636 20.416494845296256,113.33756285395066 20.812371133972192,112.82918900102959 21.999999999941792,111.98189647779509 23.187628865940496,111.27016808358894 24.103092783509055,110.9651408813952 24.672164948424324,110.9651408813952 25.315463917446323,110.8634650476888 26.230927835043985,110.8634650476888 27.492783505120315,110.6262212418078 28.68041237111902,110.49065323089599 29.175257731898455,110.35508513139212 29.323711340199225,110.25340899864386 29.521649484493537,110.08394866654999 29.79381443298189,109.64335115539143 29.818556700949557,109.40610595408361 29.79381443298189,109.03329151810613 29.496907216438558,107.20310184067057 29.496907216438558,106.3218936441699 29.397938144305954,105.47457454020332 28.903092783526517,104.72893086560362 28.779381443251623,104.2544289498328 28.33402061855304,103.20374227348657 27.54226804120117,101.64464901029714 27.270103092771024,100.66173636485473 27.02268041233765,100.22111883945763 26.676288659800775,99.916075389061 26.206185566959903,99.7466066115303 22.643298969022,99.98386286119057 22.098969072074397,100.11943773915118 21.777319587563397,100.11943773915118 21.529896907159127,100.18722514490946 21.010309278324712,100.0516503113322 21.1340206185414,99.5093500905059 21.40618556694244,98.8992606473621 21.901030927780084,98.1535933354753 22.371134020591853,97.23845251632156 22.643298969022,96.5944621119852 23.06391752572381,95.81489210532163 23.237113401992247,95.37426428370236 23.97938144323416,93.78121742668736 24.74639175250195,92.56100304830761 25.785567010287195,90.49340118656983 27.047422680363525,88.29019619170867 27.41855670098448,87.61228225409286 27.616494845307898,87.3072202593612 27.839175257686293,87.1716370064969 28.160824742226396,87.20553282806941 29.00206185565912,87.71396948605252 30.832989690708928,89.27316746558063 32.51546391748707,90.42561061261222 33.18350515459315,91.27299119436066 33.52989690718823,91.61194245776278 33.752577319566626,91.74752280801476 34.17319587623933,91.81531294982415 34.42061855667271,91.91699812108709 35.53402061853558,92.86605731588497 36.127835051505826,93.44226970829186 36.6969072164793,93.91679635897162 39.04742268039263,95.47594771020522 40.408247422630666,96.5944621119852 41.22474226800841,97.17066414687724 42.981443298980594,98.18748736240377 45.331958762864815,99.37377481382282 46.22268041232019,99.98386286119057 47.31134020612808,100.45837454638968 49.736082474235445,101.67854246665956 52.061855670122895,102.5597703896783 53.49690721646766,103.20374227348657 54.783505154628074,103.6104603279091 55.60000000000582,103.94939143076772 54.16494845357374,103.47488773176156 53.323711340199225,103.10206263529835 52.1608247422555,102.62755699791887 50.948453608260024,102.05137012177147 48.35051546388422,101.0006722859689 47.286597938102204,100.45837454638968 46.049484536022646,99.916075389061 41.96701030925033,97.47571163492103 41.15051546387258,97.06898155108502 40.160824742226396,96.3910963057424 38.948453608260024,95.34036979707889 37.66185567007051,94.56079507693357 36.44948453598772,93.74732267973013 36.0536082474282,93.40837490600825 35.36082474220893,92.62879292432626 34.37113402059185,91.88310306955827 33.65360824740492,91.54415224940749 33.158762886567274,91.1374105339928 32.51546391748707,90.42561061261222 30.882474226731574,89.27316746558063 29.00206185565912,87.74786521897477 28.160824742226396,87.27332445450884 27.78969072160544,87.20553282806941 27.54226804120117,87.40890764078358 26.948453608201817,88.59525674082397 25.736082474148134,90.69677277546725 24.672164948424324,92.83216241939226 24.42474226799095,93.17111113481224 23.410309278289787,95.00142462663644 22.24742268040427,97.57739403125015 21.307216494809836,99.44156246328203 20.886597938108025,100.01775658903352 20.36701030927361,100.32279988999653 19.501030927785905,101.98358332520002 18.832989690679824,103.16984906625294 18.536082474165596,103.6443534631544 18.16494845354464,104.45778704658733 17.620618556713453,105.3728960150911 17.002061855630018,106.49135704962828 16.23505154636223,107.77927440675558 15.962886597844772,108.45712243532762 15.567010309256148,109.13496824898175 15.096907216444379,110.11784074408934 14.775257731904276,110.93124894239008 13.909278350503882,112.2869221848814 13.38969072161126,113.54091204612632 12.771134020556929,114.45598094450543 12.498969072126783,115.1338071556238 12.39999999999418,115.40493701996456 12.498969072126783,115.57439300515398 12.82061855669599,115.67606652982067 13.983505154581508,116.28610663145082 14.7505154638784,116.31999769566755 15.171134020580212,116.55723498968291 15.641237113333773,116.72669003359624 16.18556701025227,116.65890803260845 16.87835051541333,116.387779807279 17.1257731958176,116.31999769566755 17.818556701007765,116.72669003359624 19.303092783491593,116.82836299348855 19.501030927785905,116.6927990358381 19.599999999976717,116.45556189682975 19.624742267973488,116.28610663145082 19.575257731921738,115.20158965494193 19.69896907216753,114.62543770490447 19.921649484458612,113.98150127890403 20.14432989686611,113.54091204612632 20.391752577299485,113.2358881829714 20.861855670053046,112.76140572661825 21.257731958728982,112.45638071722351" stroke="#4dd2ff" stroke-linecap="round" stroke-linejoin="round" stroke-width="0.5"><title>2022-08-26 5.1km</title></polyline><polyline fill="none" points="91.45331961792544,123.48978038740461 91.34986282780301,123.53701737969823 91.10846365091857,123.58425434878882 90.46473251251155,123.50552605408302 89.99342935762252,123.59999999999854 89.76352537963248,123.5685086950034 89.22325103133335,123.36381496152899 88.37260631273966,123.09613788482966 88.26914952263178,123.0016634449421 88.20017832922167,122.90718891251163 88.16569273253845,122.7024937744427 88.18868313034181,122.54503568006476 88.30363511932956,122.23011871964263 88.40709190945199,122.04116804940713 88.68297668303421,121.6317736597266 88.86689986543206,121.30110769080056 89.08530864451313,120.79723355652823 89.4186694126256,119.9154474824245 89.70604938513134,119.41156610328471 89.94744856201578,119.12813166978594 90.17735254003492,118.79745711042779 90.5911797004228,117.88415957585676 90.80958847951842,117.52198746720387 91.22341563992086,116.71890532755788 91.5797668058076,116.13627291969897 91.66023319811211,115.93156339960115 91.67172839702107,115.82133501637145 91.6487379992177,115.77409424207144 91.52229081133555,115.71110650703486 91.24640603772423,115.71110650703486 90.154362142217,115.83708193599887 89.76352537963248,115.83708193599887 89.61408779391786,115.82133501637145 89.5451166005223,115.75834731217765 89.4761454071122,115.64811873080907 89.44165981042897,115.27019120888144 89.43016461152001,115.22295016443968 89.36119341812446,115.12846800603438 89.20026063354453,115.09697393270471 88.88989026322088,115.09697393270471 88.65998628521629,115.04973280331615 88.2921399204206,114.8450209750954 87.49897119634261,114.60881447913562 87.01617284254462,114.56157311041898 86.797764063449,114.57732023591234 86.4988888920343,114.65605582463468 86.40692730086448,114.65605582463468 86.28048011292412,114.56157311041898 86.24599451622635,114.46709030363127 86.10805212944979,113.7584662996378 86.10805212944979,113.31754206727055 86.00459533935646,112.97110018358217 85.91263374815753,112.23097016857355 85.93562414594635,111.72704860768863 85.98160494156764,111.60106780569913 86.314965709651,111.2231244115901 86.48739369315444,110.87667499809322 86.78626886456914,110.57746768408106 87.01617284254462,110.38849416493031 87.4300000029325,110.27825944098004 87.56794238973816,110.21526811351214 87.65990398095164,110.13652889629157 87.76336077104497,109.99479814316146 87.78635116883379,109.90031085857481 87.76336077104497,109.53810874275223 87.80934156663716,109.33338520547841 87.98176955012605,108.97118095866608 88.1771879314474,108.6877158158095 88.28064472154074,108.59322724954836 88.86689986543206,108.27826469285355 88.9818518544489,108.12078302844748 89.02783265004109,107.97904931042285 89.02783265004109,107.88456004927866 88.99334705332876,107.79007069544605 88.88989026322088,107.67983299888147 88.18868313034181,107.3491191524372 88.05074074353615,107.27037759315135 87.95877915233723,107.17588763702952 87.91279835674504,107.08139758827019 87.88980795892712,106.9554107124859 87.93578875453386,106.671939639622 87.9242935556249,106.56170066384948 87.80934156663716,106.45146156197734 87.45299040075042,106.3097253885062 87.37252400844591,106.23098297983961 87.33803841174813,106.16798900654248 87.33803841174813,106.04200093643158 87.38401920734032,105.88451561718102 87.61392318533035,105.47505258242745 88.05074074353615,104.92384959567426 88.28064472154074,104.51438247856277 88.4875583017274,104.30964826747368 88.87839506434102,104.0576671028175 89.23474623022776,103.91592740810302 89.46465020821779,103.86868079683336 89.82100137413363,103.88442966983712 90.41875171691936,103.85293192129757 92.31545953539899,103.88442966983712 92.71779149690701,103.83718304317881 93.2580658452207,103.82143416246981 94.2006721549842,103.72694082416274 94.87888889007445,103.58520064294134 95.39617284058477,103.33321758368402 96.08588477458397,102.82924948829168 96.3617695481662,102.70325705256255 96.71812071408203,102.46702079155511 97.15493827228784,101.97879734999151 97.52278463705443,101.45907290340983 97.69521262055787,101.1598363443045 97.75268861505901,100.98659370110545 97.79866941066575,100.16762426184141 97.925116598577,99.82113509582268 98.2239917699626,99.41164629310515 98.25847736667492,99.30139901042276 98.28146776446374,99.15965231875452 98.33894375896489,98.90765768531128 98.33894375896489,98.56116398814629 98.32744856005593,98.48241524688638 98.15502057658159,97.69492429364618 98.06305898535356,97.1121768443627 97.86764060406131,96.48217563694197 97.47680384146224,95.77341935433651 97.10895747666655,95.31666254282754 97.03998628328554,95.19066028269299 96.78709190746304,94.13538488489576 96.33877915037738,92.90684075598256 96.2468175591639,92.51307329677365 96.22382716137508,92.30831358198338 96.20083676358627,91.86729117954383 96.21233196246612,91.00099129719456 96.31578875257401,90.46545656456146 96.40775034378748,90.19768808188383 96.41924554266734,89.96142115553084 96.45373113939422,89.88266538466269 96.6146639239887,89.63064648523141 96.74111111187085,89.36287568223634 96.91353909537429,89.14235799146263 97.01699588546762,89.06360155100992 97.13194787446992,89.03209895684267 97.44231824476446,88.96909373752715 98.23548696887156,88.35479068967106 99.21257887534739,87.83499274343194 99.76434842252638,87.59872002249176 100.2701371741714,87.45695611180417 100.86788751694257,87.33094357157097 101.3276954729372,87.2836888265374 101.695541837762,87.25218565026444 102.62665294864564,87.12617284219596 103.17842249582463,87.09466961446014 104.00607681661495,87.20493086658098 104.83373113741982,87.14192445224762 105.14410150771437,87.04741475346964 105.59241426482913,87.03166312801477 106.06371741970361,87.03166312801477 106.4775445801206,87.14192445224762 107.30519890089636,87.09466961446014 107.40865569100424,87.03166312801477 107.6155692711909,86.82689176247368 108.09836762497434,86.65362334396923 108.88004115018703,86.57486486891139 109.42031549848616,86.3700925323792 109.60423868088401,86.38584426600573 110.02956104018085,86.32283731595089 110.31694101265748,86.21257505422545 110.5928257862688,86.00780194759864 111.16758573128027,85.37772812016192 111.66187928395811,84.98392988527485 112.39757201356406,84.16482440010441 112.84588477066427,83.36146417824057 113.30569272665889,81.97525823754404 113.6965294892434,80.9986011648216 114.00689985953795,80.44725812190154 114.05288065515924,80.40000000000146 114.08736625184247,80.43150541718933" stroke="#4dd2ff" stroke-linecap="round" stroke-linejoin="round" stroke-width="0.5"><title>2022-08-25 5.1km</title></polyline><polyline fill="none" points="179.82668482669396,120.86410625372082 179.65789518487873,120.7870383647678 179.29218429420143,120.82557231240207 179.1796578663634,120.94117411763 179.1233946523862,121.3265130592481 178.98273661750136,121.59624994374462 178.81394697568612,121.71185137123393 177.94186715962132,121.94305405628984 177.71681430382887,122.09718905371847 177.51989305502502,122.32839136106486 177.4636298410478,122.67519439694297 177.29484019923257,123.09906408186362 176.92912930861348,123.44586598454043 176.47902359697036,123.60000000000582 175.46628574602073,123.52293300481688 174.76299557165476,123.09906408186362 174.5379427159205,123.06053050556511 173.10323076037457,123.33026540697028 172.51246701402124,122.90639613765234 171.86544005363248,122.63666075150832 171.1058866653475,122.67519439694297 170.45885970507516,122.44399242968939 169.3898586400901,121.78891895807465 169.22106899827486,121.6347837591602 169.16480578429764,121.48064845964836 169.16480578429764,121.3265130592481 169.61491149588255,120.24756243624142 170.37446488410933,118.86033295404923 171.5559923769324,116.27852302714018 172.7656514767441,114.00496551003016 173.55333647190128,112.65623459177732 174.59420592995593,110.65239155635936 175.55068056698656,109.18803395582654 176.90099770156667,106.52904559488525 177.8012091247365,104.91051626236003 178.44823608506704,103.98563737086079 179.06713143840898,103.63880685143522 179.1796578663634,103.48465979019238 181.09260714042466,99.59241310269863 182.1334765983629,97.24161913624266 183.3431356982328,95.0834925686504 183.93389944458613,93.85026851992006 184.2714787282166,93.04096173304424 184.5809264049749,92.5784994650603 186.3813492511399,89.64955070661381 186.3813492511399,89.34123819487286 186.2969544302323,89.14854267021292 185.39674300706247,88.6860727687017 184.29961033526342,88.33921974766417 183.23060927027836,87.72259089448198 182.72424034477444,87.3371970425651 182.4710558820516,87.1059604290349 182.1897398122819,86.68202604870021 181.6833708868362,86.29663049617375 181.12073874735506,85.64145661126531 179.48910554300528,84.71650214552938 178.2513148362632,83.8300840446318 177.12605055735912,82.71242168993922 176.02891788550187,81.86453636990336 175.747601815674,81.36351179334451 175.41002253210172,80.5541621515149 175.3256277111941,80.43854054738767 175.21310128323967,80.40000000000873 174.9317852135282,80.47708108834922 174.62233753688633,80.70832420221996 174.22849503927864,81.17080974955752 173.72212611377472,81.9030766779324 173.2438887952594,82.44264032789215 172.96257272554794,82.6738815142744 172.7093882628251,82.78950202239503 172.23115094430977,82.48118054142105 171.89357166056288,82.48118054142105 171.21841309330193,83.1363632066641 171.0777550584171,83.40614377503516 170.93709702359047,83.90716401176178 171.30280791420955,85.02482070386759 171.27467630716274,85.37167860020418 171.0214918444981,85.71853598630696 170.6276493468904,86.02685323466721 169.72743792377878,86.48932835116284 169.4461218540091,86.87472358878586 168.71470007277094,88.95584698817402 168.65843685885193,89.34123819487286 168.68656846578233,89.8807848259894 168.48964721697848,90.38179130674689 168.29272596823284,90.65156358624517 167.89888347056694,90.95987438492011 166.9142772265477,91.11402963311411 166.407908301102,91.30672355172283 165.31077562912833,92.50142233220686 164.83253831061302,93.23365407715028 164.12924813636346,94.08149852021597 164.01672170846723,94.35126656740613 163.98859010147862,94.54395784086955 164.07298492238624,95.81571629623068 164.43869581306353,97.97383616297157 164.46682742005214,98.78312602141523 164.43869581306353,99.36118850571802 164.49495902698254,99.70802531602385 164.720011882775,100.32462283063796 164.80440670368262,100.86414433353639 164.7762750966358,101.44220171681081 164.60748545487877,101.75049840849533 164.46682742005214,101.90464660337602 164.15737974329386,102.0973317049793 163.70727403182536,102.17440570161853 161.93498279253254,102.13586870649306 159.85324387659784,101.63488719647285 159.12182209541788,101.51927592753782 158.22161067224806,101.51927592753782 157.18074121430982,101.67342427345284 155.18339711928274,102.32855361931433 154.00186962645967,102.82953365588037 152.37023642210988,103.21490219056432 150.68234000378288,103.29197582195047 149.5570757248788,103.25343900934968 148.82565394364065,103.36904942816182 148.45994305302156,103.67734360106988 148.12236376933288,104.64076029371063 147.72852127160877,105.45002727405517 147.58786323689856,105.91246430184401 147.16588913230225,106.45197302140878 146.85644145560218,106.95294429879868 146.04062485339819,108.72560335088929 145.7593087836285,109.11096225128858 145.61865074880188,109.41924891833332 146.0687564603286,108.18609983249917 147.0252310973592,106.41343672516814 147.50346841587452,105.8353915267362 147.8410476996214,105.64270947911427 150.7104716107715,105.4114908141928 153.10165820340626,105.45002727405517 154.1987908752635,105.257344911588 156.33679300511722,105.18027192247973 159.37500655808253,104.8719797142694 161.3723506531096,104.98758933960926 163.70727403182536,104.79490659922885 165.25451241520932,104.75637003233714 166.3797766941134,104.64076029371063 167.53317257994786,104.67929687950527 168.6021736448747,104.52515049833164 170.76830738171702,104.44807727004809 171.9498348745983,104.33246738022717 173.6939945067861,104.33246738022717" stroke="#4dd2ff" stroke-linecap="round" stroke-linejoin="round" stroke-width="0.5"><title>2022-08-20 4.1km</title></polyline><polyline fill="none" points="39.31146541470662,168.2258615808678 39.26014690834563,168.54218930576462 39.10619138897164,168.71792672974698 38.413391552341636,168.71792672974698 37.56663619633764,168.85851656558225 37.310043664241675,169.0694011470623 37.23306590458378,169.20999075309373 37.10476963862311,169.77234825878986 36.950814119307324,169.94808467793337 36.79685859999154,169.98323194446857 36.078399510122836,169.98323194446857 35.873125484387856,170.05352646042593 35.74482921836898,170.1589681912301 35.565214445930906,170.4401458875218 35.43691817979561,171.2133826573554 35.359940420195926,171.4594119557878 35.07768863486126,171.60000000000582 33.923022240400314,171.49455897539156 33.204563150473405,171.14308852037357 32.99928912479663,171.17823559166573 31.921600489935372,171.56485299751512 31.741985717439093,171.52970598939282 31.254459906485863,171.2133826573554 30.81825260183541,171.0025001775357 30.536000816500746,170.93220597167965 30.04847500548931,170.9673530774453 29.843200979812536,170.93220597167965 28.35496429359773,170.1589681912301 28.226668027520645,170.05352646042593 28.12403101468226,169.84264284365054 28.14969026792096,169.70205365105357 28.81683085137047,168.47189429601713 29.20171964954352,167.59320473560365 30.151112018385902,165.97640656678414 30.79259334865492,164.5704852383351 32.07555600919295,162.285843482372 33.384177922969684,160.07147524002357 33.69208896148484,159.3684964280983 34.410548051353544,157.96253191230062 35.07768863486126,156.55655820721586 36.078399510122836,154.93967708584387 36.20669577619992,154.37728080349916 36.078399510122836,154.1663818185334 34.461866557830945,154.30698116484564 33.48681493580807,154.30698116484564 33.024948377977125,154.34213098709006 32.332148541288916,154.34213098709006 32.99928912479663,154.37728080349916 34.30791103851516,154.1663818185334 36.386310548637994,153.95548262678494 36.87383635964943,153.74458322834107 37.20740665140329,153.46338370868762 37.54097694315715,152.97128366476682 38.413391552341636,151.42467619768286 39.747672719240654,148.50718183879508 40.79970210097963,146.5738806455338 41.15893164591398,146.0114624902344 41.389864924771246,145.44904286437668 42.44189430651022,143.37510778444994 43.75051622022875,141.09024090167077 43.82749397988664,140.9144809053687 43.85315323306713,140.633264612552 43.67353846057085,140.422352151596 43.339968168816995,140.28174372955982 42.44189430651022,140.03567876960733 41.800412976183,139.71930912177777 41.235909405571874,139.26232992000587 40.44047255598707,138.73504501934804 40.08124301099451,138.24291127912875 39.5167394404416,137.7507764128095 39.26014690834563,137.36409822793212 37.9002064880915,136.55558704970463 37.05345113214571,135.95798987758462 36.48894756147638,135.64161423202313 35.719169965188485,134.79794356845377 34.51318506425014,133.98942274405272 34.23093327891547,133.60273779710406 33.89736298721982,132.86451914969075 33.769066721142735,132.65359907076345 33.56379269546596,132.54813895377447 33.43549642938888,132.54813895377447 33.17890389729291,132.7239057867264 32.870992858719546,133.00513242064335 32.17819302203134,134.02457588654943 31.588030198181514,134.62217843036342 31.51105243852362,134.65733146943967 31.074845133931376,134.48156621654925 30.81825260183541,134.44641314868932 30.484682310081553,134.72763753052277 30.228089778043795,135.2197793138912 30.151112018385902,135.50100268448296 30.176771271566395,135.67676710447995 30.356386044004466,136.09860112628667 30.382045297243167,136.27436505786318 30.356386044004466,136.83680867383373 30.253749031224288,137.11802993020683 30.125452765088994,137.36409822793212 29.894519486289937,137.5398611255223 29.458312181697693,137.82108146263636 28.739853091770783,138.0671489560773 28.380623546778224,138.38352103403304 27.687823710090015,140.21143948397366 27.61084595043212,140.52780840799096 27.636505203670822,141.0199369204347 27.58518669725163,141.23084879531234 27.405571924813557,141.61752002885623 27.200297899078578,141.86358317921986 26.969364620221313,142.0393423999485 25.84035747894086,142.3205568544654 25.4811279339483,142.56661920054466 24.326461539429147,143.97268434973375 23.582343196263537,144.78116764870356 23.454046930302866,145.02722717994766 23.428387677122373,145.1678324999375 23.454046930302866,145.8005553028488 23.351409917406272,146.53872955388215 23.556683943083044,148.12052299019706 23.71063946239883,148.85868927986303 23.787617222056724,149.80775650141004 24.19816527335206,151.42467619768286 24.300802286248654,151.67072812952392 24.45475780556444,151.7761788713542 24.890965110156685,151.84647933694941 25.635083453264087,151.67072812952392 26.096950011036824,151.67072812952392 27.277275658678263,151.8816295612487 28.63721607887419,152.30343180446653 29.073423383466434,152.37373209804355 30.151112018385902,152.37373209804355 30.869571108254604,152.23313148811576 31.51105243852362,151.98708019967307 32.870992858719546,150.93257148980047 33.409837176208384,150.5107665584801 33.589451948646456,150.1241113114229 33.66642970830435,149.3156480944599 33.56379269546596,148.12052299019706 33.61511120182695,147.55810887891857 34.102637012896594,145.97631130674563 34.35922954499256,145.48419413402735 34.56450357066933,144.88662176785874 35.02637012844207,144.1132903591788 35.359940420195926,143.3399561700353 35.539555192634,142.74237784683646 35.5908736991114,141.96903872894472 35.64219220553059,141.7932794506778 36.46328830823768,141.26600075440365 36.617243827553466,141.26600075440365 37.00213262572652,141.51206430685124 37.258725157764275,141.51206430685124 37.41268067708006,141.4066085331433 37.874547234911006,140.5981125502003 38.49036931199953,139.684156910007 40.26085778349079,137.29379302883171 40.876679860579316,136.6258924901922 41.389864924771246,136.16890671617875 41.774753723002505,135.92283705108275 41.90304998902138,135.74707283222233 41.85173148260219,135.29008519093622 41.69777596334461,135.0440145204484 41.51816119084833,134.93855557551433 41.235909405571874,134.93855557551433 40.51745031558676,135.39554396360472 40.00426525139483,135.5361555800191 39.5167394404416,135.50100268448296 39.439761680783704,135.32523812094587 39.54239869362209,135.079167490665 40.02992450463353,134.44641314868932 40.26085778349079,133.74335058545694 40.33783554320689,133.46212491663755 40.2865170367877,133.00513242064335 40.183880023891106,132.54813895377447 39.92728749179514,132.19660485697386 39.5167394404416,131.77476318227127 39.41410242760321,130.36861829145346 39.439761680783704,130.26315705409797 39.5167394404416,130.0170806324022 39.90162823855644,129.4546191826521 40.00426525139483,129.17338790628128 40.13256151747191,129.03277213015826 40.38915404956788,128.89215626218356 41.543820444028825,128.6460782719223 42.133983267936856,128.6109242502862 42.852442357863765,128.75154030212434 43.54524219461018,129.03277213015826 43.77617547346745,129.03277213015826 43.98144949908601,128.96246420760872 44.64859008259373,128.40000000000873" stroke="#4dd2ff" stroke-linecap="round" stroke-linejoin="round" stroke-width="0.5"><title>2022-08-19 4.3km</title></polyline><polyline fill="none" points="115.81806602462893,128.40000000000873 115.74300995809608,128.42570251507277 115.61166184165631,128.57991751746158 115.48031372515834,129.01685920318414 115.34896560871857,129.1453712327202 115.12379740909091,129.27388315727876 114.52334887671168,129.2481807807926 114.29818067708402,129.32528789773642 114.26065264377394,129.47950201829372 114.22312461052206,129.94214347284287 114.18559657724109,130.17346368990547 114.12930452733417,130.27627256611595 113.94166436095838,130.37908137514023 113.62267607814283,130.40478356684616 112.70323926300625,130.27627256611595 111.8963865475962,130.4304857544339 111.57739826475154,130.40478356684616 110.05751291720662,130.07065474656702 109.23189618517063,129.7108229156147 108.91290790235507,129.63371598764206 108.70650371938245,129.68512061046204 108.57515560294269,129.73652521660551 108.34998740325682,129.96784573595505 108.23740330347209,130.14776146040822 108.01223510384443,130.81601806383696 107.82459493746865,131.25295353903493 106.99897820537444,132.89787620874995 106.71751795592718,133.6432261312293 106.15459745677072,135.33952658457565 105.31021670816699,137.44702591239184 105.19763260832406,137.65263409144245 105.10381252516527,137.72973708929203 104.70976817575865,137.83254102765932 104.65347612588084,137.93534489886952 104.35325185972033,138.91197832475882 103.94044349368778,139.60589839074237 103.752803327312,140.1199112811446 103.54639914433938,140.55682091755443 103.13359077827772,141.5848388055747 103.021006678493,142.04744466372358 102.79583847886533,142.6128499765182 102.51437822930166,143.33245379957953 102.49561421264661,143.6408544303995 102.55190626258263,143.97495443173102 102.57067027917947,144.36045355172246 102.55190626258263,144.74595172709087 102.51437822930166,144.87445090895926 101.83887363041868,146.36503374947642 101.59494141413597,147.1360193328146 101.05078493163455,148.39528766079457 100.90067279856885,148.93497100184322 100.01876401665504,151.0422882263374 99.56842761739972,152.37862111075083 99.30573138446198,152.99538630640018 99.04303515152424,153.71494264570356 98.83663096855162,154.40879742791003 97.87966612007585,156.8244161344046 97.5606778372312,157.77523460282828 97.41056570416549,158.08360692631686 96.94146528825513,159.23999775691482 95.64674814033788,162.68342234425654 95.23393977430533,163.65990216976206 95.1213556744915,163.81408264093625 94.72731132514309,164.0196563675272 94.61472722532926,164.19953315796738 94.37079500904656,164.84194858813134 93.6577623768244,166.48652013854007 93.48888622710365,167.0004452233261 93.09484187775524,167.95120220542594 92.32551719565527,169.9297861574596 92.2504611290642,170.00687334043323 92.04405694606248,170.08396048560098 91.29349628061755,169.9297861574596 90.24271134895389,169.82700318809657 88.08484943577787,169.51865387735597 87.25923270377098,169.59574126168445 86.3960879384831,169.82700318809657 86.07709965566755,169.9811776169372 85.58923522307305,170.26383034407627 84.7823825077503,170.85482986042916 84.18193397537107,171.60000000000582 84.72609045787249,170.93191659019794 85.25148292366066,170.4693956450792 85.94575153919868,170.1096561922459 86.99653647089144,169.67282860829437 87.54069295333466,169.59574126168445 88.76035403471906,169.57004547111865 89.69855486651068,169.74991591708385 92.00652891283971,170.00687334043323 92.19416907915729,169.9811776169372 92.36304522890714,169.85269893679651 92.73832556165871,168.6963860946562 93.3200100773538,167.28310330452223 93.63899836016935,166.15246793338156 93.84540254322928,165.6642365117732 94.12686279273476,165.12461054656887 94.57719919201918,164.0453530644445 94.74607534176903,163.86547609776608 95.17764772442752,163.63420540990774 95.2714678075572,163.50572154755355 95.96573642315343,161.80972473228758 96.62247700543958,159.85673605826742 96.978993321507,159.11151030648034 97.54191382063436,157.7238391568826 97.84213808679488,156.7730203778483 98.46135063580004,155.23113987444958 98.79910293527064,154.2289094448497 99.32449540111702,152.99538630640018 100.0938200831879,150.70820323184307 100.50662844922044,149.83443912326766 101.25718911466538,147.75280507926072 101.40730124776019,147.47011191230558 101.76381756388582,146.44213247786683 102.42055814611376,144.8230512487935 102.49561421264661,144.48895304839243 102.4393221627688,144.05205433131778 102.42055814611376,143.5380542873172 102.55190626258263,143.07545281200146 102.72078241233248,142.68995054352854 102.85213052877225,142.27874708273157 103.09606274505495,141.63623952367925 103.22741086152382,141.35353536650655 103.73403931068606,139.83720439922763 104.55965604266385,137.93534489886952 104.70976817575865,137.7811390668794 105.1225765417912,137.62693308373855 105.2163966249791,137.49842798234022 105.42280080800992,136.83019976304786 106.36100163983065,134.54278167977463 107.0740342719946,132.66655999765499 107.37425853818422,132.04971510499308 108.46257150309975,129.58231134798552 108.68773970272741,129.2481807807926 108.85661585244816,129.2481807807926 109.15684011863777,129.42809732822934 109.40077233492048,129.63371598764206 109.75728865104611,129.81363209417032 110.07627693383256,129.94214347284287 110.50784931652015,129.83933437826636 110.84560161596164,130.1220592266036 111.220881948655,130.32767697902455 111.4085221150599,130.35337917914148 111.8025664644083,130.07065474656702 112.38425098010339,129.89073893395835" stroke="#4dd2ff" stroke-linecap="round" stroke-linejoin="round" stroke-width="0.5"><title>2022-08-18 5.1km</title></polyline><polyline fill="none" points="148.51759036145813,154.11970370467316 148.57542168676446,154.23060588176304 148.55228915665066,154.3256647897215 148.52915662650776,154.37319420879794 148.2862650602474,154.4840960959773 147.93927710843855,154.5949978563367 147.80048192772665,154.6742133218213 147.70795180724235,154.78511486475327 147.65012048195058,155.02276060105214 147.6154216867435,155.10197571711615 147.53445783133793,155.19703377089172 147.32626506024098,155.24456276284764 147.19903614459326,155.21287677082728 146.99084337349632,155.11781873252767 146.8173493975919,155.08613269906346 146.6554216867662,155.00691757009918 146.28530120481446,155.13366174537077 146.1118072289246,155.21287677082728 146.0539759036037,155.22871976812894 145.8573493975855,155.10197571711615 145.47566265061323,154.97523150039342 145.1865060241107,154.9910745365487 145.0130120481772,154.88017322913947 144.70072289157542,154.76927179492486 144.39999999999418,154.51578232616885 144.4115662650729,154.38903734327323 144.46939759036468,154.3256647897215 144.79325301205972,153.6602504769471 144.9667469879496,153.4067581091076 145.14024096386856,153.07404837063223 145.29060240964463,152.72549408693885 145.98457831326232,151.41048255495843 146.31999999999243,150.8401105624289 146.66698795180127,150.22220378449128 146.97927710843214,149.55676131240034 147.76578313251957,148.00404445122695 147.92771084337437,147.7980699384425 148.1706024096493,147.38611960031267 148.4597590361518,147.10092218709906 148.61012048192788,146.89494575587014 148.72578313252598,146.6414357013855 149.084337349399,146.03934666555142 149.35036144580226,145.5323214197706 149.5816867469839,144.83515737768175 149.70891566267528,144.59748667216627 150.09060240961844,144.02707460188685 150.33349397592247,143.59926334701595 150.69204819278093,142.83870534420566 151.44385542167583,141.5710954149472 151.61734939760936,141.31757144042058 151.69831325301493,141.30172616997152 152.21879518071364,141.53940495441202 153.27132530120434,142.44257902156096 153.8149397590605,142.82286032239062 154.0925301204843,143.1872951694022 154.24289156627492,143.32989973666554 154.35855421687302,143.4249693316815 154.64771084337553,143.5200388334706 154.87903614455718,143.64679802415048 155.20289156628132,143.90031590836588 155.63084337348118,144.29643627546466 155.94313253011205,144.5024182268171 156.7643373494211,145.10451680635015 157.66650602410664,145.7224561976327 158.26795180724002,146.05519116178766 158.7421686746966,146.34039165082504 158.90409638555138,146.46714715443522 159.4708433734777,146.76819081149006 159.77156626505894,146.9741675119949 160.3845783132565,147.32274246985617 160.72000000000116,147.43365242098662 161.5990361445729,147.90897934587701 162.76722891567624,148.36845982508385 163.2414457831328,148.54274495453137 163.65783132528304,148.76456193892227 164.42120481927122,149.00222243056487 164.66409638554615,149.09728646412987 165.26554216867953,149.43000984760147 166.57253012048022,149.98454628296167 166.78072289157717,150.0320778298992 167.47469879519485,150.28557901986642 167.85638554216712,150.50739201743272 168.37686746988038,150.68167330244614 168.93204819277162,150.9193290953699 169.27903614458046,151.10945331032417 169.59132530121133,151.23620257990115 170.1927710843447,151.41048255495843 170.73638554217177,151.72735443447164 171.46506024098198,152.04422527852876 171.71951807229198,152.18681682054012 172.5754216867499,152.51952960310882 173.00337349397887,152.64627702956204 173.47759036146454,152.88392800759175 175.3513253012061,153.48597454522678 175.77927710843505,153.67609372791776 176.23036144579237,153.92958539167012 176.79710843374778,154.13554688055592 177.36385542168864,154.42072360453312 178.2313253011962,154.70589948984707 178.613012048183,154.89601628084347 179.2375903614593,155.14950475565274 179.53831325301144,155.19703377089172 179.88530120482028,155.3713066275086 180.23228915662912,155.45052145884983 180.89156626506883,155.94165196865652 181.15759036145755,156.05255206213042 181.86313253012486,156.24266621297284 183.28578313252365,156.81300642919814 183.59807228916907,156.86053462917334 183.73686746988096,156.90806280581455 184.03759036144766,157.0664898930845 184.3845783132565,157.3199726943567 185.06698795182456,157.57345483303652 185.44867469881137,157.66851046420197 186.30457831325475,158.12794470152585 187.26457831326115,158.52400695213146 187.60000000000582,158.69827383002848" stroke="#4dd2ff" stroke-linecap="round" stroke-linejoin="round" stroke-width="0.5"><title>2022-08-17 4.3km</title></polyline><polyline fill="none" points="48.513250950636575,180.78720839176094 48.41263915901072,180.87908563793462 47.82573704083916,180.90205494007387 47.55743892965256,180.9709628240671 47.4568271379685,181.13174775526568 47.35621534628444,181.5681630702311 47.23883492266759,181.61410144557885 46.66870143645792,181.7059781513526 46.43394058916601,181.79785479708517 46.29979153358727,181.95863878262753 46.232717005797895,182.09645348101913 46.14887384604663,182.57880386148463 46.06503068632446,182.69364894623868 45.99795615853509,182.71661795196997 45.36074814447784,182.6706799368112 44.70677149857511,182.53286580130225 44.27078706791508,182.6477109236439 43.918645797035424,182.80849393723474 43.80126537338947,182.80849393723474 43.18082599132322,182.4180205852026 43.01313967187889,182.3491134105425 42.728072928701295,182.39505153070786 42.62746113704634,182.3491134105425 42.4765434495057,182.2572371250717 41.77226090771728,181.88973138277652 41.470425532665104,181.86676224194525 41.33627647708636,181.95863878262753 40.2295467685326,184.16365774563747 39.743256442045094,185.2661542584683 38.9886680044292,187.47112134790223 38.636526733549545,188.29797509113268 38.55268357376917,188.66546408277645 38.43530315012322,188.96404818122392 38.31792272650637,189.19372782550636 38.21731093485141,189.30856750687235 37.949012823664816,189.37747127072362 37.781326504191384,189.46934290332138 37.71425197637291,189.56121447584883 37.496259761072,189.99760362559755 37.211193017981714,190.87037786172004 37.026738066546386,191.26082773967937 36.77520858735079,191.85798427916598 36.2553809969686,193.35086453203985 35.953545621887315,194.01691368510365 35.836165198270464,194.56812439124042 35.86970246216515,195.5327379272203 35.78585930241388,195.85427430202253 33.7568548367708,200.92985823263007 33.55563125340268,201.59587148518767 33.23702724641771,202.37671059154673 32.91842323937453,203.29533928293677 32.44890154481982,204.37472032665391 32.163834801729536,205.15554400195833 31.962611218361417,205.56891948646808 31.912305322504835,205.614850020851 31.861999426677357,205.72967629121558 31.426014996046433,206.94682899169857 31.342171836295165,207.29130425833864 30.88941877373145,208.57733779761475 30.134830336086452,210.41450816579163 29.68207727346453,211.81533444339584 29.2628614747955,212.59611680389207 29.14548105117865,212.68797326719505 28.860414308059262,212.75686557526933 28.726265252480516,212.89465009020932 28.55857893297798,213.3768948293 27.904602287046146,214.93843787511287 27.45184922448243,216.36218259882298 27.099707953544566,217.11997633207648 26.781103946559597,218.0385087159957 26.66372352288454,218.1992512663419 26.311582252004882,218.245177675577 25.5234565504652,218.1533248421183 23.07523628612398,217.7629496307345 22.65602048742585,217.78591290848271 21.86789478585706,217.9236924960569 21.364835827465868,218.06147194870573 20.207800223084632,218.75036718703632 19.838890320213977,219.11777660094958 19.520286313229008,219.53111104425625 19.48674904933432,219.60000000000582 19.654435368807754,219.48518505497486 19.98980800775462,219.02592433744576 20.375486542558065,218.65851468355686 21.398373091360554,218.0385087159957 21.884663417818956,217.87776598190248 22.47156553599052,217.7629496307345 23.142310813913355,217.7629496307345 24.148428730783053,217.8548027191573 25.406076126819244,218.06147194870573 26.2780449881393,218.1533248421183 26.59664899512427,218.1533248421183 26.747566682635807,218.06147194870573 27.04940205771709,217.21182984046754 27.300931536912685,216.660707890318 27.45184922448243,216.17847441221238 28.00521407875931,214.73176405578852 28.77657114827889,212.94057823184994 28.944257467781426,212.75686557526933 29.279630106757395,212.57315267868398 29.363473266450455,212.389439542123 29.53115958595299,211.90719141671434 29.98391264854581,210.78193935917807 30.252210759732407,210.2078276976099 31.627238579414552,206.39566680991265 32.07999164197827,205.33926658962446 33.538862621440785,201.4580758986558 33.87423526038765,200.70019775895344 34.39406285074074,199.36815961418324 34.796510017476976,198.2198407404794 35.36664350377396,196.79591231251834 35.78585930241388,195.5327379272203 35.80262793437578,195.34900252585066 35.75232203849009,194.68295968300663 35.76909067048109,194.47625609026 35.970314253820106,193.9020778493432 36.2553809969686,193.30492999142734 36.38953005254734,192.8455837595393 36.60752226784825,192.34030117113434 36.92612627486233,191.32973054672766 37.580102920823265,189.58418235959834 37.7310206083348,189.30856750687235 37.91547555977013,189.19372782550636 38.167005038965726,189.1477919266763 38.2340795667551,189.1018560127559 38.30115409454447,188.98701616252947 38.51914630990359,188.45875164322206 38.737138525233604,188.02235771705455 39.2401974836248,186.62129437782278 39.59233875456266,185.84036776822177 39.743256442045094,185.31209142554144 40.011554553202586,184.73787575821916 40.21277813659981,184.16365774563747 40.63199393526884,183.24490404722746 40.83321751866606,182.69364894623868 41.587805956281954,181.17768627328041 41.87287269940134,180.741269746155 42.37593165782164,179.8454631567438 43.18082599132322,178.09977237736166 43.51619863027008,177.43364781345008 43.784496741427574,176.9742497234838 44.036026220652275,176.40000000000873" stroke="#4dd2ff" stroke-linecap="round" stroke-linejoin="round" stroke-width="0.5"><title>2022-08-16 5.3km</title></polyline><polyline fill="none" points="115.62190859610564,176.40000000000873 115.41672531902441,176.85990908174426 115.32346019308898,177.2431656166882 115.23019506715355,177.4475687178783 115.09962389079737,177.49866945145186 114.31619683286408,177.626421212306 114.12966658096411,177.7541728688666 114.07370750539121,177.958575302182 114.09236053057248,178.4440300106944 114.05505448020995,178.62288136551797 113.94313632909325,178.72508204790938 113.81256515276618,178.7506322080153 113.57007582529332,178.7506322080153 113.23432137188502,178.6995318835252 112.91721994365798,178.72508204790938 112.39493523834972,178.46958021672617 112.28301708720392,178.4951304186834 111.79803843228729,178.6995318835252 111.48093700408936,178.85283280690783 111.40632490330609,178.8272826634202 110.66020389576443,178.39292958601436 110.49232666907483,178.34182914464327 110.17522524076048,178.41847980045713 109.97004196370835,178.34182914464327 109.0560437294771,177.8308238126774 108.75759532643133,177.7541728688666 108.62702415010426,177.85637411887 108.36588179745013,178.4440300106944 108.1606985203689,178.7506322080153 107.657066840271,180.00258494209265 106.94825188306277,181.3567266165046 105.49331591831287,185.4701794202556 105.23217356562964,185.93006182956742 105.0829493641213,186.03225773687882 104.7471949106839,186.13445357742603 104.59797070917557,186.38994288664253 104.11299205425894,187.94841863462352 103.75858457566937,188.6382308108441 103.6839724748861,188.91926452890038 103.47878919783398,189.35358837255626 103.40417709707981,189.63462080525642 103.19899381999858,190.0944909693353 103.06842264367151,190.55435978133755 102.65805608947994,191.3974490914261 102.56479096357361,191.90841009789438 102.49017886279034,193.03251843634644 102.28499558568001,193.67121275658428 101.70675180482795,194.99968858824286 101.20312012473005,196.35370042086288 100.60622331866762,198.1419999717764 100.15855071411352,199.18942307097313 99.52434785765945,200.9265971378045 98.66630869894288,202.97030663324404 98.49843147228239,203.45568371437548 98.34920727071585,203.99215136753628 98.16267701884499,204.5541631259548 97.32329088533879,206.57227961385797 97.17406668383046,207.0320999816031 96.65178197849309,208.33491701637104 96.22276239917846,209.48445244782488 95.84970189537853,210.5573445619957 95.3087641648599,211.80904272798216 95.17819298856193,211.96231120286393 94.89839761069743,212.09003481719992 94.76782643439947,212.16666893579531 94.65590828322456,212.3710264016845 94.20823567869957,213.5460766497854 94.05901147719123,213.85261004547647 93.5180737467017,215.23200289273518 92.75329971394967,217.35215707220777 92.41754526054137,218.04183958710928 92.30562710939557,218.14401451589947 92.08179080713307,218.16955823764147 88.36983879446052,217.6075953952677 87.69832988761482,217.65868300975126 87.36257543423562,217.70977060764562 86.84029072889825,217.83748952929454 86.50453627551906,217.96520834675175 85.34804871378583,218.60380086963414 85.06825333592133,218.80814992639353 84.37809140389436,219.60000000000582 85.06825333592133,218.80814992639353 85.51592594047543,218.45053890183044 86.28069997325656,218.04183958710928 87.13873913194402,217.73531440034276 87.54910568610649,217.63313920458313 88.42579787003342,217.58205158168857 89.24653097835835,217.65868300975126 91.95121963080601,218.06738332558598 92.3429331597581,218.04183958710928 92.43619828575174,218.01629584445618 92.49215736126644,217.9396645915549 93.53672677191207,215.10428184374177 93.83517517492874,214.08250969804067 94.09631752755377,213.46944320701004 94.67456130843493,212.24330301678856 94.82378550997237,212.09003481719992 95.17819298856193,211.88567698418046 95.32741719007026,211.73240843425447 95.7004776938702,210.81279398078914 96.3160275251139,209.17791049210064 96.57716987776803,208.38600765947194 97.65904533871799,205.6015432874119 98.23728911959915,203.99215136753628 98.77822685008869,202.7403906480904 99.07667525313445,201.8973624776554 99.31916458060732,201.38643410240184 99.80414323555306,200.08355919148016 99.91606138664065,199.67481188483362 100.19585676450515,198.90840780602593 100.81140659577795,197.45222971016483 100.97928382246755,196.915739625867 101.98654718272155,194.46319009141007 102.43421978724655,193.18580531103362 102.50883188800071,192.90477925927553 102.50883188800071,192.6493005922821 102.43421978724655,192.0106020989333 102.47152583760908,191.6784778516012 102.60209701390704,191.32080479657452 103.04976961846114,190.45216682887985 103.19899381999858,190.01784603585838 103.32956499632564,189.40468521603907 103.60936037416104,188.71487642035936 103.73993155051721,188.22945359221194 104.31817533136928,186.90092025291233 104.5793176839652,186.2111004140461 104.70988886032137,186.0067087662901 105.1948675152671,185.77676784334471 105.3067856664129,185.6234737069608 105.43735684273997,185.1891395044804 106.01560062359204,183.8094816835801 106.3700081022107,182.8386040692567 106.57519137926283,182.40426213252067 107.28400633644196,180.64133247589052 108.57106507453136,177.72862254588108 108.62702415010426,177.626421212306 108.7762483516126,177.54977016833436 109.18661490577506,177.77972318763204 109.46641028361046,177.98412558759446 109.65294053551042,178.03522614578833" stroke="#4dd2ff" stroke-linecap="round" stroke-linejoin="round" stroke-width="0.5"><title>2022-08-14 5.0km</title></polyline><polyline fill="none" points="178.75023250529193,176.39999999999418 178.49522785516456,176.4806075807719 177.74982964718947,176.4806075807719 177.47520925480057,176.5880842936458 177.4163620278414,176.64182262372924 177.2790518316324,177.07172863221786 177.10251015075482,177.31355026822712 176.90635272761574,177.44789546786342 176.474806396669,177.50163351699302 176.10210729268147,177.60910956253065 175.94518135409453,177.74345452080888 175.88633412719355,177.8777993692638 175.7882554155949,178.44204653444467 175.72940818863572,178.52265311434167 175.55286650781636,178.5763908122899 175.18016740382882,178.54952196546947 174.6897738459229,178.6032596546429 174.29745899961563,178.4151776657236 174.12091731879627,178.38830879265151 173.1793616875948,178.7376038008224 172.96358852210687,178.68386615546478 172.19857457181206,178.20022655789217 171.6885652715864,178.20022655789217 170.57046795962378,177.47476449458918 170.3743105364556,177.42102643668477 170.25661608253722,177.47476449458918 170.19776885557803,177.58224055777828 170.02122717475868,178.0658819727687 169.43275490525411,179.22124181808613 168.41273630486103,181.37072691002686 168.0596529431641,182.4454589211382 167.47118067371775,183.97693990243715 167.13771305436967,184.80984462458582 166.6865509811032,186.04575998742075 166.56885652718483,186.18009805411566 166.25500465009827,186.26070084155072 166.17654168084846,186.31443601120554 166.01961574231973,186.5293765142269 165.82345831920975,187.09359399830282 165.35268050359446,188.30262494641647 165.15652308039716,188.67876609539962 165.01921288424637,189.1086406409886 164.86228694568854,189.511647006977 164.74459249179927,189.96838636139 164.25419893389335,191.06992899789475 163.803036860656,192.19833087845473 163.76380537598743,192.44013027430628 163.72457389137708,193.5685227546055 163.07725439497153,195.47602577169891 162.76340251788497,196.2282744004624 162.15531450608978,197.8939555494726 161.6845366905618,198.8611175082333 161.23337461729534,199.82827378010552 160.97836996713886,200.6879634699726 160.82144402863923,201.0372111229517 160.5860551208607,201.9237595272134 160.29181898612296,202.62224884395255 160.01719859367586,203.42819436980062 159.5071892934793,204.77142813774117 159.27180038570077,205.2549896089331 158.76179108544602,206.5713441898406 158.31062901217956,207.56531923987495 157.89869842358166,208.88165533245774 157.60446228884393,209.58011510400684 157.34945763871656,210.3860265398398 156.8982955654792,211.48743245021615 156.290207553684,213.20668547246896 156.19212884208537,213.39472768164705 156.11366587283555,213.47531713408534 155.62327231495874,213.71708525446593 155.48596211869153,213.90512688018498 155.28980469558155,214.44238748354837 154.917105591594,215.27513795111736 154.66210094146663,216.05415876566258 154.28940183745,216.96748881567328 153.97554996039253,217.82708893643576 153.24976749470807,219.60000000000582 153.36746194859734,219.11648069569492 153.93631847578217,217.71963916698587 154.5051750029088,215.94670783811307 155.3878834070929,213.824537638342 155.64288805727847,213.55590654700063 155.99597141894628,213.3678645220789 156.17251309976564,213.23354865841975 156.38828626525356,212.58883098601655 156.81983259620029,211.67547662470315 157.2317631848564,210.57407197340217 157.60446228884393,209.3383409032831 158.1929345582612,207.75336789802532 158.58524940462667,206.8399866875261 159.1541059317824,205.20126062676718 159.93873562442604,203.42819436980062 160.6645180901105,201.25213238703145 161.42953204043442,199.45215812792594 161.44914778272505,199.26409997938026 161.64530520589324,198.67305868388212 162.25339321765932,197.2223119543778 162.52801361007732,196.73872686769755 162.56724509474589,196.47006787185092 162.72417103327462,196.06707855535205 162.88109697180334,195.47602577169891 163.1949488488899,194.83123849447293 163.62649517977843,193.72972104838118 163.70495814908645,193.3267250176723 163.665726664447,192.41326369230228 163.7441896336968,191.9565311272454 163.82265260294662,191.7953310955636 164.05804151075426,191.44606381824997 164.2934304185037,190.96246174836415 164.74459249179927,189.511647006977 165.0388286265661,188.67876609539962 165.27421753431554,188.30262494641647 165.47037495745462,187.73841161000018 165.84307406150037,186.47564141484327 165.96076851536054,186.28756842852454 166.0588472269592,186.18009805411566 166.43154633097583,186.01889236086572 166.52962504254538,185.93828945489076 166.6080880117952,185.80395119063905 167.0200186004513,184.83671244863945 167.54964364296757,183.33210754324682 168.23619462398347,181.74688391278323 168.5304307587794,180.91396367865673 169.11890302822576,179.5167976840894 170.13892162864795,177.5553715485148 170.25661608253722,177.44789546786342 170.41354202103685,177.47476449458918 170.70777815583278,177.5553715485148 171.04124577518087,177.79719247331377 171.62971804465633,178.03901304260944 171.7474124985456,178.0658819727687 172.2181903141318,177.9584062256472 173.15974594527506,178.38830879265151 174.0816858341277,178.11961981996137 174.67015810360317,178.33457103316323 175.08208869220107,178.33457103316323 175.5724822501361,178.49578425871732 175.8471026425541,178.49578425871732" stroke="#4dd2ff" stroke-linecap="round" stroke-linejoin="round" stroke-width="0.5"><title>2022-07-26 4.5km</title></polyline><polyline fill="none" points="45.95238141959999,225.34152861697657 45.36049032691517,225.28922161692753 44.9977183669107,225.36768211066374 44.94043858372606,225.44614256599743 44.959531844826415,225.6815237011033 44.94043858372606,225.81229084882943 44.88315880057053,225.94305788981728 44.80678575637285,226.0476714456745 44.69222619003267,226.09997819794808 44.19580140267499,226.12613156763837 43.94758900895249,226.2568983521778 43.77574965945678,226.46612498530885 43.680283354216954,226.62304478071746 43.58481704891892,227.19841604761314 43.50844400472124,227.30302878306247 43.43207096052356,227.3291819562728 43.06929900046089,227.3291819562728 42.439221385720884,227.22456923792197 42.22919551411178,227.1461096543062 42.00007638143143,226.98919037166343 41.828237032023026,226.9630371429521 41.56093137728749,227.11995645119168 41.23634593936731,227.22456923792197 41.00722680668696,227.35533512514667 40.87357397933374,227.35533512514667 40.548988541413564,227.1461096543062 39.99528397084214,226.8584241852659 39.880724404531065,226.8322709352069 39.556138966581784,226.93688390993339 39.36520635607303,226.88457743110484 38.639662436034996,226.3353583716089 38.35326352022821,226.17843829428602 38.12414438757696,226.17843829428602 38.02867808230803,226.2568983521778 37.704092644387856,227.17226285308425 37.24585437908536,227.93070376006654 36.36756437065196,229.86601944624272 35.39380805689143,232.63818764177267 34.801916964235716,234.12886201273068 34.51551804842893,234.6257503851084 34.439145004202146,234.6780543345958 34.17183934946661,234.73035826694104 34.03818652208429,234.86111802319647 33.86634717261768,235.64567431771138 33.579948256810894,236.2994682926801 33.44629542945768,236.69174339606252 33.1217099915375,237.3193815620907 32.911684119928395,237.97316870183568 32.167046938848216,239.7253050704312 31.97611432831036,240.22217607292987 31.91883454512572,240.61444156456855 31.82336823985679,241.92198626196478 31.766088456701254,242.13119242250104 30.964171492436435,243.98788511804014 30.27681409448269,245.94915683293948 29.608549957658397,247.49200703104725 29.26487125866697,248.5379987085471 28.84481951550697,249.55783401458757 28.310208205977688,250.99605225193955 28.081089073355542,251.7282311191084 27.85196994067519,252.22506487216742 27.69922385227983,252.6695990285516 27.260078848019475,253.6371102789126 26.973679932241794,254.44772331183776 26.706374277506256,255.10144051031966 26.400882100628223,255.91204612955335 26.267229273275007,256.4611637335329 26.171762967976974,256.74879601261637 25.94264383535483,257.27176246895397 25.637151658476796,258.1085052462149 25.178913393203402,259.25901942519704 24.43427621209412,261.03707053203834 24.262436862598406,261.27239934602403 23.86147838048055,261.50772781421256 23.746918814140372,261.6646132674359 23.365053593093762,262.60592275900126 23.04046815520269,263.6256684635882 21.513007270841626,267.4431203620479 21.493914009828586,267.6000000000058 21.551193792984122,267.54770680442743 21.684846620366443,267.0247739094193 22.257644451980013,265.32523020607186 22.658602934068767,264.2793481917033 22.773162500408944,263.86099347313575 23.04046815520269,263.3380485377711 23.193214243627153,262.8412492672651 23.46051989836269,262.13526870495116 23.632359247800196,261.63846570259193 23.86147838048055,261.3769898190221 24.28153012364055,261.1416611587483 24.37699642890948,261.063218195166 24.5106492562918,260.775593666418 25.255286437401082,258.9452436508145 25.618058397405548,257.87317178215017 26.28632253431715,256.14738247616333 26.744560799590545,254.83995395118836 27.088239498552866,254.00319409226358 27.336451892217156,253.50636585699976 27.718317113351077,252.30351216594863 28.501140816573752,250.34231829109194 28.902099298662506,249.1394408287888 29.226684736582683,248.3026511769276 29.85676235135179,246.86440874441178 30.467746705078753,245.08620023839467 30.77323888189858,244.432442145815 31.47968954089447,242.62805595822283 31.766088456701254,241.73893064723234 31.785181717772502,241.42512053494283 31.727901934587862,241.08515888586408 31.727901934587862,240.69289454762475 31.74699519565911,240.27447819401277 32.2434199830459,239.22843252582243 32.43435259358375,238.65310449486424 33.159896513592685,236.9271079966129 33.503575212613214,235.93334399559535 33.713601084193215,235.4626115262654 33.904533694672864,234.93957382571534 34.05727978312643,234.78266218231875 34.4582382653025,234.59959840399097 34.55370457054232,234.46883843409887 34.954663052631076,233.3442982846027 35.20287544635357,232.7427968224365 35.48927436218946,232.14129310021235 36.06207219380303,230.78136330998677 36.3866576316359,229.83986668748548 36.921268941194285,228.61068220781453 37.15038807381643,228.16608124194317 37.62771960016107,227.01534359608195 37.95230503808125,226.38766502989165 38.066864604421426,226.23074500384973 38.21961069284589,226.15228493306495 39.02152765711071,226.62304478071746 39.537045705568744,226.77996442219592 39.84253788241767,226.70150462067977 39.95709744875785,226.70150462067977 40.03347049295553,226.72765789208643 40.31986940873321,226.93688390993339 40.759014412993565,227.11995645119168 40.911760501388926,227.11995645119168 41.21725267826696,226.93688390993339 41.847330293036066,226.8061176808842 42.38194160256535,227.09380324378435 42.72562030152767,227.01534359608195 43.06929900046089,227.0676500321715 43.52753726579249,226.98919037166343 43.6993766152591,226.88457743110484 43.737563137343386,226.77996442219592 43.77574965945678,226.62304478071746 43.77574965945678,226.23074500384973 43.85212270368356,226.07382482390676 44.100335097376956,225.94305788981728 44.558573362679454,225.9169044901937 44.88315880057053,225.83844426560972 45.035904889024096,225.7599840026087 45.32230380483088,225.41998908514506 45.74235554801999,225.07999344554264 46.31515337957535,224.9753792572883 46.37243316278909,224.84461142586952 46.3342466406466,224.60922906012274 46.353339901717845,224.55692182070925 46.506085990171414,224.40000000000873" stroke="#4dd2ff" stroke-linecap="round" stroke-linejoin="round" stroke-width="0.5"><title>2022-07-25 4.6km</title></polyline></svg>