<?xml version="1.0" encoding="utf-8" ?>
<svg baseProfile="full" height="300mm" version="1.1" viewBox="0,0,200,300" width="200mm" xmlns="http://www.w3.org/2000/svg" xmlns:ev="http://www.w3.org/2001/xml-events" xmlns:xlink="http://www.w3.org/1999/xlink"><defs /><rect fill="#222222" height="300" width="200" x="0" y="0" /><text fill="#FFFFFF" style="font-size:12px; font-family:Arial; font-weight:bold;" x="10" y="20">Over 4km Runs</text><text fill="#FFFFFF" style="font-size:4px; font-family:Arial" x="10" y="280">ATHLETE</text><text fill="#FFFFFF" style="font-size:9px; font-family:Arial" x="10" y="290">ChiZhang9797</text><text fill="#FFFFFF" style="font-size:4px; font-family:Arial" x="120" y="280">STATISTICS</text><text fill="#FFFFFF" style="font-size:3px; font-family:Arial" x="120" y="285">Number: 11</text><text fill="#FFFFFF" style="font-size:3px; font-family:Arial" x="120" y="290">Weekly: 2.8</text><text fill="#FFFFFF" style="font-size:3px; font-family:Arial" x="141" y="285">Total: 53.5 km</text><text fill="#FFFFFF" style="font-size:3px; font-family:Arial" x="141" y="290">Avg: 4.9 km</text><text fill="#FFFFFF" style="font-size:3px; font-family:Arial" x="167" y="285">Min: 4.1 km</text><text fill="#FFFFFF" style="font-size:3px; font-family:Arial" x="167" y="290">Max: 6.0 km</text><polyline fill="none" points="52.97072274418315,43.70925800487748 52.91461291254382,43.70925800487748 52.67147030882188,44.016690018441295 52.46573425954557,44.50345614062098 52.297404764656676,44.759648229621234 52.129075269796886,44.86212494803476 51.567976953519974,44.88774411714985 51.32483434982714,45.06707818385621 51.19391140938387,45.2976502540987 51.13780157774454,45.73317435043282 51.04428519165958,45.86126944269927 50.95076880566194,45.91250745029538 50.80114258793765,45.91250745029538 50.44578032102436,45.81003141839756 50.01560494521982,45.83565043263661 49.49191318335943,45.65631724488048 49.117847639194224,45.75879337724473 48.74378209502902,45.91250745029538 48.63156243177946,45.93812644787249 47.71510184853105,45.528221985150594 47.228816641145386,45.528221985150594 46.368465889507206,44.96460159946582 46.12532328578527,44.86212494803476 45.90088395931525,44.86212494803476 45.713851187203545,44.99022075183166 45.6203348012059,45.11831645105849 45.11534631653922,46.348029839020455 44.329808673792286,47.91077668823709 43.413348090602085,50.26767690599081 43.28242515012971,50.75442362460308 43.05798582363059,51.369259425395285 42.440777675714344,52.855102658606484 42.27244818082545,53.11128110354184 41.97319574555149,53.18813455538475 41.8235695278272,53.29060576595657 40.850999112968566,55.51933802991698 40.3647139055829,57.00514194226707 40.08416474741534,57.748038619567524 39.84102214372251,58.260379105166066 39.728802480502054,58.593399523277185 39.65398937163991,59.05450355006906 39.71009920327924,60.0535576238326 39.61658281722339,60.437807495953166 39.149000887031434,61.564935022979626 38.99937466933625,62.026030312874354 38.56919929353171,63.076297856954625 38.21383702661842,63.896013979872805 37.50311249261722,65.74035959153844 37.29737644334091,66.20144260548113 36.66146501826006,68.04576110582275 36.493135523371166,68.42999139685708 35.688894603430526,70.65850852198491 34.43577503043343,73.70665883061884 32.584150586801115,78.72701255767606 32.41582109188312,79.0343759329844 32.28489815143985,79.18805739469826 31.948239161720267,79.31612516450696 31.798612943995977,79.46980635021464 31.050481855636463,81.3651952597429 30.48938353941776,82.9275932200544 29.872175391530618,84.41313750295376 29.666439342225203,84.9766161366424 29.53551640175283,85.3095798323775 29.36718690689304,85.46325514587807 29.23626396644977,85.4888676834671 25.738751128461445,84.92539088999911 25.289872475434095,84.8997782603401 24.54174138707458,84.9766161366424 24.055456179659814,85.07906657985586 23.606577526632464,85.2583546944079 22.503084171330556,85.87305524578551 21.979392409528373,86.3340790783841 21.380887538805837,87.0 21.624030142527772,86.74387690320145 21.998095686692977,86.23162945492368 22.446974339691224,85.82183029182488 23.064182487607468,85.46325514587807 23.45695130896638,85.28396726552455 24.242488951742416,85.05345397534256 25.10283970332239,84.92539088999911 25.402092138654552,84.92539088999911 28.918308253894793,85.41203005809803 29.273670520808082,85.38641750797979 29.460703292948892,85.3095798323775 29.53551640175283,85.23274211920216 30.1901311041147,83.43985145862098 30.433273707836634,82.9275932200544 30.844745806389255,81.72377977424185 31.667690003552707,79.7003278463526 31.892129330080934,79.39296577616187 32.303601428633556,79.16244382821606 32.41582109188312,79.00876234134194 33.16395218024263,76.95966146109276 33.388391506741755,76.42176804412156 33.59412755604717,75.80703045144037 34.043006209045416,74.73123386681254 34.94076351507101,72.27224253534223 35.37093889087555,71.27326629446179 36.362212582927896,68.6861444011447 36.62405846387264,68.04576110582275 37.20386005731416,66.25267396779964 37.55922232425655,65.45858597125334 38.08291408611694,64.02409423710196 38.68141895678127,62.64082192401111 39.223813995864475,61.23192091497185 39.61658281722339,60.02794093218108 39.6352860944462,59.82300724857487 39.6352860944462,59.00326983623381 40.065461470221635,57.850506850591046 40.196384410664905,57.28693075137562 40.38341718274751,56.72335262688284 40.75748272694182,55.8267468908889 41.26247121155029,54.21284364789608 41.46820726088481,53.70048993853561 41.65524003299652,53.34184134606039 41.76745969618787,53.23937016898708 42.12282196318847,53.18813455538475 42.27244818082545,53.06004544804455 42.347261289687594,52.90633838099893 42.908359605964506,51.548586079938104 43.30112842735252,50.47262307688652 43.768710357515374,49.37103425886016 44.329808673792286,47.91077668823709 45.02182993051247,46.399267687578686 45.39589547467767,45.50260292069288 46.14402656303719,43.93983207158453 46.76123471092433,42.83819735966972 47.34103630436584,41.53159731924825 48.556749322946416,39.251426072165486 49.286177134054014,37.99603673815727 49.45450662897201,37.63735222519608 49.86597872758284,37.04808302971651 50.29615410332917,36.253847131927614 50.63281309307786,35.51084861770505 50.969472082855646,34.8703298313485 51.47446056746412,34.12732476113888 51.88593266607495,33.3586951213947 51.9794490521017,33.25621088473417 52.185185101407114,33.20496874128003 52.89590963535011,33.30745301139541 53.195162070711376,33.30745301139541 54.22384231715114,33.1281054946885 56.05676348361885,33.0 56.46823558220058,33.02562110735744 56.80489457192016,33.1281054946885 56.93581751239253,33.230589815066196 57.066740452864906,33.40993721463019 57.38469616541988,34.460396434922586 58.33856330305571,36.253847131927614 58.61911246116506,36.89436026666954" stroke="#4dd2ff" stroke-linecap="round" stroke-linejoin="round" stroke-width="0.5"><title>2022-08-27 6.0km</title></polyline><polyline fill="none" points="84.69072164938552,76.03598204339505 83.82474226801423,75.78179713114514 83.76288659789134,75.86652546288678 83.6701030927361,76.3748948720604 83.54639175249031,76.58671516503091 83.36082474223804,76.67144323392131 82.49484536075033,76.88326328460244 82.37113402056275,76.79853528505191 82.24742268037517,75.73943295494246 82.71134020615136,74.63796194261522 83.02061855664942,74.17195356744924 83.51546391745796,73.53648625130882 84.99999999994179,72.4773705972475 86.48453608242562,71.58771010450437 87.62886597937904,71.20642610175128 88.3402061855304,71.20642610175128 89.14432989683701,71.07933130962192 90.28865979379043,71.07933130962192 91.86597938137129,70.78277655228158 93.35051546391333,70.61331653862726 93.96907216485124,70.44385641424742 94.15463917527813,70.31676124832302 94.4020618556533,70.10493583319476 94.74226804124191,69.55418894425384 94.77319587615784,69.25763244260452 94.74226804124191,68.79161439764721 94.37113402056275,66.5038773008564 94.37113402056275,65.40236705522693 94.24742268037517,64.34321817525779 93.62886597937904,63.41116358201543 93.47422680410091,62.81803618730919 92.91752577316947,61.5046778418764 91.92783505149418,59.555811262878706 91.58762886596378,58.32717045607569 91.27835051546572,57.77639854933659 90.84536082472187,57.39509423634445 90.25773195869988,57.18325826442742 85.8041237113066,57.47982857649913 85.12371134007117,57.64929717394989 84.72164948447607,57.64929717394989 84.41237113397801,57.734031431158655 83.76288659789134,57.5645628891798 83.91752577316947,56.88668761315057 84.25773195869988,56.124075809217175 84.87628865975421,55.191991669358686 85.4639175257762,54.0480656454165 85.8041237113066,53.24307763998513 86.32989690714749,52.26861513167387 86.54639175249031,51.71783035463886 87.4742268040427,49.72652178336284 88.43298969062744,48.201253810402704 89.731958762859,45.61675148321956 91.30927835043985,42.86274523966131 91.77319587621605,42.01535281763063 92.02061855664942,41.63402532420878 92.29896907211514,41.46454625813931 92.70103092776844,41.506916035097674 93.75257731956663,42.14246185756929 96.04123711341526,44.091459331990336 98.14432989683701,45.532013265779824 98.97938144323416,46.5912389929581 99.41237113403622,47.01492807221075 99.69072164944373,47.184403510036645 100.21649484534282,47.269141187294736 100.52577319584088,47.39624765136978 101.91752577316947,48.582571644859854 102.65979381441139,49.3028371353721 103.37113402056275,49.895995448721806 106.30927835049806,51.84493463776016 108.0103092782665,53.24307763998513 109.03092783503234,53.96333018360019 111.22680412372574,55.234359203022905 114.16494845354464,56.71721851728216 115.27835051540751,57.47982857649913 116.63917525764555,58.07296818301256 119.6701030927943,59.59817808333901 122.57731958763907,60.69971298711607 124.37113402062096,61.5046778418764 125.97938144329237,62.013075409893645 127.0,62.43673928845965 125.2061855669599,61.84360966470558 124.15463917521993,61.37757829413749 122.70103092782665,60.78444624741678 121.18556701031048,60.06421265222889 117.9381443298771,58.75084035747568 116.6082474226132,58.07296818301256 115.06185567006469,57.39509423634445 109.95876288658474,54.3446395436622 108.9381443298189,53.83622693885991 107.70103092776844,52.98887038217799 106.18556701031048,51.67546224636317 104.57731958758086,50.700993846185156 103.06185567000648,49.68415334967722 102.56701030925615,49.260468632521224 101.70103092776844,48.28599115542602 100.46391752571799,47.353878836962394 99.56701030925615,46.93019031175936 98.94845360826002,46.421763167512836 98.14432989683701,45.532013265779824 96.10309278342174,44.091459331990336 93.75257731956663,42.184831523743924 92.70103092776844,41.59165556814696 92.23711340199225,41.506916035097674 91.92783505149418,41.76113455099403 91.18556701025227,43.24407092604088 89.67010309267789,45.87096596935589 88.3402061855304,48.54020302424033 88.03092783503234,48.96388891852985 86.76288659783313,51.25178078330646 85.30927835049806,54.471742539069965 84.1340206185123,56.80195307910617 83.60824742267141,57.522195736295544 82.95876288658474,57.903499862513854 81.876288659696,59.979479156507296 81.04123711335706,61.462311332827085 80.6701030927361,62.05544182895392 80.2061855669599,63.072233808241435 79.52577319589909,64.21612001887115 78.75257731950842,65.61419631204626 77.79381443298189,67.22409300845175 77.45360824733507,68.07140304417408 76.95876288658474,68.91871031123446 76.37113402056275,70.14730093012622 75.96907216485124,71.16406117800216 74.88659793813713,72.85865273111267 74.23711340199225,74.42614005767973 73.46391752571799,75.56997618064634 73.12371134018758,76.41725894455158 73.0,76.75617127495934 73.12371134018758,76.96799125646066 73.52577319584088,77.0950831622904 74.97938144323416,77.85763328932808 75.9381443298771,77.89999711958808 76.46391752571799,78.19654373712547 77.05154639168177,78.40836254201713 77.73195876280079,78.32363504078239 78.59793814428849,77.98472475910967 78.90721649478655,77.89999711958808 79.77319587627426,78.40836254201713 81.62886597937904,78.53545374186069 81.876288659696,78.36599879480491 81.99999999994179,78.06945237104082 82.03092783497414,77.85763328932808 81.96907216490945,76.5019870686956 82.12371134018758,75.78179713114514 82.4020618555951,74.97687659863732 82.68041237111902,74.42614005767973 82.98969072161708,74.04486022872152 83.57731958758086,73.45175715828373 84.07216494844761,73.07047589654394" stroke="#4dd2ff" stroke-linecap="round" stroke-linejoin="round" stroke-width="0.5"><title>2022-08-26 5.1km</title></polyline><polyline fill="none" points="149.31664952239953,86.86222548425576 149.18732853475376,86.92127172462642 148.8855795636482,86.98031793598784 148.08091564063216,86.88190756760741 147.49178669703542,87.0 147.20440672454424,86.96063586875971 146.52906378917396,86.70476870191487 145.46575789092458,86.37017235603707 145.3364369032788,86.2520793061849 145.25022291153437,86.13398614063772 145.20711591566214,85.87811721805338 145.23585391292,85.6812946000864 145.37954389918013,85.28764839955693 145.5088648868259,85.05146006176074 145.85372085380368,84.53971707466553 146.08362483177916,84.12638461350434 146.35663580565597,83.4965419456712 146.77333676579292,82.39430935303244 147.13256173141417,81.76445762911317 147.43431070251972,81.41016458723607 147.72169067504,80.99682138803473 148.23897462553577,79.85519946982822 148.51198559938348,79.40248433400848 149.02926954990835,78.39863165944553 149.47470850727404,77.67034114963462 149.57529149763286,77.4144542494978 149.58966049627634,77.27666877047159 149.5609224990185,77.21761780259112 149.40286351417308,77.13888313379721 149.0580075471371,77.13888313379721 147.69295267778216,77.29635242000222 147.20440672454424,77.29635242000222 147.01760974241188,77.27666877047159 146.93139575063833,77.1979341402257 146.8451817588939,77.06014841351862 146.80207476302166,76.58773901110544 146.7877057644073,76.52868770554778 146.70149177266285,76.41058500755025 146.5003257919161,76.37121741588635 146.112362829037,76.37121741588635 145.82498285651673,76.31216600414336 145.36517490053666,76.05627621887106 144.37371399541735,75.76101809892134 143.77021605317714,75.70196638802736 143.49720507930033,75.72165029490134 143.1236111150647,75.8200697807988 143.0086591260624,75.8200697807988 142.8506001411588,75.70196638802736 142.80749314528657,75.58386287954636 142.6350651618268,74.69808287455089 142.6350651618268,74.14692758409365 142.50574417421012,73.71387522948498 142.39079218520783,72.78871271071694 142.41953018243657,72.15881075961806 142.47700617695227,72.00133475712937 142.89370713706012,71.52890551449673 143.10924211645033,71.09584374762198 143.48283608071506,70.7218346051086 143.77021605317714,70.48561770616652 144.2875000036729,70.34782430122868 144.4599279871909,70.26908514189563 144.5748799761932,70.17066112036264 144.70420096380985,69.99349767895183 144.7329389610386,69.87538857322215 144.70420096380985,69.42263592844392 144.76167695829645,69.16673150684801 144.97721193765756,68.71397619833442 145.22148491430562,68.35964476976369 145.35080590192229,68.24153406193363 146.08362483177916,67.84783086607058 146.2273148180684,67.65097878556116 146.284790812555,67.4738116380322 146.284790812555,67.3557000616056 146.24168381668278,67.23758836930938 146.112362829037,67.09979124860547 145.23585391292,66.68639894055377 145.0634259294311,66.58797199143737 144.9484739404288,66.46985954629054 144.89099794594222,66.35174698533956 144.86225994865526,66.19426339061465 144.91973594317096,65.83992454953113 144.9053669445275,65.70212582981912 144.76167695829645,65.5643269524735 144.31623800093075,65.38715673564002 144.21565501057194,65.28872872480133 144.1725480146706,65.20998625818174 144.1725480146706,65.05250117054675 144.2300240091572,64.85564452148537 144.5174039816775,64.34381572803977 145.0634259294311,63.65481199459464 145.35080590192229,63.142978098207095 145.60944787715562,62.88706033434573 146.09799383042264,62.57208387852006 146.54343278778833,62.39490926013241 146.8308127602795,62.33585099605261 147.2762517176743,62.355537087300036 148.02343964614556,62.3161649016256 150.39432441926328,62.355537087300036 150.89723937111557,62.29647880398261 151.57258230651496,62.27679270309454 152.75084019373753,62.15867603020888 153.5986111125967,61.98150080367486 154.24521605073824,61.6665219796123 155.10735596824088,61.036561860375514 155.45221193521866,60.879071315706824 155.89765089261346,60.58377598944935 156.44367284036707,59.97349668748939 156.90348079631804,59.32384112926957 157.11901577570825,58.949795430387894 157.19086076880922,58.73324212638545 157.24833676332491,57.70953032730904 157.40639574822853,57.276418869776535 157.77998971246416,56.764557866386895 157.82309670833638,56.62674876303208 157.85183470559423,56.44956539844861 157.9236796986952,56.1345721066391 157.9236796986952,55.70145498518832 157.90931070008082,55.60301905860979 157.6937757207197,54.61865536705591 157.57882373168832,53.890221055458824 157.33455075506936,53.10271954617929 156.84600480183144,52.21677419292246 156.38619684585137,51.64582817853079 156.29998285410693,51.48832535336987 155.9838648843288,50.169231106119696 155.4234739379608,48.63355094498547 155.30852194895851,48.14134162096889 155.27978395172977,47.88539197748469 155.25104595447192,47.33411397443706 155.2654149530863,46.25123912149866 155.39473594073206,45.58182070570183 155.50968792973435,45.24711010236206 155.52405692834873,44.95177644441719 155.56716392425005,44.85333173083927 155.7683299049968,44.53830810654472 155.9263888898422,44.20359460279724 156.14192386923241,43.92794748932647 156.27124485681998,43.82950193876604 156.41493484308012,43.79012369605334 156.80289780595922,43.711367171905295 157.79435871110763,42.94348836209247 159.01572359420243,42.29374092929356 159.70543552815798,41.998400028125616 160.33767146771424,41.821195139760675 161.0848593961855,41.66367946447281 161.65961934116785,41.60461103317357 162.11942729720613,41.565232062836 163.28331618581433,41.407716052744945 163.97302811976988,41.36833701807336 165.00759602079052,41.50616358322441 166.04216392178205,41.42740556530771 166.43012688463205,41.30926844183705 166.99051783102914,41.2895789100221 167.57964677462587,41.2895789100221 168.09693072515074,41.42740556530771 169.13149862611317,41.36833701807336 169.26081961375894,41.2895789100221 169.51946158899227,41.033614703097555 170.12295953123248,40.81702917996881 171.10005143773742,40.71858108614833 171.7753943731077,40.46261566547764 172.0052983511123,40.482305332508986 172.53695130022243,40.40354664494953 172.89617626581457,40.265718817783636 173.24103223285056,40.00975243450375 173.95948216409306,39.2221601502024 174.57734910494764,38.7299123565972 175.496965016966,37.70603050013597 176.05735596333398,36.70183022280253 176.63211590831634,34.96907279693551 177.12066186155425,33.74825145603245 177.50862482443335,33.059072652380564 177.56610081894905,33.0 177.60920781479217,33.03938177148666" stroke="#4dd2ff" stroke-linecap="round" stroke-linejoin="round" stroke-width="0.5"><title>2022-08-25 5.1km</title></polyline><polyline fill="none" points="57.283356033440214,143.58013281715102 57.072368981083855,143.48379795596702 56.61523036781,143.53196539051714 56.47457233298337,143.6764676470193 56.404243315570056,144.15814132406376 56.22842077189125,144.4953124296735 56.01743371965131,144.63981421405333 54.92733394954121,144.92881757035502 54.646017879771534,145.12148631713353 54.39986631879583,145.410489201342 54.32953730132431,145.84399299617507 54.118550249084365,146.37383010232588 53.66141163581051,146.80733248067554 53.098779496212956,147.0 51.83285718259867,146.90366625602474 50.9537444646121,146.37383010232588 50.67242839495884,146.32566313195275 48.879038450540975,146.66283175870194 48.140583767555654,146.1329951720545 47.33180006709881,145.79582593939267 46.38235833175713,145.84399299617507 45.5735746313585,145.55499053711537 44.23732330015628,144.73614869758603 44.02633624791633,144.54347969894297 43.956007230386604,144.35081057457137 43.956007230386604,144.15814132406376 44.51863936986774,142.80945304530906 45.468081105151214,141.0754161925579 46.94499047118006,137.84815378391067 48.45706434594467,135.00620688754134 49.4416705899057,133.3202932397253 50.742757412430365,130.81548944543465 51.93835070874775,128.98504244477954 53.62624712701654,125.66130699359928 54.75151140592061,123.6381453279464 55.560295106319245,122.4820467135869 56.33391429804033,122.0485085643013 56.47457233298337,121.85582473775139 58.86575892550172,116.99051637836965 60.16684574796818,114.05202392031788 61.678919622791,111.35436571080936 62.41737430577632,109.81283564990736 62.83934841025621,108.80120216630166 63.22615800623316,108.22312433132902 65.4766865639831,104.56193838326726 65.4766865639831,104.1765477435838 65.37119303783402,103.93567833775887 64.24592875887174,103.35759096086258 62.87451291910838,102.9240246845875 61.53826158790616,102.15323861810612 60.90530043101171,101.67149630319909 60.58881985262269,101.3824505363009 60.237174765381496,100.8525325608789 59.60421360860346,100.3707881202281 58.900923434179276,99.55182076408528 56.861381928785704,98.39562768192263 55.31414354534354,97.28760505578248 53.907563196728006,95.89052711240947 52.53614735690644,94.83067046239739 52.184502269665245,94.20438974167337 51.76252816518536,93.19270268941182 51.657034638978075,93.0481756842346 51.51637660409324,93.0 51.16473151696846,93.09635136043653 50.77792192110792,93.38540525277494 50.28561879915651,93.96351218695054 49.65265764226206,94.8788458474155 49.054860994103365,95.55330040986883 48.703215906978585,95.84235189284664 48.38673532853136,95.98687752799015 47.788938680430874,95.6014756767836 47.366964575776365,95.6014756767836 46.52301636664197,96.42045400833013 46.34719382307958,96.7576797188085 46.17137127945898,97.38395501469495 46.628509892791044,98.78102587984176 46.593345383997075,99.21459825025522 46.276864805666264,99.64816998288734 45.78456168365665,100.03356654333766 44.65929740469437,100.6116604389681 44.30765231756959,101.0934044859896 43.39337509102188,103.69480873522116 43.323046073608566,104.1765477435838 43.35821058228612,104.85098103250493 43.11205902125221,105.47723913344089 42.8659074602765,105.8144544828101 42.37360433820868,106.19984298115014 41.14284653321374,106.39253704139264 40.5098853763775,106.63340443966445 39.138469536439516,108.12677791525493 38.54067288833903,109.04206759642693 37.66156017052708,110.10187315026997 37.52090213558404,110.4390832092613 37.48573762684828,110.67994730107603 37.59123115299735,112.26964537028107 38.048369766329415,114.96729520370718 38.083534275065176,115.97890752676176 38.048369766329415,116.70148563216208 38.11869878374273,117.13503164504073 38.400014853454195,117.90577853831928 38.50550837966148,118.5801804169314 38.4703438708093,119.30275214603171 38.259356818627566,119.6881230106228 38.083534275065176,119.88080825423822 37.696724679204635,120.12166463120957 37.134092539781705,120.2180071270268 34.91872849070933,120.16983588313451 32.31655484577641,119.54360899559106 31.402277619286906,119.39909490942955 30.27701334032463,119.39909490942955 28.97592651785817,119.59178034181241 26.479246399132535,120.410692024132 25.002337033103686,121.03691706983955 22.962795527651906,121.51862773820176 20.852925004728604,121.61496977743809 19.44634465611307,121.56679876169073 18.53206742956536,121.71131178521318 18.07492881634971,122.0966795013519 17.6529547116952,123.3009503671492 17.16065158956917,124.31253409257624 16.984829046123195,124.89058037730865 16.457361415377818,125.5649662767537 16.070551819517277,126.1911803735129 15.050781066820491,128.4070041886298 14.699135979579296,128.888702814118 14.523313436016906,129.27406114790938 15.085945575498044,127.73262479063123 16.28153887175722,125.51679590647109 16.879335519915912,124.79423940842389 17.301309624570422,124.55338684888557 20.888089513464365,124.26436351775192 23.877072754257824,124.31253409257624 25.248488594137598,124.07168113946682 27.920991256425623,123.97533990311786 31.718758197617717,123.58997464281856 34.21543831640156,123.73448667451157 37.134092539781705,123.49363324904698 39.0681405190262,123.44546254043235 40.474720867641736,123.3009503671492 41.91646572499303,123.34912109936704 43.252717056137044,123.15643812291091 45.96038422716083,123.0600965875783 47.43729359324789,122.91558422529488 49.617493133526295,122.91558422529488" stroke="#4dd2ff" stroke-linecap="round" stroke-linejoin="round" stroke-width="0.5"><title>2022-08-20 4.1km</title></polyline><polyline fill="none" points="106.63933176838327,142.78232697607018 106.57518363540294,143.17773663220578 106.3827392362291,143.39740841218736 105.5167394404416,143.39740841218736 104.45829524548026,143.57314570696326 104.13755458034575,143.83675143381697 104.04133238078794,144.01248844136717 103.88096204824978,144.71543532348005 103.68851764913416,144.93510584739852 103.49607325001853,144.979039930593 102.59799938771175,144.979039930593 102.34140685549937,145.0669080755324 102.18103652301943,145.1987102390267 101.95651805738453,145.55018235940952 101.79614772478817,146.51672832167242 101.69992552528856,146.82426494470565 101.34711079363478,147.0 99.9037778005004,146.8681987192249 99.00570393813541,146.42886065045604 98.74911140598124,146.4727944895858 97.40200061240466,146.95606624687207 97.17748214676976,146.91213248673012 96.56807488307822,146.51672832167242 96.02281575230882,146.25312522190507 95.67000102065504,146.16525746459956 95.06059375690529,146.20919134680298 94.80400122475112,146.16525746459956 92.94370536698261,145.1987102390267 92.78333503444446,145.0669080755324 92.65503876836738,144.8033035545668 92.68711283494486,144.62756706381333 93.52103856421309,143.08986787000322 94.00214956194395,141.99150591949 95.18889002298238,139.97050820846925 95.99074168584775,138.21310654788977 97.59444501146208,135.3573043529468 99.2302224037121,132.58934405000764 99.61511120188516,131.71062053510104 100.51318506419193,129.9531648903794 101.34711079363478,128.19569775901618 102.59799938771175,126.17459635730484 102.7583697202499,125.47160100436304 102.59799938771175,125.20797727315221 100.57733319728868,125.38372645605705 99.35851866973098,125.38372645605705 98.78118547250051,125.42766373383347 97.9151856765966,125.42766373383347 98.74911140598124,125.47160100436304 100.38488879817305,125.20797727315221 102.98288818576839,124.94435328347026 103.59229544957634,124.68072903543361 104.00925831426866,124.32922963582678 104.42622117896099,123.71410458095488 105.5167394404416,121.78084524709266 107.18459089909447,118.1339772984793 108.4996276262682,115.71735080692451 108.94866455742158,115.01432811279665 109.23733115597861,114.31130358047085 110.55236788315233,111.71888473053696 112.18814527528593,108.86280112707755 112.28436747484375,108.64310113168904 112.31644154136302,108.29158076568274 112.09192307572812,108.02794018949498 111.6749602110358,107.85217966191703 110.55236788315233,107.54459846200189 109.75051622022875,107.14913640220766 109.0448867569794,106.57791240001097 108.05059069499839,105.91880627415958 107.6015537637868,105.30363909891457 106.89592430053744,104.6884705160046 106.57518363540294,104.20512278491515 104.87525811017258,103.1944838121126 103.81681391515303,102.4474873469735 103.11118445190368,102.05201779003255 102.14896245650016,100.99742946054903 100.64148133032722,99.98677843005862 100.28866659861524,99.50342224637279 99.87170373398112,98.58064893711708 99.71133340144297,98.31699883844703 99.454740869347,98.18517369221081 99.29437053675065,98.18517369221081 98.97362987161614,98.40488223338616 98.58874107344309,98.75641552580055 97.72274127759738,100.03071985818679 96.98503774771234,100.77772303795791 96.88881554815453,100.82166433680686 96.34355641744332,100.60195777067565 96.02281575230882,100.55801643585437 95.60585288761649,100.90954691314255 95.28511222254019,101.524724142364 95.18889002298238,101.8762533555855 95.22096408944344,102.09595888058539 95.44548255507834,102.62325140784378 95.47755662159761,102.84295632230351 95.44548255507834,103.54601084228489 95.31718628900126,103.89753741276218 95.1568159564049,104.20512278491515 94.86814935784787,104.42482640690287 94.32289022713667,104.77635182830272 93.42481636471348,105.08393619509297 92.97577943350188,105.4794012925413 92.10977963759797,107.76429935495253 92.01355743804015,108.15976050996687 92.04563150461763,108.77492115052883 91.98148337157909,109.03856099411496 91.7569649060024,109.5219000360521 91.50037237384822,109.82947897401755 91.2117057752912,110.04917799992836 89.80044684867607,110.40069606807083 89.35140991746448,110.70827400067355 87.90807692433009,112.46585543715628 86.97792899538763,113.47645956085762 86.81755866284948,113.78403397492366 86.78548459638841,113.95979062491097 86.81755866284948,114.75069412853918 86.68926239677239,115.67341194234905 86.94585492886836,117.65065373774269 87.13829932798399,118.57336159981787 87.2345215275418,119.75969562676619 87.74770659167552,121.78084524709266 87.87600285781082,122.08841016190127 88.06844725692645,122.22022358916001 88.61370638769586,122.30809917117585 89.54385431658011,122.08841016190127 90.12118751381058,122.08841016190127 91.59659457334783,122.35203695154632 93.29652009863639,122.8792897555686 93.8417792293476,122.96716512253624 95.18889002298238,122.96716512253624 96.08696388534736,122.79141436013742 96.88881554815453,122.48385024958407 98.58874107344309,121.16571436222875 99.26229647023138,120.63845819811104 99.48681493586628,120.15513913927134 99.58303713542409,119.14456011806033 99.454740869347,117.65065373774269 99.51888900232734,116.94763609863003 100.1282962661353,114.97038913340657 100.4490369312698,114.355242667516 100.70562946330756,113.6082772098016 101.28296266059624,112.64161294896621 101.69992552528856,111.67494521255139 101.92444399080705,110.92797230853466 101.9885921239038,109.96129841115908 102.05274025688414,109.7415993133327 103.0791103853262,109.08250094298273 103.27155478444183,109.08250094298273 103.7526657821727,109.39008038357133 104.073406447249,109.39008038357133 104.26585084636463,109.25826066642185 104.8431840435951,108.24764068773948 105.61296163999941,107.10519613750512 107.82607222936349,104.11724128603237 108.5958498257678,103.28236561274389 109.23733115597861,102.71113339520525 109.71844215370947,102.40354631384253 109.87881248630583,102.18384104027064 109.81466435326729,101.612606488663 109.62221995415166,101.30501815053867 109.39770148857497,101.17319446938927 109.0448867569794,101.17319446938927 108.146812894498,101.74442995450227 107.50533156422898,101.92019447500934 106.89592430053744,101.8762533555855 106.79970210097963,101.65654765116051 106.92799836699851,101.3489593633276 107.53740563074825,100.55801643585437 107.82607222936349,99.67918823182117 107.92229442897951,99.32765614578966 107.85814629599918,98.75641552580055 107.72985002986388,98.18517369221081 107.40910936472937,97.74575607120642 106.89592430053744,97.21845397780999 106.76762803451857,95.46077286431682 106.79970210097963,95.32894631760428 106.89592430053744,95.02135079051368 107.3770352982101,94.31827397830784 107.50533156422898,93.9667348828225 107.66570189688355,93.79096516268328 107.98644256201806,93.61519532772945 109.42977555509424,93.30759783988469 110.16747908492107,93.2636553128541 111.06555294728605,93.43942537764087 111.93155274324818,93.79096516268328 112.22021934186341,93.79096516268328 112.47681187384296,93.70308025949635 113.31073760322761,93.0" stroke="#4dd2ff" stroke-linecap="round" stroke-linejoin="round" stroke-width="0.5"><title>2022-08-19 4.3km</title></polyline><polyline fill="none" points="179.77258253077161,93.0 179.67876244761283,93.03212814382277 179.514577302034,93.22489689680515 179.3503921564261,93.77107400396198 179.1862070108764,93.93171404088207 178.9047467613418,94.09235394658754 178.15418609586777,94.06022597597621 177.8727258463332,94.15660987215233 177.82581580471015,94.34937752284168 177.7789057631162,94.92767934103904 177.73199572152225,95.21682961235638 177.66163065913133,95.34534070761583 177.4270804511907,95.47385171891074 177.02834509767126,95.50597945855407 175.879049078736,95.34534070761583 174.87048318443703,95.53810719303146 174.4717478309176,95.50597945855407 172.57189114647917,95.08831843319058 171.53987023144145,94.63852864450018 171.141134877922,94.5421449845453 170.8831296491844,94.60640076304844 170.7189445036347,94.67065652072779 170.43748425404192,94.95980716991471 170.29675412928918,95.18470182549208 170.0152938797546,96.02002257977438 169.78074367178488,96.56619192377548 168.74872275671805,98.62234526092652 168.39689744485077,99.55403266401845 167.69324682094157,101.67440823071229 166.63777088516508,104.30878239046433 166.49704076038324,104.56579261428851 166.37976565645658,104.66217136158957 165.88721021966194,104.79067628455232 165.81684515732923,104.91918112357962 165.44156482460676,106.13997290593397 164.92555436707335,107.0073729884025 164.6910041591036,107.64988910140528 164.432998930366,108.19602614692121 163.9169884728326,109.48104850694654 163.77625834807986,110.05930582963629 163.4947980985453,110.76606247063319 163.1429727865907,111.66556724945258 163.11951776579372,112.05106803798117 163.18988282818464,112.46869303964195 163.2133378489525,112.9505669396458 163.18988282818464,113.43243965884903 163.1429727865907,113.59306363617361 162.29859203798696,115.45629218683462 161.9936767676263,116.42002416600008 161.3134811645141,117.99410957597138 161.1258409981965,118.66871375229675 160.02345502079697,121.30286028291448 159.46053452169872,122.97327638842398 159.1321642305411,123.7442328829784 158.80379393935436,124.64367830711126 158.54578871064587,125.51099678486935 157.34958265008754,128.53052016798756 156.9508472965099,129.71904325351352 156.7632071301923,130.10450865788152 156.17683161029709,131.54999719612533 154.55843517539324,135.85427793030976 154.04242471783073,137.0748777121771 153.9016945931071,137.26760330115212 153.40913915639976,137.5245704593981 153.26840903161792,137.74941644743376 152.96349376125727,138.55243573513872 152.0722029710014,140.60815017315326 151.86110778385773,141.2505565291358 151.3685523471795,142.43900275677152 150.4068964945327,144.9122326968063 150.3130764113157,145.0085916755197 150.055071182549,145.10495060698304 149.11687035075738,144.9122326968063 147.80338918615598,144.78375398511707 145.10606179467868,144.3983173466695 144.07404087969917,144.49467657708738 142.9951099230675,144.78375398511707 142.59637456954806,144.9764720211533 141.98654402882676,145.32978793006623 140.97797813464422,146.06853732552554 140.22741746919928,147.0 140.9076130722824,146.16489573773288 141.56435365453945,145.58674455633445 142.43218942396925,145.13707024029281 143.74567058857065,144.59103576035704 144.42586619162466,144.49467657708738 145.95044254336972,144.46255683887284 147.12319358310197,144.68739489634754 150.00816114101326,145.0085916755197 150.2427113489248,144.9764720211533 150.45380653609755,144.81587367097382 150.922906952037,143.37048261830932 151.65001259668497,141.6038791306346 152.04874795020442,140.19058491670876 152.30675317900022,139.58029563969467 152.65857849089662,138.905763183182 153.22149898999487,137.55669133053743 153.43259417716763,137.33184512220032 153.97205965549801,137.04275676235557 154.08933475942467,136.88215193443466 154.95717052891268,134.762155915334 155.77809625677764,132.32092007281608 156.22374165186193,131.38938788307132 156.92739227574202,129.65479894609598 157.3026726084645,128.46627547229582 158.0766882947355,126.53892484304379 158.49887866905192,125.2861368060403 159.15561925136717,123.7442328829784 160.11727510395576,120.88525403977837 160.63328556148917,119.7930489040591 161.5714863932808,117.19100634905044 161.75912655965658,116.83763989036379 162.20477195482817,115.55266559732263 163.02569768263493,113.52881406096276 163.11951776579372,113.11119131046871 163.0491527034319,112.5650679141254 163.02569768263493,111.92256785911741 163.18988282818464,111.34431601499091 163.4009780153865,110.86243817939248 163.5651631609362,110.34843385340355 163.87007843129686,109.54529940457724 164.03426357684657,109.19191920811136 164.66754913833574,107.29650549901999 165.69957005328615,104.91918112357962 165.88721021966194,104.72642383357743 166.40322067722445,104.53366635464772 166.52049578118022,104.37303497790708 166.77850100997603,103.53774970379891 167.95125204976648,100.67847709970374 168.84254283996415,98.33319999703963 169.21782317271573,97.56214388122316 170.57821437885286,94.47788918495644 170.85967462838744,94.06022597597621 171.0707698155311,94.06022597597621 171.44605014828267,94.28512166027213 171.75096541864332,94.5421449845453 172.1966108137858,94.76704011770198 172.59534616724704,94.92767934103904 173.13481164560653,94.79916797281476 173.55700201989384,95.15257403324358 174.0261024357751,95.40959622376249 174.26065264377394,95.44172397389775 174.75320808048127,95.08831843319058 175.48031372510013,94.8634236674261" stroke="#4dd2ff" stroke-linecap="round" stroke-linejoin="round" stroke-width="0.5"><title>2022-08-18 5.1km</title></polyline><polyline fill="none" points="18.146987951826304,185.1496296308469 18.219277108466486,185.28825735220744 18.190361445827875,185.40708098716277 18.161445783131057,185.46649276100652 17.857831325323787,185.6051201199807 17.42409638557001,185.74374732042634 17.25060240968014,185.8427666522839 17.134939759067493,185.98139358095068 17.062650602456415,186.27845075132063 17.019277108454844,186.37746964639518 16.918072289176052,186.49629221362557 16.657831325312145,186.55570345356682 16.498795180756133,186.51609596353956 16.238554216892226,186.3972734156705 16.021686747000786,186.35766587383114 15.819277108472306,186.25864696263307 15.356626506021712,186.41707718171529 15.13975903618848,186.51609596353956 15.067469879519194,186.5358997101721 14.821686746989144,186.37746964639518 14.344578313292004,186.2190393754936 13.983132530149305,186.23884317070042 13.766265060228761,186.10021653643344 13.375903614476556,185.961589743667 13.0,185.64472790771833 13.01445783136296,185.48629667910427 13.086746987974038,185.40708098716277 13.491566265089205,184.57531309618935 13.70843373495154,184.2584476363918 13.925301204842981,183.8425604633012 14.113253012066707,183.40686760868266 14.98072289157426,181.76310319370532 15.400000000023283,181.05013820304157 15.83373493977706,180.27775473062502 16.22409638555837,179.44595164050406 17.207228915649466,177.50505556403368 17.409638554236153,177.24758742305858 17.713253012072528,176.73264950040175 18.074698795215227,176.37615273388656 18.26265060240985,176.11868219484313 18.407228915661108,175.80179462674278 18.855421686777845,175.04918333194655 19.18795180725283,174.41540177472052 19.477108433726244,173.54394672210765 19.636144578369567,173.2468583402151 20.113253012037603,172.5338432523713 20.416867469932185,171.9990791837772 20.865060240990715,171.04838168026617 21.804819277109345,169.4638692686931 22.02168674702989,169.14696430052572 22.122891566279577,169.12715771247167 22.77349397589569,169.4242561930223 24.08915662651998,170.55322377695848 24.76867469883291,171.02857540299738 25.11566265061265,171.4841189617655 25.303614457836375,171.66237467084284 25.448192771116737,171.78121166460915 25.809638554230332,171.90004854184372 26.098795180703746,172.05849753018992 26.503614457848016,172.3753948854719 27.038554216880584,172.87054534433992 27.42891566263279,173.12802278353047 28.455421686783666,173.88064600795042 29.583132530155126,174.65307024704816 30.33493975905003,175.0689889522473 30.927710843388923,175.42548956353858 31.130120481946506,175.58393394304585 31.838554216868943,175.9602385143735 32.2144578313455,176.2177093900027 32.98072289157426,176.65342808733112 33.40000000002328,176.7920655262351 34.49879518072703,177.386224182359 35.95903614460258,177.96057478136936 36.55180722891237,178.17843119316967 37.07228915661108,178.45570242365648 38.02650602412177,178.7527780382079 38.33012048195815,178.8716080801678 39.081927710882155,179.2875123095073 40.71566265061847,179.9806828537112 40.97590361448238,180.0400972873831 41.84337349398993,180.3569737748403 42.32048192771617,180.63424002179818 42.97108433736139,180.85209162806132 43.665060240979074,181.14916136921966 44.09879518073285,181.38681663791067 44.48915662651416,181.5452532248819 45.24096385543817,181.76310319370532 45.920481927721994,182.159193043095 46.83132530123112,182.55528159817186 47.149397590372246,182.73352102567878 48.219277108466486,183.14941200389148 48.75421686749905,183.30784628695983 49.346987951837946,183.60491000949696 51.6891566265258,184.35746818153712 52.22409638555837,184.59511715990084 52.78795180725865,184.91198173959856 53.49638554218109,185.16943360070582 54.20481927713263,185.52590450567368 55.28915662650252,185.8823743623143 55.766265060257865,186.12002035106707 56.54698795182048,186.4368809445732 56.922891566267936,186.49629221362557 57.356626506050816,186.7141332843894 57.79036144580459,186.81315182357503 58.61445783133968,187.42706496082974 58.94698795184377,187.56569007766666 59.82891566265607,187.80333276622696 61.60722891567275,188.5162580364995 61.99759036148316,188.57566828647396 62.17108433737303,188.63507850727183 62.54698795182048,188.83311236636655 62.98072289157426,189.14996586795314 63.83373493980616,189.46681854130293 64.3108433735324,189.58563808025792 65.38072289156844,190.1599308769146 66.58072289158008,190.65500869017706 67.0,190.8728422875356" stroke="#4dd2ff" stroke-linecap="round" stroke-linejoin="round" stroke-width="0.5"><title>2022-08-17 4.3km</title></polyline><polyline fill="none" points="118.14156368831755,158.48401048970118 118.0157989487634,158.5988570474292 117.28217130104895,158.6275686750887 116.94679866210208,158.71370353008388 116.82103392246063,158.91468469408574 116.69526918287738,159.4602038377925 116.54854365333449,159.51762680696265 115.83587679557968,159.63247268919076 115.54242573646479,159.7473184963601 115.37473941699136,159.94829847828078 115.2908962572692,160.12056685127027 115.18609230758739,160.7235048268485 115.08128835790558,160.8670611828129 114.99744519818341,160.8957724399661 114.20093518061913,160.83834992101765 113.38346437324071,160.6660822516278 112.83848383493023,160.8096386545658 112.39830724630156,161.01061742154707 112.25158171672956,161.01061742154707 111.47603248915402,160.52252573151782 111.26642458984861,160.43639176318538 110.9100911608839,160.4938144133921 110.78432642130065,160.43639176318538 110.59567931192578,160.32154640633962 109.71532613466843,159.86216422847065 109.33803191583138,159.83345280244248 109.17034559638705,159.94829847828078 107.7869334606803,162.70457218204683 107.17907055254909,164.08269282308174 106.23583500552922,166.83890168488142 105.79565841692965,167.87246886390494 105.69085446721874,168.3318301034742 105.54412893767585,168.70506022653717 105.39740340816206,168.99215978189022 105.27163866857882,169.13570938358316 104.93626602960285,169.2218390883936 104.72665813023923,169.33667862914444 104.64281497048796,169.45151809482195 104.37032470136182,169.99700453200785 104.01399127248442,171.08797232715006 103.78342258319026,171.57603467459558 103.46901073420304,172.32248034895747 102.81922624621075,174.18858066505345 102.4419320274028,175.02114210638683 102.29520649785991,175.71015548905416 102.33712807772099,176.91592240902537 102.23232412803918,177.31784287752816 99.69606854597805,183.6623227907985 99.44453906675335,184.4948393564846 99.04628405801486,185.4708882394334 98.64802904924727,186.61917410366004 98.0611269310466,187.96840040831012 97.7047935021692,188.94443000244792 97.4532640229736,189.46114935808873 97.39038165315287,189.5185625260783 97.32749928333214,189.66209536400856 96.78251874507987,191.1835362396232 96.67771479539806,191.6141303229233 96.11177346715704,193.22167224703298 95.16853792010807,195.5181352072541 94.60259659183794,197.26916805424844 94.0785768435162,198.24514600486145 93.93185131397331,198.35996658400109 93.5755178850959,198.44608196908666 93.40783156562247,198.61831261277257 93.19822366622975,199.22111853661772 92.38075285882223,201.17304734388017 91.81481153061031,202.952728248536 91.37463494195254,203.8999704151065 90.97637993321405,205.04813589500554 90.82965440364205,205.24906408293464 90.38947781504248,205.3064720944676 89.40432068810333,205.19165605264425 86.34404535769136,204.70368703841814 85.82002560931141,204.73239113560703 84.83486848234315,204.9046156200784 84.20604478433961,205.07683993587852 82.75975027887034,205.9379589838063 82.29861290028202,206.3972207511979 81.90035789154354,206.91388880531304 81.85843631168245,207.0 82.06804421101697,206.85648131872586 82.4872600097151,206.2824054218072 82.96935817823396,205.823143354457 84.24796636420069,205.04813589500554 84.8558292723028,204.84720747738902 85.58945692001726,204.70368703841814 86.42788851741352,204.70368703841814 87.68553591347882,204.818503398943 89.25759515853133,205.07683993587852 90.3475562351814,205.19165605264425 90.74581124391989,205.19165605264425 90.93445835332386,205.07683993587852 91.31175257213181,204.0147873005917 91.62616442117724,203.3258848629048 91.81481153061031,202.72309301527275 92.50651759846369,200.91470506973565 93.47071393538499,198.6757227898197 93.6803218347195,198.44608196908666 94.09953763347585,198.21644084835134 94.20434158309945,197.9867994276574 94.41394948243396,197.38398927089293 94.97989081070409,195.97742419897986 95.31526344968006,195.259784622016 97.03404822427547,190.49458351239446 97.59998955251649,189.17408323702693 99.42357827682281,184.32259487331612 99.84279407552094,183.37524719869543 100.49257856345503,181.71019951773633 100.99563752187532,180.2748009256029 101.70830437971745,178.49489039064792 102.23232412803918,176.91592240902537 102.25328491799883,176.68625315731333 102.190402548149,175.8536996037583 102.21136333813774,175.59532011282863 102.46289281730424,174.87759731168626 102.81922624621075,174.13116248926963 102.98691256571328,173.55697969942412 103.25940283481032,172.9253764639143 103.65765784360701,171.6621631834132 104.47512865104363,169.4802279495052 104.6637757604476,169.13570938358316 104.89434444974177,168.99215978189022 105.20875629872899,168.934739908349 105.29259945848025,168.8773200159485 105.37644261820242,168.73377020315093 105.64893288741587,168.07343955403485 105.92142315657111,167.52794714631455 106.55024685454555,165.7766179722821 106.99042344320333,164.80045971028449 107.17907055254909,164.14011428192316 107.51444319152506,163.4223446977703 107.76597267077886,162.70457218204683 108.2899924191006,161.55613005904888 108.5415218983544,160.8670611828129 109.48475744537427,158.97210784160416 109.84109087425168,158.42658718269377 110.46991457228432,157.30682894593338 111.47603248915402,155.124715471713 111.89524828785216,154.29205976682715 112.23062092679902,153.71781215435476 112.54503277584445,153.0" stroke="#4dd2ff" stroke-linecap="round" stroke-linejoin="round" stroke-width="0.5"><title>2022-08-16 5.3km</title></polyline><polyline fill="none" points="179.52738574511022,153.0 179.27090664880234,153.57488635217305 179.1543252413685,154.0539570208639 179.03774383393466,154.3094608973479 178.8745298634749,154.37333681432938 177.89524604109465,154.5330265153898 177.66208322622697,154.6927160860796 177.59213438176084,154.94821912772022 177.61545066320105,155.55503751336073 177.56881810023333,155.7786017069011 177.4289204113593,155.9063525598758 177.26570644095773,155.93829026001913 176.96259478162392,155.93829026001913 176.54290171485627,155.8744148544065 176.14652492958703,155.9063525598758 175.4936690479226,155.58697527091135 175.35377135899034,155.61891302335425 174.74754804035183,155.8744148544065 174.3511712550826,156.0660410086275 174.25790612911806,156.03410332926433 173.32525486970553,155.49116198252887 173.11540833633626,155.427286430815 172.7190315509797,155.52309975058597 172.46255245464272,155.427286430815 171.32005466186092,154.7885297658504 170.94699415803188,154.6927160860796 170.78378018763033,154.82046764859115 170.4573522467981,155.55503751336073 170.20087315046112,155.93829026001913 169.5713335503242,157.50323117761582 168.68531485382118,159.19590827063075 166.86664489787654,164.3377242753195 166.54021695704432,164.91257728695928 166.35368670514436,165.04032217110216 165.9339936383767,165.16806697177526 165.74746338647674,165.4874286083068 165.14124006783823,167.43552329328668 164.69823071960127,168.2977885135624 164.60496559363673,168.64908066111093 164.34848649729975,169.19198546568805 164.2552213713643,169.54327600657416 163.99874227499822,170.11811371168005 163.83552830459666,170.6929497266683 163.32257011183538,171.74681136428262 163.20598870445974,172.38551262236433 163.1127235784952,173.79064804542577 162.8562444821,174.589015945734 162.13343975605676,176.24961073529266 161.50390015591984,177.94212552608224 160.75777914834907,180.17749996471684 160.19818839262007,181.48677883872006 159.4054348220816,183.65824642225925 158.3328858736786,186.21288329156232 158.12303934036754,186.81960464298027 157.93650908840937,187.49018920942035 157.70334627354168,188.19270390743623 156.65411360666621,190.71534951731155 156.46758335476625,191.2901249770075 155.81472747313092,192.91864627046743 155.27845299898763,194.35556555977382 154.81212736922316,195.6966807025019 154.13595520608942,197.2613034099777 153.97274123568786,197.4528890035872 153.62299701338634,197.61254352150718 153.45978304298478,197.7083361697296 153.31988535405253,197.96378300210927 152.76029459838173,199.43259581223538 152.57376434648177,199.81576255684195 151.89759218337713,201.5400036159117 150.9416246424371,204.1901963402488 150.52193157566944,205.05229948388296 150.3820338867372,205.18001814487798 150.1022385089018,205.21194779705547 145.46229849307565,204.50949424407736 144.62291235954035,204.5733537622 144.2032192928018,204.63721325954248 143.55036341110826,204.79686191161454 143.13067034439882,204.9565104334324 141.685060892225,205.7547510870354 141.3353166699235,206.01018740799918 140.47261425486067,207.0 141.3353166699235,206.01018740799918 141.89490742559428,205.5631736272917 142.85087496656342,205.05229948388296 143.9234239149373,204.66914300042845 144.43638210764038,204.5414240057289 145.53224733754178,204.47756447711436 146.55816372294794,204.5733537622 149.93902453850023,205.0842291569861 150.4286664497049,205.05229948388296 150.54524785716785,205.02036980557023 150.61519670160487,204.9245807394327 151.92090846487554,201.38035230468086 152.29396896864637,200.10313712255447 152.62039690944948,199.33680400875164 153.34320163555094,197.80412877097842 153.5297318874509,197.61254352150718 153.97274123568786,197.3570962302183 154.15927148758783,197.16551054282172 154.6255971173232,196.0159924759937 155.39503440642147,193.97238811512943 155.72146234719548,192.98250957434357 157.07380667340476,189.50192910926125 157.79661139950622,187.49018920942035 158.47278356261086,185.92548831010936 158.8458440664399,184.87170309705834 159.1489557257737,184.23304262800957 159.75517904444132,182.60444898935384 159.89507673328626,182.09351485605293 160.244820955646,181.13550975752878 161.01425824471517,179.31528713770967 161.22410477808444,178.64467453233374 162.4831839783874,175.57898761425167 163.04277473405818,173.98225663878839 163.13603985999362,173.63097407409805 163.13603985999362,173.31162574034533 163.04277473405818,172.51325262367027 163.0894072970259,172.09809731450514 163.25262126736925,171.6510059957218 163.81221202309825,170.5652085361071 163.99874227499822,170.0223075448157 164.16195624539978,169.25585652005975 164.5117004677013,168.39359552544192 164.67491443813196,167.78681699026492 165.39771916420432,166.12615031613677 165.72414710494922,165.2638755175576 165.887361075409,165.008385957859 166.4935843940766,164.7209598041809 166.63348208300886,164.52934213369736 166.79669605341041,163.98642438059323 167.51950077948277,162.26185210447875 167.96251012774883,161.04825508657086 168.21898922408582,160.50532766563992 169.10500792055973,158.30166559487407 170.7138313431642,154.66077818234044 170.78378018763033,154.5330265153898 170.9703104395012,154.43721271042887 171.48326863220427,154.72465398453642 171.8330128545058,154.98015698450035 172.06617566937348,155.0440326822427" stroke="#4dd2ff" stroke-linecap="round" stroke-linejoin="round" stroke-width="0.5"><title>2022-08-14 5.0km</title></polyline><polyline fill="none" points="55.93779063160764,213.0 55.6190348189848,213.10075947597215 54.68728705900139,213.10075947597215 54.34401156849344,213.23510536705726 54.27045253480901,213.30227827966155 54.098814789555036,213.83966079026868 53.878137688472634,214.14193783527298 53.63294090950512,214.30986933482927 53.093507995828986,214.37704189623764 52.62763411583728,214.5113869531633 52.43147669263999,214.67931815101474 52.35791765898466,214.8472492115834 52.235319269500906,215.5525581680413 52.16176023581647,215.65331639292708 51.94108313479228,215.72048851534782 51.475209254800575,215.68690245682956 50.8622173074109,215.75407456830726 50.37182374953409,215.51897208216542 50.15114664848079,215.48538599080348 48.97420210952987,215.92200475101708 48.704485652648145,215.85483269432734 47.74821821477963,215.2502831973543 47.11070658947574,215.2502831973543 45.71308494952973,214.34345561823284 45.46788817059132,214.27628304585232 45.320770103193354,214.34345561823284 45.24721106950892,214.4778006972192 45.026533968455624,215.0823524659645 44.290943631582195,216.5265522726113 43.01592038109084,219.2134086375445 42.57456617898424,220.55682365142275 41.83897584216902,222.47117487803916 41.42214131797664,223.51230578072136 40.85818872638629,225.05719998426503 40.71107065898832,225.22512256764458 40.31875581265194,225.32587605192384 40.2206771010824,225.3930450140033 40.02451967791421,225.6617206427909 39.77932289900491,226.3669924978749 39.190850629500346,227.87828118301695 38.94565385050373,228.34845761924225 38.774016105307965,228.8858008012321 38.57785868213978,229.3895587587176 38.43074061474181,229.96048295173387 37.81774866738124,231.33741124736844 37.25379607581999,232.7479135980684 37.204756719991565,233.05016284289013 37.155717364221346,234.46065344325325 36.34656799372169,236.84503221462364 35.954253147385316,237.78534300056344 35.19414313262678,239.86744443682255 34.605670863209525,241.07639688528434 34.041718271619175,242.28534222512098 33.72296245893813,243.35995433747303 33.52680503579904,243.79651390368235 33.23256890106131,244.9046994090022 32.86477373263915,245.77781105494068 32.5214982421021,246.78524296225805 31.88398661685642,248.46428517217282 31.58975048211869,249.06873701117001 30.952238856843906,250.71418023730803 30.388286265253555,251.95664904984005 29.87337302949163,253.60206916557217 29.505577861040365,254.47514388000127 29.186822048417525,255.48253317479976 28.62286945685628,256.85929056275927 27.86275944209774,259.00835684058256 27.740161052613985,259.2434096020588 27.642082341073547,259.34414641761396 27.029090393683873,259.64635656807513 26.857452648400795,259.88140860022395 26.61225586949149,260.55298435443547 26.146381989499787,261.5939224388858 25.827626176847843,262.5676984570746 25.361752296827035,263.7093610196025 24.96943745049066,264.783861170552 24.06220936839236,267.0 24.209327435761224,266.39560086961137 24.920398094749544,264.6495489587396 25.63146875365055,262.43338479765225 26.73485425885883,259.7806720479275 27.053610071598087,259.4448831837508 27.494964273675578,259.20983065260225 27.71564137469977,259.0419358230138 27.985357831581496,258.2360387325316 28.524790745257633,257.09434578088985 29.039703981077764,255.71758996674907 29.505577861040365,254.17292612910387 30.241168197855586,252.19170987252437 30.731561755790608,251.04998335940763 31.44263241472072,249.0015757834626 32.423419530532556,246.78524296225805 33.330647612630855,244.06516548378568 34.28691505055758,241.8151976599038 34.31143472844269,241.58012497423624 34.5566315073811,240.841323354849 35.31674152211053,239.02788994298317 35.66001701261848,238.42340858462558 35.70905636844691,238.0875848397991 35.9052137916151,237.58384819419007 36.101371214783285,236.84503221462364 36.49368606111966,236.03904811808025 37.03311897473759,234.66215131047647 37.13119768636534,234.158406272094 37.08215833056602,233.0165796153742 37.18023704213556,232.44566390904947 37.2783157537051,232.24416386945813 37.572551888471935,231.80757977280882 37.86678802315146,231.2030771854479 38.43074061474181,229.3895587587176 38.79853578322218,228.34845761924225 39.0927719179017,227.87828118301695 39.33796869684011,227.17301451250387 39.80384257689002,225.59455176856136 39.95096064422978,225.35946053566295 40.07355903368443,225.22512256764458 40.539432913734345,225.0236154510785 40.6620313032181,224.9228618186171 40.76011001475854,224.7549389883061 41.27502325057867,223.54589056079567 41.93705455373856,221.66513442905853 42.795243280008435,219.6836048909754 43.163038448488805,218.64245459831727 43.89862878527492,216.8959971051081 45.173652035795385,214.44421443564352 45.320770103193354,214.30986933482927 45.516927526303334,214.34345561823284 45.884722694783704,214.44421443564352 46.30155721900519,214.7464905916422 47.037147555849515,215.04876630326908 47.184265623189276,215.0823524659645 47.77273789269384,214.94800778206263 48.949682431615656,215.48538599080348 50.10210729265236,215.14952477495535 50.83769762949669,215.41821379144676 51.352610865287716,215.41821379144676 51.96560281270649,215.61973032340757 52.30887830321444,215.61973032340757" stroke="#4dd2ff" stroke-linecap="round" stroke-linejoin="round" stroke-width="0.5"><title>2022-07-26 4.5km</title></polyline><polyline fill="none" points="114.94047677452909,214.17691077121708 114.20061290866579,214.11152702115942 113.74714795866748,214.2096026383224 113.67554822965758,214.30767820749315 113.69941480603302,214.6019046263682 113.67554822965758,214.7653635610186 113.60394850073499,214.9288223622716 113.50848219549516,215.05958930708584 113.36528273756267,215.1249727474351 112.74475175334373,215.15766445954796 112.43448626121972,215.32112294020772 112.21968707433552,215.5826562316215 112.10035419280757,215.77880597588955 111.9810213111632,216.49802005950187 111.88555500592338,216.62878597881354 111.79008870065445,216.66147744533373 111.33662375059794,216.66147744533373 110.54902673218749,216.53071154738427 110.28649439266883,216.43263706789003 110.00009547683294,216.23648796457564 109.78529629003606,216.20379642868647 109.45116422162391,216.39994556397141 109.04543242423097,216.53071154738427 108.75903350839508,216.6941689064406 108.59196747417445,216.6941689064406 108.18623567678151,216.43263706789003 107.49410496355267,216.07303023157874 107.35090550567838,216.04033866900136 106.94517370825633,216.1711048874131 106.70650794511312,216.10572178887378 105.7995780450583,215.4191979645111 105.44157940029982,215.2230478678539 105.15518048449303,215.2230478678539 105.03584760290687,215.32112294020772 104.63011580548482,216.46532856635167 104.05731797390035,217.41337970008317 102.95945546333678,219.83252430779976 101.74226007112884,223.29773455220857 101.00239620532375,225.16107751590607 100.64439756056527,225.7821879813855 100.54893125526723,225.8475679182302 100.21479918682599,225.91294783366902 100.04773315263446,226.0763975289883 99.83293396577938,227.0570928971283 99.4749353210209,227.87433536583558 99.30786928682937,228.36467924505996 98.90213748943643,229.1492269526061 98.63960514991777,229.96646087728732 97.70880867357482,232.15663133803173 97.4701429104025,232.77772009115142 97.3985431814508,233.2680519557034 97.27921029986464,234.90248282745597 97.20761057088384,235.16399052811903 96.2052143655892,237.4848563975538 95.34601761813974,239.93644604117435 94.51068744709482,241.86500878880906 94.08108907335554,243.17249838568387 93.55602439437644,244.44729251823446 92.88776025749394,246.24506531492807 92.60136134168715,247.16028889888548 92.31496242585126,247.78133109021292 92.12402981534251,248.3369987856713 91.57509856004617,249.54638784863346 91.2170999153459,250.55965413978265 90.88296784690465,251.37680063789594 90.50110262582893,252.3900576619344 90.33403659160831,253.07645466690883 90.21470370996394,253.43599501576682 89.92830479421536,254.0897030861961 89.54643957313965,255.13563155777229 88.97364174152608,256.57377428148175 88.04284526512492,258.7963381650479 87.82804607824073,259.0904991825373 87.32684797560796,259.38465976776206 87.18364851770457,259.58076658428763 86.70631699138903,260.75740344874794 86.30058519399608,262.0320855794853 84.39125908858841,266.803900452549 84.36739251230028,267.0 84.43899224125198,266.93463350553066 84.6060582754726,266.2809673867596 85.32205556498957,264.15653775758983 85.82325366762234,262.8491852396255 85.96645312552573,262.3262418414233 86.30058519399608,261.6725606722175 86.49151780456305,261.05156158407044 86.82564987297519,260.1690858811926 87.04044905977207,259.5480821282399 87.32684797560796,259.2212372737704 87.85191265458707,258.92707644843904 87.97124553617323,258.8290227439429 88.13831157039385,258.4694920830225 89.06910804679501,256.18155456351815 89.52257299679331,254.84146472768043 90.35790316789644,252.6842280951969 90.9307009994809,251.0499424389709 91.36029937322019,250.00399261532584 91.670564865286,249.38295732124243 92.14789639168885,247.87939020743943 93.12642602072447,245.42789786384674 93.62762412335724,243.92430103597871 94.03335592072108,242.87831397114496 94.82095293921884,241.08051093050744 95.58468338137027,238.8577502979897 95.96654860241688,238.04055268225784 96.84961192612536,235.78506994777126 97.20761057088384,234.67366330903315 97.23147714723018,234.28140066866763 97.15987741827848,233.85644860731554 97.15987741827848,233.36611818452366 97.18374399459572,232.84309774251597 97.80427497881465,231.53554065727803 98.04294074198697,230.81638061857666 98.94987064201268,228.6588849957625 99.37946901578107,227.41667999447964 99.64200135524152,226.8282644078281 99.88066711835563,226.1744672821369 100.07159972892259,225.97832772789116 100.57279783164267,225.74949800498143 100.69213071317063,225.58604804261995 101.1933288158325,224.18037285574246 101.50359430795652,223.42849602803471 101.86159295277321,222.6766163752618 102.57759024229017,220.97670413747255 102.9833220395667,219.7998333593423 103.65158617650741,218.26335275976453 103.9379850923142,217.7076015524217 104.534649500245,216.26917949509516 104.94038129760884,215.48458128735365 105.08358075554133,215.28843125479762 105.27451336607919,215.19035616633482 106.27690957140294,215.77880597588955 106.9213071319682,215.97495552773762 107.30317235304392,215.87688077584608 107.44637181097642,215.87688077584608 107.54183811621624,215.90957236511167 107.89983676094562,216.1711048874131 108.44876801624196,216.39994556397141 108.63970062675071,216.39994556397141 109.02156584785553,216.1711048874131 109.80916286632419,216.00764710109797 110.47742700320669,216.3672540547268 110.90702537694597,216.26917949509516 111.33662375059794,216.3345625402144 111.90942158224061,216.23648796457564 112.1242207690957,216.10572178887378 112.17195392170106,215.97495552773762 112.21968707433552,215.77880597588955 112.21968707433552,215.28843125479762 112.31515337963356,215.09228102986526 112.62541887172847,214.9288223622716 113.19821670337114,214.8961306127312 113.60394850073499,214.79805533199396 113.79488111130195,214.6999800032645 114.15287975606043,214.2749863564095 114.67794443501043,213.84999180691375 115.39394172449829,213.71922407159582 115.4655414535082,213.55576428232598 115.41780830084463,213.26153632513888 115.44167487716186,213.19615227587929 115.63260748772882,213.0" stroke="#4dd2ff" stroke-linecap="round" stroke-linejoin="round" stroke-width="0.5"><title>2022-07-25 4.6km</title></polyline></svg>