<?xml version="1.0" encoding="utf-8" ?>
<svg baseProfile="full" height="300mm" version="1.1" viewBox="0,0,200,300" width="200mm" xmlns="http://www.w3.org/2000/svg" xmlns:ev="http://www.w3.org/2001/xml-events" xmlns:xlink="http://www.w3.org/1999/xlink"><defs /><rect fill="#222222" height="300" width="200" x="0" y="0" /><text fill="#FFFFFF" style="font-size:12px; font-family:Arial; font-weight:bold;" x="10" y="20">Over 4km Runs</text><text fill="#FFFFFF" style="font-size:4px; font-family:Arial" x="10" y="280">ATHLETE</text><text fill="#FFFFFF" style="font-size:9px; font-family:Arial" x="10" y="290">ChiZhang9797</text><text fill="#FFFFFF" style="font-size:4px; font-family:Arial" x="120" y="280">STATISTICS</text><text fill="#FFFFFF" style="font-size:3px; font-family:Arial" x="120" y="285">Number: 6</text><text fill="#FFFFFF" style="font-size:3px; font-family:Arial" x="120" y="290">Weekly: 2.0</text><text fill="#FFFFFF" style="font-size:3px; font-family:Arial" x="141" y="285">Total: 28.8 km</text><text fill="#FFFFFF" style="font-size:3px; font-family:Arial" x="141" y="290">Avg: 4.8 km</text><text fill="#FFFFFF" style="font-size:3px; font-family:Arial" x="167" y="285">Min: 4.3 km</text><text fill="#FFFFFF" style="font-size:3px; font-family:Arial" x="167" y="290">Max: 5.3 km</text><polyline fill="none" points="76.36344337434275,34.0 76.23834993015043,34.04283752507763 76.01943640271202,34.29986252906383 75.80052287521539,35.02809867192991 75.58160934783518,35.24228538785246 75.20632901508361,35.45647192877368 74.20558146113763,35.413634634634946 73.83030112844426,35.54214649621281 73.76775440626079,35.79917003045557 73.70520768413553,36.570239121385384 73.64266096206848,36.95577281646547 73.54884087882238,37.12712094350718 73.23610726825427,37.29846895855735 72.70446013018955,37.34130594471935 71.17206543829525,37.12712094350718 69.82731091260212,37.38414292404195 69.2956637745956,37.34130594471935 66.7625215286389,36.78442457760684 65.38649364194134,36.18470485933358 64.85484650387662,36.05619331271737 64.51083953224588,36.14186768408399 64.29192600486567,36.227542027656455 63.91664567205589,36.61307622655295 63.729005505738314,36.91293576732278 63.35372517298674,38.026696773042204 63.04099156241864,38.75492256504367 61.66496367560467,41.49646034790203 61.195863259839825,42.73871021869127 60.25766242790269,45.565877640940016 58.85036118020071,49.07837652062881 58.66272101382492,49.42105681906105 58.506354208569974,49.54956181545276 57.849613626196515,49.72090171274613 57.75579354306683,49.89224149810616 57.25541976612294,51.51996387456893 56.56740582274506,52.676497317879694 56.25467221211875,53.53318546855007 55.910665240488015,54.26136819590465 55.22265129711013,55.97473134260508 55.035011130792554,56.74574110619142 54.65973079804098,57.68808329416788 54.190630382159725,58.887422999279806 54.159357021038886,59.40142405065126 54.25317710422678,59.958257386198966 54.28445046528941,60.60075591952773 54.25317710422678,61.24325287845568 54.190630382159725,61.45741818158422 53.064789383963216,63.94172291576979 52.65823569014901,65.2266988880001 51.751308219332714,67.3254794346285 51.50112133088987,68.2249516697193 50.03127336106263,71.73714704389567 49.280712695617694,73.96436851788894 48.84288564074086,74.99231051062816 48.40505858580582,76.19157107616775 48.061051614175085,77.34799571314943 46.46611020009732,81.37402689064038 45.93446306203259,82.95872433800832 45.68427617358975,83.4726782105281 44.902442147023976,85.39999626149074 42.74458023387706,91.13903724041302 42.05656629044097,92.76650361623615 41.86892612412339,93.02347106821253 41.21218554186635,93.36609394586412 41.02454537549056,93.66588859658805 40.61799168167636,94.73658098018495 39.42960396135459,97.47753356420435 39.14814371179091,98.33407537220046 38.49140312959207,99.91867034236202 37.2091953260242,103.21631026241812 37.08410188177368,103.34478890069295 36.740094910084736,103.47326747598709 35.48916046769591,103.21631026241812 33.73785224824678,103.04500531347003 30.141415726277046,102.53108979557874 28.76538783957949,102.65956876944983 27.32681323075667,103.04500531347003 26.79516609275015,103.30196269488079 25.982058705121744,103.77305057342164 24.637304179545026,104.75804976734798 23.63655662559904,106.0 24.54348409641534,104.8865276503202 25.419138206052594,104.11565940844594 26.576252565311734,103.51609365371405 28.327560784760863,102.78804768048576 29.234488255518954,102.65956876944983 31.267256724473555,102.61674245184986 32.83092477748869,102.91652652845369 36.67754818801768,103.34478890069295 36.990281798585784,103.30196269488079 37.27174204814946,103.08783156127902 37.897209269343875,101.1606434910791 38.86668346222723,98.80517217417946 39.39833060023375,96.92077988895471 39.742337572039105,96.10706085292622 40.211437987862155,95.20768424426205 40.96199865330709,93.40892177404021 41.24345890292898,93.10912682960043 41.962746207311284,92.72367568314075 42.11911301256623,92.50953591256985 43.27622737188358,89.68287455377867 44.370795009017456,86.42789343043114 44.96498886914924,85.18585051078117 45.90318970096996,82.8730652614613 46.40356347791385,81.28836729639443 47.43558439298067,78.71856645739172 47.99850489204982,77.04818240806344 48.87415900180349,74.99231051062816 50.15636680525495,71.1803387197142 50.84438074869104,69.72406520540244 52.09531519107986,66.25467513207695 52.34550207958091,65.78351985383779 52.9396959397709,64.07022079642047 54.03426357684657,61.37175208129338 54.159357021038886,60.814921747281915 54.0655369379092,60.08675721884356 54.03426357684657,59.23009047884261 54.25317710422678,58.45908801999758 54.534637353848666,57.81658423918998 54.753550881228875,57.1312451378617 55.16010457504308,56.06039920609328 55.379018102481496,55.58922561080544 56.223398851114325,53.06200733201695 57.59942673769547,49.89224149810616 57.849613626196515,49.63523177811294 58.537627569632605,49.37822180619696 58.69399437494576,49.16404663719004 59.0380013466347,48.05033293837914 60.601669399649836,44.23796946625225 61.79005711997161,41.11093332938617 62.2904308969737,40.08285850827815 64.10428583843168,35.97051891326555 64.47956617118325,35.413634634634946 64.76102642068872,35.413634634634946 65.26140019769082,35.7134955470101 65.66795389150502,36.05619331271737 66.26214775169501,36.35605349027901 66.79379488970153,36.570239121385384 67.51308219414204,36.39889063042938 68.0760026932112,36.87009871099144 68.7014699143474,37.212794965016656 69.01420352503192,37.2556319652067 69.67094410728896,36.78442457760684 70.64041830017231,36.48456488989177" stroke="#4dd2ff" stroke-linecap="round" stroke-linejoin="round" stroke-width="0.5"><title>2022-08-18 5.1km</title></polyline><polyline fill="none" points="120.86265060244477,76.86617284112435 120.95903614460258,77.05100980293355 120.9204819277511,77.20944131619763 120.88192771084141,77.28865701466566 120.47710843375535,77.47349349330761 119.89879518075031,77.6583297605539 119.66746987955412,77.79035553637368 119.51325301206089,77.97519144126272 119.41686746993219,78.37126766842266 119.35903614459676,78.50329286186025 119.22409638555837,78.6617229514959 118.87710843374953,78.74093793808424 118.66506024097907,78.68812795137637 118.31807228917023,78.52969788755581 118.02891566266771,78.47688783177 117.75903614462004,78.34486261683924 117.14216867470532,78.55610290894401 116.8530120482319,78.68812795137637 116.75662650601589,78.71453294689127 116.4289156626619,78.50329286186025 115.79277108435053,78.29205250064842 115.3108433735033,78.31845756091934 115.02168674697168,78.13362204856821 114.50120481930207,77.94878632487962 114.0,77.52630387694808 114.01927710845484,77.31506223879114 114.11566265061265,77.20944131619763 114.6554216867662,76.1004174615664 114.94457831323962,75.67793018184602 115.23373493980034,75.12341395104886 115.48433734939317,74.54249014490051 116.64096385543235,72.35080425825436 117.20000000001164,71.40018427070754 117.77831325301668,70.37033964082366 118.29879518071539,69.26126885399572 119.60963855418959,66.67340741871158 119.87951807229547,66.33011656407325 120.28433734941063,65.64353266719263 120.76626506025787,65.16820364516752 121.0168674698798,64.82490959310962 121.20963855422451,64.40239283564733 121.80722891568439,63.39891110925237 122.25060240968014,62.553869032955845 122.63614457831136,61.391928962795646 122.84819277114002,60.995811120272265 123.48433734939317,60.04512433648051 123.88915662653744,59.332105578359915 124.48674698796822,58.064508907016716 125.73975903613609,55.95182569157623 126.02891566266771,55.5292857340246 126.1638554217061,55.50287694994768 127.03132530118455,55.89900825735822 128.7855421686836,57.404298369263415 129.69156626510085,58.03810053732013 130.15421686746413,58.6454919490061 130.40481927711517,58.88316622778075 130.59759036145988,59.04161555280734 131.0795180723071,59.20006472244859 131.46506024093833,59.41133004023868 132.0048192771501,59.83385984727647 132.7180722891353,60.49406045911019 133.23855421686312,60.83736371136911 134.60722891570185,61.84086134392419 136.11084337352077,62.87076032938785 137.1132530120667,63.42531860298186 137.9036144578422,63.90065275137022 138.17349397594808,64.11191192406113 139.1180722891295,64.61365135248343 139.61927710843156,64.9569458533224 140.64096385543235,65.53790411642694 141.20000000001164,65.72275403497042 142.66506024094997,66.51496557646897 144.61204819279374,67.2807663751446 145.40240963854012,67.57124159087834 146.0963855421578,67.9409365648753 147.36867469880963,68.33703738427721 147.7734939759248,68.49547744021402 148.77590361447074,69.05001641267154 150.9542168674816,69.9742438049434 151.30120481929043,70.05346304982959 152.4578313253296,70.4759650331107 153.09397590361186,70.84565336238302 153.96144578311942,71.13612217073387 154.8867469879624,71.53221515894984 155.46506024096743,71.84908885053301 155.98554216869525,72.060337633171 156.9879518072412,72.35080425825436 157.89397590362933,72.87892405745515 159.10843373497482,73.40704213088611 159.53253012051573,73.64469470089534 160.95903614460258,74.19921600518865 161.672289156646,74.41046171593189 162.4626506024506,74.80654667931958 165.58554216867196,75.80995757537312 166.2987951807154,76.12682287985808 167.0506024096685,76.54930898612656 167.99518072290812,76.89257813426957 168.93975903614773,77.36787267422187 170.38554216866032,77.84316581641906 171.02168674697168,78.16002713474154 172.0626506024273,78.58250792608305 172.56385542170028,78.6617229514959 173.14216867470532,78.95217771251919 173.72048192771035,79.08420243141882 174.8192771084432,79.90275328110147 175.26265060243895,80.08758677021251 176.43855421687476,80.40444368828321 178.80963855420123,81.35501071532781 179.33012048195815,81.43422438195557 179.56144578315434,81.51343800968607 180.0626506023982,81.77748315515055 180.64096385543235,82.19995449059934 181.77831325304578,82.62242472173239 182.41445783135714,82.78085077366268 183.84096385541488,83.54657450254308 185.4409638554498,84.20667825355486 186.0,84.49712305003777" stroke="#4dd2ff" stroke-linecap="round" stroke-linejoin="round" stroke-width="0.5"><title>2022-08-17 4.3km</title></polyline><polyline fill="none" points="74.1887515844428,121.31201398627309 74.02106526505668,121.46514272989589 73.04289506806526,121.50342490011826 72.59573154948885,121.61827137344517 72.42804522998631,121.88624625877128 72.26035891054198,122.61360511704697 72.06472487113206,122.69016907595505 71.11450239410624,122.84329691893072 70.72323431528639,122.99642466181831 70.49965255596908,123.26439797104103 70.38786167633953,123.49408913502702 70.24812307680259,124.29800643579802 70.10838447726564,124.4894149104075 69.99659359763609,124.52769658662146 68.9345802408643,124.45113322802354 67.84461916430155,124.22144300217042 67.11797844659304,124.41285153941135 66.53107632842148,124.68082322871487 66.33544228901155,124.68082322871487 65.30137665220536,124.03003430868557 65.02189945313148,123.91518901757081 64.54678821453126,123.99175255118462 64.37910189508693,123.91518901757081 64.12757241592044,123.7620618751098 62.95376817957731,123.14955230461783 62.45070922112791,123.11127040325664 62.227127461868804,123.26439797104103 60.382577947573736,126.93942957605759 59.57209407008486,128.7769237641187 58.31444667407777,132.45186891316553 57.727544555906206,133.8299584852066 57.58780595631106,134.4424401379656 57.392171916901134,134.9400803020544 57.19653787754942,135.32287970918696 57.02885155810509,135.51427917811088 56.581688039470464,135.6291187845345 56.302210840338375,135.78223817220714 56.190419960650615,135.9353574597626 55.82709960185457,136.66267270933895 55.35198836331256,138.11729643619037 55.04456344427308,138.76804623279895 54.62534764560405,139.76330713192874 53.7589683283004,142.25144088674278 53.255909369851,143.36152280851093 53.06027533049928,144.28020731873403 53.116170770314056,145.88789654537686 52.97643217071891,146.4237905033806 49.594758061284665,154.88309705439315 49.2593854223378,155.99311914198915 48.72837874403922,157.29451765258273 48.19737206568243,158.82556547156128 47.41483590810094,160.62453387775167 46.93972466955893,161.92590666993055 46.60435203061206,162.61486581079953 46.5205088708899,162.6914167014329 46.436665711167734,162.8827938186878 45.71002499345923,164.91138165284065 45.57028639386408,165.48550709722622 44.81569795624819,167.6288963293773 43.55805056018289,170.6908469429909 42.80346212245058,173.02555740566459 42.10476912470767,174.32686133982497 41.90913508529775,174.47995544533478 41.43402384681394,174.59477595877252 41.21044208749663,174.82441681703494 40.930964888306335,175.62815804882848 39.841003811801784,178.23072979184508 39.08641537412768,180.60363766470982 38.49951325595612,181.86662722013716 37.968506577657536,183.39751452667406 37.772872538189404,183.66541877723648 37.185970420076046,183.74196279262833 35.87242758413777,183.58887473687355 31.792060476902407,182.93824938456237 31.09336747910129,182.97652151413786 29.77982464316301,183.2061541600997 28.941393045824952,183.43578658116166 27.013000371865928,184.5839453117369 26.398150533728767,185.19629433492082 25.867143855371978,185.88518507375557 25.811248415557202,186.0 26.09072561468929,185.8086417582963 26.649680012953468,185.04320722908597 27.292477570998017,184.43085780594265 28.99728848563973,183.39751452667406 29.8077723630704,183.12960996985203 30.785942560003605,182.93824938456237 31.90385135653196,182.93824938456237 33.58071455132449,183.09133786524762 35.67679354472784,183.43578658116166 37.13007498026127,183.58887473687355 37.66108165855985,183.58887473687355 37.91261113778455,183.43578658116166 38.41567009623395,182.0197164007841 38.83488589490298,181.10117981721123 39.08641537412768,180.29745735369215 40.00869013130432,177.88627342630934 41.29428524716059,174.9009637197596 41.573762446292676,174.59477595877252 42.13271684461506,174.28858779779694 42.272455444152,173.98239923687652 42.55193264328409,173.17865236119542 43.30652108095819,171.30323226530163 43.753684599592816,170.3463794960262 46.04539763240609,163.9927780165308 46.79998607002199,162.23211098270258 49.23143770243041,155.76345983109786 49.79039210069459,154.50032959826058 50.656771417940035,152.28026602364844 51.327516695833765,150.3664012341469 52.277739172976,147.99318718753057 52.97643217071891,145.88789654537686 53.004379890684504,145.58167087641777 52.920536730845924,144.47159947168257 52.94848445086973,144.1270934837812 53.283857089758385,143.1701297489053 53.7589683283004,142.17488331903587 53.98255008761771,141.40930626589397 54.34587044647196,140.5671686185524 54.87687712482875,138.8828842445364 55.96683820139151,135.97363726599724 56.21836768061621,135.51427917811088 56.52579259965569,135.32287970918696 56.94500839832472,135.24631987778412 57.05679927795427,135.16976002126466 57.16859015758382,134.9783602708776 57.53191051655449,134.0979194053798 57.89523087540874,133.37059619507636 58.7336624727468,131.03549062969978 59.32056459097657,129.73394628036476 59.57209407008486,128.85348570924543 60.01925758871948,127.89645959703194 60.354630227724556,126.93942957605759 61.053323225467466,125.40817341205548 61.38869586447254,124.4894149104075 62.646343260479625,121.96281045547221 63.12145449902164,121.23544957693957 63.959886096417904,119.74243859457783 65.30137665220536,116.83295396227913 65.86033105046954,115.72274635576468 66.30749456904596,114.95708287248272 66.7267103678314,114.0" stroke="#4dd2ff" stroke-linecap="round" stroke-linejoin="round" stroke-width="0.5"><title>2022-08-16 5.3km</title></polyline><polyline fill="none" points="176.03651432687184,114.0 175.69454219844192,114.76651513621619 175.53910032188287,115.40527602779912 175.3836584452656,115.74594786312082 175.16603981802473,115.83111575241492 173.86032805481227,116.04403535384336 173.54944430169417,116.25695478143462 173.45617917570053,116.59762550362211 173.48726755101234,117.40671668447612 173.42509080038872,117.70480227585358 173.23856054851785,117.87513674650108 173.02094192133518,117.91772034668247 172.61679304222343,117.91772034668247 172.05720228649443,117.83255313918926 171.52869990613544,117.87513674650108 170.65822539728833,117.44930036120059 170.47169514535926,117.4918840311293 169.66339738719398,117.83255313918926 169.134895006835,118.08805467815546 169.01054150552955,118.04547110568092 167.76700649299892,117.32154931001423 167.48721111513441,117.23638190772908 166.958708734659,117.36413300075219 166.6167366062291,117.23638190772908 165.09340621583397,116.38470635445265 164.5959922107868,116.25695478143462 164.37837358360412,116.42729019811668 163.94313632912235,117.40671668447612 163.60116420069244,117.91772034668247 162.76177806715714,120.00430823680654 161.58041980513372,122.26121102750767 159.15552653057966,129.11696570042113 158.7202892760979,129.88343638258812 158.4715822735452,130.05376289479318 157.9119915178744,130.22408929569065 157.66328451532172,130.64990481107088 156.85498675715644,133.24736439103435 156.26430762617383,134.3970513513923 156.13995412486838,134.8654408814764 155.79798199643847,135.58931395424588 155.67362849519122,136.05770134208433 155.3316563667031,136.824151615554 155.11403773952043,137.59059963554319 154.43009348254418,138.99574848570046 154.27465160598513,139.8473501631379 154.15029810467968,141.72086406055314 153.80832597619155,142.78535459429258 152.84458634146722,144.99948098039022 152.00520020793192,147.2561673681048 151.01037219783757,150.23666661960306 150.2642511902377,151.98237178493582 149.20724642951973,154.87766189633112 147.7771811649436,158.28384438873036 147.49738578719553,159.0928061906161 147.24867878458463,159.9869189458841 146.93779503146652,160.92360520991497 145.53881814231863,164.28713268974388 145.29011113976594,165.0534999693191 144.41963663091883,167.22486169393233 143.70460399868898,169.14075407969358 143.08283649239456,170.92890760331647 142.18127360817743,173.01507121328905 141.96365498099476,173.27051867143018 141.4973293512594,173.48339136199502 141.2797107240185,173.6111148929631 141.09318047214765,173.95171066945477 140.34705946454778,175.91012774963747 140.0983524620533,176.42101674244623 139.19678957789438,178.7200048211962 137.92216618999373,182.25359512033174 137.36257543426473,183.40306597850577 137.17604518233566,183.57335752648942 136.80298467859393,183.6159303960594 130.61639799084514,182.67932565875526 129.49721647944534,182.76447168290906 128.93762572377454,182.84961767938512 128.06715121486923,183.06248254880484 127.50756045925664,183.275347244562 125.58008118969155,184.3396681160375 125.11375555995619,184.6802498773177 123.96348567318637,186.0 125.11375555995619,184.6802498773177 125.85987656749785,184.08423150303133 127.1344999554567,183.40306597850577 128.5645652199746,182.89219066721853 129.24850947689265,182.72189867429552 130.70966311678058,182.63675263614277 132.07755163067486,182.76447168290906 136.58536605141126,183.44563887597178 137.23822193295928,183.40306597850577 137.39366380963475,183.36049307406938 137.48692893551197,183.23277431924362 139.2278779532062,178.50713640623144 139.72529195825337,176.80418283006293 140.1605292126187,175.78240534498764 141.12426884745946,173.7388383612997 141.37297585001215,173.48339136199502 141.96365498099476,173.14279497360985 142.21236198348925,172.88734739040956 142.83412948984187,171.35465663464856 143.86004587524803,168.62985082014347 144.2952831296716,167.31001276578172 146.09840889793122,162.6692388123338 147.06214853271376,159.9869189458841 147.96371141687268,157.9006510801264 148.46112542197807,156.49560412940627 148.8652743010898,155.6440568373364 149.6735720593133,153.47259865245724 149.86010231112596,152.79135314137966 150.32642794091953,151.51401301001897 151.3523443263257,149.08704951692198 151.632139704132,148.19289937643043 153.3109119712608,144.10531681899738 154.05703297880245,141.97634218505118 154.1813864800497,141.50796543210163 154.1813864800497,141.08216765377438 154.05703297880245,140.01767016488884 154.11920972942607,139.46412975265412 154.33682835655054,138.86800799427147 155.0829493641504,137.42027804812824 155.3316563667031,136.69641005973972 155.54927499388577,135.67447536006512 156.01560062362114,134.52479403390316 156.23321925092023,133.71575598699565 157.19695888564456,131.50153375483933 157.6321961400099,130.3518340233859 157.8498147672508,130.01118127713562 158.65811252547428,129.62794640555512 158.84464277740335,129.3724561782583 159.06226140458602,128.64856584079098 160.02600103936857,126.3491361392953 160.61668017040938,124.73100678207993 160.9586522988393,124.00710355417687 162.1400105608045,121.06888745981269 164.28510845761048,116.21437090978725 164.37837358360412,116.04403535384336 164.6270805860404,115.91628361388575 165.31102484301664,116.29953864603885 165.777350472752,116.64020931265259 166.0882342258701,116.72537690964236" stroke="#4dd2ff" stroke-linecap="round" stroke-linejoin="round" stroke-width="0.5"><title>2022-08-14 5.0km</title></polyline><polyline fill="none" points="71.25038750882959,194.0 70.8253797586076,194.13434596799198 69.58304941200186,194.13434596799198 69.12534875795245,194.31347382278182 69.02727004641201,194.4030377062445 68.79841971938731,195.11954772035824 68.50418358459137,195.52258378040278 68.17725454602623,195.74649244645843 67.45801066106651,195.8360558616696 66.83684548776364,196.01518260422745 66.57530225685332,196.23909086803906 66.47722354531288,196.46299894878757 66.31375902600121,197.40341089075082 66.21568031440256,197.53775519056944 65.92144417966483,197.62731802047347 65.30027900636196,197.58253660911578 64.4829564098618,197.67209942443878 63.82909833267331,197.35862944289693 63.53486219799379,197.31384798776708 61.96560281270649,197.89600633471855 61.60598087019753,197.80644359244616 60.33095761970617,197.0003775965015 59.48094211932039,197.0003775965015 57.61744659935357,195.79127415764378 57.29051756078843,195.7017107278225 57.09436013759114,195.79127415764378 56.99628142599249,195.97040092965472 56.70204529125476,196.77646995463874 55.72125817538472,198.70206969682476 54.02122717478778,202.28454485005932 53.432754905254114,204.07576486858306 52.451967789558694,206.628233170748 51.896188423910644,208.0164077076479 51.14425163512351,210.0762666457158 50.948094211984426,210.3001634235552 50.425007750163786,210.43450140260393 50.29423613473773,210.52406001868076 50.03269290388562,210.88229419040726 49.70576386532048,211.8226566638332 48.921134172647726,213.837708244042 48.59420513396617,214.46461015901878 48.365354807057884,215.18106773501495 48.103811576147564,215.8527450116526 47.90765415295027,216.6139772690076 47.09033155645011,218.44988166316762 46.33839476777939,220.3305514641106 46.27300895994995,220.73355045719654 46.20762315229513,222.61420459102374 45.12875732494285,225.79337628619396 44.60567086318042,227.04712400079006 43.59219084348297,229.82325924912584 42.80756115092663,231.4351958470652 42.0556243621395,233.04712296684738 41.630616611859296,234.4799391166598 41.36907338106539,235.06201853827224 40.976758534729015,236.53959921203204 40.4863649768522,237.70374807325425 40.02866432274459,239.04699061636347 39.178648822475225,241.2857135629165 38.78633397613885,242.0916493482364 37.93631847575307,244.28557364977314 37.184381686965935,245.94219873312977 36.49783070595004,248.1360922207823 36.00743714807322,249.3001918400114 35.58242939785123,250.64337756641908 34.8304926091223,252.47905408369843 33.81701258942485,255.34447578745312 33.65354807017138,255.65787946942146 33.522776454745326,255.79219522350468 32.705453858245164,256.19514209078625 32.476603531162255,256.5085448003374 32.14967449265532,257.4039791392861 31.528509319294244,258.79189658520045 31.103501569130458,260.0902646094328 30.48233639576938,261.6124813594797 29.95924993394874,263.04514822742203 28.74961249117041,266.0 28.945769914367702,265.19413449283456 29.893864126352128,262.8660652783292 30.84195833816193,259.911179730203 32.31313901179237,256.3742293972464 32.73814676213078,255.92651091169682 33.326619031548034,255.6131075368321 33.620855166285764,255.38924776404747 33.98047710873652,254.31471831005183 34.69972099363804,252.79246104118647 35.386271974712145,250.9567866223515 36.00743714807322,248.89723483880516 36.98822426376864,246.25561316337553 37.64208234107355,244.73331114588655 38.59017655294156,242.00210104463622 39.89789270737674,239.04699061636347 41.10753015015507,235.42022064505727 42.382553400762845,232.42026354654809 42.41524630453205,232.10683329898166 42.742175343155395,231.12176447315142 43.75565536279464,228.7038532573206 44.21335601678584,227.8978781128535 44.27874182455707,227.45011311976123 44.54028505546739,226.7784642589395 44.801828286319505,225.79337628619396 45.324914748140145,224.7187308241264 46.044158632983454,222.88286841398804 46.17493024846772,222.2112083628017 46.10954444075469,220.68877282051835 46.240316056180745,219.92755187876173 46.371087671548594,219.65888515929691 46.76340251794318,219.07677303042146 47.15571736416314,218.27076958061662 47.90765415295027,215.8527450116526 48.3980477109435,214.46461015901878 48.79036255716346,213.837708244042 49.11729159578681,212.8973526833579 49.73845676914789,210.79273569141515 49.93461419228697,210.47928071423667 50.098078711598646,210.3001634235552 50.719243884959724,210.0314872681338 50.8827084042714,209.89714909149916 51.013480019639246,209.67325198440813 51.70003100077156,208.06118741442333 52.58273940498475,205.55351257210714 53.726991039991844,202.9114731879963 54.217384597926866,201.52327279778547 55.198171713680495,199.1946628068108 56.89820271439385,195.9256192475441 57.09436013759114,195.74649244645843 57.35590336838504,195.79127415764378 57.84629692637827,195.9256192475441 58.402076291968115,196.32865412221872 59.38286340777995,196.73168840436847 59.579020830919035,196.77646995463874 60.36365052359179,196.59734370943625 61.932909908820875,197.31384798776708 63.46947639022255,196.8660330332932 64.45026350597618,197.22428505527205 65.13681448699208,197.22428505527205 65.95413708355045,197.49297376454342 66.41183773759985,197.49297376454342" stroke="#4dd2ff" stroke-linecap="round" stroke-linejoin="round" stroke-width="0.5"><title>2022-07-26 4.5km</title></polyline><polyline fill="none" points="169.92063569935272,195.56921436163248 168.93415054486832,195.48203602820286 168.32953061151784,195.6128035177826 168.2340643061907,195.7435709433339 168.26588640804403,196.135872835177 168.2340643061907,196.35381808137754 168.13859800097998,196.57176314969547 168.01130959397415,196.74611907612416 167.8203769834363,196.83329699657043 166.99300233781105,196.87688594608335 166.57931501494022,197.09483058695332 166.29291609907523,197.44354164216202 166.1338055903907,197.7050746345194 165.97469508153154,198.6640267460316 165.8474066745257,198.83838130510412 165.72011826751987,198.88196992711164 165.11549833411118,198.88196992711164 164.06536897621118,198.70761539653176 163.71532585687237,198.57684942384367 163.33346063573845,198.31531728612026 163.04706172004808,198.27172857159167 162.60155229544034,198.5332607519813 162.0605765656219,198.70761539653176 161.67871134448797,198.9255585419305 161.4559566322132,198.9255585419305 160.91498090233654,198.57684942384367 159.99213995138416,198.0973736421147 159.8012073409045,198.0537848920212 159.26023161096964,198.22813984990353 158.94201059348416,198.14096238519414 157.732770726725,197.22559728601482 157.25543920038035,196.9640638238343 156.87357397930464,196.9640638238343 156.7144634705619,197.09483058695332 156.17348774062702,198.6204380884883 155.4097572984756,199.88450626679696 153.94594061776297,203.11003241041908 152.32301342813298,207.7303127362975 151.336528273765,210.2147700212081 150.85919674742036,211.042917308514 150.7319083403563,211.13009055764996 150.28639891574858,211.21726377823506 150.0636442034738,211.43519670533715 149.77724528772524,212.74279052953352 149.2999137613806,213.83244715444744 149.07715904904762,214.48623899344238 148.53618331922917,215.53230260347482 148.18614019989036,216.6219478363928 146.9450782313943,219.54217511738534 146.6268572138506,220.37029345487827 146.53139090858167,221.02406927428092 146.37228039978072,223.20331043662736 146.2768140945118,223.55198737082537 144.9402858207468,226.64647519672872 143.79469015751965,229.91526138823247 142.68091659608763,232.48667838508845 142.10811876447406,234.2299978475785 141.40803252585465,235.92972335766535 140.51701367663918,238.32675375323743 140.13514845556347,239.54705186517094 139.75328323442955,240.3751081202936 139.49870642047608,241.11599838090478 138.76679808006156,242.72851713153068 138.28946655377513,244.07953885305324 137.8439571292256,245.169067517214 137.33480350108584,246.5200768825889 137.11204878881108,247.43527288921177 136.95293827995192,247.91466002102243 136.57107305893442,248.7862707815948 136.06191943079466,250.18084207703942 135.29818898870144,252.09836570866173 134.05712702014716,255.0617842200736 133.77072810428217,255.45399891005945 133.10246396745788,255.84621302370215 132.91153135692002,256.1076887790405 132.27508932183264,257.6765379316639 131.73411359201418,259.3761141059804 129.18834545143181,265.7385339367611 129.1565233496949,266.0 129.25198965496384,265.9128446740506 129.4747443672386,265.0412898490322 130.42940741992788,262.2087170101295 131.09767155681038,260.465580319491 131.28860416734824,259.7683224552311 131.73411359201418,258.8967475629761 131.98869040608406,258.06874877878 132.4341998306336,256.8921145082568 132.72059874632396,256.0641095043393 133.10246396745788,255.62831636503688 133.80255020607729,255.23610193125205 133.96166071487824,255.10536365860025 134.184415427153,254.62598944402998 135.42547739570728,251.57540608471027 136.03009732905775,249.78861963693635 137.14387089048978,246.91230412694858 137.9076013326412,244.73325658531394 138.48039916425478,243.33865682044416 138.8940864870674,242.51060976166627 139.530528522213,240.50585360993864 140.8352346942993,237.23719715181505 141.50349883112358,235.23240138133406 142.04447456094204,233.83775196154602 143.09460391895846,231.440681240696 144.11291117512155,228.477000397339 144.6220648032031,227.3874035763729 145.79948256816715,224.38009326372412 146.2768140945118,222.89821774538723 146.3086361963069,222.37520089157624 146.21316989097977,221.8085981431068 146.21316989097977,221.15482424604124 146.24499199277489,220.45746365669766 147.07236663840013,218.71405420970405 147.39058765600203,217.7551741581119 148.59982752264477,214.87851332771243 149.17262535437476,213.22223999266862 149.52266847365536,212.43768587711384 149.84088949114084,211.56595637620194 150.09546630521072,211.30443697053124 150.76373044215143,210.99933067330858 150.92284095089417,210.78139739017934 151.59110508771846,208.90716380768572 152.0047924105893,207.90466137073236 152.48212393699214,206.90215516701574 153.43678698968142,204.63560551663977 153.97776271938346,203.06644447913277 154.86878156865714,201.01780367971514 155.25064678973285,200.276802069915 156.0461993336212,198.3589059934602 156.58717506349785,197.31277504982427 156.7781076740357,197.0512416730926 157.0326844881056,196.92047488843673 158.36921276187059,197.7050746345194 159.22840950929094,197.96660737032653 159.7375631373725,197.83584103448084 159.92849574796855,197.83584103448084 160.0557841549744,197.8794298201392 160.53311568126082,198.22813984990353 161.26502402161714,198.5332607519813 161.5196008356288,198.5332607519813 162.02875446376856,198.22813984990353 163.07888382172678,198.0101961347973 163.96990267094225,198.48967207298847 164.54270050255582,198.3589059934602 165.11549833411118,198.44608338695252 165.87922877632082,198.31531728612026 166.1656276920694,198.14096238519414 166.2292718956014,197.96660737032653 166.29291609907523,197.7050746345194 166.29291609907523,197.0512416730926 166.42020450613927,196.78970803983975 166.8338918289519,196.57176314969547 167.59762227110332,196.5281741503277 168.13859800097998,196.3974071093544 168.39317481504986,196.26664000435267 168.8705063413945,195.6999818085751 169.5705925800139,195.13332240923773 170.52525563264498,194.95896542881383 170.62072193797212,194.741019043111 170.5570777344401,194.34871510020457 170.588899836177,194.26153636784875 170.84347665024688,194.0" stroke="#4dd2ff" stroke-linecap="round" stroke-linejoin="round" stroke-width="0.5"><title>2022-07-25 4.6km</title></polyline></svg>