<?xml version="1.0" encoding="utf-8" ?>
<svg baseProfile="full" height="300mm" version="1.1" viewBox="0,0,200,300" width="200mm" xmlns="http://www.w3.org/2000/svg" xmlns:ev="http://www.w3.org/2001/xml-events" xmlns:xlink="http://www.w3.org/1999/xlink"><defs /><rect fill="#222222" height="300" width="200" x="0" y="0" /><text fill="#FFFFFF" style="font-size:12px; font-family:Arial; font-weight:bold;" x="10" y="20">Over 10km Runs</text><text fill="#FFFFFF" style="font-size:4px; font-family:Arial" x="10" y="280">ATHLETE</text><text fill="#FFFFFF" style="font-size:9px; font-family:Arial" x="10" y="290">ChiZhang9797</text><text fill="#FFFFFF" style="font-size:4px; font-family:Arial" x="120" y="280">STATISTICS</text><text fill="#FFFFFF" style="font-size:3px; font-family:Arial" x="120" y="285">Number: 3</text><text fill="#FFFFFF" style="font-size:3px; font-family:Arial" x="120" y="290">Weekly: 1.0</text><text fill="#FFFFFF" style="font-size:3px; font-family:Arial" x="141" y="285">Total: 30.7 km</text><text fill="#FFFFFF" style="font-size:3px; font-family:Arial" x="141" y="290">Avg: 10.2 km</text><text fill="#FFFFFF" style="font-size:3px; font-family:Arial" x="167" y="285">Min: 10.1 km</text><text fill="#FFFFFF" style="font-size:3px; font-family:Arial" x="167" y="290">Max: 10.4 km</text><polyline fill="none" points="50.007939338625874,97.23041851515882 50.982951186510036,97.1769956927019 52.074964456202,97.1769956927019 52.581970617146,97.0701499953866 53.12797725200653,97.0701499953866 53.478981517255306,96.96330422835308 53.79098530858755,96.72290099698876 53.966487441182835,96.50920893911098 54.08348886296153,96.26880504007568 54.122489336819854,96.08182398529607 54.14198957383633,95.8681310894026 53.90798673030804,92.50243113431497 53.77148507160018,92.31544577177556 53.537482228101,92.20859689710778 53.45948128029704,92.07503570565314 53.361980095505714,91.67435147652577 52.40646848449251,89.88461659614404 52.05546421924373,88.89624714471574 51.91896256056498,88.68254485599755 51.78246090185712,88.57569360689376 51.39245616266271,88.38870375292026 51.002451423497405,88.36199089921138 49.11092843848746,88.468842287999 47.979914694908075,88.62911924024229 47.90191374704591,88.57569360689376 47.667910903546726,88.22842656496505 47.60941019267193,88.1215750190895 47.570409718726296,87.82773290765181 47.589909955713665,87.58731624182838 47.921413984004175,86.99962957015669 48.19441730144899,86.59893290093169 48.42842014494818,86.01124267603154 48.74042393625132,85.53040364786284 49.013427253696136,84.78242901500198 49.32543104502838,84.08787807711633 49.734936021181056,83.58031975629274 50.1054405233881,82.88576371090312 50.6124466843321,81.76378232680145 50.78794881698559,81.25621678988682 51.372955925704446,80.40136600733967 51.76296066484065,79.78693924614345 52.347967773646815,78.71836546489794 52.386968247563345,78.47793540146085 52.36746801060508,78.39779196842574 52.289467062742915,78.31764849601313 51.58745853227447,77.97035966180556 50.70994786906522,77.56964085926302 51.041451897413936,77.83678683673497 51.74346042791149,78.05050330441736 52.308967299730284,78.31764849601313 52.5234699062421,78.26421949263022 52.62097109109163,78.15736143347749 52.971975356311304,77.46278234598867 54.39549265432288,75.16530741473252 54.668495971738594,74.47071561342455 55.40950497618178,73.05480780082871 56.30651587626198,71.47859411135141 57.125525828509126,70.14280789968325 57.5935315155657,69.20775105642679 59.32905260482221,66.05523428064771 59.52405497446307,65.62776969763217 59.5045547374757,65.44075359102862 59.03654905047733,65.200303996593 58.72454525914509,64.93313736582058 58.39304123085458,64.7194037467707 57.51553056773264,64.23850208202202 57.24252725028782,64.02476755456883 57.22302701330045,63.81103274763154 57.55453104159096,63.11639269499574 57.5350308046618,63.0095247325371 57.41802938291221,63.06295872242481 56.969523932843,63.543863845974556 56.85252251106431,63.59729766121018 56.81352203714778,63.57058075579698 56.95002369591384,63.169826650002506 57.0280246437178,62.368315490472014 57.34002843507915,61.673669306299416 57.476530093787005,61.45993142486259 57.74953341120272,61.16604138155526 57.808034122077515,61.032454823565786 57.808034122077515,60.604977104245336 57.88603506988147,59.93704092944972 57.88603506988147,59.4294076111546 57.69103270029882,58.3607007345563 57.5935315155657,57.505730201955885 57.49603033071617,57.131679187587 57.28152772420435,56.65075519682432 57.145026065496495,56.19654790630739 57.0280246437178,55.84921206768195 56.794021800218616,55.475157262117136 56.56001895671943,54.88735512376297 56.05301279577543,54.00564795236278 55.79950971531798,53.47127765470941 55.23400284355739,51.62768671603408 55.000000000029104,51.0933086432924 54.785497393488185,50.345176406015526 54.53199431303074,49.677198300356395 54.39549265432288,49.08937530881667 54.21999052166939,47.699967106222175 54.200490284740226,47.138856599034625 54.278491232544184,46.524304785518325 54.609995260834694,45.348634007314104 54.70749644568423,44.84095537479152 55.000000000029104,44.413435303169535 55.25350308048655,43.82559337862767 55.448505450069206,43.61183215449273 55.79950971531798,43.42479085405648 56.36501658713678,43.37135044315073 56.54051871979027,43.291189794123056 57.476530093787005,42.62318285602669 58.783045970019884,41.79485046050104 59.89455947667011,41.260440235360875 60.81107061370858,40.913072651819675 62.44909051826107,40.5657043299143 66.095634829544,40.16489381021529 67.71415449713822,40.32521813608764 68.90366895159241,40.2717767116701 69.70317866688129,40.13817307398131 71.69220283665345,40.1114523333672 72.5112127889588,40.031290085215005 72.99871871288633,39.89768625101715 73.33022274117684,39.89768625101715 73.5252251107886,39.68391988900839 75.45574856971507,36.29034143764875 75.72875188710168,35.755913211381994 76.11875662629609,34.820659609904396 76.13825686322525,34.74049476646178 76.04075567846303,34.60688660661981 75.4362483327277,34.580164961502305 74.85124122400885,34.5 74.65623885442619,34.553443312091986 74.18823316742782,34.820659609904396 73.9737305608287,34.87410281706252 73.81772866519168,34.84738121564442 73.33022274117684,34.687051515618805 73.19372108249809,34.687051515618805 73.0182189499028,34.793937999827904 72.19920899759745,35.40853392716963 71.24369738661335,35.9162418628257 70.11268364300486,36.63771884748712 69.5861772451317,36.82476791617228 68.72816681893892,37.03853801821242 67.24614881005255,37.25230784062296 65.95913317083614,37.22558662814845 64.53561587282456,37.46607738341845 63.65810520967352,37.49279855657369 62.27358838560758,37.57296204988961 61.376577485498274,37.57296204988961 60.61606824412593,37.653125503929914 60.22606350496062,37.733288918592734 59.5630554483796,38.05394218406582 59.17305070918519,38.080663261105656 58.60754383736639,38.02722110268951 58.003036491631065,38.13410540220502 57.320528198062675,38.40131584505434 56.89152298500994,38.481478892761515 56.5210184827738,38.64180487008707 55.780009478359716,39.176223658651 54.18099004775286,40.031290085215005 53.537482228101,40.512262984062545 53.08897677809,40.99323446744529 52.659971564949956,41.581086580161355 52.25046658885549,42.24909777798166 51.80196113878628,42.756784462035284 51.47045711049577,43.21102910564514 51.08045237127226,44.119514605248696 50.6124466843321,45.90975066101237 50.57344621035736,46.283827359831776 50.5539459734282,46.95181933513959 50.53444573649904,47.325893648783676 50.5539459734282,47.67324760192423 50.4954452625534,48.234356274377205 50.51494549951167,48.60842765237612 50.94395071262261,49.971109003177844 51.09995260825963,50.69252394208161 51.255954503954854,51.120027588447556 51.74346042791149,51.97503152635181 52.36746801060508,52.69643761977204 52.5234699062421,52.99034289307019 52.991475593240466,53.63158892747015 53.595982938975794,54.540016502840444 53.88848649337888,55.10110160050681 54.25899099561502,55.982802862199605 54.53199431303074,57.21183304840815 54.609995260834694,58.22711188365065 54.4929938390851,58.5744426689198 54.47349360212684,58.681313531211345 54.5514945499599,59.18894917315629 54.5514945499599,59.482842771481955 54.4929938390851,59.80345336702885 54.317491706460714,60.31108552363003 54.317491706460714,60.76528137996502 54.278491232544184,60.87215080988244 54.00548791512847,61.40649691085855 53.985987678170204,61.7805381421349 53.84948601946235,62.154578517438495 53.55698246508837,62.66220337199047 52.991475593240466,63.35684535499604 52.659971564949956,63.864466475570225 51.74346042791149,64.665970298287 51.48995734745404,64.79955388668168 51.08045237127226,65.0934373967466 50.319943129929015,65.46747019076429 50.1054405233881,65.54761996380694 49.344931281986646,65.65448626679427 48.642922751489095,65.62776969763217 47.86291327315848,65.7613524999033 47.45340829700581,65.70791939206538 46.75139976650826,65.57433654606575 45.97139028814854,65.60105312406085 45.678886733716354,65.52090337718255 45.38638317937148,65.33388714824105 45.191380809788825,65.25373727038095 43.82636422268115,65.49418678611983 42.12984360725386,65.46747019076429 41.93484123767121,65.49418678611983 41.79833957896335,65.54761996380694 41.72033863115939,65.70791939206538 41.70083839423023,65.81478559024981 41.81783981589251,67.65821651050646 41.83734005287988,68.37955338518077 41.79833957896335,68.56656612933148 40.99882986367447,69.44819475556142 40.49182370273047,70.30310282150458 39.73131446132902,71.29158469887625 39.32180948520545,72.11976761546975 39.24380853740149,72.54721522104228 39.28280901128892,72.89451557748544 39.614313039637636,73.58911407664709 39.88731635699514,73.98984263732564 40.33582180706435,74.444000485164 41.38883460286888,74.7912968115561 41.81783981589251,74.9783022201882 42.071342896379065,75.16530741473252 42.1103433703247,75.29888242280867 42.1103433703247,75.43245732168725 42.03234242252074,75.6728918646113 41.759339105075924,75.96675582569151 41.38883460286888,76.20718958273937 40.82332773102098,76.39419337146683 40.6478255984257,76.55448216300283 40.49182370273047,76.90177400542598 40.21882038531476,77.35592376295244 40.101818963565165,77.67649930267362 40.04331825269037,78.05050330441736 40.04331825269037,78.71836546489794 39.98481754178647,78.98550956505642 39.90681659398251,79.09236708289245 39.692313987441594,79.25265322868654 39.380310196080245,79.4663678452489 38.736802376428386,79.59993933868827 38.5027995329292,79.73351072297373 38.28829692641739,79.92051047761925 38.15179526768043,80.05408159998478 37.33278531546239,81.09593260867405 37.00128128717188,81.46992878698802 36.74777820665622,81.87063802844204 36.70877773273969,82.08434922240849 36.650277021894,82.80562243888562 36.94278057626798,84.14130517703597 37.079282234975835,84.67557521654817 37.11828270886326,84.915996164651 37.11828270886326,85.3166969591257 37.1572831828089,85.53040364786284 37.43028650019551,86.67907231335994 37.5472879219742,86.83935102036048 37.70328981761122,86.89277722102997 37.93729266113951,86.89277722102997 38.385798111208715,86.78592480215593 38.65880142862443,86.78592480215593 39.84831588307861,86.99962957015669 40.37482228098088,87.1866210130247 41.0378303375619,87.34689922240796 41.583836972451536,87.40032525730203 42.14934384424123,87.34689922240796 42.48084787253174,87.40032525730203 42.69535047910176,87.61402922219713 42.85135237473878,87.88115878539975 42.87085261166794,88.33527804112236 42.929353322600946,88.60240642575081 43.24135711390409,88.86953437395277 43.45585972047411,88.89624714471574 44.29436990967952,88.7893960352958 44.72337512279046,88.70925765740685 45.230381283705356,88.70925765740685 46.06889147293987,88.60240642575081 46.575897633854765,88.68254485599755 46.673398818675196,88.86953437395277 46.614898107771296,89.05652367793664 46.341894790384686,89.45721432338178 45.581385548983235,90.76613025454571 45.05487915108097,91.54078984857188 44.64537417492829,92.5825676528475 44.04086682925117,93.5174907992623 42.890352848684415,95.46745615682448 42.30534573990735,96.7496124846366 41.739838868088555,97.71122313162778 41.50583602458937,98.29887129821873 40.95982938972884,99.42073920530675 40.23832062227302,100.7028645297687 39.49731161785894,102.4123493219522 39.28280901128892,103.13353285763878 38.69780190254096,104.20194706301845 38.405298348137876,104.86970239580842 37.76179052848602,106.5524337386887 37.5472879219742,107.22017947169661 37.39128602624987,107.56740617501782 37.21578389368369,108.10159966345236 36.825779154518386,109.0898530157283 36.68927749581053,109.30352863077132 36.591776310960995,109.41036633370095 36.12377062396263,109.51720396667952 36.06526991308783,109.57062275700446 35.96776872832561,109.73087902330735 35.42176209346508,111.54710573000193 35.03175735429977,112.37508473925118 34.914755932521075,112.7490093690867 34.66125285209273,113.12293314379349 34.5637516672723,113.28318592833239 34.19324716509436,114.5117853917036 33.90074361069128,115.2062070916727 33.86174313677475,115.5 33.97874455849524,114.93912217149045 34.290748349856585,114.29811658296967 34.622252378147095,113.33660348836565 35.03175735429977,112.50862934807083 36.104270387033466,109.83771644688386 36.20177157179569,109.65075090974278 36.29927275661612,109.57062275700446 36.5332756001153,109.49049456497596 36.70877773273969,109.330238063063 37.68378958068206,106.87295203086978" stroke="#4dd2ff" stroke-linecap="round" stroke-linejoin="round" stroke-width="0.5"><title>2022-09-23 10.4km</title></polyline><polyline fill="none" points="114.90586630286998,76.16137474893185 116.581855388853,76.0604617070494 117.06070941337384,75.93432031197881 117.2448840381985,75.83340712169593 117.3922237380757,75.65680888008501 117.50272851291811,75.50543879787438 117.55798090042663,75.22792659522383 117.52114597545005,75.02609922540432 117.31855388815165,74.57198667878401 117.28171896317508,74.37015845158021 117.33697135062539,73.133954803503 117.20804911325104,72.4275482751109 116.89495225105202,71.82205439274549 116.50818553884164,70.73720524867531 115.8267394270224,69.45051382422389 115.58731241477653,68.69363150691788 115.47680763984681,68.39087754109642 115.34788540247246,68.23950033554866 115.23738062757184,68.13858211606566 115.03478854024434,68.03766383060429 114.83219645294594,67.98720466316445 111.35129604366375,68.2899594205519 110.72510231926572,68.1890412340581 110.68826739426004,68.08812298164412 110.78035470671603,67.98720466316445 111.00136425645906,67.81059744722734 111.95907230561716,66.32204288578941 112.14324693041272,65.86790473887231 112.45634379264084,65.33807521239214 112.82469304231927,64.35410126806528 114.22442019099253,61.65444824167935 114.4638472032384,61.02368138570455 115.20054570256616,59.98921816298389 115.8267394270224,58.87905479880283 116.0293315143208,58.67720605673094 116.15825375172426,58.65197494543099 116.74761255117483,58.904285872980836 116.96862210097606,59.05567223163962 117.52114597545005,59.56029235497408 118.25784447477781,60.16583432581683 119.52864938610583,61.04891210939968 120.11800818555639,61.75537069958227 120.48635743520572,61.95721541727835 120.90995907233446,62.05813767720247 121.16780354702496,62.20952094339009 121.68349249660969,62.66366985124478 122.32810368351056,63.269199650443625 123.3594815825054,64.02610855973035 124.46452933154069,64.75778364491998 125.40381991816685,65.53991524640878 128.0559345156944,67.15462601928448 129.43724420192302,67.91151588107459 130.8922237380757,68.6431725538423 132.78922237380175,69.4757431709586 134.81514324693126,70.25785087322583 135.45975443383213,70.56060117823654 136.93315143248765,71.06518370076083 138.24079126873403,71.77159646210202 140.1009549795417,72.50323484340333 141.9611186903494,73.43669946916634 142.95566166439676,73.7899008289387 143.54502046384732,74.0674156161549 144.42905866305227,74.37015845158021 145.6077762619534,74.67290069347655 146.65757162348018,75.27838339639129 148.48090040928219,76.0604617070494 149.01500682128244,76.33797241348657 149.62278308323584,76.6154826211714 152.21964529331308,77.37232610709907 153.71145975444233,77.95257026745821 156.4740791268996,79.26441859234183 158.05798090045573,79.84465564257698 159.9181446112052,80.75284838752123 160.30491132332827,80.85375836280582 160.728512960457,80.92944080095913 161.64938608460943,81.25739760440774 162.40450204641093,81.78717250778573 162.8465211459843,82.01421833863424 164.43042291954043,82.49353621837508 165.11186903138878,82.79626253372408 165.92223738064058,83.04853400986758 166.67735334241297,83.37648631261254 167.4508867667464,83.62875684082974 168.2612551159982,84.18375055219803 168.77694406552473,84.41079285912565 170.06616643929738,84.8648764716927 172.44201909960248,85.9496263632609 173.5102319236321,86.35325228469446 175.03888130973792,87.03436863489333 176.0886766712647,87.41276530899631 176.62278308320674,87.71548198070377 177.32264665761613,87.99297174181265 178.07776261938852,88.42181857360993 178.90654843114316,88.69930706554442 179.47748976812,88.85066421459487 180.06684856754146,89.17860419522913 181.26398362894543,89.68312588239496 181.83492496592226,89.98583810351556 183.1793997271743,90.51558306268998 183.69508867670083,90.7930677922268 185.33424283767818,91.39848728961078 185.5,91.37326152456808 185.48158253749716,91.27235842333175 185.42633015007596,91.17145525617525 184.06343792635016,90.7930677922268 181.7612551159691,89.93538610791438 180.63778990451829,89.45609132712707 180.23260572989238,89.20383031870006 179.14597544338903,88.85066421459487 177.06480218283832,87.99297174181265 176.6043656207621,87.84161375217082 176.16234652115963,87.46321812886163 175.62824010913027,87.18572741576645 174.08117326057982,86.63074449371197 172.9024556616787,86.05053294253594 171.15279672582983,85.36941225286864 170.01091405184707,84.78919596229389 168.1507503410685,84.1080697090365 167.43246930424357,83.70443791891739 166.82469304229016,83.45216751440603 165.29604365624255,82.94762546884886 164.1541609822889,82.46830899866472 162.73601637111278,82.01421833863424 161.55729877215344,81.48444421414752 161.0784447476326,81.3078524354205 160.59959072308266,81.05557811546896 159.89972714867326,80.72762088343734 159.56821282402962,80.50057316086895 159.08935879945057,80.22306993548409 158.16848567529814,79.869883290914 157.4317871759995,79.69328966572357 156.43724420189392,79.23919084500812 156.01364256476518,79.06259649850836 154.63233287859475,78.40667287193355 153.8035470668401,78.0534820726898 150.85675306958728,77.06958915789437 149.73328785813646,76.7163953003037 149.25443383358652,76.6154826211714 148.77557980900747,76.31274418809335 147.90995907230536,75.8838637250883 146.43656207367894,75.27838339639129 145.27626193728065,74.67290069347655 143.91336971352575,74.24401567562018 143.34242837651982,73.94127259289962 142.32946793999872,73.58807157937554 140.96657571627293,73.03303978301119 140.41405184176983,72.78075194331177 139.86152796726674,72.4780059914483 138.03819918143563,71.67068055113486 137.33833560711355,71.39316145615885 137.062073669862,71.24178719407064 136.74897680766298,71.1661000073509 135.86493860845803,70.76243438514939 135.31241473395494,70.6110595046921 134.04160982265603,70.030787754833 132.12619372442714,69.32436702902487 129.89768076397013,68.1890412340581 129.16098226467147,67.86105667236552 127.13506139157107,66.57434127916349 125.64324693044182,65.7669849692902 122.86221009548171,63.723345441379934 122.1439290586859,63.11781742326275 121.86766712140525,62.815052523685154 121.49931787172682,62.48705654578225 120.90995907233446,62.13382932879904 120.33901773532853,61.95721541727835 120.19167803545133,61.856293091375846 120.04433833560324,61.67967886234692 119.823328785802,61.20029636513209 119.5654843110533,60.92275844956748 119.38130968622863,60.79660468660586 118.73669849932776,60.51906604541 118.47885402457905,60.34245028666919 116.67394270122168,58.85382372044842 116.34242837651982,58.70243716395635 116.04774897682364,58.601512710389215 115.86357435196987,58.65197494543099 115.7714870395721,58.75289936589252 115.12687585264212,60.1406034577376 114.48226466579945,61.124604255805025 114.13233287859475,61.83106249955017 113.69031377899228,62.53751751083473 113.37721691676416,63.21873892462463 112.80627557981643,64.17748989633401 112.62210095502087,64.60640287731076 112.40109140516142,65.26238513170392 112.12482946793898,65.7669849692902 111.92223738061148,66.32204288578941 111.59072305593872,66.87709880704642 111.36971350613749,67.17985574116756 111.16712141883909,67.60876038165588 110.94611186903785,67.93674547926639 110.81718963163439,68.06289340819058 110.54092769441195,68.08812298164412 110.44884038198506,68.13858211606566 110.31991814463981,68.6179430711345 109.30695770806051,70.4092260999023 108.79126875853399,71.54453556980297 108.40450204638182,72.20048834747286 107.96248294677935,72.83120954417973 107.75989085945184,73.23486975798733 107.39154160983162,73.84035810003115 106.61800818552729,75.42975370117347 106.37858117322321,75.83340712169593 106.2680763983808,76.11091823624156 105.99181446110015,76.5145698760607 105.62346521145082,77.34709805069724 105.07094133694773,78.28053339353937 104.83151432467275,78.86077414097963 104.53683492500568,79.36532954024733 104.51841746247374,79.49146813254629 104.5,79.6680619885301 104.57366984992404,79.74374500784324 105.03410641202936,79.89511093522015 105.29195088674896,80.04647671421117 105.82605729877832,80.22306993548409 106.13915416097734,80.19784234477265 106.30491132332827,80.22306993548409 106.56275579807698,80.374435392936 107.06002728512976,80.60148330095399 107.17053206000128,80.60148330095399 108.03615279670339,80.29875268274918 108.23874488400179,80.32398025698785 108.53342428375618,80.52580070206022 108.71759890858084,80.60148330095399 109.38062755798455,80.62671082571615 109.71214188268641,80.57625577213184" stroke="#4dd2ff" stroke-linecap="round" stroke-linejoin="round" stroke-width="0.5"><title>2022-09-16 10.1km</title></polyline><polyline fill="none" points="63.55867065262282,230.75310542451916 63.55867065262282,230.8577788929906 63.46697060990846,230.9833869423528 63.37527056716499,231.02525626475835 62.70280358733726,230.94151760618843 62.62638688512379,230.8577788929906 62.62638688512379,230.79497482211445 62.77922028963803,230.31347592305247 62.87092033229419,230.10412801128405 63.084887098608306,229.74823577632924 63.25300384359434,229.55982183990272 63.451687269465765,229.39234255281917 64.00188752569375,229.01551335631666 64.58265446283622,228.5758778931704 65.07172135723522,228.34559204857214 65.46908820897806,228.2409165278077 65.74418833706295,228.2409165278077 66.29438859332004,228.15717604962265 67.24195570129086,228.1362409215726 68.34235621374683,228.0315652297577 68.57160632056184,227.947824614821 68.73972306548967,227.82221358971583 68.89255647000391,227.61286160761665 68.93840649136109,227.48725025413296 68.95368983180379,227.25696245296422 68.86198978911852,226.12645269854693 68.87727312953211,225.4565162853978 68.84670644864673,225.0168686105826 68.51047295873286,224.49347655464226 68.31178953289054,223.99101816937764 68.08253942610463,223.5304295853639 67.56290585076204,222.5883114154858 67.45592246763408,222.27427048607206 67.33365574400523,221.85554804949788 67.18082233949099,221.6252501261115 66.95157223273418,221.43682424457802 66.6611887641775,221.3530793193204 65.42323818762088,221.39495178875222 64.1088709087926,221.5415053241013 64.06302088749362,221.49963290250162 63.849054121179506,221.2065255685011 63.75735407846514,220.87154493713751 63.80320409985143,220.68311794711917 63.94075416389387,220.47375429987733 64.1088709087926,220.09689887268178 64.26170431333594,219.8665977881392 64.68963784599327,218.9244526770708 65.14813805950689,217.85667984247993 65.8817384011345,216.6423391371718 66.4013719765062,215.53267291108205 67.44063912716229,213.79487441542733 67.50177248899126,213.64831201869674 67.51705582940485,213.54362448980828 67.48648914851947,213.43893687525997 67.3947891058051,213.37612426556734 66.8904388709343,213.14581109980645 66.44722199783428,212.99924796054984 65.48437154942076,212.43393142418063 65.39267150670639,212.35018061405572 65.23983810225036,212.11986560388323 64.91888795272098,211.84767460348667 64.75077120776405,211.57548302486248 64.67435450552148,211.49173165347747 63.894904142507585,211.03109813258925 63.43640392899397,210.67515291384188 63.130737119936384,210.4867109270781 62.565253523294814,209.94232140832173 61.89278654343798,209.48168231636373 61.78580316028092,209.33511498520966 61.55655305349501,208.7907205728552 61.449569670367055,208.644152451212 61.296736265852815,208.53946083308256 60.77710269051022,208.35101570482948 60.456152541039046,208.16257029934786 59.95180230616825,207.78567865692457 58.95838517684024,207.17846201176872 58.74441841049702,206.9271991098576 58.69856838916894,206.78062885613326 58.683285048697144,206.67593571513862 58.74441841049702,206.44561050370248 58.85140179368318,206.31997839565884 59.401602049940266,206.02683633104607 59.997652327496326,205.85932627866714 60.59370260511059,205.85932627866714 61.84693652205169,205.7755711704085 62.53468684240943,205.83838750674477 63.772637418907834,205.88026504722802 65.83588837977732,205.67087720795826 67.36422242489061,205.33585595338081 68.1436727879045,205.02177273142297 68.44933959690388,204.8123834889484 68.95368983180379,204.41454298543977 69.59559013077524,204.0585793823484 70.4514571960026,203.17913565182243 70.90995740954531,202.48813991380302 71.07807415450225,202.19498908070818 71.10864083538763,202.06935280405014 71.13920751630212,201.75526157324202 71.21562421854469,201.46210906303895 71.23090755901649,200.8967416130763 71.29204092084547,200.58264750712988 71.36845762305893,200.43606999416807 71.7046911130019,200.01727617570577 71.76582447480178,199.84975826495065 71.87280785795883,198.99122553414782 71.85752451751614,198.5096070926811 71.7046911130019,197.81858616593672 71.56714104893035,196.897219131577 71.39902430397342,196.43653312928654 71.32260760173085,196.08054735627957 71.18505753768841,195.80832227414066 70.95580743087339,195.45233475535497 70.35975715331733,194.32154430961964 70.06937368473154,193.50485611275508 69.64144015210331,192.05993347027106 69.30520666218945,191.1385250134772 69.07595655546174,190.23805125406216 69.01482319360366,189.2328637661485 69.06067321496084,188.5208511894234 69.21350661947508,187.89260151131748 69.32049000263214,187.55753375639324 69.36634002398932,187.30623236490646 69.74842353528948,186.4476155573284 69.88597359933192,186.25913792673236 70.13050704653142,186.1125440222968 70.39032383420272,186.07066001876956 70.55844057915965,186.1334860188872 70.31390713193105,186.32196383438713 70.1763570678886,186.32196383438713 69.51917342850356,185.6518192303556 68.61745634188992,184.81413354457618 68.38820623513311,184.60471126712218 68.1589561283472,184.5 68.02140606430476,184.5 67.86857265979052,184.60471126712218 67.22667236084817,185.4214562128982 66.95157223273418,185.6518192303556 66.73760546642006,186.00783398786734 66.60005540234852,186.32196383438713 66.43193865739158,186.95022121638613 66.3860886360344,187.26434875177802 66.26382191246375,187.66224252398388 66.04985514612054,188.33237660955638 66.04985514612054,188.9396825962176 66.09570516744861,190.0495792009242 66.12627184839221,190.2171099284824 66.30967193379183,190.80346574948635 66.56948872146313,191.76675877117668 66.75288880686276,192.227461568531 67.01270559450495,192.73004454854527 67.22667236084817,193.08603963303176 68.03668940474745,194.17495963208785 68.29650619238964,194.59377255148866 68.57160632056184,194.9707030080972 68.80085642728955,195.4313942822264 69.1829399385606,196.4574734380294 69.25935664083227,196.83439841066138 69.35105668354663,197.73482580028212 69.24407330038957,198.1117470143945 69.24407330038957,199.05404519734293 69.1676565981179,199.8288185106867 69.12180657678982,199.95445698482945 68.87727312953211,200.28949231345905 68.75500640593236,200.75016445949586 68.54103963961825,201.21083494884806 67.6546058934473,202.27874653006438 67.28780572267715,202.59283647736447 66.93628889229149,202.84410788070818 66.52363870010595,203.09537879123673 65.8970217416063,203.36758838810056 65.637204953935,203.4304059052156 64.94945463363547,203.51416254682408 64.50623776053544,203.49322339154605 63.94075416389387,203.57697999205266 63.650370695308084,203.57697999205266 63.130737119936384,203.47228423280467 62.47355348058045,203.45134507072362 62.27487005473813,203.3885275638895 61.95391990523785,203.22101406162983 61.80108650072361,203.20007485846872 61.403719649038976,203.32571002618351 61.12861952089588,203.36758838810056 60.150485732010566,203.40946673622966 59.386318709439365,203.3885275638895 59.24876864539692,203.40946673622966 59.172351943154354,203.47228423280467 59.15706860271166,203.6188582718023 59.20291862403974,203.95388401674427 59.26405198586872,205.58712197648856 59.218201964511536,205.85932627866714 59.12650192179717,206.0058975865104 58.85140179368318,206.2571622953983 58.57630166556919,206.5921811407461 57.49118449355592,208.05787828767643 57.2772177272127,208.56039916351438 57.185517684498336,209.04197981981997 57.21608436544193,209.14667102729436 57.26193438679911,209.2513621492617 57.781567962112604,210.15170226620103 57.96496804751223,210.4029588439662 58.056668090226594,210.46577291144058 58.66800170825445,210.67515291384188 59.34046868811129,210.9473464053881 59.46273541174014,211.07297397561342 59.49330209262553,211.19860142270772 59.478018752182834,211.26141510003072 59.386318709439365,211.4289180890628 59.218201964511536,211.59642085912492 58.86668513412587,211.805799013644 58.46931828241213,211.97330129092006 58.33176821836969,212.11986560388323 58.10251811158378,212.5595575367479 57.88855134526966,213.06206075502269 57.84270132391248,213.35518672217586 57.85798466432607,213.7739369404153 57.81213464299799,213.9414366445053 57.751001281198114,214.04612384831853 57.613451217184775,214.1926857899889 57.46061781264143,214.2764353956154 57.246651046327315,214.3601849465922 56.849284194613574,214.44393444272282 56.620034087856766,214.59049592934025 56.054550491127884,215.17674019900733 55.779450363043,215.63735881474713 55.39736685171374,216.01422735946107 55.32095014950028,216.22359829416382 55.29038346858579,216.95639387127449 55.427933532657335,217.94042705307947 55.56548359672888,218.40103573284432 55.580766937171575,218.58946607904363 55.55020025622798,218.9244526770708 55.748883682099404,219.55255018755997 55.84058372481377,219.992216612809 55.96285044844262,220.15970818750793 56.22266723611392,220.2434538926973 56.55890072602779,220.15970818750793 56.97155091818422,220.15970818750793 57.521751174441306,220.26439031046903 58.2859181969834,220.49469067997416 58.683285048697144,220.53656342995237 59.539152113953605,220.53656342995237 59.70726885893964,220.5574997998483 59.89066894433927,220.68311794711917 60.028219008410815,220.85060861860984 60.0587856892962,221.018099071116 60.08935237021069,221.41588801838225 60.11991905112518,221.5415053241013 60.22690243428224,221.68805869174685 60.364452498353785,221.77180339797633 60.51728590283892,221.79273956600082 60.85351939278189,221.77180339797633 62.07618662886671,221.5415053241013 62.77922028963803,221.49963290250162 62.88620367276599,221.49963290250162 62.962620375008555,221.5624415297134 63.00847039636574,221.66712250661658 62.97790371545125,221.8136757305765 62.22902003338095,223.1535831486981 61.61768641532399,224.36786214305903 60.70068598826765,225.9589689236309 59.61556881625438,227.98969492915057 59.218201964511536,228.80616332389764 58.86668513412587,229.66449628323608 58.37761823972687,230.46001925784367 58.20950149471173,230.83684420611098 58.133084792498266,231.10899486850394 58.07195143066929,231.27647191192227 57.73571794075542,231.82077079114242 57.002117599127814,233.34898220872856 56.17681721478584,235.37959109927033 55.93228376755724,236.0704094685061 55.733600341685815,236.53095297895925 55.56548359672888,237.05429586812534 55.29038346858579,237.78697232214472 55.22925010678591,237.87070650725218 55.122266723628854,237.91257357931318 54.93886663822923,237.89164004501072 54.847166595514864,237.91257357931318 54.7554665528296,238.0381747134088 54.510933105571894,238.7499121478977 54.2358329774579,239.4407123480196 54.0065828707302,240.25710778341454 53.63978269987274,241.07349801775126 53.51751597630209,241.45029175638774 53.303549209958874,241.86895016657218 53.05901576275937,242.45506964297238 53.01316574140219,242.70626288370113 53.02844908184488,243.08305182151526 53.01316574140219,243.33424383118836 53.043732422287576,243.56450274096278 53.01316574140219,243.7319635063468 52.05031529295957,246.09732344248914 50.79708137601847,249.57202081236028 50.292731141118566,250.78604949223518 49.91064762984752,251.89541047130479 49.650830842147116,252.54427753647906 49.024213883676566,253.98851824256417 48.168346818391,256.4164804321481 47.80154664759175,257.2536981086305 47.15964634867851,258.9490471532263 47.06794630596414,259.116487817344 46.991529603663366,259.2002080673992 46.6705794542213,259.3048583030468 46.56359607106424,259.4304384730567 45.89112909123651,261.02110997620184 45.386778856336605,262.42339611272473 45.264512132736854,262.883844931006 44.74487855739426,264.1396060282641 44.622611833765404,264.2651814613273 44.36279504612321,264.2651814613273 43.354094576323405,264.0977475232212 41.44367701996816,263.82566690741805 40.49610991199734,263.93031336646527 40.221009783883346,263.99310120088194 39.71665954901255,264.2023937601916 38.90664250505506,264.66283618769376 38.58569235561299,264.95584414398036 38.40229227024247,265.18606421117147 38.17304216342745,265.4162838648117 38.12719214207027,265.5 38.20360884437105,265.45814193928527 38.73852576012723,264.83026938756666 39.013625888270326,264.6000486813209 39.68609286812716,264.2023937601916 40.221009783883346,263.9721719261797 40.93932678506826,263.84659620603634 41.3519769772538,263.82566690741805 42.6204942346958,263.9721719261797 44.454495088837575,264.2651814613273 44.622611833765404,264.2442522310448 44.760161897866055,264.16053527563054 44.94356198323658,263.7838082998569" stroke="#4dd2ff" stroke-linecap="round" stroke-linejoin="round" stroke-width="0.5"><title>2022-09-11 10.3km</title></polyline></svg>