<?xml version="1.0" encoding="utf-8" ?>
<svg baseProfile="full" height="300mm" version="1.1" viewBox="0,0,200,300" width="200mm" xmlns="http://www.w3.org/2000/svg" xmlns:ev="http://www.w3.org/2001/xml-events" xmlns:xlink="http://www.w3.org/1999/xlink"><defs /><rect fill="#222222" height="300" width="200" x="0" y="0" /><text fill="#FFFFFF" style="font-size:12px; font-family:Arial; font-weight:bold;" x="10" y="20">Over 10km Runs</text><text fill="#FFFFFF" style="font-size:4px; font-family:Arial" x="10" y="280">ATHLETE</text><text fill="#FFFFFF" style="font-size:9px; font-family:Arial" x="10" y="290">ChiZhang9797</text><text fill="#FFFFFF" style="font-size:4px; font-family:Arial" x="120" y="280">STATISTICS</text><text fill="#FFFFFF" style="font-size:3px; font-family:Arial" x="120" y="285">Number: 8</text><text fill="#FFFFFF" style="font-size:3px; font-family:Arial" x="120" y="290">Weekly: 1.0</text><text fill="#FFFFFF" style="font-size:3px; font-family:Arial" x="141" y="285">Total: 92.3 km</text><text fill="#FFFFFF" style="font-size:3px; font-family:Arial" x="141" y="290">Avg: 11.5 km</text><text fill="#FFFFFF" style="font-size:3px; font-family:Arial" x="167" y="285">Min: 10.1 km</text><text fill="#FFFFFF" style="font-size:3px; font-family:Arial" x="167" y="290">Max: 16.2 km</text><polyline fill="none" points="38.56274428180768,67.5763581866704 39.08682647738897,67.52197273514321 39.253579903248465,67.53284982898913 39.56326483700832,67.61986651588813 40.01588127863943,67.59811235484813 40.293803655091324,67.44583302834508 40.36526940902695,67.17390479320602 40.373210048361216,67.0760103566572 40.238219179795124,66.58653601457627 40.2541004584491,66.28197238533903 40.20645662248717,65.89038852893282 40.01588127863943,65.58582171478338 39.84912785276538,65.16160133017547 39.57120547632803,64.60684751733788 39.46003652575018,64.23700907376042 39.388570771800005,64.11735501974181 39.27740182125126,64.04121141885116 39.12652967403119,63.99770075066044 38.943894969517714,64.01945608831011 38.44363469191012,64.01945608831011 37.87984929970116,64.0955997140918 37.79250226709701,64.05208908146597 37.71309587384167,63.975945405887614 37.66545203787973,63.9106793289684 37.63368948055722,63.81278009356174 37.66545203787973,63.682247555756476 37.93543377498281,63.27977061952697 38.27688126605062,62.442175680313085 38.65803195373155,61.78949699320219 38.72949770768173,61.56105794083851 38.67391323240008,61.408764803731174 38.67391323240008,61.299983778189926 38.70567578970804,61.234715077524015 38.832726018925314,61.136811906515504 38.856547936899005,60.973639634910796 39.404452050468535,59.92932762468263 39.4123926898028,59.84230088428012 39.340926935867174,59.787909113751084 39.023301362787606,59.65736868314707 38.50715980651148,59.35277334937564 38.38010957730876,59.211353613529354 38.1815935941122,59.048176621843595 38.06248400422919,58.89587773536914 37.50663925133995,58.5151289946225 37.31606390749221,58.406343240101705 36.99843833441264,58.101742181534064 36.649050204010564,57.88416914343543 36.553762532101246,57.76450366935023 36.4425935815234,57.50341461545759 36.35524654890469,57.394627207417216 36.25201823767566,57.32935467724019 35.93439266459609,57.17705185791419 35.283260239782976,56.76365673444525 35.0450410599733,56.57871597948542 34.997397224011365,56.513442649214994 34.98151594535739,56.415532533726946 35.029159781333874,56.208832928095944 35.092684895935236,56.132680280003115 35.25149768247502,56.002132680536306 35.31502279709093,55.89334281874471 35.283260239782976,55.04477579399099 35.29120087913179,54.77279689405259 35.322963436410646,54.66400502290344 35.40236982969509,54.6531258259929 35.831164353352506,54.685763411340304 36.02968033650541,54.685763411340304 36.73639723661472,54.56609218678204 36.87138810518081,54.66400502290344 37.04608217034547,54.707521792690386 37.30812326814339,54.674884218016814 37.6495707592112,54.707521792690386 38.24511870875722,54.7184009806806 38.67391323240008,54.6531258259929 38.77714154365822,54.620488224616565 39.12652967403119,54.45729997775925 39.32504565719864,54.32674909220077 39.57120547632803,54.15268084644049 39.79354337749828,53.935094899032265 39.96823744267749,53.684870180135476 40.13499086855154,53.51080025563715 40.238219179795124,53.260573941595794 40.262041097768815,52.99946721956803 40.53202283488645,52.59692568289029 40.539963474235265,52.49900980582606 40.428794523642864,51.87887257250259 40.44467580229684,51.80271497004287 40.51614155624702,51.67215887736529 40.51614155624702,51.574241639784304 40.44467580229684,51.08465329089813 40.36526940902695,50.801778381093754 40.07146575393563,50.22514503374987 39.20593606730108,49.028342895631795 39.08682647738897,48.71281874696433 39.03124200210732,48.429933755680395 38.832726018925314,47.820638921104546 38.816844740271335,47.29838176582416 38.84066665825958,46.710837567086855 39.08682647738897,46.05800459569582 39.15035159200488,45.76422766914766 39.20593606730108,45.62277905683004 39.29328309989069,45.48133014381892 39.52356164038065,45.26371584444132 39.96823744267749,44.76320025527821 40.333506851718994,44.317085361464706 40.63525114613003,44.121229097567266 41.03228311247949,43.90361035044771 41.42931507882895,43.66422890662943 42.024863028360414,43.51189481223264 42.46953883065726,43.51189481223264 42.842748879033024,43.39220349344396 43.15243381279288,43.35956036911375 43.86709135220735,43.21810664539953 44.48646121971251,43.21810664539953 44.7326210388419,43.17458236224047 45.29640643106541,43.13105805058876 45.47904113557888,43.098414798158046 46.14605483903142,43.04400934189471 46.53514616606117,42.97872273566463 46.781305985190556,42.90255494740268 47.01952516500023,42.782862532592844 47.646835671854205,42.42378399640438 47.94063932694553,42.17351599202084 48.11533339213929,42.07558477756538 48.21062106404861,42.0647035225993 48.41707768655033,42.14087226989068 48.504424719154486,42.129991025605705 48.75852517761814,42.01029722120438 48.845872210222296,41.9994159555572 49.11585394732538,42.07558477756538 49.36995440580358,41.9994159555572 49.417598241736414,41.977653419009584 49.74316445415025,41.43358769121551 49.798748929461,41.400943606116925 49.94168043733225,41.37918087378057 50.044908748575835,41.313892634141666 50.37841560029483,40.90039896216331 50.56899094415712,40.71541411916405 50.70398181270866,40.193101198237855 50.823091402620776,39.89929837852833 50.958082271172316,39.692547468490375 51.00572610713425,39.56196761539468 50.98984482848027,39.115817850470194 51.45834254877991,38.408501116944535 51.62509597463941,38.060280886187684 52.419159907338326,36.645617458714696 52.89559826695768,35.62268824312196 53.141758086087066,35.187394445245445 53.41968046252441,34.74121534694132 53.56261197041022,34.48003594982583 53.554671331105055,34.37121089842549 53.348214708588785,34.00120439229795 53.348214708588785,33.925026326782245 53.57055260974448,33.64207846268255 53.66584028166835,33.413542770955246 54.07875352667179,33.01088273743517 54.11051608395064,33.0 54.189922477235086,33.0 54.316972706481465,33.07617912461865 55.52394988418382,34.077382370589476 55.65894075273536,34.24062060183496 55.65894075273536,34.41474094034493 55.611296916773426,34.50180093874951 55.555712441477226,34.53444840879092 55.460424769538804,34.52356592055003 55.30955262236239,34.458270953808096 55.25396814705164,34.46915345270099 55.21426495042397,34.49091844516079 54.78547042676655,35.154747295608104 54.6743014761887,35.426806386480166 54.205803755889065,36.33003459093743 53.63407772437495,37.690294894251565 53.22910511869122,38.44114667013491 52.85589507033001,39.55108594940975 52.74472611975216,39.823127065377776 52.53826949725044,40.21486431847006 52.38739735001582,40.628362250376085 52.30005031742621,40.943924732848245 52.18888136684836,41.18331596268399 52.07771241628507,41.53151985050499 51.847433875795105,42.05382226587972 51.601274056665716,42.478189959787414 51.18836081166228,42.89167382769665 50.90249779589067,43.13105805058876 50.426059436271316,43.65334791146597 50.31489048569347,43.74039582305704 50.17195897780766,43.794800709983974 49.925799158678274,43.838324587530224 49.56847038894193,43.86008651559678 49.298488651853404,43.96889604929311 48.92527860349219,44.012419812926964 48.710881341656204,44.066824477478804 48.36943385058839,44.19739549091901 48.23444298203685,44.34972801609547 48.13915531009843,44.40413240487396 48.00416444154689,44.38237065469002 47.43243841001822,44.38237065469002 47.233922426836216,44.32796624809998 46.582790002037655,44.38237065469002 46.30486762558576,44.44765588383598 45.923716937890276,44.48029847442376 45.76490415135049,44.4585367491527 45.42345666028268,44.34972801609547 45.22494067712978,44.32796624809998 44.81202743211179,44.37148977691686 44.42293610511115,44.436775016773026 43.88297263086133,44.46941761265771 43.24772148471675,44.58910699398257 42.62835161719704,44.80672349940869 42.20749773287389,45.03522006418643 41.723118733934825,45.33988093015796 41.35784932489332,45.63365972997417 41.206977177687804,45.775108319205174 41.08786758779024,45.92743723289459 40.81788585065806,46.42794406577741 40.7543607360567,46.482346755576145 40.59554794951691,46.558510446571745 40.54790411355498,46.63467405040137 40.44467580229684,47.004610314863385 40.4208538843086,47.483348310372094 40.428794523642864,47.66831434084452 40.54790411355498,48.36465243307612 40.82582648999232,49.23506480262586 41.056105030467734,50.040186109356 41.23079909567605,50.268664705974516 41.42931507882895,50.62770091590937 41.56430594739504,50.801778381093754 41.67547489797289,51.13905217420688 41.739000012603356,51.2913688108456 41.90575343846285,52.42285291294684 41.89781279914314,52.80363650585059 41.873990881154896,52.89067244972102 41.71517809461511,53.07562345263432 41.58018722606357,53.32585046202439 41.58018722606357,53.67399082321208 41.52460275075282,53.989491452564835 41.50078083279368,54.076525845739525 41.31814612826565,54.41378304435784 41.10374886644422,54.707521792690386 40.738479457388166,55.05565492685855 40.262041097768815,55.29499540034158 39.920593606701004,55.55609311713488 39.58708675499656,55.686641591455555 39.35680821449205,55.751915732565976 38.76126026498969,55.84982682423288 37.76868034910876,55.958616757146956 36.98255705574411,55.94773777186492 36.39494974556146,55.90422181293252 35.751757960082614,55.93685878478573 35.52147941959265,56.002132680536306 35.243557043155306,56.165317139842955 35.092684895935236,56.28498548904463 35.06092233862728,56.33938012215367 35.05298169927846,56.46992706013407 35.08474425660097,56.57871597948542 35.14032873189717,56.63311037253152 35.52147941959265,56.86156633779319 35.98997713989229,57.20968820566486 36.31554335229157,57.34023343669833 36.42671230285487,57.40550595622335 36.49023741747078,57.50341461545759 36.60140636806318,57.76450366935023 36.704634679321316,57.895047812249686 37.061963449014,58.15613532993302 37.32400454681192,58.406343240101705 37.51457989065966,58.504250427176885 38.11806847951084,58.93939173850231 38.26099998738209,59.11344746652321 38.4039314952679,59.211353613529354 38.53892236383399,59.38540863039816 38.71361642902775,59.52682799649483 39.007420084119076,59.71176056031254 39.11858903468237,59.75527403005253 39.29328309989069,59.77703075429599 39.388570771800005,59.82054418136977 39.38063013248029,59.91844928836508 39.26152054259728,60.2012854551358 38.872429215567536,60.95188330180099 38.872429215567536,61.0062741212605 38.99153880547965,61.11505562676757 38.98359816613083,61.19120257486793 38.65009131441184,61.8438871282051 38.395990855948185,62.28988455905346 38.11806847951084,62.92080265037657 37.7607397097745,63.519081523532805 37.50663925133995,64.00857842036203 37.466936054683174,64.06296674229088 37.40341094008181,64.08472205858561 37.32400454681192,64.18262089405471 37.196954317580094,64.44368375139311 36.71257531864103,65.30300842539145 35.98997713989229,66.44513164571981 35.791461156710284,66.81495782208367 35.243557043155306,67.97880914715643 34.973575306052226,68.82721130970458 34.862406355459825,69.03387173737428 34.64006845430413,69.55595838131558 34.37802735650621,69.98015076486627 34.00481730814499,70.74151493054524 33.591904063141556,71.7530281398067 33.29810040806478,72.60138220762019 33.23457529343432,72.64488725305273 33.12340634285647,72.6666397650697 33.0281186709326,72.79715468814538 32.79784013045719,73.38446867575112 32.63108670459769,73.71075198579638 32.36110496746551,74.51557731407956 32.162588984298054,75.02674510595534 32.1308264269901,75.13550370425219 32.11494514832157,75.53790897343424 32.08318259102816,75.67929403115704 31.439990805549314,77.49552153448894 30.97943372458394,78.6374356162778 30.780917741401936,79.20294772041234 29.85980357947119,81.4431984719049 29.407187137840083,82.72641495170683 29.065739646801376,83.59637816093891 29.026036450144602,83.68337385678024 28.81163918832317,83.75949499738635 28.708410877065035,83.91173701756634 28.501954254577868,84.5098272987234 28.081100370254717,85.65162110113306 27.82699991177651,86.22794768096355 27.787296715163393,86.27144382418919 27.74759351850662,86.29319188514637 27.660246485917014,86.29319188514637 26.17534693176276,86.04308875528659 25.778314965427853,86.06483689082961 25.555977064286708,86.1083331405971 25.262173409180832,86.21707364069152 24.74603185291926,86.55416806265566 24.412525001200265,86.89126077828405 24.341059247250087,86.97825216982892 24.341059247250087,87.0 24.738091213599546,86.64115989457059 25.03189486869087,86.4454281129947 25.214529573218897,86.34756200647098 25.730671129465918,86.14095530926716 26.00065286658355,86.11920719859336 26.30239716100914,86.13008125482884 27.660246485917014,86.29319188514637 27.74759351850662,86.27144382418919 27.787296715163393,86.22794768096355 28.041397173597943,85.64074696679018 28.613123205155716,84.09660185985558 28.740173434387543,83.84649048010033 28.79575790965464,83.78124387870776 28.994273892836645,83.66162494344462 29.089561564760515,83.49850786729075 30.129785316603375,80.70370655725856 30.209191709873267,80.52970726619242 30.582401758234482,79.43132624712598 30.86826477399154,78.68093671788665 31.471753362828167,77.22363434276485 32.07524195170845,75.67929403115704 32.107004509001854,75.54878475775331 32.09112323036243,75.09200028625492 32.28963921352988,74.56995705294685 32.61520542592916,73.48235383667634 32.924890359674464,72.74277350130433 32.988415474275826,72.67751601844066 33.171050178818405,72.65576350994525 33.22663465410005,72.60138220762019 33.63954789910349,71.55725258900202" stroke="#4dd2ff" stroke-linecap="round" stroke-linejoin="round" stroke-width="0.5"><title>2022-11-12 16.2km</title></polyline><polyline fill="none" points="134.07398568018107,55.18085633818919 134.36754176609975,55.19066398574432 134.56801909308706,55.17104868901879 134.89737470167165,55.09258743812825 135.19809069212351,55.04354910424445 135.2696897374699,55.00431840827878 135.35560859189718,54.925856939458754 135.41288782816264,54.847395368055004 135.42720763721445,54.77874140896529 135.37708830549673,54.60220229643892 135.35560859189718,54.435470435662864 135.35560859189718,54.17066005781089 135.31264916468353,53.76853836119699 135.16229116947216,53.503725041075086 135.04773269691213,53.18006272990533 134.89737470167165,52.8858227507626 134.80429594271118,52.65042972893207 134.73985680191254,52.55234903073142 134.66825775656616,52.27772222309068 134.5966587112198,52.169832776326075 134.4892601432075,52.110983905437024 134.36038186158112,52.071751292809495 133.76610978519602,52.09136760234833 133.19331742242503,52.1600246351918 133.11455847256002,52.15021649243863 133.0787589498941,52.12079205460395 133.05727923628,52.08155944838654 133.0,51.84616327245749 133.01431980906636,51.75788946851753 133.20763723150594,51.404792954399454 133.42243436754507,50.97322772744883 133.62291169450327,50.50242575903758 133.72315035801148,50.30625718228839 134.05250596658152,49.80602440960865 134.2458233890211,49.34502188839906 134.8186157517921,48.44262372531739 134.87589498808666,48.3935799581559 134.9188544152712,48.403388714796165 135.13365155132487,48.501476193006965 135.2195704057376,48.5505198719693 135.70644391408132,48.98210251903947 135.97136038185272,49.178275423622836 136.1002386634791,49.24693578874212 136.20763723150594,49.33521328565985 136.3293556085846,49.51176788990415 136.41527446299733,49.60985355676894 136.76610978521057,49.756981756516325 137.08830548926198,50.04142858666091 137.21718377087382,50.178747263609694 137.3675417661143,50.30625718228839 137.70405727923207,50.551467803077685 137.86157517900574,50.639743381310836 138.0978520286444,50.806485785971745 138.23389021480398,50.91437768336618 138.61336515512085,51.1988190286138 138.91408114558726,51.36555988019245 139.30787589498505,51.62057440427816 139.84486873509013,51.91482058578549 140.10262529832835,52.06194313562446 140.68257756563253,52.32676281660315 141.04773269691213,52.52292478999516 141.29832935560262,52.6111974688647 141.7136038186145,52.787742437198176 142.41527446301188,53.05255891602792 142.65871121718374,53.17025475385526 142.8949880668224,53.229102586203226 143.202863961822,53.40564573712982 143.70405727923207,53.63122789660338 143.83293556085846,53.660651594022056 144.2696897374699,53.84700134281229 144.60620525060222,54.0137348381686 144.93556085920136,54.14123661035774 145.0644391408132,54.17066005781089 145.23627684963867,54.258930313542805 145.41527446301188,54.317777078602376 145.64439140811737,54.42566266470749 146.32458233890065,54.64143325521218 146.74701670643117,54.88662616658257 147.50596658710856,55.22008691877636 147.81384248210816,55.38681660021757 148.33651551314688,55.57316099025047 149.05250596658152,55.77911990626308 149.4892601432075,55.93604051079819 149.84009546539164,56.083153204988776 150.3269689737499,56.328340227493754 150.66348448686767,56.46564452261373 151.02147971359955,56.59314108690887 151.27923627685232,56.661792970895476 151.630071599051,56.86774815180979 151.81622911694285,56.93639972174424 152.0167064439156,57.034473256906494 152.23150357995473,57.08350996439549 152.51789976134023,57.19139057986831 152.63245823390025,57.26004177967479 152.8114558472589,57.39734394376501 153.00477326968394,57.49541672585474 153.49880668258993,57.62291110302249 153.86396181384043,57.789634110740735 154.80190930787649,58.113271568618075 155.12410501194245,58.33883603773211 155.70405727923207,58.51536416149611 156.20525059664214,58.760541249997914 157.21479713603912,59.18224349990487 157.43675417661143,59.29012034381958 158.08114558474335,59.52548733040021 158.48210023865977,59.76085339417841 158.76849642004527,59.89814983855467 159.31980906920217,60.113900759621174 160.19331742243958,60.496366395858786 160.7804295942624,60.71211516703261 161.26730310262064,60.94747657854532 161.9188544152712,61.1828370673029 162.21241050120443,61.329936904232454 162.94272076372,61.65355527674183 163.8162291169574,61.967365365911974 164.3818615751661,62.1929153543133 165.47732696897583,62.55575486197267 165.8210023866268,62.712657753661915 166.07875894987956,62.810721852758434 166.2076372314914,62.86956023529274 166.66587112171692,63.02646230686878 167.17422434367472,63.26181464537876 167.52505966585886,63.47755347851489 167.8186157517921,63.614841423233884 168.0978520286444,63.712904048661585 168.5346062052413,63.83057898776315 168.7708830548945,63.92864126084896 169.3221957040514,64.19340859810472 169.75178997612966,64.33069490586786 170.1026252983138,64.41895022365497 170.53937947492523,64.56604213166065 171.00477326968394,64.76216411511632 171.31264916468353,64.8406127291164 171.67780429593404,64.9582854579021 172.01431980906636,65.13479411866138 172.54415274463827,65.34072023369663 172.75178997612966,65.47800391798955 173.145584725542,65.69373478763009 173.23866348447336,65.78198810180038 173.3460620525002,65.95849434099364 173.4033412887802,66.02713551608394 173.65393794748525,66.16441763084731 173.94033412887075,66.25267025315406 174.28400954653625,66.38014603411284 174.7494033412804,66.60567944515788 175.4439140811446,66.87043497709237 176.08114558471425,67.15480072953142 176.68257756561798,67.3901368854531 176.94749403341848,67.51761025143423 177.1408114558435,67.58624964409319 177.6491646778013,67.831389691597 177.96420047731954,67.94905655888579 178.97374701670196,68.33147228501912 179.8186157517921,68.5962202071023 180.04773269689758,68.71388557552564 180.95704057278635,69.36104098021315 181.3293556085846,69.58656319447618 181.55847255370463,69.68461606689016 181.68735083531647,69.68461606689016 181.75894988066284,69.70422662215788 181.84486873509013,69.78266877920396 181.8591885441565,69.82188981926811 181.85202863960876,69.8807213313703 181.90214797137014,69.91013706578451 182.0023866348347,69.9003318225914 182.15274463007518,69.81208456166496 182.27446300716838,69.80227930242472 182.61813842481934,69.84150032970501 182.92601431980438,69.9395527857996 183.06921241049713,69.98857895383117 183.44868735082855,70.17487802717733 183.6276849641872,70.29254030201992 183.92840095463907,70.43961782132101 184.2219570405723,70.61611036890463 184.45823389021098,70.73377177912334 184.95226730308787,70.92006854038482 185.05966587112925,70.99850910905661 185.23150357995473,71.06714452258893 185.4749403341266,71.15538993898735 185.797136038178,71.23383020022447 186.11217183769622,71.33188038271328 186.40572792362946,71.44954039030199 187.0,71.60642004184774 186.6133651551354,71.51817528829633 186.37708830549673,71.4397353984823 185.19570405727427,71.10636472364058 184.66587112170237,70.81221259115046 184.3007159904373,70.6749411028286 183.89260143197316,70.4690332819373 183.09785202862986,69.98857895383117 182.8186157517921,69.87091608334595 182.63245823390025,69.82188981926811 182.36038186156657,69.80227930242472 182.21718377088837,69.83169507527782 182.07398568018107,69.9395527857996 182.00954653938243,69.96896849143013 181.8806682577415,69.9395527857996 181.83054892600921,69.91013706578451 181.80906921239512,69.82188981926811 181.7374701670633,69.76305824952215 181.45823389021098,69.68461606689016 181.3866348448646,69.64539493713164 180.86396181384043,69.29240361644406 180.5346062052413,69.08649105436416 180.2625298329367,68.87077237477206 180.11933174224396,68.79232902638978 179.48210023865977,68.51777650002623 178.88066825775604,68.321666784017 177.79952267302724,67.89022315405236 177.39140811454854,67.72352819397202 177.01193317421712,67.54702714360974 176.70405727924663,67.4293594884075 176.53937947493978,67.3901368854531 176.3818615751661,67.32149726860371 176.13126491647563,67.17441211108962 174.5489260143222,66.52723313740717 174.32696897373535,66.41936929689837 173.71837708829844,66.1840293358764 173.5107398567925,66.07616487881023 173.38902147971385,65.98791199706466 173.23150357995473,65.77218218442431 173.12410501191334,65.68392885583671 172.87350835322286,65.52703372912583 172.71599045346375,65.44858601205124 172.40095465393097,65.26227227312847 171.86396181384043,65.06615192333629 171.58472553698812,64.91906124059096 171.01909307876485,64.7719701974529 170.88305489259074,64.7229397696683 170.58233890215342,64.57584824603327 170.41766109786113,64.53662377887304 170.09546539378061,64.42875636206736 169.36515513126506,64.2228271190179 168.90692124105408,64.00709096398714 168.5489260143222,63.83057898776315 167.94749403341848,63.62464769297367 167.5322195704066,63.45794088933326 167.31026252981974,63.34026521986743 167.03102625298197,63.183363968382764 166.7303102625301,63.046075036982074 166.07875894987956,62.80091545004689 165.369928400949,62.506722624220856 164.75417661099345,62.310593272759434 163.60143198090373,61.888912997390435 162.94272076372,61.60452230211013 162.5560859188554,61.46722976016099 162.44152744630992,61.398583371446875 161.94749403341848,61.20245039974907 161.73985680191254,61.07496362450547 161.27446300716838,60.86902287722478 160.2863961813855,60.496366395858786 160.15035799522593,60.45713926325334 159.69928400954814,60.25119639656623 159.2696897374699,60.113900759621174 158.83293556085846,59.88834296009372 158.62529832935252,59.74123959077406 158.45346062052704,59.67259122838004 158.0596658711147,59.456838721311215 157.19331742242503,59.093980483423366 156.74224343676178,58.8684188517218 156.4486873508431,58.74092711976118 155.16706443914154,58.24076463354504 154.83054892600921,58.06423570228071 154.52983293555735,57.95635665542795 154.02863961814728,57.819055769934494 153.58472553698812,57.64252559853776 153.11933174224396,57.5052239952347 152.6539379474998,57.27965639377726 152.2887828162202,57.14235396048389 152.13126491646108,57.10312463617811 151.9594272076356,57.122739301525144 151.8520286396233,57.07370262608674 151.6945107398642,56.95601444160275 151.1646778042923,56.65198556371979 150.6563245823345,56.416607310409745 150.19809069212351,56.24007301474194 149.73269689737936,56.00469314628572 149.33174224343384,55.82815763921826 148.25775656323822,55.49470026494237 147.88544152745453,55.337778506669565 147.68496420048177,55.27893274158123 147.33412887828308,55.122010419258004 146.89021479712392,54.95528000227932 146.61813842481934,54.8277799592106 146.3031026253011,54.64143325521218 145.59427207637054,54.4158548921514 144.79952267302724,54.111813148520014 144.01193317423167,53.73911471666361 143.44630071599386,53.51353296266461 143.202863961822,53.386029857138055 142.8377088305424,53.18006272990533 142.60859188545146,53.09179088761084 142.4081145584787,53.04275091913951 142.10739856802684,52.90543879425604 141.09069212412578,52.51311670656287 140.1885441527411,52.110983905437024 139.80190930787649,51.865779655712686 139.3651551312796,51.62057440427816 138.6706443914154,51.1988190286138 138.3269689737499,50.90456933706446" stroke="#4dd2ff" stroke-linecap="round" stroke-linejoin="round" stroke-width="0.5"><title>2022-11-05 14.4km</title></polyline><polyline fill="none" points="35.23950250976486,144.00539827652392 36.0315985979978,143.96199775517744 36.39596279858961,143.8968969465932 36.72864315562765,143.78839552796853 37.0613235126948,143.766695233644 37.59994885267224,143.67989402081002 37.71084230506676,143.63649339303083 37.99599689678871,143.44119039289944 38.13857419270789,143.28928786088363 38.20194187972811,143.15908555228089 38.21778380149044,142.72507693518128 38.15441611444112,142.11746248838608 38.059364583867136,141.44474325135525 37.980154975055484,141.11923271979322 37.93262920973939,140.68521743669407 37.615790774463676,140.09929455471865 37.52073924386059,139.79548167233588 36.8078527644393,138.42831510097312 36.61774970329134,137.9725897830067 36.411804720322834,137.40835627024353 36.26922742446186,137.14793999429094 36.14249205033411,137.01773166483326 35.79396977156284,136.8875232077553 35.191976744448766,136.90922462609888 33.702836098585976,137.01773166483326 33.10084307155921,137.12623861493194 32.41964043569169,137.1045372319786 31.05723516389844,137.16964137009927 30.56613558920799,137.2130441111658 30.106719858013093,137.2130441111658 29.124520708661294,137.3215509016445 28.966101491008885,137.1045372319786 28.918575725721894,136.97432886002935 28.902733803959563,136.64880737148633 28.855208038672572,136.45349409540358 28.82352419514791,136.36668810268748 28.601737290417077,136.0845682345971 28.427476151031442,135.97606043344422 28.253215011645807,135.95435886261112 27.413593158096774,135.9326572881546 26.193765182222705,135.6071332464344 25.417511015752098,135.56372998058214 24.783834145171568,135.62883487401996 24.641256849310594,135.56372998058214 24.562047240469838,135.39011677533563 24.514521475153742,135.08629311995173 24.340260335768107,134.5220473445661 24.308576492243446,134.3484327774786 24.308576492243446,133.84928963291168 24.150157274591038,133.21993255935377 24.055105744017055,132.72078517331101 23.94421229165164,132.2867424430733 24.007579978730064,131.483759652343 24.102631509274943,131.33184344306937 24.498679553420516,130.9194985704089 24.799676066963002,130.4420450131438 25.10067258044728,130.11650751250272 25.52840446808841,129.8343743665755 26.209607103985036,129.53053800054477 26.494761695736088,129.31351159924816 26.58981322631007,129.16159290730138 26.621497069863835,129.03137674732716 26.605655148101505,128.5322136177565 26.66902283517993,128.27177993579244 26.827442052803235,127.83772266417509 26.970019348693313,127.55558467678202 27.2234900968906,127.23004010035947 28.063111950439634,126.70916711812606 28.23737308982527,126.55724544676195 28.348266542190686,126.38362046674592 28.348266542190686,126.20999525964726 28.332424620428355,126.12318257096922 28.221531168092042,125.9495570233994 28.07895387217286,125.8627441645367 27.17596433160361,125.49378888089268 26.985861270455644,125.38527242594864 26.605655148101505,124.95120571939333 26.225449025718262,124.71246842594701 25.97197827749187,124.40862034085148 25.908610590471653,124.21328906182316 25.89276866868022,123.99625397042837 25.940294433996314,123.75751496016164 25.987820199283306,123.648997086304 26.732390522229252,122.49870217163698 27.698747749847826,121.23987744987244 27.98390234162798,120.93602141882002 28.063111950439634,120.80579719263187 28.094795793964295,120.58875653192808 28.031428106914973,119.91592822918028 28.031428106914973,119.22139221173711 28.07895387217286,118.39662597264396 28.15816348104272,118.24469479090476 28.269056933379034,118.20128584990744 29.393833378650015,118.28810371771397 30.835448259225814,118.09276343532838 31.025551320402883,118.15787689470744 31.358231677440926,118.33151263027685 32.13448584394064,118.33151263027685 32.81568847983726,118.46173928301141 34.05135837744456,118.41833041296923 34.71671909154975,118.26639925605559 34.98603176153847,118.17958137406094 35.271186353318626,118.0276499439642 35.76228592800908,117.8323092784849 36.491014329192694,117.41992248529277 36.79201084270608,117.20287629027735 37.077165434428025,116.89901102114527 37.36232002620818,116.37809751353052 37.66331653972156,116.0091158758296 37.774209992116084,115.81377224077005 37.94847113150172,115.40137917854008 38.01183881855104,114.92386982226162 38.32867725385586,114.18589743932534 38.407886862696614,113.86032008417533 38.42372878442984,113.38280518582906 38.39204494090518,112.7316457387351 38.42372878442984,112.55800268024905 38.53462223679526,112.27583222580142 38.53462223679526,112.14559950609691 38.5029383932706,111.79831162911432 38.39204494090518,111.08202751410136 38.07520650560036,110.14868180881604 37.69500038327533,109.38897697257926 37.188058886822546,108.67267985989747 36.88706237328006,108.19514630461344 36.52269817268825,107.67419864919793 36.01575667623547,107.10983638252947 35.857337458612164,106.84936068110983 35.603866710327566,106.11134341883007 35.271186353318626,104.98260320039117 35.128609057399444,104.61358989376458 35.11276713566622,104.09262818538991 35.191976744448766,102.9421638380154 35.128609057399444,102.44290262316645 35.128609057399444,102.20412485675479 35.207818666269304,101.85681097539782 35.52465710151591,100.96681500732666 35.65139247564366,100.4458389893698 35.79396977156284,100.16364279271511 35.93654706742382,99.98998329664755 36.8553785297845,98.90460629988229 37.124691199773224,98.49216071458068 37.409845791524276,98.01459054132283 37.8375776791363,97.55872650069068 38.01183881855104,97.4501872126857 38.5029383932706,97.27652416727506 39.16829910737579,96.97261329120374 39.59603099501692,96.75553366815438 40.166340178548126,96.3864974941971 41.180223171482794,96.06087648890389 41.62379698085715,95.99575219195685 41.97231925971573,96.03916839351587 42.289157694991445,96.01746029450442 43.303040687926114,95.71354653628077 43.71493065380491,95.67013022828905 44.34860752438544,95.49646485445555 44.96644247317454,95.43134028064378 46.24963813612703,95.43134028064378 48.467507183144335,95.32279925337934 50.13090896842186,95.04059216714813 50.875479291396914,94.75838448102877 51.81015267546172,94.25909248989774 52.50719723312068,93.95517470630875 52.82403566839639,93.73809014925791 53.457712539006025,93.19537720356311 53.600289834867,93.10854292637669 53.727025208994746,93.10854292637669 54.0121798007749,93.28221142398252 54.17059901839821,93.34733705199324 54.360702079575276,93.30391997018887 54.772592045454076,93.0434171812085 54.94685318483971,93.0 55.54884621192468,93.17366863961797 55.8656846472295,93.10854292637669 56.008261943090474,93.15196007207851 56.055787708377466,93.23879432087415 56.024103864852805,93.36904558754759 55.54884621192468,94.28080087641138 54.74090820190031,95.64842206900357 54.0121798007749,97.03773710895621 53.82207673956873,97.36335571836389 53.647815600183094,97.55872650069068 53.56860599134234,97.5804343476193 53.25176755603752,97.49360293852806 52.80819374663406,97.5804343476193 51.77846883193706,97.55872650069068 50.55864085606299,97.64555786720302 50.0992251248972,97.75409699550073 49.29128711493104,97.81922042985389 49.101184053724864,97.79751262196805 48.435823339619674,97.66726569994353 47.84967223435524,97.64555786720302 46.26548005788936,97.84092823418905 45.267438986717025,97.90605162602151 44.52286866380018,98.01459054132283 43.69908873201348,98.18825262128667 43.303040687926114,98.34020675488864 42.43173499091063,98.68752983577724 41.89310965090408,98.94802155019715 41.211907015007455,99.38217327170423 40.54654630087316,99.83803105131665 40.07128864794504,100.22876504523447 39.84950174324331,100.42413161088189 39.342560246790526,101.03193686580926 38.94651220267406,101.79168952151667 38.59798992384458,102.03046802961035 38.487096471508266,102.16071067127632 38.36036109738052,102.74680097748933 38.26530956677743,103.35459559941955 38.23362572325277,104.63529658722109 38.32867725385586,105.22137596989342 38.756409141467884,106.54547171699232 39.120773342088796,107.37031157290039 39.32671832499909,108.30367680895142 39.4851375426515,108.73779793895665 39.56434715149226,108.88973999909649 39.77029213446076,109.12850574236654 39.897027508559404,109.30215328592749 40.07128864794504,109.67115356196882 40.22970786559745,109.93162372770894 40.356443239725195,110.23550494185474 40.5148624573485,110.47426826511219 40.594072066189256,110.66961975565937 40.720807440317,111.16885003694915 40.89506857973174,111.62466735005728 41.005962032068055,112.38435939459305 41.29111662381911,113.59985762521683 41.27527470205678,113.90373044431908 41.1326974061667,114.57658921176335 41.05348779735505,114.72852459065325 40.784175127366325,114.94557483024255 40.68912359679234,115.11921476644056 40.65743975323858,115.22773961133498 40.54654630087316,115.81377224077005 40.530704379139934,116.39980228377681 40.41981092677452,116.96412506594788 40.324759396200534,117.15946700863424 39.88118558676797,117.81060474232072 39.64355676030391,118.11446792531933 38.72472529797233,119.00434896122897 38.10689034915413,119.35161799166235 37.346478104474954,119.89422403363278 36.99795582564548,120.06785749875417 36.47517240740126,120.30660314258421 35.857337458612164,120.4151237479382 35.28702827505185,120.54534835719096 33.465207272121916,120.78409314254532 32.26122121803928,120.80579719263187 31.659228191012517,120.7406850316911 30.296822919219267,120.69727690666332 29.599778361589415,120.7406850316911 28.966101491008885,120.7406850316911 28.570053446892416,120.84920528228395 28.28489885511226,120.97942946583498 28.031428106914973,121.13135751867958 27.65122198453173,121.43521310276992 27.619538141036173,121.5437327857071 27.667063906323165,121.97781063070579 27.698747749847826,122.08632987023157 27.793799280450912,122.21655284063308 28.64926305570407,122.73744344507577 29.362149535125354,123.21492470419616 30.3126648410107,123.7141078212735 30.423558293347014,123.84432919540268 30.66118711978197,124.40862034085148 30.835448259225814,124.62565475828887 31.627544347458752,125.2333492400212 32.10280200038687,125.7542280110356 32.51469196626567,125.9712602293148 33.13252691505477,126.4487298608874 33.65531033332809,126.79597942373948 33.782045707455836,126.92619777568325 33.92462300331681,127.16493108935538 34.257303360354854,127.40366397378966 34.47909026508569,127.68580228392966 34.60582563918433,127.79431685896998 35.52465710151591,128.3585912198905 36.2375435809372,128.5539164015645 36.72864315562765,128.770944044285 36.87122045151773,128.90116045961622 36.99795582564548,128.96626861940604 37.29895233915886,129.0747821481491 37.59994885267224,129.22670093939814 38.39204494090518,129.8343743665755 39.00987988972338,130.37693757683155 39.77029213446076,130.87609377254557 39.928711352084065,131.0280105031561 40.29307555264677,131.57056883673067 40.530704379139934,131.74418703542324 40.83170089268242,131.7658892942709 40.97427818851429,131.6790802375035 41.16438124972046,131.28843877994223 41.57627121559926,130.81098654904054 41.48121968499618,130.8326889603777 40.86338473617798,131.44035503885243 39.77029213446076,132.24333809201198 37.821735757403076,133.95779917179607 37.52073924386059,134.28332725630025 37.29895233915886,134.58715274861606 37.045481590903364,135.12969654184417 36.966271982120816,135.58543161523994 36.99795582564548,135.86755254365562 37.108849277952686,136.1062697842135 37.42568771328661,136.45349409540358 37.42568771328661,136.56200150644872 37.33063618268352,136.86582178580284 37.31479426092119,137.06113445555093 37.28311041742563,137.14793999429094 37.01379774740781,137.38665493337612 36.966271982120816,137.53856421668024 36.95043006032938,137.7338758970145 37.188058886822546,138.45001626756857 37.74252614856232,139.46996709854284 37.900945366185624,139.83888355524687 37.96431305326405,140.07759365756647 38.027680740342475,140.7069182345731 38.027680740342475,141.2711377338419 38.07520650560036,142.0957619210676 38.20194187972811,143.11568475437525 38.170258036174346,143.31098823320644 38.059364583867136,143.52799176172994 37.8851034444524,143.78839552796853 37.66331653972156,143.91859721962828 36.11080820680945,144.00539827652392 35.36623788392171,144.02709853190754 34.39988065621583,144.24410089039884 33.32262997626094,144.7215048311191 32.92658193214447,144.9819062572933 32.340430826850934,145.2857072759798 32.21369545272319,145.39420747128315 32.00775046978379,145.67630756449944 31.92854086100124,145.80650740546116 31.785963565082056,146.24050595342123 31.675070112745743,146.71790271824284 31.659228191012517,147.0" stroke="#4dd2ff" stroke-linecap="round" stroke-linejoin="round" stroke-width="0.5"><title>2022-10-14 10.2km</title></polyline><polyline fill="none" points="139.76116229622858,126.16901916642382 141.49610205525823,126.06417267561483 141.71296952516423,125.99427495796408 141.87880935508292,125.83700492625212 142.00637845495658,125.60983669439156 142.0318922749575,125.36519344361295 141.91708008504065,124.64873498976522 141.9043231750402,124.38661484405748 141.82778171509563,123.91479696289753 141.86605244505336,123.46045185076218 141.84053862506698,123.33812783693429 141.50885896527325,122.62165580350847 141.24096385542362,122.16730519769044 140.97306874555943,121.66052724481415 140.81998582565575,121.31102380917582 140.71793054571026,120.85666763521294 140.65414599573705,120.69939004834305 140.55209071579156,120.57706287640758 140.33522324591468,120.45473556457 140.15662650602462,120.41978487834422 138.03897944719938,120.59453819523333 137.96243798724026,120.52463690272998 137.8221119773225,120.31493275109824 137.75832742733473,120.12270358421665 137.74557051736338,119.96542491792934 137.78384124733566,119.84309690647933 138.1793054571026,119.21397920873278 138.51098511694,118.49747954520717 138.76612331680371,117.86835393144429 139.25088589651568,116.92465857116622 139.58256555633852,116.34795175148611 139.7739192062145,115.96347881058318 139.91424521616136,115.57900448733562 140.4245216158597,114.82752795519627 140.81998582565575,114.11099890186597 140.93479801558715,113.9711877951122 141.01133947554627,113.90128217313031 141.18993621543632,113.9537113938859 141.6236711551901,114.18090438668878 142.37632884476625,114.86248046913533 143.38412473423523,115.57900448733562 143.6520198440703,115.94600273493415 143.90715804393403,116.19066753362858 144.111268603825,116.29552370459714 144.4939759036206,116.4353317726127 144.8511693834007,116.69747140743857 145.34868887314224,117.15184525232326 146.64989369240357,118.06058715054678 146.95605953224003,118.2353443225802 147.64493267185753,118.79456535406644 148.6527285612974,119.38873449599487 149.15024805100984,119.72076875508355 149.4946846208186,119.87804778118152 150.65556343019125,120.57706287640758 151.20411055986187,120.7867665140293 151.66335931960202,121.01394499078742 154.54642097803298,122.2372054165753 155.37562012753915,122.4818558226616 155.68178596739017,122.67408074922423 156.1793054571026,122.95368002550094 158.3734939759015,123.89732218658173 159.4705882352864,124.26429188954353 159.92983699504111,124.49146297945117 160.38908575479581,124.75358286818664 161.3458540042193,124.96327831660892 161.6520198440703,125.06812588665343 162.53224663360743,125.59236219505692 163.46350106307364,125.9593260820111 164.20340184266388,126.34376308933133 165.59390503187024,126.86799314509699 166.16796598155634,127.02526166071038 167.03543586107844,127.32232378159097 167.58398299079272,127.56696255572751 168.4769666903012,128.02129022305598 169.2168674698769,128.3008755206247 170.0333097094117,128.66783011452208 170.69666902904282,128.92993976797152 170.78596739901695,128.94741372206045 170.93905031890608,128.87751788869355 171.1176470588107,128.68530411145184 171.71722182848316,128.2135051936566 172.13819985825103,127.81160077027016 172.36782423812838,127.63685924551828 172.635719347978,127.51454000835656 173.3118355776096,127.37474642313464 175.21261516652885,126.32628870984627 175.3401842664607,126.30881432757451 175.51878100637987,126.48355802212609 175.64635010628263,126.5359810747832 175.73564847625676,126.51850672677392 177.59815733518917,125.90690274669032 178.00637845498568,125.73215810995316 179.25655563427426,125.2778207183801 179.57547838412574,125.1380242095911 180.69808646349702,124.89337987946783 181.39971651310043,124.84095602166053 182.02480510277383,124.91085449307138 182.85400425229454,125.05065129876311 183.2494684620615,125.17297335388139 183.47909284193884,125.2778207183801 183.95109851167945,125.53993867986719 184.3720765414473,125.90690274669032 184.66548547126877,126.09912151729077 184.83132530118746,126.18649357154209 185.03543586107844,126.27386555439443 186.08150248050515,126.39618621055706 186.40042523032753,126.37871183965035 186.6428065201908,126.34376308933133 186.8341601700813,126.25639116356615 186.94897236002726,126.16901916642382 186.9872430900141,126.09912151729077 187.0,126.02922382250108 187.0,125.99427495796408 186.94897236002726,125.94185163976363 186.84691708005266,125.92437719467125 185.87739192059962,125.97680052139185 185.71155209071003,125.9593260820111 185.54571226080589,125.88942829588632 185.328844790929,125.69720914839127 184.8568391211884,125.41761704446253 184.14245216156996,124.84095602166053 183.7980155917612,124.59631101198465 183.61941885187116,124.50893765866931 183.2494684620615,124.4215642339841 183.01984408221324,124.31671603007999 182.5733522324299,123.9672212747173 182.17788802266296,123.54782606070512 182.1141034727043,123.42550214682706 182.1141034727043,123.3206529664094 182.15237420266203,123.21580368321156 182.30545712259482,123.00610480846808 182.42026931254077,122.95368002550094 182.70092133239086,122.93620509216271 182.7391920623486,122.90125521687878 182.72643515236268,122.77893056352332 183.01984408221324,120.85666763521294 182.72643515236268,120.90909344608372 182.39475549253984,120.99646974045027 181.79518072286737,121.31102380917582 181.27214741316857,121.62557695265423 180.9021970233589,121.99255445072777 180.4429482636333,122.25468046412425 180.25159461372823,122.44690579894814 180.14953933381184,122.67408074922423 180.0347271438659,122.79640552256024 179.9199149539345,122.90125521687878 179.58823529411166,123.04105464948952 179.46066619419435,123.14590410401433 179.23104181430244,123.49540154333226 178.92487597448053,123.89732218658173 178.73352232457546,124.0545950706146 178.59319631464314,124.07206982121716 177.30474840536772,124.03712031713076 176.73068745568162,124.07206982121716 176.39900779588788,124.0545950706146 175.82494684620178,124.14196879512747 175.56980864636716,124.26429188954353 175.45499645640666,124.35166544275853 175.40396881644847,124.40408954046143 175.35294117649028,124.59631101198465 175.31467044647434,125.01570211450598 175.3274273564748,126.09912151729077 175.30191353647388,126.22144237325847 175.2253720765293,126.34376308933133 174.79163713674643,126.57092976229615 174.43444365696632,126.72819871479442 173.45216158751282,127.28737533961248 173.24805102762184,127.35727221215348 172.71226080793713,127.47959162919142 172.50815024804615,127.56696255572751 171.76824946844135,128.19603111967444 171.257973068743,128.49308998874767 170.78596739901695,128.92993976797152 170.73493975900055,128.964887673239 170.67115520905645,128.94741372206045 170.1991495393304,128.66783011452208 169.0510276399582,128.19603111967444 168.7193479801499,128.09118661598768 168.00496102053148,127.75917834279244 167.23954642098397,127.33979799832741 165.04535790218506,126.62335277214152 164.59886605243082,126.51850672677392 164.42026931254077,126.43113494372665 164.1651311126916,126.41366057856794 164.06307583273156,126.39618621055706 163.29766123318404,125.97680052139185 161.94542877390631,125.38266798003315 161.38412473423523,125.03317670807155 160.22324592486257,124.63126033334993 159.6874557051633,124.38661484405748 158.9475549255876,124.12449405591906 158.4245216158597,123.86237262538634 157.9525159461191,123.74004907128983 156.5747696668841,123.0585295656856 155.8221119773225,122.79640552256024 155.06945428771724,122.37700571715686 154.6867469879362,122.28963055065833 154.31679659814108,122.16730519769044 153.46208362861944,121.80032829924312 152.9007795889338,121.50325084013457 152.23742026930267,121.29354860742751 150.3621545003407,120.40230953092396 149.40538625084446,119.8256214648136 148.8568391211884,119.52853852019325 147.9638554216799,118.96932132675283 146.70092133236176,118.06058715054678 146.15237420267658,117.7110719497141 145.39971651310043,117.13436937092047 144.8511693834007,116.59261563057953 144.65981573352474,116.45280776824802 144.4429482636624,116.31299972306442 143.94542877390631,116.10328731266054 143.817859673989,116.01590702022077 143.6520198440703,115.75376571468223 143.44790928416478,115.54405220753688 142.73352232460456,115.08967153129197 142.08291991493024,114.51295481568377 141.54712969524553,114.0935225235371 141.30474840536772,113.9537113938859 140.36073706590105,113.58670630892448 139.88873139616044,113.42941802979476 139.3274273564748,113.0973642362951 139.1105598865979,112.94007523739856 138.9319631466933,112.71287960837799 138.71509567681642,112.53811341139226 138.62579730688594,112.38082358990505 138.60028348688502,112.22353353705694 138.6768249468587,111.99633638563682 138.63855421687185,111.68175491753209 138.63855421687185,111.50698703533999 138.7023387668014,111.38464934787044 138.76612331680371,111.34969569717941 139.1105598865979,111.2797883614985 139.56980864633806,111.05258920497727 139.69737774628447,111.03511232675373 139.78667611621495,111.07006608029042 139.83770375620225,111.1399735530722 139.86321757617407,111.19240412768704 139.86321757617407,111.31474203508697 139.21261516652885,111.94390620524064 138.84266477676283,112.32839359798527 138.47271438692405,112.87016894140106 137.54145995745785,114.14595164996717 137.46491849751328,114.21585711202351 137.3628632175678,114.23333347036532 137.12048192768998,114.21585711202351 137.0311835577595,114.23333347036532 136.91637136784266,114.3207152193063 136.7377746279235,114.53043112550222 136.6739900779503,114.652765214174 136.64847625794937,115.03724286750366 136.55917788800434,115.35181446477509 136.35506732811336,115.82367012568284 136.13819985823648,116.17319149517425 135.9978738483187,116.59261563057953 135.8065201984282,117.06446581670752 135.76824946847046,117.30912805652042 135.74273564846953,117.53631392090028 135.78100637844182,117.90330545152392 135.76824946847046,118.28777141853789 135.6917080084968,118.61980909587146 135.61516654853767,118.79456535406644 135.52586817859265,118.8994189719524 135.10489014881023,119.23145475028286 134.91353649894882,119.40621000900865 134.78596739901695,119.59844046377839 134.68391211907146,119.84309690647933 134.64564138905553,120.01785116575775 134.69666902904282,120.41978487834422 134.74769666903012,120.6294888243574 134.83699503897515,120.71686534721084 135.15591778876842,120.64696413461934 136.58469170800527,120.52463690272998 136.99291282775812,120.54211223016318 137.0949681077036,120.6294888243574 137.0949681077036,120.7343406431828 136.81431608786806,121.29354860742751 136.48263642803067,121.88770386550459 135.88306165840186,123.00610480846808 135.4875974486058,123.72257426643046 135.1304039688257,124.26429188954353 134.46704464916547,125.53993867986719 133.88022678952257,126.55345541995484 133.26789510983508,127.70675588967424 133.0,128.42319385847804 133.0,128.52803803675488 133.2423812898778,128.61540810678707 133.66335931960202,128.84256995487522" stroke="#4dd2ff" stroke-linecap="round" stroke-linejoin="round" stroke-width="0.5"><title>2022-10-07 10.6km</title></polyline><polyline fill="none" points="20.6429107276781,186.28027327228483 21.574643660889706,186.18778868983645 22.0337584396475,186.058310147484 22.26331582898274,185.9473284219057 22.438859714922728,185.79935261850187 22.54688672168413,185.59588557302777 22.587396849237848,185.37392110637302 22.573893473367207,184.85600232502475 22.47936984244734,183.57969235695055 22.45236309079337,183.43171345877636 22.384846211527474,183.2837343671854 22.155288822192233,182.91378579184675 21.912228057015454,182.3033679994187 21.412603150791256,181.26749997109437 21.19654913726845,180.56458412510256 21.102025506377686,180.41660128555668 20.953488372120773,180.28711614228087 20.76444111028104,180.17612875869963 20.629407351836562,180.13913294001395 20.359339834947605,180.1206350261491 18.87396849214565,180.19462666354957 18.22580645160633,180.28711614228087 18.090772693190956,180.26861825255764 18.023255813954165,180.23162246413267 17.86121530382661,180.08363918929535 17.834208552143537,179.99114954433753 18.077269317320315,179.51020217225596 18.468867216812214,178.86276979084505 18.819954988750396,178.17833724697266 19.252063015737804,177.25342182927125 19.981245311326347,176.0695190671031 20.170292573136976,175.71804555092967 20.413353338313755,175.21858130856708 20.71042760691489,174.46013139305433 20.83195798948873,174.21964621238294 21.291072768188315,173.4981876048405 21.426106526632793,173.36869454751286 21.493623405869585,173.35019552725862 21.750187546858797,173.4426905984219 22.0337584396475,173.60918153607054 23.114028507116018,174.47863023191894 23.883720930229174,175.0335939928991 23.9647411852784,175.12608768847713 24.22130532632582,175.4590643670308 24.39684921229491,175.62555233893363 24.572393098293105,175.73654418422666 24.963990997726796,175.86603453280986 25.180045011249604,176.01402332128055 25.47711927985074,176.23600614118186 26.00375093772891,176.73546589435864 27.529632408113685,177.82687027849897 28.420855213829782,178.52980312425643 29.690172543138033,179.3252218697089 31.391597899462795,180.26861825255764 31.958739684923785,180.52758843334595 32.8229557389277,180.97153593636904 34.915978994744364,181.87792334909318 35.3210802700487,182.0813970770323 36.0367591897957,182.35886066198873 36.36084021005081,182.54383600754227 36.779444861225784,182.67331856957026 39.15603900977294,183.56119500526984 39.6421605401265,183.78316302617895 40.587396849208744,184.24559500510804 41.31657914479729,184.5045560882936 41.76219054762623,184.7265222594724 42.977494373568334,185.0779678071849 43.855213803472,185.55889152547024 44.84096024004975,186.00281929827906 45.637659414845984,186.39125467150006 46.36684171043453,186.68720453750575 46.7854463615804,186.92766323397518 48.0007501875225,187.1866181821024 49.027006751683075,187.50106267985393 49.445611402828945,187.6675329427526 50.66091522880015,188.2779218124997 51.3225806451519,188.53687367205566 52.86196549140732,189.18425072972605 53.024006001476664,189.18425072972605 53.11852963239653,189.11026496763225 53.33458364591934,188.90680387258908 54.05026256563724,188.4258943762252 54.71192798198899,187.85249961447698 54.954988747194875,187.7230229760171 55.5356339084974,187.53805609277333 55.87321830456494,187.39008236858353 57.08852213053615,186.7426950512745 57.6421605401556,186.42824844707502 57.73668417104636,186.33576398551668 57.804201050283154,186.2432794484048 57.81770442609559,186.13229790412151 57.804201050283154,185.22594455348008 57.83120780199533,184.87449946517881 57.87171792949084,184.6155392282526 57.979744936252246,184.3750756207737 58.168792198062874,184.20860051630007 58.398349587398116,184.13461150244984 58.762940735177835,184.0791197102808 60.39684921229491,184.0791197102808 61.423105776455486,184.0051306118039 61.558139534899965,183.9311414649419 61.62565641410765,183.83865496336512 61.787696924235206,183.57969235695055 61.949737434333656,183.39471870400303 62.13878469617339,183.08026280030754 62.24681170293479,182.96927815520758 62.43585896474542,182.858293401252 62.69242310579284,182.76580602312606 62.94898724681116,182.50684096257464 63.09752438109717,182.2478753096002 63.19204801201704,182.13688984837063 63.75918979741982,181.84092808659625 64.1777944485948,181.41548169834277 65.35258814707049,180.76806021355878 65.87921980494866,180.50909058292018 66.01425356339314,180.50909058292018 66.37884471117286,180.67557112778013 66.62190547637874,180.7310645883481 66.91897974492167,180.71256677116617 66.95948987247539,180.6940689510011 67.0,180.56458412510256 66.94598649663385,180.28711614228087 66.8919729932677,180.19462666354957 66.79744936234783,180.08363918929535 66.32483120780671,179.8801618705911 66.1762940735207,179.8801618705911 66.08177044262993,179.91715777392528 65.98724681173917,180.04664334036352 65.82520630158251,180.3796055454368 65.71717929485021,180.50909058292018 64.20480120027787,181.3414908589475 63.894223555893404,181.67444925553718 63.786196549132,181.76693752523715 63.30007501874934,181.95191383797646 63.15153788446332,182.04440188093577 63.05701425357256,182.17388501425012 62.94898724681116,182.41435329741944 62.8949737434159,182.46984590554348 62.63840960242669,182.67331856957026 62.395348837191705,182.74730853847723 62.233308327093255,182.858293401252 61.612153038266115,183.7276710617225 61.490622655663174,183.83865496336512 61.382595648930874,183.89414687341923 60.0727681920398,183.9866333296086 58.77644411104848,183.94963875618123 58.398349587398116,184.0236278909506 58.12828207050916,184.1531087604817 58.020255063747754,184.22709776222473 57.92573143285699,184.35657839899795 57.858214553649304,184.5045560882936 57.804201050283154,184.7080250951767 57.76369092272944,184.98548224248952 57.7501875468879,185.31842992168094 57.76369092272944,186.15079483568115 57.7501875468879,186.206285612403 57.70967741936329,186.28027327228483 57.02100525129936,186.68720453750575 55.832708177069435,187.31609543401282 55.52213053262676,187.42707581777358 55.130532633163966,187.51955938780884 54.88747186798719,187.6120428823342 54.59039759938605,187.83400296087348 54.07726931734942,188.31491497155366 53.57764441109612,188.62935633549205 53.05101275318884,189.0547756143569 52.91597899477347,189.0547756143569 50.7149287321663,188.22243205124687 50.40435108775273,188.07445922157785 49.7156789197179,187.68602962354635 48.864966241584625,187.2791019485303 47.10952738186461,186.68720453750575 45.73218304576585,186.29877017972467 43.76069017255213,185.4294122638239 43.03150787696359,185.0409735903886 41.829707426863024,184.67103075747582 41.3570892723219,184.4490644774487 40.50637659415952,184.11611424139846 39.87171792949084,183.82015765397227 38.251312828215305,183.15425250330736 37.30607651913306,182.72881105078704 36.99549887471949,182.5253384865573 36.414853713446064,182.2663728759071 35.29407351836562,181.87792334909318 33.174043510865886,181.0270292518253 31.472618154541124,180.250120359844 30.473368342092726,179.6026922102319 29.771192798187258,179.25122966407798 28.677419354848098,178.60379580142035 26.584396099031437,177.1054346611345 26.165791447885567,176.77246282549459 25.490622655663174,176.10651621579018 25.058514628675766,175.8290373055279 24.693923480866943,175.6995469146059 24.423855963977985,175.5145603848796 23.991747936990578,174.99659649342357 23.22205551387742,174.42313370620104 22.0337584396475,173.4426905984219 21.790697674412513,173.3131974776261 21.1425356339023,173.05421079161897 20.561890472628875,172.8692199388388 19.900225056277122,172.49923732624302 19.589647411863552,172.31424556642742 19.23855963992537,171.94426113985537 19.0360090022441,171.77776775333768 18.95498874722398,171.64827272787807 18.9279819955118,171.5557761904056 18.995498874719488,171.2412873976209 18.995498874719488,170.90829831172596 19.0360090022441,170.70480449922616 19.1440360089764,170.61230719077867 19.333083270816132,170.5568087694046 19.37359339836985,170.5198098067558 19.21155288821319,170.5013103208621 19.0360090022441,170.59380771998985 18.941485371324234,170.7418034014263 18.90097524379962,170.9452971474384 18.90097524379962,171.27828612447047 18.833458364591934,171.50027823166602 18.87396849214565,171.629773426459 19.23855963992537,171.98125963693747 19.40060015002382,172.22174957311654 19.57614403599291,172.36974312613893 20.27831957989838,172.7952235130433 20.966991747933207,173.03571171991643 21.183045761456015,173.14670610457688 21.250562640663702,173.20220325616538 21.277569392346777,173.27619941589364 21.291072768188315,173.33169650397758 21.26406601650524,173.38719356476213 20.77794448612258,174.31214057307807 20.34583645913517,175.07059148017288 20.15678919729544,175.53305905146408 19.71117779443739,176.19900903474627 19.23855963992537,177.0684378388687 19.06301575395628,177.41990716219152 18.765941485384246,178.15983901270374 18.23930982744787,179.15873933890543 17.888222055509686,179.75067611370469 17.753188297065208,179.9726516062874 17.645161290303804,180.04664334036352 17.17254313576268,180.04664334036352 17.213053263316397,180.3611076708621 17.19954988747486,180.52758843334595 17.14553638410871,180.71256677116617 17.010502625693334,181.04552701758075 16.69992498125066,181.63745392645797 16.011252813215833,183.00627304896625 14.903975994006032,184.81900803569442 14.255813953466713,186.15079483568115 13.891222805686994,186.7611918831317 13.41860465114587,187.59354618946236 13.040510127553716,188.4258943762252 13.0,188.55537021080818 13.013503375841537,188.6478528591615 13.121530382573837,188.74033543193218 13.864216054003919,189.1472578547182 14.012753188289935,189.18425072972605 14.174793698417488,189.16575429371005 14.309827456861967,189.20274716267159 14.863465866452316,189.48019329455565 14.944486121530645,189.48019329455565 15.160540135024348,189.38771132611146 15.53863465867471,189.29522928220103 15.687171792960726,189.35071851764224 15.889722430612892,189.48019329455565 15.95723930982058,189.49868967914517 16.75393848461681,189.48019329455565 16.83495873969514,189.42470412259718 16.94298574642744,189.31372569702216 17.024006001505768,189.11026496763225 17.051012753188843,188.92530035090022" stroke="#4dd2ff" stroke-linecap="round" stroke-linejoin="round" stroke-width="0.5"><title>2022-10-01 10.2km</title></polyline><polyline fill="none" points="156.67195955911302,194.8202790100986 157.32196745771216,194.78466379512247 158.04997630414437,194.78466379512247 158.38798041144037,194.71343333025288 158.75198483470012,194.71343333025288 158.9859876781993,194.6422028188972 159.19399020573474,194.48193399798765 159.31099162748433,194.33947262607398 159.3889925753465,194.17920336004318 159.41499289125204,194.05454932353314 159.42799304926302,193.9120873929278 159.2719911535678,191.6682874228718 159.18099004775286,191.5436305145122 159.02498815208673,191.47239793140034 158.97298752021743,191.3833571370924 158.90798673036625,191.11623431768385 158.27097898969078,189.92307773076027 158.0369761461916,189.26416476313898 157.94597504040576,189.1216965706626 157.85497393459082,189.05046240459342 157.59497077512788,188.92580250194442 157.33496761569404,188.9079939328003 156.07395229235408,188.97922819199448 155.31994312995812,189.08607949349243 155.2679424980597,189.05046240459342 155.1119406023936,188.81895104330033 155.07294012847706,188.7477166793833 155.0469398125133,188.5518219384321 155.05993997049518,188.39154416121892 155.28094265601248,187.99975304676627 155.46294486764236,187.73262193394476 155.6189467633085,187.34082845068042 155.82694929087302,187.02026909856795 156.0089515025029,186.52161934333708 156.21695403003832,186.05858538473694 156.48995734748314,185.72021317085455 156.7369603489351,185.25717580726632 157.0749644562311,184.50918821786763 157.1919658780098,184.17081119325303 157.581970617146,183.60091067155736 157.84197377657983,183.19129283075745 158.23197851577424,182.47891030993196 158.257978831738,182.3186236009642 158.24497867375612,182.26519464561716 158.1929780418577,182.21176566401118 157.72497235485935,181.98023977453704 157.13996524608228,181.71309390616807 157.3609679316287,181.89119122448756 157.82897361862706,182.0336688696043 158.2059781998396,182.21176566401118 158.34897993752384,182.17614632841287 158.41398072740412,182.10490762231348 158.6479835709033,181.64185489732336 159.59699510291102,180.11020494315744 159.7789973145118,179.64714374227333 160.27300331747392,178.7032052005452 160.87101058420376,177.652396074227 161.4170172190352,176.7618719331149 161.72902101039654,176.13850070427725 162.88603506991058,174.03682285375544 163.01603664967115,173.75184646507842 163.00303649168927,173.6271690606809 162.69103270035703,173.46686933105957 162.4830301727925,173.2887582438707 162.2620274872461,173.1462691645138 161.67702037852723,172.8256680546765 161.49501816686825,172.68317836971255 161.48201800888637,172.5406884984186 161.70302069443278,172.07759512998746 161.69002053648,172.00634982168413 161.61201958861784,172.04197248160926 161.31301595523837,172.36257589731395 161.2350150074053,172.39819844079466 161.20901469147066,172.38038717052405 161.3000157972856,172.1132177666659 161.352016429184,171.57887699364073 161.56001895674854,171.11577953753294 161.65102006253437,170.97328761657263 161.83302227416425,170.77736092103441 161.87202274808078,170.68830321570567 161.87202274808078,170.4033180694969 161.92402337995009,169.95802728629496 161.92402337995009,169.61960507409822 161.79402180021862,168.90713382302783 161.72902101039654,168.3371534679609 161.66402022051625,168.0877861250483 161.521018482832,167.7671701312138 161.43001737701707,167.46436527086917 161.352016429184,167.23280804511887 161.19601453351788,166.98343817474233 161.04001263785176,166.59157008249895 160.70200853055576,166.0037653015679 160.53300647690776,165.6475184364681 160.15600189572433,164.41845781068696 160.0000000000291,164.06220576218766 159.85699826234486,163.56345093733398 159.68799620869686,163.11813220023032 159.59699510291102,162.72625020587293 159.47999368113233,161.79997807080508 159.46699352317955,161.4259043993443 159.51899415504886,161.01620319033827 159.73999684059527,160.23242267153546 159.80499763047555,159.893970249861 160.0000000000291,159.60895686877484 160.1690020536771,159.2170622524136 160.29900363340857,159.07455476966425 160.53300647690776,158.94986056935886 160.9100110581203,158.9142336287623 161.02701247989899,158.8607931960796 161.65102006253437,158.41545523734385 162.52203064670903,157.86323364032432 163.2630396511231,157.50696015690482 163.87404707583482,157.27538176787493 164.96606034552678,157.04380288660468 167.39708988639177,156.77659587347443 168.47610299810185,156.8834787573869 169.26911263441434,156.84785114110855 169.802119111293,156.75878204932087 171.12813522445504,156.74096822224237 171.67414185931557,156.68752672347182 171.9991458086006,156.59845750067325 172.220148494147,156.59845750067325 172.35015007387847,156.45594659267226 173.63716571315308,154.19356095842522 173.81916792475386,153.83727547425224 174.0791710842168,153.21377307326475 174.09217124216957,153.16032984430058 174.0271704523475,153.0712577377417 173.6241655551712,153.0534433076682 173.234160816035,153.0 173.10415923630353,153.03562887472071 172.79215544497129,153.21377307326475 172.64915370722883,153.24940187804168 172.54515244349022,153.23158747708658 172.220148494147,153.12470101040526 172.12914738836116,153.12470101040526 172.01214596661157,153.19595866654709 171.46613933175104,153.60568928477005 170.82913159110467,153.94416124188137 170.0751224286796,154.42514589831262 169.72411816343083,154.5498452774409 169.15211121266475,154.69235867880343 168.1640992067405,154.83487189374137 167.30608878057683,154.81705775209412 166.3570772485691,154.97738492227654 165.77207013982115,154.99519903770852 164.8490589237481,155.0486413665858 164.25105165701825,155.0486413665858 163.74404549610335,155.1020836692769 163.48404233666952,155.15552594573091 163.0420369656058,155.36929478937236 162.78203380614286,155.38710884073225 162.40502922493033,155.35148073511664 162.00202432778315,155.42273693479365 161.54701879873755,155.6008772300338 161.26101532336907,155.65431926183373 161.014012321888,155.761203246715 160.52000631892588,156.11748243909824 159.45399336519768,156.68752672347182 159.02498815208673,157.00817532270594 158.72598451873637,157.328822978292 158.43998104333878,157.72072438676696 158.16697772592306,158.16606518531626 157.8679740925436,158.5045229746902 157.64697140702629,158.80735273709433 157.38696824753424,159.4130097368252 157.0749644562311,160.60650044067006 157.04896414026734,160.8558849065521 157.03596398231457,161.3012128900882 157.0229638243618,161.55059576585336 157.03596398231457,161.78216506794706 156.99696350839804,162.1562375162539 157.00996366637992,162.40561843491741 157.2959671417775,163.31407266877795 157.39996840551612,163.7950159613756 157.50396966934204,164.08001839229837 157.82897361862706,164.65002101756545 158.24497867375612,165.13095841317408 158.34897993752384,165.32689526204194 158.66098372885608,165.75439261831343 159.06398862603237,166.36001100188878 159.25899099561502,166.73406773366878 159.50599399709608,167.32186857479246 159.68799620869686,168.14122203226725 159.73999684059527,168.81807458909316 159.6619958927331,169.04962844593683 159.64899573478033,169.12087568746938 159.70099636664963,169.45929944876116 159.70099636664963,169.65522851431888 159.6619958927331,169.8689689113453 159.5449944709835,170.20739034908183 159.5449944709835,170.5101875866385 159.51899415504886,170.58143387325254 159.33699194344808,170.93766460723418 159.3239917854662,171.1870254280875 159.23299067968037,171.43638567828748 159.0379883100686,171.77480224799365 158.66098372885608,172.2378969033307 158.43998104333878,172.5763109837062 157.82897361862706,173.1106468655198 157.65997156500816,173.19970259111142 157.38696824753424,173.39562493115227 156.87996208664845,173.6449801271665 156.7369603489351,173.69841330919735 156.2299541880202,173.76965751119133 155.76194850102183,173.75184646507842 155.24194218212506,173.84090166659735 154.96893886468024,173.80527959470783 154.50093317768187,173.71622436403413 153.9809268587851,173.7340354160333 153.78592448917334,173.68060225145018 153.5909221196198,173.5559247654819 153.46092053988832,173.50249151358003 152.55090948179713,173.66279119073442 151.41989573818864,173.6449801271665 151.28989415848628,173.66279119073442 151.19889305267134,173.69841330919735 151.14689242080203,173.80527959470783 151.13389226284926,173.8765237268235 151.2118932106241,175.1054776736637 151.224893368606,175.58636892344657 151.19889305267134,175.71104408621613 150.6658865758218,176.29879650370276 150.3278824685258,176.86873521432426 149.82087630758178,177.52772313258174 149.54787299016607,178.07984507697256 149.49587235829677,178.3648101473591 149.52187267423142,178.59634371831635 149.74287535977783,179.05940938442654 149.9248775713495,179.3265617582074 150.22388120472897,179.62933365676872 150.92588973525562,179.8608645410277 151.2118932106241,179.98553481345152 151.3808952642721,180.11020494315744 151.40689558023587,180.1992549485367 151.40689558023587,180.28830488111998 151.35489494836656,180.44859457640268 151.17289273673669,180.64450388378464 150.92588973525562,180.80479305515473 150.5488851540431,180.92946224764455 150.4318837322935,181.03632144199946 150.3278824685258,181.26784933695308 150.145880256925,181.57061584196344 150.06787930906285,181.78433286843938 150.02887883514632,182.0336688696043 150.02887883514632,182.47891030993196 149.98987836122978,182.65700637669943 149.93787772933138,182.72824472192588 149.79487599164713,182.8351021524577 149.5868734640826,182.977578563492 149.15786825097166,183.06662622578733 149.00186635533464,183.15567381530855 148.8588646176504,183.28034031840798 148.76786351180635,183.36938773332076 148.22185687700403,184.06395507244451 148.00085419145762,184.31328585798474 147.83185213778052,184.5804253522947 147.80585182184586,184.72289948159596 147.76685134795844,185.2037482925807 147.9618537175411,186.09420345135004 148.05285482335603,186.4503834776915 148.07885513926158,186.61066410975764 148.07885513926158,186.8777979727456 148.10485545522533,187.02026909856795 148.2868576668261,187.78604820890178 148.36485861468827,187.89290068023547 148.46885987842688,187.92851814734604 148.6248617741221,187.92851814734604 148.92386540750158,187.85728320143244 149.10586761910236,187.85728320143244 149.89887725541485,187.99975304676627 150.24988152066362,188.1244140086783 150.69188689172734,188.23126614827197 151.0558913149871,188.26688350486074 151.43289589617052,188.23126614827197 151.65389858171693,188.26688350486074 151.79690031943028,188.40935281479324 151.9009015831689,188.58743919026165 151.91390174115077,188.89018536074582 151.9529022150964,189.06827095049812 152.16090474263183,189.24635624929215 152.30390648034518,189.26416476313898 152.86291327312938,189.19293069019477 153.14891674855608,189.13950510493305 153.48692085582297,189.13950510493305 154.04592764866538,189.06827095049812 154.38393175593228,189.1216965706626 154.44893254581257,189.24635624929215 154.40993207186693,189.37101578528382 154.22792986029526,189.63814288224967 153.72092369935126,190.51075350302563 153.36991943407338,191.02719323237397 153.09691611665767,191.72171176855773 152.69391121951048,192.34499386617244 151.92690189913264,193.64497077120905 151.53689715996734,194.4997416564147 151.1598925787548,195.14081542108033 151.00389068308868,195.53258086546703 150.63988625985803,196.28049280353298 150.15888041487779,197.13524301983853 149.66487441194477,198.2748995479633 149.52187267423142,198.7556885717495 149.131867935037,199.46796470867412 148.93686556545435,199.91313493053167 148.50786035237252,201.0349558257949 148.36485861468827,201.4801196477856 148.26085735086235,201.7116041166737 148.14385592914186,202.06773310896097 147.88385276970803,202.7265686771425 147.7928516638931,202.86901908717846 147.7278508740128,202.94024422246002 147.41584708268056,203.01146931111725 147.37684660876403,203.04708183799812 147.31184581891284,203.15391934887157 146.9478413956822,204.36473715332977 146.68783823621925,204.91672315949836 146.6098372883862,205.16600624605053 146.4408352347673,205.41528876252414 146.3758344448579,205.5221239522216 146.12883144343505,206.3411902611333 145.9338290738233,206.80413806111028 145.90782875785953,207.0 145.9858297056926,206.62608144766273 146.19383223325713,206.19874438863917 146.41483491880354,205.55773565890559 146.68783823621925,205.00575289870903 147.40284692472778,203.225144297925 147.46784771454986,203.1005006064879 147.53284850443015,203.04708183799812 147.68885040009627,202.99366304331488 147.80585182184586,202.88682537536806 148.4558597204741,201.24863468723925" stroke="#4dd2ff" stroke-linecap="round" stroke-linejoin="round" stroke-width="0.5"><title>2022-09-23 10.4km</title></polyline><polyline fill="none" points="19.93724420190847,240.7742498326188 21.05457025922078,240.70697447136627 21.373806275587413,240.62288020799315 21.496589358794154,240.55560474780214 21.59481582538865,240.4378725867209 21.66848567526904,240.33695919858292 21.705320600274717,240.15195106348256 21.68076398363337,240.01739948360046 21.545702592105954,239.71465778585844 21.521145975435502,239.58010563438438 21.557980900412076,238.755969869002 21.472032742167357,238.28503218340484 21.263301500686794,237.88136959516123 21.00545702589443,237.15813683245506 20.551159618014935,236.3003425494826 20.391541609846172,235.79575433794525 20.317871759893023,235.59391836073337 20.231923601648305,235.49300022369425 20.158253751709708,235.42572141071287 20.02319236015319,235.35844255373377 19.888130968625774,235.32480310877872 17.567530695770984,235.52663961370854 17.150068212824408,235.45936082270782 17.125511596168508,235.3920819877676 17.186903137800982,235.32480310877872 17.33424283763452,235.2070649648158 17.972714870396885,234.21469525719294 18.095497953603626,233.91193649257912 18.304229195098742,233.55871680825658 18.549795361541328,232.90273417871504 19.482946793999872,231.10296549445047 19.642564802168636,230.68245425713394 20.133697135039256,229.99281210864865 20.551159618014935,229.25270319920674 20.68622100954235,229.11813737115153 20.772169167816173,229.10131663028733 21.16507503410685,229.2695239153254 21.31241473396949,229.3704481544264 21.68076398363337,229.70686156998272 22.17189631651854,230.1105562172088 23.019099590717815,230.6992747395998 23.412005457023042,231.17024713305 23.65757162346563,231.30481027818314 23.93997271488479,231.37209178480407 24.111869031359674,231.4730139622552 24.455661664396757,231.77577990083228 24.885402455664007,232.17946643362666 25.572987721665413,232.68407237315114 26.309686221007723,233.17185576327756 26.935879945449415,233.69327683093434 28.703956343786558,234.76975067952299 29.62482946793898,235.27434392071154 30.5948158253741,235.76211503589002 31.859481582519948,236.31716211396997 33.21009549795417,236.8385672488148 33.63983628922142,237.04040078549588 34.622100954991765,237.37678913384298 35.493860845817835,237.84773097473226 36.73396998635144,238.33548989560222 37.974079126885044,238.95779964610847 38.637107776259654,239.19326721929247 39.03001364256488,239.37827707744145 39.61937244203,239.58010563438438 40.4051841746259,239.78193379564618 41.105047748977086,240.18558893092268 42.32060027285479,240.70697447136627 42.67667121418344,240.89198160899105 43.0818553888239,241.07698841411184 44.81309686221357,241.58155073806847 45.807639836275484,241.96838017830305 47.64938608459488,242.84294572822546 48.70532060028927,243.22977042838465 49.94542974080832,243.83523225834506 50.20327421555703,243.90250557519903 50.48567530696164,243.95296053397033 51.099590723068104,244.17159840293607 51.6030013642594,244.52478167185473 51.89768076398468,244.6761455590895 52.95361527967907,244.99569081224763 53.40791268760222,245.19750835581362 53.94815825375554,245.3656893399093 54.45156889494683,245.58432420840836 54.967257844487904,245.752504560558 55.50750341065577,246.12250036813202 55.8512960436783,246.27386190608377 56.71077762619825,246.5765843144618 58.29467939972528,247.29975090883818 59.00682128241169,247.5688348564654 60.02592087314406,248.02291242326464 60.72578444749524,248.27517687266663 61.08185538879479,248.47698798713827 61.54843110506772,248.66198116121086 62.051841746259015,248.94787904906843 62.60436562074756,249.1328713770272 62.98499317874666,249.23377614306082 63.37789904502279,249.45240279682184 64.17598908595392,249.78875058826088 64.55661664393847,249.99055873566977 65.45293315143499,250.34372204179817 65.79672578445752,250.52871186147968 66.88949522511393,250.93232485974295 67.0,250.91550768305024 66.98772169166477,250.84823894889269 66.9508867667173,250.78097017078835 66.04229195090011,250.52871186147968 64.50750341064122,249.95692407194292 63.75852660300734,249.63739421808714 63.48840381993796,249.46922021247155 62.76398362891632,249.23377614306082 61.37653478854918,248.66198116121086 61.06957708048867,248.5610758347757 60.77489768077794,248.3088120859029 60.41882673942018,248.12381827717763 59.387448840381694,247.7538296624698 58.60163710777124,247.36702196169063 57.435197817205335,246.91294150191243 56.67394270122168,246.52613064152683 55.433833560702624,246.07204647268372 54.95497953615268,245.80295861260674 54.549795361526776,245.63477834293008 53.53069577080896,245.29841697923257 52.76944065485441,244.9788726657789 51.824010914060636,244.6761455590895 51.03819918143563,244.3229628094341 50.71896316508355,244.20523495694943 50.39972714871692,244.0370520769793 49.93315143244399,243.8184139222867 49.71214188267186,243.6670487739175 49.392905866290675,243.48204662365606 48.77899045018421,243.24658886060934 48.28785811732814,243.12885977715632 47.62482946792443,242.82612723000784 47.34242837651982,242.7083976656795 46.42155525238195,242.27111524796055 45.86903137789341,242.0356547151241 43.904502046396374,241.3797261052605 43.15552523876249,241.14426353354065 42.83628922238131,241.07698841411184 42.51705320600013,240.87516279205738 41.939972714855685,240.58924248339463 40.957708049128996,240.18558893092268 40.18417462485377,239.78193379564618 39.27557980900747,239.49601045042073 38.89495225100836,239.29418172859732 38.21964529332763,239.05871438624308 37.311050477510435,238.68869318867655 36.942701227846555,238.52050129554846 36.574351978182676,238.31867066097038 35.35879945429042,237.78045370076143 34.89222373806115,237.59544097077742 34.708049113236484,237.49452479604952 34.49931787177047,237.44406667156727 33.909959072305355,237.1749562567711 33.541609822641476,237.07403966979473 32.69440654842765,236.68719183655776 31.417462482946576,236.21624468601658 29.931787175970385,235.45936082270782 29.440654843114316,235.2407044482461 28.090040927709197,234.38289418610657 27.095497953618178,233.84465664619347 25.241473396978108,232.48223029425571 24.762619372457266,232.0785449488394 24.578444747588946,231.87670168245677 24.332878581160912,231.6580376971906 23.93997271488479,231.42255288586603 23.559345156885684,231.30481027818314 23.46111869030574,231.23752872758632 23.362892223725794,231.11978590823855 23.215552523863153,230.80019757675473 23.043656207359163,230.6151722997165 22.92087312413787,230.53106979107542 22.49113233287062,230.34604403026606 22.31923601636663,230.2283001911128 21.1159618008096,229.23588248030137 20.894952251008363,229.1349581093018 20.698499317863025,229.06767514025705 20.57571623464173,229.10131663028733 20.51432469303836,229.1685995772641 20.08458390177111,230.0937356384893 19.654843110518414,230.7497361705391 19.42155525238195,231.22070833303587 19.12687585267122,231.69167834056134 18.918144611176103,232.14582594975218 18.537517053206102,232.78499326422025 18.41473396999936,233.0709352515405 18.267394270093064,233.50825675446686 18.083219645297504,233.84465664619347 17.948158253740985,234.21469525719294 17.72714870396885,234.58473253803095 17.579809004077106,234.78657049411413 17.44474761254969,235.07250692110392 17.29740791268705,235.29116365285154 17.211459754413227,235.37526227212948 17.027285129603115,235.3920819877676 16.96589358797064,235.42572141071287 16.879945429755026,235.7452953807515 16.204638472030638,236.9394840665991 15.860845839022659,237.69635704653774 15.603001364244847,238.13365889831766 15.308321964519564,238.5541396961271 15.173260572977597,238.82324650532246 14.927694406549563,239.22690540002077 14.41200545700849,240.28650246744655 14.252387448810623,240.55560474780214 14.178717598930234,240.74061215748952 13.994542974076467,241.00971325070714 13.74897680763388,241.56473203379574 13.380627557970001,242.187022262362 13.221009549772134,242.57384942731733 13.0245566166559,242.91021969349822 13.012278308306122,242.99431208836177 13.0,243.11204132568673 13.049113233282696,243.1624966718955 13.356070941357757,243.2634072901492 13.527967257832643,243.3643178094717 13.884038199175848,243.48204662365606 14.092769440656411,243.46522822984844 14.203274215542478,243.48204662365606 14.375170532031916,243.58295692862157 14.706684856748325,243.73432220063842 14.78035470667237,243.73432220063842 15.35743519780226,243.5325017885043 15.492496589329676,243.54932017132523 15.688949522489565,243.68386713470682 15.811732605710858,243.73432220063842 16.253751705313334,243.7511405504847 16.474761255114572,243.71750384808547" stroke="#4dd2ff" stroke-linecap="round" stroke-linejoin="round" stroke-width="0.5"><title>2022-09-16 10.1km</title></polyline><polyline fill="none" points="165.70578043506248,243.83540361634368 165.70578043506248,243.90518592866283 165.64464707324805,243.98892462823278 165.58351371143362,244.01683750983648 165.13520239153877,243.96101173746138 165.08425792338676,243.90518592866283 165.08425792338676,243.86331654807873 165.18614685973444,243.5423172820374 165.2472802215052,243.40275200752512 165.38992473238613,243.16549051755283 165.50200256238168,243.0398812265994 165.6344581796293,242.92822836854612 166.0012583504431,242.6770089042111 166.38843630853808,242.38391859544936 166.71448090480408,242.23039469905052 166.9793921392993,242.16061101853848 167.16279222469893,242.16061101853848 167.5295923955273,242.10478403308662 168.16130380083632,242.0908272810484 168.89490414249303,242.02104348650755 169.04773754702182,241.96521640988067 169.15981537698826,241.88147572647722 169.2617043133214,241.7419077384111 169.29227099423588,241.65816683608864 169.30245988785464,241.50464163531433 169.24132652605476,240.75096846569795 169.25151541965897,240.30434419026278 169.23113763242145,240.01124574039568 169.00698197247402,239.6623177030997 168.87452635524096,239.32734544625418 168.72169295071217,239.02028639024502 168.375270567165,238.3922076103263 168.3039483117318,238.18284699071228 168.22243716265075,237.90369869966526 168.12054822631762,237.75016675073857 167.96771482180338,237.62454949638777 167.7741258427559,237.56871954621602 166.94882545838482,237.59663452583482 166.07258060584718,237.69433688274148 166.0420139249909,237.66642193500593 165.89936941409542,237.47101704567467 165.838236052281,237.24769662475592 165.86880273321003,237.1220786314152 165.96050277590984,236.9825028665873 166.07258060584718,236.73126591512846 166.1744695422094,236.5777318587643 166.45975856397126,235.94963511804963 166.76542537299974,235.23778656165814 167.2544922674133,234.42822609144787 167.60091465098958,233.68844860739046 168.29375941808394,232.52991627695155 168.33451499263174,232.43220801246935 168.3447038862505,232.36241632654128 168.32432609899843,232.2926245835115 168.263192737184,232.25074951037823 167.92695924727013,232.09720739987097 167.63148133187497,231.99949864036898 166.98958103291807,231.62262094945618 166.92844767113274,231.56678707603714 166.82655873479962,231.41324373592215 166.6125919684564,231.23178306899354 166.5005141385045,231.0503220165774 166.4495696703234,230.99448776898498 165.9299360949808,230.68739875506435 165.62426928598143,230.4501019425661 165.42049141328607,230.32447395138297 165.04350234883896,229.9615476055551 164.59519102892955,229.65445487757825 164.52386877349636,229.55674332347553 164.37103536898212,229.19381371523923 164.29971311354893,229.09610163414618 164.1978241772158,229.02630722205504 163.85140179365408,228.90067713655299 163.63743502733996,228.77504686623433 163.3012015374261,228.52378577128547 162.63892345121712,228.1189746745149 162.49627894032164,227.95146607324568 162.46571225943626,227.85375257075793 162.45552336577384,227.7839571434306 162.49627894032164,227.63040700247075 162.56760119576938,227.54665226377256 162.9344013666123,227.3512242206998 163.33176821831148,227.23955085244233 163.72913507005433,227.23955085244233 164.5646243480296,227.18371411360567 165.02312456157233,227.2255916711656 165.84842494592885,227.25351003148535 167.22392558651336,227.11391813863884 168.24281494991737,226.8905706355872 168.76244852524542,226.68118182094622 168.96622639792622,226.54158899263712 169.30245988785464,226.27636199029075 169.73039342049742,226.0390529215656 170.30097146397748,225.45275710121496 170.6066382730205,224.99209327586868 170.71871610298695,224.7966593871388 170.73909389023902,224.71290186936676 170.75947167750564,224.5035077154971 170.81041614568676,224.3080727086999 170.82060503932007,223.93116107538663 170.86136061386787,223.72176500475325 170.91230508201988,223.6240466627787 171.13646074198186,223.34485078380385 171.1772163165151,223.23317217663862 171.2485385719483,222.66081702277006 171.23834967832954,222.33973806178983 171.13646074198186,221.8790574439554 171.0447606992675,221.2648127543871 170.93268286930106,220.95768875286012 170.8817384011345,220.72036490419123 170.79003835843469,220.53888151609863 170.6372049539059,220.30155650357483 170.2398381021776,219.5476962064131 170.04624912314466,219.0032374085058 169.7609601013828,218.03995564684737 169.53680444143538,217.42568334232055 169.38397103695024,216.8253675027081 169.34321546237334,216.15524251076567 169.37378214328783,215.68056745961803 169.47567107962095,215.2617343408856 169.5469933350687,215.03835583759792 169.57756001596863,214.87082157660188 169.8322823568451,214.2984103715571 169.9239823995449,214.172758617824 170.0870046976779,214.07502934820513 170.26021588944423,214.0471066791797 170.37229371942522,214.08899067925813 170.20927142127766,214.21464255626051 170.11757137857785,214.21464255626051 169.67944895230175,213.76787948690617 169.0783042279072,213.20942236305564 168.92547082339297,213.06980751141236 168.77263741887873,213.0 168.68093737617892,213.0 168.5790484398458,213.06980751141236 168.15111490721756,213.61430414193455 167.96771482180338,213.76787948690617 167.825070310937,214.0052226585758 167.7333702682081,214.21464255626051 167.62129243824165,214.63348081093136 167.59072575734172,214.842899167852 167.50921460828977,215.10816168265592 167.3665700973943,215.55491773970425 167.3665700973943,215.9597883974784 167.39713677827967,216.69971946728037 167.41751456556085,216.81140661898826 167.53978128917515,217.20231049966242 167.71299248094147,217.84450584745355 167.83525920455577,218.15164104568976 168.00847039632208,218.48669636569684 168.15111490721756,218.7240264220236 168.69112626981223,219.44997308806342 168.86433746157854,219.7291817009973 169.04773754702182,219.98046867206722 169.20057095150696,220.2875961881582 169.45529329236888,220.97164895869355 169.50623776053544,221.22293227377668 169.56737112234987,221.82321720019536 169.49604886691668,222.07449800959876 169.49604886691668,222.70269679823105 169.445104398721,223.21921234046022 169.41453771783563,223.30297132322448 169.25151541965897,223.5263282089727 169.17000427060702,223.8334429730021 169.02735975974065,224.14055663256295 168.4364039289503,224.852497686712 168.19187048176536,225.0618909849145 167.95752592818462,225.22940525380545 167.68242580005608,225.39691919415782 167.26468116106116,225.57839225873613 167.0914699692803,225.6202706034819 166.63296975575213,225.67610836454696 166.3374918403424,225.66214892770222 165.96050277590984,225.7179866613733 165.7669137968478,225.7179866613733 165.42049141328607,225.64818948854372 164.98236898702453,225.6342300471515 164.84991336980602,225.59235170925967 164.63594660347735,225.48067604109383 164.53405766714422,225.4667165723149 164.26914643266355,225.55047335079144 164.08574634724937,225.57839225873613 163.43365715465916,225.6063111574913 162.92421247294988,225.59235170925967 162.83251243025006,225.6063111574913 162.7815679620835,225.64818948854372 162.77137906846474,225.7459055145373 162.80194574935012,225.96925601116527 162.84270132389793,227.0580813176639 162.81213464298344,227.23955085244233 162.751001281169,227.33726505767117 162.56760119576938,227.50477486359887 162.3842011103552,227.7281207604974 161.66078966234636,228.7052521917867 161.51814515146543,229.040266109012 161.457011789651,229.36131987987756 161.47738957693218,229.43111401819624 161.50795625784667,229.5009080995078 161.85437864139385,230.1011348441316 161.9766453649936,230.2686392293108 162.03777872680803,230.31051527429372 162.44533447215508,230.4501019425661 162.8936457920645,230.63156427026115 162.97515694114554,230.71531598374713 162.99553472839762,230.79906761513848 162.9853458347643,230.84094340002775 162.92421247294988,230.95261205938004 162.81213464298344,231.06428057274752 162.5777900894027,231.20386600909842 162.31287885492202,231.31553419394913 162.2211788122222,231.41324373592215 162.0683454076934,231.70637169116526 161.92570089682704,232.04137383668422 161.89513421591255,232.23679114811966 161.90532310954586,232.51595796028414 161.87475642866048,232.62762442967505 161.83400085411267,232.69741589888145 161.7423008114274,232.7951238599926 161.64041187506518,232.85095693041512 161.4977673641988,232.90678996439237 161.23285612971813,232.9626229618225 161.08002272521844,233.0603306195626 160.70303366074222,233.45116013267398 160.5196335753426,233.75823920983385 160.26491123446613,234.0094849063098 160.21396676631412,234.14906552944012 160.19358897903294,234.63759591418784 160.2852890217473,235.29361803538632 160.37698906447622,235.6006904885653 160.38717795809498,235.72631071936485 160.3668001708138,235.94963511804963 160.49925578804687,236.36836679170665 160.5603891498613,236.66147774187266 160.64190029894235,236.77313879167923 160.8151114907232,236.8289692617982 161.03926715067064,236.77313879167923 161.31436727878463,236.77313879167923 161.68116744961299,236.84292687365087 162.19061213129316,236.9964604533161 162.45552336577384,237.02437561997067 163.026101409283,237.02437561997067 163.13817923927854,237.03833319990372 163.2604459628783,237.1220786314152 163.35214600559266,237.23373907907808 163.37252379284473,237.34539938074886 163.3929015801259,237.61059201225726 163.41327936739253,237.69433688274148 163.48460162284027,237.7920391278385 163.5763016655401,237.84786893198907 163.67819060188776,237.86182637733873 163.9023462618352,237.84786893198907 164.7174577525584,237.69433688274148 165.18614685973444,237.66642193500593 165.25746911516762,237.66642193500593 165.30841358331963,237.70829435314226 165.33898026421957,237.77808167108014 165.31860247695295,237.8757838203892 164.81934668889153,238.7690554324654 164.41179094352992,239.57857476203935 163.8004573254875,240.63931261575635 163.07704587747867,241.99312995276705 162.81213464298344,242.53744221592933 162.5777900894027,243.1096641888289 162.2517454931367,243.64001283856487 162.1396676631266,243.89122947074065 162.0887231949746,244.07266324567172 162.0479676204268,244.18431460794818 161.82381196047936,244.54718052742828 161.3347450660658,245.5659881391548 160.78454480983783,246.91972739951598 160.62152251167572,247.38027297900408 160.4890668944281,247.68730198597768 160.37698906447622,248.03619724541932 160.19358897903294,248.52464821476315 160.1528334044997,248.58047100483236 160.0815111490665,248.60838238621363 159.95924442546675,248.59442669667624 159.89811106365232,248.60838238621363 159.83697770185245,248.69211647560587 159.6739554037049,249.16660809859604 159.49055531829072,249.6271415653464 159.33772191379103,250.17140518894303 159.09318846656242,250.7156653451675 159.01167731751048,250.9668611709276 158.869032806615,251.24596677771478 158.706010508482,251.63671309531492 158.67544382758206,251.8041752558056 158.68563272120082,252.05536788101017 158.67544382758206,252.22282922079467 158.69582161484868,252.3763351606467 158.67544382758206,252.48797567089787 158.03354352862516,254.0648822949952 157.19805425066443,256.3813472082402 156.861820760736,257.19069966149254 156.6070984198741,257.9302736475365 156.43388722807867,258.36285169098846 156.0161425890983,259.3256788283761 155.4455645455746,260.94432028810115 155.2010310983751,261.5024654057561 154.77309756576142,262.6326981021557 154.711964203947,262.74432521156996 154.66101973576588,262.8001387116019 154.44705296945176,262.8699055353645 154.37573071401857,262.9536256487045 153.92741939413827,264.0140733174703 153.59118590420985,264.9489307418189 153.50967475514335,265.25589662067796 153.16325237158162,266.09307068551425 153.08174122250057,266.17678764088487 152.9085300307197,266.17678764088487 152.23606305086287,266.0651650154832 150.96245134662604,265.8837779382811 150.330739941317,265.95354224430776 150.14733985590283,265.99540080058796 149.81110636598896,266.13492917346593 149.2710950033652,266.4418907918007 149.05712823705107,266.6372294293178 148.93486151346588,266.79070947411674 148.78202810893708,266.9441892432078 148.75146142803715,267.0 148.80240589621826,266.97209462619503 149.15901717339875,266.553512925042 149.34241725884203,266.40003245421394 149.79072857872234,266.13492917346593 150.14733985590283,265.98144795078406 150.62621785669762,265.89773080402665 150.9013179848116,265.8837779382811 151.7469961564493,265.98144795078406 152.96966339253413,266.17678764088487 153.08174122250057,266.1628348207014 153.17344126521493,266.1070235170919 153.29570798880013,265.855872199907" stroke="#4dd2ff" stroke-linecap="round" stroke-linejoin="round" stroke-width="0.5"><title>2022-09-11 10.3km</title></polyline></svg>