<?xml version="1.0" encoding="utf-8" ?>
<svg baseProfile="full" height="300mm" version="1.1" viewBox="0,0,200,300" width="200mm" xmlns="http://www.w3.org/2000/svg" xmlns:ev="http://www.w3.org/2001/xml-events" xmlns:xlink="http://www.w3.org/1999/xlink"><defs /><rect fill="#222222" height="300" width="200" x="0" y="0" /><text fill="#FFFFFF" style="font-size:12px; font-family:Arial; font-weight:bold;" x="10" y="20">Over 4km Runs</text><text fill="#FFFFFF" style="font-size:4px; font-family:Arial" x="10" y="280">ATHLETE</text><text fill="#FFFFFF" style="font-size:9px; font-family:Arial" x="10" y="290">ChiZhang9797</text><text fill="#FFFFFF" style="font-size:4px; font-family:Arial" x="120" y="280">STATISTICS</text><text fill="#FFFFFF" style="font-size:3px; font-family:Arial" x="120" y="285">Number: 8</text><text fill="#FFFFFF" style="font-size:3px; font-family:Arial" x="120" y="290">Weekly: 2.7</text><text fill="#FFFFFF" style="font-size:3px; font-family:Arial" x="141" y="285">Total: 37.2 km</text><text fill="#FFFFFF" style="font-size:3px; font-family:Arial" x="141" y="290">Avg: 4.7 km</text><text fill="#FFFFFF" style="font-size:3px; font-family:Arial" x="167" y="285">Min: 4.1 km</text><text fill="#FFFFFF" style="font-size:3px; font-family:Arial" x="167" y="290">Max: 5.3 km</text><polyline fill="none" points="57.283356033440214,83.58013281715102 57.072368981083855,83.48379795596702 56.61523036781,83.53196539051714 56.47457233298337,83.67646764701931 56.404243315570056,84.15814132406376 56.22842077189125,84.4953124296735 56.01743371965131,84.63981421405333 54.92733394954121,84.92881757035502 54.646017879771534,85.12148631713353 54.39986631879583,85.41048920134199 54.32953730132431,85.84399299617507 54.118550249084365,86.37383010232588 53.66141163581051,86.80733248067554 53.098779496212956,87.0 51.83285718259867,86.90366625602474 50.9537444646121,86.37383010232588 50.67242839495884,86.32566313195275 48.879038450540975,86.66283175870194 48.140583767555654,86.1329951720545 47.33180006709881,85.79582593939267 46.38235833175713,85.84399299617507 45.5735746313585,85.55499053711537 44.23732330015628,84.73614869758603 44.02633624791633,84.54347969894297 43.956007230386604,84.35081057457137 43.956007230386604,84.15814132406376 44.51863936986774,82.80945304530906 45.468081105151214,81.0754161925579 46.94499047118006,77.84815378391067 48.45706434594467,75.00620688754134 49.4416705899057,73.32029323972529 50.742757412430365,70.81548944543465 51.93835070874775,68.98504244477954 53.62624712701654,65.66130699359928 54.75151140592061,63.638145327946404 55.560295106319245,62.4820467135869 56.33391429804033,62.0485085643013 56.47457233298337,61.85582473775139 58.86575892550172,56.99051637836965 60.16684574796818,54.05202392031788 61.678919622791,51.35436571080936 62.41737430577632,49.812835649907356 62.83934841025621,48.801202166301664 63.22615800623316,48.22312433132902 65.4766865639831,44.56193838326726 65.4766865639831,44.1765477435838 65.37119303783402,43.93567833775887 64.24592875887174,43.35759096086258 62.87451291910838,42.92402468458749 61.53826158790616,42.153238618106116 60.90530043101171,41.67149630319909 60.58881985262269,41.382450536300894 60.237174765381496,40.8525325608789 59.60421360860346,40.3707881202281 58.900923434179276,39.55182076408528 56.861381928785704,38.39562768192263 55.31414354534354,37.28760505578248 53.907563196728006,35.89052711240947 52.53614735690644,34.83067046239739 52.184502269665245,34.20438974167337 51.76252816518536,33.19270268941182 51.657034638978075,33.04817568423459 51.51637660409324,33.0 51.16473151696846,33.09635136043653 50.77792192110792,33.385405252774945 50.28561879915651,33.96351218695054 49.65265764226206,34.878845847415505 49.054860994103365,35.553300409868825 48.703215906978585,35.84235189284664 48.38673532853136,35.986877527990146 47.788938680430874,35.60147567678359 47.366964575776365,35.60147567678359 46.52301636664197,36.420454008330125 46.34719382307958,36.757679718808504 46.17137127945898,37.38395501469495 46.628509892791044,38.78102587984176 46.593345383997075,39.21459825025522 46.276864805666264,39.64816998288734 45.78456168365665,40.033566543337656 44.65929740469437,40.6116604389681 44.30765231756959,41.093404485989595 43.39337509102188,43.69480873522116 43.323046073608566,44.1765477435838 43.35821058228612,44.85098103250493 43.11205902125221,45.47723913344089 42.8659074602765,45.814454482810106 42.37360433820868,46.19984298115014 41.14284653321374,46.39253704139264 40.5098853763775,46.633404439664446 39.138469536439516,48.126777915254934 38.54067288833903,49.04206759642693 37.66156017052708,50.10187315026997 37.52090213558404,50.4390832092613 37.48573762684828,50.67994730107603 37.59123115299735,52.26964537028107 38.048369766329415,54.96729520370718 38.083534275065176,55.97890752676176 38.048369766329415,56.701485632162075 38.11869878374273,57.135031645040726 38.400014853454195,57.90577853831928 38.50550837966148,58.5801804169314 38.4703438708093,59.30275214603171 38.259356818627566,59.6881230106228 38.083534275065176,59.88080825423822 37.696724679204635,60.12166463120957 37.134092539781705,60.218007127026794 34.91872849070933,60.16983588313451 32.31655484577641,59.54360899559106 31.402277619286906,59.39909490942955 30.27701334032463,59.39909490942955 28.97592651785817,59.59178034181241 26.479246399132535,60.410692024132004 25.002337033103686,61.03691706983955 22.962795527651906,61.51862773820176 20.852925004728604,61.61496977743809 19.44634465611307,61.566798761690734 18.53206742956536,61.711311785213184 18.07492881634971,62.0966795013519 17.6529547116952,63.3009503671492 17.16065158956917,64.31253409257624 16.984829046123195,64.89058037730865 16.457361415377818,65.5649662767537 16.070551819517277,66.1911803735129 15.050781066820491,68.4070041886298 14.699135979579296,68.888702814118 14.523313436016906,69.27406114790938 15.085945575498044,67.73262479063123 16.28153887175722,65.51679590647109 16.879335519915912,64.79423940842389 17.301309624570422,64.55338684888557 20.888089513464365,64.26436351775192 23.877072754257824,64.31253409257624 25.248488594137598,64.07168113946682 27.920991256425623,63.975339903117856 31.718758197617717,63.58997464281856 34.21543831640156,63.73448667451157 37.134092539781705,63.49363324904698 39.0681405190262,63.445462540432345 40.474720867641736,63.3009503671492 41.91646572499303,63.34912109936704 43.252717056137044,63.15643812291091 45.96038422716083,63.0600965875783 47.43729359324789,62.91558422529488 49.617493133526295,62.91558422529488" stroke="#4dd2ff" stroke-linecap="round" stroke-linejoin="round" stroke-width="0.5"><title>2022-08-20 4.1km</title></polyline><polyline fill="none" points="166.63933176838327,82.78232697607018 166.57518363540294,83.17773663220578 166.3827392362291,83.39740841218736 165.5167394404416,83.39740841218736 164.45829524548026,83.57314570696326 164.13755458034575,83.83675143381697 164.04133238078794,84.01248844136717 163.88096204824978,84.71543532348005 163.68851764913416,84.93510584739852 163.49607325001853,84.97903993059299 162.59799938771175,84.97903993059299 162.34140685549937,85.06690807553241 162.18103652301943,85.1987102390267 161.95651805738453,85.55018235940952 161.79614772478817,86.51672832167242 161.69992552528856,86.82426494470565 161.34711079363478,87.0 159.9037778005004,86.86819871922489 159.0057039381354,86.42886065045604 158.74911140598124,86.4727944895858 157.40200061240466,86.95606624687207 157.17748214676976,86.91213248673012 156.56807488307822,86.51672832167242 156.02281575230882,86.25312522190507 155.67000102065504,86.16525746459956 155.0605937569053,86.20919134680298 154.80400122475112,86.16525746459956 152.9437053669826,85.1987102390267 152.78333503444446,85.06690807553241 152.65503876836738,84.80330355456681 152.68711283494486,84.62756706381333 153.5210385642131,83.08986787000322 154.00214956194395,81.99150591949001 155.18889002298238,79.97050820846925 155.99074168584775,78.21310654788977 157.59444501146208,75.35730435294681 159.2302224037121,72.58934405000764 159.61511120188516,71.71062053510104 160.51318506419193,69.95316489037941 161.34711079363478,68.19569775901618 162.59799938771175,66.17459635730484 162.7583697202499,65.47160100436304 162.59799938771175,65.20797727315221 160.57733319728868,65.38372645605705 159.35851866973098,65.38372645605705 158.7811854725005,65.42766373383347 157.9151856765966,65.42766373383347 158.74911140598124,65.47160100436304 160.38488879817305,65.20797727315221 162.9828881857684,64.94435328347026 163.59229544957634,64.68072903543361 164.00925831426866,64.32922963582678 164.426221178961,63.71410458095488 165.5167394404416,61.78084524709266 167.18459089909447,58.133977298479294 168.4996276262682,55.717350806924514 168.94866455742158,55.01432811279665 169.2373311559786,54.31130358047085 170.55236788315233,51.718884730536956 172.18814527528593,48.862801127077546 172.28436747484375,48.643101131689036 172.31644154136302,48.29158076568274 172.09192307572812,48.027940189494984 171.6749602110358,47.852179661917035 170.55236788315233,47.544598462001886 169.75051622022875,47.14913640220766 169.0448867569794,46.57791240001097 168.0505906949984,45.91880627415958 167.6015537637868,45.30363909891457 166.89592430053744,44.6884705160046 166.57518363540294,44.20512278491515 164.87525811017258,43.194483812112594 163.81681391515303,42.4474873469735 163.11118445190368,42.05201779003255 162.14896245650016,40.99742946054903 160.64148133032722,39.98677843005862 160.28866659861524,39.50342224637279 159.87170373398112,38.580648937117076 159.71133340144297,38.316998838447034 159.454740869347,38.18517369221081 159.29437053675065,38.18517369221081 158.97362987161614,38.40488223338616 158.5887410734431,38.75641552580055 157.72274127759738,40.030719858186785 156.98503774771234,40.77772303795791 156.88881554815453,40.82166433680686 156.34355641744332,40.601957770675654 156.02281575230882,40.55801643585437 155.6058528876165,40.90954691314255 155.2851122225402,41.52472414236399 155.18889002298238,41.876253355585504 155.22096408944344,42.095958880585385 155.44548255507834,42.62325140784378 155.4775566215976,42.84295632230351 155.44548255507834,43.546010842284886 155.31718628900126,43.897537412762176 155.1568159564049,44.20512278491515 154.86814935784787,44.424826406902866 154.32289022713667,44.77635182830272 153.42481636471348,45.083936195092974 152.97577943350188,45.4794012925413 152.10977963759797,47.76429935495253 152.01355743804015,48.15976050996687 152.04563150461763,48.774921150528826 151.9814833715791,49.03856099411496 151.7569649060024,49.5219000360521 151.50037237384822,49.82947897401755 151.2117057752912,50.04917799992836 149.80044684867607,50.40069606807083 149.35140991746448,50.708274000673555 147.9080769243301,52.46585543715628 146.97792899538763,53.47645956085762 146.81755866284948,53.78403397492366 146.78548459638841,53.959790624910966 146.81755866284948,54.75069412853918 146.6892623967724,55.67341194234905 146.94585492886836,57.65065373774269 147.138299327984,58.57336159981787 147.2345215275418,59.75969562676619 147.74770659167552,61.78084524709266 147.87600285781082,62.088410161901265 148.06844725692645,62.220223589160014 148.61370638769586,62.308099171175854 149.5438543165801,62.088410161901265 150.12118751381058,62.088410161901265 151.59659457334783,62.352036951546324 153.2965200986364,62.87928975556861 153.8417792293476,62.967165122536244 155.18889002298238,62.967165122536244 156.08696388534736,62.79141436013742 156.88881554815453,62.483850249584066 158.5887410734431,61.165714362228755 159.26229647023138,60.63845819811104 159.48681493586628,60.15513913927134 159.5830371354241,59.144560118060326 159.454740869347,57.65065373774269 159.51888900232734,56.94763609863003 160.1282962661353,54.97038913340657 160.4490369312698,54.355242667515995 160.70562946330756,53.6082772098016 161.28296266059624,52.64161294896621 161.69992552528856,51.67494521255139 161.92444399080705,50.92797230853466 161.9885921239038,49.96129841115908 162.05274025688414,49.7415993133327 163.0791103853262,49.08250094298273 163.27155478444183,49.08250094298273 163.7526657821727,49.39008038357133 164.073406447249,49.39008038357133 164.26585084636463,49.25826066642185 164.8431840435951,48.24764068773948 165.6129616399994,47.10519613750512 167.8260722293635,44.11724128603237 168.5958498257678,43.28236561274389 169.2373311559786,42.71113339520525 169.71844215370947,42.403546313842526 169.87881248630583,42.183841040270636 169.8146643532673,41.612606488663005 169.62221995415166,41.30501815053867 169.39770148857497,41.17319446938927 169.0448867569794,41.17319446938927 168.146812894498,41.744429954502266 167.50533156422898,41.92019447500934 166.89592430053744,41.876253355585504 166.79970210097963,41.65654765116051 166.9279983669985,41.348959363327594 167.53740563074825,40.55801643585437 167.8260722293635,39.67918823182117 167.9222944289795,39.32765614578966 167.85814629599918,38.75641552580055 167.72985002986388,38.18517369221081 167.40910936472937,37.745756071206415 166.89592430053744,37.218453977809986 166.76762803451857,35.46077286431682 166.79970210097963,35.32894631760428 166.89592430053744,35.02135079051368 167.3770352982101,34.31827397830784 167.50533156422898,33.96673488282249 167.66570189688355,33.79096516268328 167.98644256201806,33.61519532772945 169.42977555509424,33.30759783988469 170.16747908492107,33.2636553128541 171.06555294728605,33.43942537764087 171.93155274324818,33.79096516268328 172.2202193418634,33.79096516268328 172.47681187384296,33.703080259496346 173.3107376032276,33.0" stroke="#4dd2ff" stroke-linecap="round" stroke-linejoin="round" stroke-width="0.5"><title>2022-08-19 4.3km</title></polyline><polyline fill="none" points="59.772582530771615,93.0 59.678762447612826,93.03212814382277 59.51457730203401,93.22489689680515 59.350392156426096,93.77107400396198 59.18620701087639,93.93171404088207 58.90474676134181,94.09235394658754 58.15418609586777,94.06022597597621 57.872725846333196,94.15660987215233 57.825815804710146,94.34937752284168 57.7789057631162,94.92767934103904 57.73199572152225,95.21682961235638 57.66163065913133,95.34534070761583 57.427080451190704,95.47385171891074 57.02834509767126,95.50597945855407 55.87904907873599,95.34534070761583 54.870483184437035,95.53810719303146 54.47174783091759,95.50597945855407 52.571891146479174,95.08831843319058 51.539870231441455,94.63852864450018 51.14113487792201,94.5421449845453 50.88312964918441,94.60640076304844 50.7189445036347,94.67065652072779 50.43748425404192,94.95980716991471 50.296754129289184,95.18470182549208 50.01529387975461,96.02002257977438 49.780743671784876,96.56619192377548 48.74872275671805,98.62234526092652 48.396897444850765,99.55403266401845 47.69324682094157,101.67440823071229 46.63777088516508,104.30878239046433 46.49704076038324,104.56579261428851 46.379765656456584,104.66217136158957 45.88721021966194,104.79067628455232 45.816845157329226,104.91918112357962 45.44156482460676,106.13997290593397 44.925554367073346,107.0073729884025 44.69100415910361,107.64988910140528 44.43299893036601,108.19602614692121 43.9169884728326,109.48104850694654 43.776258348079864,110.05930582963629 43.49479809854529,110.76606247063319 43.14297278659069,111.66556724945258 43.11951776579372,112.05106803798117 43.189882828184636,112.46869303964195 43.213337848952506,112.9505669396458 43.189882828184636,113.43243965884903 43.14297278659069,113.59306363617361 42.298592037986964,115.45629218683462 41.99367676762631,116.42002416600008 41.31348116451409,117.99410957597138 41.12584099819651,118.66871375229675 40.02345502079697,121.30286028291448 39.46053452169872,122.97327638842398 39.13216423054109,123.7442328829784 38.803793939354364,124.64367830711126 38.545788710645866,125.51099678486935 37.34958265008754,128.53052016798756 36.95084729650989,129.71904325351352 36.76320713019231,130.10450865788152 36.176831610297086,131.54999719612533 34.55843517539324,135.85427793030976 34.04242471783073,137.0748777121771 33.901694593107095,137.26760330115212 33.40913915639976,137.5245704593981 33.26840903161792,137.74941644743376 32.96349376125727,138.55243573513872 32.07220297100139,140.60815017315326 31.861107783857733,141.2505565291358 31.368552347179502,142.43900275677152 30.406896494532702,144.9122326968063 30.313076411315706,145.0085916755197 30.055071182549,145.10495060698304 29.11687035075738,144.9122326968063 27.803389186155982,144.78375398511707 25.10606179467868,144.3983173466695 24.07404087969917,144.49467657708738 22.995109923067503,144.78375398511707 22.59637456954806,144.9764720211533 21.986544028826756,145.32978793006623 20.977978134644218,146.06853732552554 20.22741746919928,147.0 20.907613072282402,146.16489573773288 21.564353654539445,145.58674455633445 22.43218942396925,145.13707024029281 23.745670588570647,144.59103576035704 24.425866191624664,144.49467657708738 25.950442543369718,144.46255683887284 27.123193583101965,144.68739489634754 30.00816114101326,145.0085916755197 30.242711348924786,144.9764720211533 30.453806536097545,144.81587367097382 30.92290695203701,143.37048261830932 31.650012596684974,141.6038791306346 32.048747950204415,140.19058491670876 32.306753179000225,139.58029563969467 32.658578490896616,138.905763183182 33.22149898999487,137.55669133053743 33.43259417716763,137.33184512220032 33.972059655498015,137.04275676235557 34.08933475942467,136.88215193443466 34.957170528912684,134.762155915334 35.778096256777644,132.32092007281608 36.22374165186193,131.38938788307132 36.92739227574202,129.65479894609598 37.30267260846449,128.46627547229582 38.076688294735504,126.53892484304379 38.49887866905192,125.2861368060403 39.15561925136717,123.7442328829784 40.11727510395576,120.88525403977837 40.633285561489174,119.7930489040591 41.57148639328079,117.19100634905044 41.75912655965658,116.83763989036379 42.204771954828175,115.55266559732263 43.02569768263493,113.52881406096276 43.11951776579372,113.11119131046871 43.0491527034319,112.5650679141254 43.02569768263493,111.92256785911741 43.189882828184636,111.34431601499091 43.4009780153865,110.86243817939248 43.56516316093621,110.34843385340355 43.87007843129686,109.54529940457724 44.03426357684657,109.19191920811136 44.667549138335744,107.29650549901999 45.69957005328615,104.91918112357962 45.88721021966194,104.72642383357743 46.40322067722445,104.53366635464772 46.520495781180216,104.37303497790708 46.778501009976026,103.53774970379891 47.95125204976648,100.67847709970374 48.84254283996415,98.33319999703963 49.217823172715725,97.56214388122316 50.57821437885286,94.47788918495644 50.85967462838744,94.06022597597621 51.070769815531094,94.06022597597621 51.446050148282666,94.28512166027213 51.75096541864332,94.5421449845453 52.19661081378581,94.76704011770198 52.595346167247044,94.92767934103904 53.13481164560653,94.79916797281476 53.557002019893844,95.15257403324358 54.0261024357751,95.40959622376249 54.26065264377394,95.44172397389775 54.75320808048127,95.08831843319058 55.48031372510013,94.8634236674261" stroke="#4dd2ff" stroke-linecap="round" stroke-linejoin="round" stroke-width="0.5"><title>2022-08-18 5.1km</title></polyline><polyline fill="none" points="138.1469879518263,125.1496296308469 138.21927710846649,125.28825735220744 138.19036144582788,125.40708098716277 138.16144578313106,125.46649276100652 137.8578313253238,125.60512011998071 137.42409638557,125.74374732042634 137.25060240968014,125.8427666522839 137.1349397590675,125.98139358095068 137.06265060245642,126.27845075132063 137.01927710845484,126.37746964639518 136.91807228917605,126.49629221362557 136.65783132531215,126.55570345356682 136.49879518075613,126.51609596353956 136.23855421689223,126.3972734156705 136.02168674700079,126.35766587383114 135.8192771084723,126.25864696263307 135.3566265060217,126.41707718171529 135.13975903618848,126.51609596353956 135.0674698795192,126.53589971017209 134.82168674698914,126.37746964639518 134.344578313292,126.2190393754936 133.9831325301493,126.23884317070042 133.76626506022876,126.10021653643344 133.37590361447656,125.96158974366699 133.0,125.64472790771833 133.01445783136296,125.48629667910427 133.08674698797404,125.40708098716277 133.4915662650892,124.57531309618935 133.70843373495154,124.2584476363918 133.92530120484298,123.8425604633012 134.1132530120667,123.40686760868266 134.98072289157426,121.76310319370532 135.40000000002328,121.05013820304157 135.83373493977706,120.27775473062502 136.22409638555837,119.44595164050406 137.20722891564947,117.50505556403368 137.40963855423615,117.24758742305858 137.71325301207253,116.73264950040175 138.07469879521523,116.37615273388656 138.26265060240985,116.11868219484313 138.4072289156611,115.80179462674278 138.85542168677785,115.04918333194655 139.18795180725283,114.41540177472052 139.47710843372624,113.54394672210765 139.63614457836957,113.24685834021511 140.1132530120376,112.5338432523713 140.41686746993219,111.99907918377721 140.86506024099072,111.04838168026617 141.80481927710935,109.46386926869309 142.0216867470299,109.14696430052572 142.12289156627958,109.12715771247167 142.7734939758957,109.4242561930223 144.08915662651998,110.55322377695848 144.7686746988329,111.02857540299738 145.11566265061265,111.48411896176549 145.30361445783637,111.66237467084284 145.44819277111674,111.78121166460915 145.80963855423033,111.90004854184372 146.09879518070375,112.05849753018992 146.50361445784802,112.3753948854719 147.03855421688058,112.87054534433992 147.4289156626328,113.12802278353047 148.45542168678367,113.88064600795042 149.58313253015513,114.65307024704816 150.33493975905003,115.06898895224731 150.92771084338892,115.42548956353858 151.1301204819465,115.58393394304585 151.83855421686894,115.96023851437349 152.2144578313455,116.21770939000271 152.98072289157426,116.65342808733112 153.40000000002328,116.79206552623509 154.49879518072703,117.386224182359 155.95903614460258,117.96057478136936 156.55180722891237,118.17843119316967 157.07228915661108,118.45570242365648 158.02650602412177,118.75277803820791 158.33012048195815,118.87160808016779 159.08192771088216,119.28751230950729 160.71566265061847,119.98068285371119 160.97590361448238,120.0400972873831 161.84337349398993,120.3569737748403 162.32048192771617,120.63424002179818 162.9710843373614,120.85209162806132 163.66506024097907,121.14916136921966 164.09879518073285,121.38681663791067 164.48915662651416,121.54525322488189 165.24096385543817,121.76310319370532 165.920481927722,122.159193043095 166.83132530123112,122.55528159817186 167.14939759037225,122.73352102567878 168.21927710846649,123.14941200389148 168.75421686749905,123.30784628695983 169.34698795183795,123.60491000949696 171.6891566265258,124.35746818153712 172.22409638555837,124.59511715990084 172.78795180725865,124.91198173959856 173.4963855421811,125.16943360070582 174.20481927713263,125.52590450567368 175.28915662650252,125.8823743623143 175.76626506025787,126.12002035106707 176.54698795182048,126.4368809445732 176.92289156626794,126.49629221362557 177.35662650605082,126.71413328438939 177.7903614458046,126.81315182357503 178.61445783133968,127.42706496082974 178.94698795184377,127.56569007766666 179.82891566265607,127.80333276622696 181.60722891567275,128.5162580364995 181.99759036148316,128.57566828647396 182.17108433737303,128.63507850727183 182.54698795182048,128.83311236636655 182.98072289157426,129.14996586795314 183.83373493980616,129.46681854130293 184.3108433735324,129.58563808025792 185.38072289156844,130.1599308769146 186.58072289158008,130.65500869017706 187.0,130.8728422875356" stroke="#4dd2ff" stroke-linecap="round" stroke-linejoin="round" stroke-width="0.5"><title>2022-08-17 4.3km</title></polyline><polyline fill="none" points="58.14156368831755,158.48401048970118 58.015798948763404,158.5988570474292 57.28217130104895,158.6275686750887 56.94679866210208,158.71370353008388 56.82103392246063,158.91468469408574 56.69526918287738,159.4602038377925 56.54854365333449,159.51762680696265 55.83587679557968,159.63247268919076 55.54242573646479,159.7473184963601 55.37473941699136,159.94829847828078 55.290896257269196,160.12056685127027 55.18609230758739,160.7235048268485 55.08128835790558,160.8670611828129 54.997445198183414,160.8957724399661 54.200935180619126,160.83834992101765 53.38346437324071,160.6660822516278 52.83848383493023,160.8096386545658 52.398307246301556,161.01061742154707 52.25158171672956,161.01061742154707 51.47603248915402,160.52252573151782 51.26642458984861,160.43639176318538 50.910091160883894,160.4938144133921 50.78432642130065,160.43639176318538 50.59567931192578,160.32154640633962 49.71532613466843,159.86216422847065 49.33803191583138,159.83345280244248 49.17034559638705,159.94829847828078 47.7869334606803,162.70457218204683 47.17907055254909,164.08269282308174 46.235835005529225,166.83890168488142 45.795658416929655,167.87246886390494 45.69085446721874,168.3318301034742 45.54412893767585,168.70506022653717 45.39740340816206,168.99215978189022 45.27163866857882,169.13570938358316 44.93626602960285,169.2218390883936 44.72665813023923,169.33667862914444 44.64281497048796,169.45151809482195 44.370324701361824,169.99700453200785 44.01399127248442,171.08797232715006 43.78342258319026,171.57603467459558 43.46901073420304,172.32248034895747 42.81922624621075,174.18858066505345 42.4419320274028,175.02114210638683 42.29520649785991,175.71015548905416 42.33712807772099,176.91592240902537 42.23232412803918,177.31784287752816 39.69606854597805,183.6623227907985 39.44453906675335,184.4948393564846 39.04628405801486,185.4708882394334 38.64802904924727,186.61917410366004 38.0611269310466,187.96840040831012 37.704793502169196,188.94443000244792 37.4532640229736,189.46114935808873 37.39038165315287,189.5185625260783 37.327499283332145,189.66209536400856 36.78251874507987,191.1835362396232 36.67771479539806,191.6141303229233 36.111773467157036,193.22167224703298 35.168537920108065,195.5181352072541 34.60259659183794,197.26916805424844 34.0785768435162,198.24514600486145 33.93185131397331,198.35996658400109 33.575517885095906,198.44608196908666 33.40783156562247,198.61831261277257 33.19822366622975,199.22111853661772 32.380752858822234,201.17304734388017 31.814811530610314,202.952728248536 31.374634941952536,203.8999704151065 30.976379933214048,205.04813589500554 30.829654403642053,205.24906408293464 30.389477815042483,205.3064720944676 29.404320688103326,205.19165605264425 26.344045357691357,204.70368703841814 25.820025609311415,204.73239113560703 24.834868482343154,204.9046156200784 24.20604478433961,205.07683993587852 22.759750278870342,205.9379589838063 22.298612900282023,206.3972207511979 21.900357891543536,206.91388880531304 21.858436311682453,207.0 22.068044211016968,206.85648131872586 22.4872600097151,206.2824054218072 22.96935817823396,205.823143354457 24.247966364200693,205.04813589500554 24.8558292723028,204.84720747738902 25.589456920017255,204.70368703841814 26.42788851741352,204.70368703841814 27.685535913478816,204.818503398943 29.25759515853133,205.07683993587852 30.3475562351814,205.19165605264425 30.74581124391989,205.19165605264425 30.934458353323862,205.07683993587852 31.31175257213181,204.0147873005917 31.626164421177236,203.3258848629048 31.814811530610314,202.72309301527275 32.50651759846369,200.91470506973565 33.47071393538499,198.6757227898197 33.68032183471951,198.44608196908666 34.09953763347585,198.21644084835134 34.20434158309945,197.9867994276574 34.413949482433964,197.38398927089293 34.97989081070409,195.97742419897986 35.31526344968006,195.259784622016 37.034048224275466,190.49458351239446 37.59998955251649,189.17408323702693 39.42357827682281,184.32259487331612 39.84279407552094,183.37524719869543 40.49257856345503,181.71019951773633 40.995637521875324,180.2748009256029 41.70830437971745,178.49489039064792 42.23232412803918,176.91592240902537 42.253284917998826,176.68625315731333 42.190402548148995,175.8536996037583 42.211363338137744,175.59532011282863 42.46289281730424,174.87759731168626 42.81922624621075,174.13116248926963 42.98691256571328,173.55697969942412 43.25940283481032,172.9253764639143 43.65765784360701,171.6621631834132 44.47512865104363,169.4802279495052 44.663775760447606,169.13570938358316 44.894344449741766,168.99215978189022 45.208756298728986,168.934739908349 45.292599458480254,168.8773200159485 45.37644261820242,168.73377020315093 45.64893288741587,168.07343955403485 45.92142315657111,167.52794714631455 46.55024685454555,165.7766179722821 46.990423443203326,164.80045971028449 47.17907055254909,164.14011428192316 47.51444319152506,163.4223446977703 47.765972670778865,162.70457218204683 48.2899924191006,161.55613005904888 48.541521898354404,160.8670611828129 49.48475744537427,158.97210784160416 49.84109087425168,158.42658718269377 50.469914572284324,157.30682894593338 51.47603248915402,155.124715471713 51.895248287852155,154.29205976682715 52.23062092679902,153.71781215435476 52.54503277584445,153.0" stroke="#4dd2ff" stroke-linecap="round" stroke-linejoin="round" stroke-width="0.5"><title>2022-08-16 5.3km</title></polyline><polyline fill="none" points="179.52738574511022,153.0 179.27090664880234,153.57488635217305 179.1543252413685,154.0539570208639 179.03774383393466,154.3094608973479 178.8745298634749,154.37333681432938 177.89524604109465,154.5330265153898 177.66208322622697,154.6927160860796 177.59213438176084,154.94821912772022 177.61545066320105,155.55503751336073 177.56881810023333,155.7786017069011 177.4289204113593,155.9063525598758 177.26570644095773,155.93829026001913 176.96259478162392,155.93829026001913 176.54290171485627,155.8744148544065 176.14652492958703,155.9063525598758 175.4936690479226,155.58697527091135 175.35377135899034,155.61891302335425 174.74754804035183,155.8744148544065 174.3511712550826,156.0660410086275 174.25790612911806,156.03410332926433 173.32525486970553,155.49116198252887 173.11540833633626,155.427286430815 172.7190315509797,155.52309975058597 172.46255245464272,155.427286430815 171.32005466186092,154.7885297658504 170.94699415803188,154.6927160860796 170.78378018763033,154.82046764859115 170.4573522467981,155.55503751336073 170.20087315046112,155.93829026001913 169.5713335503242,157.50323117761582 168.68531485382118,159.19590827063075 166.86664489787654,164.3377242753195 166.54021695704432,164.91257728695928 166.35368670514436,165.04032217110216 165.9339936383767,165.16806697177526 165.74746338647674,165.4874286083068 165.14124006783823,167.43552329328668 164.69823071960127,168.2977885135624 164.60496559363673,168.64908066111093 164.34848649729975,169.19198546568805 164.2552213713643,169.54327600657416 163.99874227499822,170.11811371168005 163.83552830459666,170.6929497266683 163.32257011183538,171.74681136428262 163.20598870445974,172.38551262236433 163.1127235784952,173.79064804542577 162.8562444821,174.589015945734 162.13343975605676,176.24961073529266 161.50390015591984,177.94212552608224 160.75777914834907,180.17749996471684 160.19818839262007,181.48677883872006 159.4054348220816,183.65824642225925 158.3328858736786,186.21288329156232 158.12303934036754,186.81960464298027 157.93650908840937,187.49018920942035 157.70334627354168,188.19270390743623 156.65411360666621,190.71534951731155 156.46758335476625,191.2901249770075 155.81472747313092,192.91864627046743 155.27845299898763,194.35556555977382 154.81212736922316,195.6966807025019 154.13595520608942,197.2613034099777 153.97274123568786,197.4528890035872 153.62299701338634,197.61254352150718 153.45978304298478,197.7083361697296 153.31988535405253,197.96378300210927 152.76029459838173,199.43259581223538 152.57376434648177,199.81576255684195 151.89759218337713,201.5400036159117 150.9416246424371,204.1901963402488 150.52193157566944,205.05229948388296 150.3820338867372,205.18001814487798 150.1022385089018,205.21194779705547 145.46229849307565,204.50949424407736 144.62291235954035,204.5733537622 144.2032192928018,204.63721325954248 143.55036341110826,204.79686191161454 143.13067034439882,204.9565104334324 141.685060892225,205.7547510870354 141.3353166699235,206.01018740799918 140.47261425486067,207.0 141.3353166699235,206.01018740799918 141.89490742559428,205.5631736272917 142.85087496656342,205.05229948388296 143.9234239149373,204.66914300042845 144.43638210764038,204.5414240057289 145.53224733754178,204.47756447711436 146.55816372294794,204.5733537622 149.93902453850023,205.0842291569861 150.4286664497049,205.05229948388296 150.54524785716785,205.02036980557023 150.61519670160487,204.9245807394327 151.92090846487554,201.38035230468086 152.29396896864637,200.10313712255447 152.62039690944948,199.33680400875164 153.34320163555094,197.80412877097842 153.5297318874509,197.61254352150718 153.97274123568786,197.3570962302183 154.15927148758783,197.16551054282172 154.6255971173232,196.0159924759937 155.39503440642147,193.97238811512943 155.72146234719548,192.98250957434357 157.07380667340476,189.50192910926125 157.79661139950622,187.49018920942035 158.47278356261086,185.92548831010936 158.8458440664399,184.87170309705834 159.1489557257737,184.23304262800957 159.75517904444132,182.60444898935384 159.89507673328626,182.09351485605293 160.244820955646,181.13550975752878 161.01425824471517,179.31528713770967 161.22410477808444,178.64467453233374 162.4831839783874,175.57898761425167 163.04277473405818,173.98225663878839 163.13603985999362,173.63097407409805 163.13603985999362,173.31162574034533 163.04277473405818,172.51325262367027 163.0894072970259,172.09809731450514 163.25262126736925,171.6510059957218 163.81221202309825,170.5652085361071 163.99874227499822,170.0223075448157 164.16195624539978,169.25585652005975 164.5117004677013,168.39359552544192 164.67491443813196,167.78681699026492 165.39771916420432,166.12615031613677 165.72414710494922,165.2638755175576 165.887361075409,165.008385957859 166.4935843940766,164.7209598041809 166.63348208300886,164.52934213369736 166.79669605341041,163.98642438059323 167.51950077948277,162.26185210447875 167.96251012774883,161.04825508657086 168.21898922408582,160.50532766563992 169.10500792055973,158.30166559487407 170.7138313431642,154.66077818234044 170.78378018763033,154.5330265153898 170.9703104395012,154.43721271042887 171.48326863220427,154.72465398453642 171.8330128545058,154.98015698450035 172.06617566937348,155.0440326822427" stroke="#4dd2ff" stroke-linecap="round" stroke-linejoin="round" stroke-width="0.5"><title>2022-08-14 5.0km</title></polyline><polyline fill="none" points="55.93779063160764,213.0 55.6190348189848,213.10075947597215 54.68728705900139,213.10075947597215 54.34401156849344,213.23510536705726 54.27045253480901,213.30227827966155 54.098814789555036,213.83966079026868 53.878137688472634,214.14193783527298 53.63294090950512,214.30986933482927 53.093507995828986,214.37704189623764 52.62763411583728,214.5113869531633 52.43147669263999,214.67931815101474 52.35791765898466,214.8472492115834 52.235319269500906,215.5525581680413 52.16176023581647,215.65331639292708 51.94108313479228,215.72048851534782 51.475209254800575,215.68690245682956 50.8622173074109,215.75407456830726 50.37182374953409,215.51897208216542 50.15114664848079,215.48538599080348 48.97420210952987,215.92200475101708 48.704485652648145,215.85483269432734 47.74821821477963,215.2502831973543 47.11070658947574,215.2502831973543 45.71308494952973,214.34345561823284 45.46788817059132,214.27628304585232 45.320770103193354,214.34345561823284 45.24721106950892,214.4778006972192 45.026533968455624,215.0823524659645 44.290943631582195,216.5265522726113 43.01592038109084,219.2134086375445 42.57456617898424,220.55682365142275 41.83897584216902,222.47117487803916 41.42214131797664,223.51230578072136 40.85818872638629,225.05719998426503 40.71107065898832,225.22512256764458 40.31875581265194,225.32587605192384 40.2206771010824,225.3930450140033 40.02451967791421,225.6617206427909 39.77932289900491,226.3669924978749 39.190850629500346,227.87828118301695 38.94565385050373,228.34845761924225 38.774016105307965,228.8858008012321 38.57785868213978,229.3895587587176 38.43074061474181,229.96048295173387 37.81774866738124,231.33741124736844 37.25379607581999,232.7479135980684 37.204756719991565,233.05016284289013 37.155717364221346,234.46065344325325 36.34656799372169,236.84503221462364 35.954253147385316,237.78534300056344 35.19414313262678,239.86744443682255 34.605670863209525,241.07639688528434 34.041718271619175,242.28534222512098 33.72296245893813,243.35995433747303 33.52680503579904,243.79651390368235 33.23256890106131,244.9046994090022 32.86477373263915,245.77781105494068 32.5214982421021,246.78524296225805 31.88398661685642,248.46428517217282 31.58975048211869,249.06873701117001 30.952238856843906,250.71418023730803 30.388286265253555,251.95664904984005 29.87337302949163,253.60206916557217 29.505577861040365,254.47514388000127 29.186822048417525,255.48253317479976 28.62286945685628,256.85929056275927 27.86275944209774,259.00835684058256 27.740161052613985,259.2434096020588 27.642082341073547,259.34414641761396 27.029090393683873,259.64635656807513 26.857452648400795,259.88140860022395 26.61225586949149,260.55298435443547 26.146381989499787,261.5939224388858 25.827626176847843,262.5676984570746 25.361752296827035,263.7093610196025 24.96943745049066,264.783861170552 24.06220936839236,267.0 24.209327435761224,266.39560086961137 24.920398094749544,264.6495489587396 25.63146875365055,262.43338479765225 26.73485425885883,259.7806720479275 27.053610071598087,259.4448831837508 27.494964273675578,259.20983065260225 27.71564137469977,259.0419358230138 27.985357831581496,258.2360387325316 28.524790745257633,257.09434578088985 29.039703981077764,255.71758996674907 29.505577861040365,254.17292612910387 30.241168197855586,252.19170987252437 30.731561755790608,251.04998335940763 31.44263241472072,249.0015757834626 32.423419530532556,246.78524296225805 33.330647612630855,244.06516548378568 34.28691505055758,241.8151976599038 34.31143472844269,241.58012497423624 34.5566315073811,240.841323354849 35.31674152211053,239.02788994298317 35.66001701261848,238.42340858462558 35.70905636844691,238.0875848397991 35.9052137916151,237.58384819419007 36.101371214783285,236.84503221462364 36.49368606111966,236.03904811808025 37.03311897473759,234.66215131047647 37.13119768636534,234.158406272094 37.08215833056602,233.0165796153742 37.18023704213556,232.44566390904947 37.2783157537051,232.24416386945813 37.572551888471935,231.80757977280882 37.86678802315146,231.2030771854479 38.43074061474181,229.3895587587176 38.79853578322218,228.34845761924225 39.0927719179017,227.87828118301695 39.33796869684011,227.17301451250387 39.80384257689002,225.59455176856136 39.95096064422978,225.35946053566295 40.07355903368443,225.22512256764458 40.539432913734345,225.0236154510785 40.6620313032181,224.9228618186171 40.76011001475854,224.7549389883061 41.27502325057867,223.54589056079567 41.93705455373856,221.66513442905853 42.795243280008435,219.6836048909754 43.163038448488805,218.64245459831727 43.89862878527492,216.8959971051081 45.173652035795385,214.44421443564352 45.320770103193354,214.30986933482927 45.516927526303334,214.34345561823284 45.884722694783704,214.44421443564352 46.30155721900519,214.7464905916422 47.037147555849515,215.04876630326908 47.184265623189276,215.0823524659645 47.77273789269384,214.94800778206263 48.949682431615656,215.48538599080348 50.10210729265236,215.14952477495535 50.83769762949669,215.41821379144676 51.352610865287716,215.41821379144676 51.96560281270649,215.61973032340757 52.30887830321444,215.61973032340757" stroke="#4dd2ff" stroke-linecap="round" stroke-linejoin="round" stroke-width="0.5"><title>2022-07-26 4.5km</title></polyline><polyline fill="none" points="174.9404767745291,214.17691077121708 174.2006129086658,214.11152702115942 173.74714795866748,214.2096026383224 173.67554822965758,214.30767820749315 173.69941480603302,214.6019046263682 173.67554822965758,214.7653635610186 173.603948500735,214.9288223622716 173.50848219549516,215.05958930708584 173.36528273756267,215.1249727474351 172.74475175334373,215.15766445954796 172.43448626121972,215.32112294020772 172.21968707433552,215.5826562316215 172.10035419280757,215.77880597588955 171.9810213111632,216.49802005950187 171.88555500592338,216.62878597881354 171.79008870065445,216.66147744533373 171.33662375059794,216.66147744533373 170.54902673218749,216.53071154738427 170.28649439266883,216.43263706789003 170.00009547683294,216.23648796457564 169.78529629003606,216.20379642868647 169.4511642216239,216.39994556397141 169.04543242423097,216.53071154738427 168.75903350839508,216.6941689064406 168.59196747417445,216.6941689064406 168.1862356767815,216.43263706789003 167.49410496355267,216.07303023157874 167.35090550567838,216.04033866900136 166.94517370825633,216.1711048874131 166.70650794511312,216.10572178887378 165.7995780450583,215.4191979645111 165.44157940029982,215.2230478678539 165.15518048449303,215.2230478678539 165.03584760290687,215.32112294020772 164.63011580548482,216.46532856635167 164.05731797390035,217.41337970008317 162.95945546333678,219.83252430779976 161.74226007112884,223.29773455220857 161.00239620532375,225.16107751590607 160.64439756056527,225.7821879813855 160.54893125526723,225.8475679182302 160.21479918682599,225.91294783366902 160.04773315263446,226.0763975289883 159.83293396577938,227.0570928971283 159.4749353210209,227.87433536583558 159.30786928682937,228.36467924505996 158.90213748943643,229.1492269526061 158.63960514991777,229.96646087728732 157.70880867357482,232.15663133803173 157.4701429104025,232.77772009115142 157.3985431814508,233.2680519557034 157.27921029986464,234.90248282745597 157.20761057088384,235.16399052811903 156.2052143655892,237.4848563975538 155.34601761813974,239.93644604117435 154.51068744709482,241.86500878880906 154.08108907335554,243.17249838568387 153.55602439437644,244.44729251823446 152.88776025749394,246.24506531492807 152.60136134168715,247.16028889888548 152.31496242585126,247.78133109021292 152.1240298153425,248.3369987856713 151.57509856004617,249.54638784863346 151.2170999153459,250.55965413978265 150.88296784690465,251.37680063789594 150.50110262582893,252.3900576619344 150.3340365916083,253.07645466690883 150.21470370996394,253.43599501576682 149.92830479421536,254.0897030861961 149.54643957313965,255.13563155777229 148.97364174152608,256.57377428148175 148.04284526512492,258.7963381650479 147.82804607824073,259.0904991825373 147.32684797560796,259.38465976776206 147.18364851770457,259.58076658428763 146.70631699138903,260.75740344874794 146.30058519399608,262.0320855794853 144.3912590885884,266.803900452549 144.36739251230028,267.0 144.43899224125198,266.93463350553066 144.6060582754726,266.2809673867596 145.32205556498957,264.15653775758983 145.82325366762234,262.8491852396255 145.96645312552573,262.3262418414233 146.30058519399608,261.6725606722175 146.49151780456305,261.05156158407044 146.8256498729752,260.1690858811926 147.04044905977207,259.5480821282399 147.32684797560796,259.2212372737704 147.85191265458707,258.92707644843904 147.97124553617323,258.8290227439429 148.13831157039385,258.4694920830225 149.069108046795,256.18155456351815 149.52257299679331,254.84146472768043 150.35790316789644,252.6842280951969 150.9307009994809,251.0499424389709 151.3602993732202,250.00399261532584 151.670564865286,249.38295732124243 152.14789639168885,247.87939020743943 153.12642602072447,245.42789786384674 153.62762412335724,243.92430103597871 154.03335592072108,242.87831397114496 154.82095293921884,241.08051093050744 155.58468338137027,238.8577502979897 155.96654860241688,238.04055268225784 156.84961192612536,235.78506994777126 157.20761057088384,234.67366330903315 157.23147714723018,234.28140066866763 157.15987741827848,233.85644860731554 157.15987741827848,233.36611818452366 157.18374399459572,232.84309774251597 157.80427497881465,231.53554065727803 158.04294074198697,230.81638061857666 158.94987064201268,228.6588849957625 159.37946901578107,227.41667999447964 159.64200135524152,226.8282644078281 159.88066711835563,226.1744672821369 160.0715997289226,225.97832772789116 160.57279783164267,225.74949800498143 160.69213071317063,225.58604804261995 161.1933288158325,224.18037285574246 161.50359430795652,223.42849602803471 161.8615929527732,222.6766163752618 162.57759024229017,220.97670413747255 162.9833220395667,219.7998333593423 163.6515861765074,218.26335275976453 163.9379850923142,217.7076015524217 164.534649500245,216.26917949509516 164.94038129760884,215.48458128735365 165.08358075554133,215.28843125479762 165.2745133660792,215.19035616633482 166.27690957140294,215.77880597588955 166.9213071319682,215.97495552773762 167.30317235304392,215.87688077584608 167.44637181097642,215.87688077584608 167.54183811621624,215.90957236511167 167.89983676094562,216.1711048874131 168.44876801624196,216.39994556397141 168.6397006267507,216.39994556397141 169.02156584785553,216.1711048874131 169.8091628663242,216.00764710109797 170.47742700320669,216.3672540547268 170.90702537694597,216.26917949509516 171.33662375059794,216.3345625402144 171.9094215822406,216.23648796457564 172.1242207690957,216.10572178887378 172.17195392170106,215.97495552773762 172.21968707433552,215.77880597588955 172.21968707433552,215.28843125479762 172.31515337963356,215.09228102986526 172.62541887172847,214.9288223622716 173.19821670337114,214.8961306127312 173.603948500735,214.79805533199396 173.79488111130195,214.6999800032645 174.15287975606043,214.2749863564095 174.67794443501043,213.84999180691375 175.3939417244983,213.71922407159582 175.4655414535082,213.55576428232598 175.41780830084463,213.26153632513888 175.44167487716186,213.19615227587929 175.63260748772882,213.0" stroke="#4dd2ff" stroke-linecap="round" stroke-linejoin="round" stroke-width="0.5"><title>2022-07-25 4.6km</title></polyline></svg>