<?xml version="1.0" encoding="utf-8" ?>
<svg baseProfile="full" height="200mm" version="1.1" viewBox="0,0,200,200" width="200mm" xmlns="http://www.w3.org/2000/svg" xmlns:ev="http://www.w3.org/2001/xml-events" xmlns:xlink="http://www.w3.org/1999/xlink"><defs /><rect fill="#1a1a1a" height="200" width="200" x="0" y="0" /><text alignment-baseline="middle" fill="#e1ed5e" style="dominant-baseline: central; font-size:9.0px; font-family:Arial;" text-anchor="middle" x="100.0" y="100.0">2025</text><line stroke="#e1ed5e" stroke-width="0.3" x1="100.0" x2="100.0" y1="15.0" y2="10.0" /><path d="M 100.0 14.0 a86.0,86.0 0 0,1 42.46469731375804,11.215312516191453" fill="none" id="id37" stroke="none" /><text fill="#e1ed5e" style="font-size:6.75px; font-family:Arial;" text-anchor="middle"><textPath startOffset="22.20632615414155" xlink:href="#id37">January</textPath></text><path d="M 100.0 79.0 l 0.0 -30.206029693050368 a51.20602969305037,51.20602969305037 0 0,0 0.8814276264327222,0.007586725857339419 l -0.5199471471601939 30.201554343801586" fill="red" stroke="none" /><path d="M 100.36148047927253 79.00311137660856 l 0.490956932933082 -28.517634093059616 a49.521859914382006,49.521859914382006 0 0,0 0.8521848166032677,0.02200941962275596 l -0.9817683847312175 28.504957881294498" fill="red" stroke="none" /><path d="M 101.08401301168833 79.027996857942 l 2.442391207535464 -47.25204912327719 a68.31512888241188,68.31512888241188 0 0,0 1.173842435199398,0.07080938131586989 l -3.255395691574474 47.203006472581016" fill="red" stroke="none" /><path d="M 101.44485096284872 79.0497635885617 l 3.626274549712761 -52.58072359205596 a73.70561981965571,73.70561981965571 0 0,0 1.2649632610539707,0.09818549474721816 l -4.530828000129073 52.510512835120274" fill="red" stroke="none" /><path d="M 102.16513564639614 79.11191278185805 l 3.5124538662866835 -33.8863030733515 a55.067856817560795,55.067856817560795 0 0,0 0.9420098921536578,0.10584578737420551 l -4.095230461950067 33.82082133250669" fill="red" stroke="none" /><path d="M 102.52436894288641 79.15227682838746 l 3.82069757937366 -31.553567350640826 a52.78404226250114,52.78404226250114 0 0,0 0.9010619867107641,0.11698370652723232 l -4.36327429459227 31.48312532094946" fill="red" stroke="none" /><path d="M 102.88285421437855 79.19881850522331 l 4.257717559536238 -30.72148264302795 a52.01511977411422,52.01511977411422 0 0,0 0.8858200151400979,0.130546843767794 l -4.785906555104992 30.643641315099188" fill="red" stroke="none" /><path d="M 103.2404852339499 79.25152402106235 l 4.899068230913025 -31.368203268858615 a52.748465251844436,52.748465251844436 0 0,0 0.8958969988729196,0.1478306811557332 l -5.438294435924821 31.279226324763258" fill="red" stroke="none" /><path d="M 103.59715602781102 79.31037775812273 l 5.458247692331932 -31.393990692604618 a52.86495127060753,52.86495127060753 0 0,0 0.8951921235469256,0.1635906386541473 l -5.997834936981759 31.295384572599733" fill="red" stroke="none" /><path d="M 103.95276090670814 79.375362276772 l 5.914560176282096 -30.86087517234628 a52.42253392840878,52.42253392840878 0 0,0 0.8847765202417794,0.1774778464151518 l -6.444903105991002 30.75449336985392" fill="red" stroke="none" /><path d="M 104.307194497241 79.44645832069477 l 6.3413327127610515 -30.26026484236175 a51.91756990618454,51.91756990618454 0 0,0 0.873098455077948,0.19082550516292796 l -6.861273891992528 30.14662583910295" fill="red" stroke="none" /><path d="M 104.66035177308747 79.52364482259891 l 6.9004957249311625 -30.318956216950824 a52.09430731396302,52.09430731396302 0 0,0 0.8726449217689122,0.20652685895606032 l -7.4213643336625985 30.195683445853895" fill="red" stroke="none" /><path d="M 105.36241919743992 79.69619591428918 l 7.978717100072836 -30.209930050326786 a52.24579652063029,52.24579652063029 0 0,0 0.8675342631396327,0.2371298854127079 l -8.49754925243618 30.068113624087783" fill="red" stroke="none" /><path d="M 105.71112130821622 79.79150937346287 l 8.352105266847577 -29.553468029846066 a51.71099371527461,51.71099371527461 0 0,0 0.8544866985925081,0.2494480988872257 l -8.859582183163512 29.40532160204014" fill="red" stroke="none" /><path d="M 106.40334571778207 80.00007090966166 l 13.986985699984906 -43.68633750485173 a66.87081701430003,66.87081701430003 0 0,0 1.0932333415092008,0.36042184445670106 l -14.736901863736525 43.43910193613579" fill="red" stroke="none" /><path d="M 107.08798089147638 80.2323363322302 l 10.54578448513222 -29.41112906576368 a52.244648875125236,52.244648875125236 0 0,0 0.8439194420118268,0.310822652622101 l -11.050486252916624 29.225243145335256" fill="red" stroke="none" /><path d="M 107.4271985657038 80.35727306442388 l 10.94292412777345 -28.94077337734577 a51.940522816285636,51.940522816285636 0 0,0 0.8335633622765317,0.32340963437947 l -11.43947065504965 28.748121039075752" fill="red" stroke="none" /><path d="M 107.76421540070413 80.48803036053334 l 11.11062830498795 -27.921719191698763 a51.05109754986793,51.05109754986793 0 0,0 0.8136964678646451,0.331927219943553 l -11.589608642440982 27.726331085571633" fill="red" stroke="none" /><path d="M 108.09893153111575 80.62456947434976 l 11.069547914739314 -26.482166906631523 a49.70261408142818,49.70261408142818 0 0,0 0.7865231399780178,0.3367481615708972 l -11.523754812507645 26.287699217097835" fill="red" stroke="none" /><path d="M 108.76106565485865 80.91482961587045 l 20.559258177591616 -44.78644045693725 a70.27989798706622,70.27989798706622 0 0,0 1.095100663286171,0.5141644451096068 l -21.327137052177385 44.42591102918764" fill="red" stroke="none" /><path d="M 109.73455568895987 81.39251694778311 l 12.766995247372442 -24.403953840711935 a48.541770653064944,48.541770653064944 0 0,0 0.737037334429353,0.3936998188328476 l -13.185177628330106 24.180575295377334" fill="red" stroke="none" /><path d="M 110.05341064243156 81.56283822128135 l 17.831320287828554 -32.70123429428803 a58.24683486656344,58.24683486656344 0 0,0 0.876132001054594,0.48756651001889073 l -18.391576377955182 32.38945238670896" fill="red" stroke="none" /><line stroke="#e1ed5e" stroke-width="0.3" x1="143.23703022742887" x2="145.7803849466894" y1="26.81831364943548" y2="22.513508569990506" /><path d="M 143.74570117128098 25.957352633546492 a86.0,86.0 0 0,1 28.547481713284135,27.462654790039103" fill="none" id="id38" stroke="none" /><text fill="#e1ed5e" style="font-size:6.75px; font-family:Arial;" text-anchor="middle"><textPath startOffset="19.985693538727396" xlink:href="#id38">February</textPath></text><path d="M 110.68208982089419 81.91981866633111 l 32.04626946268258 -54.24054400100664 a84.0,84.0 0 0,0 1.23855173512945,0.7462135621655417 l -32.97518326402967 53.68088382938249" fill="red" stroke="none" /><path d="M 111.2981086023043 82.29822771554956 l 16.577316812585853 -25.973186984920353 a51.81256034247199,51.81256034247199 0 0,0 0.7476625839195592,0.4863005421690763 l -17.02194642228969 25.68398751859175" fill="red" stroke="none" /><path d="M 111.60114157652 82.49532879139004 l 17.295517380861604 -26.096771868342103 a52.30776937790327,52.30776937790327 0 0,0 0.7462458167469077,0.5038685066370588 l -17.742167892015054 25.795191449406374" fill="red" stroke="none" /><path d="M 112.19680574252982 82.90503203632743 l 22.17154655690515 -31.075503381490527 a59.174132434647966,59.174132434647966 0 0,0 0.8240834372006658,0.5987316637511152 l -22.703175310459603 30.689252482922736" fill="red" stroke="none" /><path d="M 112.48926042617603 83.11751280151076 l 18.35303588102707 -24.80890643175753 a51.85961380817925,51.85961380817925 0 0,0 0.7130791881769823,0.537076460852975 l -18.777361222962437 24.48931338139871" fill="red" stroke="none" /><line stroke="#e1ed5e" stroke-width="0.3" x1="172.23445277983987" x2="176.4835382374775" y1="55.19839476539836" y2="52.563006222186495" /><path d="M 173.08426987136738 54.67131705675599 a86.0,86.0 0 0,1 12.851231095245387,41.99856678651699" fill="none" id="id39" stroke="none" /><text fill="#e1ed5e" style="font-size:6.75px; font-family:Arial;" text-anchor="middle"><textPath startOffset="22.20632615414155" xlink:href="#id39">March</textPath></text><line stroke="#e1ed5e" stroke-width="0.3" x1="184.98032266829074" x2="189.97916517819016" y1="98.17113171792111" y2="98.06355123074" /><path d="M 185.9800911702706 98.14961562048488 a86.0,86.0 0 0,1 -9.607161424134198,41.387399972396054" fill="none" id="id40" stroke="none" /><text fill="#e1ed5e" style="font-size:6.75px; font-family:Arial;" text-anchor="middle"><textPath startOffset="21.466115282336823" xlink:href="#id40">April</textPath></text><line stroke="#e1ed5e" stroke-width="0.3" x1="174.80103733775053" x2="179.2010983576182" y1="140.37084112569926" y2="142.7455964860345" /><path d="M 175.68104954172406 140.8457921977663 a86.0,86.0 0 0,1 -30.038265399797805,32.042727171017184" fill="none" id="id41" stroke="none" /><text fill="#e1ed5e" style="font-size:6.75px; font-family:Arial;" text-anchor="middle"><textPath startOffset="22.206326154141568" xlink:href="#id41">May</textPath></text><line stroke="#e1ed5e" stroke-width="0.3" x1="143.8653032363475" x2="146.44561519142675" y1="172.8068346515853" y2="177.08958963109032" /><path d="M 144.38136562736335 173.6633856474863 a86.0,86.0 0 0,1 -40.68145358897372,12.25698825130547" fill="none" id="id42" stroke="none" /><text fill="#e1ed5e" style="font-size:6.75px; font-family:Arial;" text-anchor="middle"><textPath startOffset="21.466115282336833" xlink:href="#id42">June</textPath></text><line stroke="#e1ed5e" stroke-width="0.3" x1="102.19456741930631" x2="102.32365962044197" y1="184.97166512339345" y2="189.96999836594603" /><path d="M 102.22038585953345 185.97133177190398 a86.0,86.0 0 0,1 -42.740103519485714,-10.115201625700543" fill="none" id="id43" stroke="none" /><text fill="#e1ed5e" style="font-size:6.75px; font-family:Arial;" text-anchor="middle"><textPath startOffset="22.20632615414155" xlink:href="#id43">July</textPath></text><line stroke="#e1ed5e" stroke-width="0.3" x1="58.666819895761336" x2="56.23545636021788" y1="174.27360380694188" y2="178.64263932499728" /><path d="M 58.180547188652646 175.14741091055294 a86.0,86.0 0 0,1 -31.652253787137756,-30.449443065178592" fill="none" id="id44" stroke="none" /><text fill="#e1ed5e" style="font-size:6.75px; font-family:Arial;" text-anchor="middle"><textPath startOffset="22.20632615414155" xlink:href="#id44">August</textPath></text><line stroke="#e1ed5e" stroke-width="0.3" x1="26.63291911575756" x2="22.317208475507996" y1="142.92168965132927" y2="145.44649492493687" /><path d="M 25.769776987707644 143.4266507060508 a86.0,86.0 0 0,1 -11.730757126820373,-40.83630448921669" fill="none" id="id45" stroke="none" /><text fill="#e1ed5e" style="font-size:6.75px; font-family:Arial;" text-anchor="middle"><textPath startOffset="21.46611528233685" xlink:href="#id45">September</textPath></text><line stroke="#e1ed5e" stroke-width="0.3" x1="15.007084014347285" x2="10.007500721073583" y1="101.09737516637583" y2="101.16192664675087" /><path d="M 14.007167355692545 101.11028546245083 a86.0,86.0 0 0,1 10.666146001902534,-42.60595125391555" fill="none" id="id46" stroke="none" /><text fill="#e1ed5e" style="font-size:6.75px; font-family:Arial;" text-anchor="middle"><textPath startOffset="22.20632615414155" xlink:href="#id46">October</textPath></text><line stroke="#e1ed5e" stroke-width="0.3" x1="26.266209847984243" x2="21.928928074336255" y1="57.711370442889674" y2="55.22380399835377" /><path d="M 25.398753493254645 57.213857153982495 a86.0,86.0 0 0,1 29.58750427330803,-30.492523968695096" fill="none" id="id47" stroke="none" /><text fill="#e1ed5e" style="font-size:6.75px; font-family:Arial;" text-anchor="middle"><textPath startOffset="21.46611528233685" xlink:href="#id47">November</textPath></text><line stroke="#e1ed5e" stroke-width="0.3" x1="56.762969772571076" x2="54.21961505331055" y1="26.818313649435495" y2="22.513508569990535" /><path d="M 56.25429882871897 25.957352633546506 a86.0,86.0 0 0,1 42.265352541879196,-11.944610805530505" fill="none" id="id48" stroke="none" /><text fill="#e1ed5e" style="font-size:6.75px; font-family:Arial;" text-anchor="middle"><textPath startOffset="22.20632615414155" xlink:href="#id48">December</textPath></text></svg>