<?xml version="1.0" encoding="utf-8" ?>
<svg baseProfile="full" height="200mm" version="1.1" viewBox="0,0,200,200" width="200mm" xmlns="http://www.w3.org/2000/svg" xmlns:ev="http://www.w3.org/2001/xml-events" xmlns:xlink="http://www.w3.org/1999/xlink"><defs /><rect fill="#1a1a1a" height="200" width="200" x="0" y="0" /><text alignment-baseline="middle" fill="#e1ed5e" style="dominant-baseline: central; font-size:9.0px; font-family:Arial;" text-anchor="middle" x="100.0" y="100.0">2025</text><line stroke="#e1ed5e" stroke-width="0.3" x1="100.0" x2="100.0" y1="15.0" y2="10.0" /><path d="M 100.0 14.0 a86.0,86.0 0 0,1 42.46469731375804,11.215312516191453" fill="none" id="id37" stroke="none" /><text fill="#e1ed5e" style="font-size:6.75px; font-family:Arial;" text-anchor="middle"><textPath startOffset="22.20632615414155" xlink:href="#id37">January</textPath></text><path d="M 100.0 79.0 l 0.0 -25.828037383177573 a46.82803738317757,46.82803738317757 0 0,0 0.8060676855553764,0.006938079054225665 l -0.44458720628284804 25.824210680731905" fill="red" stroke="none" /><path d="M 100.36148047927253 79.00311137660856 l 0.41979876687479023 -24.384353949197934 a45.387967289719626,45.387967289719626 0 0,0 0.781047736245298,0.02017215871193975 l -0.8394731383149561 24.373514998343634" fill="red" stroke="none" /><path d="M 101.08401301168833 79.027996857942 l 2.088396656349833 -40.40344605330687 a61.457383177570094,61.457383177570094 0 0,0 1.0560074394987282,0.06370125258179046 l -2.7835661446881734 40.361511531344775" fill="red" stroke="none" /><path d="M 101.44485096284872 79.0497635885617 l 3.1006906761134263 -44.959794728752506 a66.06658878504672,66.06658878504672 0 0,0 1.1338593692140362,0.08800930949353392 l -3.8741402346898037 44.89976015707051" fill="red" stroke="none" /><path d="M 102.16513564639614 79.11191278185805 l 3.003366900152765 -28.974900423857175 a50.13014018691589,50.13014018691589 0 0,0 0.8575435958507329,0.09635501481095127 l -3.501677199513223 28.918909455575623" fill="red" stroke="none" /><path d="M 102.52436894288641 79.15227682838746 l 3.266934480057898 -26.980266039149967 a48.177336448598126,48.177336448598126 0 0,0 0.8224221684068829,0.10677400113349104 l -3.730871376972627 26.920033714852337" fill="red" stroke="none" /><path d="M 102.88285421437855 79.19881850522331 l 3.640613791756102 -26.268781770856997 a47.51985981308411,47.51985981308411 0 0,0 0.809265519754315,0.11926470114509712 l -4.0922482919390735 26.20222258555093" fill="red" stroke="none" /><path d="M 103.2404852339499 79.25152402106235 l 4.1890085753266435 -26.821768200062202 a48.14691588785047,48.14691588785047 0 0,0 0.8177427957944967,0.13493456799674092 l -4.650080577260015 26.745687369125836" fill="red" stroke="none" /><path d="M 103.59715602781102 79.31037775812273 l 4.667141854681643 -26.843818054058108 a48.24651869158879,48.24651869158879 0 0,0 0.8169855922156696,0.14929889493692827 l -5.128522568000213 26.759503677770443" fill="red" stroke="none" /><path d="M 103.95276090670814 79.375362276772 l 5.05731745914339 -26.387971068316958 a47.86822429906542,47.86822429906542 0 0,0 0.8079098386071787,0.16205911320344754 l -5.510793707217694 26.297007999036303" fill="red" stroke="none" /><path d="M 104.307194497241 79.44645832069477 l 5.422234568022085 -25.874411814975822 a47.43644859813084,47.43644859813084 0 0,0 0.7977393791784326,0.17435493000213168 l -5.866816671354045 25.777243386877817" fill="red" stroke="none" /><path d="M 104.66035177308747 79.52364482259891 l 5.900353782244488 -25.92459659703295 a47.58757009345794,47.58757009345794 0 0,0 0.7971514263756722,0.18865998769349138 l -6.345728895582684 25.81919069719859" fill="red" stroke="none" /><path d="M 105.36241919743992 79.69619591428918 l 6.822300236892496 -25.83137243166182 a47.717102803738314,47.717102803738314 0 0,0 0.7923359270377492,0.21657533952246008 l -7.2659340531539565 25.710110551313065" fill="red" stroke="none" /><path d="M 105.71112130821622 79.79150937346287 l 7.1415703835451385 -25.27005650309035 a47.25981308411215,47.25981308411215 0 0,0 0.7809341642261566,0.2279760971623944 l -7.575494765494722 25.14338207700925" fill="red" stroke="none" /><path d="M 106.40334571778207 80.00007090966166 l 11.95974423677058 -37.35454045683544 a60.22240654205607,60.22240654205607 0 0,0 0.9845422215137364,0.32458809107816833 l -12.600969280526735 37.143138641498034" fill="red" stroke="none" /><path d="M 107.08798089147638 80.2323363322302 l 9.017302793011421 -25.14834782032862 a47.7161214953271,47.7161214953271 0 0,0 0.7707691312760967,0.2838807758372645 l -9.448854250060094 24.98940377668503" fill="red" stroke="none" /><path d="M 107.4271985657038 80.35727306442388 l 9.356881931372643 -24.74616440108094 a47.456074766355144,47.456074766355144 0 0,0 0.7615950532998179,0.295487048591269 l -9.781460149672128 24.581434648599124" fill="red" stroke="none" /><path d="M 107.76421540070413 80.48803036053334 l 9.50027945174943 -23.874809579880115 a46.69556074766355,46.69556074766355 0 0,0 0.7442741619456347,0.3036081182688962 l -9.909837483283452 23.70774057542764" fill="red" stroke="none" /><path d="M 108.09893153111575 80.62456947434976 l 9.465153158560975 -22.64390268441647 a45.54252336448598,45.54252336448598 0 0,0 0.7206914392967976,0.3085624629554616 l -9.853528355648088 22.477620693498217" fill="red" stroke="none" /><path d="M 108.76106565485865 80.91482961587045 l 17.5794466925061 -38.29519702310857 a63.13738317757009,63.13738317757009 0 0,0 0.9838060693917695,0.461910140978608 l -18.23603097319747 37.98692189948996" fill="red" stroke="none" /><path d="M 109.73455568895987 81.39251694778311 l 10.916576387920719 -20.8669010293751 a44.549929906542054,44.549929906542054 0 0,0 0.6764269441674984,0.36132384742570633 l -11.274148378616527 20.67589845544764" fill="red" stroke="none" /><path d="M 110.05341064243156 81.56283822128135 l 15.246889831781129 -27.961592781696908 a52.84836448598131,52.84836448598131 0 0,0 0.794929774907736,0.4423775590839491 l -15.725943695760899 27.69499982505278" fill="red" stroke="none" /><line stroke="#e1ed5e" stroke-width="0.3" x1="143.23703022742887" x2="145.7803849466894" y1="26.81831364943548" y2="22.513508569990506" /><path d="M 143.74570117128098 25.957352633546492 a86.0,86.0 0 0,1 28.547481713284135,27.462654790039103" fill="none" id="id38" stroke="none" /><text fill="#e1ed5e" style="font-size:6.75px; font-family:Arial;" text-anchor="middle"><textPath startOffset="19.985693538727396" xlink:href="#id38">February</textPath></text><path d="M 110.68208982089419 81.91981866633111 l 27.401557042896574 -46.379044594007155 a74.86892523364486,74.86892523364486 0 0,0 1.1039171101834273,0.6650977070726636 l -28.19583621929764 45.90050027747588" fill="red" stroke="none" /><path d="M 111.2981086023043 82.29822771554956 l 14.17463872939097 -22.208693139208766 a47.34665887850467,47.34665887850467 0 0,0 0.6832189932919233,0.4443846382097669 l -14.554824748467173 21.96140957683947" fill="red" stroke="none" /><path d="M 111.60114157652 82.49532879139004 l 14.7887449629657 -22.3143659145271 a47.77009345794393,47.77009345794393 0 0,0 0.6815093213219413,0.4601581359486327 l -15.170658978694183 22.0564958662798" fill="red" stroke="none" /><path d="M 112.19680574252982 82.90503203632743 l 18.958053710923803 -26.571491559609385 a53.64126168224299,53.64126168224299 0 0,0 0.7470303912220957,0.5427493489353319 l -19.412629418499687 26.241222975857376" fill="red" stroke="none" /><path d="M 112.48926042617603 83.11751280151076 l 15.692989169610295 -21.21316072541012 a47.38689252336448,47.38689252336448 0 0,0 0.6515784513123628,0.49075538089053194 l -16.05581377468104 20.93988875501374" fill="red" stroke="none" /><path d="M 112.77801427241765 83.33499621200491 l 33.45570746184863 -43.63271786174603 a75.98271028037382,75.98271028037382 0 0,0 1.031076133364734,0.8047712767498018 l -34.20181615037279 43.050368195773004" fill="red" stroke="none" /><path d="M 113.34407831869373 83.78471172551755 l 16.71345809416389 -20.309648563789263 a47.302499999999995,47.302499999999995 0 0,0 0.6242633979995881,0.5228026429704218 l -17.060579029122593 20.018944763425022" fill="red" stroke="none" /><path d="M 113.89432698308785 84.25364557470407 l 17.34518436229868 -19.657189648214068 a47.21565420560748,47.21565420560748 0 0,0 0.6047853426083617,0.542982252012395 l -17.680980692503034 19.355708387432376" fill="red" stroke="none" /><path d="M 114.16331599549186 84.49514656593476 l 17.78356545789094 -19.468009895950136 a47.367757009345794,47.367757009345794 0 0,0 0.5972670770664834,0.5550946556157524 l -18.11604041875227 19.159010654259745" fill="red" stroke="none" /><path d="M 114.68862486808459 84.99185889309783 l 44.06587460425377 -45.02442332070654 a84.0,84.0 0 0,0 1.0246567993307099,1.0202565973995252 l -44.8343672037518 44.25923087265689" fill="red" stroke="none" /><path d="M 115.19652480421416 85.50635884689758 l 15.935047504979707 -15.198005022225146 a43.02056074766355,43.02056074766355 0 0,0 0.5064804020941545,0.5402779796292559 l -16.194295229044325 14.921457625717837" fill="red" stroke="none" /><path d="M 115.68641384162765 86.03803664274999 l 19.769279500406448 -17.595988399300605 a47.46588785046729,47.46588785046729 0 0,0 0.5379651195672656,0.6149871283394119 l -20.06923648355156 17.253085714758246" fill="red" stroke="none" /><path d="M 115.9244219780498 86.31012108654704 l 20.134348022013217 -17.309060686951103 a47.5517523364486,47.5517523364486 0 0,0 0.5282532919134588,0.6252852779601668 l -20.429311927413792 16.959916459361832" fill="red" stroke="none" /><path d="M 116.15771136456269 86.58626213691792 l 30.29570880855505 -25.150758493278882 a60.375,60.375 0 0,0 0.6569418352803246,0.80533301237671 l -30.724149135911784 24.62554131129407" fill="red" stroke="none" /><path d="M 116.38621287248628 86.86637796730983 l 16.960496033905194 -13.59391252449006 a42.73598130841121,42.73598130841121 0 0,0 0.4551298967351806,0.577968749689027 l -17.19198001123434 13.299951380847993" fill="red" stroke="none" /><path d="M 116.60985879189232 87.15038557335679 l 20.016432167481828 -15.484986282649615 a46.30696261682243,46.30696261682243 0 0,0 0.48230699330674337,0.6346594678013976 l -20.280015101012683 15.138142038967183" fill="red" stroke="none" /><line stroke="#e1ed5e" stroke-width="0.3" x1="172.23445277983987" x2="176.4835382374775" y1="55.19839476539836" y2="52.563006222186495" /><path d="M 173.08426987136738 54.67131705675599 a86.0,86.0 0 0,1 12.851231095245387,41.99856678651699" fill="none" id="id39" stroke="none" /><text fill="#e1ed5e" style="font-size:6.75px; font-family:Arial;" text-anchor="middle"><textPath startOffset="22.20632615414155" xlink:href="#id39">March</textPath></text><path d="M 117.84615892207809 88.93136811851018 l 11.032929090611823 -6.842897186547209 a33.98271028037383,33.98271028037383 0 0,0 0.30403878062374134,0.4997598137307836 l -11.149083669521788 6.651969599609344" fill="red" stroke="none" /><path d="M 118.03404312379186 89.2402003453031 l 38.58021160048202 -23.01842934540555 a65.92528037383178,65.92528037383178 0 0,0 0.5730486733368665,0.9795259391893907 l -38.970719948289215 22.350923993862263" fill="red" stroke="none" /><path d="M 118.3937258080291 89.86733742301442 l 22.942734865926017 -12.638602609167656 a47.19357476635514,47.19357476635514 0 0,0 0.385845455062429,0.7149130284618564 l -23.15688842020691 12.241808597373339" fill="red" stroke="none" /><line stroke="#e1ed5e" stroke-width="0.3" x1="184.98032266829074" x2="189.97916517819016" y1="98.17113171792111" y2="98.06355123074" /><path d="M 185.9800911702706 98.14961562048488 a86.0,86.0 0 0,1 -9.607161424134198,41.387399972396054" fill="none" id="id40" stroke="none" /><text fill="#e1ed5e" style="font-size:6.75px; font-family:Arial;" text-anchor="middle"><textPath startOffset="21.466115282336823" xlink:href="#id40">April</textPath></text><line stroke="#e1ed5e" stroke-width="0.3" x1="174.80103733775053" x2="179.2010983576182" y1="140.37084112569926" y2="142.7455964860345" /><path d="M 175.68104954172406 140.8457921977663 a86.0,86.0 0 0,1 -30.038265399797805,32.042727171017184" fill="none" id="id41" stroke="none" /><text fill="#e1ed5e" style="font-size:6.75px; font-family:Arial;" text-anchor="middle"><textPath startOffset="22.206326154141568" xlink:href="#id41">May</textPath></text><line stroke="#e1ed5e" stroke-width="0.3" x1="143.8653032363475" x2="146.44561519142675" y1="172.8068346515853" y2="177.08958963109032" /><path d="M 144.38136562736335 173.6633856474863 a86.0,86.0 0 0,1 -40.68145358897372,12.25698825130547" fill="none" id="id42" stroke="none" /><text fill="#e1ed5e" style="font-size:6.75px; font-family:Arial;" text-anchor="middle"><textPath startOffset="21.466115282336833" xlink:href="#id42">June</textPath></text><line stroke="#e1ed5e" stroke-width="0.3" x1="102.19456741930631" x2="102.32365962044197" y1="184.97166512339345" y2="189.96999836594603" /><path d="M 102.22038585953345 185.97133177190398 a86.0,86.0 0 0,1 -42.740103519485714,-10.115201625700543" fill="none" id="id43" stroke="none" /><text fill="#e1ed5e" style="font-size:6.75px; font-family:Arial;" text-anchor="middle"><textPath startOffset="22.20632615414155" xlink:href="#id43">July</textPath></text><line stroke="#e1ed5e" stroke-width="0.3" x1="58.666819895761336" x2="56.23545636021788" y1="174.27360380694188" y2="178.64263932499728" /><path d="M 58.180547188652646 175.14741091055294 a86.0,86.0 0 0,1 -31.652253787137756,-30.449443065178592" fill="none" id="id44" stroke="none" /><text fill="#e1ed5e" style="font-size:6.75px; font-family:Arial;" text-anchor="middle"><textPath startOffset="22.20632615414155" xlink:href="#id44">August</textPath></text><line stroke="#e1ed5e" stroke-width="0.3" x1="26.63291911575756" x2="22.317208475507996" y1="142.92168965132927" y2="145.44649492493687" /><path d="M 25.769776987707644 143.4266507060508 a86.0,86.0 0 0,1 -11.730757126820373,-40.83630448921669" fill="none" id="id45" stroke="none" /><text fill="#e1ed5e" style="font-size:6.75px; font-family:Arial;" text-anchor="middle"><textPath startOffset="21.46611528233685" xlink:href="#id45">September</textPath></text><line stroke="#e1ed5e" stroke-width="0.3" x1="15.007084014347285" x2="10.007500721073583" y1="101.09737516637583" y2="101.16192664675087" /><path d="M 14.007167355692545 101.11028546245083 a86.0,86.0 0 0,1 10.666146001902534,-42.60595125391555" fill="none" id="id46" stroke="none" /><text fill="#e1ed5e" style="font-size:6.75px; font-family:Arial;" text-anchor="middle"><textPath startOffset="22.20632615414155" xlink:href="#id46">October</textPath></text><line stroke="#e1ed5e" stroke-width="0.3" x1="26.266209847984243" x2="21.928928074336255" y1="57.711370442889674" y2="55.22380399835377" /><path d="M 25.398753493254645 57.213857153982495 a86.0,86.0 0 0,1 29.58750427330803,-30.492523968695096" fill="none" id="id47" stroke="none" /><text fill="#e1ed5e" style="font-size:6.75px; font-family:Arial;" text-anchor="middle"><textPath startOffset="21.46611528233685" xlink:href="#id47">November</textPath></text><line stroke="#e1ed5e" stroke-width="0.3" x1="56.762969772571076" x2="54.21961505331055" y1="26.818313649435495" y2="22.513508569990535" /><path d="M 56.25429882871897 25.957352633546506 a86.0,86.0 0 0,1 42.265352541879196,-11.944610805530505" fill="none" id="id48" stroke="none" /><text fill="#e1ed5e" style="font-size:6.75px; font-family:Arial;" text-anchor="middle"><textPath startOffset="22.20632615414155" xlink:href="#id48">December</textPath></text></svg>