<?xml version="1.0" encoding="utf-8" ?>
<svg baseProfile="full" height="200mm" version="1.1" viewBox="0,0,200,200" width="200mm" xmlns="http://www.w3.org/2000/svg" xmlns:ev="http://www.w3.org/2001/xml-events" xmlns:xlink="http://www.w3.org/1999/xlink"><defs /><rect fill="#1a1a1a" height="200" width="200" x="0" y="0" /><text alignment-baseline="middle" fill="#e1ed5e" style="dominant-baseline: central; font-size:9.0px; font-family:Arial;" text-anchor="middle" x="100.0" y="100.0">2026</text><line stroke="#e1ed5e" stroke-width="0.3" x1="100.0" x2="100.0" y1="15.0" y2="10.0" /><path d="M 100.0 14.0 a86.0,86.0 0 0,1 42.46469731375804,11.215312516191453" fill="none" id="id49" stroke="none" /><text fill="#e1ed5e" style="font-size:6.75px; font-family:Arial;" text-anchor="middle"><textPath startOffset="22.20632615414155" xlink:href="#id49">January</textPath></text><path d="M 100.0 79.0 l 0.0 -29.885925085130538 a50.88592508513054,50.88592508513054 0 0,0 0.8759175518094743,0.007539298905464483 l -0.5144370725369459 29.881497162833632" fill="red" stroke="none" /><path d="M 100.72285384407766 79.0124445844662 l 1.8828719235313953 -54.66786842074584 a75.70028376844496,75.70028376844496 0 0,0 1.3018976892239513,0.05606245311251981 l -2.8236104451446784 54.62735824110913" fill="red" stroke="none" /><path d="M 101.44485096284872 79.0497635885617 l 1.8924923593408367 -27.44100488873919 a48.506186152099886,48.506186152099886 0 0,0 0.8324812078968261,0.0646165638020251 l -2.364563756600004 27.4043630627487" fill="red" stroke="none" /><path d="M 102.16513564639614 79.11191278185805 l 3.0697564933697974 -29.615392217432596 a50.77406356413167,50.77406356413167 0 0,0 0.8685587728737985,0.09759269829472773 l -3.579081969753321 29.558163565667268" fill="red" stroke="none" /><path d="M 102.88285421437855 79.19881850522331 l 5.274403129695687 -38.05735865178617 a59.4211123723042,59.4211123723042 0 0,0 1.0119444286557413,0.14913430377672965 l -5.928716538780083 37.96092986384847" fill="red" stroke="none" /><path d="M 103.59715602781102 79.31037775812273 l 10.505013839026084 -60.42127900340287 a82.32769580022702,82.32769580022702 0 0,0 1.3941014426150926,0.2547631277657418 l -11.543510402744078 60.23150039428639" fill="red" stroke="none" /><path d="M 104.66035177308747 79.52364482259891 l 5.945405800999791 -26.122543271964176 a47.790578887627696,47.790578887627696 0 0,0 0.8005520780483969,0.18946481207377638 l -6.394181566010712 26.01633254774953" fill="red" stroke="none" /><path d="M 105.71112130821622 79.79150937346287 l 11.839301718289928 -41.89272209200095 a64.53354143019297,64.53354143019297 0 0,0 1.066370007677498,0.31130264703203 l -12.558661943690854 41.68272111605022" fill="red" stroke="none" /><path d="M 108.76106565485865 80.91482961587045 l 17.215984131409858 -37.50342748501283 a62.26617480136209,62.26617480136209 0 0,0 0.9702309092396953,0.45553642126418464 l -17.85899325194915 37.20152608110864" fill="red" stroke="none" /><path d="M 109.41281617654863 81.2277094730956 l 12.190108265870474 -24.31113596921917 a48.19614074914869,48.19614074914869 0 0,0 0.7384096583207052,0.37824210697859445 l -12.606778411779935 24.097701336928075" fill="red" stroke="none" /><path d="M 110.05341064243156 81.56283822128135 l 20.175126442300748 -36.999589826049 a63.14267877412032,63.14267877412032 0 0,0 0.9497738655336729,0.5285481278711431 l -20.809024396906455 36.646826300617676" fill="red" stroke="none" /><path d="M 110.36928655335952 81.73862282372117 l 20.84736065982466 -36.71434039168612 a63.22031782065834,63.22031782065834 0 0,0 0.9416915232801125,0.5454885122658598 l -21.4762489155701 36.35004772203021" fill="red" stroke="none" /><line stroke="#e1ed5e" stroke-width="0.3" x1="143.23703022742887" x2="145.7803849466894" y1="26.81831364943548" y2="22.513508569990506" /><path d="M 143.74570117128098 25.957352633546492 a86.0,86.0 0 0,1 28.547481713284135,27.462654790039103" fill="none" id="id50" stroke="none" /><text fill="#e1ed5e" style="font-size:6.75px; font-family:Arial;" text-anchor="middle"><textPath startOffset="19.985693538727396" xlink:href="#id50">February</textPath></text><path d="M 110.68208982089419 81.91981866633111 l 13.962757588167358 -23.632940121729344 a48.449489216799094,48.449489216799094 0 0,0 0.714371415900025,0.43040078492343636 l -14.36749107028502 23.389092727347293" fill="red" stroke="none" /><path d="M 110.99172775467656 82.1063720568725 l 14.356796994311603 -23.371683652001295 a48.42905788876277,48.42905788876277 0 0,0 0.7065588478938986,0.442447085731326 l -14.756974994577766 23.121092224947024" fill="red" stroke="none" /><path d="M 111.60114157652 82.49532879139004 l 16.315339856195568 -24.617806614605847 a50.533484676503974,50.533484676503974 0 0,0 0.720933084969502,0.48677723714735455 l -16.736677635571613 24.333317465159823" fill="red" stroke="none" /><path d="M 111.90073688211348 82.69761687909136 l 32.6721251830204 -47.501733118774126 a78.65312145289445,78.65312145289445 0 0,0 1.1088923827022457,0.7768499787266369 l -33.484948705306294 46.93229829728355" fill="red" stroke="none" /><path d="M 112.19680574252982 82.90503203632743 l 17.41708606641622 -24.411680780295523 a50.98808172531214,50.98808172531214 0 0,0 0.710081110033492,0.515904124772583 l -17.834712492803504 24.108257420706266" fill="red" stroke="none" /><path d="M 112.48926042617603 83.11751280151076 l 24.280847718442924 -32.82188750872172 a61.82690124858116,61.82690124858116 0 0,0 0.8501312160346879,0.6403012068488865 l -24.842225088235995 32.39906971236699" fill="red" stroke="none" /><path d="M 112.77801427241765 83.33499621200491 l 28.164674558938398 -36.732186880203884 a67.28717366628831,67.28717366628831 0 0,0 0.9130787595345642,0.712672454832024 l -28.79278587363239 36.24193603614864" fill="red" stroke="none" /><path d="M 113.34407831869373 83.78471172551755 l 17.43872184170006 -21.190965389160063 a48.4438706015891,48.4438706015891 0 0,0 0.6393263627503908,0.5354174427615432 l -17.800905741409565 20.887646789004698" fill="red" stroke="none" /><path d="M 113.6212207817346 84.01681056812373 l 26.62201008664268 -31.238362338470544 a62.04347332576617,62.04347332576617 0 0,0 0.806878919940991,0.6997174482559182 l -27.155782805230434 30.775479896794952" fill="red" stroke="none" /><path d="M 114.16331599549186 84.49514656593476 l 18.306436160218187 -20.04040647363937 a48.14301929625425,48.14301929625425 0 0,0 0.6070424742838423,0.5641798219680123 l -18.648686518296877 19.722322065596714" fill="red" stroke="none" /><path d="M 114.42810811169701 84.74124197986012 l 43.28432433509102 -45.77627406041963 a84.0,84.0 0 0,0 1.042067025550327,1.0024676529507923 l -44.06587460425377 45.02442332070654" fill="red" stroke="none" /><path d="M 114.68862486808459 84.99185889309783 l 28.724633680736204 -29.349470042036696 a62.06696935300795,62.06696935300795 0 0,0 0.7571112162072665,0.7538599400357202 l -29.225580697110793 28.850674251350856" fill="red" stroke="none" /><path d="M 114.94478906791727 85.2469230424477 l 22.915181680918707 -22.621225184143753 a53.19977298524404,53.19977298524404 0 0,0 0.6377278106318026,0.6572345667132421 l -23.30117375525362 22.223426421880397" fill="red" stroke="none" /><path d="M 115.4437574822437 85.77008943001954 l 20.18231397776851 -18.596026474069497 a48.443359818388195,48.443359818388195 0 0,0 0.5597661585646431,0.6181077732683544 l -20.499423776949186 18.245865913531592" fill="red" stroke="none" /><path d="M 115.68641384162765 86.03803664274999 l 26.749825063317218 -23.80914344843843 a56.81101021566402,56.81101021566402 0 0,0 0.6438801271280963,0.7360662912417902 l -27.155697054023165 23.34516160099369" fill="red" stroke="none" /><line stroke="#e1ed5e" stroke-width="0.3" x1="172.23445277983987" x2="176.4835382374775" y1="55.19839476539836" y2="52.563006222186495" /><path d="M 173.08426987136738 54.67131705675599 a86.0,86.0 0 0,1 12.851231095245387,41.99856678651699" fill="none" id="id51" stroke="none" /><text fill="#e1ed5e" style="font-size:6.75px; font-family:Arial;" text-anchor="middle"><textPath startOffset="22.20632615414155" xlink:href="#id51">March</textPath></text><line stroke="#e1ed5e" stroke-width="0.3" x1="184.98032266829074" x2="189.97916517819016" y1="98.17113171792111" y2="98.06355123074" /><path d="M 185.9800911702706 98.14961562048488 a86.0,86.0 0 0,1 -9.607161424134198,41.387399972396054" fill="none" id="id52" stroke="none" /><text fill="#e1ed5e" style="font-size:6.75px; font-family:Arial;" text-anchor="middle"><textPath startOffset="21.466115282336823" xlink:href="#id52">April</textPath></text><line stroke="#e1ed5e" stroke-width="0.3" x1="174.80103733775053" x2="179.2010983576182" y1="140.37084112569926" y2="142.7455964860345" /><path d="M 175.68104954172406 140.8457921977663 a86.0,86.0 0 0,1 -30.038265399797805,32.042727171017184" fill="none" id="id53" stroke="none" /><text fill="#e1ed5e" style="font-size:6.75px; font-family:Arial;" text-anchor="middle"><textPath startOffset="22.206326154141568" xlink:href="#id53">May</textPath></text><line stroke="#e1ed5e" stroke-width="0.3" x1="143.8653032363475" x2="146.44561519142675" y1="172.8068346515853" y2="177.08958963109032" /><path d="M 144.38136562736335 173.6633856474863 a86.0,86.0 0 0,1 -40.68145358897372,12.25698825130547" fill="none" id="id54" stroke="none" /><text fill="#e1ed5e" style="font-size:6.75px; font-family:Arial;" text-anchor="middle"><textPath startOffset="21.466115282336833" xlink:href="#id54">June</textPath></text><line stroke="#e1ed5e" stroke-width="0.3" x1="102.19456741930631" x2="102.32365962044197" y1="184.97166512339345" y2="189.96999836594603" /><path d="M 102.22038585953345 185.97133177190398 a86.0,86.0 0 0,1 -42.740103519485714,-10.115201625700543" fill="none" id="id55" stroke="none" /><text fill="#e1ed5e" style="font-size:6.75px; font-family:Arial;" text-anchor="middle"><textPath startOffset="22.20632615414155" xlink:href="#id55">July</textPath></text><line stroke="#e1ed5e" stroke-width="0.3" x1="58.666819895761336" x2="56.23545636021788" y1="174.27360380694188" y2="178.64263932499728" /><path d="M 58.180547188652646 175.14741091055294 a86.0,86.0 0 0,1 -31.652253787137756,-30.449443065178592" fill="none" id="id56" stroke="none" /><text fill="#e1ed5e" style="font-size:6.75px; font-family:Arial;" text-anchor="middle"><textPath startOffset="22.20632615414155" xlink:href="#id56">August</textPath></text><line stroke="#e1ed5e" stroke-width="0.3" x1="26.63291911575756" x2="22.317208475507996" y1="142.92168965132927" y2="145.44649492493687" /><path d="M 25.769776987707644 143.4266507060508 a86.0,86.0 0 0,1 -11.730757126820373,-40.83630448921669" fill="none" id="id57" stroke="none" /><text fill="#e1ed5e" style="font-size:6.75px; font-family:Arial;" text-anchor="middle"><textPath startOffset="21.46611528233685" xlink:href="#id57">September</textPath></text><line stroke="#e1ed5e" stroke-width="0.3" x1="15.007084014347285" x2="10.007500721073583" y1="101.09737516637583" y2="101.16192664675087" /><path d="M 14.007167355692545 101.11028546245083 a86.0,86.0 0 0,1 10.666146001902534,-42.60595125391555" fill="none" id="id58" stroke="none" /><text fill="#e1ed5e" style="font-size:6.75px; font-family:Arial;" text-anchor="middle"><textPath startOffset="22.20632615414155" xlink:href="#id58">October</textPath></text><line stroke="#e1ed5e" stroke-width="0.3" x1="26.266209847984243" x2="21.928928074336255" y1="57.711370442889674" y2="55.22380399835377" /><path d="M 25.398753493254645 57.213857153982495 a86.0,86.0 0 0,1 29.58750427330803,-30.492523968695096" fill="none" id="id59" stroke="none" /><text fill="#e1ed5e" style="font-size:6.75px; font-family:Arial;" text-anchor="middle"><textPath startOffset="21.46611528233685" xlink:href="#id59">November</textPath></text><line stroke="#e1ed5e" stroke-width="0.3" x1="56.762969772571076" x2="54.21961505331055" y1="26.818313649435495" y2="22.513508569990535" /><path d="M 56.25429882871897 25.957352633546506 a86.0,86.0 0 0,1 42.265352541879196,-11.944610805530505" fill="none" id="id60" stroke="none" /><text fill="#e1ed5e" style="font-size:6.75px; font-family:Arial;" text-anchor="middle"><textPath startOffset="22.20632615414155" xlink:href="#id60">December</textPath></text></svg>