<?xml version="1.0" encoding="utf-8" ?>
<svg baseProfile="full" height="200mm" version="1.1" viewBox="0,0,200,200" width="200mm" xmlns="http://www.w3.org/2000/svg" xmlns:ev="http://www.w3.org/2001/xml-events" xmlns:xlink="http://www.w3.org/1999/xlink"><defs /><rect fill="#1a1a1a" height="200" width="200" x="0" y="0" /><text alignment-baseline="middle" fill="#e1ed5e" style="dominant-baseline: central; font-size:9.0px; font-family:Arial;" text-anchor="middle" x="100.0" y="100.0">2025</text><line stroke="#e1ed5e" stroke-width="0.3" x1="100.0" x2="100.0" y1="15.0" y2="10.0" /><path d="M 100.0 14.0 a86.0,86.0 0 0,1 42.46469731375804,11.215312516191453" fill="none" id="id37" stroke="none" /><text fill="#e1ed5e" style="font-size:6.75px; font-family:Arial;" text-anchor="middle"><textPath startOffset="22.20632615414155" xlink:href="#id37">January</textPath></text><path d="M 100.0 79.0 l 0.0 -22.462205364399892 a43.46220536439989,43.46220536439989 0 0,0 0.7481304202554442,0.006439394720341696 l -0.3866499409829158 22.45887734628811" fill="red" stroke="none" /><path d="M 100.36148047927253 79.00311137660856 l 0.36509185631755 -21.206658406102786 a42.20980086697372,42.20980086697372 0 0,0 0.7263570365263277,0.01875965929147971 l -0.7300755280387454 21.197231954668947" fill="red" stroke="none" /><path d="M 101.08401301168833 79.027996857942 l 1.8162430958772595 -35.138190688462494 a56.18509888918992,56.18509888918992 0 0,0 0.9654150461390042,0.05823647201723683 l -2.4208201908558755 35.101720947064955" fill="red" stroke="none" /><path d="M 101.44485096284872 79.0497635885617 l 2.6966180087575453 -39.10076973158916 a60.19364670820916,60.19364670820916 0 0,0 1.033065752937895,0.08018578498011175 l -3.3692739510577816 39.048558684420584" fill="red" stroke="none" /><path d="M 102.16513564639614 79.11191278185805 l 2.6119771740694593 -25.198978694278388 a46.33398807911135,46.33398807911135 0 0,0 0.7926052989142982,0.08905844051037512 l -3.045349176493483 25.15028430029741" fill="red" stroke="none" /><path d="M 102.52436894288641 79.15227682838746 l 2.84119742102028 -23.464279053284045 a44.63566784069358,44.63566784069358 0 0,0 0.7619633097192686,0.09892470609497603 l -3.2446754592473948 23.41189602402493" fill="red" stroke="none" /><path d="M 102.88285421437855 79.19881850522331 l 3.1661799706142206 -22.845513271322396 a44.063871579517745,44.063871579517745 0 0,0 0.7504098723449385,0.11059090864110964 l -3.558958823387815 22.78762787852032" fill="red" stroke="none" /><path d="M 103.2404852339499 79.25152402106235 l 3.643109598157281 -23.326436175074413 a44.6092115957735,44.6092115957735 0 0,0 0.7576572815896871,0.12501994332039523 l -4.044096085885843 23.260269968814395" fill="red" stroke="none" /><path d="M 103.59715602781102 79.31037775812273 l 4.05893398903497 -23.345612558527915 a44.69583446220537,44.69583446220537 0 0,0 0.7568598476732062,0.13831129943588039 l -4.460188957811077 23.272285777741295" fill="red" stroke="none" /><path d="M 103.95276090670814 79.375362276772 l 4.398263084218445 -22.949170178622982 a44.366838255215384,44.366838255215384 0 0,0 0.7488141801612994,0.1502050800622946 l -4.79264367384687 22.87006114248348" fill="red" stroke="none" /><path d="M 104.307194497241 79.44645832069477 l 4.715625294866133 -22.502536419960013 a43.99133026280141,43.99133026280141 0 0,0 0.7398027788796863,0.16169223319499568 l -5.102270797899347 22.41803068866915" fill="red" stroke="none" /><path d="M 104.66035177308747 79.52364482259891 l 5.13143745353693 -22.546181272412838 a44.1227580601463,44.1227580601463 0 0,0 0.7391114834020411,0.17492380838698174 l -5.518772623901495 22.454511551884988" fill="red" stroke="none" /><path d="M 105.36241919743992 79.69619591428918 l 5.933238623794342 -22.465105799413287 a44.23541045787049,44.23541045787049 0 0,0 0.7345229046530941,0.20077285660516112 l -6.319059417671147 22.35964640198183" fill="red" stroke="none" /><path d="M 105.71112130821622 79.79150937346287 l 6.210902446811133 -21.976938871557845 a43.83771335681387,43.83771335681387 0 0,0 0.7243864460690853,0.2114682675918151 l -6.588279110603645 21.866772275047325" fill="red" stroke="none" /><path d="M 106.40334571778207 80.00007090966166 l 10.401186399358863 -32.48660928378265 a55.111060688160386,55.111060688160386 0 0,0 0.9009797056517179,0.29703884340076614 l -10.958848927253 32.302756716122644" fill="red" stroke="none" /><path d="M 107.08798089147638 80.2323363322302 l 7.842195059757969 -21.87109089765778 a44.23455703061501,44.23455703061501 0 0,0 0.7145306455431214,0.2631676669257049 l -8.217508031073667 21.73285996292575" fill="red" stroke="none" /><path d="M 107.4271985657038 80.35727306442388 l 8.137521267869461 -21.52131880993492 a44.008398807911135,44.008398807911135 0 0,0 0.7062652990321255,0.2740199635347116 l -8.506769731901253 21.378056142509664" fill="red" stroke="none" /><path d="M 107.76421540070413 80.48803036053334 l 8.262231655409284 -20.76351632387298 a43.34699268490924,43.34699268490924 0 0,0 0.690901793165395,0.2818361889430656 l -8.618417318163067 20.618219248746335" fill="red" stroke="none" /><path d="M 108.09893153111575 80.62456947434976 l 8.231682914922983 -19.693017506631502 a42.344215659712816,42.344215659712816 0 0,0 0.6700795536834405,0.28689309486234876 l -8.569446226396739 19.548404883806363" fill="red" stroke="none" /><path d="M 108.76106565485865 80.91482961587045 l 15.288546161729771 -33.30468232028678 a57.6461663505825,57.6461663505825 0 0,0 0.8982419840456444,0.4217366556194772 l -15.859566357075012 33.0365806820273" fill="red" stroke="none" /><path d="M 109.73455568895987 81.39251694778311 l 9.493961041784205 -18.147589353642392 a41.4809739907884,41.4809739907884 0 0,0 0.6298292396091986,0.3364329674313664 l -9.804935327921715 17.98147765970927" fill="red" stroke="none" /><path d="M 110.05341064243156 81.56283822128135 l 13.25996108372187 -24.317722251218388 a48.69798157680845,48.69798157680845 0 0,0 0.7325009186156011,0.40763596814766456 l -13.676586091409506 24.085870885510545" fill="red" stroke="none" /><line stroke="#e1ed5e" stroke-width="0.3" x1="143.23703022742887" x2="145.7803849466894" y1="26.81831364943548" y2="22.513508569990506" /><path d="M 143.74570117128098 25.957352633546492 a86.0,86.0 0 0,1 28.547481713284135,27.462654790039103" fill="none" id="id38" stroke="none" /><text fill="#e1ed5e" style="font-size:6.75px; font-family:Arial;" text-anchor="middle"><textPath startOffset="19.985693538727396" xlink:href="#id38">February</textPath></text><path d="M 110.68208982089419 81.91981866633111 l 23.83066868265999 -40.33506723022568 a67.84888918992144,67.84888918992144 0 0,0 1.0004090408664639,0.6027352534688856 l -24.52143978974409 39.91888536729818" fill="red" stroke="none" /><path d="M 111.2981086023043 82.29822771554956 l 12.327442514588194 -19.314523158184816 a43.913241668924414,43.913241668924414 0 0,0 0.6336742966851355,0.41215938936131646 l -12.65808383705761 19.09946484466397" fill="red" stroke="none" /><path d="M 111.60114157652 82.49532879139004 l 12.861520273941991 -19.406424975787587 a44.281495529666756,44.281495529666756 0 0,0 0.631739437397422,0.4265532881548227 l -13.193664405745954 19.182159775334096" fill="red" stroke="none" /><path d="M 112.19680574252982 82.90503203632743 l 16.48749726688307 -23.108774832388548 a49.3875507992414,49.3875507992414 0 0,0 0.6877914545263493,0.499709742112055 l -16.88283403776321 22.82154585545982" fill="red" stroke="none" /><path d="M 112.48926042617603 83.11751280151076 l 13.647926099823641 -18.44872552927838 a43.94823218639935,43.94823218639935 0 0,0 0.6042962418734497,0.4551434010041439 l -13.963468495455475 18.211065538768388" fill="red" stroke="none" /><path d="M 112.77801427241765 83.33499621200491 l 29.095860458557063 -37.94663352376179 a68.8175291248984,68.8175291248984 0 0,0 0.9338454969030373,0.7288812227446473 l -29.74473851061953 37.44017391179392" fill="red" stroke="none" /><path d="M 113.34407831869373 83.78471172551755 l 14.535410588530501 -17.66295635051843 a43.87483744242752,43.87483744242752 0 0,0 0.5790276435387002,0.4849189995200831 l -14.837295769028318 17.41013619360453" fill="red" stroke="none" /><path d="M 113.89432698308785 84.25364557470407 l 15.084812192624968 -17.095523915136045 a43.799309130316985,43.799309130316985 0 0,0 0.561025376521043,0.503694122390072 l -15.376848556742003 16.833330783976677" fill="red" stroke="none" /><path d="M 114.16331599549186 84.49514656593476 l 15.466064784565138 -16.930997498238945 a43.93159035491737,43.93159035491737 0 0,0 0.5539399418255461,0.5148268053710819 l -15.75521261018553 16.662266106793222" fill="red" stroke="none" /><path d="M 114.68862486808459 84.99185889309783 l 38.323342584571826 -39.15697612014847 a75.79002980222162,75.79002980222162 0 0,0 0.924509159027661,0.920539022890753 l -38.99168754376681 38.4915012466076" fill="red" stroke="none" /><path d="M 115.19652480421416 85.50635884689758 l 13.858440122185005 -13.217446795270313 a40.15090761311298,40.15090761311298 0 0,0 0.47269601973840236,0.5042391560800779 l -14.08390346389387 12.97693822231218" fill="red" stroke="none" /><path d="M 115.68641384162765 86.03803664274999 l 17.193006555487596 -15.302932203130576 a44.016933080466,44.016933080466 0 0,0 0.498875629214299,0.5703010835643172 l -17.45387404827974 15.00471556336331" fill="red" stroke="none" /><path d="M 115.9244219780498 86.31012108654704 l 17.510500447212788 -15.05339604581767 a44.091607965321046,44.091607965321046 0 0,0 0.4898144844093468,0.5797858540993049 l -17.767025545109252 14.74975124208926" fill="red" stroke="none" /><path d="M 116.15771136456269 86.58626213691792 l 26.34766330952634 -21.873187418971884 a55.243768626388515,55.243768626388515 0 0,0 0.6011087825957977,0.7368882915599412 l -26.72027058419855 21.41641495780384" fill="red" stroke="none" /><path d="M 116.38621287248628 86.86637796730983 l 14.750255288224245 -11.822394799136575 a39.90341370902195,39.90341370902195 0 0,0 0.4249636022092206,0.5396606190762302 l -14.95157297102743 11.566741786107308" fill="red" stroke="none" /><path d="M 116.60985879189232 87.15038557335679 l 17.407951031594866 -13.46702952243437 a43.009035491736654,43.009035491736654 0 0,0 0.4479576595141825,0.5894597709140365 l -17.637184631333163 13.165384975639299" fill="red" stroke="none" /><line stroke="#e1ed5e" stroke-width="0.3" x1="172.23445277983987" x2="176.4835382374775" y1="55.19839476539836" y2="52.563006222186495" /><path d="M 173.08426987136738 54.67131705675599 a86.0,86.0 0 0,1 12.851231095245387,41.99856678651699" fill="none" id="id39" stroke="none" /><text fill="#e1ed5e" style="font-size:6.75px; font-family:Arial;" text-anchor="middle"><textPath startOffset="22.20632615414155" xlink:href="#id39">March</textPath></text><path d="M 117.84615892207809 88.93136811851018 l 9.595151010800315 -5.951151441023177 a32.29084259008399,32.29084259008399 0 0,0 0.28890186584300626,0.474878705815012 l -9.696168674929545 5.785104962001084" fill="red" stroke="none" /><path d="M 118.03404312379186 89.2402003453031 l 33.55255465660994 -20.01873698150957 a60.070753183419136,60.070753183419136 0 0,0 0.5221588019482835,0.8925386527921215 l -33.89217313302856 19.438218916363553" fill="red" stroke="none" /><path d="M 118.3937258080291 89.86733742301442 l 19.9529067785485 -10.991577993884631 a43.780107017068545,43.780107017068545 0 0,0 0.35793760905616784,0.6632040282795033 l -20.139152486823132 10.646492982272669" fill="red" stroke="none" /><path d="M 118.73160827565052 90.50648371742162 l 25.260647109796086 -12.802550700200761 a49.31970333243024,49.31970333243024 0 0,0 0.37727221449825465,0.760557762965901 l -25.477279337247747 12.36583334873591" fill="red" stroke="none" /><path d="M 118.89224826269711 90.83032412892265 l 20.1923379562016 -9.80069664356546 a43.44513681929017,43.44513681929017 0 0,0 0.3207529752978461,0.6755875681844579 l -20.358049125341207 9.451666659740463" fill="red" stroke="none" /><path d="M 119.04729006885535 91.15688171328212 l 35.13118097162017 -16.310414119860106 a59.732795990246544,59.732795990246544 0 0,0 0.42494958677351957,0.9363200852531545 l -35.40673287535703 15.703272025764889" fill="red" stroke="none" /><path d="M 119.196687751892 91.48605970444005 l 20.430351890268817 -9.061083790034836 a43.3495529666757,43.3495529666757 0 0,0 0.2966539754989561,0.6847182762302239 l -20.583296575610454 8.70806636921801" fill="red" stroke="none" /><path d="M 119.47837535516314 92.15188598940014 l 35.12281960885619 -14.151482741139882 a58.86656732592793,58.86656732592793 0 0,0 0.3705971379433721,0.9431292931037027 l -35.361210296681264 13.544804443140395" fill="red" stroke="none" /><path d="M 119.7369772167798 92.82701384747503 l 45.47097961606259 -16.52546403359416 a69.38079111351936,69.38079111351936 0 0,0 0.39826860093870964,1.1259589662803164 l -45.74870129781112 15.740307440887232" fill="red" stroke="none" /><path d="M 119.97218684219823 93.5106431181261 l 39.85644411620741 -12.950143715161921 a62.90754538065565,62.90754538065565 0 0,0 0.3257547899880483,1.032731704785882 l -40.07345438996367 12.26216184394962" fill="red" stroke="none" /><path d="M 120.08093135843002 93.85539295169968 l 60.24279407529006 -18.433821144900946 a84.0,84.0 0 0,0 0.41117641155319085,1.3862824530138804 l -60.551176383954946 17.394109305140535" fill="red" stroke="none" /><line stroke="#e1ed5e" stroke-width="0.3" x1="184.98032266829074" x2="189.97916517819016" y1="98.17113171792111" y2="98.06355123074" /><path d="M 185.9800911702706 98.14961562048488 a86.0,86.0 0 0,1 -9.607161424134198,41.387399972396054" fill="none" id="id40" stroke="none" /><text fill="#e1ed5e" style="font-size:6.75px; font-family:Arial;" text-anchor="middle"><textPath startOffset="21.466115282336823" xlink:href="#id40">April</textPath></text><line stroke="#e1ed5e" stroke-width="0.3" x1="174.80103733775053" x2="179.2010983576182" y1="140.37084112569926" y2="142.7455964860345" /><path d="M 175.68104954172406 140.8457921977663 a86.0,86.0 0 0,1 -30.038265399797805,32.042727171017184" fill="none" id="id41" stroke="none" /><text fill="#e1ed5e" style="font-size:6.75px; font-family:Arial;" text-anchor="middle"><textPath startOffset="22.206326154141568" xlink:href="#id41">May</textPath></text><line stroke="#e1ed5e" stroke-width="0.3" x1="143.8653032363475" x2="146.44561519142675" y1="172.8068346515853" y2="177.08958963109032" /><path d="M 144.38136562736335 173.6633856474863 a86.0,86.0 0 0,1 -40.68145358897372,12.25698825130547" fill="none" id="id42" stroke="none" /><text fill="#e1ed5e" style="font-size:6.75px; font-family:Arial;" text-anchor="middle"><textPath startOffset="21.466115282336833" xlink:href="#id42">June</textPath></text><line stroke="#e1ed5e" stroke-width="0.3" x1="102.19456741930631" x2="102.32365962044197" y1="184.97166512339345" y2="189.96999836594603" /><path d="M 102.22038585953345 185.97133177190398 a86.0,86.0 0 0,1 -42.740103519485714,-10.115201625700543" fill="none" id="id43" stroke="none" /><text fill="#e1ed5e" style="font-size:6.75px; font-family:Arial;" text-anchor="middle"><textPath startOffset="22.20632615414155" xlink:href="#id43">July</textPath></text><line stroke="#e1ed5e" stroke-width="0.3" x1="58.666819895761336" x2="56.23545636021788" y1="174.27360380694188" y2="178.64263932499728" /><path d="M 58.180547188652646 175.14741091055294 a86.0,86.0 0 0,1 -31.652253787137756,-30.449443065178592" fill="none" id="id44" stroke="none" /><text fill="#e1ed5e" style="font-size:6.75px; font-family:Arial;" text-anchor="middle"><textPath startOffset="22.20632615414155" xlink:href="#id44">August</textPath></text><line stroke="#e1ed5e" stroke-width="0.3" x1="26.63291911575756" x2="22.317208475507996" y1="142.92168965132927" y2="145.44649492493687" /><path d="M 25.769776987707644 143.4266507060508 a86.0,86.0 0 0,1 -11.730757126820373,-40.83630448921669" fill="none" id="id45" stroke="none" /><text fill="#e1ed5e" style="font-size:6.75px; font-family:Arial;" text-anchor="middle"><textPath startOffset="21.46611528233685" xlink:href="#id45">September</textPath></text><line stroke="#e1ed5e" stroke-width="0.3" x1="15.007084014347285" x2="10.007500721073583" y1="101.09737516637583" y2="101.16192664675087" /><path d="M 14.007167355692545 101.11028546245083 a86.0,86.0 0 0,1 10.666146001902534,-42.60595125391555" fill="none" id="id46" stroke="none" /><text fill="#e1ed5e" style="font-size:6.75px; font-family:Arial;" text-anchor="middle"><textPath startOffset="22.20632615414155" xlink:href="#id46">October</textPath></text><line stroke="#e1ed5e" stroke-width="0.3" x1="26.266209847984243" x2="21.928928074336255" y1="57.711370442889674" y2="55.22380399835377" /><path d="M 25.398753493254645 57.213857153982495 a86.0,86.0 0 0,1 29.58750427330803,-30.492523968695096" fill="none" id="id47" stroke="none" /><text fill="#e1ed5e" style="font-size:6.75px; font-family:Arial;" text-anchor="middle"><textPath startOffset="21.46611528233685" xlink:href="#id47">November</textPath></text><line stroke="#e1ed5e" stroke-width="0.3" x1="56.762969772571076" x2="54.21961505331055" y1="26.818313649435495" y2="22.513508569990535" /><path d="M 56.25429882871897 25.957352633546506 a86.0,86.0 0 0,1 42.265352541879196,-11.944610805530505" fill="none" id="id48" stroke="none" /><text fill="#e1ed5e" style="font-size:6.75px; font-family:Arial;" text-anchor="middle"><textPath startOffset="22.20632615414155" xlink:href="#id48">December</textPath></text></svg>