<?xml version="1.0" encoding="utf-8" ?>
<svg baseProfile="full" height="200mm" version="1.1" viewBox="0,0,200,200" width="200mm" xmlns="http://www.w3.org/2000/svg" xmlns:ev="http://www.w3.org/2001/xml-events" xmlns:xlink="http://www.w3.org/1999/xlink"><defs /><rect fill="#1a1a1a" height="200" width="200" x="0" y="0" /><text alignment-baseline="middle" fill="#e1ed5e" style="dominant-baseline: central; font-size:9.0px; font-family:Arial;" text-anchor="middle" x="100.0" y="100.0">2024</text><line stroke="#e1ed5e" stroke-width="0.3" x1="100.0" x2="100.0" y1="15.0" y2="10.0" /><path d="M 100.0 14.0 a86.0,86.0 0 0,1 42.35913384403234,11.155469271406648" fill="none" id="id25" stroke="none" /><text fill="#e1ed5e" style="font-size:6.75px; font-family:Arial;" text-anchor="middle"><textPath startOffset="22.145653131862478" xlink:href="#id25">January</textPath></text><path d="M 100.0 79.0 l 0.0 -17.532353382058346 a38.532353382058346,38.532353382058346 0 0,0 0.6614590843813274,0.005677830701560442 l -0.3009661595324726 17.52976994955122" fill="#ff3204" stroke="none" /><path d="M 100.72087961077811 79.0123766808444 l 0.6351947875680268 -18.493003181736768 a39.50390875187942,39.50390875187942 0 0,0 0.6775376327620066,0.029096381215805423 l -0.9525581809308697 18.479374232095132" fill="#ff4306" stroke="none" /><path d="M 101.44090949804482 79.04949213459386 l 1.5976739481062348 -23.22982856423166 a44.28470521969412,44.28470521969412 0 0,0 0.7579664815808153,0.05867139938941398 l -1.9962094244622834 23.198979397847193" fill="#ff970d" stroke="none" /><path d="M 101.80034050326958 79.07731436759882 l 1.8942473473285266 -22.014025505835132 a43.09537263737412,43.09537263737412 0 0,0 0.7365213359828161,0.06974933627591848 l -2.271868246696356 21.97826441405403" fill="#ff830c" stroke="none" /><path d="M 102.15924093988457 79.11130261209362 l 3.778168975680682 -36.550357561110815 a57.74511122113861,57.74511122113861 0 0,0 0.9851428670763306,0.11038731306728537 l -4.40504774435781 36.48011448753656" fill="#96ff23" stroke="none" /><path d="M 102.87502721639298 79.19773525538626 l 2.323103273667437 -16.80881803565624 a37.96859371238309,37.96859371238309 0 0,0 0.6448782929804318,0.09477490146447254 l -2.6113066722555507 16.766462060892888" fill="#ff2703" stroke="none" /><path d="M 103.23170211078529 79.25015418208739 l 3.973968803176055 -25.515730449258655 a46.82334076775973,46.82334076775973 0 0,0 0.7931483663478309,0.1305122618541848 l -4.411394672576956 25.4437521889088" fill="#ffc212" stroke="none" /><path d="M 103.58742460773223 79.30868818359171 l 2.680705551722213 -15.461597252555089 a36.692264714031985,36.692264714031985 0 0,0 0.6196891353055917,0.11292800338388541 l -2.945729420578858 15.413301075239836" fill="#ff1001" stroke="none" /><path d="M 103.94208987418118 79.37332000966035 l 2.8049833444975856 -14.676858131551896 a35.942492970606004,35.942492970606004 0 0,0 0.6050379801851475,0.12102454111392831 l -3.05651781021369 14.626544193775109" fill="#ff0200" stroke="none" /><path d="M 104.64783097203109 79.52079915486377 l 8.241752173350688 -36.314680781114696 a58.23818630278859,58.23818630278859 0 0,0 0.9730431903883221,0.22963554347239756 l -8.863927517478896 36.16784909399607" fill="#8fff24" stroke="none" /><path d="M 104.9986988182912 79.60360301121754 l 4.2109530933756805 -17.18212561223938 a38.69060673095704,38.69060673095704 0 0,0 0.643728247318777,0.1636332031887039 l -4.505286633919852 17.107307177215407" fill="#ff3505" stroke="none" /><path d="M 105.3480935250658 79.69241777938227 l 4.018959387678511 -15.260643409484999 a36.780978164590024,36.780978164590024 0 0,0 0.6091956332123504,0.16603897880467788 l -4.280336421825554 15.189403936536179" fill="#ff1101" stroke="none" /><path d="M 105.69591212413111 79.78721728523813 l 4.029314425485291 -14.298615427500764 a35.8554965545749,35.8554965545749 0 0,0 0.5910010063548562,0.17203177960894453 l -4.274175444221751 14.227339953589302" fill="#ff0000" stroke="none" /><path d="M 106.38641147887787 79.99465700312896 l 7.128829238681292 -22.33095605530891 a44.441241534065874,44.441241534065874 0 0,0 0.7247673683867775,0.23824542969787363 l -7.511119344715811 22.205289704209015" fill="#ff9a0e" stroke="none" /><path d="M 107.06938296918511 80.22567764915836 l 5.376047594498796 -15.037761933463344 a36.9698519625523,36.9698519625523 0 0,0 0.5957618555175593,0.2187720055076005 l -5.633398601670479 14.94325907894702" fill="#ff1502" stroke="none" /><path d="M 107.40779381753099 80.34994680014964 l 5.49641227602821 -14.579886575226366 a36.58151598704502,36.58151598704502 0 0,0 0.5857009692800504,0.22656171720739135 l -5.745885507801787 14.483384969880937" fill="#ff0e01" stroke="none" /><path d="M 107.74402155503746 80.48000691201159 l 6.35500340287657 -16.01875997072858 a38.23330320195142,38.23330320195142 0 0,0 0.6079924303926169,0.24726522847108096 l -6.629050294459627 15.907307485678206" fill="#ff2c04" stroke="none" /><path d="M 108.4095320186766 80.7573450057729 l 9.816538668069569 -22.46216155757962 a45.513529596133495,45.513529596133495 0 0,0 0.7132329799438605,0.3190200399716315 l -10.200685050869062 22.290337766698137" fill="#ffac0f" stroke="none" /><path d="M 109.06512990194946 81.05736502329252 l 27.195389705848374 -56.82790493012246 a84.0,84.0 0 0,0 1.2953590029517317,0.6336249996111154 l -28.166908958062173 56.352686180414125" fill="#4dd2ff" stroke="none" /><path d="M 109.71004243097381 81.37971332152246 l 7.980824165422481 -15.304282648308094 a38.26020340953998,38.26020340953998 0 0,0 0.5797535540569919,0.308686112786551 l -8.242366535266033 15.165026067798971" fill="#ff2d04" stroke="none" /><path d="M 110.34350942703115 81.72400993836675 l 9.847164559342032 -17.39899623927323 a40.99229151430635,40.99229151430635 0 0,0 0.6094334366870838,0.35185655872444666 l -10.144390463889513 17.227392783272613" fill="#ff5e08" stroke="none" /><line stroke="#e1ed5e" stroke-width="0.3" x1="143.13028292997686" x2="145.6673583964461" y1="26.7553504044142" y2="22.446841604673864" /><path d="M 143.63769802327073 25.89364864446614 a86.0,86.0 0 0,1 29.32050498858742,28.57503671076993" fill="none" id="id26" stroke="none" /><text fill="#e1ed5e" style="font-size:6.75px; font-family:Arial;" text-anchor="middle"><textPath startOffset="20.669276256404974" xlink:href="#id26">February</textPath></text><path d="M 110.65571695917076 81.90426304109057 l 14.47174020429362 -24.576178691494757 a49.52051583714518,49.52051583714518 0 0,0 0.7288175868400183,0.43763402026730186 l -14.891490547691074 24.32413067069153" fill="#ffed16" stroke="none" /><path d="M 110.96478420261332 82.08984904055464 l 8.730457960015267 -14.260546958297397 a37.720768395662894,37.720768395662894 0 0,0 0.5493506697623352,0.34283544773156277 l -8.973972758567314 14.108575713724289" fill="#ff2303" stroke="none" /><path d="M 111.27062007382361 82.28071324371311 l 26.74344942726272 -42.045144468538595 a70.82977283360663,70.82977283360663 0 0,0 1.0203344736256337,0.6613684784727509 l -27.461269533145362 41.579862148361954" fill="#38ff80" stroke="none" /><path d="M 111.5731344415666 82.4767994020092 l 8.781297846980811 -13.296004160349137 a36.93408040990792,36.93408040990792 0 0,0 0.526053359348919,0.3539521771854548 l -9.00824749442673 13.143302309106563" fill="#ff1402" stroke="none" /><path d="M 112.16784306229584 82.88440491214696 l 13.067164763098557 -18.38060368517418 a43.55210382153743,43.55210382153743 0 0,0 0.6056210168596863,0.43842291204537037 l -13.380766790332212 18.153580001755735" fill="#ff8b0c" stroke="none" /><line stroke="#e1ed5e" stroke-width="0.3" x1="172.87174338648825" x2="177.1583165268699" y1="56.24261187166439" y2="53.66864786411523" /><path d="M 173.72905801456457 55.72781907015455 a86.0,86.0 0 0,1 12.242430191666344,42.057860355516425" fill="none" id="id27" stroke="none" /><text fill="#e1ed5e" style="font-size:6.75px; font-family:Arial;" text-anchor="middle"><textPath startOffset="22.145653131862474" xlink:href="#id27">March</textPath></text><line stroke="#e1ed5e" stroke-width="0.3" x1="184.99686870605535" x2="189.99668451229388" y1="99.2704041080226" y2="99.22748670261217" /><path d="M 185.99683186730306 99.26182062694052 a86.0,86.0 0 0,1 -10.086455211305974,41.156179273409016" fill="none" id="id28" stroke="none" /><text fill="#e1ed5e" style="font-size:6.75px; font-family:Arial;" text-anchor="middle"><textPath startOffset="21.40746469413373" xlink:href="#id28">April</textPath></text><line stroke="#e1ed5e" stroke-width="0.3" x1="174.33088141563837" x2="178.70328620479359" y1="141.23008692659167" y2="143.65538615756765" /><path d="M 175.20536237346943 141.71514677278685 a86.0,86.0 0 0,1 -30.301960400862466,31.631185727798858" fill="none" id="id29" stroke="none" /><text fill="#e1ed5e" style="font-size:6.75px; font-family:Arial;" text-anchor="middle"><textPath startOffset="22.145653131862474" xlink:href="#id29">May</textPath></text><line stroke="#e1ed5e" stroke-width="0.3" x1="143.1302829299769" x2="145.66735839644613" y1="173.24464959558577" y2="177.55315839532614" /><path d="M 143.63769802327073 174.10635135553383 a86.0,86.0 0 0,1 -40.68552437913181,11.842963189579606" fill="none" id="id30" stroke="none" /><text fill="#e1ed5e" style="font-size:6.75px; font-family:Arial;" text-anchor="middle"><textPath startOffset="21.407464694133747" xlink:href="#id30">June</textPath></text><line stroke="#e1ed5e" stroke-width="0.3" x1="101.45913802915013" x2="101.54496967792366" y1="184.9874750549273" y2="189.98673829345242" /><path d="M 101.47630435890484 185.9873277026323 a86.0,86.0 0 0,1 -42.54439059252881,-10.42667462771756" fill="none" id="id31" stroke="none" /><text fill="#e1ed5e" style="font-size:6.75px; font-family:Arial;" text-anchor="middle"><textPath startOffset="22.145653131862474" xlink:href="#id31">July</textPath></text><line stroke="#e1ed5e" stroke-width="0.3" x1="58.13341422392154" x2="55.67067388415222" y1="173.97424548756322" y2="178.32567169271397" /><path d="M 57.64086615596768 174.84453072859336 a86.0,86.0 0 0,1 -31.369924170532247,-30.572349798747897" fill="none" id="id32" stroke="none" /><text fill="#e1ed5e" style="font-size:6.75px; font-family:Arial;" text-anchor="middle"><textPath startOffset="22.145653131862474" xlink:href="#id32">August</textPath></text><line stroke="#e1ed5e" stroke-width="0.3" x1="26.387840678322732" x2="22.057713659400548" y1="142.50000000000003" y2="145.00000000000006" /><path d="M 25.521815274538298 143.00000000000003 a86.0,86.0 0 0,1 -11.493303480769221,-40.785679425670985" fill="none" id="id33" stroke="none" /><text fill="#e1ed5e" style="font-size:6.75px; font-family:Arial;" text-anchor="middle"><textPath startOffset="21.40746469413373" xlink:href="#id33">September</textPath></text><line stroke="#e1ed5e" stroke-width="0.3" x1="15.003131293944662" x2="10.003315487706104" y1="100.72959589197737" y2="100.7725132973878" /><path d="M 14.003168132696942 100.73817937305945 a86.0,86.0 0 0,1 10.791469493833604,-42.45332614584628" fill="none" id="id34" stroke="none" /><text fill="#e1ed5e" style="font-size:6.75px; font-family:Arial;" text-anchor="middle"><textPath startOffset="22.145653131862435" xlink:href="#id34">October</textPath></text><line stroke="#e1ed5e" stroke-width="0.3" x1="26.387840678322718" x2="22.05771365940052" y1="57.49999999999999" y2="54.99999999999999" /><path d="M 25.521815274538284 56.99999999999999 a86.0,86.0 0 0,1 29.574782752854787,-30.34633250058573" fill="none" id="id35" stroke="none" /><text fill="#e1ed5e" style="font-size:6.75px; font-family:Arial;" text-anchor="middle"><textPath startOffset="21.40746469413373" xlink:href="#id35">November</textPath></text><line stroke="#e1ed5e" stroke-width="0.3" x1="56.869717070023135" x2="54.33264160355391" y1="26.7553504044142" y2="22.446841604673864" /><path d="M 56.362301976729285 25.89364864446614 a86.0,86.0 0 0,1 42.16139366436587,-11.88097634709845" fill="none" id="id36" stroke="none" /><text fill="#e1ed5e" style="font-size:6.75px; font-family:Arial;" text-anchor="middle"><textPath startOffset="22.145653131862474" xlink:href="#id36">December</textPath></text></svg>