<?xml version="1.0" encoding="utf-8" ?>
<svg baseProfile="full" height="200mm" version="1.1" viewBox="0,0,200,200" width="200mm" xmlns="http://www.w3.org/2000/svg" xmlns:ev="http://www.w3.org/2001/xml-events" xmlns:xlink="http://www.w3.org/1999/xlink"><defs /><rect fill="#1a1a1a" height="200" width="200" x="0" y="0" /><text alignment-baseline="middle" fill="#e1ed5e" style="dominant-baseline: central; font-size:9.0px; font-family:Arial;" text-anchor="middle" x="100.0" y="100.0">2025</text><line stroke="#e1ed5e" stroke-width="0.3" x1="100.0" x2="100.0" y1="15.0" y2="10.0" /><path d="M 100.0 14.0 a86.0,86.0 0 0,1 42.46469731375804,11.215312516191453" fill="none" id="id37" stroke="none" /><text fill="#e1ed5e" style="font-size:6.75px; font-family:Arial;" text-anchor="middle"><textPath startOffset="22.20632615414155" xlink:href="#id37">January</textPath></text><path d="M 100.0 79.0 l 0.0 -13.010788967790027 a34.01078896779003,34.01078896779003 0 0,0 0.5854398236435029,0.005039065392048282 l -0.22395934437097448 13.008861279006538" fill="#ff930d" stroke="none" /><path d="M 100.36148047927253 79.00311137660856 l 0.21147224946731166 -12.283538181478344 a33.28535838989368,33.28535838989368 0 0,0 0.5727829504809817,0.014793293736615767 l -0.42288183514316124 12.278078095599367" fill="#ff890c" stroke="none" /><path d="M 101.08401301168833 79.027996857942 l 1.0520229537263863 -20.353103194494103 a41.380273843618816,41.380273843618816 0 0,0 0.7110272967708196,0.04289110827253809 l -1.4022122993368178 20.331978816841264" fill="#fff417" stroke="none" /><path d="M 101.44485096284872 79.0497635885617 l 1.5619627400563534 -22.6483488688133 a43.70214602377496,43.70214602377496 0 0,0 0.7500324844232403,0.05821695603888296 l -1.951585413841935 22.618106650585954" fill="#edff1a" stroke="none" /><path d="M 102.16513564639614 79.11191278185805 l 1.5129362076959276 -14.596010884786617 a35.67421240535133,35.67421240535133 0 0,0 0.6102554724794577,0.06856931282996526 l -1.7639583836851105 14.567805618486052" fill="#ffaa0f" stroke="none" /><path d="M 102.52436894288641 79.15227682838746 l 1.6457075100609442 -13.591220367322592 a34.69049393856173,34.69049393856173 0 0,0 0.5921919589410581,0.07688351229357213 l -1.8794141975098484 13.560878531864883" fill="#ff9d0e" stroke="none" /><path d="M 102.88285421437855 79.19881850522331 l 1.8339472355191788 -13.232812504915994 a34.35929224371297,34.35929224371297 0 0,0 0.5851404150889928,0.0862344867413767 l -2.0614566310368274 13.199283534013649" fill="#ff980e" stroke="none" /><path d="M 103.2404852339499 79.25152402106235 l 2.1101993058650437 -13.511377601663412 a34.67516968103888,34.67516968103888 0 0,0 0.588934299876445,0.0971792056634172 l -2.342462811880364 13.47305213306037" fill="#ff9c0e" stroke="none" /><path d="M 103.59715602781102 79.31037775812273 l 2.351057374322738 -13.522485143163953 a34.725344266154025,34.725344266154025 0 0,0 0.5880238972583703,0.10745760866980529 l -2.5834763926840094 13.48001205314341" fill="#ff9d0e" stroke="none" /><path d="M 103.95276090670814 79.375362276772 l 2.547607053058227 -13.292853721887475 a34.534779708894035,34.534779708894035 0 0,0 0.5828707604992941,0.11691839119273643 l -2.7760442230246465 13.24703137461753" fill="#ff9b0e" stroke="none" /><path d="M 104.307194497241 79.44645832069477 l 2.731432847636375 -13.034149935434483 a34.317274118247084,34.317274118247084 0 0,0 0.5771140496227039,0.12613477828917197 l -2.955389621412607 12.985201659049439" fill="#ff980e" stroke="none" /><path d="M 104.66035177308747 79.52364482259891 l 2.9722838308297397 -13.059430354502064 a34.39340107497352,34.39340107497352 0 0,0 0.5761325629987316,0.13635196356524704 l -3.1966400807909947 13.006332478795947" fill="#ff990e" stroke="none" /><path d="M 105.36241919743992 79.69619591428918 l 3.436711328090536 -13.012468987505896 a34.4586527521676,34.4586527521676 0 0,0 0.5721811880565728,0.15639873296545959 l -3.6601904053708196 12.951383713714144" fill="#ff990e" stroke="none" /><path d="M 105.71112130821622 79.79150937346287 l 3.5975426154309527 -12.729707932821217 a34.22829455843697,34.22829455843697 0 0,0 0.565597763924839,0.16511349700154823 l -3.8161305970792188 12.665896106900965" fill="#ff960d" stroke="none" /><path d="M 106.40334571778207 80.00007090966166 l 6.024681862769597 -18.81722701815556 a40.75815842127977,40.75815842127977 0 0,0 0.6663321866566769,0.21967924560746216 l -6.347696871668692 18.71073404828886" fill="#ffec16" stroke="none" /><path d="M 107.08798089147638 80.2323363322302 l 4.5424366535472815 -12.668397583782005 a34.45815842127977,34.45815842127977 0 0,0 0.5566103027536492,0.20500427193174608 l -4.7598292820735075 12.588330044043934" fill="#ff990e" stroke="none" /><path d="M 107.4271985657038 80.35727306442388 l 4.713498528731009 -12.465799007802547 a34.32716073600376,34.32716073600376 0 0,0 0.5508967174188423,0.2137393676644971 l -4.927378411149518 12.382816936247503" fill="#ff980e" stroke="none" /><path d="M 107.76421540070413 80.48803036053334 l 4.785734558455124 -12.02685687966027 a33.94405429793244,33.94405429793244 0 0,0 0.5410296430993148,0.2206995758655315 l -4.992048071142826 11.94269641761116" fill="#ff920d" stroke="none" /><path d="M 108.09893153111575 80.62456947434976 l 4.768039803676994 -11.406791575499527 a33.36321550472753,33.36321550472753 0 0,0 0.5279589716458544,0.22604447860436994 l -4.963682533113164 11.323027568932366" fill="#ff8b0c" stroke="none" /><path d="M 108.76106565485865 80.91482961587045 l 8.855588510015236 -19.291079672671117 a42.22656832359057,42.22656832359057 0 0,0 0.6579739627392878,0.3089275979737114 l -9.186340684054121 19.135787092057402" fill="#ffff18" stroke="none" /><path d="M 109.73455568895987 81.39251694778311 l 5.499189486480523 -10.511632830522043 a32.86319981168347,32.86319981168347 0 0,0 0.4989806688992927,0.26653819253110683 l -5.6793152019081266 10.415415911489182" fill="#ff840c" stroke="none" /><path d="M 110.05341064243156 81.56283822128135 l 7.680570655579652 -14.085560489504822 a37.04350896465142,37.04350896465142 0 0,0 0.5571977208655954,0.3100799283965315 l -7.921892465517282 13.95126516354811" fill="#ffbc11" stroke="none" /><line stroke="#e1ed5e" stroke-width="0.3" x1="143.23703022742887" x2="145.7803849466894" y1="26.81831364943548" y2="22.513508569990506" /><path d="M 143.74570117128098 25.957352633546492 a86.0,86.0 0 0,1 28.547481713284135,27.462654790039103" fill="none" id="id38" stroke="none" /><text fill="#e1ed5e" style="font-size:6.75px; font-family:Arial;" text-anchor="middle"><textPath startOffset="19.985693538727396" xlink:href="#id38">February</textPath></text><path d="M 110.68208982089419 81.91981866633111 l 13.803444326210995 -23.36329132516191 a48.13629408764565,48.13629408764565 0 0,0 0.7097534591066071,0.4276185176260734 l -14.203559851535239 23.12222619807722" fill="#b8ff1f" stroke="none" /><path d="M 111.2981086023043 82.29822771554956 l 7.140427685879402 -11.187556197082685 a34.27204284201028,34.27204284201028 0 0,0 0.4945504321363308,0.321669357876713 l -7.331945143800013 11.062987915046445" fill="#ff970d" stroke="none" /><path d="M 111.60114157652 82.49532879139004 l 7.449781683254718 -11.240788510436968 a34.48534662011063,34.48534662011063 0 0,0 0.49198323614992256,0.33218927721427144 l -7.642169613811182 11.110887320924027" fill="#ff9a0e" stroke="none" /><path d="M 112.19680574252982 82.90503203632743 l 9.5500572658112 -13.385301566377047 a37.44292832202127,37.44292832202127 0 0,0 0.5214457027240236,0.3788524790746417 l -9.779048284889011 13.21892985248573" fill="#ffc112" stroke="none" /><path d="M 112.48926042617603 83.11751280151076 l 7.9052917312486235 -10.686060014683427 a34.29231040841147,34.29231040841147 0 0,0 0.4715255489019166,0.3551432676831169 l -8.088063433908923 10.548400157494463" fill="#ff970e" stroke="none" /><path d="M 112.77801427241765 83.33499621200491 l 16.853202707447778 -21.979838257476523 a48.6973596453372,48.6973596453372 0 0,0 0.6608172451720958,0.5157783415662793 l -17.229052507779304 21.686481526687018" fill="#b1ff20" stroke="none" /><path d="M 113.34407831869373 83.78471172551755 l 8.419349599006015 -10.230918731964932 a34.24979795205775,34.24979795205775 0 0,0 0.45200349348027913,0.3785399268651495 l -8.594210629445412 10.084477647705963" fill="#ff970d" stroke="none" /><path d="M 113.89432698308785 84.25364557470407 l 8.737579630896272 -9.902244697048479 a34.20604966848445,34.20604966848445 0 0,0 0.43814531040800686,0.39337118576312563 l -8.90673592890027 9.750374502516054" fill="#ff960d" stroke="none" /><path d="M 114.16331599549186 84.49514656593476 l 8.958412667398475 -9.80694601843932 a34.28267095609871,34.28267095609871 0 0,0 0.43227528531572956,0.4017527666384768 l -9.125895836509052 9.651288665726202" fill="#ff970d" stroke="none" /><path d="M 114.68862486808459 84.99185889309783 l 22.198039543278213 -22.680905309657966 a52.73604299894072,52.73604299894072 0 0,0 0.6432898217697772,0.6405273308382656 l -22.58516516521531 22.295442128169583" fill="#84ff25" stroke="none" /><path d="M 115.19652480421416 85.50635884689758 l 8.027227822352362 -7.65594509338816 a32.09278512299423,32.09278512299423 0 0,0 0.37782786720877853,0.4030404254521217 l -8.157823011531603 7.516635251057984" fill="#ff790b" stroke="none" /><path d="M 115.68641384162765 86.03803664274999 l 9.958709591793276 -8.863921340461367 a34.33210404488211,34.33210404488211 0 0,0 0.38911048110351476,0.4448205444492512 l -10.109811936474639 8.691185239809169" fill="#ff980e" stroke="none" /><path d="M 115.9244219780498 86.31012108654704 l 10.142611660035687 -8.719382448132611 a34.375357997567576,34.375357997567576 0 0,0 0.38187648468634566,0.452021307824943 l -10.29119875820915 8.543502190678561" fill="#ff980e" stroke="none" /><path d="M 116.15771136456269 86.58626213691792 l 15.261363768756986 -12.669611952359874 a40.83502687433795,40.83502687433795 0 0,0 0.4443269150898376,0.5446922600943187 l -15.477189175923233 12.405035522657455" fill="#ffed16" stroke="none" /><path d="M 116.38621287248628 86.86637796730983 l 8.543794149450457 -6.84788876827072 a31.949429165522382,31.949429165522382 0 0,0 0.3402552123914892,0.43208956627938033 l -8.66040344243591 6.699806808038301" fill="#ff770b" stroke="none" /><path d="M 116.60985879189232 87.15038557335679 l 10.08321193575529 -7.800510960383734 a33.74829926635019,33.74829926635019 0 0,0 0.3515030964794136,0.46253687223707285 l -10.215990972458817 7.625789312265628" fill="#ff900d" stroke="none" /><line stroke="#e1ed5e" stroke-width="0.3" x1="172.23445277983987" x2="176.4835382374775" y1="55.19839476539836" y2="52.563006222186495" /><path d="M 173.08426987136738 54.67131705675599 a86.0,86.0 0 0,1 12.851231095245387,41.99856678651699" fill="none" id="id39" stroke="none" /><text fill="#e1ed5e" style="font-size:6.75px; font-family:Arial;" text-anchor="middle"><textPath startOffset="22.20632615414155" xlink:href="#id39">March</textPath></text><path d="M 117.84615892207809 88.93136811851018 l 5.557801778157471 -3.447086973803058 a27.53999764604339,27.53999764604339 0 0,0 0.24639668918695876,0.40501137137615784 l -5.616314265630654 3.3509078292198184" fill="#ff3805" stroke="none" /><path d="M 118.03404312379186 89.2402003453031 l 19.434654829541728 -11.595458150378878 a43.63096237592687,43.63096237592687 0 0,0 0.3792576226321235,0.6482742152429422 l -19.631372126644177 11.25920452278204" fill="#eeff19" stroke="none" /><path d="M 118.3937258080291 89.86733742301442 l 11.557327305052771 -6.366654537318556 a34.19492722350818,34.19492722350818 0 0,0 0.27957105009954203,0.5180026963505029 l -11.665206454370777 6.166770857635595" fill="#ff960d" stroke="none" /><path d="M 118.73160827565052 90.50648371742162 l 14.631731096905696 -7.415624721949231 a37.40362901643846,37.40362901643846 0 0,0 0.2861199276522001,0.5768003148721929 l -14.757211037511304 7.162664818578089" fill="#ffc111" stroke="none" /><path d="M 118.89224826269711 90.83032412892265 l 11.696013087424397 -5.676860027682548 a34.00090235003335,34.00090235003335 0 0,0 0.2510267291123451,0.5287263113080365 l -11.791998010378498 5.474691300733971" fill="#ff930d" stroke="none" /><path d="M 119.04729006885535 91.15688171328212 l 20.34904295441171 -9.447485349194343 a43.43520734434462,43.43520734434462 0 0,0 0.30900568283150953,0.680853061863802 l -20.50865095420657 9.095810278488479" fill="#f0ff19" stroke="none" /><path d="M 119.196687751892 91.48605970444005 l 11.833877959430685 -5.248453885051367 a33.945537290595944,33.945537290595944 0 0,0 0.23229947943049303,0.536179226512288 l -11.922468148703858 5.043975513952477" fill="#ff930d" stroke="none" /><path d="M 119.47837535516314 92.15188598940014 l 20.34419980011585 -8.196966973603876 a42.93346149319314,42.93346149319314 0 0,0 0.270289549300275,0.6878574210787313 l -20.48228289929782 7.845560547629361" fill="#f7ff19" stroke="none" /><path d="M 119.7369772167798 92.82701384747503 l 26.3381671721742 -9.572048765819932 a49.02361803130762,49.02361803130762 0 0,0 0.28141172005860965,0.7955888279154597 l -26.49903197304262 9.117262311477857" fill="#aeff20" stroke="none" /><path d="M 119.97218684219823 93.5106431181261 l 23.086058336211156 -7.5011150618168845 a45.274118247086975,45.274118247086975 0 0,0 0.23444343269526202,0.7432497490892311 l -23.211757252674627 7.102615146301234" fill="#daff1c" stroke="none" /><path d="M 120.08093135843002 93.85539295169968 l 34.89444904576807 -10.677426944302152 a57.491506139903485,57.491506139903485 0 0,0 0.2814184665404018,0.9488031685605711 l -35.073073409420175 10.075194388995051" fill="#51ff2b" stroke="none" /><path d="M 120.28053869075195 94.5502522615342 l 20.93616126838072 -5.625925389079624 a42.67888108595865,42.67888108595865 0 0,0 0.18454280734648595,0.7111187164548806 l -21.02990040759751 5.264710247075893" fill="#faff18" stroke="none" /><path d="M 120.45610955862082 95.25157060432595 l 28.36127354164767 -6.583436825950998 a50.115347797088944,50.115347797088944 0 0,0 0.18782662709409384,0.8419899401623384 l -28.470394555743802 6.0942687162386955" fill="#a1ff22" stroke="none" /><path d="M 120.6074358757038 95.95851677861258 l 23.7548621326819 -4.658749264812486 a45.20738357722939,45.20738357722939 0 0,0 0.14318744726517757,0.7649130688356435 l -23.831535303856935 4.24915811851428" fill="#dbff1b" stroke="none" /><path d="M 120.67395015179393 96.31383870115 l 38.28764631470174 -6.826679905536266 a59.8914826003374,59.8914826003374 0 0,0 0.17222548309658706,1.016484550361665 l -38.399483659318555 6.166609566858763" fill="#38ff2e" stroke="none" /><path d="M 120.78858239683441 97.02765380044208 l 21.3833108790727 -3.0573803259935364 a42.60077680568088,42.60077680568088 0 0,0 0.09754360914577474,0.7268131877748828 l -21.432770487276308 2.6888487961539895" fill="#fbff18" stroke="none" /><path d="M 120.83666639777658 97.38593545837742 l 32.38189137858393 -4.062471051149653 a53.63572521479854,53.63572521479854 0 0,0 0.10704068143565296,0.9170591898981428 l -32.44702241302317 3.504468122926658" fill="#7aff26" stroke="none" /><path d="M 120.87857604477298 97.74499172005257 l 16.601945124385377 -1.793107137116972 a37.698497391031424,37.698497391031424 0 0,0 0.06412850877469742,0.6457653317728106 l -16.630350758842305 1.5070662746397263" fill="#ffc512" stroke="none" /><path d="M 120.94382443527127 98.46500227214037 l 23.010187560141613 -1.6864439315561854 a44.071905527874776,44.071905527874776 0 0,0 0.04893956143901299,0.7570733542989226 l -23.035807712585044 1.2901115130042276" fill="#e9ff1a" stroke="none" /><path d="M 120.96714384426684 98.82574320788733 l 45.82656414221636 -2.566499023561502 a66.89837576993997,66.89837576993997 0 0,0 0.05449475354587429,1.1502981178803025 l -45.86395250399573 1.7772897990582" fill="#37ff79" stroke="none" /><line stroke="#e1ed5e" stroke-width="0.3" x1="184.98032266829074" x2="189.97916517819016" y1="98.17113171792111" y2="98.06355123074" /><path d="M 185.9800911702706 98.14961562048488 a86.0,86.0 0 0,1 -9.607161424134198,41.387399972396054" fill="none" id="id40" stroke="none" /><text fill="#e1ed5e" style="font-size:6.75px; font-family:Arial;" text-anchor="middle"><textPath startOffset="21.466115282336823" xlink:href="#id40">April</textPath></text><path d="M 120.99513854157772 99.54816195383933 l 23.980370645716196 -0.5160834636700043 a44.985923339479776,44.985923339479776 0 0,0 0.009997570668016474,0.7743228659473107 l -23.985701223501927 0.10322433966223091" fill="#ddff1b" stroke="none" /><path d="M 120.99824983174949 100.27111621757518 l 30.36594564805484 0.39206602422390396 a51.36847659774806,51.36847659774806 0 0,0 -0.01902575194971171,0.8840519328463476 l -30.35469783342012 -0.9147077728603664" fill="#93ff23" stroke="none" /><path d="M 120.9904718944345 100.63252640178507 l 38.15491168005568 1.1497592391818385 a59.17223115853898,59.17223115853898 0 0,0 -0.03944214431691064,1.0178264875910026 l -38.12946740288757 -1.8063629737868472" fill="#40ff2d" stroke="none" /><path d="M 120.95626037817324 101.35467743843564 l 52.124679340727575 3.369500369546911 a73.23347326297619,73.23347326297619 0 0,0 -0.09214668497957365,1.2572683056642115 l -52.05895609708366 -4.266241811707892" fill="#3fffc0" stroke="none" /><path d="M 120.89721153311464 102.0752229133903 l 16.503377888427867 1.6388879390981488 a37.58455412138569,37.58455412138569 0 0,0 -0.06947361381434988,0.6432393805498162 l -16.472721973112463 -1.9227236415327564" fill="#ffc312" stroke="none" /><path d="M 120.81339534386255 102.79330883721812 l 21.820626822408375 2.9284866178571565 a43.016261916905336,43.016261916905336 0 0,0 -0.1048079934617568,0.7330268621638691 l -21.766984777930016 -3.303658952001435" fill="#f6ff19" stroke="none" /><path d="M 120.76222939487914 103.15116336523771 l 18.73145870539062 2.842945491414717 a39.94597277256856,39.94597277256856 0 0,0 -0.10903014665025568,0.6789308272685444 l -18.679746804379075 -3.1649555483764664" fill="#ffe215" stroke="none" /><path d="M 120.70491114924044 103.5080841355445 l 23.83749459135 4.038845470250207 a45.177229393071514,45.177229393071514 0 0,0 -0.13650742524995058,0.7656061349913457 l -23.764440723760863 -4.448570355974771" fill="#dbff1b" stroke="none" /><path d="M 120.64145759157962 103.86396538481128 l 34.20089254869411 6.402215752036482 a55.79496253285731,55.79496253285731 0 0,0 -0.1848409182395806,0.9424998598709265 l -34.085621697478864 -6.989979338975353" fill="#63ff29" stroke="none" /><path d="M 120.49622156327973 104.57218783832717 l 21.98408529895146 4.904092548486718 a43.524434069598655,43.524434069598655 0 0,0 -0.16941250519247425,0.7298246384319829 l -21.89641222782843 -5.281785844267265" fill="#efff19" stroke="none" /><path d="M 120.32669344350535 105.2749913415812 l 22.852757006283316 5.930531479428617 a44.60973753383813,44.60973753383813 0 0,0 -0.1992821567589418,0.7416030400819975 l -22.747286773182594 -6.323025452686163" fill="#e2ff1b" stroke="none" /><path d="M 120.13307415673323 105.97154293290107 l 33.53485018628686 9.946558388294877 a55.97885362313155,55.97885362313155 0 0,0 -0.2819554294821615,0.9214466573796728 l -33.35866798429857 -10.522332018226606" fill="#61ff29" stroke="none" /><path d="M 120.02730092923936 106.31721596034902 l 53.19896677060728 16.780561851282943 a76.78276903762406,76.78276903762406 0 0,0 -0.4084395376158282,1.2570476408517162 l -52.902234981975205 -17.693808392112455" fill="#44ffe5" stroke="none" /><path d="M 119.79798401119884 107.00284435728193 l 20.412374742606826 7.220163588582092 a42.65169288712778,42.65169288712778 0 0,0 -0.2507832999341056,0.6900479342771234 l -20.285067181667493 -7.570459319865346" fill="#faff18" stroke="none" /><path d="M 119.54520255179757 107.68017299344265 l 15.852248905540087 6.229048463785944 a38.03217074031936,38.03217074031936 0 0,0 -0.24466889719683982,0.6072481376923397 l -15.742677394085854 -6.500995969321097" fill="#ffc912" stroke="none" /><path d="M 119.41010516605496 108.01547362559984 l 19.908284411989804 8.221198559723081 a42.53898544470164,42.53898544470164 0 0,0 -0.28531306480766083,0.6743958050884504 l -19.763820365989833 -8.562668890477696" fill="#fbff18" stroke="none" /><path d="M 119.26925614724726 108.34839909993367 l 24.448497147866796 10.592303616927103 a47.644434854250854,47.644434854250854 0 0,0 -0.3325103186109781,0.7497229883072841 l -24.262545744524544 -11.011574941727075" fill="#beff1f" stroke="none" /><path d="M 119.12269723197855 108.67885076344098 l 47.997752484601776 21.783816672986003 a73.70976107340422,73.70976107340422 0 0,0 -0.5343093629544496,1.1508548334114879 l -47.615668504807495 -22.606791573676322" fill="#40ffc5" stroke="none" /><path d="M 118.81262510543309 109.33194174019688 l 17.547575890841998 8.704418175416091 a40.587861430420965,40.587861430420965 0 0,0 -0.31585344311857044,0.6232088082968522 l -17.395143777937157 -9.005181195415638" fill="#ffea16" stroke="none" /><path d="M 118.64920377521936 109.65438752849418 l 18.27093713659923 9.458565081468741 a41.57405155164973,41.57405155164973 0 0,0 -0.33446817774191495,0.6326877446639168 l -18.105416450632422 -9.771667841218793" fill="#fff617" stroke="none" /><line stroke="#e1ed5e" stroke-width="0.3" x1="174.80103733775053" x2="179.2010983576182" y1="140.37084112569926" y2="142.7455964860345" /><path d="M 175.68104954172406 140.8457921977663 a86.0,86.0 0 0,1 -30.038265399797805,32.042727171017184" fill="none" id="id41" stroke="none" /><text fill="#e1ed5e" style="font-size:6.75px; font-family:Arial;" text-anchor="middle"><textPath startOffset="22.206326154141568" xlink:href="#id41">May</textPath></text><path d="M 118.48025628344425 109.97397251340804 l 13.095758213114811 7.067906984431776 a35.88133704735376,35.88133704735376 0 0,0 -0.2980262686419054,0.5410042451665359 l -12.972155535021397 -7.2922817479961175" fill="#ffad10" stroke="none" /><path d="M 118.12598468904814 110.60418214915192 l 24.090229405868996 14.09342361350664 a48.90992192710581,48.90992192710581 0 0,0 -0.4313834718574578,0.7230235119640406 l -23.844065058313312 -14.506009219356786" fill="#afff20" stroke="none" /><path d="M 117.94076556474637 110.91462005526583 l 30.936893125163685 18.82107165008823 a57.2122091882773,57.2122091882773 0 0,0 -0.5190928044323952,0.8369428834921997 l -30.608335681063327 -19.3508108649457" fill="#54ff2b" stroke="none" /><path d="M 117.55443506779139 111.5257021239791 l 17.71862265146125 11.633502641314283 a42.19641413943269,42.19641413943269 0 0,0 -0.4038737240394815,0.6037364191325556 l -17.51574582201105 -11.936775974652646" fill="#fffe18" stroke="none" /><path d="M 117.35343817320211 111.8261652097733 l 26.41516135125224 18.001623601317977 a52.965906861783516,52.965906861783516 0 0,0 -0.5199211424677542,0.7489851832759578 l -26.10137930162235 -18.453650046780957" fill="#81ff25" stroke="none" /><path d="M 116.93607887273984 112.41649034213515 l 13.688263990635704 10.035392425686611 a37.97285103377928,37.97285103377928 0 0,0 -0.391009581310495,0.5238212320379643 l -13.513493142630118 -10.26952653723389" fill="#ffc812" stroke="none" /><path d="M 116.71984013943494 112.70617746262583 l 22.47604639278223 17.080584009372817 a49.22975401153438,49.22975401153438 0 0,0 -0.5185374274944216,0.6702795245851931 l -22.178702148069743 -17.464941528071265" fill="#abff21" stroke="none" /><path d="M 116.498646956653 112.99209946851258 l 49.495940869959 38.97629840553772 a84.0,84.0 0 0,0 -0.9043283517805842,1.1282886656869988 l -48.81769460612357 -39.822514904802965" fill="#4dd2ff" stroke="none" /><path d="M 116.0416608686014 113.55231037782055 l 13.114525057080153 11.0794085155567 a38.1681117344737,38.1681117344737 0 0,0 -0.4283143536080087,0.4982263575324216 l -12.921868193901364 -11.303511972250648" fill="#ffcb12" stroke="none" /><path d="M 115.56566222782051 114.09645910891815 l 17.301829896763735 15.668754343986397 a44.34230452351995,44.34230452351995 0 0,0 -0.5172288938468456,0.5613498103235655 l -17.029554594921166 -15.964255409111296" fill="#e5ff1a" stroke="none" /><path d="M 115.07121518719521 114.62390073753431 l 20.827297133361252 20.20914187252677 a50.02043626662481,50.02043626662481 0 0,0 -0.6049123204153074,0.6127729868963593 l -20.476344187890408 -20.564655353403797" fill="#a2ff22" stroke="none" /><path d="M 114.81725581225074 114.88116024355365 l 25.390471469591553 25.499976472429907 a56.98506414531759,56.98506414531759 0 0,0 -0.7010520969433914,0.6861270287663898 l -24.94776942027237 -25.933253604118867" fill="#56ff2a" stroke="none" /><path d="M 114.29624159901734 115.38237550388516 l 14.193039886348378 15.271333207493976 a41.848405194397586,41.848405194397586 0 0,0 -0.5318742000227593,0.485854471105226 l -13.928066136858755 -15.513380445185785" fill="#fffa17" stroke="none" /><path d="M 113.75828350139079 115.86535959552629 l 23.44451667775933 27.035035845740854 a56.78461297030091,56.78461297030091 0 0,0 -0.7439717822543125,0.6340288929602509 l -22.97567941892797 -27.434589128924053" fill="#58ff2a" stroke="none" /><path d="M 113.20401910651253 116.32954008644616 l 13.25633994804251 16.394245784933 a42.083212366118715,42.083212366118715 0 0,0 -0.5672065686959246,0.4506232024219141 l -12.972175886629236 -16.62000290136004" fill="#fffd17" stroke="none" /><path d="M 112.92097659922987 116.55440617244103 l 35.23626205078539 45.14483789267434 a78.26823335556514,78.26823335556514 0 0,0 -1.069186077203758,0.8198062915666186 l -34.453947245088145 -45.74468352606833" fill="#46fff5" stroke="none" /><path d="M 112.34349029814194 116.9893568818739 l 12.170122589454472 16.750736702042953 a41.70504923692573,41.70504923692573 0 0,0 -0.5844122038639986,0.4169625903505677 l -11.879983057741589 -16.957743554237737" fill="#fff817" stroke="none" /><path d="M 112.04921762599082 117.19931262002967 l 23.540575715694157 33.6023245290508 a62.02773353211189,62.02773353211189 0 0,0 -0.8797396854755168,0.6050929775647963 l -22.958679145595756 -34.002558295980684" fill="#31ff3f" stroke="none" /><path d="M 111.45004920935366 117.60387380957326 l 8.801475701630762 13.531825475733413 a37.142375142218214,37.142375142218214 0 0,0 -0.5389503629063628,0.3439836211606987 l -8.567243536677468 -13.681323525717922" fill="#ffbd11" stroke="none" /><line stroke="#e1ed5e" stroke-width="0.3" x1="143.8653032363475" x2="146.44561519142675" y1="172.8068346515853" y2="177.08958963109032" /><path d="M 144.38136562736335 173.6633856474863 a86.0,86.0 0 0,1 -40.68145358897372,12.25698825130547" fill="none" id="id42" stroke="none" /><text fill="#e1ed5e" style="font-size:6.75px; font-family:Arial;" text-anchor="middle"><textPath startOffset="21.466115282336833" xlink:href="#id42">June</textPath></text><path d="M 110.8373102113329 117.98757091392108 l 9.69656309308558 16.094179538737656 a39.78951704656911,39.78951704656911 0 0,0 -0.5897036238645803,0.3484072953459676 l -9.418091598192618 -16.25870540637737" fill="#ffe015" stroke="none" /><path d="M 110.21172684928248 118.3499491758327 l 9.800277068035165 17.610595030766977 a41.15387029699086,41.15387029699086 0 0,0 -0.6219666493133952,0.3391458081504847 l -9.49568760685312 -17.77668149067723" fill="#fff116" stroke="none" /><path d="M 109.89434966115114 118.52300852407294 l 13.113924226241473 24.550307857066013 a48.83330063949154,48.83330063949154 0 0,0 -0.7448452597375161,0.38966783633366336 l -12.68938806397746 -24.77240511234439" fill="#b0ff20" stroke="none" /><path d="M 108.92500713936063 119.00905698771935 l 6.923542161974881 14.746207533374191 a37.29067440856841,37.29067440856841 0 0,0 -0.5833895239348371,0.26780551698925525 l -6.668684642272625 -14.863200120697522" fill="#ffbf11" stroke="none" /><path d="M 107.93186726928326 119.44442032107085 l 7.640284247928231 18.729624846911666 a41.22801993016596,41.22801993016596 0 0,0 -0.6594106176699349,0.26239309345505535 l -7.31675255421643 -18.858364784772792" fill="#fff216" stroke="none" /><path d="M 107.59598834532513 119.57807347666477 l 11.732820398980854 30.24043869171135 a53.43675703244537,53.43675703244537 0 0,0 -0.8604075646984565,0.3253325188202352 l -11.210542613522124 -30.43791946063822" fill="#7cff26" stroke="none" /><path d="M 107.2578585660854 119.70592522655815 l 6.069419463049953 16.479175643675898 a38.56135195574562,38.56135195574562 0 0,0 -0.6248416088672646,0.22404597014019362 l -5.784858293552953 -16.58120915485605" fill="#ffd013" stroke="none" /><path d="M 106.57524785965236 119.94407469862006 l 5.510578278014905 16.71471359790428 a38.59966259955275,38.59966259955275 0 0,0 -0.6328114247484551,0.20260623467830907 l -5.22204550817551 -16.80709267924229" fill="#ffd013" stroke="none" /><path d="M 103.06178313531738 120.77559828337769 l 3.345198378342518 22.698700272070905 a43.94387382792577,43.94387382792577 0 0,0 -0.7492878481082643,0.1038444682213841 l -2.9539819390474236 -22.752919305784893" fill="#eaff1a" stroke="none" /><path d="M 101.98527174616119 120.90594882070398 l 1.704425386464536 17.94848990675308 a39.02923614108046,39.02923614108046 0 0,0 -0.6693619604960624,0.05775536647984232 l -1.3952191082269318 -17.975169525511582" fill="#ffd614" stroke="none" /><path d="M 101.62511606390274 120.93702456842531 l 1.2459690711917444 16.052321206149244 a37.10060418219624,37.10060418219624 0 0,0 -0.6371361650333773,0.04394064025986928 l -0.9694701453794367 -16.0713901909254" fill="#ffbd11" stroke="none" /><path d="M 101.26447882468166 120.96189622390904 l 1.615064247963287 26.77372566462327 a47.82239397387109,47.82239397387109 0 0,0 -0.8221168962666083,0.04249405298316886 l -1.153959283283199 -26.79755952436864" fill="#bcff1f" stroke="none" /><line stroke="#e1ed5e" stroke-width="0.3" x1="102.19456741930631" x2="102.32365962044197" y1="184.97166512339345" y2="189.96999836594603" /><path d="M 102.22038585953345 185.97133177190398 a86.0,86.0 0 0,1 -42.740103519485714,-10.115201625700543" fill="none" id="id43" stroke="none" /><text fill="#e1ed5e" style="font-size:6.75px; font-family:Arial;" text-anchor="middle"><textPath startOffset="22.20632615414155" xlink:href="#id43">July</textPath></text><path d="M 100.54218724476979 120.99299961872073 l 0.6744593207300917 26.11445473775605 a47.12316293302993,47.12316293302993 0 0,0 -0.8110576487501273,0.013963092953744765 l -0.22484198208729653 -26.122195307988953" fill="#c4ff1e" stroke="none" /><path d="M 100.18074693466247 120.99922214144158 l 0.26314708592266445 30.572491442150334 a51.57362391619915,51.57362391619915 0 0,0 -0.8877880411702188,0.0 l 0.2631470859226434 -30.572491442150334" fill="#91ff24" stroke="none" /><path d="M 99.45781275523022 120.99299961872073 l -0.6249330716815635 24.196843179347816 a45.204911922790224,45.204911922790224 0 0,0 -0.7776959372402089,-0.02678542053266453 l 1.0413493605964155 -24.18250096038906" fill="#dbff1b" stroke="none" /><path d="M 99.09653310690486 120.98055641714683 l -0.8665966250501941 20.124344922575997 a41.14299501745852,41.14299501745852 0 0,0 -0.7072910525003286,-0.03655886844797812 l 1.2128757459640116 -20.106446247365817" fill="#fff116" stroke="none" /><path d="M 98.73552117531835 120.96189622390904 l -1.0227797669810141 16.955130380113385 a37.985950802306874,37.985950802306874 0 0,0 -0.6523404012633971,-0.04498921340839609 l 1.3144829290233413 -16.935012822188703" fill="#ffc812" stroke="none" /><path d="M 98.01472825383883 120.90594882070398 l -2.537734809549142 26.723673548238818 a47.84389736749186,47.84389736749186 0 0,0 -0.8191955211760732,-0.08491296525829467 l 2.9973629273308084 -26.676031214524762" fill="#bbff1f" stroke="none" /><path d="M 97.2962882734958 120.8252237178851 l -3.109337433364096 23.949538343692012 a45.15053552512849,45.15053552512849 0 0,0 -0.7698626601977043,-0.10669594969886093 l 3.5211286847486316 -23.892467828500546" fill="#dbff1b" stroke="none" /><path d="M 96.93821686468263 120.77559828337769 l -4.782406997779049 32.4508177824205 a53.80132606222292,53.80132606222292 0 0,0 -0.9150430552252585,-0.14291090641528892 l 5.3402859166128245 -32.363688568658105" fill="#78ff26" stroke="none" /><path d="M 96.22490169976321 120.6578951692458 l -4.855538572520032 26.57022383100767 a48.01023971124799,48.01023971124799 0 0,0 -0.8116757109366243,-0.1555595818054736 l 5.312181898028352 -26.48270705085373" fill="#b9ff1f" stroke="none" /><path d="M 95.51606077576429 120.51570834832081 l -5.974762377349135 27.33678496837965 a48.98209423672957,48.98209423672957 0 0,0 -0.8221524409041506,-0.18711921885123864 l 6.444434967646148 -27.229889015950725" fill="#aeff20" stroke="none" /><path d="M 95.16358092515715 120.4354850818985 l -4.9284455667138065 20.824327730284896 a42.39958413433246,42.39958413433246 0 0,0 -0.708773082791014,-0.17419917938660115 l 5.286171934248031 -20.736407292584264" fill="#fdff18" stroke="none" /><path d="M 94.46302465271185 120.25689768951611 l -8.735252566407123 31.95772175804551 a54.13005610263251,54.13005610263251 0 0,0 -0.8966742565168803,-0.25340910152873036 l 9.284057991028616 -31.80262386317826" fill="#74ff27" stroke="none" /><path d="M 94.11515582081647 120.15858648285463 l -6.528069722877105 22.361961348138994 a44.295343089175724,44.295343089175724 0 0,0 -0.7300822266151917,-0.21996778592333047 l 6.912026923932543 -22.246278193109937" fill="#e6ff1a" stroke="none" /><path d="M 93.76903079525671 120.05430185196036 l -3.933805031296993 12.66090570056676 a34.25795441170701,34.25795441170701 0 0,0 -0.5616324983237322,-0.17981699019352432 l 4.1511588747116654 -12.591315863713529" fill="#ff970d" stroke="none" /><path d="M 93.42475214034765 119.94407469862007 l -6.563536287883031 19.90855110054571 a41.96259562948723,41.96259562948723 0 0,0 -0.6840507889756936,-0.23206716754335827 l 6.905256809795951 -19.79262094610423" fill="#fffb17" stroke="none" /><path d="M 92.7421414339146 119.70592522655815 l -5.3210248744335935 14.447197799391587 a36.39593550158892,36.39593550158892 0 0,0 -0.5860261731607258,-0.2215849544230598 l 5.568921268354602 -14.353464594861894" fill="#ffb410" stroke="none" /><path d="M 92.40401165467489 119.57807347666478 l -10.731058273247758 27.658474158312295 a50.667268233355564,50.667268233355564 0 0,0 -0.8103841682913339,-0.32246858498629677 l 11.20556351758095 -27.46965872891993" fill="#9bff22" stroke="none" /><path d="M 91.7346041902142 119.30500536409082 l -1.892814228934076 4.420936357280965 a25.809098042292753,25.809098042292753 0 0,0 -0.4068980365492592,-0.1783721415921637 l 1.9686329401410783 -4.387699662394349" fill="#ff1f03" stroke="none" /><path d="M 91.40352486487194 119.15986991738527 l -14.121503800970876 31.474083459956795 a55.49688100749343,55.49688100749343 0 0,0 -0.8682143593356595,-0.3985546291457786 l 14.661186156073956 -31.226341760476945" fill="#66ff29" stroke="none" /><path d="M 90.7491055286396 118.85261126421891 l -7.759950358670665 15.814181860420755 a38.61548118796344,38.61548118796344 0 0,0 -0.5942115166114409,-0.2979499900577116 l 8.031015782964866 -15.678264029453741" fill="#ffd113" stroke="none" /><path d="M 90.42595943632237 118.69057910512821 l -15.338935897636116 29.94489033929186 a54.64490172231158,54.64490172231158 0 0,0 -0.8334885310572365,-0.43604180634840944 l 15.852115331219848 -29.676419113998733" fill="#6fff28" stroke="none" /><line stroke="#e1ed5e" stroke-width="0.3" x1="58.666819895761336" x2="56.23545636021788" y1="174.27360380694188" y2="178.64263932499728" /><path d="M 58.180547188652646 175.14741091055294 a86.0,86.0 0 0,1 -31.652253787137756,-30.449443065178592" fill="none" id="id44" stroke="none" /><text fill="#e1ed5e" style="font-size:6.75px; font-family:Arial;" text-anchor="middle"><textPath startOffset="22.20632615414155" xlink:href="#id44">August</textPath></text><path d="M 89.7882731507175 118.34994917583269 l -16.201586322922992 29.113419305216926 a54.31790184000942,54.31790184000942 0 0,0 -0.8130904486504661,-0.46169397710093113 l 16.700325538494663 -28.830222162321363" fill="#72ff27" stroke="none" /><path d="M 89.4739219176387 118.17145234162733 l -10.11559035770096 17.462816317162755 a41.18105849582173,41.18105849582173 0 0,0 -0.6103270718552062,-0.3605919919364912 l 10.414685300584548 -17.286105752932514" fill="#fff216" stroke="none" /><path d="M 89.1626897886671 117.98757091392108 l -15.630063776644567 25.942496347248543 a51.287159166699354,51.287159166699354 0 0,0 -0.7522624666536077,-0.46210104847372313 l 16.074305443230482 -25.669606831946442" fill="#94ff23" stroke="none" /><path d="M 87.95078237400918 117.19931262002967 l -1.5628197838881737 2.2308026019780347 a23.723763191965162,23.723763191965162 0 0,0 -0.3324407232371337,-0.23718762918104697 l 1.6009878349741944 -2.2035707109527687" fill="#ff0000" stroke="none" /><path d="M 87.07902340077011 116.55440617244103 l -12.385158314268295 15.867913672763914 a41.129153752599166,41.129153752599166 0 0,0 -0.5543475619309023,-0.44040722974419844 l 12.656463368916555 -15.652372529014585" fill="#fff116" stroke="none" /><path d="M 86.79598089348748 116.32954008644616 l -10.00426292866692 12.372370201163855 a36.91102828671191,36.91102828671191 0 0,0 -0.4906176467120596,-0.4037449221646857 l 10.215750703923668 -12.198330160141989" fill="#ffba11" stroke="none" /><path d="M 86.24171649860922 115.8653595955263 l -16.248258070495712 18.736672860627426 a45.80058064263015,45.80058064263015 0 0,0 -0.5911713154525435,-0.5216399515766288 l 16.568371738854843 -18.45420976727851" fill="#d4ff1c" stroke="none" /><path d="M 85.97065885151581 115.62618273729859 l -12.110069596647541 13.48845669057411 a39.12711365687159,39.12711365687159 0 0,0 -0.4972878220514578,-0.4542606348635459 l 12.340456968165855 -13.278003289123987" fill="#ffd714" stroke="none" /><path d="M 85.44109423537348 115.13401014063109 l -17.1000457017071 17.775529922288026 a45.66538114480756,45.66538114480756 0 0,0 -0.5617930187399306,-0.5498327105936295 l 17.403488672822824 -17.478547108771828" fill="#d5ff1c" stroke="none" /><path d="M 85.18274418774928 114.88116024355367 l -21.501268811162365 21.594000311048653 a51.47302758052493,51.47302758052493 0 0,0 -0.622478948135686,-0.6305678880326413 l 21.869788384353583 -21.220691929035347" fill="#92ff23" stroke="none" /><path d="M 84.67929136418377 114.36230785411682 l -14.88192652180055 13.950974151990211 a41.398564086468674,41.398564086468674 0 0,0 -0.48289176079997687,-0.5240836340673255 l 15.119864690596254 -13.692739263121542" fill="#fff417" stroke="none" /><path d="M 84.43433777217949 114.09645910891817 l -9.931514175175364 8.994103907110366 a34.39883871473969,34.39883871473969 0 0,0 -0.3936884032124673,-0.44231309447131856 l 10.084861428036168 -8.821816642898185" fill="#ff990e" stroke="none" /><path d="M 83.95833913139862 113.55231037782056 l -19.56983187685512 16.53297858677588 a46.61869826199537,46.61869826199537 0 0,0 -0.512592567069094,-0.617450768075442 l 19.85152044381775 -16.193666561586678" fill="#caff1d" stroke="none" /><path d="M 83.72743513129214 113.27417163493432 l -6.577144848636231 5.365235922734666 a29.48790850955314,29.48790850955314 0 0,0 -0.31746132976071467,-0.3960818207874156 l 6.668524090451807 -5.25122626836899" fill="#ff5407" stroke="none" /><path d="M 83.50135304334701 112.99209946851258 l -36.91660449130174 29.07051704608569 a67.98862254305779,67.98862254305779 0 0,0 -0.7161247530123016,-0.9256877778565719 l 37.41153606153211 -28.430751274115867" fill="#39ff86" stroke="none" /><path d="M 83.06392112726016 112.41649034213515 l -23.582803789196568 17.289459838330156 a50.241649338930515,50.241649338930515 0 0,0 -0.5053357907028965,-0.7018672153690596 l 23.876919372275072 -16.88095901750996" fill="#a0ff22" stroke="none" /><path d="M 82.85270091963577 112.12312394758628 l -16.15851567621658 11.42405503244005 a40.78905410176939,40.78905410176939 0 0,0 -0.4003913623930183,-0.5767936201260522 l 16.352767945771735 -11.144220150126985" fill="#ffed16" stroke="none" /><path d="M 82.6465618267979 111.8261652097733 l -18.170354900575674 12.3828844076707 a42.988579387186626,42.988579387186626 0 0,0 -0.41145575998232375,-0.6150705341229589 l 18.38081376596873 -12.06827695934192" fill="#f6ff19" stroke="none" /><path d="M 82.24976979558568 111.22182372390057 l -16.820064937670384 10.63376652479452 a40.899537055200284,40.899537055200284 0 0,0 -0.37108609667744646,-0.5983089442295165 l 17.000615674015787 -10.34266124919974" fill="#ffee16" stroke="none" /><path d="M 82.05923443525364 110.91462005526583 l -49.06129656255481 29.84741144219815 a78.42716073600377,78.42716073600377 0 0,0 -0.6917242872855538,-1.1593696933972577 l 49.567801725538594 -28.99847965491478" fill="#46fff6" stroke="none" /><line stroke="#e1ed5e" stroke-width="0.3" x1="26.63291911575756" x2="22.317208475507996" y1="142.92168965132927" y2="145.44649492493687" /><path d="M 25.769776987707644 143.4266507060508 a86.0,86.0 0 0,1 -11.730757126820373,-40.83630448921669" fill="none" id="id45" stroke="none" /><text fill="#e1ed5e" style="font-size:6.75px; font-family:Arial;" text-anchor="middle"><textPath startOffset="21.46611528233685" xlink:href="#id45">September</textPath></text><path d="M 81.69416730710424 110.29060199501025 l -17.50383483624557 9.83975985731054 a41.07996782925969,41.07996782925969 0 0,0 -0.3412054994474126,-0.6193870913339344 l 17.6706167451445 -9.537002247578782" fill="#fff016" stroke="none" /><path d="M 81.51974371655577 109.97397251340807 l -16.575243400053377 8.945818691014894 a39.835242653693754,39.835242653693754 0 0,0 -0.32047925383783776,-0.6062259725010105 l 16.726775162116102 -8.659177703427758" fill="#ffe015" stroke="none" /><path d="M 81.35079622478065 109.6543875284942 l -14.567362865745801 7.541285304683284 a37.40362901643846,37.40362901643846 0 0,0 -0.2910738480327317,-0.5743163163517059 l 14.6950153835648 -7.2894147766288935" fill="#ffc111" stroke="none" /><path d="M 81.02952815118164 109.00673069616217 l -19.559182399738972 9.286236521446181 a42.65169288712778,42.65169288712778 0 0,0 -0.309174775817765,-0.6659349616321707 l 19.716131792396563 -8.948181492535184" fill="#faff18" stroke="none" /><path d="M 80.87730276802145 108.67885076344099 l -47.69908459774663 21.648266024120797 a73.38177252932638,73.38177252932638 0 0,0 -0.5121310943997162,-1.1547204192109761 l 48.06465677687763 -20.823997268417124" fill="#3fffc2" stroke="none" /><path d="M 80.58989483394504 108.01547362559985 l -26.266352247642136 10.846785830397533 a49.41784691435521,49.41784691435521 0 0,0 -0.31791532986466686,-0.7890397766776558 l 26.449170191764193 -10.393046685877072" fill="#a9ff21" stroke="none" /><path d="M 80.32549172779594 107.34259656027581 l -18.24359284064488 6.808573824843299 a40.47268233355565,40.47268233355565 0 0,0 -0.23797116001126586,-0.6547944278046256 l 18.358088261661372 -6.493531600032557" fill="#ffe915" stroke="none" /><path d="M 80.20201598880116 107.00284435728193 l -18.059126197794196 6.387784226925812 a40.15556906901016,40.15556906901016 0 0,0 -0.22488871958133727,-0.6536318871795611 l 18.166405748318763 -6.075979636656954" fill="#ffe415" stroke="none" /><path d="M 80.0844068197444 106.66101706037122 l -11.883254484674623 3.97450179558923 a33.53029934481541,33.53029934481541 0 0,0 -0.17836163155050763,-0.5489406570867179 l 11.94990836724138 -3.769362238524709" fill="#ff8d0d" stroke="none" /><path d="M 79.97269907076064 106.31721596034903 l -45.133438630282626 14.23645052661041 a68.32550904311663,68.32550904311663 0 0,0 -0.3441433148405725,-1.1246802648979315 l 45.37180871762933 -13.45744328916043" fill="#39ff8a" stroke="none" /><path d="M 79.76711848015287 105.62410040840567 l -17.06963333998166 4.744817575517109 a38.7168190199694,38.7168190199694 0 0,0 -0.17295710810431844,-0.6436377408796696 l 17.14877852442775 -4.4502889014619" fill="#ffd213" stroke="none" /><path d="M 79.58551787078972 104.9243191809786 l -19.635193372816484 4.73634152147481 a41.198360076895916,41.198360076895916 0 0,0 -0.16035860177498487,-0.6908206594721074 l 19.713812540522024 -4.397652204654128" fill="#fff216" stroke="none" /><path d="M 79.50377843672027 104.57218783832718 l -11.839866856201924 2.6411743784192936 a33.13087998744557,33.13087998744557 0 0,0 -0.11937523248358367,-0.5576813441020757 l 11.883576127409949 -2.436979214901054" fill="#ff870c" stroke="none" /><path d="M 79.35854240842038 103.8639653848113 l -51.96482292225184 9.727524139639202 a73.86745262662325,73.86745262662325 0 0,0 -0.22319774592860403,-1.251811491472278 l 52.12456711051963 -8.831593897433711" fill="#40ffc7" stroke="none" /><path d="M 79.23777060512086 103.15116336523772 l -15.589144282046218 2.366024352332088 a36.767672329240064,36.767672329240064 0 0,0 -0.08958346888744292,-0.6265465727504518 l 15.62756180195026 -2.0973323076012353" fill="#ffb811" stroke="none" /><path d="M 79.1416061653843 102.43462659150553 l -20.50651226417807 2.3935543864622835 a41.64572953038566,41.64572953038566 0 0,0 -0.07698054155615479,-0.7127442081434359 l 20.54467510723528 -2.0402138564340655" fill="#fff717" stroke="none" /><path d="M 79.07016306316243 101.71520430193888 l -30.802801250610585 2.5242956921382738 a51.90606143826749,51.90606143826749 0 0,0 -0.06531127473235554,-0.8911204536735724 l 30.841689084007275 -1.9937021019679406" fill="#8dff24" stroke="none" /><path d="M 79.04373962182676 101.35467743843564 l -20.807447826545104 1.3450577351771038 a41.85087684883675,41.85087684883675 0 0,0 -0.04028375903197676,-0.7192935786146484 l 20.82751793646461 -0.9866924402270177" fill="#fffa17" stroke="none" /><path d="M 79.0095281055655 100.63252640178507 l -19.99723527660417 0.6025962321749309 a41.00631252697242,41.00631252697242 0 0,0 -0.015187834683513573,-0.7057189982924119 l 20.00464517397269 -0.2582874180923901" fill="#ffef16" stroke="none" /><line stroke="#e1ed5e" stroke-width="0.3" x1="15.007084014347285" x2="10.007500721073583" y1="101.09737516637583" y2="101.16192664675087" /><path d="M 14.007167355692545 101.11028546245083 a86.0,86.0 0 0,1 10.666146001902534,-42.60595125391555" fill="none" id="id46" stroke="none" /><text fill="#e1ed5e" style="font-size:6.75px; font-family:Arial;" text-anchor="middle"><textPath startOffset="22.20632615414155" xlink:href="#id46">October</textPath></text><path d="M 79.00019446554 99.90962569577889 l -17.026822591667948 -0.0732762616441063 a38.026980265997096,38.026980265997096 0 0,0 0.008451030773151411,-0.6545416467432333 l 17.02303855377708 0.36635416644781155" fill="#ffc912" stroke="none" /><path d="M 79.00486145842228 99.54816195383935 l -20.95650728897463 -0.4510066599012842 a41.96135980226765,41.96135980226765 0 0,0 0.02175657650398587,-0.7219948548190541 l 20.945639018015 0.8116716621453327" fill="#fffb17" stroke="none" /><path d="M 79.03285615573316 98.82574320788736 l -26.615086471860565 -1.4905676373653192 a47.6567931264467,47.6567931264467 0 0,0 0.05292039287303245,-0.818655054625477 l 26.58548548798312 1.948481756243808" fill="#beff1f" stroke="none" /><path d="M 79.05617556472873 98.46500227214037 l -23.7457563009496 -1.740354636800798 a44.809447212523054,44.809447212523054 0 0,0 0.06300105041489243,-0.7687723908707031 l 23.712280766715214 2.1488409448792796" fill="#e0ff1b" stroke="none" /><path d="M 79.12142395522702 97.74499172005258 l -19.72525362839572 -2.1304427160506076 a40.839970183216295,40.839970183216295 0 0,0 0.08150422541535948,-0.6982784295671312 l 19.685659049976774 2.4696648839426003" fill="#ffed16" stroke="none" /><path d="M 79.21141760316559 97.0276538004421 l -12.887387776181873 -1.8426354114745307 a34.01845109655146,34.01845109655146 0 0,0 0.08787145172910589,-0.5789630769977953 l 12.853760431013464 2.0641976008644183" fill="#ff940d" stroke="none" /><path d="M 79.26566170972629 96.67025291283419 l -26.97798614280488 -4.3324204283260155 a48.32364549413472,48.32364549413472 0 0,0 0.1389607140927361,-0.8201540006903533 l 26.89941356719192 4.796160217332197" fill="#b6ff1f" stroke="none" /><path d="M 79.32604984820605 96.31383870115002 l -30.977832632210774 -5.523341544924782 a52.46638549962729,52.46638549962729 0 0,0 0.16617922145589728,-0.8877360459198747 l 30.878167686845018 6.0557556683072296" fill="#87ff25" stroke="none" /><path d="M 79.46518482838121 95.60439243477599 l -19.527611047190312 -4.180009127543322 a40.96997920671663,40.96997920671663 0 0,0 0.15355082514182888,-0.6883382408197082 l 19.452765835046446 4.515525537912989" fill="#ffef16" stroke="none" /><line stroke="#e1ed5e" stroke-width="0.3" x1="26.266209847984243" x2="21.928928074336255" y1="57.711370442889674" y2="55.22380399835377" /><path d="M 25.398753493254645 57.213857153982495 a86.0,86.0 0 0,1 29.58750427330803,-30.492523968695096" fill="none" id="id47" stroke="none" /><text fill="#e1ed5e" style="font-size:6.75px; font-family:Arial;" text-anchor="middle"><textPath startOffset="21.46611528233685" xlink:href="#id47">November</textPath></text><line stroke="#e1ed5e" stroke-width="0.3" x1="56.762969772571076" x2="54.21961505331055" y1="26.818313649435495" y2="22.513508569990535" /><path d="M 56.25429882871897 25.957352633546506 a86.0,86.0 0 0,1 42.265352541879196,-11.944610805530505" fill="none" id="id48" stroke="none" /><text fill="#e1ed5e" style="font-size:6.75px; font-family:Arial;" text-anchor="middle"><textPath startOffset="22.20632615414155" xlink:href="#id48">December</textPath></text></svg>