<?xml version="1.0" encoding="utf-8" ?>
<svg baseProfile="full" height="200mm" version="1.1" viewBox="0,0,200,200" width="200mm" xmlns="http://www.w3.org/2000/svg" xmlns:ev="http://www.w3.org/2001/xml-events" xmlns:xlink="http://www.w3.org/1999/xlink"><defs /><rect fill="#1a1a1a" height="200" width="200" x="0" y="0" /><text alignment-baseline="middle" fill="#e1ed5e" style="dominant-baseline: central; font-size:9.0px; font-family:Arial;" text-anchor="middle" x="100.0" y="100.0">2026</text><line stroke="#e1ed5e" stroke-width="0.3" x1="100.0" x2="100.0" y1="15.0" y2="10.0" /><path d="M 100.0 14.0 a86.0,86.0 0 0,1 42.46469731375804,11.215312516191453" fill="none" id="id49" stroke="none" /><text fill="#e1ed5e" style="font-size:6.75px; font-family:Arial;" text-anchor="middle"><textPath startOffset="22.20632615414155" xlink:href="#id49">January</textPath></text><path d="M 100.0 79.0 l 0.0 -29.38560267857143 a50.38560267857143,50.38560267857143 0 0,0 0.8673053240326281,0.007465170742011821 l -0.5058248447600997 29.381248884437976" fill="red" stroke="none" /><path d="M 100.72285384407766 79.0124445844662 l 1.8513506301687044 -53.75266973066639 a74.7845424107143,74.7845424107143 0 0,0 1.2861487184380147,0.05538426930163731 l -2.776340180996051 53.712837734840555" fill="red" stroke="none" /><path d="M 101.44485096284872 79.0497635885617 l 1.8608100095750864 -26.98161306582503 a48.045703125,48.045703125 0 0,0 0.824578226915925,0.06400314037584504 l -2.3249784258533523 26.94558466326072" fill="red" stroke="none" /><path d="M 102.16513564639614 79.11191278185805 l 3.0183654806459725 -29.119598820935398 a50.27561383928572,50.27561383928572 0 0,0 0.8600321186932708,0.09663462934776353 l -3.5191643028489685 29.063328238117034" fill="red" stroke="none" /><path d="M 102.88285421437855 79.19881850522331 l 5.18610397015837 -37.42023769221385 a58.777901785714285,58.777901785714285 0 0,0 1.0009905211375874,0.14751998255009408 l -5.829463471724613 37.32542322550279" fill="red" stroke="none" /><path d="M 103.59715602781102 79.31037775812273 l 10.329148651988817 -59.40976205580126 a81.30100446428571,81.30100446428571 0 0,0 1.3767158974635636,0.25158603051490785 l -11.35025967055528 59.22316054393561" fill="red" stroke="none" /><path d="M 104.66035177308747 79.52364482259891 l 5.845873337813409 -25.685223909152274 a47.34207589285714,47.34207589285714 0 0,0 0.7930390909109372,0.1876867307532187 l -6.28713611568687 25.580791266258185" fill="red" stroke="none" /><path d="M 105.71112130821622 79.79150937346287 l 11.641099122559627 -41.191393039121465 a63.80474330357143,63.80474330357143 0 0,0 1.0543271467611877,0.307787005693569 l -12.348416487044242 40.9849077045092" fill="red" stroke="none" /><path d="M 108.76106565485865 80.91482961587045 l 16.92777011135277 -36.87557992666998 a61.57533482142857,61.57533482142857 0 0,0 0.9594662476235242,0.4504822682970386 l -17.560014570275893 36.57873267573294" fill="red" stroke="none" /><path d="M 109.41281617654863 81.2277094730956 l 11.986032792669517 -23.904141505448756 a47.740848214285705,47.740848214285705 0 0,0 0.7314341536458815,0.3746689825540783 l -12.395727433904154 23.69427999758218" fill="red" stroke="none" /><path d="M 110.05341064243156 81.56283822128135 l 19.83737320944973 -36.38017704994327 a62.43716517857143,62.43716517857143 0 0,0 0.9391617345971934,0.5226424884945028 l -20.460659033118958 36.033319163888585" fill="red" stroke="none" /><path d="M 110.36928655335952 81.73862282372117 l 20.498353505921347 -36.09970299673602 a62.51350446428571,62.51350446428571 0 0,0 0.9311632600700884,0.5393898626622452 l -21.11671349845676 35.741508976683726" fill="red" stroke="none" /><line stroke="#e1ed5e" stroke-width="0.3" x1="143.23703022742887" x2="145.7803849466894" y1="26.81831364943548" y2="22.513508569990506" /><path d="M 143.74570117128098 25.957352633546492 a86.0,86.0 0 0,1 28.547481713284135,27.462654790039103" fill="none" id="id50" stroke="none" /><text fill="#e1ed5e" style="font-size:6.75px; font-family:Arial;" text-anchor="middle"><textPath startOffset="19.985693538727396" xlink:href="#id50">February</textPath></text><path d="M 110.68208982089419 81.91981866633111 l 13.729006066044022 -23.237299383084324 a47.98995535714286,47.98995535714286 0 0,0 0.7075957437663587,0.4263185182764154 l -14.126963876028018 22.997534255349294" fill="red" stroke="none" /><path d="M 110.99172775467656 82.1063720568725 l 14.116448830344332 -22.980416626577163 a47.96986607142857,47.96986607142857 0 0,0 0.6998594394072998,0.4382519167516228 l -14.509927422123894 22.734020368502595" fill="red" stroke="none" /><path d="M 111.60114157652 82.49532879139004 l 16.04220358628158 -24.20567815565597 a50.0390625,50.0390625 0 0,0 0.713879439109412,0.48201458397582514 l -16.456487719797533 23.925951659381475" fill="red" stroke="none" /><path d="M 111.90073688211348 82.69761687909136 l 32.12515880160822 -46.706503211651786 a77.68794642857144,77.68794642857144 0 0,0 1.0952848460568343,0.7673170297061472 l -32.92437478724871 46.1466013391817" fill="red" stroke="none" /><path d="M 112.19680574252982 82.90503203632743 l 17.125505384500777 -24.003003088661117 a50.48604910714286,50.48604910714286 0 0,0 0.7030895961988836,0.5108244926366021 l -17.53614029705345 23.704659361207842" fill="red" stroke="none" /><path d="M 112.48926042617603 83.11751280151076 l 23.874360312442207 -32.27241394551768 a61.14341517857143,61.14341517857143 0 0,0 0.8407331573885984,0.6332227839188407 l -24.42633962358919 31.856674572092984" fill="red" stroke="none" /><path d="M 112.77801427241765 83.33499621200491 l 27.693167730384733 -36.11725071591475 a66.51227678571428,66.51227678571428 0 0,0 0.902563503150178,0.7044651304337776 l -28.31076378869434 35.635207196257745" fill="red" stroke="none" /><path d="M 113.34407831869373 83.78471172551755 l 17.14677895372517 -20.83620592393975 a47.98443080357143,47.98443080357143 0 0,0 0.6332630162150754,0.5303395644107282 l -17.502899506899364 20.537965202135204" fill="red" stroke="none" /><path d="M 113.6212207817346 84.01681056812373 l 26.17632911421004 -30.71539868325061 a61.35636160714285,61.35636160714285 0 0,0 0.7979429927324906,0.6919683002367956 l -26.7011659055893 30.260265389594142" fill="red" stroke="none" /><path d="M 114.16331599549186 84.49514656593476 l 17.999966804857394 -19.70490859740657 a47.68861607142857,47.68861607142857 0 0,0 0.6013128365927929,0.5588547481726555 l -18.336487525245033 19.392149263159272" fill="red" stroke="none" /><path d="M 114.42810811169701 84.74124197986012 l 42.55969836965981 -45.00993018664029 a82.9453125,82.9453125 0 0,0 1.0289830366692543,0.9898808660136311 l -43.328164649941485 44.270666233864354" fill="red" stroke="none" /><path d="M 114.68862486808459 84.99185889309783 l 28.243752536527445 -28.858128467672238 a61.379464285714285,61.379464285714285 0 0,0 0.7487248264242097,0.7455095640755778 l -28.73631316311898 28.367683052946543" fill="red" stroke="none" /><path d="M 114.94478906791727 85.2469230424477 l 22.531556987599757 -22.242521637534203 a52.660714285714285,52.660714285714285 0 0,0 0.6312658897444995,0.6505749892199939 l -22.911087141047364 21.851382452764096" fill="red" stroke="none" /><path d="M 115.4437574822437 85.77008943001954 l 19.844440417872836 -18.2847090665795 a47.98392857142858,47.98392857142858 0 0,0 0.5544574007658595,0.6122457103129209 l -20.15624145925473 17.940410568997027" fill="red" stroke="none" /><path d="M 115.68641384162765 86.03803664274999 l 26.30200433123043 -23.41055287731502 a56.211495535714285,56.211495535714285 0 0,0 0.6370853951408315,0.7282987379921574 l -26.701081589949112 22.954338583119913" fill="red" stroke="none" /><path d="M 115.9244219780498 86.31012108654704 l 22.062382777146656 -18.966550194268102 a50.094308035714285,50.094308035714285 0 0,0 0.5564985899732933,0.6587188018373918 l -22.385591980607067 18.583972442801603" fill="red" stroke="none" /><path d="M 116.15771136456269 86.58626213691792 l 33.908781223861034 -28.15024308399517 a65.07087053571428,65.07087053571428 0 0,0 0.70803771615769,0.8679705206873984 l -34.388317432095135 27.562388393699674" fill="red" stroke="none" /><path d="M 116.60985879189232 87.15038557335679 l 26.09061365078494 -20.184056334708053 a53.986607142857146,53.986607142857146 0 0,0 0.5622938041815041,0.7399127349640011 l -26.434183395190562 19.73195882386302" fill="red" stroke="none" /><path d="M 116.82858285166822 87.43820079747576 l 45.23513411265297 -33.76604415422137 a77.4478794642857,77.4478794642857 0 0,0 0.7882622582407615,1.0751888343734552 l -45.80965898340736 32.98239287617642" fill="red" stroke="none" /><path d="M 117.2510076193507 88.02491185347247 l 21.64352343059162 -15.024229691489978 a47.347098214285715,47.347098214285715 0 0,0 0.45898622942896067,0.6735056557610304 l -21.898934125689316 14.64944601245854" fill="red" stroke="none" /><path d="M 117.45458315368197 88.32363383020206 l 35.49497462270992 -23.744612932507618 a63.704799107142854,63.704799107142854 0 0,0 0.6018688803192668,0.9166875965766559 l -35.89844013838711 23.13010727195329" fill="red" stroke="none" /><line stroke="#e1ed5e" stroke-width="0.3" x1="172.23445277983987" x2="176.4835382374775" y1="55.19839476539836" y2="52.563006222186495" /><path d="M 173.08426987136738 54.67131705675599 a86.0,86.0 0 0,1 12.851231095245387,41.99856678651699" fill="none" id="id51" stroke="none" /><text fill="#e1ed5e" style="font-size:6.75px; font-family:Arial;" text-anchor="middle"><textPath startOffset="22.20632615414155" xlink:href="#id51">March</textPath></text><path d="M 117.84615892207809 88.93136811851018 l 53.538476766234254 -33.20589564446945 a84.0,84.0 0 0,0 0.7515368068551043,1.2353289071716742 l -54.10212937137558 32.279398964090696" fill="red" stroke="none" /><line stroke="#e1ed5e" stroke-width="0.3" x1="184.98032266829074" x2="189.97916517819016" y1="98.17113171792111" y2="98.06355123074" /><path d="M 185.9800911702706 98.14961562048488 a86.0,86.0 0 0,1 -9.607161424134198,41.387399972396054" fill="none" id="id52" stroke="none" /><text fill="#e1ed5e" style="font-size:6.75px; font-family:Arial;" text-anchor="middle"><textPath startOffset="21.466115282336823" xlink:href="#id52">April</textPath></text><line stroke="#e1ed5e" stroke-width="0.3" x1="174.80103733775053" x2="179.2010983576182" y1="140.37084112569926" y2="142.7455964860345" /><path d="M 175.68104954172406 140.8457921977663 a86.0,86.0 0 0,1 -30.038265399797805,32.042727171017184" fill="none" id="id53" stroke="none" /><text fill="#e1ed5e" style="font-size:6.75px; font-family:Arial;" text-anchor="middle"><textPath startOffset="22.206326154141568" xlink:href="#id53">May</textPath></text><line stroke="#e1ed5e" stroke-width="0.3" x1="143.8653032363475" x2="146.44561519142675" y1="172.8068346515853" y2="177.08958963109032" /><path d="M 144.38136562736335 173.6633856474863 a86.0,86.0 0 0,1 -40.68145358897372,12.25698825130547" fill="none" id="id54" stroke="none" /><text fill="#e1ed5e" style="font-size:6.75px; font-family:Arial;" text-anchor="middle"><textPath startOffset="21.466115282336833" xlink:href="#id54">June</textPath></text><line stroke="#e1ed5e" stroke-width="0.3" x1="102.19456741930631" x2="102.32365962044197" y1="184.97166512339345" y2="189.96999836594603" /><path d="M 102.22038585953345 185.97133177190398 a86.0,86.0 0 0,1 -42.740103519485714,-10.115201625700543" fill="none" id="id55" stroke="none" /><text fill="#e1ed5e" style="font-size:6.75px; font-family:Arial;" text-anchor="middle"><textPath startOffset="22.20632615414155" xlink:href="#id55">July</textPath></text><line stroke="#e1ed5e" stroke-width="0.3" x1="58.666819895761336" x2="56.23545636021788" y1="174.27360380694188" y2="178.64263932499728" /><path d="M 58.180547188652646 175.14741091055294 a86.0,86.0 0 0,1 -31.652253787137756,-30.449443065178592" fill="none" id="id56" stroke="none" /><text fill="#e1ed5e" style="font-size:6.75px; font-family:Arial;" text-anchor="middle"><textPath startOffset="22.20632615414155" xlink:href="#id56">August</textPath></text><line stroke="#e1ed5e" stroke-width="0.3" x1="26.63291911575756" x2="22.317208475507996" y1="142.92168965132927" y2="145.44649492493687" /><path d="M 25.769776987707644 143.4266507060508 a86.0,86.0 0 0,1 -11.730757126820373,-40.83630448921669" fill="none" id="id57" stroke="none" /><text fill="#e1ed5e" style="font-size:6.75px; font-family:Arial;" text-anchor="middle"><textPath startOffset="21.46611528233685" xlink:href="#id57">September</textPath></text><line stroke="#e1ed5e" stroke-width="0.3" x1="15.007084014347285" x2="10.007500721073583" y1="101.09737516637583" y2="101.16192664675087" /><path d="M 14.007167355692545 101.11028546245083 a86.0,86.0 0 0,1 10.666146001902534,-42.60595125391555" fill="none" id="id58" stroke="none" /><text fill="#e1ed5e" style="font-size:6.75px; font-family:Arial;" text-anchor="middle"><textPath startOffset="22.20632615414155" xlink:href="#id58">October</textPath></text><line stroke="#e1ed5e" stroke-width="0.3" x1="26.266209847984243" x2="21.928928074336255" y1="57.711370442889674" y2="55.22380399835377" /><path d="M 25.398753493254645 57.213857153982495 a86.0,86.0 0 0,1 29.58750427330803,-30.492523968695096" fill="none" id="id59" stroke="none" /><text fill="#e1ed5e" style="font-size:6.75px; font-family:Arial;" text-anchor="middle"><textPath startOffset="21.46611528233685" xlink:href="#id59">November</textPath></text><line stroke="#e1ed5e" stroke-width="0.3" x1="56.762969772571076" x2="54.21961505331055" y1="26.818313649435495" y2="22.513508569990535" /><path d="M 56.25429882871897 25.957352633546506 a86.0,86.0 0 0,1 42.265352541879196,-11.944610805530505" fill="none" id="id60" stroke="none" /><text fill="#e1ed5e" style="font-size:6.75px; font-family:Arial;" text-anchor="middle"><textPath startOffset="22.20632615414155" xlink:href="#id60">December</textPath></text></svg>