<?xml version="1.0" encoding="utf-8" ?>
<svg baseProfile="full" height="200mm" version="1.1" viewBox="0,0,200,200" width="200mm" xmlns="http://www.w3.org/2000/svg" xmlns:ev="http://www.w3.org/2001/xml-events" xmlns:xlink="http://www.w3.org/1999/xlink"><defs /><rect fill="#1a1a1a" height="200" width="200" x="0" y="0" /><text alignment-baseline="middle" fill="#e1ed5e" style="dominant-baseline: central; font-size:9.0px; font-family:Arial;" text-anchor="middle" x="100.0" y="100.0">2024</text><line stroke="#e1ed5e" stroke-width="0.3" x1="100.0" x2="100.0" y1="15.0" y2="10.0" /><path d="M 100.0 14.0 a86.0,86.0 0 0,1 42.35913384403234,11.155469271406648" fill="none" id="id25" stroke="none" /><text fill="#e1ed5e" style="font-size:6.75px; font-family:Arial;" text-anchor="middle"><textPath startOffset="22.145653131862478" xlink:href="#id25">January</textPath></text><path d="M 100.0 79.0 l 0.0 -17.433523792316905 a38.433523792316905,38.433523792316905 0 0,0 0.6597625430543034,0.005663267934700791 l -0.29926961820544856 17.43095492257664" fill="#ff810b" stroke="none" /><path d="M 100.72087961077811 79.0123766808444 l 0.6316142049221455 -18.38875842476029 a39.39960252038212,39.39960252038212 0 0,0 0.6757486604956192,0.02901955504921285 l -0.947188626018601 18.375206301285246" fill="#ff900d" stroke="none" /><path d="M 101.44090949804482 79.04949213459386 l 1.5886678861480308 -23.09888239991828 a44.15344971656994,44.15344971656994 0 0,0 0.7557199436079959,0.05849750314221863 l -1.9849568245312603 23.06820712978101" fill="#ffd714" stroke="none" /><path d="M 101.80034050326958 79.07731436759882 l 1.8835695059614406 -21.889932803509957 a42.97082138259672,42.97082138259672 0 0,0 0.7343926931389801,0.0695477515854656 l -2.259061762485434 21.854373296419308" fill="#ffc512" stroke="none" /><path d="M 102.15924093988457 79.11130261209362 l 3.756871498855779 -36.34432379234338 a57.53797962916959,57.53797962916959 0 0,0 0.981609161693151,0.10999135400849601 l -4.380216562149727 36.27447667782791" fill="#74ff27" stroke="none" /><path d="M 102.87502721639298 79.19773525538626 l 2.31000797844606 -16.714067002848374 a37.872942026694375,37.872942026694375 0 0,0 0.6432536951284571,0.09453614152633182 l -2.5965867791821986 16.67194978802316" fill="#ff780b" stroke="none" /><path d="M 103.23170211078529 79.25015418208739 l 3.9515676059206344 -25.37189869334422 a46.677775017502654,46.677775017502654 0 0,0 0.7906826038644309,0.130106521575874 l -4.386527712838135 25.300326173272676" fill="#fffb17" stroke="none" /><path d="M 103.58742460773223 79.30868818359171 l 2.6655944582984716 -15.37444048130376 a36.603807674066715,36.603807674066715 0 0,0 0.6181952000842313,0.11265575862095295 l -2.929124391933757 15.32641654875144" fill="#ff6409" stroke="none" /><path d="M 103.94208987418118 79.37332000966035 l 2.789171699185212 -14.594124921912218 a35.85826238171594,35.85826238171594 0 0,0 0.6036200845090316,0.12074092226822074 l -3.0392882692252003 14.544094602981138" fill="#ff5808" stroke="none" /><path d="M 104.64783097203109 79.52079915486377 l 8.195293550923164 -36.1099755185079 a58.02827525463538,58.02827525463538 0 0,0 0.9695359981325259,0.22880785564961909 l -8.813961702795575 35.96397151921206" fill="#6eff28" stroke="none" /><path d="M 104.9986988182912 79.60360301121754 l 4.187216019545952 -17.08527025071778 a38.590885069671856,38.590885069671856 0 0,0 0.6420690939566905,0.1632114528921303 l -4.479890406728036 17.010873565990384" fill="#ff830c" stroke="none" /><path d="M 105.3480935250658 79.69241777938227 l 3.99630457923287 -15.174619411765823 a36.692021048352494,36.692021048352494 0 0,0 0.6077222551387014,0.16563740305888358 l -4.256208235306264 15.103781514562797" fill="#ff6509" stroke="none" /><path d="M 105.69591212413111 79.78721728523813 l 4.006601245860613 -14.218014365807768 a35.7717563630615,35.7717563630615 0 0,0 0.5896207287903985,0.17163000092631167 l -4.250081987032616 14.14714067057894" fill="#ff5708" stroke="none" /><path d="M 106.38641147887787 79.99465700312896 l 7.08864414466438 -22.205076820651286 a44.30910363829355,44.30910363829355 0 0,0 0.7226124053012015,0.23753705052863916 l -7.468779287613325 22.080118848720623" fill="#ffd914" stroke="none" /><path d="M 107.06938296918511 80.22567764915836 l 5.345742901990225 -14.952994314985224 a36.87983016779963,36.87983016779963 0 0,0 0.5943111720922323,0.21823929445976123 l -5.6016432257365825 14.85902417151674" fill="#ff6809" stroke="none" /><path d="M 107.40779381753099 80.34994680014964 l 5.465429089775209 -14.497699992666316 a36.49368323584544,36.49368323584544 0 0,0 0.5842946927460121,0.2260177392337646 l -5.713496045014747 14.401742365294513" fill="#ff6209" stroke="none" /><path d="M 107.74402155503746 80.48000691201159 l 6.319180352460842 -15.928462482332414 a38.136159353192255,38.136159353192255 0 0,0 0.6064476325394781,0.24663697263267959 l -6.5916824461907595 15.817638253120439" fill="#ff7c0b" stroke="none" /><path d="M 108.4095320186766 80.7573450057729 l 9.76120299988487 -22.335542719648046 a45.37534723006391,45.37534723006391 0 0,0 0.7110675530564702,0.3180514720680198 l -10.143183955796973 22.164687496670176" fill="#ffe815" stroke="none" /><path d="M 109.06512990194946 81.05736502329252 l 27.0420897381305 -56.50756695793341 a83.64487002868177,83.64487002868177 0 0,0 1.2898825647902428,0.6309461992785153 l -28.00813255218281 56.03502700855768" fill="#4cd6ff" stroke="none" /><path d="M 109.71004243097381 81.37971332152246 l 7.935836389915145 -15.21801265691223 a38.16290792474988,38.16290792474988 0 0,0 0.5782792439887215,0.30790112571604183 l -8.195904449690426 15.079541063473615" fill="#ff7c0b" stroke="none" /><path d="M 110.34350942703115 81.72400993836675 l 9.7916562535083 -17.300918381568163 a40.87959529347998,40.87959529347998 0 0,0 0.607757979116338,0.35088923284496076 l -10.087206700485035 17.13028225144703" fill="#ffa60f" stroke="none" /><line stroke="#e1ed5e" stroke-width="0.3" x1="143.13028292997686" x2="145.6673583964461" y1="26.7553504044142" y2="22.446841604673864" /><path d="M 143.63769802327073 25.89364864446614 a86.0,86.0 0 0,1 29.32050498858742,28.57503671076993" fill="none" id="id26" stroke="none" /><text fill="#e1ed5e" style="font-size:6.75px; font-family:Arial;" text-anchor="middle"><textPath startOffset="20.669276256404974" xlink:href="#id26">February</textPath></text><path d="M 110.65571695917076 81.90426304109057 l 14.390163241060675 -24.43764317349758 a49.359746155062226,49.359746155062226 0 0,0 0.7264514610080889,0.4362132296895453 l -14.807547458626198 24.187015943272115" fill="#deff1b" stroke="none" /><path d="M 110.96478420261332 82.08984904055464 l 8.68124451104804 -14.18016048794371 a37.62651369723797,37.62651369723797 0 0,0 0.5479779808190756,0.3419787883073335 l -8.92338662065683 14.02904590279483" fill="#ff740a" stroke="none" /><path d="M 111.27062007382361 82.28071324371311 l 26.592697039515834 -41.808136675694435 a70.54888321777818,70.54888321777818 0 0,0 1.0162881334095426,0.6587456896311762 l -27.306470805182382 41.345477144359364" fill="#3aff8f" stroke="none" /><path d="M 111.5731344415666 82.4767994020092 l 8.731797814400892 -13.221054801998159 a36.844260258813435,36.844260258813435 0 0,0 0.5247740478919642,0.35309139934335937 l -8.957468150389856 13.069213728597681" fill="#ff6809" stroke="none" /><path d="M 112.16784306229584 82.88440491214696 l 12.99350536869332 -18.27699252232453 a43.42497798053253,43.42497798053253 0 0,0 0.6038532473527525,0.43714318324884727 l -13.305339626420041 18.051248567702608" fill="#ffcc13" stroke="none" /><path d="M 112.45986205192187 83.09580414077388 l 9.334977386807656 -12.664689659521832 a36.73328214277649,36.73328214277649 0 0,0 0.5043777196841486,0.3784944438971128 l -9.551008095402572 12.502576188360704" fill="#ff6609" stroke="none" /><path d="M 112.7482090630111 83.31218511350987 l 15.642820366778434 -20.476954001392713 a46.768264865963545,46.768264865963545 0 0,0 0.6337991946437609,0.4928460872551451 l -15.99202950605742 20.205406862516778" fill="#fffc17" stroke="none" /><path d="M 113.31354834802062 83.75963576809568 l 39.94064504406186 -48.72109269571298 a84.0,84.0 0 0,0 1.1073026633524292,0.9237512643525192 l -40.77112204157618 48.028279247448594" fill="#4dd2ff" stroke="none" /><path d="M 113.86319453409587 84.22622945171908 l 10.741024915700896 -12.221314651319219 a37.270530048104064,37.270530048104064 0 0,0 0.4769473758455153,0.4264892844845215 l -10.949237318369788 12.03512983695131" fill="#ff6e0a" stroke="none" /><path d="M 114.39649973595853 84.71141617570332 l 15.775057492015893 -16.752564388785895 a44.01088552135324,44.01088552135324 0 0,0 0.5455830677447722,0.5226562373112034 l -16.06031304562598 16.47929602116911" fill="#ffd513" stroke="none" /><path d="M 114.65682725009322 84.96080404539774 l 12.081232208810095 -12.396408544706821 a38.30974050904492,38.30974050904492 0 0,0 0.46702871943047536,0.4630370449594521 l -12.292252848370532 12.187191489518709" fill="#ff7f0b" stroke="none" /><path d="M 114.91283532996326 85.21462403516908 l 12.492307596354864 -12.385536378136555 a38.591454188215636,38.591454188215636 0 0,0 0.4623866303113732,0.47444941673831315 l -12.70308102781705 12.169264269330501" fill="#ff830c" stroke="none" /><path d="M 116.1254893667686 86.54754324733833 l 10.898061593544352 -9.091550584326672 a35.19239368549425,35.19239368549425 0 0,0 0.3830158816869595,0.4672170981468611 l -11.052524294469938 8.903131204481316" fill="#ff4d07" stroke="none" /><path d="M 116.7966241395341 87.39550010848427 l 13.540023533425106 -10.160686084323551 a37.92843108471284,37.92843108471284 0 0,0 0.38632451473210105,0.524123400005426 l -13.712450067741033 9.92675637504925" fill="#ff790b" stroke="none" /><path d="M 117.21940702142032 87.97951657250589 l 13.402507816035364 -9.355991346804513 a37.34508457733914,37.34508457733914 0 0,0 0.36244340554102084,0.5288157604367568 l -13.561140958391709 9.124540851297708" fill="#ff700a" stroke="none" /><path d="M 117.62189284568427 88.57770195909679 l 15.400401712989094 -9.982354327984638 a39.35265024052033,39.35265024052033 0 0,0 0.36257340996070725,0.5700256223009218 l -15.56949281457569 9.716515031005045" fill="#ff8f0d" stroke="none" /><line stroke="#e1ed5e" stroke-width="0.3" x1="172.87174338648825" x2="177.1583165268699" y1="56.24261187166439" y2="53.66864786411523" /><path d="M 173.72905801456457 55.72781907015455 a86.0,86.0 0 0,1 12.242430191666344,42.057860355516425" fill="none" id="id27" stroke="none" /><text fill="#e1ed5e" style="font-size:6.75px; font-family:Arial;" text-anchor="middle"><textPath startOffset="22.145653131862474" xlink:href="#id27">March</textPath></text><path d="M 118.00360718960297 89.18935116829356 l 14.066062693441072 -8.446266496603767 a37.407118498611084,37.407118498611084 0 0,0 0.3258450191279552,0.5533560790046679 l -14.208981422698796 8.203559249305544" fill="#ff710a" stroke="none" /><path d="M 118.18653347947321 89.5 l 27.810252758534094 -16.056256916371197 a53.11251383274239,53.11251383274239 0 0,0 0.4490957312636041,0.793509125620946 l -28.081781854819077 15.576491020651133" fill="#acff21" stroke="none" /><path d="M 118.70294669586156 90.45014215332178 l 17.121692574254755 -8.742458225304105 a40.2245398495901,40.2245398495901 0 0,0 0.3087330868559465,0.6176729858078368 l -17.26924557432244 8.447253383332518" fill="#ff9c0e" stroke="none" /><path d="M 118.8641267826498 90.77261029715802 l 18.47473651007496 -9.036919407930219 a41.566521375821495,41.566521375821495 0 0,0 0.3080291857395486,0.6436625278124183 l -18.62714495377442 8.718444378052697" fill="#ffb010" stroke="none" /><path d="M 119.0197475246899 91.09779779509293 l 16.783373317672 -7.855466154869174 a39.53078434472323,39.53078434472323 0 0,0 0.2823919889606291,0.6170774595188357 l -16.91574977148768 7.566199713135655" fill="#ff920d" stroke="none" /><path d="M 119.31412917781788 91.75594674310238 l 17.655292409524975 -7.535994481044911 a40.19636848167303,40.19636848167303 0 0,0 0.2654379738998253,0.6369545080580975 l -17.782056227961284 7.231807463545536" fill="#ff9c0e" stroke="none" /><path d="M 119.4528033332814 92.08871423366111 l 19.842043915798783 -8.069586522656246 a42.420199191490326,42.420199191490326 0 0,0 0.26854273755798386,0.6769031237460166 l -19.977645328322893 7.727782381696664" fill="#ffbd11" stroke="none" /><path d="M 119.71291397450082 92.76114493625339 l 22.257664675244904 -8.173322769529841 a44.71090133020168,44.71090133020168 0 0,0 0.2583860658388242,0.7227518128716875 l -22.39469091112767 7.790036000277237" fill="#ffdf14" stroke="none" /><path d="M 119.83427380445688 93.10060997987247 l 14.824170016022427 -5.156615849592456 a36.695435759615165,36.695435759615165 0 0,0 0.20185037104715756,0.5967347555404547 l -14.910505808641949 4.90137941957784" fill="#ff6509" stroke="none" /><path d="M 119.94978838288452 93.4421083053983 l 14.795075564424717 -4.863435205567657 a36.57392895051831,36.57392895051831 0 0,0 0.19094252836345127,0.598124750532336 l -14.876382808565426 4.608741421343934" fill="#ff6309" stroke="none" /><path d="M 120.16314734710363 94.1308016681162 l 28.659364587833092 -8.342323345463328 a50.84884482486054,50.84884482486054 0 0,0 0.23676555824954518,0.8401974396624707 l -28.798348638157222 7.849117981897844" fill="#caff1d" stroke="none" /><path d="M 120.35273937422433 94.82641323984039 l 14.09803768022277 -3.583666048365128 a35.54638541972493,35.54638541972493 0 0,0 0.14525348839389707,0.5926838005215439 l -14.157478695132959 3.3411264232354894" fill="#ff5307" stroke="none" /><path d="M 120.51834098615036 95.52812308129327 l 19.955788400112144 -4.349271200887676 a41.42424173987669,41.42424173987669 0 0,0 0.1454627815839677,0.696092067998998 l -20.027508892520476 4.006062681603274" fill="#ffae10" stroke="none" /><path d="M 120.65975698304385 96.23510406497455 l 18.130885896341397 -3.3040513819000883 a39.42948124393053,39.42948124393053 0 0,0 0.11563199040923741,0.6669345926748067 l -18.18493270424287 2.992323756304689" fill="#ff900d" stroke="none" /><path d="M 120.77682067341334 96.94652285012252 l 28.85312405494388 -4.240415624181134 a50.16305697960659,50.16305697960659 0 0,0 0.11789628229985252,0.8530387687544195 l -28.921664853798944 3.744488547226629" fill="#d3ff1c" stroke="none" /><path d="M 120.82617615685814 97.30363454192243 l 14.733018071154621 -1.9074841546085828 a35.85598590754082,35.85598590754082 0 0,0 0.0737914717155626,0.6110992417358979 l -14.763591629129847 1.6542912359492719" fill="#ff5808" stroke="none" /><path d="M 120.86939407059847 97.66154086499901 l 16.43204970202939 -1.8412454430881753 a37.53488561168952,37.53488561168952 0 0,0 0.06625373371903175,0.6409447731894917 l -16.461235828230084 1.5588961476157521" fill="#ff730a" stroke="none" /><path d="M 120.96210409425399 98.7389718711861 l 14.790263016614723 -0.8897454956165274 a35.817001287291944,35.817001287291944 0 0,0 0.031652695920191855,0.61405384476605 l -14.803357301991488 0.6357198574737468" fill="#ff5708" stroke="none" /><path d="M 120.98066250479742 99.09900007780936 l 30.41724603605476 -1.3062474221427625 a51.445281058741166,51.445281058741166 0 0,0 0.030316735982716284,0.8826386896763133 l -30.435187459034324 0.7839024679023292" fill="#c2ff1e" stroke="none" /><path d="M 120.99303781780057 99.45929381324524 l 30.531621070727006 -0.7863862556659623 a51.54174665191174,51.54174665191174 0 0,0 0.015189029746646762,0.8846848350963159 l -30.54062153207232 0.26215450460058004" fill="#c0ff1e" stroke="none" /><line stroke="#e1ed5e" stroke-width="0.3" x1="184.99686870605535" x2="189.99668451229388" y1="99.2704041080226" y2="99.22748670261217" /><path d="M 185.99683186730306 99.26182062694052 a86.0,86.0 0 0,1 -10.086455211305974,41.156179273409016" fill="none" id="id28" stroke="none" /><text fill="#e1ed5e" style="font-size:6.75px; font-family:Arial;" text-anchor="middle"><textPath startOffset="21.40746469413373" xlink:href="#id28">April</textPath></text><path d="M 120.99922638620191 99.81974689727618 l 17.94649212734372 -0.15404905063969612 a38.94715327807764,38.94715327807764 0 0,0 0.0,0.6686043067270437 l -17.94649212734372 -0.15404905063969393" fill="#ff890c" stroke="none" /><path d="M 120.98066250479742 100.90099992219065 l 15.36541294604828 0.6598569452061392 a36.3795749678177,36.3795749678177 0 0,0 -0.03214986131657871,0.6236987206371519 l -15.35182149527513 -0.9235274592200218" fill="#ff6008" stroke="none" /><path d="M 120.93736805541906 101.62068470465957 l 15.991346919899216 1.237831387946476 a37.03918336005782,37.03918336005782 0 0,0 -0.0545117607568337,0.6335092897774547 l -15.967741536444642 -1.5121617250995878" fill="#ff6b09" stroke="none" /><path d="M 120.86939407059847 102.33845913500097 l 15.529385605640348 1.7401000483106512 a36.62657241581788,36.62657241581788 0 0,0 -0.07537733558433332,0.6242324695354231 l -15.49722618379635 -2.006426194769483" fill="#ff6409" stroke="none" /><path d="M 120.77682067341334 103.0534771498775 l 15.646312819959078 2.2994691741607722 a36.81438153526503,36.81438153526503 0 0,0 -0.09725747406804855,0.6244627513212377 l -15.604533853752763 -2.567720107413461" fill="#ff6709" stroke="none" /><path d="M 120.65975698304385 103.76489593502545 l 16.58836784972916 3.0229532098276777 a37.86155965581878,37.86155965581878 0 0,0 -0.12201105342330817,0.6384133884744558 l -16.534030504023693 -3.307269163335448" fill="#ff780b" stroke="none" /><path d="M 120.592083275326 104.11899336999214 l 16.03288935500291 3.2070268982548567 a37.350491203505044,37.350491203505044 0 0,0 -0.13115765348480476,0.6276368515298082 l -15.975473990693741 -3.481780201070074" fill="#ff700a" stroke="none" /><path d="M 120.43855184770803 104.8234425847677 l 15.232050133093711 3.5947223566878996 a36.65047539465661,36.65047539465661 0 0,0 -0.14976514037948196,0.6110928802277702 l -15.168097466197933 -3.8556710615237697" fill="#ff6509" stroke="none" /><path d="M 120.35273937422433 105.17358676015961 l 16.293590761704284 4.141767056034188 a37.811761783238104,37.811761783238104 0 0,0 -0.1653103562384261,0.6277103486499135 l -16.220090924661125 -4.420857909056905" fill="#ff770a" stroke="none" /><path d="M 120.26092885502905 105.52220625578681 l 13.493589181722577 3.6777377348042966 a34.9858036541024,34.9858036541024 0 0,0 -0.16290307796575293,0.5780855544694621 l -13.428467611682244 -3.908831213176767" fill="#ff4a06" stroke="none" /><path d="M 120.16314734710363 105.8691983318838 l 14.979261771561555 4.36024479160138 a36.60096208134782,36.60096208134782 0 0,0 -0.18078030849928597,0.6017588513852956 l -14.902205143058639 -4.616741246577399" fill="#ff6409" stroke="none" /><path d="M 120.05942366710727 106.21446072829308 l 13.32704273897246 4.128751907335885 a34.95194110074753,34.95194110074753 0 0,0 -0.18247457127224304,0.5715989955519797 l -13.254203451922962 -4.3569199365792475" fill="#ff4906" stroke="none" /><path d="M 119.83427380445688 106.89939002012753 l 32.64128666254372 11.354333900194067 a55.55972357099302,55.55972357099302 0 0,0 -0.32108183833243964,0.8981230469281473 l -32.44156465416734 -11.912991903503135" fill="#8dff24" stroke="none" /><path d="M 119.71291397450082 107.23885506374661 l 14.451922375334833 5.306946076206095 a36.39551028704352,36.39551028704352 0 0,0 -0.22039962644894365,0.5846361942066463 l -14.35869206507145 -5.5542505506069" fill="#ff6008" stroke="none" /><path d="M 119.4528033332814 107.91128576633889 l 14.265184093459963 5.801526183103429 a36.39977867612187,36.39977867612187 0 0,0 -0.2403670746176211,0.5767934765212362 l -14.163491174305857 -6.045552169065943" fill="#ff6108" stroke="none" /><path d="M 119.31412917781788 108.2440532568976 l 13.353483317687413 5.699807981119988 a35.51906772962352,35.51906772962352 0 0,0 -0.24417856773820082,0.5587283484426391 l -13.253670867932247 -5.928198399338472" fill="#ff5207" stroke="none" /><path d="M 118.70294669586154 109.54985784667822 l 12.859199828560014 6.565999057889108 a35.43853745567876,35.43853745567876 0 0,0 -0.2813008686281277,0.5394315065042623 l -12.744590890956937 -6.785776807497873" fill="#ff5107" stroke="none" /><line stroke="#e1ed5e" stroke-width="0.3" x1="174.33088141563837" x2="178.70328620479359" y1="141.23008692659167" y2="143.65538615756765" /><path d="M 175.20536237346943 141.71514677278685 a86.0,86.0 0 0,1 -30.301960400862466,31.631185727798858" fill="none" id="id29" stroke="none" /><text fill="#e1ed5e" style="font-size:6.75px; font-family:Arial;" text-anchor="middle"><textPath startOffset="22.145653131862474" xlink:href="#id29">May</textPath></text><path d="M 118.36410011445183 110.18625677009912 l 13.121669818222994 7.2783690563575965 a36.00509496601098,36.00509496601098 0 0,0 -0.3044430264381086,0.5379216565487668 l -12.994793426763508 -7.502547483005486" fill="#ff5a08" stroke="none" /><path d="M 118.00360718960297 110.81064883170644 l 14.42882649421714 8.664095735919206 a37.830258135910924,37.830258135910924 0 0,0 -0.33908888067142867,0.5538762030580767 l -14.277969649090306 -8.91050905510184" fill="#ff770b" stroke="none" /><path d="M 117.81537515405839 111.11811171558189 l 13.086871462453882 8.167175693399713 a36.4262426884076,36.4262426884076 0 0,0 -0.33561112003565,0.5276364242214096 l -12.94474265079234 -8.390625792299794" fill="#ff6108" stroke="none" /><path d="M 117.21940702142032 112.02048342749411 l 7.810740758039414 5.4525036618085165 a30.525621626504666,30.525621626504666 0 0,0 -0.30363530789353,0.4271010858436163 l -7.715990351615924 -5.585781974361637" fill="#ff0000" stroke="none" /><path d="M 116.79662413953412 112.60449989151573 l 11.557612960620729 8.67304823267692 a35.44991982655435,35.44991982655435 0 0,0 -0.3694354693804695,0.4836028884569242 l -11.407025513885955 -8.87017203437472" fill="#ff5107" stroke="none" /><path d="M 116.35404254752997 113.17365903436017 l 17.200941067403644 13.855860533169714 a43.087490684071454,43.087490684071454 0 0,0 -0.4689420498509778,0.5720330519074556 l -16.960552198314037 -14.149095866775664" fill="#ffc712" stroke="none" /><path d="M 115.89218393027572 113.72728997021213 l 16.25863122567109 14.043818416192984 a42.48422502766549,42.48422502766549 0 0,0 -0.48146550061324483,0.5478193582949518 l -16.015154661099256 -14.32085005229923" fill="#ffbe11" stroke="none" /><path d="M 115.6541949942343 113.99807769240083 l 11.765941705190116 10.52117762517793 a36.78393369317284,36.78393369317284 0 0,0 -0.4249460421925511,0.4670901399593959 l -11.583597962155684 -10.721605340695" fill="#ff6709" stroke="none" /><path d="M 115.16444852881244 114.52719865689866 l 15.670284037226269 15.011777631496983 a42.700490074301584,42.700490074301584 0 0,0 -0.5116193761915824,0.5249665511795946 l -15.41027785988388 -15.278566874744314" fill="#ffc112" stroke="none" /><path d="M 114.65682725009322 115.03919595460226 l 19.59451536612204 20.105698948229076 a49.074617764628826,49.074617764628826 0 0,0 -0.6083558690369437,0.5827911609708911 l -19.246487011219784 -20.439102239505544" fill="#e2ff1b" stroke="none" /><path d="M 114.39649973595853 115.28858382429668 l 11.776914867903288 12.50667547333215 a38.1788432439757,38.1788432439757 0 0,0 -0.48099929942984987,0.4452057706496829 l -11.56048579715947 -12.706998990114213" fill="#ff7d0b" stroke="none" /><path d="M 114.13192950727249 115.5334660781643 l 11.11813492435115 12.220777892430531 a37.5215113259107,37.5215113259107 0 0,0 -0.4801591590340445,0.429361280816546 l -10.906710738493727 -12.409834703130464" fill="#ff720a" stroke="none" /><path d="M 113.86319453409587 115.77377054828091 l 21.70014647569032 24.690783248389977 a53.87143341087197,53.87143341087197 0 0,0 -0.6998682137654655,0.6045294940861061 l -21.273098782162 -25.0596568749408" fill="#a2ff22" stroke="none" /><path d="M 113.31354834802062 116.24036423190432 l 20.844652729154156 25.427087036443734 a53.87911651121299,53.87911651121299 0 0,0 -0.7203104978315543,0.5802311489483247 l -20.40509146096735 -25.781166479185462" fill="#a2ff22" stroke="none" /><path d="M 112.7482090630111 116.68781488649013 l 10.709255685919379 14.018759464594355 a38.64125206079632,38.64125206079632 0 0,0 -0.5305756922131576,0.3981538908881665 l -10.467027004795455 -14.200532382746538" fill="#ff840c" stroke="none" /><path d="M 111.8722381534696 117.32195027204791 l 18.806983012236454 27.43995026834971 a54.266401680254745,54.266401680254745 0 0,0 -0.7729181987706291,0.520053858376117 l -18.33316852536882 -27.758753800782948" fill="#9dff22" stroke="none" /><path d="M 111.27062007382361 117.71928675628689 l 17.492305762038914 27.500810052686365 a53.59256532442016,53.59256532442016 0 0,0 -0.780501376494674,0.4870905845648931 l -17.017640256754525 -27.797036434092806" fill="#a6ff21" stroke="none" /><line stroke="#e1ed5e" stroke-width="0.3" x1="143.1302829299769" x2="145.66735839644613" y1="173.24464959558577" y2="177.55315839532614" /><path d="M 143.63769802327073 174.10635135553383 a86.0,86.0 0 0,1 -40.68552437913181,11.842963189579606" fill="none" id="id30" stroke="none" /><text fill="#e1ed5e" style="font-size:6.75px; font-family:Arial;" text-anchor="middle"><textPath startOffset="21.407464694133747" xlink:href="#id30">June</textPath></text><path d="M 110.65571695917076 118.09573695890943 l 7.537140747560429 12.79971276571384 a35.85399399263759,35.85399399263759 0 0,0 -0.5330422372280704,0.30775207915306796 l -7.316306042471959 -12.927211742143081" fill="#ff5808" stroke="none" /><path d="M 110.02825361518725 118.45085714620011 l 13.990952716452673 25.74177716442689 a50.29822263375415,50.29822263375415 0 0,0 -0.7621646184818321,0.40580973024871836 l -13.546999282184286 -25.978157362398175" fill="#d1ff1c" stroke="none" /><path d="M 109.3889696526874 118.78422872680471 l 13.677289674728307 27.36374140258551 a51.59154452449242,51.59154452449242 0 0,0 -0.795590138999832,0.3891630045150937 l -13.205539286466406 -27.59449815719783" fill="#c0ff1e" stroke="none" /><path d="M 108.73861861582097 119.09545874513695 l 12.694965583714618 27.74079087693217 a51.50759953928499,51.50759953928499 0 0,0 -0.8071647933075417,0.36103454532477497 l -12.216887387551449 -27.954629173166794" fill="#c1ff1e" stroke="none" /><path d="M 106.72888874123015 119.89276391827305 l 4.65480023209928 13.761089782403724 a35.52703538923643,35.52703538923643 0 0,0 -0.5793905628379884,0.1904571861637187 l -4.417886931613558 -13.838967889969462" fill="#ff5307" stroke="none" /><path d="M 106.0420521117495 120.11202640906438 l 4.151753146008048 13.819835938530522 a35.430000677522074,35.430000677522074 0 0,0 -0.5839876188493882,0.1699902847203047 l -3.9139055147770527 -13.889069917553345" fill="#ff5107" stroke="none" /><path d="M 105.3480935250658 120.30758222061773 l 7.448004408933869 28.281285883475057 a50.24557916845457,50.24557916845457 0 0,0 -0.835978066680108,0.21250235548327998 l -6.961421049028364 -28.404973470793607" fill="#d2ff1c" stroke="none" /><path d="M 104.64783097203109 120.47920084513623 l 4.529029393536879 19.955739169928457 a41.46322636012557,41.46322636012557 0 0,0 -0.6954717453459225,0.15157482993992358 l -4.18579523157182 -20.0305454580021" fill="#ffaf10" stroke="none" /><path d="M 104.29559338865022 120.5559693870025 l 6.010765165594949 28.76368723885564 a50.38501321168048,50.38501321168048 0 0,0 -0.8481561546141966,0.16965498492131534 l -5.5161125254497945 -28.862631620439814" fill="#d0ff1d" stroke="none" /><path d="M 103.58742460773223 120.69131181640829 l 2.6846500437393983 15.48434803430223 a36.71535490864744,36.71535490864744 0 0,0 -0.6219275106855575,0.10233793521213112 l -2.4184450300007687 -15.52815196801003" fill="#ff6609" stroke="none" /><path d="M 102.875027216393 120.80226474461374 l 4.800429936961007 34.73351969235144 a56.06367804150952,56.06367804150952 0 0,0 -0.9544765850578473,0.12357610322268846 l -4.203475530012384 -34.810807391774524" fill="#86ff25" stroke="none" /><path d="M 102.15924093988457 120.88869738790638 l 4.063151236321095 39.307302417740566 a60.51674608731001,60.51674608731001 0 0,0 -1.0342612663454158,0.09794561724029573 l -3.387790406590663 -39.37125979048604" fill="#50ff2b" stroke="none" /><path d="M 101.44090949804482 120.95050786540614 l 0.9666417140748811 14.054758373954156 a35.087960432710766,35.087960432710766 0 0,0 -0.6012667016125506,0.03617071169207911 l -0.7252306603298654 -14.069281063470926" fill="#ff4c07" stroke="none" /><line stroke="#e1ed5e" stroke-width="0.3" x1="101.45913802915013" x2="101.54496967792366" y1="184.9874750549273" y2="189.98673829345242" /><path d="M 101.47630435890484 185.9873277026323 a86.0,86.0 0 0,1 -42.54439059252881,-10.42667462771756" fill="none" id="id31" stroke="none" /><text fill="#e1ed5e" style="font-size:6.75px; font-family:Arial;" text-anchor="middle"><textPath startOffset="22.145653131862474" xlink:href="#id31">July</textPath></text><path d="M 100.36049292484886 120.99690560180557 l 0.37317722162417755 21.73570229837986 a42.73890557600669,42.73890557600669 0 0,0 -0.7336701464730272,0.006297675821262821 l -2.6622481130623136e-15 -21.738905576006687" fill="#ffc212" stroke="none" /><path d="M 96.41257539226777 120.69131181640829 l -2.5745457043932456 14.849295464043212 a36.07082815781747,36.07082815781747 0 0,0 -0.6091938037917316,-0.11101540436417363 l 2.8290742417360346 -14.802911885747672" fill="#ff5b08" stroke="none" /><path d="M 96.05791012581884 120.62667999033965 l -3.1703024101626394 16.588361852254913 a37.8885927866483,37.8885927866483 0 0,0 -0.6377976527793603,-0.12757739312090743 l 3.4545965484729577 -16.531495062471144" fill="#ff780b" stroke="none" /><path d="M 95.35216902796893 120.47920084513623 l -3.27660589648667 14.437330154281597 a35.804480679328805,35.804480679328805 0 0,0 -0.5982210010675187,-0.14117852738059838 l 3.523959051294077 -14.37895548325477" fill="#ff5708" stroke="none" /><line stroke="#e1ed5e" stroke-width="0.3" x1="58.13341422392154" x2="55.67067388415222" y1="173.97424548756322" y2="178.32567169271397" /><path d="M 57.64086615596768 174.84453072859336 a86.0,86.0 0 0,1 -31.369924170532247,-30.572349798747897" fill="none" id="id32" stroke="none" /><text fill="#e1ed5e" style="font-size:6.75px; font-family:Arial;" text-anchor="middle"><textPath startOffset="22.145653131862474" xlink:href="#id32">August</textPath></text><line stroke="#e1ed5e" stroke-width="0.3" x1="26.387840678322732" x2="22.057713659400548" y1="142.50000000000003" y2="145.00000000000006" /><path d="M 25.521815274538298 143.00000000000003 a86.0,86.0 0 0,1 -11.493303480769221,-40.785679425670985" fill="none" id="id33" stroke="none" /><text fill="#e1ed5e" style="font-size:6.75px; font-family:Arial;" text-anchor="middle"><textPath startOffset="21.40746469413373" xlink:href="#id33">September</textPath></text><line stroke="#e1ed5e" stroke-width="0.3" x1="15.003131293944662" x2="10.003315487706104" y1="100.72959589197737" y2="100.7725132973878" /><path d="M 14.003168132696942 100.73817937305945 a86.0,86.0 0 0,1 10.791469493833604,-42.45332614584628" fill="none" id="id34" stroke="none" /><text fill="#e1ed5e" style="font-size:6.75px; font-family:Arial;" text-anchor="middle"><textPath startOffset="22.145653131862435" xlink:href="#id34">October</textPath></text><line stroke="#e1ed5e" stroke-width="0.3" x1="26.387840678322718" x2="22.05771365940052" y1="57.49999999999999" y2="54.99999999999999" /><path d="M 25.521815274538284 56.99999999999999 a86.0,86.0 0 0,1 29.574782752854787,-30.34633250058573" fill="none" id="id35" stroke="none" /><text fill="#e1ed5e" style="font-size:6.75px; font-family:Arial;" text-anchor="middle"><textPath startOffset="21.40746469413373" xlink:href="#id35">November</textPath></text><line stroke="#e1ed5e" stroke-width="0.3" x1="56.869717070023135" x2="54.33264160355391" y1="26.7553504044142" y2="22.446841604673864" /><path d="M 56.362301976729285 25.89364864446614 a86.0,86.0 0 0,1 42.16139366436587,-11.88097634709845" fill="none" id="id36" stroke="none" /><text fill="#e1ed5e" style="font-size:6.75px; font-family:Arial;" text-anchor="middle"><textPath startOffset="22.145653131862474" xlink:href="#id36">December</textPath></text></svg>