<?xml version="1.0" encoding="utf-8" ?>
<svg baseProfile="full" height="200mm" version="1.1" viewBox="0,0,200,200" width="200mm" xmlns="http://www.w3.org/2000/svg" xmlns:ev="http://www.w3.org/2001/xml-events" xmlns:xlink="http://www.w3.org/1999/xlink"><defs /><rect fill="#1a1a1a" height="200" width="200" x="0" y="0" /><text alignment-baseline="middle" fill="#e1ed5e" style="dominant-baseline: central; font-size:9.0px; font-family:Arial;" text-anchor="middle" x="100.0" y="100.0">2022</text><line stroke="#e1ed5e" stroke-width="0.3" x1="100.0" x2="100.0" y1="15.0" y2="10.0" /><path d="M 100.0 14.0 a86.0,86.0 0 0,1 42.46469731375804,11.215312516191453" fill="none" id="id1" stroke="none" /><text fill="#e1ed5e" style="font-size:6.75px; font-family:Arial;" text-anchor="middle"><textPath startOffset="22.20632615414155" xlink:href="#id1">January</textPath></text><line stroke="#e1ed5e" stroke-width="0.3" x1="143.23703022742887" x2="145.7803849466894" y1="26.81831364943548" y2="22.513508569990506" /><path d="M 143.74570117128098 25.957352633546492 a86.0,86.0 0 0,1 28.547481713284135,27.462654790039103" fill="none" id="id2" stroke="none" /><text fill="#e1ed5e" style="font-size:6.75px; font-family:Arial;" text-anchor="middle"><textPath startOffset="19.985693538727396" xlink:href="#id2">February</textPath></text><line stroke="#e1ed5e" stroke-width="0.3" x1="172.23445277983987" x2="176.4835382374775" y1="55.19839476539836" y2="52.563006222186495" /><path d="M 173.08426987136738 54.67131705675599 a86.0,86.0 0 0,1 12.851231095245387,41.99856678651699" fill="none" id="id3" stroke="none" /><text fill="#e1ed5e" style="font-size:6.75px; font-family:Arial;" text-anchor="middle"><textPath startOffset="22.20632615414155" xlink:href="#id3">March</textPath></text><line stroke="#e1ed5e" stroke-width="0.3" x1="184.98032266829074" x2="189.97916517819016" y1="98.17113171792111" y2="98.06355123074" /><path d="M 185.9800911702706 98.14961562048488 a86.0,86.0 0 0,1 -9.607161424134198,41.387399972396054" fill="none" id="id4" stroke="none" /><text fill="#e1ed5e" style="font-size:6.75px; font-family:Arial;" text-anchor="middle"><textPath startOffset="21.466115282336823" xlink:href="#id4">April</textPath></text><line stroke="#e1ed5e" stroke-width="0.3" x1="174.80103733775053" x2="179.2010983576182" y1="140.37084112569926" y2="142.7455964860345" /><path d="M 175.68104954172406 140.8457921977663 a86.0,86.0 0 0,1 -30.038265399797805,32.042727171017184" fill="none" id="id5" stroke="none" /><text fill="#e1ed5e" style="font-size:6.75px; font-family:Arial;" text-anchor="middle"><textPath startOffset="22.206326154141568" xlink:href="#id5">May</textPath></text><line stroke="#e1ed5e" stroke-width="0.3" x1="143.8653032363475" x2="146.44561519142675" y1="172.8068346515853" y2="177.08958963109032" /><path d="M 144.38136562736335 173.6633856474863 a86.0,86.0 0 0,1 -40.68145358897372,12.25698825130547" fill="none" id="id6" stroke="none" /><text fill="#e1ed5e" style="font-size:6.75px; font-family:Arial;" text-anchor="middle"><textPath startOffset="21.466115282336833" xlink:href="#id6">June</textPath></text><line stroke="#e1ed5e" stroke-width="0.3" x1="102.19456741930631" x2="102.32365962044197" y1="184.97166512339345" y2="189.96999836594603" /><path d="M 102.22038585953345 185.97133177190398 a86.0,86.0 0 0,1 -42.740103519485714,-10.115201625700543" fill="none" id="id7" stroke="none" /><text fill="#e1ed5e" style="font-size:6.75px; font-family:Arial;" text-anchor="middle"><textPath startOffset="22.20632615414155" xlink:href="#id7">July</textPath></text><path d="M 95.86986931433489 120.58985236759428 l -3.4728257056095333 17.313003877835364 a38.65787704271056,38.65787704271056 0 0,0 -0.6513089038439944,-0.13648811335836822 l 3.7703260708829145 -17.250659783750454" fill="#ff760a" stroke="none" /><path d="M 93.76903079525671 120.05430185196036 l -6.484892994359807 20.871552612963452 a42.855789750635836,42.855789750635836 0 0,0 -0.7025873166863985,-0.2249462718267958 l 6.843201656137147 -20.75683349447695" fill="#ffb811" stroke="none" /><path d="M 93.42475214034765 119.94407469862007 l -6.874148974095576 20.850703054113215 a42.954629169468234,42.954629169468234 0 0,0 -0.7002223654841186,-0.23755344431622852 l 7.23204107251692 -20.72928662289886" fill="#ffb911" stroke="none" /><path d="M 93.08242187328487 119.8279376855182 l -7.387351389157295 21.174454458209713 a43.426111614581814,43.426111614581814 0 0,0 -0.7036693495405919,-0.2523107933889703 l 7.750740299327613 -21.044156123780784" fill="#ffc011" stroke="none" /><path d="M 92.7421414339146 119.70592522655815 l -3.64388759651389 9.893576163969644 a31.543280615078785,31.543280615078785 0 0,0 -0.5078915481368113,-0.19204112495311132 l 3.8136493654109844 -9.8293867889099" fill="#ff0000" stroke="none" /><path d="M 92.40401165467489 119.57807347666478 l -8.142254645482973 20.98603268830554 a43.510217207004416,43.510217207004416 0 0,0 -0.6959126160320797,-0.2769179919187429 l 8.50228833755691 -20.84276785198073" fill="#ffc212" stroke="none" /><path d="M 92.06813273071674 119.44442032107085 l -10.753364650890491 26.36112469347386 a49.47004998976817,49.47004998976817 0 0,0 -0.7856987415083314,-0.32842213767253836 l 11.205534851896285 -26.17211751278135" fill="#e5ff1a" stroke="none" /><path d="M 91.7346041902142 119.30500536409082 l -10.770603040933194 25.15627252037151 a48.365013009033234,48.365013009033234 0 0,0 -0.7625074227238187,-0.33426084609455564 l 11.202031138314757 -24.967147120982503" fill="#f5ff19" stroke="none" /><path d="M 91.40352486487194 119.15986991738527 l -10.031943488735543 22.3592494878856 a45.5066506855322,45.5066506855322 0 0,0 -0.7119233883633252,-0.3268091099604292 l 10.415334872866287 -22.183253307591098" fill="#ffe014" stroke="none" /><path d="M 91.07499286063937 119.00905698771935 l -10.129897453318812 21.575310244926584 a44.835033765018856,44.835033765018856 0 0,0 -0.6957699778000503,-0.3340118712159488 l 10.499780099119103 -21.397744097211074" fill="#ffd614" stroke="none" /><path d="M 90.42595943632237 118.69057910512821 l -10.695541441821177 20.879989181260257 a44.45993510100272,44.45993510100272 0 0,0 -0.67813912790156,-0.35477034088358134 l 11.053371472249232 -20.692789421431957" fill="#ffd013" stroke="none" /><line stroke="#e1ed5e" stroke-width="0.3" x1="58.666819895761336" x2="56.23545636021788" y1="174.27360380694188" y2="178.64263932499728" /><path d="M 58.180547188652646 175.14741091055294 a86.0,86.0 0 0,1 -31.652253787137756,-30.449443065178592" fill="none" id="id8" stroke="none" /><text fill="#e1ed5e" style="font-size:6.75px; font-family:Arial;" text-anchor="middle"><textPath startOffset="22.20632615414155" xlink:href="#id8">August</textPath></text><path d="M 89.7882731507175 118.34994917583269 l -10.801318468756076 19.409415063582845 a43.21247113163972,43.21247113163972 0 0,0 -0.6468520754577467,-0.3672994902470713 l 11.13381931113503 -19.22061240754114" fill="#ffbd11" stroke="none" /><path d="M 89.4739219176387 118.17145234162733 l -7.371978034295008 12.726444404606246 a35.70742830414827,35.70742830414827 0 0,0 -0.529204711009594,-0.312663471251684 l 7.589950616332984 -12.597662361060813" fill="#ff4606" stroke="none" /><path d="M 89.1626897886671 117.98757091392108 l -12.197716269960186 20.245548214016875 a44.63612710848656,44.63612710848656 0 0,0 -0.6547074087561521,-0.40217476404953023 l 12.544402878648647 -20.032584983138968" fill="#ffd313" stroke="none" /><path d="M 88.54995079064634 117.60387380957326 l -13.079506324889486 20.109082033182535 a44.98851112345426,44.98851112345426 0 0,0 -0.6455322222626397,-0.4278235571194785 l 13.423713245892088 -19.88096045497174" fill="#ffd814" stroke="none" /><path d="M 87.95078237400918 117.19931262002967 l -8.512685776809429 12.151190928413985 a35.836349285234014,35.836349285234014 0 0,0 -0.5021742030622116,-0.3582879603328425 l 8.720587307720526 -12.002858706236925" fill="#ff4906" stroke="none" /><path d="M 87.65650970185807 116.9893568818739 l -14.127517428086499 19.444859569159675 a45.03516824041863,45.03516824041863 0 0,0 -0.6232331785901997,-0.4610530061200396 l 14.460135577095262 -19.19879661429987" fill="#ffd914" stroke="none" /><path d="M 87.36589467227662 116.77436683061367 l -9.500232620215176 12.613507867309169 a36.790978454702255,36.790978454702255 0 0,0 -0.5025845128223414,-0.3853603731291179 l 9.715945861531004 -12.448108152352685" fill="#ff5808" stroke="none" /><path d="M 86.79598089348748 116.32954008644616 l -12.274522862805616 15.18002295462629 a40.52170608355015,40.52170608355015 0 0,0 -0.5386104100119645,-0.4432396990298164 l 12.53400340136227 -14.966488136739294" fill="#ff940d" stroke="none" /><path d="M 86.51685102203217 116.09983520530335 l -17.97858307314494 21.467702031288805 a49.00163709182331,49.00163709182331 0 0,0 -0.642002003247754,-0.5471280351037576 l 18.34545055296975 -21.155049605962095" fill="#ecff1a" stroke="none" /><path d="M 85.97065885151581 115.62618273729859 l -20.364630203959244 22.68256431835074 a51.48305902300698,51.48305902300698 0 0,0 -0.65432626895548,-0.5977115327647309 l 20.75205602238158 -22.328660018999432" fill="#caff1d" stroke="none" /><path d="M 85.70375840098266 115.38237550388516 l -16.409311950835146 17.65598296866265 a45.1039260969977,45.1039260969977 0 0,0 -0.5641516720936265,-0.5334406185364536 l 16.710799457319588 -17.370907713380262" fill="#ffda14" stroke="none" /><path d="M 85.44109423537348 115.13401014063109 l -22.630209559767206 23.52414573588727 a53.64217850147631,53.64217850147631 0 0,0 -0.65992663669155,-0.6458771101479729 l 23.03178614883455 -23.131118522816728" fill="#adff20" stroke="none" /><path d="M 85.18274418774928 114.88116024355367 l -26.867890381105493 26.98376725310325 a59.07896044669219,59.07896044669219 0 0,0 -0.7144598032100392,-0.7237440086024707 l 27.328390809371065 -26.517282750520113" fill="#67ff28" stroke="none" /><path d="M 84.9287848128048 114.62390073753433 l -22.63832486767221 21.966418209605887 a52.543894524512524,52.543894524512524 0 0,0 -0.6242551166143305,-0.6545289940310578 l 23.013086535665497 -21.57348209899233" fill="#bbff1f" stroke="none" /><path d="M 84.67929136418377 114.36230785411682 l -25.500176752717202 23.9049901386892 a55.95293361007981,55.95293361007981 0 0,0 -0.6526605748078835,-0.7083341519249245 l 25.907883735520816 -23.462504731962934" fill="#8eff24" stroke="none" /><path d="M 84.43433777217949 114.09645910891817 l -18.881106873416442 17.09896739867108 a46.47294413424153,46.47294413424153 0 0,0 -0.5318743263548628,-0.5975664440207146 l 19.172640049419645 -16.7714267849095" fill="#ffee16" stroke="none" /><path d="M 84.19399662182784 113.82643327865904 l -14.091726401734045 12.326855196283347 a39.72239600081854,39.72239600081854 0 0,0 -0.44575619787564913,-0.518515162857086 l 14.301825109180474 -12.082462934264731" fill="#ff870c" stroke="none" /><path d="M 83.72743513129214 113.27417163493432 l -29.690402290486244 24.219629732252344 a59.31592948811646,59.31592948811646 0 0,0 -0.6385842470038101,-0.7967320349539144 l 30.102904449544916 -23.70496986372017" fill="#64ff29" stroke="none" /><path d="M 83.28015986056508 112.70617746262583 l -25.17189602539711 19.129284449024116 a52.61572192826029,52.61572192826029 0 0,0 -0.5417884315090782,-0.7258141418065088 l 25.497445723601274 -18.693157427708297" fill="#baff1f" stroke="none" /><path d="M 83.06392112726016 112.41649034213515 l -25.368223149689946 18.598419392239034 a52.45549156605374,52.45549156605374 0 0,0 -0.527602848553402,-0.7327942111914959 l 25.684605790618956 -18.158991575596403" fill="#bcff1f" stroke="none" /><path d="M 82.85270091963577 112.12312394758628 l -29.889345893115376 21.13173878150027 a57.60496389627854,57.60496389627854 0 0,0 -0.5654588095493757,-0.8145855890667422 l 30.248665609826883 -20.614111930246516" fill="#79ff26" stroke="none" /><path d="M 82.6465618267979 111.8261652097733 l -25.110156671411826 17.112278170788112 a51.38667524190956,51.38667524190956 0 0,0 -0.49183629270910123,-0.7352285243755948 l 25.400996069531658 -16.677512732206697" fill="#cbff1d" stroke="none" /><path d="M 82.44556493220864 111.52570212397912 l -25.9947482656738 17.06735216148853 a52.09696845674861,52.09696845674861 0 0,0 -0.4857301455538494,-0.7538639725514068 l 26.284683274604696 -16.617366589015674" fill="#c1ff1e" stroke="none" /><path d="M 82.05923443525364 110.91462005526583 l -26.627668831589236 16.19946970520204 a52.16818195106265,52.16818195106265 0 0,0 -0.4601211893995776,-0.77118957955506 l 26.902570896687045 -15.738718031760868" fill="#c0ff1e" stroke="none" /><line stroke="#e1ed5e" stroke-width="0.3" x1="26.63291911575756" x2="22.317208475507996" y1="142.92168965132927" y2="145.44649492493687" /><path d="M 25.769776987707644 143.4266507060508 a86.0,86.0 0 0,1 -11.730757126820373,-40.83630448921669" fill="none" id="id9" stroke="none" /><text fill="#e1ed5e" style="font-size:6.75px; font-family:Arial;" text-anchor="middle"><textPath startOffset="21.46611528233685" xlink:href="#id9">September</textPath></text><path d="M 81.87401531095188 110.60418214915194 l -26.599473190307194 15.561397828606108 a51.81702575496244,51.81702575496244 0 0,0 -0.44377088796908826,-0.7737519487335809 l 26.86339607442866 -15.10122603401422" fill="#c5ff1e" stroke="none" /><path d="M 81.69416730710424 110.29060199501025 l -33.562387907961835 18.86705629605235 a59.50194404654019,59.50194404654019 0 0,0 -0.49421632024821416,-0.8971461760846566 l 33.88218063766156 -18.28653960156987" fill="#62ff29" stroke="none" /><path d="M 81.51974371655577 109.97397251340807 l -27.381378934539843 14.777994237935546 a52.11477183032713,52.11477183032713 0 0,0 -0.41926952310314913,-0.7930999318659558 l 27.63170096586788 -14.304479290983465" fill="#c1ff1e" stroke="none" /><path d="M 81.35079622478065 109.6543875284942 l -29.166946904740552 15.09925098333414 a53.84354079574356,53.84354079574356 0 0,0 -0.41900871715513466,-0.8267439503143891 l 29.422534291681952 -14.594952821317067" fill="#aaff21" stroke="none" /><path d="M 81.18737489456691 109.33194174019688 l -45.08606443544901 22.364796207248233 a71.32829537813898,71.32829537813898 0 0,0 -0.5361399588886967,-1.1046071147210061 l 45.46435765095243 -21.58540013656194" fill="#3aff96" stroke="none" /><path d="M 80.87730276802145 108.67885076344099 l -24.356324603153528 11.0541365484363 a47.74742011868915,47.74742011868915 0 0,0 -0.33322905235594974,-0.7513435431620453 l 24.542994740240758 -10.63324466878156" fill="#feff18" stroke="none" /><path d="M 80.73074385275274 108.34839909993369 l -28.24621600816848 12.237664105825559 a51.78326073610664,51.78326073610664 0 0,0 -0.3473153078735036,-0.8209507925295846 l 28.452682297234293 -11.749638787629817" fill="#c6ff1e" stroke="none" /><path d="M 80.58989483394504 108.01547362559985 l -28.48843043724837 11.764401112253806 a51.821937030432366,51.821937030432366 0 0,0 -0.3333813436633182,-0.8274251545673479 l 28.686714395169076 -11.272276589843653" fill="#c5ff1e" stroke="none" /><path d="M 80.45479744820244 107.68017299344265 l -26.337770386912293 10.349272784305525 a49.29815534832052,49.29815534832052 0 0,0 -0.3035492139059851,-0.7924712116281393 l 26.51201388041179 -9.894378005844228" fill="#e8ff1a" stroke="none" /><path d="M 80.32549172779594 107.34259656027581 l -59.02352481661217 22.027789680827432 a84.0,84.0 0 0,0 -0.4939029559791024,-1.3590088119755315 l 59.3939520335965 -21.008533071845783" fill="#4dd2ff" stroke="none" /><path d="M 80.0844068197444 106.66101706037122 l -29.523191585861994 9.874397465850977 a52.1307334756044,52.1307334756044 0 0,0 -0.27730508997293457,-0.8534573101846068 l 29.688788926851178 -9.364741255688566" fill="#c1ff1e" stroke="none" /><path d="M 79.97269907076064 106.31721596034903 l -29.490313322003868 9.302136051766613 a51.922618177565994,51.922618177565994 0 0,0 -0.2615249002177628,-0.85467850564111 l 29.64606499472776 -8.793130573573455" fill="#c4ff1e" stroke="none" /><path d="M 79.86692584326677 105.97154293290107 l -31.791976310407286 9.429615665319512 a54.16093197298799,54.16093197298799 0 0,0 -0.25741237161976327,-0.89608623493899 l 31.94958131891315 -8.880971954875926" fill="#a6ff21" stroke="none" /><path d="M 79.76711848015287 105.62410040840567 l -59.66887150940385 16.58605692402035 a82.93118367585582,82.93118367585582 0 0,0 -0.37047304151836336,-1.3786680068440955 l 59.94553262726399 -15.556497984000718" fill="#4bdeff" stroke="none" /><path d="M 79.67330655649465 105.27499134158121 l -29.787961985250952 7.7302903195873505 a51.77466600403426,51.77466600403426 0 0,0 -0.2164395181574515,-0.8645682853387189 l 29.916612817703463 -7.216394194851239" fill="#c6ff1e" stroke="none" /><path d="M 79.58551787078972 104.9243191809786 l -31.199119968160186 7.525756662180238 a53.09395737714503,53.09395737714503 0 0,0 -0.20666047754833622,-0.890287928471031 l 31.32404101163908 -6.987600076360633" fill="#b4ff20" stroke="none" /><path d="M 79.4281124754447 104.21870165774334 l -30.63501477770183 6.282359237742151 a52.27254655479872,52.27254655479872 0 0,0 -0.17317164606428298,-0.8829984924531484 l 30.73861635674178 -5.754097018221048" fill="#bfff1e" stroke="none" /><line stroke="#e1ed5e" stroke-width="0.3" x1="15.007084014347285" x2="10.007500721073583" y1="101.09737516637583" y2="101.16192664675087" /><path d="M 14.007167355692545 101.11028546245083 a86.0,86.0 0 0,1 10.666146001902534,-42.60595125391555" fill="none" id="id10" stroke="none" /><text fill="#e1ed5e" style="font-size:6.75px; font-family:Arial;" text-anchor="middle"><textPath startOffset="22.20632615414155" xlink:href="#id10">October</textPath></text><line stroke="#e1ed5e" stroke-width="0.3" x1="26.266209847984243" x2="21.928928074336255" y1="57.711370442889674" y2="55.22380399835377" /><path d="M 25.398753493254645 57.213857153982495 a86.0,86.0 0 0,1 29.58750427330803,-30.492523968695096" fill="none" id="id11" stroke="none" /><text fill="#e1ed5e" style="font-size:6.75px; font-family:Arial;" text-anchor="middle"><textPath startOffset="21.46611528233685" xlink:href="#id11">November</textPath></text><line stroke="#e1ed5e" stroke-width="0.3" x1="56.762969772571076" x2="54.21961505331055" y1="26.818313649435495" y2="22.513508569990535" /><path d="M 56.25429882871897 25.957352633546506 a86.0,86.0 0 0,1 42.265352541879196,-11.944610805530505" fill="none" id="id12" stroke="none" /><text fill="#e1ed5e" style="font-size:6.75px; font-family:Arial;" text-anchor="middle"><textPath startOffset="22.20632615414155" xlink:href="#id12">December</textPath></text></svg>