<?xml version="1.0" encoding="utf-8" ?>
<svg baseProfile="full" height="200mm" version="1.1" viewBox="0,0,200,200" width="200mm" xmlns="http://www.w3.org/2000/svg" xmlns:ev="http://www.w3.org/2001/xml-events" xmlns:xlink="http://www.w3.org/1999/xlink"><defs /><rect fill="#1a1a1a" height="200" width="200" x="0" y="0" /><text alignment-baseline="middle" fill="#e1ed5e" style="dominant-baseline: central; font-size:9.0px; font-family:Arial;" text-anchor="middle" x="100.0" y="100.0">2022</text><line stroke="#e1ed5e" stroke-width="0.3" x1="100.0" x2="100.0" y1="15.0" y2="10.0" /><path d="M 100.0 14.0 a86.0,86.0 0 0,1 42.46469731375804,11.215312516191453" fill="none" id="id1" stroke="none" /><text fill="#e1ed5e" style="font-size:6.75px; font-family:Arial;" text-anchor="middle"><textPath startOffset="22.20632615414155" xlink:href="#id1">January</textPath></text><line stroke="#e1ed5e" stroke-width="0.3" x1="143.23703022742887" x2="145.7803849466894" y1="26.81831364943548" y2="22.513508569990506" /><path d="M 143.74570117128098 25.957352633546492 a86.0,86.0 0 0,1 28.547481713284135,27.462654790039103" fill="none" id="id2" stroke="none" /><text fill="#e1ed5e" style="font-size:6.75px; font-family:Arial;" text-anchor="middle"><textPath startOffset="19.985693538727396" xlink:href="#id2">February</textPath></text><line stroke="#e1ed5e" stroke-width="0.3" x1="172.23445277983987" x2="176.4835382374775" y1="55.19839476539836" y2="52.563006222186495" /><path d="M 173.08426987136738 54.67131705675599 a86.0,86.0 0 0,1 12.851231095245387,41.99856678651699" fill="none" id="id3" stroke="none" /><text fill="#e1ed5e" style="font-size:6.75px; font-family:Arial;" text-anchor="middle"><textPath startOffset="22.20632615414155" xlink:href="#id3">March</textPath></text><line stroke="#e1ed5e" stroke-width="0.3" x1="184.98032266829074" x2="189.97916517819016" y1="98.17113171792111" y2="98.06355123074" /><path d="M 185.9800911702706 98.14961562048488 a86.0,86.0 0 0,1 -9.607161424134198,41.387399972396054" fill="none" id="id4" stroke="none" /><text fill="#e1ed5e" style="font-size:6.75px; font-family:Arial;" text-anchor="middle"><textPath startOffset="21.466115282336823" xlink:href="#id4">April</textPath></text><line stroke="#e1ed5e" stroke-width="0.3" x1="174.80103733775053" x2="179.2010983576182" y1="140.37084112569926" y2="142.7455964860345" /><path d="M 175.68104954172406 140.8457921977663 a86.0,86.0 0 0,1 -30.038265399797805,32.042727171017184" fill="none" id="id5" stroke="none" /><text fill="#e1ed5e" style="font-size:6.75px; font-family:Arial;" text-anchor="middle"><textPath startOffset="22.206326154141568" xlink:href="#id5">May</textPath></text><line stroke="#e1ed5e" stroke-width="0.3" x1="143.8653032363475" x2="146.44561519142675" y1="172.8068346515853" y2="177.08958963109032" /><path d="M 144.38136562736335 173.6633856474863 a86.0,86.0 0 0,1 -40.68145358897372,12.25698825130547" fill="none" id="id6" stroke="none" /><text fill="#e1ed5e" style="font-size:6.75px; font-family:Arial;" text-anchor="middle"><textPath startOffset="21.466115282336833" xlink:href="#id6">June</textPath></text><line stroke="#e1ed5e" stroke-width="0.3" x1="102.19456741930631" x2="102.32365962044197" y1="184.97166512339345" y2="189.96999836594603" /><path d="M 102.22038585953345 185.97133177190398 a86.0,86.0 0 0,1 -42.740103519485714,-10.115201625700543" fill="none" id="id7" stroke="none" /><text fill="#e1ed5e" style="font-size:6.75px; font-family:Arial;" text-anchor="middle"><textPath startOffset="22.20632615414155" xlink:href="#id7">July</textPath></text><path d="M 95.86986931433489 120.58985236759428 l -2.2018364661330048 10.976768346002931 a32.19542438433689,32.19542438433689 0 0,0 -0.5424293357182343,-0.11367134124140287 l 2.390457263280626 -10.937241024034988" fill="#ff4706" stroke="none" /><path d="M 93.76903079525671 120.05430185196036 l -4.111543476221117 13.232954816536235 a34.85697957468892,34.85697957468892 0 0,0 -0.5714530496269746,-0.18296122059803388 l 4.338717870939032 -13.160220749278494" fill="#ff6f0a" stroke="none" /><path d="M 93.42475214034765 119.94407469862007 l -4.358339049479557 13.219735806176727 a34.91964561529242,34.91964561529242 0 0,0 -0.5692405528200231,-0.19311730192076743 l 4.5852493352368064 -13.142755517357836" fill="#ff700a" stroke="none" /><path d="M 93.08242187328487 119.8279376855182 l -4.683718981494338 13.425000253036231 a35.21857430587305,35.21857430587305 0 0,0 -0.5706758066093858,-0.2046240405774539 l 4.914114348733451 -13.342388671418819" fill="#ff750a" stroke="none" /><path d="M 92.7421414339146 119.70592522655815 l -2.3102929051505146 6.2727123745673925 a27.68463715108305,27.68463715108305 0 0,0 -0.4457619165822562,-0.16854901452042287 l 2.4179250424930534 -6.2320151099403365" fill="#ff0000" stroke="none" /><path d="M 92.40401165467489 119.57807347666478 l -5.1623417685508795 13.30553732596846 a35.2718988248959,35.2718988248959 0 0,0 -0.5641470201555469,-0.22448574198748997 l 5.390609864748284 -13.214704739574904" fill="#ff760a" stroke="none" /><path d="M 92.06813273071674 119.44442032107085 l -6.817834359988592 16.71344621315587 a39.05054430426671,39.05054430426671 0 0,0 -0.6202129070300839,-0.25924904543933214 l 7.1045187265161385 -16.593612124696563" fill="#ffad10" stroke="none" /><path d="M 91.7346041902142 119.30500536409082 l -6.8287638217672635 15.949547395328286 a38.34993018571835,38.34993018571835 0 0,0 -0.6046128101338227,-0.26504448803003827 l 7.10229730655883 -15.829638354003794" fill="#ffa30f" stroke="none" /><path d="M 91.40352486487194 119.15986991738527 l -6.360439847011146 14.176182466707287 a36.53767499907326,36.53767499907326 0 0,0 -0.571609314164009,-0.2623978004662707 l 6.603517156942575 -14.064597595906942" fill="#ff880c" stroke="none" /><path d="M 91.07499286063937 119.00905698771935 l -6.422544493055825 13.679150320927054 a36.111857307022206,36.111857307022206 0 0,0 -0.5603998491114967,-0.26902598301626923 l 6.657057010167564 -13.566570061411223" fill="#ff820c" stroke="none" /><path d="M 90.42595943632237 118.69057910512821 l -6.781173363696147 13.238303758665673 a35.874037736781624,35.874037736781624 0 0,0 -0.5471800309618552,-0.2862587308738883 l 7.008044297184497 -13.119615608847068" fill="#ff7f0b" stroke="none" /><line stroke="#e1ed5e" stroke-width="0.3" x1="58.666819895761336" x2="56.23545636021788" y1="174.27360380694188" y2="178.64263932499728" /><path d="M 58.180547188652646 175.14741091055294 a86.0,86.0 0 0,1 -31.652253787137756,-30.449443065178592" fill="none" id="id8" stroke="none" /><text fill="#e1ed5e" style="font-size:6.75px; font-family:Arial;" text-anchor="middle"><textPath startOffset="22.20632615414155" xlink:href="#id8">August</textPath></text><path d="M 89.7882731507175 118.34994917583269 l -6.848237977623704 12.305932256916158 a35.0831222429537,35.0831222429537 0 0,0 -0.525162987491739,-0.2982012502098631 l 7.059049732036651 -12.186227840911663" fill="#ff730a" stroke="none" /><path d="M 89.4739219176387 118.17145234162733 l -4.673971986910675 8.068803835739336 a30.324784687812773,30.324784687812773 0 0,0 -0.44943082376161375,-0.26553165253712646 l 4.81217068170067 -7.987153610908461" fill="#ff2a04" stroke="none" /><path d="M 89.1626897886671 117.98757091392108 l -7.733580307056708 12.836056316466449 a35.9857467656835,35.9857467656835 0 0,0 -0.5278265957047222,-0.32423420561241467 l 7.953386102693738 -12.701033644025655" fill="#ff800b" stroke="none" /><path d="M 88.54995079064634 117.60387380957326 l -8.292651698195236 12.749534204841439 a36.20916482348726,36.20916482348726 0 0,0 -0.5195589285148416,-0.3443353271371918 l 8.510885325450039 -12.604900856612929" fill="#ff830c" stroke="none" /><path d="M 87.95078237400918 117.19931262002967 l -5.397202035747139 7.704082370131668 a30.406523001643414,30.406523001643414 0 0,0 -0.4260861321198996,-0.30400114197908423 l 5.5290154957159245 -7.610036966308365" fill="#ff2b04" stroke="none" /><path d="M 87.65650970185807 116.9893568818739 l -8.957110343558332 12.328404736539035 a36.23874630849263,36.23874630849263 0 0,0 -0.5015011585922252,-0.3709985679271153 l 9.167996472569122 -12.172396219872153" fill="#ff840c" stroke="none" /><path d="M 87.36589467227662 116.77436683061367 l -6.023325209251946 7.997199958303786 a31.011775754056025,31.011775754056025 0 0,0 -0.42363750201147193,-0.3248271717125844 l 6.160091439756905 -7.8923334447638345" fill="#ff3505" stroke="none" /><path d="M 86.79598089348748 116.32954008644616 l -7.78227712379972 9.624418537401331 a33.37712686428845,33.37712686428845 0 0,0 -0.4436453871988785,-0.3650899504404847 l 7.946792639543288 -9.489033468103665" fill="#ff5908" stroke="none" /><path d="M 86.51685102203217 116.09983520530335 l -11.398758007322511 13.610924700372477 a38.75356176401537,38.75356176401537 0 0,0 -0.5077353688992368,-0.4327030964595246 l 11.631358852798805 -13.412697213690002" fill="#ffa80f" stroke="none" /><path d="M 85.97065885151581 115.62618273729859 l -12.911556525846741 14.381170117717204 a40.32682969022229,40.32682969022229 0 0,0 -0.5125356672806549,-0.46818917995749637 l 13.15719174259425 -14.156788171173131" fill="#ffbf11" stroke="none" /><path d="M 85.70375840098266 115.38237550388516 l -10.40381075823656 11.194223505956636 a36.28234007586897,36.28234007586897 0 0,0 -0.4538128848750832,-0.42910840822147 l 10.59495947750246 -11.013480460989236" fill="#ff850c" stroke="none" /><path d="M 85.44109423537348 115.13401014063109 l -14.347976221335188 14.914748480535334 a41.69575183185262,41.69575183185262 0 0,0 -0.5129571176898186,-0.5020365028214291 l 14.6025832914008 -14.665561874791335" fill="#ffd213" stroke="none" /><path d="M 85.18274418774928 114.88116024355367 l -17.034745139563242 17.108213244206087 a45.14277329511053,45.14277329511053 0 0,0 -0.5459252613945731,-0.5530194075353799 l 17.32671102601335 -16.81245334269004" fill="#fdff18" stroke="none" /><path d="M 84.9287848128048 114.62390073753433 l -14.35312147836616 13.927120087286177 a40.999419244028715,40.999419244028715 0 0,0 -0.48709935707869806,-0.5107217284994479 l 14.590727386823815 -13.677991242204229" fill="#ffc812" stroke="none" /><path d="M 84.67929136418377 114.36230785411682 l -16.16758911231198 15.156210956655986 a43.1608137997504,43.1608137997504 0 0,0 -0.503447446384589,-0.5463927709722131 l 16.426082966692295 -14.875666930882428" fill="#ffe615" stroke="none" /><path d="M 84.43433777217949 114.09645910891817 l -11.970974980889851 10.841065214070515 a37.15032312273722,37.15032312273722 0 0,0 -0.4251786378692667,-0.4776927069339186 l 12.155812468407456 -10.633398337395732" fill="#ff910d" stroke="none" /><path d="M 84.19399662182784 113.82643327865904 l -8.934418163281086 7.815456802245139 a32.87034931853847,32.87034931853847 0 0,0 -0.36886400142564946,-0.4290721669891229 l 9.067624674277514 -7.660507536094486" fill="#ff5107" stroke="none" /><path d="M 83.72743513129214 113.27417163493432 l -18.824270492975263 15.355698345175822 a45.29301610053257,45.29301610053257 0 0,0 -0.4876161737781526,-0.6083761512024757 l 19.085804578808276 -15.029394360395088" fill="#fbff18" stroke="none" /><path d="M 83.28015986056508 112.70617746262583 l -15.959452989795231 12.128324206670683 a41.044959161734354,41.044959161734354 0 0,0 -0.42264333227073336,-0.5661998109628987 l 16.16585758876105 -11.851811516198477" fill="#ffc912" stroke="none" /><path d="M 83.06392112726016 112.41649034213515 l -16.08392805943686 11.791745829374895 a40.94337011454485,40.94337011454485 0 0,0 -0.411812720782691,-0.5719718510087448 l 16.28452057259516 -11.513140372915013" fill="#ffc812" stroke="none" /><path d="M 82.85270091963577 112.12312394758628 l -18.950404458830537 13.397917714887985 a44.208231906980195,44.208231906980195 0 0,0 -0.43395451529861456,-0.6251438451447942 l 19.178219881291287 -13.069732607556178" fill="#fff417" stroke="none" /><path d="M 82.6465618267979 111.8261652097733 l -15.920309084363783 10.849504492607391 a40.26572056988225,40.26572056988225 0 0,0 -0.38539451394979085,-0.5761125073406178 l 16.104706703724304 -10.573855071060953" fill="#ffbe11" stroke="none" /><path d="M 82.44556493220864 111.52570212397912 l -16.481156703849738 10.821020562246623 a40.71605975608249,40.71605975608249 0 0,0 -0.3796193563185973,-0.5891776712467168 l 16.664980923545382 -10.53572129107846" fill="#ffc412" stroke="none" /><path d="M 82.05923443525364 110.91462005526583 l -16.882440183163755 10.270766848827606 a40.76121044372228,40.76121044372228 0 0,0 -0.35951217637458693,-0.6025630867055582 l 17.056733235236575 -9.978641668235936" fill="#ffc512" stroke="none" /><line stroke="#e1ed5e" stroke-width="0.3" x1="26.63291911575756" x2="22.317208475507996" y1="142.92168965132927" y2="145.44649492493687" /><path d="M 25.769776987707644 143.4266507060508 a86.0,86.0 0 0,1 -11.730757126820373,-40.83630448921669" fill="none" id="id9" stroke="none" /><text fill="#e1ed5e" style="font-size:6.75px; font-family:Arial;" text-anchor="middle"><textPath startOffset="21.46611528233685" xlink:href="#id9">September</textPath></text><path d="M 81.87401531095188 110.60418214915194 l -16.864563619113763 9.866217342172694 a40.53857084605025,40.53857084605025 0 0,0 -0.34718004978559874,-0.6053376806946849 l 17.03189566505174 -9.574459815619702" fill="#ffc212" stroke="none" /><path d="M 81.69416730710424 110.29060199501025 l -21.27918181061765 11.962066651986238 a45.41095281048821,45.41095281048821 0 0,0 -0.37717816378252855,-0.6846879260688489 l 21.481936383851693 -11.594008207519567" fill="#f9ff18" stroke="none" /><path d="M 81.51974371655577 109.97397251340807 l -17.36030648865928 9.36952480996419 a40.72734742799244,40.72734742799244 0 0,0 -0.32765634260061716,-0.6198023196836696 l 17.51901533948478 -9.069307475194394" fill="#ffc512" stroke="none" /><path d="M 81.35079622478065 109.6543875284942 l -18.492389985736757 9.573207596539762 a41.823419293454755,41.823419293454755 0 0,0 -0.3254685150010997,-0.6421802573031977 l 18.654437170524126 -9.25347312753388" fill="#ffd413" stroke="none" /><path d="M 81.18737489456691 109.33194174019688 l -28.58540831117531 14.17969919054987 a52.90908079921907,52.90908079921907 0 0,0 -0.39769171903168726,-0.8193627336014828 l 28.825253286821717 -13.685547500983104" fill="#9aff22" stroke="none" /><path d="M 80.87730276802145 108.67885076344099 l -15.442365450581486 7.008529369799957 a37.95836473946298,37.95836473946298 0 0,0 -0.2649112743614347,-0.5973049891510733 l 15.5607178096742 -6.741676044156188" fill="#ff9d0e" stroke="none" /><path d="M 80.73074385275274 108.34839909993369 l -17.908629372500947 7.758907982329726 a40.51716319242793,40.51716319242793 0 0,0 -0.2717525085964126,-0.6423426559286056 l 18.039532862289665 -7.449490800734962" fill="#ffc212" stroke="none" /><path d="M 80.58989483394504 108.01547362559985 l -18.06219785182608 7.458850390716543 a40.54168468657713,40.54168468657713 0 0,0 -0.2608131245122793,-0.647316785910808 l 18.18791359059575 -7.146834236962929" fill="#ffc212" stroke="none" /><path d="M 80.45479744820244 107.68017299344265 l -16.698639145889157 6.561632556921608 a38.94155988582585,38.94155988582585 0 0,0 -0.23977935498996286,-0.6259882327719082 l 16.80911278047263 -6.273220757316542" fill="#ffab0f" stroke="none" /><path d="M 80.32549172779594 107.34259656027581 l -37.422018931443354 13.966030748163156 a60.94317858863943,60.94317858863943 0 0,0 -0.3583335244248971,-0.9859799610923752 l 37.65687671687347 -13.319802990064664" fill="#3eff2d" stroke="none" /><path d="M 80.0844068197444 106.66101706037122 l -18.718255778106393 6.26055272116975 a40.737467409704806,40.737467409704806 0 0,0 -0.2166995611255728,-0.6669326717892807 l 18.823247590248215 -5.937421149402666" fill="#ffc512" stroke="none" /><path d="M 79.97269907076064 106.31721596034903 l -18.69741034374179 5.897728278913254 a40.60551841737819,40.60551841737819 0 0,0 -0.20452270176513604,-0.6683920229727952 l 18.796159818013056 -5.575009283388411" fill="#ffc312" stroke="none" /><path d="M 79.86692584326677 105.97154293290107 l -20.15670773733956 5.978552738763323 a42.024651237504486,42.024651237504486 0 0,0 -0.19973188694268793,-0.695292900809403 l 20.256632261168352 -5.630702362449323" fill="#ffd714" stroke="none" /><path d="M 79.76711848015287 105.62410040840567 l -37.83118080766186 10.515870377737848 a60.26552904397682,60.26552904397682 0 0,0 -0.26922024809029055,-1.0018686955345335 l 38.00658913209392 -9.863110749027776" fill="#45ff2d" stroke="none" /><path d="M 79.67330655649465 105.27499134158121 l -18.886125164579063 4.90114867900489 a40.511713971505884,40.511713971505884 0 0,0 -0.16935572024823886,-0.6764919175287064 l 18.96769219912236 -4.575328922078791" fill="#ffc112" stroke="none" /><path d="M 79.58551787078972 104.9243191809786 l -19.780825725343 4.7714705138429885 a41.34816938303946,41.34816938303946 0 0,0 -0.16094171262748533,-0.6933326857632505 l 19.86002800390104 -4.430269170731164" fill="#ffcd13" stroke="none" /><path d="M 79.4281124754447 104.21870165774334 l -19.423172481450035 3.983133285573387 a40.82737955491851,40.82737955491851 0 0,0 -0.1352554062887422,-0.6896644027092272 l 19.488857820714443 -3.648205155796205" fill="#ffc612" stroke="none" /><path d="M 79.35854240842038 103.8639653848113 l -19.558870796395457 3.6613111931639075 a40.89860865697093,40.89860865697093 0 0,0 -0.12357915346009812,-0.6930975210531531 l 19.618996392194745 -3.3240949213775406" fill="#ffc712" stroke="none" /><path d="M 79.29508885075956 103.50808413554451 l -19.122793854489444 3.240022102228797 a40.39533418181369,40.39533418181369 0 0,0 -0.11025665177575927,-0.686568275855857 l 19.175732260626496 -2.9103745966797265" fill="#ffc011" stroke="none" /><path d="M 79.23777060512086 103.15116336523772 l -39.95425249768304 6.064010485656686 a61.411811587935105,61.411811587935105 0 0,0 -0.14962826755650102,-1.046499754791861 l 40.05271481625614 -5.375365258884424" fill="#39ff2e" stroke="none" /><path d="M 79.18660465613746 102.79330883721812 l -20.124536227494673 2.7008589401418135 a41.304964845728975,41.304964845728975 0 0,0 -0.08850767041284756,-0.7054932166640814 l 20.16804540715437 -2.354047969190323" fill="#ffcd13" stroke="none" /><path d="M 79.10278846688536 102.07522291339032 l -16.371449117405817 1.6257865926277695 a37.45197642377887,37.45197642377887 0 0,0 -0.05818504052605914,-0.6420670737238432 l 16.39700875420895 -1.3437381303553602" fill="#ff960d" stroke="none" /><path d="M 79.07016306316243 101.71520430193888 l -23.84680898407146 1.9542507416770296 a44.92675060855812,44.92675060855812 0 0,0 -0.05652949329082247,-0.7713000230617005 l 23.876915036026617 -1.5434775821185684" fill="#fffe18" stroke="none" /><path d="M 79.04373962182676 101.35467743843564 l -21.662536251858413 1.4003332937326698 a42.70775000308913,42.70775000308913 0 0,0 -0.04110854633073636,-0.73402070989477 l 21.683431149076682 -1.0272408675024622" fill="#ffe015" stroke="none" /><path d="M 79.0235259727143 100.99374915477108 l -19.812554336945695 0.9386090865693274 a40.83477492616985,40.83477492616985 0 0,0 -0.02721903592703046,-0.7024023722092805 l 19.825775505723925 -0.5974294673460502" fill="#ffc612" stroke="none" /><path d="M 79.0095281055655 100.63252640178507 l -19.493134793437697 0.5874056797014561 a40.50198321985938,40.50198321985938 0 0,0 -0.01500104221985458,-0.697039486493071 l 19.50035789834256 -0.2517763774182562" fill="#ffc112" stroke="none" /><line stroke="#e1ed5e" stroke-width="0.3" x1="15.007084014347285" x2="10.007500721073583" y1="101.09737516637583" y2="101.16192664675087" /><path d="M 14.007167355692545 101.11028546245083 a86.0,86.0 0 0,1 10.666146001902534,-42.60595125391555" fill="none" id="id10" stroke="none" /><text fill="#e1ed5e" style="font-size:6.75px; font-family:Arial;" text-anchor="middle"><textPath startOffset="22.20632615414155" xlink:href="#id10">October</textPath></text><path d="M 79.00175016825051 100.2711162175752 l -39.51289987368933 0.5101657540517932 a60.51619320639079,60.51619320639079 0 0,0 -0.004483105038101975,-1.0417157266335906 l 39.515827276016935 0.17005945078547266" fill="#43ff2d" stroke="none" /><path d="M 79.00486145842228 99.54816195383935 l -23.567483389642234 -0.5071976841977661 a44.5729404786912,44.5729404786912 0 0,0 0.023110656902016,-0.7669301910476186 l 23.555261038284574 0.9127980226703791" fill="#fff917" stroke="none" /><path d="M 79.01574976396665 99.18683210126434 l -22.017788540483288 -0.8532188970719772 a43.03431402834583,43.03431402834583 0 0,0 0.03505532548435819,-0.7399625157015863 l 21.99983960676543 1.2320925193965726" fill="#ffe415" stroke="none" /><path d="M 79.03285615573316 98.82574320788736 l -21.68466790704653 -1.2144414500937881 a42.71864844493321,42.71864844493321 0 0,0 0.047436839753623165,-0.7338269149462775 l 21.660550476288496 1.5875274292930774" fill="#ffe015" stroke="none" /><path d="M 79.08570108090925 98.10471618934814 l -41.094275402730744 -3.7240222673765975 a62.2626685119055,62.2626685119055 0 0,0 0.1059143562828504,-1.0665431136843422 l 41.02408392076567 4.43084091176537" fill="#30ff2f" stroke="none" /><path d="M 79.12142395522702 97.74499172005258 l -23.270625335968173 -2.513363588571928 a44.40596078043717,44.40596078043717 0 0,0 0.08862086384974273,-0.7592494416150749 l 23.22391411911484 2.913556768511865" fill="#fff717" stroke="none" /><path d="M 79.16333360222342 97.38593545837743 l -24.038801849705393 -3.0157885306025296 a45.22723621940219,45.22723621940219 0 0,0 0.10355745090406215,-0.7716232941200334 l 23.983328399743495 3.4291301667872225" fill="#fcff18" stroke="none" /><path d="M 79.21141760316559 97.0276538004421 l -20.714731027867916 -2.9617869496923066 a41.92539757071013,41.92539757071013 0 0,0 0.10829551111548667,-0.7135321097660109 l 20.66067962331313 3.3179181718504096" fill="#ffd513" stroke="none" /><path d="M 79.32604984820605 96.31383870115002 l -22.525253352748486 -4.016248300206305 a43.880500191525904,43.880500191525904 0 0,0 0.13898474784345352,-0.7424620804741396 l 22.452782880995173 4.403388458143017" fill="#fff016" stroke="none" /><path d="M 79.3925641242962 95.95851677861259 l -11.959743086039076 -2.3455174775682877 a33.18757182221454,33.18757182221454 0 0,0 0.11476689679051934,-0.5596441473843655 l 11.917596893333561 2.5510372811160553" fill="#ff5608" stroke="none" /><path d="M 79.46518482838121 95.60439243477599 l -38.868828166131294 -8.320119451309877 a60.749342015841044,60.749342015841044 0 0,0 0.22768162869426872,-1.0206520975554576 l 38.71985215043498 8.987949718415294" fill="#40ff2d" stroke="none" /><path d="M 79.54389044137918 95.25157060432595 l -24.860053717573138 -5.770706766713219 a46.521036958321496,46.521036958321496 0 0,0 0.18778371580571696,-0.7784847345558661 l 24.757037201506606 6.197776732928482" fill="#ebff1a" stroke="none" /><path d="M 79.62865764111835 94.90015583598534 l -20.271032458474945 -5.074732178207837 a41.89659454583648,41.89659454583648 0 0,0 0.18116021270973462,-0.6980841994722934 l 20.180675913894905 5.422912803228994" fill="#ffd513" stroke="none" /><path d="M 79.71946130924805 94.55025226153421 l -20.075425308424474 -5.394630060946799 a41.78761012739562,41.78761012739562 0 0,0 0.19264730889271517,-0.6930548697384769 l 19.9795912289654 5.739396234104218" fill="#ffd313" stroke="none" /><path d="M 80.2630227832202 92.82701384747504 l -10.687803995454761 -3.884255892798055 a32.37174560417156,32.37174560417156 0 0,0 0.1948400050742806,-0.5220743452430967 l 10.619359401878853 4.067653375070493" fill="#ff4a06" stroke="none" /><path d="M 80.52162464483688 92.15188598940014 l -18.46653670655625 -7.440429851638767 a40.90911786874915,40.90911786874915 0 0,0 0.2687890987858872,-0.6508941228700919 l 18.335725920884165 7.757198544962169" fill="#ffc712" stroke="none" /><path d="M 80.65960295795068 91.81776055985345 l -20.884445594344307 -8.83547189109474 a43.67654363701516,43.67654363701516 0 0,0 0.29889167060002986,-0.689883185042793 l 20.729263213901596 9.193654220724133" fill="#ffed16" stroke="none" /><path d="M 80.803312248108 91.48605970444005 l -19.19182506856571 -8.511783642492945 a41.99468052243324,41.99468052243324 0 0,0 0.2987575223769425,-0.6582725987473136 l 19.042465229225417 8.84087825008233" fill="#ffd614" stroke="none" /><path d="M 80.95270993114464 91.15688171328213 l -18.187409503587492 -8.44390005023251 a41.05196530291984,41.05196530291984 0 0,0 0.3030843260433543,-0.638372886787152 l 18.039366983702386 8.755715352660195" fill="#ffc912" stroke="none" /><path d="M 81.10775173730289 90.83032412892265 l -20.628475034976642 -10.012383235447812 a43.92993240989016,43.92993240989016 0 0,0 0.3360430368229622,-0.6774422566110303 l 20.453071985200268 10.365985080557804" fill="#fff116" stroke="none" /><path d="M 81.43458229118936 90.18545643968196 l -23.156934166963406 -12.241832781237193 a47.19362651212792,47.19362651212792 0 0,0 0.3858458781257507,-0.7149138123339371 l 22.94278018961918 12.638627576903602" fill="#e2ff1b" stroke="none" /><path d="M 81.6062741919709 89.86733742301443 l -18.26872056646656 -10.063800186280854 a41.8572823091846,41.8572823091846 0 0,0 0.3530808436827416,-0.6280914230923373 l 18.092782081491386 10.376775119307977" fill="#ffd413" stroke="none" /><line stroke="#e1ed5e" stroke-width="0.3" x1="26.266209847984243" x2="21.928928074336255" y1="57.711370442889674" y2="55.22380399835377" /><path d="M 25.398753493254645 57.213857153982495 a86.0,86.0 0 0,1 29.58750427330803,-30.492523968695096" fill="none" id="id11" stroke="none" /><text fill="#e1ed5e" style="font-size:6.75px; font-family:Arial;" text-anchor="middle"><textPath startOffset="21.46611528233685" xlink:href="#id11">November</textPath></text><path d="M 81.78341655067845 89.55222093294921 l -24.85976484708782 -14.257850902930015 a49.6582312891547,49.6582312891547 0 0,0 0.431649033559533,-0.7378281194432574 l 24.610656139057962 14.683658434727164" fill="#c2ff1e" stroke="none" /><path d="M 81.96595687620814 89.24020034530311 l -19.003499123619576 -11.338214171097183 a43.12889693434987,43.12889693434987 0 0,0 0.385868493871731,-0.634266346636088 l 18.80551483146163 11.663648290940346" fill="#ffe615" stroke="none" /><path d="M 82.34701348167596 88.62581576622439 l -17.54315841329401 -11.303419714731678 a41.869348441226265,41.869348441226265 0 0,0 0.39557236219575753,-0.6024838462839716 l 17.34598941574033 11.603721624993318" fill="#ffd413" stroke="none" /><path d="M 82.54541684631803 88.32363383020206 l -46.61324193796955 -31.182256054869008 a77.08143557933496,77.08143557933496 0 0,0 0.7472330683373183,-1.0964723240672878 l 46.06958440396349 31.980006402206712" fill="#44ffe3" stroke="none" /><path d="M 82.7489923806493 88.02491185347247 l -17.564462705960636 -12.192678467913781 a42.38157520789828,42.38157520789828 0 0,0 0.42116666184386653,-0.5957103750269972 l 17.35198342431289 12.493215343272565" fill="#ffdc14" stroke="none" /><path d="M 83.17141714833178 87.43820079747576 l -18.934105169558798 -14.133479290319206 a44.62743268791163,44.62743268791163 0 0,0 0.46481396451787343,-0.6116406924250327 l 18.688015264816816 14.457304758625265" fill="#fffa17" stroke="none" /><path d="M 83.39014120810768 87.1503855733568 l -17.333739872333258 -13.409618752444473 a42.91520962819261,42.91520962819261 0 0,0 0.4570386435142668,-0.5803926642621954 l 17.10034714822502 13.706003810659716" fill="#ffe315" stroke="none" /><path d="M 83.6137871275137 86.86637796730984 l -16.635967516411363 -13.333801483533778 a42.32007685749237,42.32007685749237 0 0,0 0.4604857798752366,-0.564501117675536 l 16.403983244459734 13.618186770817397" fill="#ffdb14" stroke="none" /><path d="M 84.07557802195018 86.31012108654704 l -47.77326593414944 -41.06963674035889 a84.0,84.0 0 0,0 0.9520325456886258,-1.0883377751882275 l 47.05924152488297 41.885890071750055" fill="#4dd2ff" stroke="none" /><path d="M 84.31358615837235 86.03803664274999 l -21.271412154131944 -18.932987491686404 a49.47685007846384,49.47685007846384 0 0,0 0.5717082054202755,-0.6312944796764969 l 20.942360308095623 19.296334758632455" fill="#c5ff1e" stroke="none" /><line stroke="#e1ed5e" stroke-width="0.3" x1="56.762969772571076" x2="54.21961505331055" y1="26.818313649435495" y2="22.513508569990535" /><path d="M 56.25429882871897 25.957352633546506 a86.0,86.0 0 0,1 42.265352541879196,-11.944610805530505" fill="none" id="id12" stroke="none" /><text fill="#e1ed5e" style="font-size:6.75px; font-family:Arial;" text-anchor="middle"><textPath startOffset="22.20632615414155" xlink:href="#id12">December</textPath></text></svg>