<?xml version="1.0" encoding="utf-8" ?>
<svg baseProfile="full" height="200mm" version="1.1" viewBox="0,0,200,200" width="200mm" xmlns="http://www.w3.org/2000/svg" xmlns:ev="http://www.w3.org/2001/xml-events" xmlns:xlink="http://www.w3.org/1999/xlink"><defs /><rect fill="#1a1a1a" height="200" width="200" x="0" y="0" /><rect fill="#1a1a1a" height="200" width="180" x="10" y="0" /><text alignment-baseline="middle" fill="#e1ed5e" style="dominant-baseline: central; font-size:9.0px; font-family:Arial;" text-anchor="middle" x="100.0" y="100.0">2022</text><line stroke="#e1ed5e" stroke-width="0.3" x1="100.0" x2="100.0" y1="15.0" y2="10.0" /><path d="M 100.0 14.0 a86.0,86.0 0 0,1 42.46469731375804,11.215312516191453" fill="none" id="id1" stroke="none" /><text fill="#e1ed5e" style="font-size:6.75px; font-family:Arial;" text-anchor="middle"><textPath startOffset="22.20632615414155" xlink:href="#id1">January</textPath></text><line stroke="#e1ed5e" stroke-width="0.3" x1="143.23703022742887" x2="145.7803849466894" y1="26.81831364943548" y2="22.513508569990506" /><path d="M 143.74570117128098 25.957352633546492 a86.0,86.0 0 0,1 28.547481713284135,27.462654790039103" fill="none" id="id2" stroke="none" /><text fill="#e1ed5e" style="font-size:6.75px; font-family:Arial;" text-anchor="middle"><textPath startOffset="19.985693538727396" xlink:href="#id2">February</textPath></text><line stroke="#e1ed5e" stroke-width="0.3" x1="172.23445277983987" x2="176.4835382374775" y1="55.19839476539836" y2="52.563006222186495" /><path d="M 173.08426987136738 54.67131705675599 a86.0,86.0 0 0,1 12.851231095245387,41.99856678651699" fill="none" id="id3" stroke="none" /><text fill="#e1ed5e" style="font-size:6.75px; font-family:Arial;" text-anchor="middle"><textPath startOffset="22.20632615414155" xlink:href="#id3">March</textPath></text><line stroke="#e1ed5e" stroke-width="0.3" x1="184.98032266829074" x2="189.97916517819016" y1="98.17113171792111" y2="98.06355123074" /><path d="M 185.9800911702706 98.14961562048488 a86.0,86.0 0 0,1 -9.607161424134198,41.387399972396054" fill="none" id="id4" stroke="none" /><text fill="#e1ed5e" style="font-size:6.75px; font-family:Arial;" text-anchor="middle"><textPath startOffset="21.466115282336823" xlink:href="#id4">April</textPath></text><line stroke="#e1ed5e" stroke-width="0.3" x1="174.80103733775053" x2="179.2010983576182" y1="140.37084112569926" y2="142.7455964860345" /><path d="M 175.68104954172406 140.8457921977663 a86.0,86.0 0 0,1 -30.038265399797805,32.042727171017184" fill="none" id="id5" stroke="none" /><text fill="#e1ed5e" style="font-size:6.75px; font-family:Arial;" text-anchor="middle"><textPath startOffset="22.206326154141568" xlink:href="#id5">May</textPath></text><line stroke="#e1ed5e" stroke-width="0.3" x1="143.8653032363475" x2="146.44561519142675" y1="172.8068346515853" y2="177.08958963109032" /><path d="M 144.38136562736335 173.6633856474863 a86.0,86.0 0 0,1 -40.68145358897372,12.25698825130547" fill="none" id="id6" stroke="none" /><text fill="#e1ed5e" style="font-size:6.75px; font-family:Arial;" text-anchor="middle"><textPath startOffset="21.466115282336833" xlink:href="#id6">June</textPath></text><line stroke="#e1ed5e" stroke-width="0.3" x1="102.19456741930631" x2="102.32365962044197" y1="184.97166512339345" y2="189.96999836594603" /><path d="M 102.22038585953345 185.97133177190398 a86.0,86.0 0 0,1 -42.740103519485714,-10.115201625700543" fill="none" id="id7" stroke="none" /><text fill="#e1ed5e" style="font-size:6.75px; font-family:Arial;" text-anchor="middle"><textPath startOffset="22.20632615414155" xlink:href="#id7">July</textPath></text><path d="M 95.86986931433489 120.58985236759428 l -1.039462299617494 5.18200921948737 a26.285234282714267,26.285234282714267 0 0,0 -0.44285430131206266,-0.09280442463166415 l 1.1285080623589434 -5.163348814129165" fill="#ff2b04" stroke="none" /><path d="M 95.51606077576429 120.51570834832081 l -0.5137393376396068 2.350550685679773 a23.406037537734612,23.406037537734612 0 0,0 -0.39286460069551166,-0.08941470406096899 l 0.5541240877279812 -2.3413592480411176" fill="#ff0000" stroke="none" /><path d="M 94.81253420990036 120.34920634021253 l -5.2258662456137 20.499842281620587 a42.155453471584195,42.155453471584195 0 0,0 -0.7016063750444885,-0.18530062045036105 l 5.577963063469678 -20.406850311866645" fill="#fdff18" stroke="none" /><path d="M 93.76903079525671 120.05430185196036 l -1.9410135595928242 6.247129546586523 a27.541724635778973,27.541724635778973 0 0,0 -0.45152513864198546,-0.14456409069924506 l 2.04826004332575 -6.212792609227571" fill="#ff3d05" stroke="none" /><path d="M 93.42475214034765 119.94407469862007 l -2.0575229816414002 6.240889000061697 a27.571308570678568,27.571308570678568 0 0,0 -0.4494520679176452,-0.15247854403375188 l 2.1646447824962713 -6.204547469129821" fill="#ff3d05" stroke="none" /><path d="M 93.08242187328487 119.8279376855182 l -2.211131198047893 6.337792043155089 a27.712429452684077,27.712429452684077 0 0,0 -0.44904750810366867,-0.16101246006088957 l 2.3198982667812884 -6.298792042054241" fill="#ff3f05" stroke="none" /><path d="M 92.7421414339146 119.70592522655815 l -1.0906633680181177 2.961277156590187 a24.155742223388895,24.155742223388895 0 0,0 -0.3889417040650476,-0.14706447205873127 l 1.1414752928434484 -2.9420644344248226" fill="#ff0b01" stroke="none" /><path d="M 92.40401165467489 119.57807347666478 l -2.4370836475306117 6.281394935195934 a27.737603360020998,27.737603360020998 0 0,0 -0.44364173189245687,-0.17653420084189034 l 2.5448464554649264 -6.238513889947977" fill="#ff4006" stroke="none" /><path d="M 92.06813273071674 119.44442032107085 l -3.2186231317584206 7.890230497350139 a29.521459509121932,29.521459509121932 0 0,0 -0.4688690144562953,-0.19598728606913512 l 3.353963605712178 -7.833658168261031" fill="#ff5908" stroke="none" /><path d="M 91.7346041902142 119.30500536409082 l -3.223782808078066 7.529602433428256 a29.19070744192151,29.19070744192151 0 0,0 -0.46021141553021744,-0.20174316020163033 l 3.3529148982660266 -7.472994719932173" fill="#ff5407" stroke="none" /><path d="M 91.40352486487194 119.15986991738527 l -3.0026923123697484 6.6924167408855295 a28.335162094763092,28.335162094763092 0 0,0 -0.44328607586893165,-0.2034908956223861 l 3.1174463840060995 -6.639738774929069" fill="#ff4806" stroke="none" /><path d="M 91.07499286063937 119.00905698771935 l -3.0320112191947897 6.45777343963078 a28.134138338364615,28.134138338364615 0 0,0 -0.436598061009607,-0.2095936013050882 l 3.142721948204639 -6.404625561826129" fill="#ff4506" stroke="none" /><path d="M 90.7491055286396 118.85261126421891 l -1.1458692053775883 2.3351932892005327 a23.60118125738286,23.60118125738286 0 0,0 -0.3631728332092449,-0.18210239791545985 l 1.1858959462695937 -2.315123050375771" fill="#ff0300" stroke="none" /><path d="M 90.42595943632237 118.69057910512821 l -3.20131588660259 6.249654722171498 a28.021866386664918,28.021866386664918 0 0,0 -0.42741232056360806,-0.22360192536509285 l 3.308419109692694 -6.193623377861688" fill="#ff4406" stroke="none" /><path d="M 90.10565033884886 118.52300852407294 l -16.043330632701192 30.034389347573445 a55.0507415671348,55.0507415671348 0 0,0 -0.8319928363392091,-0.45366883122618645 l 16.557946280909043 -29.75377986458749" fill="#69ff28" stroke="none" /><line stroke="#e1ed5e" stroke-width="0.3" x1="58.666819895761336" x2="56.23545636021788" y1="174.27360380694188" y2="178.64263932499728" /><path d="M 58.180547188652646 175.14741091055294 a86.0,86.0 0 0,1 -31.652253787137756,-30.449443065178592" fill="none" id="id8" stroke="none" /><text fill="#e1ed5e" style="font-size:6.75px; font-family:Arial;" text-anchor="middle"><textPath startOffset="22.20632615414155" xlink:href="#id8">August</textPath></text><path d="M 89.7882731507175 118.34994917583269 l -4.2068365209001115 7.559469371723142 a29.651187819923877,29.651187819923877 0 0,0 -0.443851783497331,-0.25203062648976887 l 4.336337071318649 -7.48593557943874" fill="#ff5b08" stroke="none" /><path d="M 89.4739219176387 118.17145234162733 l -4.8863807192852375 8.435490756270331 a30.74854967843549,30.74854967843549 0 0,0 -0.4557112656766207,-0.2692422483222518 l 5.030859855990241 -8.35012993565433" fill="#ff6a09" stroke="none" /><path d="M 89.1626897886671 117.98757091392108 l -3.650936522260386 6.059758216361512 a28.07460296626854,28.07460296626854 0 0,0 -0.4117886508215626,-0.2529542224015349 l 3.754704373014257 -5.9960155271316" fill="#ff4406" stroke="none" /><path d="M 88.8546689885994 117.79835938074946 l -3.22116011118311 5.143980490406918 a27.069300433127708,27.069300433127708 0 0,0 -0.3927861165634814,-0.2506946836227089 l 3.3092280297935153 -5.087771377960405" fill="#ff3605" stroke="none" /><path d="M 88.54995079064634 117.60387380957326 l -3.9148678554096765 6.01891209790502 a28.180076125475786,28.180076125475786 0 0,0 -0.40435094895427626,-0.2679817603835622 l 4.017893503103914 -5.9506323164301405" fill="#ff4606" stroke="none" /><path d="M 87.95078237400918 117.19931262002967 l -5.174885144476592 7.386742453768356 a30.019057619110118,30.019057619110118 0 0,0 -0.4206565857635126,-0.30012730481719896 l 5.301269058088992 -7.296570887106938" fill="#ff6008" stroke="none" /><path d="M 87.65650970185807 116.9893568818739 l -6.124708442374193 8.429937968241004 a31.419976374852343,31.419976374852343 0 0,0 -0.43481511255360594,-0.321665825305944 l 6.2689085253463634 -8.323262194195294" fill="#ff740a" stroke="none" /><path d="M 87.36589467227662 116.77436683061367 l -7.818696534178265 10.380923729815654 a33.99598372489828,33.99598372489828 0 0,0 -0.4644033846322048,-0.3560847121597501 l 7.9962286473039565 -10.244799675828538" fill="#ff970d" stroke="none" /><path d="M 86.79598089348748 116.32954008644616 l -3.673925743255824 4.543580042953158 a26.84310276939231,26.84310276939231 0 0,0 -0.35679580121343735,-0.2936186538641783 l 3.7515916730139502 -4.479666270231799" fill="#ff3304" stroke="none" /><path d="M 86.51685102203217 116.09983520530335 l -5.381225805513137 6.425564889393149 a29.381257382858642,29.381257382858642 0 0,0 -0.38494277369522145,-0.32805658289819944 l 5.491034055785415 -6.331983916271998" fill="#ff5708" stroke="none" /><path d="M 86.24171649860922 115.8653595955263 l -41.274850504172335 47.596078786578886 a84.0,84.0 0 0,0 -1.0842305883736492,-0.9567074329108447 l 42.08802344545257 -46.878548211895755" fill="#4dd2ff" stroke="none" /><path d="M 85.97065885151581 115.62618273729859 l -7.384354792369236 8.224853623655415 a32.05336658354115,32.05336658354115 0 0,0 -0.4073837134405333,-0.37213536325330776 l 7.524838055276624 -8.096525493815532" fill="#ff7c0b" stroke="none" /><path d="M 85.70375840098266 115.38237550388516 l -4.9115223686592095 5.284667361500137 a28.214621341383385,28.214621341383385 0 0,0 -0.35290333202921503,-0.33369212754898564 l 5.0017615350792415 -5.199340597205221" fill="#ff4606" stroke="none" /><path d="M 85.44109423537348 115.13401014063109 l -6.773518645587408 7.041085472174791 a30.770232313951965,30.770232313951965 0 0,0 -0.3785471897008269,-0.3704880987443512 l 6.8937157876640285 -6.92344727050787" fill="#ff6a09" stroke="none" /><path d="M 85.18274418774928 114.88116024355367 l -10.25714274904486 10.301380149173216 a35.537104606903796,35.537104606903796 0 0,0 -0.42976099396692463,-0.435345617929977 l 10.432944368067318 -10.123294037262575" fill="#ffab0f" stroke="none" /><path d="M 84.9287848128048 114.62390073753433 l -10.076225314111301 9.777162423358467 a35.04005775036094,35.04005775036094 0 0,0 -0.41629832609609707,-0.43648713057298244 l 10.243030191586355 -9.602268176202985" fill="#ffa50f" stroke="none" /><path d="M 84.67929136418377 114.36230785411682 l -7.632537482435992 7.155077198881231 a31.46187163669773,31.46187163669773 0 0,0 -0.3669856413612573,-0.39829043315320345 l 7.754569531792979 -7.022635510926683" fill="#ff740a" stroke="none" /><path d="M 84.43433777217949 114.09645910891817 l -5.651363020684747 5.1179452929635705 a28.624386402415016,28.624386402415016 0 0,0 -0.3276008550508042,-0.3680630335224016 l 5.73862272538389 -5.019908089700305" fill="#ff4c07" stroke="none" /><path d="M 84.19399662182784 113.82643327865904 l -8.262797968460584 7.227951435448267 a31.978028612678827,31.978028612678827 0 0,0 -0.35885057008274873,-0.41742428411443355 l 8.38599104811411 -7.084650052172303" fill="#ff7b0b" stroke="none" /><path d="M 83.95833913139862 113.55231037782056 l -3.01266279234188 2.5451567365722787 a24.94385089906812,24.94385089906812 0 0,0 -0.2742683309835256,-0.330373872943266 l 3.056027123218942 -2.4929216065152517" fill="#ff1702" stroke="none" /><path d="M 83.72743513129214 113.27417163493432 l -11.357975473701332 9.265147632209619 a35.6576453602835,35.6576453602835 0 0,0 -0.38388356734572354,-0.4789537750606327 l 11.515776953101916 -9.068266023570727" fill="#ffad10" stroke="none" /><path d="M 83.50135304334701 112.99209946851258 l -4.74452493529685 3.7361451549430464 a27.038981493634335,27.038981493634335 0 0,0 -0.2848018274170821,-0.36814475360926513 l 4.808133579932001 -3.6539224072205285" fill="#ff3505" stroke="none" /><path d="M 83.28015986056508 112.70617746262583 l -12.09472725350855 9.19134091974223 a36.19089119306996,36.19089119306996 0 0,0 -0.3726605937507357,-0.49923976465297054 l 12.251149113954371 -8.981788275579952" fill="#ffb410" stroke="none" /><path d="M 83.06392112726016 112.41649034213515 l -7.59304203772537 5.566750948508734 a30.4150413440084,30.4150413440084 0 0,0 -0.305917683218378,-0.42489290567363397 l 7.687739513319356 -5.435224437383962" fill="#ff6609" stroke="none" /><path d="M 82.85270091963577 112.12312394758628 l -8.946273395159448 6.3250066806560765 a31.956345977162357,31.956345977162357 0 0,0 -0.3136881985783448,-0.4518912460234891 l 9.053822500899928 -6.170074172445575" fill="#ff7b0b" stroke="none" /><path d="M 82.6465618267979 111.8261652097733 l -7.5157993547620805 5.1219293817049385 a30.095130594566218,30.095130594566218 0 0,0 -0.2880489424650633,-0.43059408599153215 l 7.6028514026378735 -4.991798381507586" fill="#ff6109" stroke="none" /><path d="M 82.44556493220864 111.52570212397912 l -11.298829147759246 7.418463687603623 a34.516550728442056,34.516550728442056 0 0,0 -0.3218177507442117,-0.49946829578995905 l 11.424851761880502 -7.222873791892216" fill="#ff9e0e" stroke="none" /><path d="M 82.24976979558568 111.22182372390057 l -3.805540013724982 2.4058898795380985 a25.502270639191494,25.502270639191494 0 0,0 -0.23138496788207905,-0.37306624280359696 l 3.846389621275017 -2.340027305369237" fill="#ff1f03" stroke="none" /><path d="M 82.05923443525364 110.91462005526583 l -11.508086293218069 7.001172218676359 a34.47042919018244,34.47042919018244 0 0,0 -0.3040277480434142,-0.5095679933641577 l 11.626894916959715 -6.802042131426091" fill="#ff9d0e" stroke="none" /><line stroke="#e1ed5e" stroke-width="0.3" x1="26.63291911575756" x2="22.317208475507996" y1="142.92168965132927" y2="145.44649492493687" /><path d="M 25.769776987707644 143.4266507060508 a86.0,86.0 0 0,1 -11.730757126820373,-40.83630448921669" fill="none" id="id9" stroke="none" /><text fill="#e1ed5e" style="font-size:6.75px; font-family:Arial;" text-anchor="middle"><textPath startOffset="21.46611528233685" xlink:href="#id9">September</textPath></text><path d="M 81.87401531095188 110.60418214915194 l -11.459885581722647 6.7043372374937515 a34.27693923087019,34.27693923087019 0 0,0 -0.29355424279420356,-0.5118365660724629 l 11.573591820669227 -6.506080825562981" fill="#ff9b0e" stroke="none" /><path d="M 81.69416730710424 110.29060199501025 l -15.520514193558444 8.724838525690272 a38.804751279695495,38.804751279695495 0 0,0 -0.3223078118354927,-0.585082299113877 l 15.668398414845454 -8.456385708178573" fill="#ffd614" stroke="none" /><path d="M 81.51974371655577 109.97397251340807 l -8.195605978158152 4.423247573146618 a30.313059456621605,30.313059456621605 0 0,0 -0.24387216015362467,-0.46131422138751316 l 8.270530646536663 -4.281518336672979" fill="#ff6409" stroke="none" /><path d="M 81.35079622478065 109.6543875284942 l -8.730049899553396 4.5194039321600465 a30.830502690641815,30.830502690641815 0 0,0 -0.2399219886125128,-0.473388844937452 l 8.806550557952177 -4.36846087551991" fill="#ff6b09" stroke="none" /><path d="M 81.18737489456691 109.33194174019688 l -13.494850646571326 6.694076946767643 a36.06391914949468,36.06391914949468 0 0,0 -0.2710748662598957,-0.558494514218606 l 13.60807876944594 -6.460793476583753" fill="#ffb210" stroke="none" /><path d="M 80.87730276802145 108.67885076344099 l -10.727852389474313 4.868844011438559 a32.78102113138207,32.78102113138207 0 0,0 -0.2287786142103023,-0.5158353792539664 l 10.810072088415895 -4.683460295691897" fill="#ff860c" stroke="none" /><path d="M 80.73074385275274 108.34839909993369 l -12.026066097550496 5.2102893135745765 a34.10623441396509,34.10623441396509 0 0,0 -0.22875379297296042,-0.540706393810024 l 12.113970871715763 -5.002508394098394" fill="#ff980e" stroke="none" /><path d="M 80.58989483394504 108.01547362559985 l -12.56302646132988 5.187947535421279 a34.59207245045282,34.59207245045282 0 0,0 -0.22253802645120063,-0.5523211314411575 l 12.650467102038467 -4.970927036137316" fill="#ff9f0e" stroke="none" /><path d="M 80.45479744820244 107.68017299344265 l -7.883240246971247 3.0976731341185557 a29.470009187557423,29.470009187557423 0 0,0 -0.18145908420871518,-0.47373240890141444 l 7.93539361077347 -2.9615171583839834" fill="#ff5808" stroke="none" /><path d="M 80.32549172779594 107.34259656027581 l -17.66651540798751 6.593206471646008 a39.85672660454128,39.85672660454128 0 0,0 -0.23434946530516512,-0.644829079429419 l 17.7773891342979 -6.288129595210472" fill="#ffe415" stroke="none" /><path d="M 80.20201598880116 107.00284435728193 l -3.6385952327183837 1.2870257941142729 a24.859509121932014,24.859509121932014 0 0,0 -0.13922410528522175,-0.40465041931795176 l 3.660210168946834 -1.2242026717070242" fill="#ff1602" stroke="none" /><path d="M 80.0844068197444 106.66101706037122 l -12.169798007930439 4.0703398296196776 a33.832445202782516,33.832445202782516 0 0,0 -0.17996887124852046,-0.5538872322455866 l 12.238059130195209 -3.860253697396287" fill="#ff950d" stroke="none" /><path d="M 79.97269907076064 106.31721596034903 l -11.829224260633016 3.7312948240927546 a33.403753773461084,33.403753773461084 0 0,0 -0.168248707001405,-0.549846509285631 l 11.89169974014055 -3.5271213422550756" fill="#ff8f0d" stroke="none" /><path d="M 79.86692584326677 105.97154293290107 l -13.249759578914285 3.9299268238995113 a34.8202913768211,34.8202913768211 0 0,0 -0.16549149834181157,-0.5760976161727749 l 13.315443714142202 -3.701271732222141" fill="#ffa20f" stroke="none" /><path d="M 79.76711848015287 105.62410040840567 l -17.85967614054493 4.96442445815255 a39.53681585509909,39.53681585509909 0 0,0 -0.17662022622323142,-0.6572695661135334 l 17.942484443109937 -4.6562639588634775" fill="#ffe014" stroke="none" /><path d="M 79.67330655649465 105.27499134158121 l -8.915927861307077 2.313777319526836 a30.21126132038325,30.21126132038325 0 0,0 -0.1262955678478562,-0.5044880134166094 l 8.954434743449992 -2.159961466712835" fill="#ff6309" stroke="none" /><path d="M 79.58551787078972 104.9243191809786 l -9.338305960982241 2.2525577122386964 a30.606142538390866,30.606142538390866 0 0,0 -0.1191299414350872,-0.5132086697821187 l 9.375696468347885 -2.0914803851080035" fill="#ff6809" stroke="none" /><path d="M 79.50377843672027 104.57218783832718 l -3.657343013868518 0.8158605817649396 a24.747237170232314,24.747237170232314 0 0,0 -0.08916778520951803,-0.4165622070146554 l 3.6708448378024765 -0.7527845553341204" fill="#ff1402" stroke="none" /><path d="M 79.4281124754447 104.21870165774334 l -12.744003963455096 2.613428183619137 a34.0092138075863,34.0092138075863 0 0,0 -0.1126677754304128,-0.5744905595929625 l 12.787101671861176 -2.39367389695822" fill="#ff970d" stroke="none" /><path d="M 79.35854240842038 103.8639653848113 l -13.320093239895044 2.493446936732276 a34.55146344664654,34.55146344664654 0 0,0 -0.10440063228939045,-0.5855341893042034 l 13.361040314523624 -2.263793996694859" fill="#ff9e0e" stroke="none" /><path d="M 79.29508885075956 103.50808413554451 l -12.854310328222494 2.1779374859793856 a34.03751148444678,34.03751148444678 0 0,0 -0.09290335448551941,-0.5785092770645157 l 12.889895437069304 -1.9563489792216564" fill="#ff970e" stroke="none" /><path d="M 79.23777060512086 103.15116336523772 l -23.209332951330317 3.522569678662513 a44.47512796954981,44.47512796954981 0 0,0 -0.10836248232001028,-0.7578869489597396 l 23.266529484666925 -3.122537257722373" fill="#e1ff1b" stroke="none" /><path d="M 79.18660465613746 102.79330883721812 l -9.500567833952639 1.2750452125052094 a30.585746160913505,30.585746160913505 0 0,0 -0.06553868646667223,-0.5224078152281775 l 9.52110802966616 -1.1113196429896233" fill="#ff6809" stroke="none" /><path d="M 79.10278846688536 102.07522291339032 l -10.537380288142195 1.0464273181332373 a31.58921118256989,31.58921118256989 0 0,0 -0.04907670324381281,-0.541557330799758 l 10.553831587663083 -0.8648885987849132" fill="#ff760a" stroke="none" /><path d="M 79.07016306316243 101.71520430193888 l -19.210544736084795 1.574307963953999 a40.274944218401366,40.274944218401366 0 0,0 -0.05067631551676642,-0.6914380627061033 l 19.234797610265897 -1.243396764751135" fill="#ffe915" stroke="none" /><path d="M 79.04373962182676 101.35467743843564 l -14.653704264438343 0.9472607325121043 a35.68428927680798,35.68428927680798 0 0,0 -0.03434808106043877,-0.6133080610699073 l 14.667838696386314 -0.6948809551067594" fill="#ffad10" stroke="none" /><path d="M 79.0235259727143 100.99374915477108 l -13.34264166723111 0.6321004598760014 a34.35760598503741,34.35760598503741 0 0,0 -0.02290158114901618,-0.5909880485677902 l 13.351545381231325 -0.4023351642942144" fill="#ff9c0e" stroke="none" /><path d="M 79.0095281055655 100.63252640178507 l -16.948678793774523 0.5107311005847223 a37.95637222732642,37.95637222732642 0 0,0 -0.014058203994698516,-0.6532294989817371 l 16.95495906045423 -0.21891178581285628" fill="#ffcb12" stroke="none" /><line stroke="#e1ed5e" stroke-width="0.3" x1="15.007084014347285" x2="10.007500721073583" y1="101.09737516637583" y2="101.16192664675087" /><path d="M 14.007167355692545 101.11028546245083 a86.0,86.0 0 0,1 10.666146001902534,-42.60595125391555" fill="none" id="id10" stroke="none" /><text fill="#e1ed5e" style="font-size:6.75px; font-family:Arial;" text-anchor="middle"><textPath startOffset="22.20632615414155" xlink:href="#id10">October</textPath></text><path d="M 79.00175016825051 100.2711162175752 l -18.653596849267494 0.2408435304117342 a39.655151594697465,39.655151594697465 0 0,0 -0.0029376965152876073,-0.6826172115180733 l 18.654978843072286 0.08028315931001453" fill="#ffe115" stroke="none" /><path d="M 79.00486145842228 99.54816195383935 l -15.050327908463519 -0.3238993037731207 a36.05381283633022,36.05381283633022 0 0,0 0.018693568104807122,-0.6203485179484782 l 15.042522645903068 0.5829179691465933" fill="#ffb210" stroke="none" /><path d="M 79.01574976396665 99.18683210126434 l -14.590466609843094 -0.5654001902019622 a35.60141750885943,35.60141750885943 0 0,0 0.02900056168330116,-0.6121560214726799 l 14.578572439926294 0.8164673182976512" fill="#ffac0f" stroke="none" /><path d="M 79.03285615573316 98.82574320788736 l -19.47796935431704 -1.090856150019821 a40.50849192807455,40.50849192807455 0 0,0 0.044982575765009414,-0.6958605373253777 l 19.456306187547618 1.4259757515982106" fill="#ffec16" stroke="none" /><path d="M 79.05617556472873 98.46500227214037 l -7.928543731614611 -0.5810923716858656 a28.949809686310537,28.949809686310537 0 0,0 0.040702765443602,-0.49667683473624463 l 7.917366482351512 0.7174831236298885" fill="#ff5107" stroke="none" /><path d="M 79.08570108090925 98.10471618934814 l -26.42830986305649 -2.394971403063378 a47.53660585378658,47.53660585378658 0 0,0 0.08086400935277384,-0.8142895387079072 l 26.383168728021488 2.849536472475716" fill="#bdff1f" stroke="none" /><path d="M 79.12142395522702 97.74499172005258 l -10.985801215175915 -1.1865307599978865 a32.049691560572256,32.049691560572256 0 0,0 0.06396148855463994,-0.5479829733133477 l 10.963749373617686 1.3754574716360959" fill="#ff7c0b" stroke="none" /><path d="M 79.16333360222342 97.38593545837743 l -11.34844873135762 -1.4237199398762288 a32.437406483790525,32.437406483790525 0 0,0 0.07427239447276236,-0.5534156082921445 l 11.322260337827023 1.6188538902330327" fill="#ff820b" stroke="none" /><path d="M 79.21141760316559 97.0276538004421 l -17.637507340087136 -2.5218062930527485 a38.816878855492845,38.816878855492845 0 0,0 0.1002660434757643,-0.6606279503391322 l 17.59148540317207 2.825033355783973" fill="#ffd614" stroke="none" /><path d="M 79.26566170972629 96.67025291283419 l -8.035746699503902 -1.290468197792782 a29.138705866911668,29.138705866911668 0 0,0 0.08379200976250245,-0.49454518481201337 l 8.012342828221175 1.4285991709206234" fill="#ff5407" stroke="none" /><path d="M 79.32604984820605 96.31383870115002 l -13.946165402304782 -2.4865985840096303 a35.16611103819399,35.16611103819399 0 0,0 0.11138325802909037,-0.5950138182026539 l 13.90129642036583 2.726290479674857" fill="#ffa60f" stroke="none" /><path d="M 79.3925641242962 95.95851677861259 l -9.630507439169305 -1.8887131064538667 a30.813965087281794,30.813965087281794 0 0,0 0.1065586590613895,-0.5196178651208329 l 9.596569484192921 2.054206627738102" fill="#ff6b09" stroke="none" /><path d="M 79.46518482838121 95.60439243477599 l -22.775074834389432 -4.875149369688398 a44.291009318808236,44.291009318808236 0 0,0 0.16599766851120323,-0.7441349990638921 l 22.687782778876194 5.266462538302249" fill="#e3ff1b" stroke="none" /><path d="M 79.54389044137918 95.25157060432595 l -11.736152526925235 -2.7242859396732375 a33.04819530122063,33.04819530122063 0 0,0 0.13340014152943674,-0.5530297093263552 l 11.687519585134984 2.9259008806589897" fill="#ff8a0c" stroke="none" /><path d="M 79.62865764111835 94.90015583598534 l -9.569727061480323 -2.3957241425686187 a30.865047906549414,30.865047906549414 0 0,0 0.13345997937682752,-0.514275742290819 l 9.52707075023319 2.560096310408301" fill="#ff6c09" stroke="none" /><path d="M 79.71946130924805 94.55025226153421 l -11.564973417465074 -3.1077176345413133 a32.9752460952881,32.9752460952881 0 0,0 0.15202095551684966,-0.5469002610460713 l 11.509765691381865 3.3063291990063273" fill="#ff890c" stroke="none" /><path d="M 79.81627453868168 94.20196356495316 l -5.430187747816022 -1.5598917291716787 a26.649796561228506,26.649796561228506 0 0,0 0.13044961569842864,-0.43981125415737776 l 5.402532235005886 1.6531323700755958" fill="#ff3004" stroke="none" /><path d="M 80.14247586403 93.16781622104843 l -10.167066257970413 -3.4980828773817403 a31.752014700091877,31.752014700091877 0 0,0 0.1822670261989388,-0.5152934274061166 l 10.105346150961665 3.672573931214468" fill="#ff780b" stroke="none" /><path d="M 80.2630227832202 92.82701384747504 l -5.045592390650032 -1.8337136407417352 a26.368473552959706,26.368473552959706 0 0,0 0.15870733644334725,-0.4252567573448176 l 5.013280465705058 1.920293535115894" fill="#ff2c04" stroke="none" /><path d="M 80.52162464483688 92.15188598940014 l -12.411211386997234 -5.000653298787079 a34.380758629741436,34.380758629741436 0 0,0 0.22589519425259308,-0.5470231307287325 l 12.323294505858442 5.213550999969123" fill="#ff9c0e" stroke="none" /><path d="M 80.65960295795068 91.81776055985345 l -13.428871037124207 -5.681281413080881 a35.581204882530514,35.581204882530514 0 0,0 0.24349284269574298,-0.562015052198802 l 13.329087484585784 5.911595609866282" fill="#ffac0f" stroke="none" /><path d="M 80.803312248108 91.48605970444005 l -9.060245357214884 -4.018317588504246 a30.911353195957474,30.911353195957474 0 0,0 0.21990878795254962,-0.48453986423897677 l 8.989734252298982 4.1736794615852935" fill="#ff6c0a" stroke="none" /><path d="M 80.95270993114464 91.15688171328213 l -15.42632997754021 -7.16200888568333 a38.00782254889093,38.00782254889093 0 0,0 0.2806095931486787,-0.5910353675394825 l 15.300762190549781 7.426486668863345" fill="#ffcc13" stroke="none" /><path d="M 81.10775173730289 90.83032412892265 l -9.73847169273089 -4.726733825445486 a31.824963906024415,31.824963906024415 0 0,0 0.24344579950580322,-0.4907718765396497 l 9.655665880271673 4.893665290484097" fill="#ff790b" stroke="none" /><path d="M 81.43458229118936 90.18545643968196 l -10.93212888946162 -5.779231950257368 a33.36571728573304,33.36571728573304 0 0,0 0.27279159151079035,-0.5054413892068625 l 10.831029198732358 5.9665543227967035" fill="#ff8e0d" stroke="none" /><path d="M 81.6062741919709 89.86733742301443 l -8.624458075417142 -4.751007191235498 a30.846489040556506,30.846489040556506 0 0,0 0.26020094411863653,-0.4628684455854905 l 8.541399490006075 4.898759146755773" fill="#ff6c09" stroke="none" /><line stroke="#e1ed5e" stroke-width="0.3" x1="26.266209847984243" x2="21.928928074336255" y1="57.711370442889674" y2="55.22380399835377" /><path d="M 25.398753493254645 57.213857153982495 a86.0,86.0 0 0,1 29.58750427330803,-30.492523968695096" fill="none" id="id11" stroke="none" /><text fill="#e1ed5e" style="font-size:6.75px; font-family:Arial;" text-anchor="middle"><textPath startOffset="21.46611528233685" xlink:href="#id11">November</textPath></text><path d="M 81.78341655067845 89.55222093294921 l -15.17897194480458 -8.705614078812724 a38.498254364089775,38.498254364089775 0 0,0 0.33464208971167525,-0.5720118071444115 l 15.02687018062258 8.965605298311027" fill="#ffd213" stroke="none" /><path d="M 81.96595687620814 89.24020034530311 l -8.971338790890657 -5.352643739497593 a31.446804042525265,31.446804042525265 0 0,0 0.2813503654276012,-0.46246602466542147 l 8.87787262717684 5.50627753737009" fill="#ff740a" stroke="none" /><path d="M 82.15384107792192 88.93136811851018 l -3.5345654040446015 -2.1922254244872206 a25.15920724504528,25.15920724504528 0 0,0 0.2314316447653042,-0.36606928358900653 l 3.4963061630333345 2.2527423557904425" fill="#ff1a02" stroke="none" /><path d="M 82.34701348167596 88.62581576622439 l -11.363033646007699 -7.321437537502458 a34.517469484184275,34.517469484184275 0 0,0 0.3261134325996416,-0.4966931312058383 l 11.235323578050137 7.515948732685963" fill="#ff9e0e" stroke="none" /><path d="M 82.54541684631803 88.32363383020206 l -22.005588699584006 -14.72079333983459 a47.475416721354506,47.475416721354506 0 0,0 0.46023015841185533,-0.675330968050656 l 21.748934075503414 15.09740233115566" fill="#bdff1f" stroke="none" /><path d="M 82.7489923806493 88.02491185347247 l -8.291985838507173 -5.756026750257657 a31.094001837511485,31.094001837511485 0 0,0 0.3089964658706508,-0.43705358766991126 l 8.191676752832644 5.897906838259354" fill="#ff6f0a" stroke="none" /><path d="M 82.95767976084542 87.72973835380427 l -6.419072643082192 -4.621653610028802 a28.9097519359496,28.9097519359496 0 0,0 0.2942426119842284,-0.4013465920699928 l 6.33856741858433 4.7314626457702955" fill="#ff5007" stroke="none" /><path d="M 83.17141714833178 87.43820079747576 l -12.268955008977517 -9.158236947581214 a36.31014568841055,36.31014568841055 0 0,0 0.3781858321915822,-0.4976482247191647 l 12.109493236561827 9.368069948181406" fill="#ffb610" stroke="none" /><path d="M 83.39014120810768 87.1503855733568 l -8.183064176564773 -6.330530609246348 a31.345924662029134,31.345924662029134 0 0,0 0.3338280066986487,-0.42392766774242935 l 8.072882089272154 6.470450670941825" fill="#ff720a" stroke="none" /><path d="M 83.6137871275137 86.86637796730984 l -11.031103588026479 -8.841478275425914 a35.137078356739735,35.137078356739735 0 0,0 0.3823273994545229,-0.46868818483066826 l 10.877277696495565 9.030050629864665" fill="#ffa60f" stroke="none" /><path d="M 83.84228863543731 86.58626213691792 l -3.089313129693829 -2.5646724071068507 a25.015146344664654,25.015146344664654 0 0,0 0.2778937211560297,-0.3289385136570038 l 3.0447087950506755 2.6174698703929704" fill="#ff1802" stroke="none" /><path d="M 84.07557802195018 86.31012108654704 l -22.553223017221736 -19.3885148634875 a50.74159338495865,50.74159338495865 0 0,0 0.5750910514592776,-0.657428486358233 l 22.216140102184614 19.773858906048677" fill="#98ff23" stroke="none" /><path d="M 84.31358615837235 86.03803664274999 l -10.04199509542952 -8.938051040321355 a34.44360152250952,34.44360152250952 0 0,0 0.39799804521541954,-0.4394793821121191 l 9.886653409598056 9.10958320970303" fill="#ff9d0e" stroke="none" /><path d="M 84.5562425177563 85.77008943001954 l -3.120102520081592 -2.874869012996271 a25.242630266439164,25.242630266439164 0 0,0 0.29718109910863705,-0.31701207617618005 l 3.070154099002499 2.928150506050501" fill="#ff1b02" stroke="none" /><path d="M 84.80347519578584 85.50635884689758 l -10.013470682120586 -9.550318420401016 a34.8375639847749,34.8375639847749 0 0,0 0.41761237240462074,-0.4303862589268627 l 9.847594046012848 9.721268874878003" fill="#ffa20f" stroke="none" /><path d="M 85.05521093208273 85.24692304244772 l -8.216920557130418 -8.111513704377263 a32.54618716366977,32.54618716366977 0 0,0 0.3970079996374442,-0.39530312111827426 l 8.07607675732566 8.251752676145646" fill="#ff830c" stroke="none" /><path d="M 85.31137513191541 84.99185889309783 l -13.423926362576848 -13.715932081291493 a40.19188869930437,40.19188869930437 0 0,0 0.49860287985871915,-0.4796555753815387 l 13.185840239105701 13.944970743435345" fill="#ffe815" stroke="none" /><path d="M 85.57189188830299 84.74124197986013 l -9.416743965100235 -9.958881399328279 a34.70599816248851,34.70599816248851 0 0,0 0.43761308087891276,-0.4067136658804826 l 9.243923000426465 10.119499651283409" fill="#ffa00e" stroke="none" /><path d="M 85.83668400450813 84.49514656593479 l -26.232838197013976 -28.717590678179597 a59.89552434702717,59.89552434702717 0 0,0 0.7672018067394424,-0.6888013571471837 l 25.734625402678564 29.16489104409606" fill="#37ff2e" stroke="none" /><path d="M 86.10567301691215 84.25364557470407 l -6.013398094566138 -6.814946691026712 a30.088699304370653,30.088699304370653 0 0,0 0.3913052557464827,-0.33933606179732745 l 5.895199040172882 6.91744774624372" fill="#ff6108" stroke="none" /><path d="M 86.37877921826538 84.01681056812374 l -9.355419381734059 -10.977682734091918 a35.423362646016535,35.423362646016535 0 0,0 0.4674913320432223,-0.3915105462552237 l 9.165070512731727 11.137094437740954" fill="#ffaa0f" stroke="none" /><path d="M 86.65592168130627 83.78471172551755 l -9.549565852482862 -11.604320620423467 a36.02845517784486,36.02845517784486 0 0,0 0.48226077645063886,-0.38995467556745556 l 9.348401677467724 11.766981393255056" fill="#ffb210" stroke="none" /><path d="M 86.93701828274178 83.55741782278169 l -5.748694951111564 -7.235973470018091 a30.24158025987662,30.24158025987662 0 0,0 0.41037456450467585,-0.3203038568493799 l 5.623287831447462 7.333855716090692" fill="#ff6309" stroke="none" /><path d="M 87.22198572758235 83.33499621200491 l -5.584937576423279 -7.283839560871006 a30.1785536159601,30.1785536159601 0 0,0 0.41496063955319656,-0.31253975067521117 l 5.458730783111692 7.378895901052072" fill="#ff6209" stroke="none" /><path d="M 87.51073957382395 83.11751280151077 l -5.514464456098958 -7.454234471041392 a30.272266701666886,30.272266701666886 0 0,0 0.4215841038804732,-0.3062987806001946 l 5.385335035864704 7.548052486458254" fill="#ff6409" stroke="none" /><path d="M 88.09926311788651 82.69761687909137 l -10.619287277429683 -15.43929411810072 a39.7387583672398,39.7387583672398 0 0,0 0.5669307360446615,-0.38279416370163555 l 10.351951846978482 15.619800194101021" fill="#ffe215" stroke="none" /><path d="M 88.39885842347998 82.49532879139004 l -9.890180021878168 -14.92304428275687 a38.90287439296496,38.90287439296496 0 0,0 0.5613739872781175,-0.3651332569590414 l 9.631839008815763 15.091076463875446" fill="#ffd714" stroke="none" /><path d="M 88.70189139769569 82.29822771554957 l -6.6348274991035705 -10.395386490778368 a33.3322745767161,33.3322745767161 0 0,0 0.48630335896073523,-0.30452311876765786 l 6.454904987770593 10.508053950868955" fill="#ff8e0d" stroke="none" /><path d="M 89.00827224532344 82.1063720568725 l -9.80440764152538 -15.96076853937452 a39.731592072450454,39.731592072450454 0 0,0 0.5858289559617519,-0.3529553910820322 l 9.52821661934598 16.12717053991517" fill="#ffe215" stroke="none" /><line stroke="#e1ed5e" stroke-width="0.3" x1="56.762969772571076" x2="54.21961505331055" y1="26.818313649435495" y2="22.513508569990535" /><path d="M 56.25429882871897 25.957352633546506 a86.0,86.0 0 0,1 42.265352541879196,-11.944610805530505" fill="none" id="id12" stroke="none" /><text fill="#e1ed5e" style="font-size:6.75px; font-family:Arial;" text-anchor="middle"><textPath startOffset="22.20632615414155" xlink:href="#id12">December</textPath></text><path d="M 89.3179101791058 81.91981866633112 l -1.6586051001598432 -2.8073047011064816 a24.260664129150808,24.260664129150808 0 0,0 0.36137214343617957,-0.20933007043612084 l 1.6100362242583435 2.83543892893265" fill="#ff0d01" stroke="none" /><path d="M 89.63071344664047 81.73862282372117 l -5.197209634361351 -9.152819232921448 a31.52544953405959,31.52544953405959 0 0,0 0.4741966709040157,-0.26388993395624427 l 5.03888887438529 9.240924564437877" fill="#ff750a" stroke="none" /><path d="M 89.94658935756843 81.56283822128135 l -10.701734013256445 -19.626135680010645 a43.354245964037275,43.354245964037275 0 0,0 0.6582721942696911,-0.3516262087691056 l 10.362316772458447 19.8074406152815" fill="#efff19" stroke="none" /><path d="M 90.26544431104013 81.39251694778311 l -5.101474465793279 -9.751405477213758 a32.00522378264864,32.00522378264864 0 0,0 0.4903497664019941,-0.25117619563935584 l 4.932864211802521 9.837774198165619" fill="#ff7c0b" stroke="none" /><path d="M 90.58718382345135 81.22770947309562 l -6.437053404017665 -12.837628438817102 a35.36107100669379,35.36107100669379 0 0,0 0.5464611224265093,-0.2681460995200891 l 6.21512101458073 12.946529698472022" fill="#ffa90f" stroke="none" /><path d="M 90.91171255644093 81.06846463323043 l -2.0380157553793734 -4.2453286816255 a25.709174432340202,25.709174432340202 0 0,0 0.40060009732193974,-0.18808711715350762 l 1.9646374467578254 4.279780781419015" fill="#ff2203" stroke="none" /><path d="M 91.23893434514133 80.91482961587045 l -7.505838030650286 -16.35077322028708 a38.99125869536685,38.99125869536685 0 0,0 0.6123816352961837,-0.27475778926118594 l 7.223274276887328 16.477551340064796" fill="#ffd914" stroke="none" /><path d="M 91.56875222667455 80.76684994638697 l -5.073650987574144 -11.573884837355108 a33.637117731985825,33.637117731985825 0 0,0 0.5322933601646913,-0.22790023756563232 l 4.873673869619145 11.659504602883526" fill="#ff920d" stroke="none" /><path d="M 91.90106846888425 80.62456947434976 l -5.672830809518451 -13.571362939828509 a35.70927943299645,35.70927943299645 0 0,0 0.5691653253142763,-0.23217682708592174 l 5.438381614615794 13.667000653098007" fill="#ffae10" stroke="none" /><path d="M 92.23578459929587 80.48803036053334 l -8.013885012618104 -20.139405334658857 a42.67528547053419,42.67528547053419 0 0,0 0.6848709353340348,-0.26571928280123264 l 7.666030912284393 20.27436732135064" fill="#f7ff18" stroke="none" /><path d="M 92.91201910852362 80.23233633223022 l -6.676352688503736 -18.619674134909058 a40.78044362777267,40.78044362777267 0 0,0 0.6628142520210254,-0.23124287783114109 l 6.354856432419425 18.731837865912407" fill="#ffef16" stroke="none" /><path d="M 93.25333710446033 80.11325718540243 l -6.085308698412042 -17.937307807799343 a39.94143588397428,39.94143588397428 0 0,0 0.65298004967961,-0.21527725597360206 l 5.775645826490023 18.039398788032177" fill="#ffe515" stroke="none" /><path d="M 93.59665428221793 80.00007090966166 l -3.270729371969452 -10.215652628503312 a31.726473290458067,31.726473290458067 0 0,0 0.5215448881985001,-0.1620465355136999 l 3.0943991110602234 10.270439298899536" fill="#ff780b" stroke="none" /><path d="M 93.94186890950719 79.89281104454417 l -4.069340240835292 -13.506309441689433 a35.10602441265258,35.10602441265258 0 0,0 0.5801016137157538,-0.16934756847726956 l 3.8362484093961164 13.574355339085402" fill="#ffa60f" stroke="none" /><path d="M 94.28887869178378 79.79150937346287 l -4.074417934311533 -14.417105186625111 a35.98178238613991,35.98178238613991 0 0,0 0.5974725460733176,-0.1633118164980214 l 3.8256474990144937 14.485103543949428" fill="#ffb110" stroke="none" /><path d="M 94.63758080256005 79.69619591428918 l -4.924876571407421 -18.647130216880676 a40.28652054075338,40.28652054075338 0 0,0 0.6720004786302428,-0.1713078847176584 l 4.603167204092179 18.729141097767197" fill="#ffe915" stroke="none" /><path d="M 94.98787191387505 79.60689891045804 l -9.25462029892088 -37.65474546105117 a59.775351095944345,59.775351095944345 0 0,0 1.001312029478636,-0.23697820628343022 l 8.60508458247971 37.80846957947547" fill="#38ff2e" stroke="none" /><path d="M 95.33964822691252 79.52364482259891 l -2.88730985950439 -12.68607716092124 a34.01050006562541,34.01050006562541 0 0,0 0.5719550263501317,-0.12500721562266046 l 2.668512109000737 12.733897874639768" fill="#ff970d" stroke="none" /><path d="M 95.692805502759 79.44645832069477 l -2.752368325970254 -13.134052140172901 a34.419346370914816,34.419346370914816 0 0,0 0.5809225008589346,-0.11652758863715522 l 2.5258794156441833 13.179483684887266" fill="#ff9c0e" stroke="none" /><path d="M 96.04723909329186 79.375362276772 l -1.59576919730236 -8.326372973481156 a29.477910486940544,29.477910486940544 0 0,0 0.4991661328022973,-0.09121942017999604 l 1.4522079433971695 8.35260787501189" fill="#ff5808" stroke="none" /><path d="M 96.40284397218896 79.31037775812273 l -2.93258629100216 -16.86724236687183 a38.12027825173907,38.12027825173907 0 0,0 0.6474471383930641,-0.10683432537600508 l 2.64180994647021 16.915222955187463" fill="#ffcd13" stroke="none" /><path d="M 96.75951476605007 79.25152402106235 l -1.6731377931042293 -10.71292007319554 a31.842787767423545,31.842787767423545 0 0,0 0.5422842216789444,-0.07991859785880218 l 1.488484590996636 10.740133155215313" fill="#ff790b" stroke="none" /><path d="M 97.11714578562143 79.19881850522333 l -1.9365081610327544 -13.97283897425306 a35.10639191494947,35.10639191494947 0 0,0 0.5992916398447719,-0.07780525463708297 l 1.695701792680125 14.00410255205428" fill="#ffa60f" stroke="none" /><path d="M 97.47563105711357 79.15227682838746 l -1.9249569465342455 -15.897426424812437 a37.013545084656776,37.013545084656776 0 0,0 0.6331665626453775,-0.07114364076262794 l 1.65102368037915 15.928206019045664" fill="#ffbf11" stroke="none" /><path d="M 98.19473922651362 79.07773832637324 l -1.3113631613360663 -15.19818278532744 a36.25465284158026,36.25465284158026 0 0,0 0.6222158364461073,-0.048295924175787236 l 1.0495571355276248 15.218503971691689" fill="#ffb510" stroke="none" /><path d="M 98.55514903715128 79.0497635885617 l -0.9513879293630338 -13.795057449971267 a34.827825173907335,34.827825173907335 0 0,0 0.5984381466249773,-0.0360994232681059 l 0.7137877338984335 13.809390142619678" fill="#ffa20f" stroke="none" /><path d="M 98.91598698831166 79.02799685794201 l -0.5406928093650261 -10.460585965873682 a31.47455046594041,31.47455046594041 0 0,0 0.54130106891425,-0.023309562684495796 l 0.3605509080614519 10.46834325508237" fill="#ff740a" stroke="none" /><path d="M 99.27714615592234 79.0124445844662 l -0.3943391150445457 -11.449360195448838 a32.45614910093188,32.45614910093188 0 0,0 0.5585137052009741,-0.014424761229407832 l 0.19719877464869262 11.454451748820604" fill="#ff820c" stroke="none" /></svg>