<?xml version="1.0" encoding="utf-8" ?>
<svg baseProfile="full" height="200mm" version="1.1" viewBox="0,0,200,200" width="200mm" xmlns="http://www.w3.org/2000/svg" xmlns:ev="http://www.w3.org/2001/xml-events" xmlns:xlink="http://www.w3.org/1999/xlink"><defs /><rect fill="#1a1a1a" height="200" width="200" x="0" y="0" /><text alignment-baseline="middle" fill="#e1ed5e" style="dominant-baseline: central; font-size:9.0px; font-family:Arial;" text-anchor="middle" x="100.0" y="100.0">2025</text><line stroke="#e1ed5e" stroke-width="0.3" x1="100.0" x2="100.0" y1="15.0" y2="10.0" /><path d="M 100.0 14.0 a86.0,86.0 0 0,1 42.46469731375804,11.215312516191453" fill="none" id="id37" stroke="none" /><text fill="#e1ed5e" style="font-size:6.75px; font-family:Arial;" text-anchor="middle"><textPath startOffset="22.20632615414155" xlink:href="#id37">January</textPath></text><path d="M 100.0 79.0 l 0.0 -14.694137976870927 a35.69413797687093,35.69413797687093 0 0,0 0.6144159096713837,0.005288471712567095 l -0.2529354303988554 14.691960881766919" fill="#ff730a" stroke="none" /><path d="M 100.36148047927253 79.00311137660856 l 0.2388327425527187 -13.87279474977631 a34.87485045859365,34.87485045859365 0 0,0 0.6001353360617997,0.015499725158770412 l -0.47759471380938623 13.866628232475179" fill="#ff6609" stroke="none" /><path d="M 101.08401301168833 79.027996857942 l 1.1881347453379352 -22.98640822918429 a44.01709424431743,44.01709424431743 0 0,0 0.7563351477692005,0.045624201575134526 l -1.5836319419467475 22.96255075822885" fill="#ffeb16" stroke="none" /><path d="M 101.44485096284872 79.0497635885617 l 1.7640510559305422 -25.578615105551087 a46.63937259072179,46.63937259072179 0 0,0 0.800442259222917,0.062129724758093155 l -2.2040835045158005 25.54446011860453" fill="#efff19" stroke="none" /><path d="M 102.16513564639614 79.11191278185805 l 1.7086814213284371 -16.484457505530866 a37.57277681775887,37.57277681775887 0 0,0 0.6427329749779473,0.07221853865289285 l -1.9921810998161098 16.452603013407373" fill="#ff8f0d" stroke="none" /><path d="M 102.52436894288641 79.15227682838746 l 1.8586308088060353 -15.349666176732933 a36.46178386282068,36.46178386282068 0 0,0 0.6224291660548337,0.08080916959059503 l -2.122574703368715 15.315398683978202" fill="#ff7e0b" stroke="none" /><path d="M 102.88285421437855 79.19881850522331 l 2.0712251799436556 -14.94488714332952 a36.08773095839426,36.08773095839426 0 0,0 0.6145758103174715,0.09057249883915904 l -2.328169970689783 14.907020160329392" fill="#ff790b" stroke="none" /><path d="M 103.2404852339499 79.25152402106235 l 2.383219021985648 -15.25949327346354 a36.444476937392,36.444476937392 0 0,0 0.6189847867196695,0.10213779347505626 l -2.645533014844193 15.21620921704886" fill="#ff7e0b" stroke="none" /><path d="M 103.59715602781102 79.31037775812273 l 2.655239550450276 -15.272037919894814 a36.501143160973015,36.501143160973015 0 0,0 0.6180945044458803,0.11295281992683874 l -2.917729175999057 15.224069618617236" fill="#ff7f0b" stroke="none" /><path d="M 103.95276090670814 79.375362276772 l 2.877219025007804 -15.012696553555308 a36.28592316894856,36.28592316894856 0 0,0 0.612426192122403,0.12284693273326718 l -3.1352116265973327 14.960945664744834" fill="#ff7c0b" stroke="none" /><path d="M 104.307194497241 79.44645832069477 l 3.084828386432876 -14.720521410088597 a36.040276485444636,36.040276485444636 0 0,0 0.6060898030644425,0.13246775569376784 l -3.3377609136508464 14.66524015629896" fill="#ff780b" stroke="none" /><path d="M 104.66035177308747 79.52364482259891 l 3.356840912934523 -14.749072635291913 a36.12625282467101,36.12625282467101 0 0,0 0.6051600010724995,0.14322182031839775 l -3.6102246009695462 14.689104902832646" fill="#ff790b" stroke="none" /><path d="M 105.36241919743992 79.69619591428918 l 3.8813565085604003 -14.696035359233365 a36.19994682972219,36.19994682972219 0 0,0 0.601095136643503,0.1643020073450032 l -4.133749534427614 14.627046811062069" fill="#ff7a0b" stroke="none" /><path d="M 105.71112130821622 79.79150937346287 l 4.062996310191838 -14.376690393888968 a35.939784660374855,35.939784660374855 0 0,0 0.5938788976220758,0.17336953544751996 l -4.309865425537341 14.304622529522744" fill="#ff760a" stroke="none" /><path d="M 106.40334571778207 80.00007090966166 l 6.804161283181987 -21.251818842915814 a43.314488900704504,43.314488900704504 0 0,0 0.7081241945429525,0.23345741353739963 l -7.168968299967357 21.13154770511918" fill="#ffe115" stroke="none" /><path d="M 107.08798089147638 80.2323363322302 l 5.13014169268761 -14.307447650007514 a36.199388541805135,36.199388541805135 0 0,0 0.5847367804574277,0.21536349103915745 l -5.375660798917615 14.217020891162031" fill="#ff7a0b" stroke="none" /><path d="M 107.4271985657038 80.35727306442388 l 5.3233357259437595 -14.078636665775141 a36.05144224378572,36.05144224378572 0 0,0 0.5785687124856175,0.22447567184016853 l -5.564887603429043 13.984918290044426" fill="#ff780b" stroke="none" /><path d="M 107.76421540070413 80.48803036053334 l 5.404917726104953 -13.582903762047973 a35.61876910806859,35.61876910806859 0 0,0 0.5677226936132096,0.2315883413927327 l -5.63792428930655 13.487854534471662" fill="#ff720a" stroke="none" /><path d="M 108.09893153111575 80.62456947434976 l 5.384933606093444 -12.882613782972552 a34.96278080552971,34.96278080552971 0 0,0 0.5532714254521204,0.23688195032115444 l -5.6058887893358795 12.788012304688607" fill="#ff6809" stroke="none" /><path d="M 108.76106565485865 80.91482961587045 l 10.001333489821363 -21.786979032155347 a44.9728831583145,44.9728831583145 0 0,0 0.7007670128608503,0.32901950879794134 l -10.374878713981811 21.6115945407174" fill="#fff817" stroke="none" /><path d="M 109.73455568895987 81.39251694778311 l 6.210680172843371 -11.871638496042197 a34.39807257742922,34.39807257742922 0 0,0 0.5222855157710462,0.2789868346320397 l -6.414110735142728 11.762972934908403" fill="#ff5f08" stroke="none" /><path d="M 110.05341064243156 81.56283822128135 l 8.674290639375679 -15.907964522884853 a39.119234347999466,39.119234347999466 0 0,0 0.5884201802132792,0.32745519321967814 l -8.946834908660993 15.756293932104995" fill="#ffa60f" stroke="none" /><line stroke="#e1ed5e" stroke-width="0.3" x1="143.23703022742887" x2="145.7803849466894" y1="26.81831364943548" y2="22.513508569990506" /><path d="M 143.74570117128098 25.957352633546492 a86.0,86.0 0 0,1 28.547481713284135,27.462654790039103" fill="none" id="id38" stroke="none" /><text fill="#e1ed5e" style="font-size:6.75px; font-family:Arial;" text-anchor="middle"><textPath startOffset="19.985693538727396" xlink:href="#id38">February</textPath></text><path d="M 110.68208982089419 81.91981866633111 l 15.58934788563038 -26.3860575385286 a51.64721520669946,51.64721520669946 0 0,0 0.7615208096293062,0.45880776708716114 l -16.041230761477323 26.113803161982823" fill="#afff20" stroke="none" /><path d="M 111.2981086023043 82.29822771554956 l 8.064263427062789 -12.635013510011104 a35.989193141034164,35.989193141034164 0 0,0 0.5193291541500746,0.3377861279394461 l -8.280559606997144 12.49432845791213" fill="#ff770b" stroke="none" /><path d="M 111.60114157652 82.49532879139004 l 8.413641956864705 -12.695133073797152 a36.23009437724312,36.23009437724312 0 0,0 0.516874580791904,0.3489960242291055 l -8.630921232063152 12.548425137269376" fill="#ff7b0b" stroke="none" /><path d="M 112.19680574252982 82.90503203632743 l 10.785653314203627 -15.117105393477095 a39.5703309849794,39.5703309849794 0 0,0 0.5510727919041916,0.4003778193450411 l -11.044271422461607 14.929208339315378" fill="#ffac0f" stroke="none" /><path d="M 112.48926042617603 83.11751280151076 l 8.928086354636722 -12.068633245348307 a36.01208294563339,36.01208294563339 0 0,0 0.4951727362725611,0.37295383895307904 l -9.134505244667666 11.91316281688938" fill="#ff780b" stroke="none" /><path d="M 112.77801427241765 83.33499621200491 l 19.03368708450248 -24.823611916558956 a52.28087199255616,52.28087199255616 0 0,0 0.7094450717026491,0.5537331314951796 l -19.458164711364557 24.49230039584055" fill="#a7ff21" stroke="none" /><path d="M 113.34407831869373 83.78471172551755 l 9.508653548188414 -11.554605324075242 a35.96407018476671,35.96407018476671 0 0,0 0.4746271900943532,0.3974866221567525 l -9.706138275241885 11.38921754452467" fill="#ff770a" stroke="none" /><path d="M 113.89432698308785 84.25364557470407 l 9.868056502809829 -11.183407110774452 a35.9146617041074,35.9146617041074 0 0,0 0.46003092298152226,0.41302030482177576 l -10.059098413387341 11.011887797183379" fill="#ff760a" stroke="none" /><path d="M 114.16331599549186 84.49514656593476 l 10.117461140472315 -11.075778592937205 a36.00119633125083,36.00119633125083 0 0,0 0.45394442678424307,0.42189187204510986 l -10.306613451051405 10.899982134817455" fill="#ff770b" stroke="none" /><path d="M 114.68862486808459 84.99185889309783 l 25.070044304958945 -25.615383731573043 a56.84208427489034,56.84208427489034 0 0,0 0.6933765254809001,0.690398946326151 l -25.50725663060717 25.180048934596773" fill="#70ff27" stroke="none" /><path d="M 115.19652480421416 85.50635884689758 l 9.065798660283551 -8.646478997092071 a33.52798085869999,33.52798085869999 0 0,0 0.3947244046009265,0.42106447346506504 l -9.213290386854942 8.489145106748952" fill="#ff5207" stroke="none" /><path d="M 115.68641384162765 86.03803664274999 l 11.247177490594124 -10.010744430281349 a36.05702512295627,36.05702512295627 0 0,0 0.4086602549734062,0.46716931550266166 l -11.417829609145379 9.81565955857574" fill="#ff780b" stroke="none" /><path d="M 115.9244219780498 86.31012108654704 l 11.45487299404713 -9.8475049501729 a36.105875315698526,36.105875315698526 0 0,0 0.4011008334242832,0.4747768730589288 l -11.622684440958531 9.648869127484865" fill="#ff790b" stroke="none" /><path d="M 116.15771136456269 86.58626213691792 l 17.235894417202662 -14.308819134817709 a43.40130267180646,43.40130267180646 0 0,0 0.47225062411218865,0.5789234256192008 l -17.47964353339126 14.010011539590408" fill="#ffe215" stroke="none" /><path d="M 116.38621287248628 86.86637796730983 l 9.649198860177354 -7.733875529019999 a33.36607736275422,33.36607736275422 0 0,0 0.3553422404174329,0.451248559760645 l -9.78089518118875 7.566634575306315" fill="#ff4f07" stroke="none" /><path d="M 116.60985879189232 87.15038557335679 l 11.387788073484279 -8.80974894187696 a35.39768709291506,35.39768709291506 0 0,0 0.3686821822685181,0.48514253542573305 l -11.537746195976911 8.612421630570193" fill="#ff6e0a" stroke="none" /><line stroke="#e1ed5e" stroke-width="0.3" x1="172.23445277983987" x2="176.4835382374775" y1="55.19839476539836" y2="52.563006222186495" /><path d="M 173.08426987136738 54.67131705675599 a86.0,86.0 0 0,1 12.851231095245387,41.99856678651699" fill="none" id="id39" stroke="none" /><text fill="#e1ed5e" style="font-size:6.75px; font-family:Arial;" text-anchor="middle"><textPath startOffset="22.20632615414155" xlink:href="#id39">March</textPath></text><path d="M 117.84615892207809 88.93136811851018 l 6.2768757819777505 -3.8930745657878587 a28.38614914262927,28.38614914262927 0 0,0 0.25396709387576616,0.41745512618067115 l -6.342958674139741 3.784451666400106" fill="#ff0000" stroke="none" /><path d="M 118.03404312379186 89.2402003453031 l 21.949130087739338 -13.09569022974023 a46.55897913066596,46.55897913066596 0 0,0 0.4047091050876668,0.6917790489787199 l -22.171298867297335 12.715931768407616" fill="#f1ff19" stroke="none" /><path d="M 118.3937258080291 89.86733742301442 l 13.052625977158495 -7.190378727533905 a35.90210022597368,35.90210022597368 0 0,0 0.29352856332602884,0.5438638485802981 l -13.17446263970299 6.964633895621149" fill="#ff760a" stroke="none" /><path d="M 118.73160827565052 90.50648371742162 l 16.524799234748077 -8.375065733429217 a39.52594709557357,39.52594709557357 0 0,0 0.3023546490208197,0.609528522495204 l -16.666513896722304 8.089377622435062" fill="#ffac0f" stroke="none" /><path d="M 118.89224826269711 90.83032412892265 l 13.20925506603573 -6.411337907997715 a35.68297221852984,35.68297221852984 0 0,0 0.263445355326443,0.5548831052594673 l -13.317658615203928 6.183012387097707" fill="#ff730a" stroke="none" /><path d="M 119.04729006885535 91.15688171328212 l 22.981822671141842 -10.669810539484013 a46.33789711551243,46.33789711551243 0 0,0 0.3296559269451602,0.7263531374746456 l -23.16208091505035 10.272635393167304" fill="#f3ff19" stroke="none" /><path d="M 119.196687751892 91.48605970444005 l 13.364957034335982 -5.9275041462215565 a35.62044397181975,35.62044397181975 0 0,0 0.2437613675370847,0.5626348445551238 l -13.465009111715746 5.6965701570798295" fill="#ff720a" stroke="none" /><path d="M 119.47837535516314 92.15188598940014 l 22.976352904654743 -9.257498834250043 a45.77123487970225,45.77123487970225 0 0,0 0.2881548800464918,0.7333227391630763 l -23.132301334582934 8.860627090191183" fill="#fbff18" stroke="none" /><path d="M 119.7369772167798 92.82701384747503 l 29.745825825315624 -10.810490096680592 a52.649342017812046,52.649342017812046 0 0,0 0.3022245703637089,0.854429558416539 l -29.927503476489143 10.296862911837438" fill="#a2ff22" stroke="none" /><path d="M 119.97218684219823 93.5106431181261 l 26.072955865642534 -8.471616899758546 a48.414728166954674,48.414728166954674 0 0,0 0.2507064853813947,0.7948080703841801 l -26.214917834792132 8.021558662947946" fill="#d8ff1c" stroke="none" /><path d="M 120.08093135843002 93.85539295169968 l 39.40912808399053 -12.058883219607317 a62.21281403695334,62.21281403695334 0 0,0 0.304529067004053,1.0267206244290958 l -39.61086304810629 11.378733208431692" fill="#33ff2f" stroke="none" /><path d="M 120.28053869075195 94.5502522615342 l 23.644902945179503 -6.353813294441514 a45.48371660241925,45.48371660241925 0 0,0 0.19667087179387055,0.7578530961195044 l -23.750770148843674 5.945863772773159" fill="#ffff18" stroke="none" /><path d="M 120.45610955862082 95.25157060432595 l 32.03068373889217 -7.43520852747862 a53.882320882626615,53.882320882626615 0 0,0 0.2019448140390495,0.9052790039383108 l -32.15392293993326 6.882751353990345" fill="#93ff23" stroke="none" /><path d="M 120.6074358757038 95.95851677861258 l 26.828290172357168 -5.261502946998336 a48.33935929815233,48.33935929815233 0 0,0 0.1531074995418007,0.8179063847641632 l -26.914883395808825 4.79891848477161" fill="#d9ff1c" stroke="none" /><path d="M 120.67395015179393 96.31383870115 l 43.24134064049949 -7.709922642217818 a64.9233018742523,64.9233018742523 0 0,0 0.18669511162603392,1.1018851170211676 l -43.36764761364575 6.964451736880813" fill="#33ff4f" stroke="none" /><path d="M 120.78858239683441 97.02765380044208 l 24.149905223832864 -3.452947278534682 a45.39550711152465,45.39550711152465 0 0,0 0.1039427431771693,0.7744941690824939 l -24.205763966067867 3.036734767387524" fill="#fffe18" stroke="none" /><path d="M 120.83666639777658 97.38593545837742 l 36.57149316977827 -4.588077656198924 a57.85816828392928,57.85816828392928 0 0,0 0.11546740041135352,0.9892541719713913 l -36.64505092319321 3.9578797459026793" fill="#64ff29" stroke="none" /><path d="M 120.87857604477298 97.74499172005257 l 18.749921541736853 -2.0251011483882544 a39.85896583809651,39.85896583809651 0 0,0 0.06780365843193631,0.6827735872752059 l -18.782002325851018 1.7020520304086135" fill="#ffb010" stroke="none" /><path d="M 120.94382443527127 98.46500227214037 l 25.987268851985 -1.9046377496316007 a47.05697195267845,47.05697195267845 0 0,0 0.05225432262182176,0.8083512426489476 l -26.016203765611237 1.457027442729618" fill="#eaff1a" stroke="none" /><path d="M 120.96714384426684 98.82574320788733 l 51.75565126593793 -2.8985552577233875 a72.83675395453942,72.83675395453942 0 0,0 0.05933209753079887,1.2524068039341658 l -51.79787697170222 2.007237347166222" fill="#3effb2" stroke="none" /><line stroke="#e1ed5e" stroke-width="0.3" x1="184.98032266829074" x2="189.97916517819016" y1="98.17113171792111" y2="98.06355123074" /><path d="M 185.9800911702706 98.14961562048488 a86.0,86.0 0 0,1 -9.607161424134198,41.387399972396054" fill="none" id="id40" stroke="none" /><text fill="#e1ed5e" style="font-size:6.75px; font-family:Arial;" text-anchor="middle"><textPath startOffset="21.466115282336823" xlink:href="#id40">April</textPath></text><path d="M 120.99513854157772 99.54816195383933 l 27.082975204424656 -0.5828548631080127 a48.089246311311975,48.089246311311975 0 0,0 0.010687246202348413,0.8277389961304246 l -27.088995457744723 0.11657960891712542" fill="#dcff1b" stroke="none" /><path d="M 120.99824983174949 100.27111621757518 l 34.2947223458403 0.4427919221694841 a55.29758075235944,55.29758075235944 0 0,0 -0.020481005560123333,0.9516718498129154 l -34.28201927759517 -1.0330535877725144" fill="#82ff25" stroke="none" /><path d="M 120.9904718944345 100.63252640178507 l 43.091432664847325 1.2985162500556462 a64.11099295493818,64.11099295493818 0 0,0 -0.04273415057907965,1.1027785415165916 l -43.06269638141704 -2.040072038586244" fill="#31ff44" stroke="none" /><path d="M 120.95626037817324 101.35467743843564 l 58.86862296582945 3.805449728361079 a79.99149275554964,79.99149275554964 0 0,0 -0.10065002457992017,1.3732896185761732 l -58.79439638258519 -4.8182124834340225" fill="#47fcff" stroke="none" /><path d="M 120.89721153311464 102.0752229133903 l 18.638601577302403 1.8509289148687458 a39.73028047321547,39.73028047321547 0 0,0 -0.07343990708037733,0.6799623302201186 l -18.603979368720974 -2.171487566973656" fill="#ffae10" stroke="none" /><path d="M 120.81339534386255 102.79330883721812 l 24.64380154532177 3.3073771723408685 a45.86474810580886,45.86474810580886 0 0,0 -0.11174825531991649,0.7815670374353164 l -24.583219238985254 -3.731089681756594" fill="#faff18" stroke="none" /><path d="M 120.76222939487914 103.15116336523771 l 21.154953739275175 3.210768648618447 a42.39722185298418,42.39722185298418 0 0,0 -0.11572068459849036,0.720592813458819 l -21.096551300315397 -3.5744406917704707" fill="#ffd413" stroke="none" /><path d="M 120.70491114924044 103.5080841355445 l 26.921613701932745 4.561395373796248 a48.30530373521201,48.30530373521201 0 0,0 -0.14595920837548942,0.8186167542618373 l -26.83910805121807 -5.024130878791303" fill="#d9ff1c" stroke="none" /><path d="M 120.64145759157962 103.86396538481128 l 38.62583854728451 7.230540888105716 a60.29676990562276,60.29676990562276 0 0,0 -0.1997547773183397,1.0185453060077294 l -38.495653836990506 -7.89434992118139" fill="#48ff2c" stroke="none" /><path d="M 120.49622156327973 104.57218783832717 l 24.828408444546664 5.538588992351364 a46.438668084540744,46.438668084540744 0 0,0 -0.18075573562710756,0.7786909782644609 l -24.729392142989006 -5.96514862796439" fill="#f2ff19" stroke="none" /><path d="M 120.32669344350535 105.2749913415812 l 25.809469774166136 6.697829628213746 a47.66438920643361,47.66438920643361 0 0,0 -0.21292800197379846,0.7923843065055004 l -25.69035369585056 -7.141104867894795" fill="#e2ff1b" stroke="none" /><path d="M 120.13307415673323 105.97154293290107 l 37.87362295175975 11.233454152122295 a60.50445301076698,60.50445301076698 0 0,0 -0.30475006060475524,0.9959408307768393 l -37.67464611864886 -11.883721955451191" fill="#46ff2c" stroke="none" /><path d="M 120.02730092923936 106.31721596034902 l 60.08190278771807 18.951647881047055 a84.0,84.0 0 0,0 -0.4468309959350121,1.375204400088819 l -59.746779540766816 -19.98305118111367" fill="#4dd2ff" stroke="none" /><path d="M 119.79798401119884 107.00284435728193 l 23.05334839001752 8.154315641338515 a45.45301076698126,45.45301076698126 0 0,0 -0.2672544806662094,0.7353695495612345 l -22.909569648346082 -8.549932987905882" fill="#ffff18" stroke="none" /><path d="M 119.54520255179757 107.68017299344265 l 17.903228869392137 7.034969041315073 a40.2358101821082,40.2358101821082 0 0,0 -0.25884536994469565,0.6424329804484495 l -17.77948088519005 -7.342101389606336" fill="#ffb610" stroke="none" /><path d="M 119.41010516605496 108.01547362559984 l 22.48403834362213 9.284865527439477 a45.325721121892855,45.325721121892855 0 0,0 -0.3040039688937927,0.7185755811442558 l -22.320883393536032 -9.670515634249895" fill="#fffd17" stroke="none" /><path d="M 119.26925614724726 108.34839909993367 l 27.611668385926574 11.962746550217332 a51.091718729230365,51.091718729230365 0 0,0 -0.3565688988652815,0.8039687355010419 l -27.401658402330018 -12.436263622211062" fill="#b6ff1f" stroke="none" /><path d="M 119.12269723197855 108.67885076344098 l 54.207750147548175 24.602228861612844 a80.52940316363154,80.52940316363154 0 0,0 -0.5837437739163576,1.2573321567317826 l -53.77623175679198 -25.531681085623458" fill="#48f6ff" stroke="none" /><path d="M 118.81262510543309 109.33194174019688 l 19.817898971229194 9.830604584748139 a43.122158713279276,43.122158713279276 0 0,0 -0.3355752637434156,0.6621218313992793 l -19.64574503769951 -10.170280627850113" fill="#ffdf14" stroke="none" /><path d="M 118.64920377521936 109.65438752849418 l 20.63484942508653 10.682323778703388 a44.23594310780274,44.23594310780274 0 0,0 -0.3558834111604572,0.6731972957503695 l -20.447913505701177 -11.035936089539891" fill="#ffee16" stroke="none" /><line stroke="#e1ed5e" stroke-width="0.3" x1="174.80103733775053" x2="179.2010983576182" y1="140.37084112569926" y2="142.7455964860345" /><path d="M 175.68104954172406 140.8457921977663 a86.0,86.0 0 0,1 -30.038265399797805,32.042727171017184" fill="none" id="id41" stroke="none" /><text fill="#e1ed5e" style="font-size:6.75px; font-family:Arial;" text-anchor="middle"><textPath startOffset="22.206326154141568" xlink:href="#id41">May</textPath></text><path d="M 118.48025628344425 109.97397251340804 l 14.790100628919468 7.982359924063164 a37.806699455004654,37.806699455004654 0 0,0 -0.3140181078918842,0.5700340785489576 l -14.650506111576075 -8.235764521009928" fill="#ff920d" stroke="none" /><path d="M 118.12598468904814 110.60418214915192 l 27.207047601851865 15.916844985806671 a52.52093579688954,52.52093579688954 0 0,0 -0.4632324636099767,0.7764042540918451 l -26.929034262543663 -16.38281133378462" fill="#a4ff21" stroke="none" /><path d="M 117.94076556474637 110.91462005526583 l 34.93953958382281 21.256160897208506 a61.89738136381762,61.89738136381762 0 0,0 -0.5616018981792623,0.905481077802263 l -34.56847304597559 -21.854438306376043" fill="#37ff2e" stroke="none" /><path d="M 117.55443506779139 111.5257021239791 l 20.01107593438326 13.13865695531303 a44.93882759537418,44.93882759537418 0 0,0 -0.4301221330072954,0.6429742291085412 l -19.781950695965243 -13.481168098627377" fill="#fff817" stroke="none" /><path d="M 117.35343817320211 111.8261652097733 l 29.83278158899678 20.33069183277921 a57.10168815632062,57.10168815632062 0 0,0 -0.5605185807645011,0.8074688210424469 l -29.478402101070145 -20.841201916008675" fill="#6dff28" stroke="none" /><line stroke="#e1ed5e" stroke-width="0.3" x1="143.8653032363475" x2="146.44561519142675" y1="172.8068346515853" y2="177.08958963109032" /><path d="M 144.38136562736335 173.6633856474863 a86.0,86.0 0 0,1 -40.68145358897372,12.25698825130547" fill="none" id="id42" stroke="none" /><text fill="#e1ed5e" style="font-size:6.75px; font-family:Arial;" text-anchor="middle"><textPath startOffset="21.466115282336833" xlink:href="#id42">June</textPath></text><line stroke="#e1ed5e" stroke-width="0.3" x1="102.19456741930631" x2="102.32365962044197" y1="184.97166512339345" y2="189.96999836594603" /><path d="M 102.22038585953345 185.97133177190398 a86.0,86.0 0 0,1 -42.740103519485714,-10.115201625700543" fill="none" id="id43" stroke="none" /><text fill="#e1ed5e" style="font-size:6.75px; font-family:Arial;" text-anchor="middle"><textPath startOffset="22.20632615414155" xlink:href="#id43">July</textPath></text><line stroke="#e1ed5e" stroke-width="0.3" x1="58.666819895761336" x2="56.23545636021788" y1="174.27360380694188" y2="178.64263932499728" /><path d="M 58.180547188652646 175.14741091055294 a86.0,86.0 0 0,1 -31.652253787137756,-30.449443065178592" fill="none" id="id44" stroke="none" /><text fill="#e1ed5e" style="font-size:6.75px; font-family:Arial;" text-anchor="middle"><textPath startOffset="22.20632615414155" xlink:href="#id44">August</textPath></text><line stroke="#e1ed5e" stroke-width="0.3" x1="26.63291911575756" x2="22.317208475507996" y1="142.92168965132927" y2="145.44649492493687" /><path d="M 25.769776987707644 143.4266507060508 a86.0,86.0 0 0,1 -11.730757126820373,-40.83630448921669" fill="none" id="id45" stroke="none" /><text fill="#e1ed5e" style="font-size:6.75px; font-family:Arial;" text-anchor="middle"><textPath startOffset="21.46611528233685" xlink:href="#id45">September</textPath></text><line stroke="#e1ed5e" stroke-width="0.3" x1="15.007084014347285" x2="10.007500721073583" y1="101.09737516637583" y2="101.16192664675087" /><path d="M 14.007167355692545 101.11028546245083 a86.0,86.0 0 0,1 10.666146001902534,-42.60595125391555" fill="none" id="id46" stroke="none" /><text fill="#e1ed5e" style="font-size:6.75px; font-family:Arial;" text-anchor="middle"><textPath startOffset="22.20632615414155" xlink:href="#id46">October</textPath></text><line stroke="#e1ed5e" stroke-width="0.3" x1="26.266209847984243" x2="21.928928074336255" y1="57.711370442889674" y2="55.22380399835377" /><path d="M 25.398753493254645 57.213857153982495 a86.0,86.0 0 0,1 29.58750427330803,-30.492523968695096" fill="none" id="id47" stroke="none" /><text fill="#e1ed5e" style="font-size:6.75px; font-family:Arial;" text-anchor="middle"><textPath startOffset="21.46611528233685" xlink:href="#id47">November</textPath></text><line stroke="#e1ed5e" stroke-width="0.3" x1="56.762969772571076" x2="54.21961505331055" y1="26.818313649435495" y2="22.513508569990535" /><path d="M 56.25429882871897 25.957352633546506 a86.0,86.0 0 0,1 42.265352541879196,-11.944610805530505" fill="none" id="id48" stroke="none" /><text fill="#e1ed5e" style="font-size:6.75px; font-family:Arial;" text-anchor="middle"><textPath startOffset="22.20632615414155" xlink:href="#id48">December</textPath></text></svg>