<?xml version="1.0" encoding="utf-8" ?>
<svg baseProfile="full" height="200mm" version="1.1" viewBox="0,0,200,200" width="200mm" xmlns="http://www.w3.org/2000/svg" xmlns:ev="http://www.w3.org/2001/xml-events" xmlns:xlink="http://www.w3.org/1999/xlink"><defs /><rect fill="#1a1a1a" height="200" width="200" x="0" y="0" /><text alignment-baseline="middle" fill="#e1ed5e" style="dominant-baseline: central; font-size:9.0px; font-family:Arial;" text-anchor="middle" x="100.0" y="100.0">2025</text><line stroke="#e1ed5e" stroke-width="0.3" x1="100.0" x2="100.0" y1="15.0" y2="10.0" /><path d="M 100.0 14.0 a86.0,86.0 0 0,1 42.46469731375804,11.215312516191453" fill="none" id="id37" stroke="none" /><text fill="#e1ed5e" style="font-size:6.75px; font-family:Arial;" text-anchor="middle"><textPath startOffset="22.20632615414155" xlink:href="#id37">January</textPath></text><path d="M 100.0 79.0 l 0.0 -15.692613448161644 a36.692613448161644,36.692613448161644 0 0,0 0.6316030235715757,0.005436406628071559 l -0.2701225442990474 15.690288418142131" fill="#ff7b0b" stroke="none" /><path d="M 100.36148047927253 79.00311137660856 l 0.2550615703720393 -14.815459457138196 a35.8176548526002,35.8176548526002 0 0,0 0.6163593549291907,0.01591874370059707 l -0.5100475604960979 14.80887392129524" fill="#ff6e0a" stroke="none" /><path d="M 101.08401301168833 79.027996857942 l 1.2688692124890864 -24.548348427788778 a45.58111957601855,45.58111957601855 0 0,0 0.7832094190193901,0.047245331007397334 l -1.6912406803480882 24.522869827401077" fill="#fffc17" stroke="none" /><path d="M 101.44485096284872 79.0497635885617 l 1.8839193811241375 -27.3166973130735 a48.38158330573037,48.38158330573037 0 0,0 0.8303427275032571,0.06445057656594139 l -2.353852297989736 27.280221474319095" fill="#ddff1b" stroke="none" /><path d="M 102.16513564639614 79.11191278185805 l 1.8247873467071167 -17.60458626046118 a38.698906922822125,38.698906922822125 0 0,0 0.6619969478312241,0.07438307046046096 l -2.1275509980480662 17.570567236530117" fill="#ff990e" stroke="none" /><path d="M 102.52436894288641 79.15227682838746 l 1.984925884822004 -16.392685181596818 a37.51242133156674,37.51242133156674 0 0,0 0.6403643116845128,0.08313766623545353 l -2.266804925014363 16.356089192197228" fill="#ff880c" stroke="none" /><path d="M 102.88285421437855 79.19881850522331 l 2.2119661707352654 -15.960401170577008 a37.11295130838026,37.11295130838026 0 0,0 0.6320353626532231,0.09314558300081066 l -2.4863705138171444 15.919961103415229" fill="#ff820b" stroke="none" /><path d="M 103.2404852339499 79.25152402106235 l 2.5451601811003695 -16.296384975573687 a37.49393839019543,37.49393839019543 0 0,0 0.6368091795529099,0.1050789710178321 l -2.8252985667921546 16.25015974161623" fill="#ff870c" stroke="none" /><path d="M 103.59715602781102 79.31037775812273 l 2.835664667302904 -16.309782038239057 a37.5544551175886,37.5544551175886 0 0,0 0.6359308316255543,0.11621229471198997 l -3.115990620031359 16.25855426217633" fill="#ff880c" stroke="none" /><path d="M 103.95276090670814 79.375362276772 l 3.0727277800312844 -16.032818270817668 a37.324610798277575,37.324610798277575 0 0,0 0.6299569438321727,0.12636343660549748 l -3.3482511333305824 15.977550878134963" fill="#ff850c" stroke="none" /><path d="M 104.307194497241 79.44645832069477 l 3.294444321838053 -15.72078965145931 a37.062272275587944,37.062272275587944 0 0,0 0.6232767196917555,0.136224149979573 l -3.5645637656833364 15.661752003383866" fill="#ff810b" stroke="none" /><path d="M 104.66035177308747 79.52364482259891 l 3.584940262339433 -15.75128094950566 a37.154090758529314,37.154090758529314 0 0,0 0.6223775743473914,0.14729666363508284 l -3.8555415236493475 15.687238373729707" fill="#ff820c" stroke="none" /><path d="M 105.36241919743992 79.69619591428918 l 4.145097006657816 -15.694639758791354 a37.2327923153362,37.2327923153362 0 0,0 0.6182453938310919,0.16898982048908975 l -4.41464028971262 15.62096339747597" fill="#ff840c" stroke="none" /><path d="M 105.71112130821622 79.79150937346287 l 4.339079341537858 -15.353595111895142 a36.954951970851276,36.954951970851276 0 0,0 0.6106538017831575,0.17826658997029934 l -4.602723361044443 15.27663019300614" fill="#ff7f0b" stroke="none" /><path d="M 106.40334571778207 80.00007090966166 l 7.26650811527631 -22.695892654415704 a44.83077177873468,44.83077177873468 0 0,0 0.732913049703308,0.24162990934376738 l -7.656103987222036 22.5674490208127" fill="#fff116" stroke="none" /><path d="M 107.08798089147638 80.2323363322302 l 5.47873789155665 -15.279647282118939 a37.232196091421,37.232196091421 0 0,0 0.6014199506910096,0.22150804343125094 l -5.740940168020235 15.183075970881363" fill="#ff840c" stroke="none" /><path d="M 107.4271985657038 80.35727306442388 l 5.685059575016549 -15.035288454544041 a37.07419675389202,37.07419675389202 0 0,0 0.5949823071512527,0.23084389156994223 l -5.943025047167469 14.935201859083552" fill="#ff810b" stroke="none" /><path d="M 107.76421540070413 80.48803036053334 l 5.772185120922855 -14.50587020326791 a36.612123219609146,36.612123219609146 0 0,0 0.5835556290581296,0.23804699330204915 l -6.021024619569372 14.404362323782284" fill="#ff7a0b" stroke="none" /><path d="M 108.09893153111575 80.62456947434976 l 5.75084306799427 -13.757995100927813 a35.91156011924478,35.91156011924478 0 0,0 0.5682854624149811,0.24331017739803634 l -5.986812288199567 13.656965395566987" fill="#ff6f0a" stroke="none" /><path d="M 108.76106565485865 80.91482961587045 l 10.68093008715177 -23.267417298855538 a46.6018549188473,46.6018549188473 0 0,0 0.7261496344429449,0.3409369899745319 l -11.079857932894312 23.080115326241003" fill="#f5ff19" stroke="none" /><path d="M 109.73455568895987 81.39251694778311 l 6.632699608238397 -12.678323438090965 a35.30847962901623,35.30847962901623 0 0,0 0.536108744250764,0.28637072455718654 l -6.849953399017473 12.562273987032025" fill="#ff6609" stroke="none" /><path d="M 110.05341064243156 81.56283822128135 l 9.263713880663875 -16.988920234561505 a40.3504471679364,40.3504471679364 0 0,0 0.6069397264534587,0.33776130065165066 l -9.554777696189369 16.826943536349674" fill="#ffb210" stroke="none" /><line stroke="#e1ed5e" stroke-width="0.3" x1="143.23703022742887" x2="145.7803849466894" y1="26.81831364943548" y2="22.513508569990506" /><path d="M 143.74570117128098 25.957352633546492 a86.0,86.0 0 0,1 28.547481713284135,27.462654790039103" fill="none" id="id38" stroke="none" /><text fill="#e1ed5e" style="font-size:6.75px; font-family:Arial;" text-anchor="middle"><textPath startOffset="19.985693538727396" xlink:href="#id38">February</textPath></text><path d="M 110.68208982089419 81.91981866633111 l 16.648653406084893 -28.179005942698712 a53.72971182510765,53.72971182510765 0 0,0 0.7922265215356239,0.477307614942162 l -17.131241993838152 27.888251718297937" fill="#98ff23" stroke="none" /><path d="M 111.2981086023043 82.29822771554956 l 8.61223495411821 -13.49357024120762 a37.007717787346806,37.007717787346806 0 0,0 0.5340266090493191,0.34734576144222035 l -8.843228588951808 13.34332555560587" fill="#ff800b" stroke="none" /><path d="M 111.60114157652 82.49532879139004 l 8.98535396415462 -13.557774965339892 a37.264988406757205,37.264988406757205 0 0,0 0.5316388376028143,0.3589649163340544 l -9.217397496163976 13.401098136707168" fill="#ff840c" stroke="none" /><path d="M 112.19680574252982 82.90503203632743 l 11.518544913086721 -16.144321753910212 a40.832196091421004,40.832196091421004 0 0,0 0.5686460471665046,0.41314553664860537 l -11.794736276607013 15.943656982444933" fill="#ffb911" stroke="none" /><path d="M 112.48926042617603 83.11751280151076 l 9.534755166696453 -12.888704098531486 a37.03216296787015,37.03216296787015 0 0,0 0.5091990234104229,0.3835181476298887 l -9.75520034386526 12.722669361395749" fill="#ff800b" stroke="none" /><path d="M 112.77801427241765 83.33499621200491 l 20.32703751526695 -26.510391205452095 a54.406425968863864,54.406425968863864 0 0,0 0.7382885805359405,0.5762459476477196 l -20.780358650962324 26.15656686858115" fill="#90ff24" stroke="none" /><path d="M 113.34407831869373 83.78471172551755 l 10.154772248571636 -12.339747672316008 a36.98088771116264,36.98088771116264 0 0,0 0.4880463955099963,0.40872482077666555 l -10.36567618104075 12.163121694145524" fill="#ff800b" stroke="none" /><path d="M 113.89432698308785 84.25364557470407 l 10.538596849094546 -11.943326318225932 a36.92812189466711,36.92812189466711 0 0,0 0.47301233516101915,0.42467514485001506 l -10.742620171851556 11.76015216460662" fill="#ff7f0b" stroke="none" /><path d="M 114.16331599549186 84.49514656593476 l 10.804948681177294 -11.828384378176304 a37.02053660152369,37.02053660152369 0 0,0 0.46679743951275177,0.43383734660432827 l -11.006954004484893 11.640642445497335" fill="#ff800b" stroke="none" /><path d="M 114.68862486808459 84.99185889309783 l 26.773568822155795 -27.355964389242985 a59.277575356078174,59.277575356078174 0 0,0 0.7230853647195717,0.7199802063676937 l -27.24048998704269 26.89104833222517" fill="#56ff2a" stroke="none" /><path d="M 115.19652480421416 85.50635884689758 l 9.681825105945176 -9.234012420639326 a34.37926465717125,34.37926465717125 0 0,0 0.40474655570850776,0.43175540549235497 l -9.839338983624147 9.065987598268917" fill="#ff5808" stroke="none" /><path d="M 115.68641384162765 86.03803664274999 l 12.011429933526651 -10.690980506649304 a37.08015899304405,37.08015899304405 0 0,0 0.4202561685795956,0.4804254493108883 l -12.193677965684095 10.482639501135466" fill="#ff810b" stroke="none" /><path d="M 115.9244219780498 86.31012108654704 l 12.233238470763718 -10.516648806153984 a37.13232858562438,37.13232858562438 0 0,0 0.4125037216921472,0.48827429611197465 l -12.412452805942982 10.304515560412902" fill="#ff820c" stroke="none" /><path d="M 116.15771136456269 86.58626213691792 l 18.407083760083605 -15.281111960142944 a44.92348459754886,44.92348459754886 0 0,0 0.4888135224629588,0.5992275805780994 l -18.667395774622975 14.962000209956745" fill="#fff316" stroke="none" /><path d="M 116.38621287248628 86.86637796730983 l 10.304867698639221 -8.259397000636556 a34.20635972176217,34.20635972176217 0 0,0 0.3642910842622427,0.46261268267423267 l -10.445512863495429 8.080791924009285" fill="#ff5507" stroke="none" /><path d="M 116.60985879189232 87.15038557335679 l 12.161595089692264 -9.408376655904085 a36.37601854918847,36.37601854918847 0 0,0 0.3788719264553074,0.49855104434716 l -12.321742956371686 9.197640835675893" fill="#ff770a" stroke="none" /><line stroke="#e1ed5e" stroke-width="0.3" x1="172.23445277983987" x2="176.4835382374775" y1="55.19839476539836" y2="52.563006222186495" /><path d="M 173.08426987136738 54.67131705675599 a86.0,86.0 0 0,1 12.851231095245387,41.99856678651699" fill="none" id="id39" stroke="none" /><text fill="#e1ed5e" style="font-size:6.75px; font-family:Arial;" text-anchor="middle"><textPath startOffset="22.20632615414155" xlink:href="#id39">March</textPath></text><path d="M 117.84615892207809 88.93136811851018 l 6.703393248637479 -4.157611312888193 a28.888042398145082,28.888042398145082 0 0,0 0.2584574659547241,0.42483611721463754 l -6.773966512878427 4.041607422466473" fill="#ff0000" stroke="none" /><path d="M 118.03404312379186 89.2402003453031 l 23.440586615728442 -13.985550219798764 a48.295727061941044,48.295727061941044 0 0,0 0.41980560664661626,0.717583863745844 l -23.677851896845386 13.579986943699025" fill="#deff1b" stroke="none" /><path d="M 118.3937258080291 89.86733742301442 l 13.93955972547627 -7.678969266157794 a36.91470685657502,36.91470685657502 0 0,0 0.3018074374761207,0.5592033450373424 l -14.069675262170856 7.437884937787993" fill="#ff7f0b" stroke="none" /><path d="M 118.73160827565052 90.50648371742162 l 17.64766923432685 -8.944156463245353 a40.784796290162305,40.784796290162305 0 0,0 0.3119842451309315,0.6289412006472697 l -17.79901349241119 8.639055674099133" fill="#ffb811" stroke="none" /><path d="M 118.89224826269711 90.83032412892265 l 14.106831854699307 -6.84699215660817 a36.68068896985757,36.68068896985757 0 0,0 0.27081144138168994,0.5703979610779697 l -14.222601489922752 6.60315177988966" fill="#ff7b0b" stroke="none" /><path d="M 119.04729006885535 91.15688171328212 l 24.543451278332473 -11.394830552482592 a48.05962239152037,48.05962239152037 0 0,0 0.3419045825195044,0.7533414264118902 l -24.735958177815323 10.97066711722864" fill="#e1ff1b" stroke="none" /><path d="M 119.196687751892 91.48605970444005 l 14.27311386494718 -6.3302816011013245 a36.61391189135475,36.61391189135475 0 0,0 0.25055996608520104,0.5783269473520537 l -14.379964540875061 6.083655509162668" fill="#ff7a0b" stroke="none" /><path d="M 119.47837535516314 92.15188598940014 l 24.537609837938433 -9.88655142148248 a47.45445511758861,47.45445511758861 0 0,0 0.29875166920926494,0.7602904117352869 l -24.704155057029396 9.462712004851408" fill="#e9ff1a" stroke="none" /><path d="M 119.7369772167798 92.82701384747503 l 31.767072495696222 -11.545069369800041 a54.79993375289831,54.79993375289831 0 0,0 0.31456967551135345,0.8893308330786678 l -31.961095252017387 10.996540910294758" fill="#8bff24" stroke="none" /><path d="M 119.97218684219823 93.5106431181261 l 27.844628823720548 -9.04726833912131 a50.277575356078174,50.277575356078174 0 0,0 0.26035288616210855,0.8253897969757676 l -27.996237193650863 8.566628375719123" fill="#c4ff1e" stroke="none" /><path d="M 120.08093135843002 93.85539295169968 l 42.08700192720306 -12.878291552705132 a65.01324942033786,65.01324942033786 0 0,0 0.3182370785722272,1.0729372248193954 l -42.30244490288699 12.151924941139207" fill="#32ff4e" stroke="none" /><path d="M 120.28053869075195 94.5502522615342 l 25.251588253904135 -6.785558711127171 a47.14739980125869,47.14739980125869 0 0,0 0.20386461165388817,0.7855735103113255 l -25.364649197428328 6.3498887752669955" fill="#edff1a" stroke="none" /><path d="M 120.45610955862082 95.25157060432595 l 34.20718787219314 -7.940435397561396 a56.11669426962571,56.11669426962571 0 0,0 0.2103189915195303,0.9428187995721141 l -34.3388012507147 7.350438428439318" fill="#7bff26" stroke="none" /><path d="M 120.6074358757038 95.95851677861258 l 28.651288548711914 -5.619025221729307 a50.19708512752567,50.19708512752567 0 0,0 0.1589915609091685,0.8493392758708485 l -28.74376583353094 5.125007868395896" fill="#c5ff1e" stroke="none" /><path d="M 120.67395015179393 96.31383870115 l 46.179615620850456 -8.23381650083821 a67.90791652865187,67.90791652865187 0 0,0 0.1952777460573983,1.1525403112701589 l -46.314505228428075 7.437690401252213" fill="#37ff73" stroke="none" /><path d="M 120.78858239683441 97.02765380044208 l 25.790905739681254 -3.687577113010422 a47.053196422656505,47.053196422656505 0 0,0 0.1077383781485159,0.8027760583555418 l -25.850560116887607 3.243082712590216" fill="#eeff19" stroke="none" /><path d="M 120.83666639777658 97.38593545837742 l 39.05654802199052 -4.899840279314509 a60.36270288174892,60.36270288174892 0 0,0 0.1204656937868259,1.0320764972061147 l -39.13510406878094 4.226820043783541" fill="#4aff2c" stroke="none" /><path d="M 120.87857604477298 97.74499172005257 l 20.02398993401121 -2.1627079836262952 a41.14044385558132,41.14044385558132 0 0,0 0.06998356691572662,0.7047249682158562 l -20.058250626609166 1.8177074847060042" fill="#ffbd11" stroke="none" /><path d="M 120.94382443527127 98.46500227214037 l 27.75311932619361 -2.0340590248159565 a48.82755879430275,48.82755879430275 0 0,0 0.054220467322871155,0.8387666309379387 l -27.784020384520897 1.5560333296249822" fill="#d7ff1c" stroke="none" /><path d="M 120.96714384426684 98.82574320788733 l 55.27247874986765 -3.095513822531545 a76.35909241470686,76.35909241470686 0 0,0 0.062201359513363016,1.3129723894904093 l -55.317573717614515 2.143630326418136" fill="#42ffda" stroke="none" /><line stroke="#e1ed5e" stroke-width="0.3" x1="184.98032266829074" x2="189.97916517819016" y1="98.17113171792111" y2="98.06355123074" /><path d="M 185.9800911702706 98.14961562048488 a86.0,86.0 0 0,1 -9.607161424134198,41.387399972396054" fill="none" id="id40" stroke="none" /><text fill="#e1ed5e" style="font-size:6.75px; font-family:Arial;" text-anchor="middle"><textPath startOffset="21.466115282336823" xlink:href="#id40">April</textPath></text><path d="M 120.99513854157772 99.54816195383933 l 28.923279581160276 -0.6224601999472266 a49.92997681351441,49.92997681351441 0 0,0 0.01109632601910949,0.8594226787603453 l -28.929708914297102 0.12450126312641857" fill="#c8ff1d" stroke="none" /><path d="M 120.99824983174949 100.27111621757518 l 36.62506925771398 0.47287989833166544 a57.62812189466711,57.62812189466711 0 0,0 -0.021344186651308102,0.9917804833153027 l -36.61150300837767 -1.103250197437083" fill="#69ff28" stroke="none" /><path d="M 120.9904718944345 100.63252640178507 l 46.019521308519344 1.3867512065256176 a67.04041073203047,67.04041073203047 0 0,0 -0.04468679823941591,1.1531677012350385 l -45.98883237742872 -2.1786961547746624" fill="#35ff68" stroke="none" /><path d="M 120.95626037817324 101.35467743843564 l 62.86878113451971 4.064032315306923 a84.0,84.0 0 0,0 -0.10569376534264929,1.4421074540129188 l -62.789510810512716 -5.145612905816612" fill="#4dd2ff" stroke="none" /><path d="M 120.89721153311464 102.0752229133903 l 19.905105711358434 1.976700642581399 a41.003014243126856,41.003014243126856 0 0,0 -0.07579250687798922,0.7017444825138132 l -19.86813090297939 -2.3190414469800036" fill="#ffbb11" stroke="none" /><path d="M 120.81339534386255 102.79330883721812 l 26.318362611856667 3.5321154309639446 a47.554322623385225,47.554322623385225 0 0,0 -0.11586485929943853,0.8103585560801363 l -26.253663701540628 -3.9846194590244903" fill="#e8ff1a" stroke="none" /><line stroke="#e1ed5e" stroke-width="0.3" x1="174.80103733775053" x2="179.2010983576182" y1="140.37084112569926" y2="142.7455964860345" /><path d="M 175.68104954172406 140.8457921977663 a86.0,86.0 0 0,1 -30.038265399797805,32.042727171017184" fill="none" id="id41" stroke="none" /><text fill="#e1ed5e" style="font-size:6.75px; font-family:Arial;" text-anchor="middle"><textPath startOffset="22.206326154141568" xlink:href="#id41">May</textPath></text><line stroke="#e1ed5e" stroke-width="0.3" x1="143.8653032363475" x2="146.44561519142675" y1="172.8068346515853" y2="177.08958963109032" /><path d="M 144.38136562736335 173.6633856474863 a86.0,86.0 0 0,1 -40.68145358897372,12.25698825130547" fill="none" id="id42" stroke="none" /><text fill="#e1ed5e" style="font-size:6.75px; font-family:Arial;" text-anchor="middle"><textPath startOffset="21.466115282336833" xlink:href="#id42">June</textPath></text><line stroke="#e1ed5e" stroke-width="0.3" x1="102.19456741930631" x2="102.32365962044197" y1="184.97166512339345" y2="189.96999836594603" /><path d="M 102.22038585953345 185.97133177190398 a86.0,86.0 0 0,1 -42.740103519485714,-10.115201625700543" fill="none" id="id43" stroke="none" /><text fill="#e1ed5e" style="font-size:6.75px; font-family:Arial;" text-anchor="middle"><textPath startOffset="22.20632615414155" xlink:href="#id43">July</textPath></text><line stroke="#e1ed5e" stroke-width="0.3" x1="58.666819895761336" x2="56.23545636021788" y1="174.27360380694188" y2="178.64263932499728" /><path d="M 58.180547188652646 175.14741091055294 a86.0,86.0 0 0,1 -31.652253787137756,-30.449443065178592" fill="none" id="id44" stroke="none" /><text fill="#e1ed5e" style="font-size:6.75px; font-family:Arial;" text-anchor="middle"><textPath startOffset="22.20632615414155" xlink:href="#id44">August</textPath></text><line stroke="#e1ed5e" stroke-width="0.3" x1="26.63291911575756" x2="22.317208475507996" y1="142.92168965132927" y2="145.44649492493687" /><path d="M 25.769776987707644 143.4266507060508 a86.0,86.0 0 0,1 -11.730757126820373,-40.83630448921669" fill="none" id="id45" stroke="none" /><text fill="#e1ed5e" style="font-size:6.75px; font-family:Arial;" text-anchor="middle"><textPath startOffset="21.46611528233685" xlink:href="#id45">September</textPath></text><line stroke="#e1ed5e" stroke-width="0.3" x1="15.007084014347285" x2="10.007500721073583" y1="101.09737516637583" y2="101.16192664675087" /><path d="M 14.007167355692545 101.11028546245083 a86.0,86.0 0 0,1 10.666146001902534,-42.60595125391555" fill="none" id="id46" stroke="none" /><text fill="#e1ed5e" style="font-size:6.75px; font-family:Arial;" text-anchor="middle"><textPath startOffset="22.20632615414155" xlink:href="#id46">October</textPath></text><line stroke="#e1ed5e" stroke-width="0.3" x1="26.266209847984243" x2="21.928928074336255" y1="57.711370442889674" y2="55.22380399835377" /><path d="M 25.398753493254645 57.213857153982495 a86.0,86.0 0 0,1 29.58750427330803,-30.492523968695096" fill="none" id="id47" stroke="none" /><text fill="#e1ed5e" style="font-size:6.75px; font-family:Arial;" text-anchor="middle"><textPath startOffset="21.46611528233685" xlink:href="#id47">November</textPath></text><line stroke="#e1ed5e" stroke-width="0.3" x1="56.762969772571076" x2="54.21961505331055" y1="26.818313649435495" y2="22.513508569990535" /><path d="M 56.25429882871897 25.957352633546506 a86.0,86.0 0 0,1 42.265352541879196,-11.944610805530505" fill="none" id="id48" stroke="none" /><text fill="#e1ed5e" style="font-size:6.75px; font-family:Arial;" text-anchor="middle"><textPath startOffset="22.20632615414155" xlink:href="#id48">December</textPath></text></svg>