<?xml version="1.0" encoding="utf-8" ?>
<svg baseProfile="full" height="200mm" version="1.1" viewBox="0,0,200,200" width="200mm" xmlns="http://www.w3.org/2000/svg" xmlns:ev="http://www.w3.org/2001/xml-events" xmlns:xlink="http://www.w3.org/1999/xlink"><defs /><rect fill="#1a1a1a" height="200" width="200" x="0" y="0" /><text alignment-baseline="middle" fill="#e1ed5e" style="dominant-baseline: central; font-size:9.0px; font-family:Arial;" text-anchor="middle" x="100.0" y="100.0">2024</text><line stroke="#e1ed5e" stroke-width="0.3" x1="100.0" x2="100.0" y1="15.0" y2="10.0" /><path d="M 100.0 14.0 a86.0,86.0 0 0,1 42.35913384403234,11.155469271406648" fill="none" id="id25" stroke="none" /><text fill="#e1ed5e" style="font-size:6.75px; font-family:Arial;" text-anchor="middle"><textPath startOffset="22.145653131862478" xlink:href="#id25">January</textPath></text><path d="M 100.0 79.0 l 0.0 -17.433523792316905 a38.433523792316905,38.433523792316905 0 0,0 0.6597625430543034,0.005663267934700791 l -0.29926961820544856 17.43095492257664" fill="#ff810b" stroke="none" /><path d="M 100.72087961077811 79.0123766808444 l 0.6316142049221455 -18.38875842476029 a39.39960252038212,39.39960252038212 0 0,0 0.6757486604956192,0.02901955504921285 l -0.947188626018601 18.375206301285246" fill="#ff900d" stroke="none" /><path d="M 101.44090949804482 79.04949213459386 l 1.5886678861480308 -23.09888239991828 a44.15344971656994,44.15344971656994 0 0,0 0.7557199436079959,0.05849750314221863 l -1.9849568245312603 23.06820712978101" fill="#ffd714" stroke="none" /><path d="M 101.80034050326958 79.07731436759882 l 1.8835695059614406 -21.889932803509957 a42.97082138259672,42.97082138259672 0 0,0 0.7343926931389801,0.0695477515854656 l -2.259061762485434 21.854373296419308" fill="#ffc512" stroke="none" /><path d="M 102.15924093988457 79.11130261209362 l 3.756871498855779 -36.34432379234338 a57.53797962916959,57.53797962916959 0 0,0 0.981609161693151,0.10999135400849601 l -4.380216562149727 36.27447667782791" fill="#74ff27" stroke="none" /><path d="M 102.87502721639298 79.19773525538626 l 2.31000797844606 -16.714067002848374 a37.872942026694375,37.872942026694375 0 0,0 0.6432536951284571,0.09453614152633182 l -2.5965867791821986 16.67194978802316" fill="#ff780b" stroke="none" /><path d="M 103.23170211078529 79.25015418208739 l 3.9515676059206344 -25.37189869334422 a46.677775017502654,46.677775017502654 0 0,0 0.7906826038644309,0.130106521575874 l -4.386527712838135 25.300326173272676" fill="#fffb17" stroke="none" /><path d="M 103.58742460773223 79.30868818359171 l 2.6655944582984716 -15.37444048130376 a36.603807674066715,36.603807674066715 0 0,0 0.6181952000842313,0.11265575862095295 l -2.929124391933757 15.32641654875144" fill="#ff6409" stroke="none" /><path d="M 103.94208987418118 79.37332000966035 l 2.789171699185212 -14.594124921912218 a35.85826238171594,35.85826238171594 0 0,0 0.6036200845090316,0.12074092226822074 l -3.0392882692252003 14.544094602981138" fill="#ff5808" stroke="none" /><path d="M 104.64783097203109 79.52079915486377 l 8.195293550923164 -36.1099755185079 a58.02827525463538,58.02827525463538 0 0,0 0.9695359981325259,0.22880785564961909 l -8.813961702795575 35.96397151921206" fill="#6eff28" stroke="none" /><path d="M 104.9986988182912 79.60360301121754 l 4.187216019545952 -17.08527025071778 a38.590885069671856,38.590885069671856 0 0,0 0.6420690939566905,0.1632114528921303 l -4.479890406728036 17.010873565990384" fill="#ff830c" stroke="none" /><path d="M 105.3480935250658 79.69241777938227 l 3.99630457923287 -15.174619411765823 a36.692021048352494,36.692021048352494 0 0,0 0.6077222551387014,0.16563740305888358 l -4.256208235306264 15.103781514562797" fill="#ff6509" stroke="none" /><path d="M 105.69591212413111 79.78721728523813 l 4.006601245860613 -14.218014365807768 a35.7717563630615,35.7717563630615 0 0,0 0.5896207287903985,0.17163000092631167 l -4.250081987032616 14.14714067057894" fill="#ff5708" stroke="none" /><path d="M 106.38641147887787 79.99465700312896 l 7.08864414466438 -22.205076820651286 a44.30910363829355,44.30910363829355 0 0,0 0.7226124053012015,0.23753705052863916 l -7.468779287613325 22.080118848720623" fill="#ffd914" stroke="none" /><path d="M 107.06938296918511 80.22567764915836 l 5.345742901990225 -14.952994314985224 a36.87983016779963,36.87983016779963 0 0,0 0.5943111720922323,0.21823929445976123 l -5.6016432257365825 14.85902417151674" fill="#ff6809" stroke="none" /><path d="M 107.40779381753099 80.34994680014964 l 5.465429089775209 -14.497699992666316 a36.49368323584544,36.49368323584544 0 0,0 0.5842946927460121,0.2260177392337646 l -5.713496045014747 14.401742365294513" fill="#ff6209" stroke="none" /><path d="M 107.74402155503746 80.48000691201159 l 6.319180352460842 -15.928462482332414 a38.136159353192255,38.136159353192255 0 0,0 0.6064476325394781,0.24663697263267959 l -6.5916824461907595 15.817638253120439" fill="#ff7c0b" stroke="none" /><path d="M 108.4095320186766 80.7573450057729 l 9.76120299988487 -22.335542719648046 a45.37534723006391,45.37534723006391 0 0,0 0.7110675530564702,0.3180514720680198 l -10.143183955796973 22.164687496670176" fill="#ffe815" stroke="none" /><path d="M 109.06512990194946 81.05736502329252 l 27.0420897381305 -56.50756695793341 a83.64487002868177,83.64487002868177 0 0,0 1.2898825647902428,0.6309461992785153 l -28.00813255218281 56.03502700855768" fill="#4cd6ff" stroke="none" /><path d="M 109.71004243097381 81.37971332152246 l 7.935836389915145 -15.21801265691223 a38.16290792474988,38.16290792474988 0 0,0 0.5782792439887215,0.30790112571604183 l -8.195904449690426 15.079541063473615" fill="#ff7c0b" stroke="none" /><path d="M 110.34350942703115 81.72400993836675 l 9.7916562535083 -17.300918381568163 a40.87959529347998,40.87959529347998 0 0,0 0.607757979116338,0.35088923284496076 l -10.087206700485035 17.13028225144703" fill="#ffa60f" stroke="none" /><line stroke="#e1ed5e" stroke-width="0.3" x1="143.13028292997686" x2="145.6673583964461" y1="26.7553504044142" y2="22.446841604673864" /><path d="M 143.63769802327073 25.89364864446614 a86.0,86.0 0 0,1 29.32050498858742,28.57503671076993" fill="none" id="id26" stroke="none" /><text fill="#e1ed5e" style="font-size:6.75px; font-family:Arial;" text-anchor="middle"><textPath startOffset="20.669276256404974" xlink:href="#id26">February</textPath></text><path d="M 110.65571695917076 81.90426304109057 l 14.390163241060675 -24.43764317349758 a49.359746155062226,49.359746155062226 0 0,0 0.7264514610080889,0.4362132296895453 l -14.807547458626198 24.187015943272115" fill="#deff1b" stroke="none" /><path d="M 110.96478420261332 82.08984904055464 l 8.68124451104804 -14.18016048794371 a37.62651369723797,37.62651369723797 0 0,0 0.5479779808190756,0.3419787883073335 l -8.92338662065683 14.02904590279483" fill="#ff740a" stroke="none" /><path d="M 111.27062007382361 82.28071324371311 l 26.592697039515834 -41.808136675694435 a70.54888321777818,70.54888321777818 0 0,0 1.0162881334095426,0.6587456896311762 l -27.306470805182382 41.345477144359364" fill="#3aff8f" stroke="none" /><path d="M 111.5731344415666 82.4767994020092 l 8.731797814400892 -13.221054801998159 a36.844260258813435,36.844260258813435 0 0,0 0.5247740478919642,0.35309139934335937 l -8.957468150389856 13.069213728597681" fill="#ff6809" stroke="none" /><path d="M 112.16784306229584 82.88440491214696 l 12.99350536869332 -18.27699252232453 a43.42497798053253,43.42497798053253 0 0,0 0.6038532473527525,0.43714318324884727 l -13.305339626420041 18.051248567702608" fill="#ffcc13" stroke="none" /><path d="M 112.45986205192187 83.09580414077388 l 9.334977386807656 -12.664689659521832 a36.73328214277649,36.73328214277649 0 0,0 0.5043777196841486,0.3784944438971128 l -9.551008095402572 12.502576188360704" fill="#ff6609" stroke="none" /><path d="M 112.7482090630111 83.31218511350987 l 15.642820366778434 -20.476954001392713 a46.768264865963545,46.768264865963545 0 0,0 0.6337991946437609,0.4928460872551451 l -15.99202950605742 20.205406862516778" fill="#fffc17" stroke="none" /><path d="M 113.31354834802062 83.75963576809568 l 39.94064504406186 -48.72109269571298 a84.0,84.0 0 0,0 1.1073026633524292,0.9237512643525192 l -40.77112204157618 48.028279247448594" fill="#4dd2ff" stroke="none" /><path d="M 113.86319453409587 84.22622945171908 l 10.741024915700896 -12.221314651319219 a37.270530048104064,37.270530048104064 0 0,0 0.4769473758455153,0.4264892844845215 l -10.949237318369788 12.03512983695131" fill="#ff6e0a" stroke="none" /><path d="M 114.39649973595853 84.71141617570332 l 15.775057492015893 -16.752564388785895 a44.01088552135324,44.01088552135324 0 0,0 0.5455830677447722,0.5226562373112034 l -16.06031304562598 16.47929602116911" fill="#ffd513" stroke="none" /><path d="M 114.65682725009322 84.96080404539774 l 12.081232208810095 -12.396408544706821 a38.30974050904492,38.30974050904492 0 0,0 0.46702871943047536,0.4630370449594521 l -12.292252848370532 12.187191489518709" fill="#ff7f0b" stroke="none" /><path d="M 114.91283532996326 85.21462403516908 l 12.492307596354864 -12.385536378136555 a38.591454188215636,38.591454188215636 0 0,0 0.4623866303113732,0.47444941673831315 l -12.70308102781705 12.169264269330501" fill="#ff830c" stroke="none" /><path d="M 116.1254893667686 86.54754324733833 l 10.898061593544352 -9.091550584326672 a35.19239368549425,35.19239368549425 0 0,0 0.3830158816869595,0.4672170981468611 l -11.052524294469938 8.903131204481316" fill="#ff4d07" stroke="none" /><path d="M 116.7966241395341 87.39550010848427 l 13.540023533425106 -10.160686084323551 a37.92843108471284,37.92843108471284 0 0,0 0.38632451473210105,0.524123400005426 l -13.712450067741033 9.92675637504925" fill="#ff790b" stroke="none" /><path d="M 117.21940702142032 87.97951657250589 l 13.402507816035364 -9.355991346804513 a37.34508457733914,37.34508457733914 0 0,0 0.36244340554102084,0.5288157604367568 l -13.561140958391709 9.124540851297708" fill="#ff700a" stroke="none" /><path d="M 117.62189284568427 88.57770195909679 l 15.400401712989094 -9.982354327984638 a39.35265024052033,39.35265024052033 0 0,0 0.36257340996070725,0.5700256223009218 l -15.56949281457569 9.716515031005045" fill="#ff8f0d" stroke="none" /><line stroke="#e1ed5e" stroke-width="0.3" x1="172.87174338648825" x2="177.1583165268699" y1="56.24261187166439" y2="53.66864786411523" /><path d="M 173.72905801456457 55.72781907015455 a86.0,86.0 0 0,1 12.242430191666344,42.057860355516425" fill="none" id="id27" stroke="none" /><text fill="#e1ed5e" style="font-size:6.75px; font-family:Arial;" text-anchor="middle"><textPath startOffset="22.145653131862474" xlink:href="#id27">March</textPath></text><path d="M 118.00360718960297 89.18935116829356 l 14.066062693441072 -8.446266496603767 a37.407118498611084,37.407118498611084 0 0,0 0.3258450191279552,0.5533560790046679 l -14.208981422698796 8.203559249305544" fill="#ff710a" stroke="none" /><path d="M 118.18653347947321 89.5 l 27.810252758534094 -16.056256916371197 a53.11251383274239,53.11251383274239 0 0,0 0.4490957312636041,0.793509125620946 l -28.081781854819077 15.576491020651133" fill="#acff21" stroke="none" /><path d="M 118.70294669586156 90.45014215332178 l 17.121692574254755 -8.742458225304105 a40.2245398495901,40.2245398495901 0 0,0 0.3087330868559465,0.6176729858078368 l -17.26924557432244 8.447253383332518" fill="#ff9c0e" stroke="none" /><path d="M 118.8641267826498 90.77261029715802 l 18.47473651007496 -9.036919407930219 a41.566521375821495,41.566521375821495 0 0,0 0.3080291857395486,0.6436625278124183 l -18.62714495377442 8.718444378052697" fill="#ffb010" stroke="none" /><path d="M 119.0197475246899 91.09779779509293 l 16.783373317672 -7.855466154869174 a39.53078434472323,39.53078434472323 0 0,0 0.2823919889606291,0.6170774595188357 l -16.91574977148768 7.566199713135655" fill="#ff920d" stroke="none" /><path d="M 119.31412917781788 91.75594674310238 l 17.655292409524975 -7.535994481044911 a40.19636848167303,40.19636848167303 0 0,0 0.2654379738998253,0.6369545080580975 l -17.782056227961284 7.231807463545536" fill="#ff9c0e" stroke="none" /><path d="M 119.4528033332814 92.08871423366111 l 19.842043915798783 -8.069586522656246 a42.420199191490326,42.420199191490326 0 0,0 0.26854273755798386,0.6769031237460166 l -19.977645328322893 7.727782381696664" fill="#ffbd11" stroke="none" /><path d="M 119.71291397450082 92.76114493625339 l 22.257664675244904 -8.173322769529841 a44.71090133020168,44.71090133020168 0 0,0 0.2583860658388242,0.7227518128716875 l -22.39469091112767 7.790036000277237" fill="#ffdf14" stroke="none" /><path d="M 119.83427380445688 93.10060997987247 l 14.824170016022427 -5.156615849592456 a36.695435759615165,36.695435759615165 0 0,0 0.20185037104715756,0.5967347555404547 l -14.910505808641949 4.90137941957784" fill="#ff6509" stroke="none" /><path d="M 119.94978838288452 93.4421083053983 l 14.795075564424717 -4.863435205567657 a36.57392895051831,36.57392895051831 0 0,0 0.19094252836345127,0.598124750532336 l -14.876382808565426 4.608741421343934" fill="#ff6309" stroke="none" /><path d="M 120.16314734710363 94.1308016681162 l 28.659364587833092 -8.342323345463328 a50.84884482486054,50.84884482486054 0 0,0 0.23676555824954518,0.8401974396624707 l -28.798348638157222 7.849117981897844" fill="#caff1d" stroke="none" /><path d="M 120.35273937422433 94.82641323984039 l 14.09803768022277 -3.583666048365128 a35.54638541972493,35.54638541972493 0 0,0 0.14525348839389707,0.5926838005215439 l -14.157478695132959 3.3411264232354894" fill="#ff5307" stroke="none" /><path d="M 120.51834098615036 95.52812308129327 l 19.955788400112144 -4.349271200887676 a41.42424173987669,41.42424173987669 0 0,0 0.1454627815839677,0.696092067998998 l -20.027508892520476 4.006062681603274" fill="#ffae10" stroke="none" /><path d="M 120.65975698304385 96.23510406497455 l 18.130885896341397 -3.3040513819000883 a39.42948124393053,39.42948124393053 0 0,0 0.11563199040923741,0.6669345926748067 l -18.18493270424287 2.992323756304689" fill="#ff900d" stroke="none" /><path d="M 120.77682067341334 96.94652285012252 l 28.85312405494388 -4.240415624181134 a50.16305697960659,50.16305697960659 0 0,0 0.11789628229985252,0.8530387687544195 l -28.921664853798944 3.744488547226629" fill="#d3ff1c" stroke="none" /><path d="M 120.82617615685814 97.30363454192243 l 14.733018071154621 -1.9074841546085828 a35.85598590754082,35.85598590754082 0 0,0 0.0737914717155626,0.6110992417358979 l -14.763591629129847 1.6542912359492719" fill="#ff5808" stroke="none" /><path d="M 120.86939407059847 97.66154086499901 l 16.43204970202939 -1.8412454430881753 a37.53488561168952,37.53488561168952 0 0,0 0.06625373371903175,0.6409447731894917 l -16.461235828230084 1.5588961476157521" fill="#ff730a" stroke="none" /><path d="M 120.96210409425399 98.7389718711861 l 14.790263016614723 -0.8897454956165274 a35.817001287291944,35.817001287291944 0 0,0 0.031652695920191855,0.61405384476605 l -14.803357301991488 0.6357198574737468" fill="#ff5708" stroke="none" /><path d="M 120.98066250479742 99.09900007780936 l 30.41724603605476 -1.3062474221427625 a51.445281058741166,51.445281058741166 0 0,0 0.030316735982716284,0.8826386896763133 l -30.435187459034324 0.7839024679023292" fill="#c2ff1e" stroke="none" /><path d="M 120.99303781780057 99.45929381324524 l 30.531621070727006 -0.7863862556659623 a51.54174665191174,51.54174665191174 0 0,0 0.015189029746646762,0.8846848350963159 l -30.54062153207232 0.26215450460058004" fill="#c0ff1e" stroke="none" /><line stroke="#e1ed5e" stroke-width="0.3" x1="184.99686870605535" x2="189.99668451229388" y1="99.2704041080226" y2="99.22748670261217" /><path d="M 185.99683186730306 99.26182062694052 a86.0,86.0 0 0,1 -10.086455211305974,41.156179273409016" fill="none" id="id28" stroke="none" /><text fill="#e1ed5e" style="font-size:6.75px; font-family:Arial;" text-anchor="middle"><textPath startOffset="21.40746469413373" xlink:href="#id28">April</textPath></text><path d="M 120.99922638620191 99.81974689727618 l 17.94649212734372 -0.15404905063969612 a38.94715327807764,38.94715327807764 0 0,0 0.0,0.6686043067270437 l -17.94649212734372 -0.15404905063969393" fill="#ff890c" stroke="none" /><path d="M 120.98066250479742 100.90099992219065 l 15.36541294604828 0.6598569452061392 a36.3795749678177,36.3795749678177 0 0,0 -0.03214986131657871,0.6236987206371519 l -15.35182149527513 -0.9235274592200218" fill="#ff6008" stroke="none" /><path d="M 120.93736805541906 101.62068470465957 l 15.991346919899216 1.237831387946476 a37.03918336005782,37.03918336005782 0 0,0 -0.0545117607568337,0.6335092897774547 l -15.967741536444642 -1.5121617250995878" fill="#ff6b09" stroke="none" /><path d="M 120.86939407059847 102.33845913500097 l 15.529385605640348 1.7401000483106512 a36.62657241581788,36.62657241581788 0 0,0 -0.07537733558433332,0.6242324695354231 l -15.49722618379635 -2.006426194769483" fill="#ff6409" stroke="none" /><path d="M 120.77682067341334 103.0534771498775 l 15.646312819959078 2.2994691741607722 a36.81438153526503,36.81438153526503 0 0,0 -0.09725747406804855,0.6244627513212377 l -15.604533853752763 -2.567720107413461" fill="#ff6709" stroke="none" /><path d="M 120.65975698304385 103.76489593502545 l 16.58836784972916 3.0229532098276777 a37.86155965581878,37.86155965581878 0 0,0 -0.12201105342330817,0.6384133884744558 l -16.534030504023693 -3.307269163335448" fill="#ff780b" stroke="none" /><path d="M 120.592083275326 104.11899336999214 l 16.03288935500291 3.2070268982548567 a37.350491203505044,37.350491203505044 0 0,0 -0.13115765348480476,0.6276368515298082 l -15.975473990693741 -3.481780201070074" fill="#ff700a" stroke="none" /><path d="M 120.43855184770803 104.8234425847677 l 15.232050133093711 3.5947223566878996 a36.65047539465661,36.65047539465661 0 0,0 -0.14976514037948196,0.6110928802277702 l -15.168097466197933 -3.8556710615237697" fill="#ff6509" stroke="none" /><path d="M 120.35273937422433 105.17358676015961 l 16.293590761704284 4.141767056034188 a37.811761783238104,37.811761783238104 0 0,0 -0.1653103562384261,0.6277103486499135 l -16.220090924661125 -4.420857909056905" fill="#ff770a" stroke="none" /><path d="M 120.26092885502905 105.52220625578681 l 13.493589181722577 3.6777377348042966 a34.9858036541024,34.9858036541024 0 0,0 -0.16290307796575293,0.5780855544694621 l -13.428467611682244 -3.908831213176767" fill="#ff4a06" stroke="none" /><path d="M 120.16314734710363 105.8691983318838 l 14.979261771561555 4.36024479160138 a36.60096208134782,36.60096208134782 0 0,0 -0.18078030849928597,0.6017588513852956 l -14.902205143058639 -4.616741246577399" fill="#ff6409" stroke="none" /><path d="M 120.05942366710727 106.21446072829308 l 13.32704273897246 4.128751907335885 a34.95194110074753,34.95194110074753 0 0,0 -0.18247457127224304,0.5715989955519797 l -13.254203451922962 -4.3569199365792475" fill="#ff4906" stroke="none" /><path d="M 119.83427380445688 106.89939002012753 l 32.64128666254372 11.354333900194067 a55.55972357099302,55.55972357099302 0 0,0 -0.32108183833243964,0.8981230469281473 l -32.44156465416734 -11.912991903503135" fill="#8dff24" stroke="none" /><path d="M 119.71291397450082 107.23885506374661 l 14.451922375334833 5.306946076206095 a36.39551028704352,36.39551028704352 0 0,0 -0.22039962644894365,0.5846361942066463 l -14.35869206507145 -5.5542505506069" fill="#ff6008" stroke="none" /><path d="M 119.4528033332814 107.91128576633889 l 14.265184093459963 5.801526183103429 a36.39977867612187,36.39977867612187 0 0,0 -0.2403670746176211,0.5767934765212362 l -14.163491174305857 -6.045552169065943" fill="#ff6108" stroke="none" /><path d="M 119.31412917781788 108.2440532568976 l 13.353483317687413 5.699807981119988 a35.51906772962352,35.51906772962352 0 0,0 -0.24417856773820082,0.5587283484426391 l -13.253670867932247 -5.928198399338472" fill="#ff5207" stroke="none" /><path d="M 118.70294669586154 109.54985784667822 l 12.859199828560014 6.565999057889108 a35.43853745567876,35.43853745567876 0 0,0 -0.2813008686281277,0.5394315065042623 l -12.744590890956937 -6.785776807497873" fill="#ff5107" stroke="none" /><line stroke="#e1ed5e" stroke-width="0.3" x1="174.33088141563837" x2="178.70328620479359" y1="141.23008692659167" y2="143.65538615756765" /><path d="M 175.20536237346943 141.71514677278685 a86.0,86.0 0 0,1 -30.301960400862466,31.631185727798858" fill="none" id="id29" stroke="none" /><text fill="#e1ed5e" style="font-size:6.75px; font-family:Arial;" text-anchor="middle"><textPath startOffset="22.145653131862474" xlink:href="#id29">May</textPath></text><path d="M 118.36410011445183 110.18625677009912 l 13.121669818222994 7.2783690563575965 a36.00509496601098,36.00509496601098 0 0,0 -0.3044430264381086,0.5379216565487668 l -12.994793426763508 -7.502547483005486" fill="#ff5a08" stroke="none" /><path d="M 118.00360718960297 110.81064883170644 l 14.42882649421714 8.664095735919206 a37.830258135910924,37.830258135910924 0 0,0 -0.33908888067142867,0.5538762030580767 l -14.277969649090306 -8.91050905510184" fill="#ff770b" stroke="none" /><path d="M 117.81537515405839 111.11811171558189 l 13.086871462453882 8.167175693399713 a36.4262426884076,36.4262426884076 0 0,0 -0.33561112003565,0.5276364242214096 l -12.94474265079234 -8.390625792299794" fill="#ff6108" stroke="none" /><path d="M 117.21940702142032 112.02048342749411 l 7.810740758039414 5.4525036618085165 a30.525621626504666,30.525621626504666 0 0,0 -0.30363530789353,0.4271010858436163 l -7.715990351615924 -5.585781974361637" fill="#ff0000" stroke="none" /><path d="M 116.79662413953412 112.60449989151573 l 11.557612960620729 8.67304823267692 a35.44991982655435,35.44991982655435 0 0,0 -0.3694354693804695,0.4836028884569242 l -11.407025513885955 -8.87017203437472" fill="#ff5107" stroke="none" /><path d="M 116.35404254752997 113.17365903436017 l 17.200941067403644 13.855860533169714 a43.087490684071454,43.087490684071454 0 0,0 -0.4689420498509778,0.5720330519074556 l -16.960552198314037 -14.149095866775664" fill="#ffc712" stroke="none" /><path d="M 115.89218393027572 113.72728997021213 l 16.25863122567109 14.043818416192984 a42.48422502766549,42.48422502766549 0 0,0 -0.48146550061324483,0.5478193582949518 l -16.015154661099256 -14.32085005229923" fill="#ffbe11" stroke="none" /><path d="M 115.6541949942343 113.99807769240083 l 11.765941705190116 10.52117762517793 a36.78393369317284,36.78393369317284 0 0,0 -0.4249460421925511,0.4670901399593959 l -11.583597962155684 -10.721605340695" fill="#ff6709" stroke="none" /><path d="M 115.16444852881244 114.52719865689866 l 15.670284037226269 15.011777631496983 a42.700490074301584,42.700490074301584 0 0,0 -0.5116193761915824,0.5249665511795946 l -15.41027785988388 -15.278566874744314" fill="#ffc112" stroke="none" /><path d="M 114.65682725009322 115.03919595460226 l 19.59451536612204 20.105698948229076 a49.074617764628826,49.074617764628826 0 0,0 -0.6083558690369437,0.5827911609708911 l -19.246487011219784 -20.439102239505544" fill="#e2ff1b" stroke="none" /><path d="M 114.39649973595853 115.28858382429668 l 11.776914867903288 12.50667547333215 a38.1788432439757,38.1788432439757 0 0,0 -0.48099929942984987,0.4452057706496829 l -11.56048579715947 -12.706998990114213" fill="#ff7d0b" stroke="none" /><path d="M 114.13192950727249 115.5334660781643 l 11.11813492435115 12.220777892430531 a37.5215113259107,37.5215113259107 0 0,0 -0.4801591590340445,0.429361280816546 l -10.906710738493727 -12.409834703130464" fill="#ff720a" stroke="none" /><path d="M 113.86319453409587 115.77377054828091 l 21.70014647569032 24.690783248389977 a53.87143341087197,53.87143341087197 0 0,0 -0.6998682137654655,0.6045294940861061 l -21.273098782162 -25.0596568749408" fill="#a2ff22" stroke="none" /><path d="M 113.31354834802062 116.24036423190432 l 20.844652729154156 25.427087036443734 a53.87911651121299,53.87911651121299 0 0,0 -0.7203104978315543,0.5802311489483247 l -20.40509146096735 -25.781166479185462" fill="#a2ff22" stroke="none" /><path d="M 112.7482090630111 116.68781488649013 l 10.709255685919379 14.018759464594355 a38.64125206079632,38.64125206079632 0 0,0 -0.5305756922131576,0.3981538908881665 l -10.467027004795455 -14.200532382746538" fill="#ff840c" stroke="none" /><path d="M 111.8722381534696 117.32195027204791 l 18.806983012236454 27.43995026834971 a54.266401680254745,54.266401680254745 0 0,0 -0.7729181987706291,0.520053858376117 l -18.33316852536882 -27.758753800782948" fill="#9dff22" stroke="none" /><path d="M 111.27062007382361 117.71928675628689 l 17.492305762038914 27.500810052686365 a53.59256532442016,53.59256532442016 0 0,0 -0.780501376494674,0.4870905845648931 l -17.017640256754525 -27.797036434092806" fill="#a6ff21" stroke="none" /><line stroke="#e1ed5e" stroke-width="0.3" x1="143.1302829299769" x2="145.66735839644613" y1="173.24464959558577" y2="177.55315839532614" /><path d="M 143.63769802327073 174.10635135553383 a86.0,86.0 0 0,1 -40.68552437913181,11.842963189579606" fill="none" id="id30" stroke="none" /><text fill="#e1ed5e" style="font-size:6.75px; font-family:Arial;" text-anchor="middle"><textPath startOffset="21.407464694133747" xlink:href="#id30">June</textPath></text><path d="M 110.65571695917076 118.09573695890943 l 7.537140747560429 12.79971276571384 a35.85399399263759,35.85399399263759 0 0,0 -0.5330422372280704,0.30775207915306796 l -7.316306042471959 -12.927211742143081" fill="#ff5808" stroke="none" /><path d="M 110.02825361518725 118.45085714620011 l 13.990952716452673 25.74177716442689 a50.29822263375415,50.29822263375415 0 0,0 -0.7621646184818321,0.40580973024871836 l -13.546999282184286 -25.978157362398175" fill="#d1ff1c" stroke="none" /><path d="M 109.3889696526874 118.78422872680471 l 13.677289674728307 27.36374140258551 a51.59154452449242,51.59154452449242 0 0,0 -0.795590138999832,0.3891630045150937 l -13.205539286466406 -27.59449815719783" fill="#c0ff1e" stroke="none" /><path d="M 108.73861861582097 119.09545874513695 l 12.694965583714618 27.74079087693217 a51.50759953928499,51.50759953928499 0 0,0 -0.8071647933075417,0.36103454532477497 l -12.216887387551449 -27.954629173166794" fill="#c1ff1e" stroke="none" /><path d="M 106.72888874123015 119.89276391827305 l 4.65480023209928 13.761089782403724 a35.52703538923643,35.52703538923643 0 0,0 -0.5793905628379884,0.1904571861637187 l -4.417886931613558 -13.838967889969462" fill="#ff5307" stroke="none" /><path d="M 106.0420521117495 120.11202640906438 l 4.151753146008048 13.819835938530522 a35.430000677522074,35.430000677522074 0 0,0 -0.5839876188493882,0.1699902847203047 l -3.9139055147770527 -13.889069917553345" fill="#ff5107" stroke="none" /><path d="M 105.3480935250658 120.30758222061773 l 7.448004408933869 28.281285883475057 a50.24557916845457,50.24557916845457 0 0,0 -0.835978066680108,0.21250235548327998 l -6.961421049028364 -28.404973470793607" fill="#d2ff1c" stroke="none" /><path d="M 104.64783097203109 120.47920084513623 l 4.529029393536879 19.955739169928457 a41.46322636012557,41.46322636012557 0 0,0 -0.6954717453459225,0.15157482993992358 l -4.18579523157182 -20.0305454580021" fill="#ffaf10" stroke="none" /><path d="M 104.29559338865022 120.5559693870025 l 6.010765165594949 28.76368723885564 a50.38501321168048,50.38501321168048 0 0,0 -0.8481561546141966,0.16965498492131534 l -5.5161125254497945 -28.862631620439814" fill="#d0ff1d" stroke="none" /><path d="M 103.58742460773223 120.69131181640829 l 2.6846500437393983 15.48434803430223 a36.71535490864744,36.71535490864744 0 0,0 -0.6219275106855575,0.10233793521213112 l -2.4184450300007687 -15.52815196801003" fill="#ff6609" stroke="none" /><path d="M 102.875027216393 120.80226474461374 l 4.800429936961007 34.73351969235144 a56.06367804150952,56.06367804150952 0 0,0 -0.9544765850578473,0.12357610322268846 l -4.203475530012384 -34.810807391774524" fill="#86ff25" stroke="none" /><path d="M 102.15924093988457 120.88869738790638 l 4.063151236321095 39.307302417740566 a60.51674608731001,60.51674608731001 0 0,0 -1.0342612663454158,0.09794561724029573 l -3.387790406590663 -39.37125979048604" fill="#50ff2b" stroke="none" /><path d="M 101.44090949804482 120.95050786540614 l 0.9666417140748811 14.054758373954156 a35.087960432710766,35.087960432710766 0 0,0 -0.6012667016125506,0.03617071169207911 l -0.7252306603298654 -14.069281063470926" fill="#ff4c07" stroke="none" /><line stroke="#e1ed5e" stroke-width="0.3" x1="101.45913802915013" x2="101.54496967792366" y1="184.9874750549273" y2="189.98673829345242" /><path d="M 101.47630435890484 185.9873277026323 a86.0,86.0 0 0,1 -42.54439059252881,-10.42667462771756" fill="none" id="id31" stroke="none" /><text fill="#e1ed5e" style="font-size:6.75px; font-family:Arial;" text-anchor="middle"><textPath startOffset="22.145653131862474" xlink:href="#id31">July</textPath></text><path d="M 100.36049292484886 120.99690560180557 l 0.37317722162417755 21.73570229837986 a42.73890557600669,42.73890557600669 0 0,0 -0.7336701464730272,0.006297675821262821 l -2.6622481130623136e-15 -21.738905576006687" fill="#ffc212" stroke="none" /><path d="M 96.41257539226777 120.69131181640829 l -2.5745457043932456 14.849295464043212 a36.07082815781747,36.07082815781747 0 0,0 -0.6091938037917316,-0.11101540436417363 l 2.8290742417360346 -14.802911885747672" fill="#ff5b08" stroke="none" /><path d="M 96.05791012581884 120.62667999033965 l -3.1703024101626394 16.588361852254913 a37.8885927866483,37.8885927866483 0 0,0 -0.6377976527793603,-0.12757739312090743 l 3.4545965484729577 -16.531495062471144" fill="#ff780b" stroke="none" /><path d="M 95.35216902796893 120.47920084513623 l -6.539104236735822 28.812499812761867 a50.54522008175432,50.54522008175432 0 0,0 -0.8445091670870718,-0.1993018639533049 l 7.032745557562781 -28.696001805162332" fill="#ceff1d" stroke="none" /><path d="M 95.00130118170881 120.39639698878247 l -7.502552576741187 30.612974765448637 a52.518923191580654,52.518923191580654 0 0,0 -0.8738016080305324,-0.22211695178675547 l 8.026959477997098 -30.47967258182662" fill="#b4ff20" stroke="none" /><path d="M 94.30408787586889 120.21278271476187 l -8.85495073751414 31.42309630252534 a53.646916145351064,53.646916145351064 0 0,0 -0.8842544233484189,-0.2573935753746802 l 9.393065173244166 -31.266459032848147" fill="#a5ff21" stroke="none" /><path d="M 93.27111125876986 119.89276391827306 l -7.830032123396699 23.148098667291926 a45.43652747352018,45.43652747352018 0 0,0 -0.7367083496691147,-0.25626540631447775 l 8.226246245110836 -23.01027482840886" fill="#ffe915" stroke="none" /><path d="M 92.59220618246901 119.65005319985036 l -12.243713510603342 32.47790472754689 a55.709117188735064,55.709117188735064 0 0,0 -0.891950020516728,-0.3450254292046614 l 12.799435793613599 -32.26293941020419" fill="#8bff24" stroke="none" /><path d="M 91.92203290615298 119.3841803445677 l -12.631576928063222 30.311186263232248 a53.837855416789,53.837855416789 0 0,0 -0.8500354516310876,-0.3628295880689249 l 13.15004745486474 -30.08988202550392" fill="#a2ff22" stroke="none" /><path d="M 91.26138138417905 119.09545874513695 l -13.505615097622911 29.51220636376622 a53.455692314641254,53.455692314641254 0 0,0 -0.8311374689782586,-0.3890143020728532 l 14.010241280472659 -29.276015830122844" fill="#a7ff21" stroke="none" /><path d="M 90.6110303473126 118.78422872680471 l -10.108001159547598 20.222773400636424 a43.60823415162944,43.60823415162944 0 0,0 -0.6667341378680146,-0.3404392014642241 l 10.453662519129194 -20.046276247499364" fill="#ffcf13" stroke="none" /><path d="M 90.28995756902619 118.62028667847754 l -15.047879437699796 28.856292959065577 a53.54419024819892,53.54419024819892 0 0,0 -0.8113504850775717,-0.4319984338059954 l 15.54101873856393 -28.59372405753701" fill="#a6ff21" stroke="none" /><line stroke="#e1ed5e" stroke-width="0.3" x1="58.13341422392154" x2="55.67067388415222" y1="173.97424548756322" y2="178.32567169271397" /><path d="M 57.64086615596768 174.84453072859336 a86.0,86.0 0 0,1 -31.369924170532247,-30.572349798747897" fill="none" id="id32" stroke="none" /><text fill="#e1ed5e" style="font-size:6.75px; font-family:Arial;" text-anchor="middle"><textPath startOffset="22.145653131862474" xlink:href="#id32">August</textPath></text><path d="M 89.65649057296885 118.27599006163327 l -7.224501819142085 12.765002476029991 a35.6676076695499,35.6676076695499 0 0,0 -0.5302712270396979,-0.30615223567488503 l 7.442565514042182 -12.639103343078935" fill="#ff5507" stroke="none" /><path d="M 89.03521579738668 117.91015095944536 l -7.557403037095598 12.344449900208062 a35.47410736466497,35.47410736466497 0 0,0 -0.5166311681561706,-0.3224160588054364 l 7.768198334041481 -12.212898044561078" fill="#ff5207" stroke="none" /><path d="M 88.4268655584334 117.5232005979908 l -8.170848806101464 12.371706507695944 a35.8263917432643,35.8263917432643 0 0,0 -0.510276512119102,-0.3433368102709145 l 8.382021606317572 -12.229620023367907" fill="#ff5708" stroke="none" /><path d="M 88.1277618465304 117.32195027204791 l -8.131540681206992 11.864160867918434 a35.38333295693218,35.38333295693218 0 0,0 -0.49807080536677323,-0.34769210427410424 l 8.33400657774753 -11.722823947839201" fill="#ff5007" stroke="none" /><path d="M 87.83215693770417 117.11559508785305 l -8.893608095669329 12.509973563614267 a36.349127125725516,36.349127125725516 0 0,0 -0.5054588274782414,-0.3659132112209885 l 9.107047933521525 -12.355459581020211" fill="#ff6008" stroke="none" /><path d="M 87.2517909369889 116.68781488649013 l -8.466176645969979 11.082496997496076 a34.94624991530974,34.94624991530974 0 0,0 -0.4735883427709118,-0.3682651598121425 l 8.655174933376118 -10.93553078606314" fill="#ff4906" stroke="none" /><path d="M 86.96720088162412 116.46651593811092 l -25.29673990984687 31.961604496797428 a61.76112378328327,61.76112378328327 0 0,0 -0.8256851392452424,-0.6651135009917085 l 25.841675819447374 -31.52264270201231" fill="#42ff2d" stroke="none" /><path d="M 86.40962598614128 116.0094264158162 l -9.23448097190468 10.878195365131596 a35.269224688904444,35.269224688904444 0 0,0 -0.45819848704701915,-0.3957809400647815 l 9.419858938714563 -10.718070292602091" fill="#ff4e07" stroke="none" /><path d="M 86.13680546590413 115.77377054828092 l -10.678470064238295 12.150138713390486 a37.175771810564825,37.175771810564825 0 0,0 -0.47573476382536295,-0.42540495933876543 l 10.88546985488703 -11.965038224168339" fill="#ff6d0a" stroke="none" /><path d="M 85.86807049272751 115.53346607816431 l -10.820361934213944 11.893473214119657 a37.07902165812236,37.07902165812236 0 0,0 -0.4671431066449425,-0.4323806854689239 l 11.022934812172853 -11.705974782518357" fill="#ff6b09" stroke="none" /><path d="M 85.60350026404147 115.28858382429668 l -10.698128397479152 11.36104162593234 a36.605230470426164,36.605230470426164 0 0,0 -0.4537785072711091,-0.4347095450806077 l 10.891579390615576 -11.175719950546151" fill="#ff6409" stroke="none" /><path d="M 85.08716467003676 114.78537596483092 l -12.96112276334844 12.850344601968274 a39.251631698999525,39.251631698999525 0 0,0 -0.470296600563598,-0.48256574304744587 l 13.179806165062848 -12.625956166853092" fill="#ff8d0d" stroke="none" /><path d="M 84.83555147118756 114.52719865689866 l -43.48596288568116 41.65856875220537 a81.2201404729104,81.2201404729104 0 0,0 -0.9558611381429456,-1.0150914043630233 l 44.19467985756037 -40.905935887897854" fill="#49f0ff" stroke="none" /><path d="M 84.3458050057657 113.99807769240083 l -12.26548725786414 10.967874338729779 a37.45407077847287,37.45407077847287 0 0,0 -0.4244597359518251,-0.48295726251414345 l 12.451958057774556 -10.755704798404334" fill="#ff710a" stroke="none" /><path d="M 84.1078160697243 113.72728997021213 l -11.889258675090069 10.269658473616088 a36.710517401025314,36.710517401025314 0 0,0 -0.4078458707679031,-0.48044141025073384 l 12.063799109365084 -10.0640502809158" fill="#ff6509" stroke="none" /><path d="M 83.64595745247003 113.17365903436017 l -12.071240167786792 9.723736600912405 a36.50051265837078,36.50051265837078 0 0,0 -0.38887571335572174,-0.4913317602576745 l 12.236382311784075 -9.51508489674005" fill="#ff6209" stroke="none" /><path d="M 83.4222238831116 112.89097897827486 l -22.701732934882127 17.653004840368443 a49.7575600171639,49.7575600171639 0 0,0 -0.5185401724491098,-0.6787857310990333 l 23.001425084685533 -17.26069819602854" fill="#d8ff1c" stroke="none" /><path d="M 82.98947788004972 112.3143062007846 l -12.430869594104458 8.99899094480427 a36.34628153300662,36.34628153300662 0 0,0 -0.36153283032497135,-0.5085412018488165 l 12.58351752295939 -8.78427251624595" fill="#ff6008" stroke="none" /><path d="M 82.78059297857968 112.02048342749411 l -15.378584394969966 10.735446268741965 a39.75501705097224,39.75501705097224 0 0,0 -0.3858324041938045,-0.5629410084598571 l 15.560606535979096 -10.469870525212057" fill="#ff950d" stroke="none" /><path d="M 82.37810715431573 111.42229804090323 l -13.312231886179426 8.628827874798725 a36.864179407845704,36.864179407845704 0 0,0 -0.3396460251498724,-0.5339799652408931 l 13.458395602955187 -8.39903423487916" fill="#ff6809" stroke="none" /><path d="M 82.18462484594161 111.11811171558189 l -13.32755344301256 8.31737905003065 a36.70994828248154,36.70994828248154 0 0,0 -0.32904706142611057,-0.5374736459928637 l 13.468368468894075 -8.08736828791323" fill="#ff6509" stroke="none" /><path d="M 81.99639281039703 110.81064883170644 l -29.9005684210622 17.954432223737225 a55.87700715914993,55.87700715914993 0 0,0 -0.48673207660359885,-0.8265774758686847 l 30.204374207795567 -17.43850357957498" fill="#89ff25" stroke="none" /><line stroke="#e1ed5e" stroke-width="0.3" x1="26.387840678322732" x2="22.057713659400548" y1="142.50000000000003" y2="145.00000000000006" /><path d="M 25.521815274538298 143.00000000000003 a86.0,86.0 0 0,1 -11.493303480769221,-40.785679425670985" fill="none" id="id33" stroke="none" /><text fill="#e1ed5e" style="font-size:6.75px; font-family:Arial;" text-anchor="middle"><textPath startOffset="21.40746469413373" xlink:href="#id33">September</textPath></text><path d="M 81.81346652052679 110.50000000000001 l -13.805812849256506 7.970789764899848 a36.94157952979968,36.94157952979968 0 0,0 -0.3123615222810316,-0.5519128799675965 l 13.940607736558917 -7.73262011483313" fill="#ff6909" stroke="none" /><path d="M 81.63589988554817 110.18625677009913 l -33.389574561627136 18.520634161727703 a59.18216310214775,59.18216310214775 0 0,0 -0.4851659332313707,-0.8926506717678068 l 33.70258584447383 -17.944728656485307" fill="#60ff29" stroke="none" /><path d="M 81.4637452351635 109.86951160357371 l -18.17749394518237 9.678491674391424 a41.593554506651,41.593554506651 0 0,0 -0.3301576151861599,-0.6331207600327918 l 18.34095962934348 -9.36502467125413" fill="#ffb110" stroke="none" /><path d="M 81.29705330413844 109.54985784667822 l -14.036143541682458 7.166954903865397 a36.76003071433411,36.76003071433411 0 0,0 -0.2821421400416945,-0.5644732796102265 l 14.157105594935889 -6.924949768091418" fill="#ff6609" stroke="none" /><path d="M 80.9802524753101 108.90220220490708 l -19.92118708193632 9.324121434049967 a42.995293479979225,42.995293479979225 0 0,0 -0.30714104571966677,-0.6711586150309591 l 20.078312592511043 -8.980773836804321" fill="#ffc612" stroke="none" /><path d="M 80.68587082218212 108.24405325689762 l -50.572755470604314 21.5865020684731 a75.98709546286048,75.98709546286048 0 0,0 -0.5017831566398872,-1.204096908191518 l 50.93586447178068 -20.7151726508403" fill="#41ffd3" stroke="none" /><path d="M 80.5471966667186 107.91128576633889 l -12.962238585976817 5.271629588198225 a34.99320219517153,34.99320219517153 0 0,0 -0.22152584128592503,-0.558389831430572 l 13.050823102228867 -5.0483387395540875" fill="#ff4a06" stroke="none" /><path d="M 80.28708602549918 107.23885506374661 l -13.599012404641078 4.993745720933261 a35.486912531899996,35.486912531899996 0 0,0 -0.20508027002556398,-0.5736460147879932 l 13.682732844710586 -4.759564749764347" fill="#ff5207" stroke="none" /><path d="M 80.16572619554312 106.89939002012753 l -13.778950058586181 4.793034091355699 a35.58878475123648,35.58878475123648 0 0,0 -0.195763022251945,-0.5787385904784166 l 13.859198502410495 -4.55579382640312" fill="#ff5407" stroke="none" /><path d="M 80.05021161711548 106.5578916946017 l -22.822478613677255 7.5022020323414855 a45.02391652928024,45.02391652928024 0 0,0 -0.2350576135956568,-0.7363146266975636 l 22.94790094305017 -7.10931837195253" fill="#ffe315" stroke="none" /><path d="M 79.83685265289637 105.86919833188381 l -58.22718417594785 16.94908470154363 a81.64384922875404,81.64384922875404 0 0,0 -0.38015517573445773,-1.3490366068779127 l 58.50955784375688 -15.947040170762723" fill="#4aebff" stroke="none" /><path d="M 79.64726062577567 105.17358676015961 l -14.288607606024016 3.6321081782859017 a35.743015876600644,35.743015876600644 0 0,0 -0.1460569810542139,-0.5959623247681874 l 14.348852113594523 -3.386290028909615" fill="#ff5608" stroke="none" /><path d="M 79.48165901384964 104.47187691870673 l -16.11476831306861 3.5121387503092936 a37.49305539872174,37.49305539872174 0 0,0 -0.13165827301383684,-0.630032497202556 l 16.172684296906812 -3.2349898018213286" fill="#ff720a" stroke="none" /><path d="M 79.2786578344484 103.40968896794605 l -45.954123772210366 7.561733579122225 a67.57210867454097,67.57210867454097 0 0,0 -0.1785142743968744,-1.1461896991278038 l 46.077159538745505 -6.771755698062972" fill="#35ff68" stroke="none" /><path d="M 79.13060592940153 102.33845913500099 l -16.41508233179651 1.839344213863032 a37.51781205537614,37.51781205537614 0 0,0 -0.06622359677215715,-0.6406532255665144 l 16.44423832105033 -1.5572864660135863" fill="#ff720a" stroke="none" /><path d="M 79.0935383218832 101.97986365728391 l -15.218434761603936 1.441201594470857 a36.2865240859098,36.2865240859098 0 0,0 -0.053404047827935446,-0.620635986454995 l 15.240932432129611 -1.1797445606402" fill="#ff5f08" stroke="none" /><path d="M 79.06263194458094 101.62068470465958 l -14.15999511704373 1.0960731761271854 a35.20235326001039,35.20235326001039 0 0,0 -0.041465084634318077,-0.6028932302478346 l 14.176724162843113 -0.8528365217250075" fill="#ff4d07" stroke="none" /><path d="M 79.01933749520258 100.90099992219065 l -24.31565866491319 1.0442190069113217 a45.33806996544637,45.33806996544637 0 0,0 -0.026717752703866553,-0.7778582183478076 l 24.330001104613906 -0.6266545239993944" fill="#ffe815" stroke="none" /><line stroke="#e1ed5e" stroke-width="0.3" x1="15.003131293944662" x2="10.003315487706104" y1="100.72959589197737" y2="100.7725132973878" /><path d="M 14.003168132696942 100.73817937305945 a86.0,86.0 0 0,1 10.791469493833604,-42.45332614584628" fill="none" id="id34" stroke="none" /><text fill="#e1ed5e" style="font-size:6.75px; font-family:Arial;" text-anchor="middle"><textPath startOffset="22.145653131862435" xlink:href="#id34">October</textPath></text><path d="M 79.00077361379809 100.18025310272382 l -15.785344074272917 0.1354981938201494 a36.78592560807606,36.78592560807606 0 0,0 0.0,-0.6315025930879281 l 15.785344074272917 0.1354981938201436" fill="#ff6709" stroke="none" /><path d="M 79.00077361379809 99.81974689727619 l -25.736015228438283 -0.22091273799121922 a46.73696334605569,46.73696334605569 0 0,0 0.013773090216081156,-0.8022134560155776 l 25.728430706623538 0.6626731099758492" fill="#fffc17" stroke="none" /><path d="M 79.01933749520258 99.09900007780938 l -15.641465566371577 -0.6717118325041266 a36.65588202082252,36.65588202082252 0 0,0 0.03239404320828316,-0.6284357841024552 l 15.627629933706723 0.9401194099832937" fill="#ff6509" stroke="none" /><path d="M 79.03789590574601 98.7389718711861 l -33.48899576836712 -2.0146148249123974 a54.54953815578491,54.54953815578491 0 0,0 0.06425426163092057,-0.9342428622415523 l 33.449477545571135 2.5892011113082747" fill="#99ff23" stroke="none" /><path d="M 79.0935383218832 98.0201363427161 l -15.62920785178126 -1.4801022331898153 a36.69913503014973,36.69913503014973 0 0,0 0.06477853016952458,-0.6266735170447826 l 15.601496929130072 1.7481802725175106" fill="#ff6509" stroke="none" /><path d="M 79.22317932658666 96.9465228501225 l -14.25975248458708 -2.0956925536885853 a35.412927121208696,35.412927121208696 0 0,0 0.09355506455718741,-0.6006906263321339 l 14.221675927891624 2.3401713619521693" fill="#ff5107" stroke="none" /><path d="M 79.2786578344484 96.59031103205396 l -22.115899397046086 -3.6391628296971903 a43.41331105038506,43.41331105038506 0 0,0 0.12731508020496973,-0.7343195499562951 l 22.050169499348883 4.018275412574078" fill="#ffcc13" stroke="none" /><path d="M 79.34024301695615 96.23510406497455 l -23.014593214517504 -4.1940255401220705 a44.39361774204476,44.39361774204476 0 0,0 0.14306098626727082,-0.748555531969028 l 22.939205935968076 4.588483637124413" fill="#ffda14" stroke="none" /><path d="M 79.407916724674 95.88100663000787 l -19.45605172481749 -3.8917552434712794 a40.84146435104677,40.84146435104677 0 0,0 0.14341633688243832,-0.6862990892808495 l 19.386377677110683 4.225170784037538" fill="#ffa60f" stroke="none" /><path d="M 79.48165901384962 95.52812308129327 l -14.15602878985315 -3.0852405878536477 a35.488335328259446,35.488335328259446 0 0,0 0.13483731907593413,-0.5941181070035885 l 14.100980609219555 3.3277930287962447" fill="#ff5207" stroke="none" /><path d="M 79.64726062577567 94.8264132398404 l -20.189932167956115 -5.132201804978845 a41.8320151764945,41.8320151764945 0 0,0 0.18288662058755037,-0.6944502872333111 l 20.09885606656384 5.47803259658494" fill="#ffb410" stroke="none" /><path d="M 79.73907114497095 94.47779374421319 l -21.259904890537968 -5.7944816165138775 a43.03541633731565,43.03541633731565 0 0,0 0.2003841858886139,-0.7110927838373021 l 21.157302212574773 6.158582324254192" fill="#ffc612" stroke="none" /><path d="M 80.05021161711548 93.44210830539832 l -29.3079282366649 -9.634098140815324 a51.85077802118386,51.85077802118386 0 0,0 0.28521527448866363,-0.8431882795926776 l 29.13822754060387 10.135788094882162" fill="#bcff1f" stroke="none" /><path d="M 80.16572619554312 93.10060997987247 l -21.213476791062792 -7.379148412863868 a43.460263330246846,43.460263330246846 0 0,0 0.25115857940972414,-0.7025352470047088 l 21.083678041609126 7.742218616249499" fill="#ffcd13" stroke="none" /><path d="M 80.41425534168474 92.42381321644754 l -13.354700935519197 -5.165885213510146 a35.31902256148513,35.31902256148513 0 0,0 0.22358845991547294,-0.5635889777792469 l 13.264053800637592 5.394375208502975" fill="#ff4f07" stroke="none" /><path d="M 80.83023694016515 91.42560881287825 l -18.076611639837047 -8.08543846128145 a40.8024797307979,40.8024797307979 0 0,0 0.2914764681931788,-0.6369286861294333 l 17.935150706788825 8.394556129625554" fill="#ffa50f" stroke="none" /><path d="M 80.9802524753101 91.09779779509293 l -27.97383521864586 -13.093167364070803 a51.88634793017006,51.88634793017006 0 0,0 0.3845043793639816,-0.8034662695424926 l 27.744951581321974 13.571446135678382" fill="#bcff1f" stroke="none" /><path d="M 81.29705330413844 90.45014215332179 l -13.822752799553024 -7.057996070464867 a36.52043180740306,36.52043180740306 0 0,0 0.2898886333259543,-0.5558996776515616 l 13.699556097252131 7.2942419912209155" fill="#ff6209" stroke="none" /><path d="M 81.63589988554816 89.8137432299009 l -19.48480002477664 -10.807890118733038 a43.28156010750017,43.28156010750017 0 0,0 0.3659695707101981,-0.6466331649179439 l 19.296397089045072 11.140780053750087" fill="#ffca12" stroke="none" /><line stroke="#e1ed5e" stroke-width="0.3" x1="26.387840678322718" x2="22.05771365940052" y1="57.49999999999999" y2="54.99999999999999" /><path d="M 25.521815274538284 56.99999999999999 a86.0,86.0 0 0,1 29.574782752854787,-30.34633250058573" fill="none" id="id35" stroke="none" /><text fill="#e1ed5e" style="font-size:6.75px; font-family:Arial;" text-anchor="middle"><textPath startOffset="21.40746469413373" xlink:href="#id35">November</textPath></text><path d="M 81.99639281039701 89.18935116829357 l -26.5083487507251 -15.917501778087411 a51.920210483524926,51.920210483524926 0 0,0 0.4653831859627781,-0.760168459365967 l 26.231197600306928 16.37020735357792" fill="#bbff1f" stroke="none" /><path d="M 82.18462484594161 88.88188828441811 l -26.59089283704958 -16.594683784250023 a52.344203798640436,52.344203798640436 0 0,0 0.4822703514745625,-0.7582090954942445 l 26.30210479394913 17.04870655442294" fill="#b6ff1f" stroke="none" /><path d="M 82.576782715395 88.27688183743585 l -11.668861279047887 -7.8513306332762705 a35.06434201314393,35.06434201314393 0 0,0 0.3403082273379395,-0.4965198739206408 l 11.532363314894633 8.050485242266946" fill="#ff4b07" stroke="none" /><path d="M 82.98947788004972 87.6856937992154 l -25.004649241024513 -18.101437746938007 a51.86898981458479,51.86898981458479 0 0,0 0.528317722265103,-0.7167644566090522 l 24.69022949917559 18.528008512815923" fill="#bcff1f" stroke="none" /><path d="M 83.64595745247003 86.82634096563983 l -27.163171235983018 -21.8807279677052 a55.87985275186883,55.87985275186883 0 0,0 0.6081675279484106,-0.7418654974402488 l 26.783556888795975 22.34379574684394" fill="#89ff25" stroke="none" /><path d="M 84.83555147118756 85.47280134310135 l -16.361740971205645 -15.674177732860565 a43.65803202421012,43.65803202421012 0 0,0 0.5230922425272484,-0.5367387227443517 l 16.090261927527596 15.952739147672647" fill="#ffd013" stroke="none" /><path d="M 86.13680546590413 84.22622945171909 l -14.733452117306268 -16.763963926993206 a43.31826825357393,43.31826825357393 0 0,0 0.5627672609863106,-0.48610495644868323 l 14.443505376557107 17.0144130159066" fill="#ffcb12" stroke="none" /><path d="M 86.40962598614128 83.9905735841838 l -9.875342349554066 -11.63312845657956 a36.25949095508029,36.25949095508029 0 0,0 0.4779789393614447,-0.3987470311253864 l 9.67418907603071 11.800937671616827" fill="#ff5e08" stroke="none" /><path d="M 86.96720088162412 83.53348406188908 l -8.342416010564257 -10.540370104118269 a34.44229544479324,34.44229544479324 0 0,0 0.4667587984534747,-0.3629544648427756 l 8.160247267475537 10.68202562058185" fill="#ff4106" stroke="none" /><path d="M 87.25179093698888 83.31218511350988 l -26.07205825340959 -34.1291611780266 a63.9482463470268,63.9482463470268 0 0,0 0.8780612237411466,-0.6589135118729029 l 25.48234404075769 34.5716937171635" fill="#30ff37" stroke="none" /><path d="M 87.83215693770416 82.88440491214696 l -17.865698902750218 -25.130342889488062 a51.83370446487048,51.83370446487048 0 0,0 0.7296332134506679,-0.5093406491595702 l 17.431670598125784 25.43332835445276" fill="#bdff1f" stroke="none" /><line stroke="#e1ed5e" stroke-width="0.3" x1="56.869717070023135" x2="54.33264160355391" y1="26.7553504044142" y2="22.446841604673864" /><path d="M 56.362301976729285 25.89364864446614 a86.0,86.0 0 0,1 42.16139366436587,-11.88097634709845" fill="none" id="id36" stroke="none" /><text fill="#e1ed5e" style="font-size:6.75px; font-family:Arial;" text-anchor="middle"><textPath startOffset="22.145653131862474" xlink:href="#id36">December</textPath></text></svg>