<?xml version="1.0" encoding="utf-8" ?>
<svg baseProfile="full" height="200mm" version="1.1" viewBox="0,0,200,200" width="200mm" xmlns="http://www.w3.org/2000/svg" xmlns:ev="http://www.w3.org/2001/xml-events" xmlns:xlink="http://www.w3.org/1999/xlink"><defs /><rect fill="#1a1a1a" height="200" width="200" x="0" y="0" /><text alignment-baseline="middle" fill="#e1ed5e" style="dominant-baseline: central; font-size:9.0px; font-family:Arial;" text-anchor="middle" x="100.0" y="100.0">2025</text><line stroke="#e1ed5e" stroke-width="0.3" x1="100.0" x2="100.0" y1="15.0" y2="10.0" /><path d="M 100.0 14.0 a86.0,86.0 0 0,1 42.46469731375804,11.215312516191453" fill="none" id="id37" stroke="none" /><text fill="#e1ed5e" style="font-size:6.75px; font-family:Arial;" text-anchor="middle"><textPath startOffset="22.20632615414155" xlink:href="#id37">January</textPath></text><path d="M 100.0 79.0 l 0.0 -13.010788967790027 a34.01078896779003,34.01078896779003 0 0,0 0.5854398236435029,0.005039065392048282 l -0.22395934437097448 13.008861279006538" fill="#ff6509" stroke="none" /><path d="M 100.36148047927253 79.00311137660856 l 0.21147224946731166 -12.283538181478344 a33.28535838989368,33.28535838989368 0 0,0 0.5727829504809817,0.014793293736615767 l -0.42288183514316124 12.278078095599367" fill="#ff5a08" stroke="none" /><path d="M 101.08401301168833 79.027996857942 l 1.0520229537263863 -20.353103194494103 a41.380273843618816,41.380273843618816 0 0,0 0.7110272967708196,0.04289110827253809 l -1.4022122993368178 20.331978816841264" fill="#ffcf13" stroke="none" /><path d="M 101.44485096284872 79.0497635885617 l 1.5619627400563534 -22.6483488688133 a43.70214602377496,43.70214602377496 0 0,0 0.7500324844232403,0.05821695603888296 l -1.951585413841935 22.618106650585954" fill="#ffef16" stroke="none" /><path d="M 102.16513564639614 79.11191278185805 l 1.5129362076959276 -14.596010884786617 a35.67421240535133,35.67421240535133 0 0,0 0.6102554724794577,0.06856931282996526 l -1.7639583836851105 14.567805618486052" fill="#ff7d0b" stroke="none" /><path d="M 102.52436894288641 79.15227682838746 l 1.6457075100609442 -13.591220367322592 a34.69049393856173,34.69049393856173 0 0,0 0.5921919589410581,0.07688351229357213 l -1.8794141975098484 13.560878531864883" fill="#ff6f0a" stroke="none" /><path d="M 102.88285421437855 79.19881850522331 l 1.8339472355191788 -13.232812504915994 a34.35929224371297,34.35929224371297 0 0,0 0.5851404150889928,0.0862344867413767 l -2.0614566310368274 13.199283534013649" fill="#ff6a09" stroke="none" /><path d="M 103.2404852339499 79.25152402106235 l 2.1101993058650437 -13.511377601663412 a34.67516968103888,34.67516968103888 0 0,0 0.588934299876445,0.0971792056634172 l -2.342462811880364 13.47305213306037" fill="#ff6f0a" stroke="none" /><path d="M 103.59715602781102 79.31037775812273 l 2.351057374322738 -13.522485143163953 a34.725344266154025,34.725344266154025 0 0,0 0.5880238972583703,0.10745760866980529 l -2.5834763926840094 13.48001205314341" fill="#ff6f0a" stroke="none" /><path d="M 103.95276090670814 79.375362276772 l 2.547607053058227 -13.292853721887475 a34.534779708894035,34.534779708894035 0 0,0 0.5828707604992941,0.11691839119273643 l -2.7760442230246465 13.24703137461753" fill="#ff6c0a" stroke="none" /><path d="M 104.307194497241 79.44645832069477 l 2.731432847636375 -13.034149935434483 a34.317274118247084,34.317274118247084 0 0,0 0.5771140496227039,0.12613477828917197 l -2.955389621412607 12.985201659049439" fill="#ff6909" stroke="none" /><path d="M 104.66035177308747 79.52364482259891 l 2.9722838308297397 -13.059430354502064 a34.39340107497352,34.39340107497352 0 0,0 0.5761325629987316,0.13635196356524704 l -3.1966400807909947 13.006332478795947" fill="#ff6a09" stroke="none" /><path d="M 105.36241919743992 79.69619591428918 l 3.436711328090536 -13.012468987505896 a34.4586527521676,34.4586527521676 0 0,0 0.5721811880565728,0.15639873296545959 l -3.6601904053708196 12.951383713714144" fill="#ff6b09" stroke="none" /><path d="M 105.71112130821622 79.79150937346287 l 3.5975426154309527 -12.729707932821217 a34.22829455843697,34.22829455843697 0 0,0 0.565597763924839,0.16511349700154823 l -3.8161305970792188 12.665896106900965" fill="#ff6809" stroke="none" /><path d="M 106.40334571778207 80.00007090966166 l 6.024681862769597 -18.81722701815556 a40.75815842127977,40.75815842127977 0 0,0 0.6663321866566769,0.21967924560746216 l -6.347696871668692 18.71073404828886" fill="#ffc612" stroke="none" /><path d="M 107.08798089147638 80.2323363322302 l 4.5424366535472815 -12.668397583782005 a34.45815842127977,34.45815842127977 0 0,0 0.5566103027536492,0.20500427193174608 l -4.7598292820735075 12.588330044043934" fill="#ff6b09" stroke="none" /><path d="M 107.4271985657038 80.35727306442388 l 4.713498528731009 -12.465799007802547 a34.32716073600376,34.32716073600376 0 0,0 0.5508967174188423,0.2137393676644971 l -4.927378411149518 12.382816936247503" fill="#ff6909" stroke="none" /><path d="M 107.76421540070413 80.48803036053334 l 4.785734558455124 -12.02685687966027 a33.94405429793244,33.94405429793244 0 0,0 0.5410296430993148,0.2206995758655315 l -4.992048071142826 11.94269641761116" fill="#ff6409" stroke="none" /><path d="M 108.09893153111575 80.62456947434976 l 4.768039803676994 -11.406791575499527 a33.36321550472753,33.36321550472753 0 0,0 0.5279589716458544,0.22604447860436994 l -4.963682533113164 11.323027568932366" fill="#ff5b08" stroke="none" /><path d="M 108.76106565485865 80.91482961587045 l 8.855588510015236 -19.291079672671117 a42.22656832359057,42.22656832359057 0 0,0 0.6579739627392878,0.3089275979737114 l -9.186340684054121 19.135787092057402" fill="#ffdb14" stroke="none" /><path d="M 109.73455568895987 81.39251694778311 l 5.499189486480523 -10.511632830522043 a32.86319981168347,32.86319981168347 0 0,0 0.4989806688992927,0.26653819253110683 l -5.6793152019081266 10.415415911489182" fill="#ff5307" stroke="none" /><path d="M 110.05341064243156 81.56283822128135 l 7.680570655579652 -14.085560489504822 a37.04350896465142,37.04350896465142 0 0,0 0.5571977208655954,0.3100799283965315 l -7.921892465517282 13.95126516354811" fill="#ff910d" stroke="none" /><line stroke="#e1ed5e" stroke-width="0.3" x1="143.23703022742887" x2="145.7803849466894" y1="26.81831364943548" y2="22.513508569990506" /><path d="M 143.74570117128098 25.957352633546492 a86.0,86.0 0 0,1 28.547481713284135,27.462654790039103" fill="none" id="id38" stroke="none" /><text fill="#e1ed5e" style="font-size:6.75px; font-family:Arial;" text-anchor="middle"><textPath startOffset="19.985693538727396" xlink:href="#id38">February</textPath></text><path d="M 110.68208982089419 81.91981866633111 l 13.803444326210995 -23.36329132516191 a48.13629408764565,48.13629408764565 0 0,0 0.7097534591066071,0.4276185176260734 l -14.203559851535239 23.12222619807722" fill="#d5ff1c" stroke="none" /><path d="M 111.2981086023043 82.29822771554956 l 7.140427685879402 -11.187556197082685 a34.27204284201028,34.27204284201028 0 0,0 0.4945504321363308,0.321669357876713 l -7.331945143800013 11.062987915046445" fill="#ff6909" stroke="none" /><path d="M 111.60114157652 82.49532879139004 l 7.449781683254718 -11.240788510436968 a34.48534662011063,34.48534662011063 0 0,0 0.49198323614992256,0.33218927721427144 l -7.642169613811182 11.110887320924027" fill="#ff6c09" stroke="none" /><path d="M 112.19680574252982 82.90503203632743 l 9.5500572658112 -13.385301566377047 a37.44292832202127,37.44292832202127 0 0,0 0.5214457027240236,0.3788524790746417 l -9.779048284889011 13.21892985248573" fill="#ff970e" stroke="none" /><path d="M 112.48926042617603 83.11751280151076 l 7.9052917312486235 -10.686060014683427 a34.29231040841147,34.29231040841147 0 0,0 0.4715255489019166,0.3551432676831169 l -8.088063433908923 10.548400157494463" fill="#ff6909" stroke="none" /><path d="M 112.77801427241765 83.33499621200491 l 16.853202707447778 -21.979838257476523 a48.6973596453372,48.6973596453372 0 0,0 0.6608172451720958,0.5157783415662793 l -17.229052507779304 21.686481526687018" fill="#cdff1d" stroke="none" /><path d="M 113.34407831869373 83.78471172551755 l 8.419349599006015 -10.230918731964932 a34.24979795205775,34.24979795205775 0 0,0 0.45200349348027913,0.3785399268651495 l -8.594210629445412 10.084477647705963" fill="#ff6809" stroke="none" /><path d="M 113.89432698308785 84.25364557470407 l 8.737579630896272 -9.902244697048479 a34.20604966848445,34.20604966848445 0 0,0 0.43814531040800686,0.39337118576312563 l -8.90673592890027 9.750374502516054" fill="#ff6809" stroke="none" /><path d="M 114.16331599549186 84.49514656593476 l 8.958412667398475 -9.80694601843932 a34.28267095609871,34.28267095609871 0 0,0 0.43227528531572956,0.4017527666384768 l -9.125895836509052 9.651288665726202" fill="#ff6909" stroke="none" /><path d="M 114.68862486808459 84.99185889309783 l 22.198039543278213 -22.680905309657966 a52.73604299894072,52.73604299894072 0 0,0 0.6432898217697772,0.6405273308382656 l -22.58516516521531 22.295442128169583" fill="#9bff22" stroke="none" /><path d="M 115.19652480421416 85.50635884689758 l 8.027227822352362 -7.65594509338816 a32.09278512299423,32.09278512299423 0 0,0 0.37782786720877853,0.4030404254521217 l -8.157823011531603 7.516635251057984" fill="#ff4706" stroke="none" /><path d="M 115.68641384162765 86.03803664274999 l 9.958709591793276 -8.863921340461367 a34.33210404488211,34.33210404488211 0 0,0 0.38911048110351476,0.4448205444492512 l -10.109811936474639 8.691185239809169" fill="#ff6909" stroke="none" /><path d="M 115.9244219780498 86.31012108654704 l 10.142611660035687 -8.719382448132611 a34.375357997567576,34.375357997567576 0 0,0 0.38187648468634566,0.452021307824943 l -10.29119875820915 8.543502190678561" fill="#ff6a09" stroke="none" /><path d="M 116.15771136456269 86.58626213691792 l 15.261363768756986 -12.669611952359874 a40.83502687433795,40.83502687433795 0 0,0 0.4443269150898376,0.5446922600943187 l -15.477189175923233 12.405035522657455" fill="#ffc812" stroke="none" /><path d="M 116.38621287248628 86.86637796730983 l 8.543794149450457 -6.84788876827072 a31.949429165522382,31.949429165522382 0 0,0 0.3402552123914892,0.43208956627938033 l -8.66040344243591 6.699806808038301" fill="#ff4506" stroke="none" /><path d="M 116.60985879189232 87.15038557335679 l 10.08321193575529 -7.800510960383734 a33.74829926635019,33.74829926635019 0 0,0 0.3515030964794136,0.46253687223707285 l -10.215990972458817 7.625789312265628" fill="#ff6108" stroke="none" /><line stroke="#e1ed5e" stroke-width="0.3" x1="172.23445277983987" x2="176.4835382374775" y1="55.19839476539836" y2="52.563006222186495" /><path d="M 173.08426987136738 54.67131705675599 a86.0,86.0 0 0,1 12.851231095245387,41.99856678651699" fill="none" id="id39" stroke="none" /><text fill="#e1ed5e" style="font-size:6.75px; font-family:Arial;" text-anchor="middle"><textPath startOffset="22.20632615414155" xlink:href="#id39">March</textPath></text><path d="M 117.84615892207809 88.93136811851018 l 5.557801778157471 -3.447086973803058 a27.53999764604339,27.53999764604339 0 0,0 0.24639668918695876,0.40501137137615784 l -5.616314265630654 3.3509078292198184" fill="#ff0000" stroke="none" /><path d="M 118.03404312379186 89.2402003453031 l 19.434654829541728 -11.595458150378878 a43.63096237592687,43.63096237592687 0 0,0 0.3792576226321235,0.6482742152429422 l -19.631372126644177 11.25920452278204" fill="#ffee16" stroke="none" /><path d="M 118.3937258080291 89.86733742301442 l 11.557327305052771 -6.366654537318556 a34.19492722350818,34.19492722350818 0 0,0 0.27957105009954203,0.5180026963505029 l -11.665206454370777 6.166770857635595" fill="#ff6709" stroke="none" /><path d="M 118.73160827565052 90.50648371742162 l 14.631731096905696 -7.415624721949231 a37.40362901643846,37.40362901643846 0 0,0 0.2861199276522001,0.5768003148721929 l -14.757211037511304 7.162664818578089" fill="#ff970d" stroke="none" /><path d="M 118.89224826269711 90.83032412892265 l 11.696013087424397 -5.676860027682548 a34.00090235003335,34.00090235003335 0 0,0 0.2510267291123451,0.5287263113080365 l -11.791998010378498 5.474691300733971" fill="#ff6409" stroke="none" /><path d="M 119.04729006885535 91.15688171328212 l 20.34904295441171 -9.447485349194343 a43.43520734434462,43.43520734434462 0 0,0 0.30900568283150953,0.680853061863802 l -20.50865095420657 9.095810278488479" fill="#ffeb16" stroke="none" /><path d="M 119.196687751892 91.48605970444005 l 11.833877959430685 -5.248453885051367 a33.945537290595944,33.945537290595944 0 0,0 0.23229947943049303,0.536179226512288 l -11.922468148703858 5.043975513952477" fill="#ff6409" stroke="none" /><path d="M 119.47837535516314 92.15188598940014 l 20.34419980011585 -8.196966973603876 a42.93346149319314,42.93346149319314 0 0,0 0.270289549300275,0.6878574210787313 l -20.48228289929782 7.845560547629361" fill="#ffe515" stroke="none" /><path d="M 119.7369772167798 92.82701384747503 l 26.3381671721742 -9.572048765819932 a49.02361803130762,49.02361803130762 0 0,0 0.28141172005860965,0.7955888279154597 l -26.49903197304262 9.117262311477857" fill="#c9ff1d" stroke="none" /><path d="M 119.97218684219823 93.5106431181261 l 23.086058336211156 -7.5011150618168845 a45.274118247086975,45.274118247086975 0 0,0 0.23444343269526202,0.7432497490892311 l -23.211757252674627 7.102615146301234" fill="#faff18" stroke="none" /><path d="M 120.08093135843002 93.85539295169968 l 34.89444904576807 -10.677426944302152 a57.491506139903485,57.491506139903485 0 0,0 0.2814184665404018,0.9488031685605711 l -35.073073409420175 10.075194388995051" fill="#64ff29" stroke="none" /><path d="M 120.28053869075195 94.5502522615342 l 20.93616126838072 -5.625925389079624 a42.67888108595865,42.67888108595865 0 0,0 0.18454280734648595,0.7111187164548806 l -21.02990040759751 5.264710247075893" fill="#ffe115" stroke="none" /><path d="M 120.45610955862082 95.25157060432595 l 28.36127354164767 -6.583436825950998 a50.115347797088944,50.115347797088944 0 0,0 0.18782662709409384,0.8419899401623384 l -28.470394555743802 6.0942687162386955" fill="#bcff1f" stroke="none" /><path d="M 120.6074358757038 95.95851677861258 l 23.7548621326819 -4.658749264812486 a45.20738357722939,45.20738357722939 0 0,0 0.14318744726517757,0.7649130688356435 l -23.831535303856935 4.24915811851428" fill="#fbff18" stroke="none" /><path d="M 120.67395015179393 96.31383870115 l 38.28764631470174 -6.826679905536266 a59.8914826003374,59.8914826003374 0 0,0 0.17222548309658706,1.016484550361665 l -38.399483659318555 6.166609566858763" fill="#49ff2c" stroke="none" /><path d="M 120.78858239683441 97.02765380044208 l 21.3833108790727 -3.0573803259935364 a42.60077680568088,42.60077680568088 0 0,0 0.09754360914577474,0.7268131877748828 l -21.432770487276308 2.6888487961539895" fill="#ffe015" stroke="none" /><path d="M 120.83666639777658 97.38593545837742 l 32.38189137858393 -4.062471051149653 a53.63572521479854,53.63572521479854 0 0,0 0.10704068143565296,0.9170591898981428 l -32.44702241302317 3.504468122926658" fill="#91ff24" stroke="none" /><path d="M 120.87857604477298 97.74499172005257 l 16.601945124385377 -1.793107137116972 a37.698497391031424,37.698497391031424 0 0,0 0.06412850877469742,0.6457653317728106 l -16.630350758842305 1.5070662746397263" fill="#ff9b0e" stroke="none" /><path d="M 120.94382443527127 98.46500227214037 l 23.010187560141613 -1.6864439315561854 a44.071905527874776,44.071905527874776 0 0,0 0.04893956143901299,0.7570733542989226 l -23.035807712585044 1.2901115130042276" fill="#fff417" stroke="none" /><path d="M 120.96714384426684 98.82574320788733 l 45.82656414221636 -2.566499023561502 a66.89837576993997,66.89837576993997 0 0,0 0.05449475354587429,1.1502981178803025 l -45.86395250399573 1.7772897990582" fill="#36ff6c" stroke="none" /><line stroke="#e1ed5e" stroke-width="0.3" x1="184.98032266829074" x2="189.97916517819016" y1="98.17113171792111" y2="98.06355123074" /><path d="M 185.9800911702706 98.14961562048488 a86.0,86.0 0 0,1 -9.607161424134198,41.387399972396054" fill="none" id="id40" stroke="none" /><text fill="#e1ed5e" style="font-size:6.75px; font-family:Arial;" text-anchor="middle"><textPath startOffset="21.466115282336823" xlink:href="#id40">April</textPath></text><path d="M 120.99513854157772 99.54816195383933 l 23.980370645716196 -0.5160834636700043 a44.985923339479776,44.985923339479776 0 0,0 0.009997570668016474,0.7743228659473107 l -23.985701223501927 0.10322433966223091" fill="#feff18" stroke="none" /><path d="M 120.99824983174949 100.27111621757518 l 30.36594564805484 0.39206602422390396 a51.36847659774806,51.36847659774806 0 0,0 -0.01902575194971171,0.8840519328463476 l -30.35469783342012 -0.9147077728603664" fill="#acff20" stroke="none" /><path d="M 120.9904718944345 100.63252640178507 l 38.15491168005568 1.1497592391818385 a59.17223115853898,59.17223115853898 0 0,0 -0.03944214431691064,1.0178264875910026 l -38.12946740288757 -1.8063629737868472" fill="#51ff2b" stroke="none" /><path d="M 120.95626037817324 101.35467743843564 l 52.124679340727575 3.369500369546911 a73.23347326297619,73.23347326297619 0 0,0 -0.09214668497957365,1.2572683056642115 l -52.05895609708366 -4.266241811707892" fill="#3effb8" stroke="none" /><path d="M 120.89721153311464 102.0752229133903 l 16.503377888427867 1.6388879390981488 a37.58455412138569,37.58455412138569 0 0,0 -0.06947361381434988,0.6432393805498162 l -16.472721973112463 -1.9227236415327564" fill="#ff990e" stroke="none" /><path d="M 120.81339534386255 102.79330883721812 l 21.820626822408375 2.9284866178571565 a43.016261916905336,43.016261916905336 0 0,0 -0.1048079934617568,0.7330268621638691 l -21.766984777930016 -3.303658952001435" fill="#ffe615" stroke="none" /><path d="M 120.76222939487914 103.15116336523771 l 18.73145870539062 2.842945491414717 a39.94597277256856,39.94597277256856 0 0,0 -0.10903014665025568,0.6789308272685444 l -18.679746804379075 -3.1649555483764664" fill="#ffbb11" stroke="none" /><path d="M 120.70491114924044 103.5080841355445 l 23.83749459135 4.038845470250207 a45.177229393071514,45.177229393071514 0 0,0 -0.13650742524995058,0.7656061349913457 l -23.764440723760863 -4.448570355974771" fill="#fbff18" stroke="none" /><path d="M 120.64145759157962 103.86396538481128 l 34.20089254869411 6.402215752036482 a55.79496253285731,55.79496253285731 0 0,0 -0.1848409182395806,0.9424998598709265 l -34.085621697478864 -6.989979338975353" fill="#77ff27" stroke="none" /><path d="M 120.49622156327973 104.57218783832717 l 21.98408529895146 4.904092548486718 a43.524434069598655,43.524434069598655 0 0,0 -0.16941250519247425,0.7298246384319829 l -21.89641222782843 -5.281785844267265" fill="#ffed16" stroke="none" /><path d="M 120.32669344350535 105.2749913415812 l 22.852757006283316 5.930531479428617 a44.60973753383813,44.60973753383813 0 0,0 -0.1992821567589418,0.7416030400819975 l -22.747286773182594 -6.323025452686163" fill="#fffb17" stroke="none" /><path d="M 120.13307415673323 105.97154293290107 l 33.53485018628686 9.946558388294877 a55.97885362313155,55.97885362313155 0 0,0 -0.2819554294821615,0.9214466573796728 l -33.35866798429857 -10.522332018226606" fill="#75ff27" stroke="none" /><path d="M 120.02730092923936 106.31721596034902 l 53.19896677060728 16.780561851282943 a76.78276903762406,76.78276903762406 0 0,0 -0.4084395376158282,1.2570476408517162 l -52.902234981975205 -17.693808392112455" fill="#43ffe0" stroke="none" /><path d="M 119.79798401119884 107.00284435728193 l 20.412374742606826 7.220163588582092 a42.65169288712778,42.65169288712778 0 0,0 -0.2507832999341056,0.6900479342771234 l -20.285067181667493 -7.570459319865346" fill="#ffe115" stroke="none" /><path d="M 119.54520255179757 107.68017299344265 l 15.852248905540087 6.229048463785944 a38.03217074031936,38.03217074031936 0 0,0 -0.24466889719683982,0.6072481376923397 l -15.742677394085854 -6.500995969321097" fill="#ffa00e" stroke="none" /><path d="M 119.41010516605496 108.01547362559984 l 19.908284411989804 8.221198559723081 a42.53898544470164,42.53898544470164 0 0,0 -0.28531306480766083,0.6743958050884504 l -19.763820365989833 -8.562668890477696" fill="#ffdf14" stroke="none" /><path d="M 119.26925614724726 108.34839909993367 l 24.448497147866796 10.592303616927103 a47.644434854250854,47.644434854250854 0 0,0 -0.3325103186109781,0.7497229883072841 l -24.262545744524544 -11.011574941727075" fill="#dbff1b" stroke="none" /><path d="M 119.12269723197855 108.67885076344098 l 47.997752484601776 21.783816672986003 a73.70976107340422,73.70976107340422 0 0,0 -0.5343093629544496,1.1508548334114879 l -47.615668504807495 -22.606791573676322" fill="#3fffbe" stroke="none" /><path d="M 118.81262510543309 109.33194174019688 l 17.547575890841998 8.704418175416091 a40.587861430420965,40.587861430420965 0 0,0 -0.31585344311857044,0.6232088082968522 l -17.395143777937157 -9.005181195415638" fill="#ffc412" stroke="none" /><path d="M 118.64920377521936 109.65438752849418 l 18.27093713659923 9.458565081468741 a41.57405155164973,41.57405155164973 0 0,0 -0.33446817774191495,0.6326877446639168 l -18.105416450632422 -9.771667841218793" fill="#ffd213" stroke="none" /><line stroke="#e1ed5e" stroke-width="0.3" x1="174.80103733775053" x2="179.2010983576182" y1="140.37084112569926" y2="142.7455964860345" /><path d="M 175.68104954172406 140.8457921977663 a86.0,86.0 0 0,1 -30.038265399797805,32.042727171017184" fill="none" id="id41" stroke="none" /><text fill="#e1ed5e" style="font-size:6.75px; font-family:Arial;" text-anchor="middle"><textPath startOffset="22.206326154141568" xlink:href="#id41">May</textPath></text><path d="M 118.48025628344425 109.97397251340804 l 13.095758213114811 7.067906984431776 a35.88133704735376,35.88133704735376 0 0,0 -0.2980262686419054,0.5410042451665359 l -12.972155535021397 -7.2922817479961175" fill="#ff800b" stroke="none" /><path d="M 118.12598468904814 110.60418214915192 l 24.090229405868996 14.09342361350664 a48.90992192710581,48.90992192710581 0 0,0 -0.4313834718574578,0.7230235119640406 l -23.844065058313312 -14.506009219356786" fill="#cbff1d" stroke="none" /><path d="M 117.94076556474637 110.91462005526583 l 30.936893125163685 18.82107165008823 a57.2122091882773,57.2122091882773 0 0,0 -0.5190928044323952,0.8369428834921997 l -30.608335681063327 -19.3508108649457" fill="#67ff28" stroke="none" /><path d="M 117.55443506779139 111.5257021239791 l 17.71862265146125 11.633502641314283 a42.19641413943269,42.19641413943269 0 0,0 -0.4038737240394815,0.6037364191325556 l -17.51574582201105 -11.936775974652646" fill="#ffda14" stroke="none" /><path d="M 117.35343817320211 111.8261652097733 l 26.41516135125224 18.001623601317977 a52.965906861783516,52.965906861783516 0 0,0 -0.5199211424677542,0.7489851832759578 l -26.10137930162235 -18.453650046780957" fill="#99ff23" stroke="none" /><path d="M 116.93607887273984 112.41649034213515 l 13.688263990635704 10.035392425686611 a37.97285103377928,37.97285103377928 0 0,0 -0.391009581310495,0.5238212320379643 l -13.513493142630118 -10.26952653723389" fill="#ff9f0e" stroke="none" /><path d="M 116.71984013943494 112.70617746262583 l 22.47604639278223 17.080584009372817 a49.22975401153438,49.22975401153438 0 0,0 -0.5185374274944216,0.6702795245851931 l -22.178702148069743 -17.464941528071265" fill="#c7ff1e" stroke="none" /><path d="M 116.498646956653 112.99209946851258 l 49.495940869959 38.97629840553772 a84.0,84.0 0 0,0 -0.9043283517805842,1.1282886656869988 l -48.81769460612357 -39.822514904802965" fill="#4dd2ff" stroke="none" /><path d="M 116.0416608686014 113.55231037782055 l 13.114525057080153 11.0794085155567 a38.1681117344737,38.1681117344737 0 0,0 -0.4283143536080087,0.4982263575324216 l -12.921868193901364 -11.303511972250648" fill="#ffa20e" stroke="none" /><path d="M 115.56566222782051 114.09645910891815 l 17.301829896763735 15.668754343986397 a44.34230452351995,44.34230452351995 0 0,0 -0.5172288938468456,0.5613498103235655 l -17.029554594921166 -15.964255409111296" fill="#fff817" stroke="none" /><path d="M 115.07121518719521 114.62390073753431 l 20.827297133361252 20.20914187252677 a50.02043626662481,50.02043626662481 0 0,0 -0.6049123204153074,0.6127729868963593 l -20.476344187890408 -20.564655353403797" fill="#bdff1f" stroke="none" /><path d="M 114.81725581225074 114.88116024355365 l 25.390471469591553 25.499976472429907 a56.98506414531759,56.98506414531759 0 0,0 -0.7010520969433914,0.6861270287663898 l -24.94776942027237 -25.933253604118867" fill="#69ff28" stroke="none" /><path d="M 114.29624159901734 115.38237550388516 l 14.193039886348378 15.271333207493976 a41.848405194397586,41.848405194397586 0 0,0 -0.5318742000227593,0.485854471105226 l -13.928066136858755 -15.513380445185785" fill="#ffd614" stroke="none" /><path d="M 113.75828350139079 115.86535959552629 l 23.44451667775933 27.035035845740854 a56.78461297030091,56.78461297030091 0 0,0 -0.7439717822543125,0.6340288929602509 l -22.97567941892797 -27.434589128924053" fill="#6cff28" stroke="none" /><path d="M 113.20401910651253 116.32954008644616 l 13.25633994804251 16.394245784933 a42.083212366118715,42.083212366118715 0 0,0 -0.5672065686959246,0.4506232024219141 l -12.972175886629236 -16.62000290136004" fill="#ffd914" stroke="none" /><path d="M 112.92097659922987 116.55440617244103 l 35.23626205078539 45.14483789267434 a78.26823335556514,78.26823335556514 0 0,0 -1.069186077203758,0.8198062915666186 l -34.453947245088145 -45.74468352606833" fill="#45fff1" stroke="none" /><path d="M 112.34349029814194 116.9893568818739 l 12.170122589454472 16.750736702042953 a41.70504923692573,41.70504923692573 0 0,0 -0.5844122038639986,0.4169625903505677 l -11.879983057741589 -16.957743554237737" fill="#ffd413" stroke="none" /><path d="M 112.04921762599082 117.19931262002967 l 23.540575715694157 33.6023245290508 a62.02773353211189,62.02773353211189 0 0,0 -0.8797396854755168,0.6050929775647963 l -22.958679145595756 -34.002558295980684" fill="#32ff2f" stroke="none" /><path d="M 111.45004920935366 117.60387380957326 l 8.801475701630762 13.531825475733413 a37.142375142218214,37.142375142218214 0 0,0 -0.5389503629063628,0.3439836211606987 l -8.567243536677468 -13.681323525717922" fill="#ff930d" stroke="none" /><line stroke="#e1ed5e" stroke-width="0.3" x1="143.8653032363475" x2="146.44561519142675" y1="172.8068346515853" y2="177.08958963109032" /><path d="M 144.38136562736335 173.6633856474863 a86.0,86.0 0 0,1 -40.68145358897372,12.25698825130547" fill="none" id="id42" stroke="none" /><text fill="#e1ed5e" style="font-size:6.75px; font-family:Arial;" text-anchor="middle"><textPath startOffset="21.466115282336833" xlink:href="#id42">June</textPath></text><path d="M 110.8373102113329 117.98757091392108 l 9.69656309308558 16.094179538737656 a39.78951704656911,39.78951704656911 0 0,0 -0.5897036238645803,0.3484072953459676 l -9.418091598192618 -16.25870540637737" fill="#ffb911" stroke="none" /><path d="M 110.21172684928248 118.3499491758327 l 9.800277068035165 17.610595030766977 a41.15387029699086,41.15387029699086 0 0,0 -0.6219666493133952,0.3391458081504847 l -9.49568760685312 -17.77668149067723" fill="#ffcc13" stroke="none" /><path d="M 109.89434966115114 118.52300852407294 l 13.113924226241473 24.550307857066013 a48.83330063949154,48.83330063949154 0 0,0 -0.7448452597375161,0.38966783633366336 l -12.68938806397746 -24.77240511234439" fill="#ccff1d" stroke="none" /><path d="M 108.92500713936063 119.00905698771935 l 6.923542161974881 14.746207533374191 a37.29067440856841,37.29067440856841 0 0,0 -0.5833895239348371,0.26780551698925525 l -6.668684642272625 -14.863200120697522" fill="#ff950d" stroke="none" /><line stroke="#e1ed5e" stroke-width="0.3" x1="102.19456741930631" x2="102.32365962044197" y1="184.97166512339345" y2="189.96999836594603" /><path d="M 102.22038585953345 185.97133177190398 a86.0,86.0 0 0,1 -42.740103519485714,-10.115201625700543" fill="none" id="id43" stroke="none" /><text fill="#e1ed5e" style="font-size:6.75px; font-family:Arial;" text-anchor="middle"><textPath startOffset="22.20632615414155" xlink:href="#id43">July</textPath></text><line stroke="#e1ed5e" stroke-width="0.3" x1="58.666819895761336" x2="56.23545636021788" y1="174.27360380694188" y2="178.64263932499728" /><path d="M 58.180547188652646 175.14741091055294 a86.0,86.0 0 0,1 -31.652253787137756,-30.449443065178592" fill="none" id="id44" stroke="none" /><text fill="#e1ed5e" style="font-size:6.75px; font-family:Arial;" text-anchor="middle"><textPath startOffset="22.20632615414155" xlink:href="#id44">August</textPath></text><line stroke="#e1ed5e" stroke-width="0.3" x1="26.63291911575756" x2="22.317208475507996" y1="142.92168965132927" y2="145.44649492493687" /><path d="M 25.769776987707644 143.4266507060508 a86.0,86.0 0 0,1 -11.730757126820373,-40.83630448921669" fill="none" id="id45" stroke="none" /><text fill="#e1ed5e" style="font-size:6.75px; font-family:Arial;" text-anchor="middle"><textPath startOffset="21.46611528233685" xlink:href="#id45">September</textPath></text><line stroke="#e1ed5e" stroke-width="0.3" x1="15.007084014347285" x2="10.007500721073583" y1="101.09737516637583" y2="101.16192664675087" /><path d="M 14.007167355692545 101.11028546245083 a86.0,86.0 0 0,1 10.666146001902534,-42.60595125391555" fill="none" id="id46" stroke="none" /><text fill="#e1ed5e" style="font-size:6.75px; font-family:Arial;" text-anchor="middle"><textPath startOffset="22.20632615414155" xlink:href="#id46">October</textPath></text><line stroke="#e1ed5e" stroke-width="0.3" x1="26.266209847984243" x2="21.928928074336255" y1="57.711370442889674" y2="55.22380399835377" /><path d="M 25.398753493254645 57.213857153982495 a86.0,86.0 0 0,1 29.58750427330803,-30.492523968695096" fill="none" id="id47" stroke="none" /><text fill="#e1ed5e" style="font-size:6.75px; font-family:Arial;" text-anchor="middle"><textPath startOffset="21.46611528233685" xlink:href="#id47">November</textPath></text><line stroke="#e1ed5e" stroke-width="0.3" x1="56.762969772571076" x2="54.21961505331055" y1="26.818313649435495" y2="22.513508569990535" /><path d="M 56.25429882871897 25.957352633546506 a86.0,86.0 0 0,1 42.265352541879196,-11.944610805530505" fill="none" id="id48" stroke="none" /><text fill="#e1ed5e" style="font-size:6.75px; font-family:Arial;" text-anchor="middle"><textPath startOffset="22.20632615414155" xlink:href="#id48">December</textPath></text></svg>