<?xml version="1.0" encoding="utf-8" ?>
<svg baseProfile="full" height="200mm" version="1.1" viewBox="0,0,200,200" width="200mm" xmlns="http://www.w3.org/2000/svg" xmlns:ev="http://www.w3.org/2001/xml-events" xmlns:xlink="http://www.w3.org/1999/xlink"><defs /><rect fill="#1a1a1a" height="200" width="200" x="0" y="0" /><text alignment-baseline="middle" fill="#e1ed5e" style="dominant-baseline: central; font-size:9.0px; font-family:Arial;" text-anchor="middle" x="100.0" y="100.0">2022</text><line stroke="#e1ed5e" stroke-width="0.3" x1="100.0" x2="100.0" y1="15.0" y2="10.0" /><path d="M 100.0 14.0 a86.0,86.0 0 0,1 42.46469731375804,11.215312516191453" fill="none" id="id1" stroke="none" /><text fill="#e1ed5e" style="font-size:6.75px; font-family:Arial;" text-anchor="middle"><textPath startOffset="22.20632615414155" xlink:href="#id1">January</textPath></text><line stroke="#e1ed5e" stroke-width="0.3" x1="143.23703022742887" x2="145.7803849466894" y1="26.81831364943548" y2="22.513508569990506" /><path d="M 143.74570117128098 25.957352633546492 a86.0,86.0 0 0,1 28.547481713284135,27.462654790039103" fill="none" id="id2" stroke="none" /><text fill="#e1ed5e" style="font-size:6.75px; font-family:Arial;" text-anchor="middle"><textPath startOffset="19.985693538727396" xlink:href="#id2">February</textPath></text><line stroke="#e1ed5e" stroke-width="0.3" x1="172.23445277983987" x2="176.4835382374775" y1="55.19839476539836" y2="52.563006222186495" /><path d="M 173.08426987136738 54.67131705675599 a86.0,86.0 0 0,1 12.851231095245387,41.99856678651699" fill="none" id="id3" stroke="none" /><text fill="#e1ed5e" style="font-size:6.75px; font-family:Arial;" text-anchor="middle"><textPath startOffset="22.20632615414155" xlink:href="#id3">March</textPath></text><line stroke="#e1ed5e" stroke-width="0.3" x1="184.98032266829074" x2="189.97916517819016" y1="98.17113171792111" y2="98.06355123074" /><path d="M 185.9800911702706 98.14961562048488 a86.0,86.0 0 0,1 -9.607161424134198,41.387399972396054" fill="none" id="id4" stroke="none" /><text fill="#e1ed5e" style="font-size:6.75px; font-family:Arial;" text-anchor="middle"><textPath startOffset="21.466115282336823" xlink:href="#id4">April</textPath></text><line stroke="#e1ed5e" stroke-width="0.3" x1="174.80103733775053" x2="179.2010983576182" y1="140.37084112569926" y2="142.7455964860345" /><path d="M 175.68104954172406 140.8457921977663 a86.0,86.0 0 0,1 -30.038265399797805,32.042727171017184" fill="none" id="id5" stroke="none" /><text fill="#e1ed5e" style="font-size:6.75px; font-family:Arial;" text-anchor="middle"><textPath startOffset="22.206326154141568" xlink:href="#id5">May</textPath></text><line stroke="#e1ed5e" stroke-width="0.3" x1="143.8653032363475" x2="146.44561519142675" y1="172.8068346515853" y2="177.08958963109032" /><path d="M 144.38136562736335 173.6633856474863 a86.0,86.0 0 0,1 -40.68145358897372,12.25698825130547" fill="none" id="id6" stroke="none" /><text fill="#e1ed5e" style="font-size:6.75px; font-family:Arial;" text-anchor="middle"><textPath startOffset="21.466115282336833" xlink:href="#id6">June</textPath></text><line stroke="#e1ed5e" stroke-width="0.3" x1="102.19456741930631" x2="102.32365962044197" y1="184.97166512339345" y2="189.96999836594603" /><path d="M 102.22038585953345 185.97133177190398 a86.0,86.0 0 0,1 -42.740103519485714,-10.115201625700543" fill="none" id="id7" stroke="none" /><text fill="#e1ed5e" style="font-size:6.75px; font-family:Arial;" text-anchor="middle"><textPath startOffset="22.20632615414155" xlink:href="#id7">July</textPath></text><path d="M 95.86986931433489 120.58985236759428 l -2.473469088895677 12.330932663446363 a33.576563508533276,33.576563508533276 0 0,0 -0.5656988031036924,-0.1185476843768193 l 2.6853593534287565 -12.286528998343003" fill="#ff5107" stroke="none" /><path d="M 93.76903079525671 120.05430185196036 l -4.618769764470462 14.865456720743753 a36.56646516244109,36.56646516244109 0 0,0 -0.5994787352811527,-0.19193416012251865 l 4.873969844842556 -14.783749713961528" fill="#ff7e0b" stroke="none" /><path d="M 93.42475214034765 119.94407469862007 l -4.8960116174056765 14.850606928757399 a36.63686208643629,36.63686208643629 0 0,0 -0.5972336563043695,-0.20261408248305288 l 5.1509150066472715 -14.764129859376222" fill="#ff7f0b" stroke="none" /><path d="M 93.08242187328487 119.8279376855182 l -5.2615324979817935 15.081194110033376 a36.97266853133264,36.97266853133264 0 0,0 -0.5990988520253976,-0.2148155334201175 l 5.5203509106369175 -14.9883910355733" fill="#ff840c" stroke="none" /><path d="M 92.7421414339146 119.70592522655815 l -2.59530540759043 7.046554274430218 a28.509296724804454,28.509296724804454 0 0,0 -0.45904010513512944,-0.1735696892616895 l 2.7162157334858428 -7.000836335061895" fill="#ff0000" stroke="none" /><path d="M 92.40401165467489 119.57807347666478 l -5.799201251876405 14.946993472558196 a37.03257150392482,37.03257150392482 0 0,0 -0.5923076318162485,-0.23569143053607283 l 6.055629959734511 -14.844955197616057" fill="#ff850c" stroke="none" /><path d="M 92.06813273071674 119.44442032107085 l -7.6589259929279185 18.77532378676861 a41.277374846442676,41.277374846442676 0 0,0 -0.6555801232528661,-0.27403254468882127 l 7.980977575678247 -18.640706199059817" fill="#ffc312" stroke="none" /><path d="M 91.7346041902142 119.30500536409082 l -7.671203782983459 17.917185527182564 a40.49032849121687,40.49032849121687 0 0,0 -0.6383576495123066,-0.279837233944149 l 7.978482107153509 -17.782483739943963" fill="#ffb811" stroke="none" /><path d="M 91.40352486487194 119.15986991738527 l -7.14510436871477 15.925046963877127 a38.45450191903278,38.45450191903278 0 0,0 -0.601596885105974,-0.276163623488252 l 7.418169249588163 -15.7996962700548" fill="#ff9a0e" stroke="none" /><path d="M 91.07499286063937 119.00905698771935 l -7.214870640929392 15.366697755075968 a37.97615263424554,37.97615263424554 0 0,0 -0.5893308124566599,-0.2829146035536949 l 7.478314121386294 -15.24022887502271" fill="#ff930d" stroke="none" /><path d="M 90.42595943632237 118.69057910512821 l -7.617742261759758 14.87146554256997 a37.708994121443894,37.708994121443894 0 0,0 -0.5751682796987322,-0.30090085980669584 l 7.872601443984985 -14.738135263818558" fill="#ff8f0d" stroke="none" /><line stroke="#e1ed5e" stroke-width="0.3" x1="58.666819895761336" x2="56.23545636021788" y1="174.27360380694188" y2="178.64263932499728" /><path d="M 58.180547188652646 175.14741091055294 a86.0,86.0 0 0,1 -31.652253787137756,-30.449443065178592" fill="none" id="id8" stroke="none" /><text fill="#e1ed5e" style="font-size:6.75px; font-family:Arial;" text-anchor="middle"><textPath startOffset="22.20632615414155" xlink:href="#id8">August</textPath></text><path d="M 89.7882731507175 118.34994917583269 l -7.693080395204276 13.82407073173057 a36.82050623598898,36.82050623598898 0 0,0 -0.551170073231834,-0.31296875223633347 l 7.9298992353573166 -13.689598813699604" fill="#ff820c" stroke="none" /><path d="M 89.4739219176387 118.17145234162733 l -5.250583051833929 9.064223060632395 a31.47514974008037,31.47514974008037 0 0,0 -0.46647989825265135,-0.27560454626066655 l 5.405830821114962 -8.97249994207798" fill="#ff3004" stroke="none" /><path d="M 89.1626897886671 117.98757091392108 l -8.687644214373552 14.419594284340457 a37.83448429030489,37.83448429030489 0 0,0 -0.5549432438689624,-0.34089146568220147 l 8.934566658174823 -14.267914351829878" fill="#ff910d" stroke="none" /><path d="M 88.54995079064634 117.60387380957326 l -9.315686226456167 14.322398251891098 a38.0854646280269,38.0854646280269 0 0,0 -0.5464816239366064,-0.36217822161302693 l 9.560842549132737 -14.159922009186753" fill="#ff950d" stroke="none" /><path d="M 87.95078237400918 117.19931262002967 l -6.063035383091416 8.654507223369666 a31.566971814856714,31.566971814856714 0 0,0 -0.44234748322270273,-0.3156031842252841 l 6.211110194163005 -8.548859777300164" fill="#ff3104" stroke="none" /><path d="M 87.65650970185807 116.9893568818739 l -10.062116738183297 13.849315560105874 a38.11869547413643,38.11869547413643 0 0,0 -0.5275174196581857,-0.390244775902753 l 10.299019128260047 -13.674060835463353" fill="#ff950d" stroke="none" /><path d="M 87.36589467227662 116.77436683061367 l -6.766401114073841 8.983785671114106 a32.246892416176784,32.246892416176784 0 0,0 -0.4405098585505892,-0.3377641752325876 l 6.9200397011179176 -8.865982154054151" fill="#ff3c05" stroke="none" /><path d="M 86.79598089348748 116.32954008644616 l -8.742348581747851 10.811748336907927 a34.90404836101414,34.90404836101414 0 0,0 -0.4639410729657068,-0.38179191810333185 l 8.927159783258245 -10.659661299947414" fill="#ff6509" stroke="none" /><path d="M 86.51685102203217 116.09983520530335 l -12.804981667158561 15.290055385804632 a40.94375464142196,40.94375464142196 0 0,0 -0.5364304962101695,-0.45715770648139403 l 13.066277639945788 -15.067373289100285" fill="#ffbf11" stroke="none" /><path d="M 85.97065885151581 115.62618273729859 l -14.50440868222137 16.155323201997955 a42.71111095687902,42.71111095687902 0 0,0 -0.5428387979601034,-0.4958703713528788 l 14.780347029648329 -15.9032600640585" fill="#ffd814" stroke="none" /><path d="M 85.70375840098266 115.38237550388516 l -11.68729136474569 12.575214482118843 a38.16766724735049,38.16766724735049 0 0,0 -0.47739421289401235,-0.4514060257356497 l 11.90202141203052 -12.372173819637263" fill="#ff960d" stroke="none" /><path d="M 85.44109423537348 115.13401014063109 l -16.118034294350277 16.754727202810102 a44.24891208539523,44.24891208539523 0 0,0 -0.5443670735514835,-0.5327777555514499 l 16.404051320277556 -16.474799344336084" fill="#ffed16" stroke="none" /><path d="M 85.18274418774928 114.88116024355367 l -19.1362602027958 19.218791802507642 a48.121180153106195,48.121180153106195 0 0,0 -0.5819440396796632,-0.5895062397740735 l 19.464244867530997 -18.886545068752906" fill="#ddff1b" stroke="none" /><path d="M 84.9287848128048 114.62390073753433 l -16.123814303182126 15.645258657079365 a43.466675457895796,43.466675457895796 0 0,0 -0.5164119409562883,-0.5414558555049351 l 16.39073279551737 -15.36539568499193" fill="#ffe215" stroke="none" /><path d="M 84.67929136418377 114.36230785411682 l -18.162126264310103 17.025978033650222 a45.89471346376742,45.89471346376742 0 0,0 -0.5353369008074575,-0.5810024755044965 l 18.45250957311329 -16.71082430334438" fill="#fbff18" stroke="none" /><path d="M 84.43433777217949 114.09645910891817 l -13.447790984757875 12.178488325611106 a39.142730231880236,39.142730231880236 0 0,0 -0.4479813719921363,-0.5033118204510875 l 13.65543120639835 -11.945202335419154" fill="#ffa50f" stroke="none" /><path d="M 84.19399662182784 113.82643327865904 l -10.036625105476354 8.779621517443372 a34.3347514974008,34.3347514974008 0 0,0 -0.38529720820897234,-0.44818769904930944 l 10.186264823256106 -8.605556719232533" fill="#ff5c08" stroke="none" /><path d="M 83.72743513129214 113.27417163493432 l -21.14655284420778 17.25007546173711 a48.28995787150462,48.28995787150462 0 0,0 -0.5198806905891699,-0.6486310968204706 l 21.44035144685181 -16.88351653133838" fill="#dbff1b" stroke="none" /><path d="M 83.28015986056508 112.70617746262583 l -17.928313139109243 13.624551816961779 a43.51783347098547,43.51783347098547 0 0,0 -0.4481067231400061,-0.6003121842001542 l 18.160181128944334 -13.313926753252316" fill="#ffe315" stroke="none" /><path d="M 83.06392112726016 112.41649034213515 l -18.068144249108723 13.246450979303333 a43.403711749477736,43.403711749477736 0 0,0 -0.4365590955901892,-0.606342401237255 l 18.293483137074517 -12.93347497261494" fill="#ffe115" stroke="none" /><path d="M 82.85270091963577 112.12312394758628 l -21.288247502463115 15.050770496840983 a47.071347764829994,47.071347764829994 0 0,0 -0.4620592822332273,-0.6656308580666715 l 21.544167691858476 -14.682098376587298" fill="#ebff1a" stroke="none" /><path d="M 82.6465618267979 111.8261652097733 l -17.884340191257493 12.187968727500449 a42.642463024784334,42.642463024784334 0 0,0 -0.4081429831247335,-0.6101183822043279 l 18.091486279792957 -11.8783134310903" fill="#ffd714" stroke="none" /><path d="M 82.44556493220864 111.52570212397912 l -18.514377558571876 12.15597083739313 a43.14835893200447,43.14835893200447 0 0,0 -0.402297087245147,-0.6243740132510764 l 18.72087950919407 -11.835475224220607" fill="#ffde14" stroke="none" /><path d="M 82.05923443525364 110.91462005526583 l -18.96516593329205 11.537834308124749 a43.19907969711902,43.19907969711902 0 0,0 -0.38101408153060357,-0.6386015165343161 l 19.160960890520883 -11.209670697704322" fill="#ffde14" stroke="none" /><line stroke="#e1ed5e" stroke-width="0.3" x1="26.63291911575756" x2="22.317208475507996" y1="142.92168965132927" y2="145.44649492493687" /><path d="M 25.769776987707644 143.4266507060508 a86.0,86.0 0 0,1 -11.730757126820373,-40.83630448921669" fill="none" id="id9" stroke="none" /><text fill="#e1ed5e" style="font-size:6.75px; font-family:Arial;" text-anchor="middle"><textPath startOffset="21.46611528233685" xlink:href="#id9">September</textPath></text><path d="M 81.87401531095188 110.60418214915194 l -18.9450840020163 11.083376988051246 a42.94897385534727,42.94897385534727 0 0,0 -0.36782320072323554,-0.6413307543708258 l 19.133059198891917 -10.755626387822113" fill="#ffdb14" stroke="none" /><path d="M 81.69416730710424 110.29060199501025 l -23.904317716197962 13.437783667449931 a48.422444007967634,48.422444007967634 0 0,0 -0.4021912641429815,-0.7300939687692027 l 24.13208538979246 -13.024319180282905" fill="#d9ff1c" stroke="none" /><path d="M 81.51974371655577 109.97397251340807 l -19.50198488122411 10.525409289723171 a43.16103912328311,43.16103912328311 0 0,0 -0.3472356810612497,-0.6568390493848357 l 19.680273070510246 -10.18815522525221" fill="#ffde14" stroke="none" /><path d="M 81.35079622478065 109.6543875284942 l -20.77372943589029 10.75421968699106 a44.39232942123637,44.39232942123637 0 0,0 -0.345459691681176,-0.6816247454564119 l 20.95576779735773 -10.395040729831964" fill="#ffef16" stroke="none" /><path d="M 81.18737489456691 109.33194174019688 l -32.111887026437635 15.928997533255284 a56.84558900078427,56.84558900078427 0 0,0 -0.4272805285519976,-0.8803244451292085 l 32.38132081160435 -15.373884132160791" fill="#70ff27" stroke="none" /><path d="M 80.87730276802145 108.67885076344099 l -17.347434375326852 7.873146358259349 a40.050457028240665,40.050457028240665 0 0,0 -0.27951197800359234,-0.630225721390949 l 17.480387438061726 -7.573372300375704" fill="#ffb210" stroke="none" /><path d="M 80.73074385275274 108.34839909993369 l -20.117952381434716 8.71609647358762 a42.924925216715366,42.924925216715366 0 0,0 -0.2879015999603798,-0.6805143375485535 l 20.2650049625874 -8.368507610372907" fill="#ffdb14" stroke="none" /><path d="M 80.58989483394504 108.01547362559985 l -20.290466050129897 8.379021859210303 a42.952471839148274,42.952471839148274 0 0,0 -0.2763222217453382,-0.6858090933514531 l 20.43169088613262 -8.028513398016045" fill="#ffdb14" stroke="none" /><path d="M 80.45479744820244 107.68017299344265 l -18.758690025022563 7.371117497541119 a41.154945413407546,41.154945413407546 0 0,0 -0.2534080888081177,-0.6615685561825814 l 18.88279239342419 -7.04712537452538" fill="#ffc212" stroke="none" /><path d="M 80.32549172779594 107.34259656027581 l -42.03863842511302 15.68896958583728 a65.87082445534867,65.87082445534867 0 0,0 -0.3873070822771102,-1.0657027486537165 l 42.302469768395355 -14.963019040177446" fill="#34ff5a" stroke="none" /><path d="M 80.0844068197444 106.66101706037122 l -21.02745947636254 7.032894528452998 a43.172407570636366,43.172407570636366 0 0,0 -0.22965202228213452,-0.7067962482567329 l 21.145403749660925 -6.669899380218461" fill="#ffde14" stroke="none" /><path d="M 79.97269907076064 106.31721596034903 l -21.00404241595025 6.62530974346968 a43.02418050706885,43.02418050706885 0 0,0 -0.21670506821483357,-0.7082047013974124 l 21.114974256671214 -6.26277806952022" fill="#ffdc14" stroke="none" /><path d="M 79.86692584326677 105.97154293290107 l -22.643368065283937 6.71610522539615 a44.61838662437623,44.61838662437623 0 0,0 -0.21205921501787217,-0.7382059470326308 l 22.755619917187914 -6.325341802858924" fill="#fff216" stroke="none" /><path d="M 79.76711848015287 105.62410040840567 l -42.49827712614627 11.813175375303768 a65.10957573065525,65.10957573065525 0 0,0 -0.29085974037445983,-1.0823972964126491 l 42.695324942862506 -11.07988714571558" fill="#33ff50" stroke="none" /><path d="M 79.67330655649465 105.27499134158121 l -21.21603830353642 5.50578571300135 a42.918803745063606,42.918803745063606 0 0,0 -0.17941835108606924,-0.7166871257028935 l 21.30766796891755 -5.139770747901064" fill="#ffda14" stroke="none" /><path d="M 79.58551787078972 104.9243191809786 l -22.22111484528061 5.360109620354922 a43.858449643608196,43.858449643608196 0 0,0 -0.17071261204913232,-0.7354254647435096 l 22.310088023260295 -4.976815498262837" fill="#ffe815" stroke="none" /><path d="M 79.4281124754447 104.21870165774334 l -21.81933921075033 4.474518071780413 a43.27341185289035,43.27341185289035 0 0,0 -0.1433587696655796,-0.7309832779879861 l 21.893127913391574 -4.098271066724473" fill="#ffdf14" stroke="none" /><path d="M 79.35854240842038 103.8639653848113 l -21.971778137344273 4.112993948648512 a43.3534282323383,43.3534282323383 0 0,0 -0.13099663133973916,-0.7346986761582152 l 22.039321211023204 -3.734176521757083" fill="#ffe115" stroke="none" /><path d="M 79.29508885075956 103.50808413554451 l -21.481903956052776 3.639731942162147 a42.7880666005011,42.7880666005011 0 0,0 -0.11678747199109393,-0.7272356995709013 l 21.541373182405163 -3.269417012898032" fill="#ffd914" stroke="none" /><path d="M 79.23777060512086 103.15116336523772 l -44.8832645126072 6.812105586276105 a66.3972710173997,66.3972710173997 0 0,0 -0.16177520864349154,-1.1314554324629047 l 44.99387377226729 -6.0385046818328" fill="#35ff61" stroke="none" /><path d="M 79.18660465613746 102.79330883721812 l -22.607227672312714 3.034054165539818 a43.809915118369275,43.809915118369275 0 0,0 -0.0938752409690623,-0.7482780351968905 l 22.656104422528625 -2.644458376055519" fill="#ffe715" stroke="none" /><path d="M 79.10278846688536 102.07522291339032 l -18.391135742905618 1.8263540203184656 a39.48159741260246,39.48159741260246 0 0,0 -0.06133824072438729,-0.67686237516046 l 18.41984857990708 -1.5095102566094394" fill="#ffa90f" stroke="none" /><path d="M 79.07016306316243 101.71520430193888 l -26.788703792562885 2.195339606659777 a47.87850752691158,47.87850752691158 0 0,0 -0.06024356832745365,-0.8219756260901747 l 26.822523919554673 -1.7338908440728418" fill="#e0ff1b" stroke="none" /><path d="M 79.04373962182676 101.35467743843564 l -24.334965212088168 1.573087361152825 a45.3857568207214,45.3857568207214 0 0,0 -0.043686274432280015,-0.7800477767676276 l 24.35843783740798 -1.1539678680497598" fill="#fffd17" stroke="none" /><path d="M 79.0235259727143 100.99374915477108 l -22.256757701251058 1.0544019039993489 a43.28171956441773,43.28171956441773 0 0,0 -0.02885008383020475,-0.744492471191768 l 22.271609917932462 -0.6711321857935841" fill="#ffe014" stroke="none" /><path d="M 79.0095281055655 100.63252640178507 l -21.897932520812578 0.6598717996232607 a42.90787254568547,42.90787254568547 0 0,0 -0.015892130618096724,-0.7384448628947552 l 21.906046714115682 -0.2828371209383766" fill="#ffda14" stroke="none" /><line stroke="#e1ed5e" stroke-width="0.3" x1="15.007084014347285" x2="10.007500721073583" y1="101.09737516637583" y2="101.16192664675087" /><path d="M 14.007167355692545 101.11028546245083 a86.0,86.0 0 0,1 10.666146001902534,-42.60595125391555" fill="none" id="id10" stroke="none" /><text fill="#e1ed5e" style="font-size:6.75px; font-family:Arial;" text-anchor="middle"><textPath startOffset="22.20632615414155" xlink:href="#id10">October</textPath></text><path d="M 79.00175016825051 100.2711162175752 l -44.387463807358316 0.5731030629520149 a65.39116342663604,65.39116342663604 0 0,0 -0.004844248104065196,-1.1256326565696857 l 44.39075235275188 0.1910390718213463" fill="#33ff54" stroke="none" /><path d="M 79.00486145842228 99.54816195383935 l -26.474918807081426 -0.5697688330259784 a47.481049117522545,47.481049117522545 0 0,0 0.024618484302767134,-0.8169676417971915 l 26.461188628323015 1.0254066222481641" fill="#e5ff1a" stroke="none" /><path d="M 79.01574976396665 99.18683210126434 l -24.734043694159226 -0.9584774348276762 a45.75260787185164,45.75260787185164 0 0,0 0.037269620695000026,-0.786702787883729 l 24.713880465230726 1.3840913293344144" fill="#fdff18" stroke="none" /><path d="M 79.03285615573316 98.82574320788736 l -24.359827169747565 -1.3642627112794736 a45.3979997640249,45.3979997640249 0 0,0 0.05041212019423098,-0.7798531864721854 l 24.33273445854892 1.7833749620046708" fill="#fffd17" stroke="none" /><path d="M 79.08570108090925 98.10471618934814 l -46.16392793136729 -4.183441461886838 a67.35309509102393,67.35309509102393 0 0,0 0.11457362623093088,-1.153740780334887 l 46.08507717945413 4.977457772926155" fill="#36ff6e" stroke="none" /><path d="M 79.12142395522702 97.74499172005258 l -26.141438446097993 -2.823428188745898 a47.29346973619372,47.29346973619372 0 0,0 0.09438345818473,-0.8086198307201906 l 26.088964634909672 3.2729917577909506" fill="#e8ff1a" stroke="none" /><path d="M 79.16333360222342 97.38593545837743 l -27.004382125508325 -3.3878354836189164 a48.21606296370842,48.21606296370842 0 0,0 0.11040101033211892,-0.8226157608453439 l 26.942065116118375 3.8521695865289196" fill="#dcff1b" stroke="none" /><path d="M 79.21141760316559 97.0276538004421 l -23.270232676364632 -3.327171922456482 a44.50688839071924,44.50688839071924 0 0,0 0.11496363793101226,-0.7574667340718643 l 23.209513144994315 3.7272377689204386" fill="#fff116" stroke="none" /><path d="M 79.32604984820605 96.31383870115002 l -25.304112609878786 -4.511718366322136 a46.70318496977437,46.70318496977437 0 0,0 0.14792516854135113,-0.7902221653372051 l 25.222701717427572 4.946618609121914" fill="#f0ff19" stroke="none" /><path d="M 79.3925641242962 95.95851677861259 l -13.435173451553007 -2.63487550845171 a34.69110859712804,34.69110859712804 0 0,0 0.1199663205625154,-0.5849983842343864 l 13.387827835075498 2.865749548849499" fill="#ff6209" stroke="none" /><path d="M 79.46518482838121 95.60439243477599 l -43.663935296417186 -9.34654257719588 a65.65307496373617,65.65307496373617 0 0,0 0.24606026239152545,-1.1030399087323401 l 43.49658064702363 10.096760655478178" fill="#34ff58" stroke="none" /><path d="M 79.54389044137918 95.25157060432595 l -27.92694887404449 -6.482618045478426 a49.66947523302541,49.66947523302541 0 0,0 0.200492491810399,-0.831170815838712 l 27.811223581973277 6.962374092976535" fill="#c9ff1d" stroke="none" /><path d="M 79.62865764111835 94.90015583598534 l -22.771796614894445 -5.700783582382125 a44.47453204055995,44.47453204055995 0 0,0 0.19230717369687564,-0.74103798728731 l 22.67029310932726 6.0919179952182985" fill="#fff016" stroke="none" /><path d="M 79.71946130924805 94.55025226153421 l -22.552058116300802 -6.060146113037117 a44.35210260752483,44.35210260752483 0 0,0 0.20447001360031478,-0.7355874289430543 l 22.444401332134127 6.447444845399114" fill="#ffee16" stroke="none" /><path d="M 80.2630227832202 92.82701384747504 l -12.006319823270733 -4.363442531710942 a33.77463684126511,33.77463684126511 0 0,0 0.20328376770284726,-0.5446994311129952 l 11.929431467066259 4.569465099853279" fill="#ff5407" stroke="none" /><path d="M 80.52162464483688 92.15188598940014 l -20.74468673091053 -8.358328844669723 a43.365233927666694,43.365233927666694 0 0,0 0.2849267535773709,-0.6899727339749654 l 20.597738290446962 8.714176149098" fill="#ffe115" stroke="none" /><path d="M 80.65960295795068 91.81776055985345 l -23.460884316743694 -9.925472188591387 a46.474067030808634,46.474067030808634 0 0,0 0.3180359611295801,-0.7340708470789975 l 23.286557645771435 10.327842180256983" fill="#f3ff19" stroke="none" /><path d="M 80.803312248108 91.48605970444005 l -21.55945130201279 -9.561851688308984 a44.58471853029157,44.58471853029157 0 0,0 0.31718350701269915,-0.6988718134353845 l 21.39166547803674 9.931545510586439" fill="#fff216" stroke="none" /><path d="M 80.95270993114464 91.15688171328213 l -20.43112461172841 -9.485593542128731 a43.52570393453773,43.52570393453773 0 0,0 0.3213477977295196,-0.6768404159241916 l 20.26481862015714 9.835876373693454" fill="#ffe315" stroke="none" /><path d="M 81.10775173730289 90.83032412892265 l -23.17333559275729 -11.24757484035668 a46.7587154626153,46.7587154626153 0 0,0 0.3576818783918847,-0.7210648407939672 l 22.976293701411993 11.64479926964961" fill="#efff19" stroke="none" /><path d="M 81.43458229118936 90.18545643968196 l -26.013721607659214 -13.752063534945062 a50.42503973404219,50.42503973404219 0 0,0 0.41226528185341843,-0.7638649550292615 l 25.773148226587324 14.197809473306796" fill="#bfff1e" stroke="none" /><path d="M 81.6062741919709 89.86733742301443 l -20.522466727144383 -11.305334914952123 a44.43036999507229,44.43036999507229 0 0,0 0.3747857399608153,-0.6667020116736211 l 20.324823345891136 11.656920436560528" fill="#ffef16" stroke="none" /><line stroke="#e1ed5e" stroke-width="0.3" x1="26.266209847984243" x2="21.928928074336255" y1="57.711370442889674" y2="55.22380399835377" /><path d="M 25.398753493254645 57.213857153982495 a86.0,86.0 0 0,1 29.58750427330803,-30.492523968695096" fill="none" id="id11" stroke="none" /><text fill="#e1ed5e" style="font-size:6.75px; font-family:Arial;" text-anchor="middle"><textPath startOffset="21.46611528233685" xlink:href="#id11">November</textPath></text><path d="M 81.78341655067845 89.55222093294921 l -27.926624366649357 -16.016790540497116 a53.193693912536524,53.193693912536524 0 0,0 0.46238067632953855,-0.7903584587455644 l 27.64678401584949 16.49512841159657" fill="#9cff22" stroke="none" /><path d="M 81.96595687620814 89.24020034530311 l -21.347892264533755 -12.736968756240833 a45.85885912980713,45.85885912980713 0 0,0 0.41029310186231643,-0.6744139801543533 l 21.12548336438522 13.10255050960226" fill="#fbff18" stroke="none" /><path d="M 82.34701348167596 88.62581576622439 l -19.707394588250807 -12.69788183329775 a44.44392468230117,44.44392468230117 0 0,0 0.4198963902317966,-0.639531009758501 l 19.485901562661088 13.035230907033917" fill="#fff016" stroke="none" /><path d="M 82.54541684631803 88.32363383020206 l -52.36374946104589 -35.02909850939381 a84.0,84.0 0 0,0 0.8143021373250385,-1.194887906918337 l 51.75302285805211 35.92526443958256" fill="#4dd2ff" stroke="none" /><path d="M 82.7489923806493 88.02491185347247 l -19.731327114658757 -13.69684523128745 a45.01934301756627,45.01934301756627 0 0,0 0.44737946440411774,-0.6327865252980381 l 19.49263503045076 14.034458256917274" fill="#fff817" stroke="none" /><path d="M 83.17141714833178 87.43820079747576 l -21.269937428665752 -15.877075650649182 a47.54226383404011,47.54226383404011 0 0,0 0.4951731884151322,-0.6515898724056008 l 20.993488300026513 16.24085029893581" fill="#e5ff1a" stroke="none" /><path d="M 83.39014120810768 87.1503855733568 l -19.472140837268217 -15.063915049194959 a45.61880999146325,45.61880999146325 0 0,0 0.4858314620357019,-0.6169566198279175 l 19.209955294638544 15.396864062975924" fill="#feff18" stroke="none" /><path d="M 83.6137871275137 86.86637796730984 l -18.688286822673813 -14.978744477293024 a44.950257837496444,44.950257837496444 0 0,0 0.48910484273442345,-0.5995847047848156 l 18.427683487862996 15.298213351685922" fill="#fff717" stroke="none" /><line stroke="#e1ed5e" stroke-width="0.3" x1="56.762969772571076" x2="54.21961505331055" y1="26.818313649435495" y2="22.513508569990535" /><path d="M 56.25429882871897 25.957352633546506 a86.0,86.0 0 0,1 42.265352541879196,-11.944610805530505" fill="none" id="id12" stroke="none" /><text fill="#e1ed5e" style="font-size:6.75px; font-family:Arial;" text-anchor="middle"><textPath startOffset="22.20632615414155" xlink:href="#id12">December</textPath></text></svg>