<?xml version="1.0" encoding="utf-8" ?>
<svg baseProfile="full" height="200mm" version="1.1" viewBox="0,0,200,200" width="200mm" xmlns="http://www.w3.org/2000/svg" xmlns:ev="http://www.w3.org/2001/xml-events" xmlns:xlink="http://www.w3.org/1999/xlink"><defs /><rect fill="#1a1a1a" height="200" width="200" x="0" y="0" /><text alignment-baseline="middle" fill="#e1ed5e" style="dominant-baseline: central; font-size:9.0px; font-family:Arial;" text-anchor="middle" x="100.0" y="100.0">2025</text><line stroke="#e1ed5e" stroke-width="0.3" x1="100.0" x2="100.0" y1="15.0" y2="10.0" /><path d="M 100.0 14.0 a86.0,86.0 0 0,1 42.46469731375804,11.215312516191453" fill="none" id="id37" stroke="none" /><text fill="#e1ed5e" style="font-size:6.75px; font-family:Arial;" text-anchor="middle"><textPath startOffset="22.20632615414155" xlink:href="#id37">January</textPath></text><path d="M 100.0 79.0 l 0.0 -29.59414599321792 a50.59414599321792,50.59414599321792 0 0,0 0.8708950543815565,0.007496068684443365 l -0.5094145751090281 29.589761301142037" fill="red" stroke="none" /><path d="M 100.36148047927253 79.00311137660856 l 0.4810116158015624 -27.939952231634976 a48.944092450472965,48.944092450472965 0 0,0 0.8422424464838516,0.021752637535420494 l -0.9618806974802817 27.927532801957195" fill="red" stroke="none" /><path d="M 101.08401301168833 79.027996857942 l 2.392915676203093 -46.294864119619874 a67.35666607174728,67.35666607174728 0 0,0 1.1573733991582722,0.06981592408688261 l -3.189451124200977 46.24681492615269" fill="red" stroke="none" /><path d="M 101.44485096284872 79.0497635885617 l 3.5528170873903626 -51.51559560210445 a72.63796180617527,72.63796180617527 0 0,0 1.246639717127101,0.09676323508057529 l -4.439046993879805 51.44680710483541" fill="red" stroke="none" /><path d="M 102.16513564639614 79.11191278185805 l 3.4413020701375605 -33.19986805660594 a54.3777440656791,54.3777440656791 0 0,0 0.9302045836389704,0.10451932341099197 l -4.012273357286256 33.135712779724344" fill="red" stroke="none" /><path d="M 102.52436894288641 79.15227682838746 l 3.7433016887331263 -30.914386573503982 a52.14019275388185,52.14019275388185 0 0,0 0.8900710073823128,0.11555676196718048 l -4.2748874246232855 30.845371488372663" fill="red" stroke="none" /><path d="M 102.88285421437855 79.19881850522331 l 4.171468952895623 -30.09915741011992 a51.386846332321966,51.386846332321966 0 0,0 0.8751204879230616,0.12897001158505 l -4.6889584212473405 30.0228929143739" fill="red" stroke="none" /><path d="M 103.2404852339499 79.25152402106235 l 4.799827780402829 -30.732777412885838 a52.10533642691416,52.10533642691416 0 0,0 0.8849738908470695,0.14602827473866678 l -5.328130877388774 30.645602875207548" fill="red" stroke="none" /><path d="M 103.59715602781102 79.31037775812273 l 5.347679940577574 -30.758042460655552 a52.21946278779226,52.21946278779226 0 0,0 0.8842617019392591,0.1615931739708429 l -5.876336763619734 30.66143380533397" fill="red" stroke="none" /><path d="M 103.95276090670814 79.375362276772 l 5.794748900178577 -30.23572626425038 a51.78600749598429,51.78600749598429 0 0,0 0.8740333607697178,0.17532286969145325 l -6.31434867041542 30.13149943848172" fill="red" stroke="none" /><path d="M 104.307194497241 79.44645832069477 l 6.212876303177189 -29.647282500828986 a51.29127253257184,51.29127253257184 0 0,0 0.8625660039191452,0.18852351928574188 l -6.722285031249862 29.53594548344737" fill="red" stroke="none" /><path d="M 104.66035177308747 79.52364482259891 l 6.760712347315655 -29.70478496393924 a51.4644297697662,51.4644297697662 0 0,0 0.8620936836659284,0.20402972179391476 l -7.271029717944107 29.584009330004456" fill="red" stroke="none" /><path d="M 105.36241919743992 79.69619591428918 l 7.817092186480427 -29.5979673409368 a51.61285025878993,51.61285025878993 0 0,0 0.8570242775438377,0.23425710933237118 l -8.325414353247975 29.459023690778135" fill="red" stroke="none" /><path d="M 105.71112130821622 79.79150937346287 l 8.18291662722823 -28.95480327500268 a51.088880956630376,51.088880956630376 0 0,0 0.844206736072098,0.24644709593238492 l -8.680113581023756 28.80965785015159" fill="red" stroke="none" /><path d="M 106.40334571778207 80.00007090966166 l 13.703651258266488 -42.80138313990425 a65.94161163662324,65.94161163662324 0 0,0 1.0780422858986691,0.35541359226158076 l -14.438376366407576 42.559155823383435" fill="red" stroke="none" /><path d="M 107.08798089147638 80.2323363322302 l 10.33215847423404 -28.815347672052425 a51.611725861145814,51.611725861145814 0 0,0 0.8336956956895835,0.30705716056987425 l -10.8266364956962 28.633227243676227" fill="red" stroke="none" /><path d="M 107.4271985657038 80.35727306442388 l 10.721253257078773 -28.354519981249265 a51.313760485454225,51.313760485454225 0 0,0 0.823504816703473,0.3195070749660046 l -11.207741238781914 28.16577020239271" fill="red" stroke="none" /><path d="M 107.76421540070413 80.48803036053334 l 10.885560249907433 -27.356108781515328 a50.44235231126183,50.44235231126183 0 0,0 0.8039937606897533,0.32796924206644623 l -11.354837880185574 27.1646786532653" fill="red" stroke="none" /><path d="M 108.09893153111575 80.62456947434976 l 10.845312025336687 -25.94571751453752 a49.121185079421736,49.121185079421736 0 0,0 0.7773222684990413,0.33280882857748767 l -11.290318051626043 25.755189157997243" fill="red" stroke="none" /><path d="M 108.76106565485865 80.91482961587045 l 20.14278917827756 -43.87920130079547 a69.28163483847939,69.28163483847939 0 0,0 1.0795457369493007,0.5068611986256552 l -20.89511312652646 43.52597511952982" fill="red" stroke="none" /><path d="M 109.73455568895987 81.39251694778311 l 12.508374158567019 -23.90960282145068 a47.98385686239514,47.98385686239514 0 0,0 0.7285662117738658,0.38917483848384216 l -12.918085416869197 23.690749256465082" fill="red" stroke="none" /><path d="M 110.05341064243156 81.56283822128135 l 17.470111140466685 -32.03880522193363 a57.49232553988934,57.49232553988934 0 0,0 0.8647828905371261,0.4812507423033411 l -18.01901812007585 31.73333908207011" fill="red" stroke="none" /><line stroke="#e1ed5e" stroke-width="0.3" x1="143.23703022742887" x2="145.7803849466894" y1="26.81831364943548" y2="22.513508569990506" /><path d="M 143.74570117128098 25.957352633546492 a86.0,86.0 0 0,1 28.547481713284135,27.462654790039103" fill="none" id="id38" stroke="none" /><text fill="#e1ed5e" style="font-size:6.75px; font-family:Arial;" text-anchor="middle"><textPath startOffset="19.985693538727396" xlink:href="#id38">February</textPath></text><path d="M 110.68208982089419 81.91981866633111 l 31.39710801631198 -53.14179302044011 a82.72380867392468,82.72380867392468 0 0,0 1.2197347234476912,0.7348765231722627 l -32.30720480597731 52.593469887809235" fill="red" stroke="none" /><path d="M 111.2981086023043 82.29822771554956 l 16.241510020112447 -25.447048001734835 a51.18839014813493,51.18839014813493 0 0,0 0.7386557196144752,0.4804422270828196 l -16.677132765511203 25.16370685049249" fill="red" stroke="none" /><path d="M 111.60114157652 82.49532879139004 l 16.945161995759378 -25.568129425533463 a51.673567731572376,51.673567731572376 0 0,0 0.7371980150306993,0.49775939052975826 l -17.382764705196617 25.272658122705035" fill="red" stroke="none" /><path d="M 112.19680574252982 82.90503203632743 l 21.722417423546464 -30.44600674865113 a58.400838836337684,58.400838836337684 0 0,0 0.8133142307883099,0.5909073772996707 l -22.243276970688562 30.067580136534783" fill="red" stroke="none" /><path d="M 112.48926042617603 83.11751280151076 l 17.981258338193488 -24.306352285763516 a51.23449045154381,51.23449045154381 0 0,0 0.7044836275291751,0.5306024627777071 l -18.396988119481044 23.993233233479963" fill="red" stroke="none" /><path d="M 112.77801427241765 83.33499621200491 l 38.33404281725294 -49.995011363985284 a84.0,84.0 0 0,0 1.1398697793622787,0.8896864431071037 l -39.188945151774654 49.32774653165496" fill="red" stroke="none" /><path d="M 113.34407831869373 83.78471172551755 l 19.15052667580442 -23.271094731309493 a51.13779225414956,51.13779225414956 0 0,0 0.6748787476089514,0.5651915426487344 l -19.54826296037249 22.938002031266937" fill="red" stroke="none" /><line stroke="#e1ed5e" stroke-width="0.3" x1="172.23445277983987" x2="176.4835382374775" y1="55.19839476539836" y2="52.563006222186495" /><path d="M 173.08426987136738 54.67131705675599 a86.0,86.0 0 0,1 12.851231095245387,41.99856678651699" fill="none" id="id39" stroke="none" /><text fill="#e1ed5e" style="font-size:6.75px; font-family:Arial;" text-anchor="middle"><textPath startOffset="22.20632615414155" xlink:href="#id39">March</textPath></text><line stroke="#e1ed5e" stroke-width="0.3" x1="184.98032266829074" x2="189.97916517819016" y1="98.17113171792111" y2="98.06355123074" /><path d="M 185.9800911702706 98.14961562048488 a86.0,86.0 0 0,1 -9.607161424134198,41.387399972396054" fill="none" id="id40" stroke="none" /><text fill="#e1ed5e" style="font-size:6.75px; font-family:Arial;" text-anchor="middle"><textPath startOffset="21.466115282336823" xlink:href="#id40">April</textPath></text><line stroke="#e1ed5e" stroke-width="0.3" x1="174.80103733775053" x2="179.2010983576182" y1="140.37084112569926" y2="142.7455964860345" /><path d="M 175.68104954172406 140.8457921977663 a86.0,86.0 0 0,1 -30.038265399797805,32.042727171017184" fill="none" id="id41" stroke="none" /><text fill="#e1ed5e" style="font-size:6.75px; font-family:Arial;" text-anchor="middle"><textPath startOffset="22.206326154141568" xlink:href="#id41">May</textPath></text><line stroke="#e1ed5e" stroke-width="0.3" x1="143.8653032363475" x2="146.44561519142675" y1="172.8068346515853" y2="177.08958963109032" /><path d="M 144.38136562736335 173.6633856474863 a86.0,86.0 0 0,1 -40.68145358897372,12.25698825130547" fill="none" id="id42" stroke="none" /><text fill="#e1ed5e" style="font-size:6.75px; font-family:Arial;" text-anchor="middle"><textPath startOffset="21.466115282336833" xlink:href="#id42">June</textPath></text><line stroke="#e1ed5e" stroke-width="0.3" x1="102.19456741930631" x2="102.32365962044197" y1="184.97166512339345" y2="189.96999836594603" /><path d="M 102.22038585953345 185.97133177190398 a86.0,86.0 0 0,1 -42.740103519485714,-10.115201625700543" fill="none" id="id43" stroke="none" /><text fill="#e1ed5e" style="font-size:6.75px; font-family:Arial;" text-anchor="middle"><textPath startOffset="22.20632615414155" xlink:href="#id43">July</textPath></text><line stroke="#e1ed5e" stroke-width="0.3" x1="58.666819895761336" x2="56.23545636021788" y1="174.27360380694188" y2="178.64263932499728" /><path d="M 58.180547188652646 175.14741091055294 a86.0,86.0 0 0,1 -31.652253787137756,-30.449443065178592" fill="none" id="id44" stroke="none" /><text fill="#e1ed5e" style="font-size:6.75px; font-family:Arial;" text-anchor="middle"><textPath startOffset="22.20632615414155" xlink:href="#id44">August</textPath></text><line stroke="#e1ed5e" stroke-width="0.3" x1="26.63291911575756" x2="22.317208475507996" y1="142.92168965132927" y2="145.44649492493687" /><path d="M 25.769776987707644 143.4266507060508 a86.0,86.0 0 0,1 -11.730757126820373,-40.83630448921669" fill="none" id="id45" stroke="none" /><text fill="#e1ed5e" style="font-size:6.75px; font-family:Arial;" text-anchor="middle"><textPath startOffset="21.46611528233685" xlink:href="#id45">September</textPath></text><line stroke="#e1ed5e" stroke-width="0.3" x1="15.007084014347285" x2="10.007500721073583" y1="101.09737516637583" y2="101.16192664675087" /><path d="M 14.007167355692545 101.11028546245083 a86.0,86.0 0 0,1 10.666146001902534,-42.60595125391555" fill="none" id="id46" stroke="none" /><text fill="#e1ed5e" style="font-size:6.75px; font-family:Arial;" text-anchor="middle"><textPath startOffset="22.20632615414155" xlink:href="#id46">October</textPath></text><line stroke="#e1ed5e" stroke-width="0.3" x1="26.266209847984243" x2="21.928928074336255" y1="57.711370442889674" y2="55.22380399835377" /><path d="M 25.398753493254645 57.213857153982495 a86.0,86.0 0 0,1 29.58750427330803,-30.492523968695096" fill="none" id="id47" stroke="none" /><text fill="#e1ed5e" style="font-size:6.75px; font-family:Arial;" text-anchor="middle"><textPath startOffset="21.46611528233685" xlink:href="#id47">November</textPath></text><line stroke="#e1ed5e" stroke-width="0.3" x1="56.762969772571076" x2="54.21961505331055" y1="26.818313649435495" y2="22.513508569990535" /><path d="M 56.25429882871897 25.957352633546506 a86.0,86.0 0 0,1 42.265352541879196,-11.944610805530505" fill="none" id="id48" stroke="none" /><text fill="#e1ed5e" style="font-size:6.75px; font-family:Arial;" text-anchor="middle"><textPath startOffset="22.20632615414155" xlink:href="#id48">December</textPath></text></svg>