<?xml version="1.0" encoding="utf-8" ?>
<svg baseProfile="full" height="200mm" version="1.1" viewBox="0,0,200,200" width="200mm" xmlns="http://www.w3.org/2000/svg" xmlns:ev="http://www.w3.org/2001/xml-events" xmlns:xlink="http://www.w3.org/1999/xlink"><defs /><rect fill="#1a1a1a" height="200" width="200" x="0" y="0" /><text alignment-baseline="middle" fill="#e1ed5e" style="dominant-baseline: central; font-size:9.0px; font-family:Arial;" text-anchor="middle" x="100.0" y="100.0">2025</text><line stroke="#e1ed5e" stroke-width="0.3" x1="100.0" x2="100.0" y1="15.0" y2="10.0" /><path d="M 100.0 14.0 a86.0,86.0 0 0,1 42.46469731375804,11.215312516191453" fill="none" id="id37" stroke="none" /><text fill="#e1ed5e" style="font-size:6.75px; font-family:Arial;" text-anchor="middle"><textPath startOffset="22.20632615414155" xlink:href="#id37">January</textPath></text><path d="M 100.0 79.0 l 0.0 -21.076072449952335 a42.076072449952335,42.076072449952335 0 0,0 0.7242704207197332,0.006234024171467141 l -0.36278994144720483 21.072949802389427" fill="red" stroke="none" /><path d="M 100.36148047927253 79.00311137660856 l 0.3425621968015448 -19.89800474786791 a40.90095328884652,40.90095328884652 0 0,0 0.703834053034667,0.01817795707716398 l -0.6850228850310796 19.889159998648385" fill="red" stroke="none" /><path d="M 101.08401301168833 79.027996857942 l 1.704163525105298 -32.96982823797015 a54.013841754051484,54.013841754051484 0 0,0 0.9281068568015886,0.0559859401521582 l -2.2714324307464984 32.93560902843769" fill="red" stroke="none" /><path d="M 101.44485096284872 79.0497635885617 l 2.530210885369965 -36.687878253395766 a57.775023832221166,57.775023832221166 0 0,0 0.9915564475693837,0.07696386398864766 l -3.16135752230169 36.638889127218654" fill="red" stroke="none" /><path d="M 102.16513564639614 79.11191278185805 l 2.450793199743343 -23.643960689057906 a44.77063870352717,44.77063870352717 0 0,0 0.7658621013068164,0.08605353065619478 l -2.8574220045598846 23.59827120493111" fill="red" stroke="none" /><path d="M 102.52436894288641 79.15227682838746 l 2.6658683650424795 -22.016308607733436 a43.17712106768351,43.17712106768351 0 0,0 0.7370648556284819,0.0956921721635748 l -3.0444479491788075 21.967158112405727" fill="red" stroke="none" /><path d="M 102.88285421437855 79.19881850522331 l 2.9707963829773343 -21.43572659280609 a42.64061010486177,42.64061010486177 0 0,0 0.7261716603307561,0.10701882625084473 l -3.339337023736746 21.381413282394277" fill="red" stroke="none" /><path d="M 103.2404852339499 79.25152402106235 l 3.418294890828986 -21.88697195353026 a43.152297426120114,43.152297426120114 0 0,0 0.7329125799955064,0.12093685553657069 l -3.7945366769633675 21.824888835054065" fill="red" stroke="none" /><path d="M 103.59715602781102 79.31037775812273 l 3.808458939568624 -21.904964970709003 a43.23357483317446,43.23357483317446 0 0,0 0.7320985782304608,0.13378633571526985 l -4.1849526389019855 21.836163153642996" fill="red" stroke="none" /><path d="M 103.95276090670814 79.375362276772 l 4.12684818401024 -21.532986877482667 a42.92488083889418,42.92488083889418 0 0,0 0.724477125663098,0.14532329588107712 l -4.496891719140463 21.45875962552438" fill="red" stroke="none" /><path d="M 104.307194497241 79.44645832069477 l 4.4246261107978135 -21.113914693631372 a42.572545281220215,42.572545281220215 0 0,0 0.7159430532079195,0.15647742130535913 l -4.78741188815926 21.034623774230145" fill="red" stroke="none" /><path d="M 104.66035177308747 79.52364482259891 l 4.814778682174722 -21.154866241239475 a42.695862726406105,42.695862726406105 0 0,0 0.7152091986594932,0.16926690984026788 l -5.178211567796739 21.06885341925834" fill="red" stroke="none" /><path d="M 105.36241919743992 79.69619591428918 l 5.567101051267852 -21.078793900383715 a42.80156339370829,42.80156339370829 0 0,0 0.7107140714243444,0.1942650030998581 l -5.9291130119159074 20.979842356457564" fill="red" stroke="none" /><path d="M 105.71112130821622 79.79150937346287 l 5.827630360643124 -20.620751541129966 a42.42840800762631,42.42840800762631 0 0,0 0.7010986964318098,0.20466993488055274 l -6.181719274798361 20.51738327733071" fill="red" stroke="none" /><path d="M 106.40334571778207 80.00007090966166 l 9.759333714657405 -30.481874767446268 a53.0060819828408,53.0060819828408 0 0,0 0.8665665938255213,0.285693381487969 l -10.282583130725344 30.309367661699063" fill="red" stroke="none" /><path d="M 107.08798089147638 80.2323363322302 l 7.358256616604174 -20.521435399619925 a42.80076263107722,42.80076263107722 0 0,0 0.6913702454701922,0.25463749612018854 l -7.710409187846943 20.391734635693414" fill="red" stroke="none" /><path d="M 107.4271985657038 80.35727306442388 l 7.63535837297901 -20.19324759516233 a42.58856053384176,42.58856053384176 0 0,0 0.6834791370635924,0.2651792866951866 l -7.98182067504227 20.058825604576597" fill="red" stroke="none" /><path d="M 107.76421540070413 80.48803036053334 l 7.752372936794579 -19.48220877061714 a41.967969494756915,41.967969494756915 0 0,0 0.6689217309770301,0.27286996968993743 l -8.086578537359996 19.345877914743628" fill="red" stroke="none" /><path d="M 108.09893153111575 80.62456947434976 l 7.7237093457847426 -18.477769969361773 a41.02707340324118,41.02707340324118 0 0,0 0.6492363267726673,0.27796911286278025 l -8.040629430347725 18.342081328536203" fill="red" stroke="none" /><path d="M 108.76106565485865 80.91482961587045 l 14.345096633732338 -31.24946487300375 a55.38474737845567,55.38474737845567 0 0,0 0.8630045763761032,0.4051922202365757 l -14.88087942140804 30.997907670127173" fill="red" stroke="none" /><path d="M 109.73455568895987 81.39251694778311 l 8.90809283895151 -17.027709514914285 a40.217102001906575,40.217102001906575 0 0,0 0.6106391517897184,0.3261822871130277 l -9.19987703726954 16.871848501299503" fill="red" stroke="none" /><path d="M 110.05341064243156 81.56283822128135 l 12.441694657773734 -22.817086197457154 a46.98875119161106,46.98875119161106 0 0,0 0.7067911707627448,0.3933285213029034 l -12.832609917608513 22.59954227859407" fill="red" stroke="none" /><line stroke="#e1ed5e" stroke-width="0.3" x1="143.23703022742887" x2="145.7803849466894" y1="26.81831364943548" y2="22.513508569990506" /><path d="M 143.74570117128098 25.957352633546492 a86.0,86.0 0 0,1 28.547481713284135,27.462654790039103" fill="none" id="id38" stroke="none" /><text fill="#e1ed5e" style="font-size:6.75px; font-family:Arial;" text-anchor="middle"><textPath startOffset="19.985693538727396" xlink:href="#id38">February</textPath></text><path d="M 110.68208982089419 81.91981866633111 l 22.360088492582904 -37.84600779072461 a64.95786463298379,64.95786463298379 0 0,0 0.9577818565653095,0.5770528518862605 l -23.00823241536585 37.45550832937974" fill="red" stroke="none" /><path d="M 111.2981086023043 82.29822771554956 l 11.566721403583099 -18.1226323423858 a42.49927550047664,42.49927550047664 0 0,0 0.6132705646153672,0.3988882344564076 l -11.876958993982745 17.920845183769863" fill="red" stroke="none" /><path d="M 111.60114157652 82.49532879139004 l 12.067841456910044 -18.208862938832407 a42.84480457578646,42.84480457578646 0 0,0 0.6112429676178447,0.4127139802653825 l -12.379489118934432 17.998437046268354" fill="red" stroke="none" /><path d="M 112.19680574252982 82.90503203632743 l 15.470060988132293 -21.682742397545884 a47.63576739752145,47.63576739752145 0 0,0 0.6633953944993639,0.4819849669866786 l -15.841001698985444 21.41323819574253" fill="red" stroke="none" /><path d="M 112.48926042617603 83.11751280151076 l 12.805718521626705 -17.310262708246963 a42.53210676835081,42.53210676835081 0 0,0 0.5848242580057338,0.44047750645154127 l -13.101788933390822 17.087268612289574" fill="red" stroke="none" /><path d="M 112.77801427241765 83.33499621200491 l 27.300367576112894 -35.604963288517254 a65.86673021925643,65.86673021925643 0 0,0 0.8938035147897447,0.6976278205698265 l -27.909203646062068 35.129757078724204" fill="red" stroke="none" /><path d="M 113.34407831869373 83.78471172551755 l 13.63843672888874 -16.57298300343528 a42.463241182078164,42.463241182078164 0 0,0 0.5603984404714373,0.4693175776984499 l -13.921692706319295 16.33576426834301" fill="red" stroke="none" /><path d="M 113.89432698308785 84.25364557470407 l 14.15393499916842 -16.04056657661701 a42.39237368922784,42.39237368922784 0 0,0 0.5430039396251015,0.4875142984081371 l -14.42794992638951 15.794553269439575" fill="red" stroke="none" /><path d="M 114.16331599549186 84.49514656593476 l 14.511660659632643 -15.886193013282472 a42.5164918970448,42.5164918970448 0 0,0 0.5360967553827496,0.4982435081932111 l -14.78296529881024 15.634044919014622" fill="red" stroke="none" /><path d="M 114.68862486808459 84.99185889309783 l 35.95842579717944 -36.740616170185696 a72.4089609151573,72.4089609151573 0 0,0 0.8832658825498517,0.8794728581492095 l -36.58552747989661 36.116207461386374" fill="red" stroke="none" /><path d="M 115.19652480421416 85.50635884689758 l 13.003241815312329 -12.401803907554557 a38.96911344137274,38.96911344137274 0 0,0 0.4587827750736863,0.4893974767446888 l -13.214791912356477 12.176137013931813" fill="red" stroke="none" /><path d="M 115.68641384162765 86.03803664274999 l 16.132033605670088 -14.358594918781048 a42.59656816015253,42.59656816015253 0 0,0 0.4827776097989081,0.5518982645484917 l -16.376803079046844 14.078781098029609" fill="red" stroke="none" /><path d="M 115.9244219780498 86.31012108654704 l 16.429935087553204 -14.124457529104044 a42.66663489037178,42.66663489037178 0 0,0 0.4739844322925711,0.5610480654485083 l -16.670630133332892 13.83955051402643" fill="red" stroke="none" /><path d="M 116.15771136456269 86.58626213691792 l 24.721760476761798 -20.523402545516422 a53.13060057197331,53.13060057197331 0 0,0 0.5781153498848531,0.7087010618304103 l -25.07137431872306 20.09481731407791" fill="red" stroke="none" /><path d="M 116.38621287248628 86.86637796730983 l 13.840023455693851 -11.092839962786933 a38.736892278360344,38.736892278360344 0 0,0 0.41254037564411783,0.5238843829369597 l -14.028917911931932 10.852963185896934" fill="red" stroke="none" /><path d="M 116.60985879189232 87.15038557335679 l 16.333713951729692 -12.635984993277477 a41.65086749285034,41.65086749285034 0 0,0 0.4338117538677964,0.570845417247814 l -16.5488016458216 12.352954800148629" fill="red" stroke="none" /><line stroke="#e1ed5e" stroke-width="0.3" x1="172.23445277983987" x2="176.4835382374775" y1="55.19839476539836" y2="52.563006222186495" /><path d="M 173.08426987136738 54.67131705675599 a86.0,86.0 0 0,1 12.851231095245387,41.99856678651699" fill="none" id="id39" stroke="none" /><text fill="#e1ed5e" style="font-size:6.75px; font-family:Arial;" text-anchor="middle"><textPath startOffset="22.20632615414155" xlink:href="#id39">March</textPath></text><path d="M 117.84615892207809 88.93136811851018 l 9.003038419031194 -5.583908476343576 a31.594089609151574,31.594089609151574 0 0,0 0.2826681097661405,0.4646320498804424 l -9.09782232708356 5.428108653256053" fill="red" stroke="none" /><path d="M 118.03404312379186 89.2402003453031 l 31.48204111535997 -18.783389437242278 a57.65971401334605,57.65971401334605 0 0,0 0.5012010936163818,0.8567151357119319 l -31.80070188344668 18.23869488917645" fill="red" stroke="none" /><path d="M 118.3937258080291 89.86733742301442 l 18.721621587447732 -10.313292500903254 a42.3743565300286,42.3743565300286 0 0,0 0.34644446747786034,0.6419089824405955 l -18.896374154144056 9.9895025351302" fill="red" stroke="none" /><path d="M 118.73160827565052 90.50648371742162 l 23.701823573500434 -12.01251086989285 a47.57210676835081,47.57210676835081 0 0,0 0.3639039340498552,0.7336081253254579 l -23.9050875205037 11.602743156068442" fill="red" stroke="none" /><path d="M 118.89224826269711 90.83032412892265 l 18.94627757136069 -9.19589992027966 a42.06005719733079,42.06005719733079 0 0,0 0.31052701119015275,0.6540490798276689 l -19.101762776392597 8.86840842481145" fill="red" stroke="none" /><path d="M 119.04729006885535 91.15688171328212 l 32.96325108770258 -15.303905565021584 a57.34261201143946,57.34261201143946 0 0,0 0.40794539875137165,0.8988536109368879 l -33.2217988034173 14.734229945242634" fill="red" stroke="none" /><path d="M 119.196687751892 91.48605970444005 l 19.16960376917247 -8.501928253960871 a41.97037178265015,41.97037178265015 0 0,0 0.287215825548735,0.6629337248725411 l -19.313110304563885 8.170695384501728" fill="red" stroke="none" /><path d="M 119.47837535516314 92.15188598940014 l 32.95540570099478 -13.278200901823276 a56.529837940896094,56.529837940896094 0 0,0 0.35588615237755417,0.9056914394425969 l -33.179085403254035 12.708960457484894" fill="red" stroke="none" /><path d="M 119.7369772167798 92.82701384747503 l 42.664985259075195 -15.505684842197917 a66.39523355576739,66.39523355576739 0 0,0 0.38113051686004346,1.0775072947507054 l -42.925568856745045 14.768979921020597" fill="red" stroke="none" /><path d="M 119.97218684219823 93.5106431181261 l 37.39692030071092 -12.1509959841532 a60.32144899904671,60.32144899904671 0 0,0 0.3123631804667694,0.9902766430161237 l -37.60053896494589 11.505469174710656" fill="red" stroke="none" /><path d="M 120.08093135843002 93.85539295169968 l 56.52523747871511 -17.29627806694106 a80.11229742612011,80.11229742612011 0 0,0 0.39214627353516657,1.3221222880054686 l -56.81458964936198 16.32072639218906" fill="red" stroke="none" /><path d="M 120.28053869075195 94.5502522615342 l 33.914319324420475 -9.11339130869085 a56.11744518589133,56.11744518589133 0 0,0 0.24265094614029314,0.9350330790290396 l -34.06616660243107 8.52826180411296" fill="red" stroke="none" /><path d="M 120.45610955862082 95.25157060432595 l 45.94219900241864 -10.664456387458847 a68.16371782650143,68.16371782650143 0 0,0 0.25546986646452063,1.1452213187536187 l -46.1189632558852 9.872056899155263" fill="red" stroke="none" /><path d="M 120.6074358757038 95.95851677861258 l 38.48031019383088 -7.546670480508768 a60.21334604385129,60.21334604385129 0 0,0 0.19071652967009078,1.018815327557773 l -38.60451244741083 6.883177075488432" fill="red" stroke="none" /><path d="M 120.67395015179393 96.31383870115 l 62.02185045538181 -11.058483896549978 a84.0,84.0 0 0,0 0.2415525539191079,1.4256568467366484 l -62.20301487082114 9.98924126149749" fill="red" stroke="none" /><path d="M 120.78858239683441 97.02765380044208 l 34.638653383964666 -4.9526258105655705 a55.990924690181124,55.990924690181124 0 0,0 0.12820322264549008,0.9552629203490768 l -34.71877260566799 4.3556445481518296" fill="red" stroke="none" /><line stroke="#e1ed5e" stroke-width="0.3" x1="184.98032266829074" x2="189.97916517819016" y1="98.17113171792111" y2="98.06355123074" /><path d="M 185.9800911702706 98.14961562048488 a86.0,86.0 0 0,1 -9.607161424134198,41.387399972396054" fill="none" id="id40" stroke="none" /><text fill="#e1ed5e" style="font-size:6.75px; font-family:Arial;" text-anchor="middle"><textPath startOffset="21.466115282336823" xlink:href="#id40">April</textPath></text><line stroke="#e1ed5e" stroke-width="0.3" x1="174.80103733775053" x2="179.2010983576182" y1="140.37084112569926" y2="142.7455964860345" /><path d="M 175.68104954172406 140.8457921977663 a86.0,86.0 0 0,1 -30.038265399797805,32.042727171017184" fill="none" id="id41" stroke="none" /><text fill="#e1ed5e" style="font-size:6.75px; font-family:Arial;" text-anchor="middle"><textPath startOffset="22.206326154141568" xlink:href="#id41">May</textPath></text><line stroke="#e1ed5e" stroke-width="0.3" x1="143.8653032363475" x2="146.44561519142675" y1="172.8068346515853" y2="177.08958963109032" /><path d="M 144.38136562736335 173.6633856474863 a86.0,86.0 0 0,1 -40.68145358897372,12.25698825130547" fill="none" id="id42" stroke="none" /><text fill="#e1ed5e" style="font-size:6.75px; font-family:Arial;" text-anchor="middle"><textPath startOffset="21.466115282336833" xlink:href="#id42">June</textPath></text><line stroke="#e1ed5e" stroke-width="0.3" x1="102.19456741930631" x2="102.32365962044197" y1="184.97166512339345" y2="189.96999836594603" /><path d="M 102.22038585953345 185.97133177190398 a86.0,86.0 0 0,1 -42.740103519485714,-10.115201625700543" fill="none" id="id43" stroke="none" /><text fill="#e1ed5e" style="font-size:6.75px; font-family:Arial;" text-anchor="middle"><textPath startOffset="22.20632615414155" xlink:href="#id43">July</textPath></text><line stroke="#e1ed5e" stroke-width="0.3" x1="58.666819895761336" x2="56.23545636021788" y1="174.27360380694188" y2="178.64263932499728" /><path d="M 58.180547188652646 175.14741091055294 a86.0,86.0 0 0,1 -31.652253787137756,-30.449443065178592" fill="none" id="id44" stroke="none" /><text fill="#e1ed5e" style="font-size:6.75px; font-family:Arial;" text-anchor="middle"><textPath startOffset="22.20632615414155" xlink:href="#id44">August</textPath></text><line stroke="#e1ed5e" stroke-width="0.3" x1="26.63291911575756" x2="22.317208475507996" y1="142.92168965132927" y2="145.44649492493687" /><path d="M 25.769776987707644 143.4266507060508 a86.0,86.0 0 0,1 -11.730757126820373,-40.83630448921669" fill="none" id="id45" stroke="none" /><text fill="#e1ed5e" style="font-size:6.75px; font-family:Arial;" text-anchor="middle"><textPath startOffset="21.46611528233685" xlink:href="#id45">September</textPath></text><line stroke="#e1ed5e" stroke-width="0.3" x1="15.007084014347285" x2="10.007500721073583" y1="101.09737516637583" y2="101.16192664675087" /><path d="M 14.007167355692545 101.11028546245083 a86.0,86.0 0 0,1 10.666146001902534,-42.60595125391555" fill="none" id="id46" stroke="none" /><text fill="#e1ed5e" style="font-size:6.75px; font-family:Arial;" text-anchor="middle"><textPath startOffset="22.20632615414155" xlink:href="#id46">October</textPath></text><line stroke="#e1ed5e" stroke-width="0.3" x1="26.266209847984243" x2="21.928928074336255" y1="57.711370442889674" y2="55.22380399835377" /><path d="M 25.398753493254645 57.213857153982495 a86.0,86.0 0 0,1 29.58750427330803,-30.492523968695096" fill="none" id="id47" stroke="none" /><text fill="#e1ed5e" style="font-size:6.75px; font-family:Arial;" text-anchor="middle"><textPath startOffset="21.46611528233685" xlink:href="#id47">November</textPath></text><line stroke="#e1ed5e" stroke-width="0.3" x1="56.762969772571076" x2="54.21961505331055" y1="26.818313649435495" y2="22.513508569990535" /><path d="M 56.25429882871897 25.957352633546506 a86.0,86.0 0 0,1 42.265352541879196,-11.944610805530505" fill="none" id="id48" stroke="none" /><text fill="#e1ed5e" style="font-size:6.75px; font-family:Arial;" text-anchor="middle"><textPath startOffset="22.20632615414155" xlink:href="#id48">December</textPath></text></svg>