<?xml version="1.0" encoding="utf-8" ?>
<svg baseProfile="full" height="200mm" version="1.1" viewBox="0,0,200,200" width="200mm" xmlns="http://www.w3.org/2000/svg" xmlns:ev="http://www.w3.org/2001/xml-events" xmlns:xlink="http://www.w3.org/1999/xlink"><defs /><rect fill="#1a1a1a" height="200" width="200" x="0" y="0" /><text alignment-baseline="middle" fill="#e1ed5e" style="dominant-baseline: central; font-size:9.0px; font-family:Arial;" text-anchor="middle" x="100.0" y="100.0">2025</text><line stroke="#e1ed5e" stroke-width="0.3" x1="100.0" x2="100.0" y1="15.0" y2="10.0" /><path d="M 100.0 14.0 a86.0,86.0 0 0,1 42.46469731375804,11.215312516191453" fill="none" id="id37" stroke="none" /><text fill="#e1ed5e" style="font-size:6.75px; font-family:Arial;" text-anchor="middle"><textPath startOffset="22.20632615414155" xlink:href="#id37">January</textPath></text><path d="M 100.0 79.0 l 0.0 -17.858577590617074 a38.858577590617074,38.858577590617074 0 0,0 0.6688865357764281,0.00575731758844361 l -0.30740605650389974 17.85593164963719" fill="red" stroke="none" /><path d="M 100.36148047927253 79.00311137660856 l 0.29026630012398047 -16.860354913472953 a37.86285332715846,37.86285332715846 0 0,0 0.651553652759926,0.01682770858027237 l -0.5804465880787744 16.85286041275032" fill="red" stroke="none" /><path d="M 101.08401301168833 79.027996857942 l 1.4440041716719991 -27.93662040853533 a48.97391477606234,48.97391477606234 0 0,0 0.841507003242752,0.05076200049154735 l -1.924673223754363 27.907625138663477" fill="red" stroke="none" /><path d="M 101.44485096284872 79.0497635885617 l 2.143946293803219 -31.087069091227324 a52.16091093651554,52.16091093651554 0 0,0 0.895204953967493,0.06948513368856551 l -2.6787414371330533 31.045558695350294" fill="red" stroke="none" /><path d="M 102.16513564639614 79.11191278185805 l 2.076652593603708 -20.034449374650702 a41.14178859336884,41.14178859336884 0 0,0 0.7037857304715176,0.07907852709930686 l -2.421205027584951 19.995734894080794" fill="red" stroke="none" /><path d="M 102.52436894288641 79.15227682838746 l 2.258894163347321 -18.65527633119649 a39.79153899590197,39.79153899590197 0 0,0 0.679270507620788,0.088188807083282 l -2.5796793994759555 18.61362920094907" fill="red" stroke="none" /><path d="M 102.88285421437855 79.19881850522331 l 2.5172715569899866 -18.16332656276037 a39.3369323475086,39.3369323475086 0 0,0 0.6699098677261186,0.09872730051907178 l -2.829550405144761 18.11730477808033" fill="red" stroke="none" /><path d="M 103.2404852339499 79.25152402106235 l 2.896454483179451 -18.545684343415882 a39.77050495694645,39.77050495694645 0 0,0 0.6754751226310425,0.11145918292830859 l -3.2152588119493686 18.49307889754795" fill="red" stroke="none" /><path d="M 103.59715602781102 79.31037775812273 l 3.227055687651107 -18.560930528118416 a39.83937447159113,39.83937447159113 0 0,0 0.6746226635383974,0.12328297968209642 l -3.5460734722924054 18.502632067085578" fill="red" stroke="none" /><path d="M 103.95276090670814 79.375362276772 l 3.496839303141165 -18.2457389925196 a39.57780601941852,39.57780601941852 0 0,0 0.6679858996607678,0.13399168738687178 l -3.810391612269058 18.18284334905552" fill="red" stroke="none" /><path d="M 104.307194497241 79.44645832069477 l 3.7491581458922 -17.890642798522855 a39.27925836972735,39.27925836972735 0 0,0 0.6605598039582213,0.1443727881403692 l -4.056560674003949 17.82345651228661" fill="red" stroke="none" /><path d="M 104.66035177308747 79.52364482259891 l 4.079749625147105 -17.925342640827527 a39.383750047119264,39.383750047119264 0 0,0 0.6597271611983407,0.15613610412594933 l -4.38770047330797 17.85246062456071" fill="red" stroke="none" /><path d="M 105.36241919743992 79.69619591428918 l 4.717221688953611 -17.860883581631445 a39.47331434202661,39.47331434202661 0 0,0 0.6554489538286022,0.17915895880903007 l -5.023968532005924 17.77703808199612" fill="red" stroke="none" /><path d="M 105.71112130821622 79.79150937346287 l 4.9379783264702315 -17.472766439220457 a39.15712524030824,39.15712524030824 0 0,0 0.6470431192483742,0.1888896295991828 l -5.238011663442033 17.38517848070257" fill="red" stroke="none" /><path d="M 106.40334571778207 80.00007090966166 l 8.269463809720799 -25.828480469241462 a48.12000064620703,48.12000064620703 0 0,0 0.7866868007404212,0.25935826960892006 l -8.712833432703638 25.682308475373308" fill="red" stroke="none" /><path d="M 107.08798089147638 80.2323363322302 l 6.234937606678907 -17.388612001842734 a39.472635824640946,39.472635824640946 0 0,0 0.6376102723838467,0.23483724433341138 l -6.5333302048353294 17.278711489703" fill="red" stroke="none" /><path d="M 107.4271985657038 80.35727306442388 l 6.4697367244209545 -17.11052568456907 a39.292828717440585,39.292828717440585 0 0,0 0.6305878463124771,0.24465828759925737 l -6.763307735733099 16.996624693079266" fill="red" stroke="none" /><path d="M 107.76421540070413 80.48803036053334 l 6.5688877247837985 -16.508034777013375 a38.76697774355274,38.76697774355274 0 0,0 0.617901560860718,0.25205756125931406 l -6.852073155232905 16.39251632957048" fill="red" stroke="none" /><path d="M 108.09893153111575 80.62456947434976 l 6.544599947006872 -15.656934634430314 a37.96971981540019,37.96971981540019 0 0,0 0.6008549812765903,0.2572547456407483 l -6.813138686073778 15.541960360826774" fill="red" stroke="none" /><path d="M 108.76106565485865 80.91482961587045 l 12.155159453296914 -26.478889481188055 a50.13553654031524,50.13553654031524 0 0,0 0.7812114259131581,0.36678923936781427 l -12.60914909050967 26.26573525918024" fill="red" stroke="none" /><path d="M 109.73455568895987 81.39251694778311 l 7.548174240082177 -14.428241897758001 a37.283399479803336,37.283399479803336 0 0,0 0.5660950764951943,0.3023883847497115 l -7.7954143631056825 14.296174786506535" fill="red" stroke="none" /><path d="M 110.05341064243156 81.56283822128135 l 10.542332777240034 -19.3338063919024 a43.02128175165187,43.02128175165187 0 0,0 0.6471136458376985,0.3601180432936005 l -10.873570512149769 19.14947295104862" fill="red" stroke="none" /><line stroke="#e1ed5e" stroke-width="0.3" x1="143.23703022742887" x2="145.7803849466894" y1="26.81831364943548" y2="22.513508569990506" /><path d="M 143.74570117128098 25.957352633546492 a86.0,86.0 0 0,1 28.547481713284135,27.462654790039103" fill="none" id="id38" stroke="none" /><text fill="#e1ed5e" style="font-size:6.75px; font-family:Arial;" text-anchor="middle"><textPath startOffset="19.985693538727396" xlink:href="#id38">February</textPath></text><path d="M 110.68208982089419 81.91981866633111 l 18.946574425860774 -32.06839738431827 a58.24721188590137,58.24721188590137 0 0,0 0.8588355398539984,0.5174388031855898 l -19.49577203193241 31.737511971674063" fill="red" stroke="none" /><path d="M 111.2981086023043 82.29822771554956 l 9.800933838382544 -15.356012682213715 a39.2171740289393,39.2171740289393 0 0,0 0.5659093755392838,0.3680831996441406 l -10.063810239706108 15.185030558410046" fill="red" stroke="none" /><path d="M 111.60114157652 82.49532879139004 l 10.225552389860985 -15.429079227272513 a39.50995428085234,39.50995428085234 0 0,0 0.5636665155597865,0.3805901474590758 l -10.489623599827313 15.250777167514768" fill="red" stroke="none" /><path d="M 112.19680574252982 82.90503203632743 l 13.108385594336083 -18.372632681133688 a43.569523799266555,43.569523799266555 0 0,0 0.6067672047300273,0.4408421788352978 l -13.4226981154199 18.144271267481717" fill="red" stroke="none" /><path d="M 112.48926042617603 83.11751280151076 l 10.850784384288346 -14.667660230494826 a39.24499324175143,39.24499324175143 0 0,0 0.5396258449658091,0.40643499881124157 l -11.101656383012537 14.478708642177738" fill="red" stroke="none" /><path d="M 112.77801427241765 83.33499621200491 l 23.132665432239076 -30.16947303673251 a59.01732911862745,59.01732911862745 0 0,0 0.8008579752500102,0.6250823526813447 l -23.648555962648516 29.766812294827943" fill="red" stroke="none" /><path d="M 113.34407831869373 83.78471172551755 l 11.556378975065257 -14.042934402396035 a39.18664074658452,39.18664074658452 0 0,0 0.5171562921336499,0.43310352204316505 l -11.796392804158025 13.841929722959051" fill="red" stroke="none" /><path d="M 113.89432698308785 84.25364557470407 l 11.993180750134094 -13.591797213935921 a39.126591957953465,39.126591957953465 0 0,0 0.5011725395002181,0.4499576543488094 l -12.225364277230302 13.383340550817815" fill="red" stroke="none" /><path d="M 114.16331599549186 84.49514656593476 l 12.296295643989447 -13.46099047727773 a39.23176215273103,39.23176215273103 0 0,0 0.4946791106132803,0.4597503212379807 l -12.526182638397575 13.247335569965108" fill="red" stroke="none" /><path d="M 114.68862486808459 84.99185889309783 l 30.46897559591696 -31.13175598349328 a64.56081615948389,64.56081615948389 0 0,0 0.7875318958113706,0.7841499835739443 l -31.000343291895653 30.60267014926922" fill="red" stroke="none" /><path d="M 115.19652480421416 85.50635884689758 l 11.018153569159736 -10.508531789905755 a36.22593013424951,36.22593013424951 0 0,0 0.4264873200572102,0.4549469370685938 l -11.19740821118741 10.317315435959106" fill="red" stroke="none" /><path d="M 115.68641384162765 86.03803664274999 l 13.669300792423156 -12.16659707629119 a39.299613891297206,39.299613891297206 0 0,0 0.4454108506846551,0.5091815993834528 l -13.87670350668566 11.929499920704789" fill="red" stroke="none" /><path d="M 115.9244219780498 86.31012108654704 l 13.921724328221998 -11.968203340914716 a39.35898416254261,39.35898416254261 0 0,0 0.43723967947856357,0.517553868008375 l -14.12567462118768 11.726790523277234" fill="red" stroke="none" /><path d="M 116.15771136456269 86.58626213691792 l 20.947711140170213 -17.39027884122698 a48.225510099677436,48.225510099677436 0 0,0 0.5247429418171746,0.643272800364003 l -21.243952574063798 17.027121871254874" fill="red" stroke="none" /><path d="M 116.38621287248628 86.86637796730983 l 11.727191265184128 -9.399395624879638 a36.02916009240761,36.02916009240761 0 0,0 0.38370355401398853,0.4872645478917815 l -11.887248899792082 9.19613868303482" fill="red" stroke="none" /><path d="M 116.60985879189232 87.15038557335679 l 13.840192409785008 -10.706962550644915 a38.49828485883069,38.49828485883069 0 0,0 0.4009762456539042,0.5276377373733412 l -14.022444595663025 10.467140037390541" fill="red" stroke="none" /><line stroke="#e1ed5e" stroke-width="0.3" x1="172.23445277983987" x2="176.4835382374775" y1="55.19839476539836" y2="52.563006222186495" /><path d="M 173.08426987136738 54.67131705675599 a86.0,86.0 0 0,1 12.851231095245387,41.99856678651699" fill="none" id="id39" stroke="none" /><text fill="#e1ed5e" style="font-size:6.75px; font-family:Arial;" text-anchor="middle"><textPath startOffset="22.20632615414155" xlink:href="#id39">March</textPath></text><path d="M 117.84615892207809 88.93136811851018 l 7.628625330424819 -4.731463275260834 a29.97678501230486,29.97678501230486 0 0,0 0.2681983010467803,0.4408474889258427 l -7.708939429757822 4.59944801312791" fill="red" stroke="none" /><path d="M 118.03404312379186 89.2402003453031 l 26.675960395596594 -15.915897920560006 a52.06320443298026,52.06320443298026 0 0,0 0.4525540135863864,0.7735615067579896 l -26.945974083653304 15.454357001448122" fill="red" stroke="none" /><path d="M 118.3937258080291 89.86733742301442 l 15.86355961413309 -8.738854678900408 a39.111325316776075,39.111325316776075 0 0,0 0.3197665612248696,0.592478873825577 l -16.011634274576426 8.464494821742372" fill="red" stroke="none" /><path d="M 118.73160827565052 90.50648371742162 l 20.083478851745532 -10.178668627066598 a43.515581667106446,43.515581667106446 0 0,0 0.33287345120613765,0.6710525654182526 l -20.25571231590508 9.831456473149396" fill="red" stroke="none" /><path d="M 118.89224826269711 90.83032412892265 l 16.053919384884157 -7.7920443968788415 a38.84500724290383,38.84500724290383 0 0,0 0.2867904801509463,0.604053891888971 l -16.18566805887686 7.51454808934933" fill="red" stroke="none" /><path d="M 119.04729006885535 91.15688171328212 l 27.931047332780473 -12.967595628711765 a51.7945115482582,51.7945115482582 0 0,0 0.36847523901547347,0.8118863459267721 l -28.150124888759294 12.484887273942931" fill="red" stroke="none" /><path d="M 119.196687751892 91.48605970444005 l 16.24315237604558 -7.204015157651593 a38.769013295709726,38.769013295709726 0 0,0 0.2653079705155294,0.6123673749390612 l -16.364751056403787 6.923348638125929" fill="red" stroke="none" /><path d="M 119.47837535516314 92.15188598940014 l 27.92439963086246 -11.25113711921923 a51.10581640181153,51.10581640181153 0 0,0 0.32173897937528917,0.8187906087620397 l -28.11393216011945 10.768797505561407" fill="red" stroke="none" /><path d="M 119.7369772167798 92.82701384747503 l 36.151704804632665 -13.138571074264494 a59.4651505931642,59.4651505931642 0 0,0 0.34134955729460337,0.9650411650975795 l -36.37250744273708 12.5143322827403" fill="red" stroke="none" /><path d="M 119.97218684219823 93.5106431181261 l 31.687868051615048 -10.29601246159918 a54.318596222919886,54.318596222919886 0 0,0 0.28127854612626507,0.8917298575143889 l -31.86040208150952 9.749032437658371" fill="red" stroke="none" /><path d="M 120.08093135843002 93.85539295169968 l 47.89603668988968 -14.65581049888893 a71.08815340954986,71.08815340954986 0 0,0 0.3479734740819219,1.1731935677240217 l -48.1412160610833 13.82918754441838" fill="red" stroke="none" /><path d="M 120.28053869075195 94.5502522615342 l 28.736924516004716 -7.722131634648032 a50.75637994819573,50.75637994819573 0 0,0 0.21946978477527562,0.8457066080987781 l -28.865590632650296 7.226328601000404" fill="red" stroke="none" /><path d="M 120.45610955862082 95.25157060432595 l 38.9286157331519 -9.036409525989098 a60.96365623939817,60.96365623939817 0 0,0 0.22848485404375662,1.0242527993005346 l -39.07839497419769 8.3649785571386" fill="red" stroke="none" /><path d="M 120.6074358757038 95.95851677861258 l 32.60586653131836 -6.394588016672435 a54.22699637585555,54.22699637585555 0 0,0 0.17175568611822456,0.9175257431285541 l -32.71110794134645 5.8323841960813185" fill="red" stroke="none" /><path d="M 120.67395015179393 96.31383870115 l 52.553531086081925 -9.370284390988314 a74.38235531693762,74.38235531693762 0 0,0 0.21389580825386686,1.2624251682617889 l -52.70703875585601 8.464273434410686" fill="red" stroke="none" /><path d="M 120.78858239683441 97.02765380044208 l 29.350680994334052 -4.196552869388055 a50.649174201261175,50.649174201261175 0 0,0 0.11597214000063148,0.8641271478992135 l -29.41856913339252 3.690707379424177" fill="red" stroke="none" /><path d="M 120.83666639777658 97.38593545837742 l 44.44730608935566 -5.576137977197158 a65.79571780138826,65.79571780138826 0 0,0 0.13130834794912682,1.1249697365714004 l -44.53670479030838 4.810224502300905" fill="red" stroke="none" /><path d="M 120.87857604477298 97.74499172005257 l 22.787789879076296 -2.4612145363181543 a43.920317287653674,43.920317287653674 0 0,0 0.07471237973635673,0.752343467980669 l -22.82677938449488 2.0685955376330507" fill="red" stroke="none" /><path d="M 120.94382443527127 98.46500227214037 l 31.58372800717556 -2.3148088773464366 a52.668441940990526,52.668441940990526 0 0,0 0.0584855685134359,0.9047458585775051 l -31.618894166693412 1.7708039545158965" fill="red" stroke="none" /><path d="M 120.96714384426684 98.82574320788733 l 62.90143153280055 -3.5227703763380056 a84.0,84.0 0 0,0 0.0684255670660141,1.444355573508001 l -62.95275070810006 2.4395036962070047" fill="red" stroke="none" /><line stroke="#e1ed5e" stroke-width="0.3" x1="184.98032266829074" x2="189.97916517819016" y1="98.17113171792111" y2="98.06355123074" /><path d="M 185.9800911702706 98.14961562048488 a86.0,86.0 0 0,1 -9.607161424134198,41.387399972396054" fill="none" id="id40" stroke="none" /><text fill="#e1ed5e" style="font-size:6.75px; font-family:Arial;" text-anchor="middle"><textPath startOffset="21.466115282336823" xlink:href="#id40">April</textPath></text><line stroke="#e1ed5e" stroke-width="0.3" x1="174.80103733775053" x2="179.2010983576182" y1="140.37084112569926" y2="142.7455964860345" /><path d="M 175.68104954172406 140.8457921977663 a86.0,86.0 0 0,1 -30.038265399797805,32.042727171017184" fill="none" id="id41" stroke="none" /><text fill="#e1ed5e" style="font-size:6.75px; font-family:Arial;" text-anchor="middle"><textPath startOffset="22.206326154141568" xlink:href="#id41">May</textPath></text><line stroke="#e1ed5e" stroke-width="0.3" x1="143.8653032363475" x2="146.44561519142675" y1="172.8068346515853" y2="177.08958963109032" /><path d="M 144.38136562736335 173.6633856474863 a86.0,86.0 0 0,1 -40.68145358897372,12.25698825130547" fill="none" id="id42" stroke="none" /><text fill="#e1ed5e" style="font-size:6.75px; font-family:Arial;" text-anchor="middle"><textPath startOffset="21.466115282336833" xlink:href="#id42">June</textPath></text><line stroke="#e1ed5e" stroke-width="0.3" x1="102.19456741930631" x2="102.32365962044197" y1="184.97166512339345" y2="189.96999836594603" /><path d="M 102.22038585953345 185.97133177190398 a86.0,86.0 0 0,1 -42.740103519485714,-10.115201625700543" fill="none" id="id43" stroke="none" /><text fill="#e1ed5e" style="font-size:6.75px; font-family:Arial;" text-anchor="middle"><textPath startOffset="22.20632615414155" xlink:href="#id43">July</textPath></text><line stroke="#e1ed5e" stroke-width="0.3" x1="58.666819895761336" x2="56.23545636021788" y1="174.27360380694188" y2="178.64263932499728" /><path d="M 58.180547188652646 175.14741091055294 a86.0,86.0 0 0,1 -31.652253787137756,-30.449443065178592" fill="none" id="id44" stroke="none" /><text fill="#e1ed5e" style="font-size:6.75px; font-family:Arial;" text-anchor="middle"><textPath startOffset="22.20632615414155" xlink:href="#id44">August</textPath></text><line stroke="#e1ed5e" stroke-width="0.3" x1="26.63291911575756" x2="22.317208475507996" y1="142.92168965132927" y2="145.44649492493687" /><path d="M 25.769776987707644 143.4266507060508 a86.0,86.0 0 0,1 -11.730757126820373,-40.83630448921669" fill="none" id="id45" stroke="none" /><text fill="#e1ed5e" style="font-size:6.75px; font-family:Arial;" text-anchor="middle"><textPath startOffset="21.46611528233685" xlink:href="#id45">September</textPath></text><line stroke="#e1ed5e" stroke-width="0.3" x1="15.007084014347285" x2="10.007500721073583" y1="101.09737516637583" y2="101.16192664675087" /><path d="M 14.007167355692545 101.11028546245083 a86.0,86.0 0 0,1 10.666146001902534,-42.60595125391555" fill="none" id="id46" stroke="none" /><text fill="#e1ed5e" style="font-size:6.75px; font-family:Arial;" text-anchor="middle"><textPath startOffset="22.20632615414155" xlink:href="#id46">October</textPath></text><line stroke="#e1ed5e" stroke-width="0.3" x1="26.266209847984243" x2="21.928928074336255" y1="57.711370442889674" y2="55.22380399835377" /><path d="M 25.398753493254645 57.213857153982495 a86.0,86.0 0 0,1 29.58750427330803,-30.492523968695096" fill="none" id="id47" stroke="none" /><text fill="#e1ed5e" style="font-size:6.75px; font-family:Arial;" text-anchor="middle"><textPath startOffset="21.46611528233685" xlink:href="#id47">November</textPath></text><line stroke="#e1ed5e" stroke-width="0.3" x1="56.762969772571076" x2="54.21961505331055" y1="26.818313649435495" y2="22.513508569990535" /><path d="M 56.25429882871897 25.957352633546506 a86.0,86.0 0 0,1 42.265352541879196,-11.944610805530505" fill="none" id="id48" stroke="none" /><text fill="#e1ed5e" style="font-size:6.75px; font-family:Arial;" text-anchor="middle"><textPath startOffset="22.20632615414155" xlink:href="#id48">December</textPath></text></svg>